<?xml version="1.0" encoding="UTF-8" standalone="no"?>
<!DOCTYPE svg PUBLIC "-//W3C//DTD SVG 1.0//EN" "http://www.w3.org/TR/2001/PR-SVG-20010719/DTD/svg10.dtd">
<svg width="46cm" height="49cm" viewBox="-1382 -925 903 966" xmlns="http://www.w3.org/2000/svg" xmlns:xlink="http://www.w3.org/1999/xlink">
  <g>
    <rect style="fill: #a6b1ed" x="-1258.54" y="0" width="117.071" height="40" rx="10" ry="10"/>
    <rect style="fill: none; fill-opacity:0; stroke-width: 2; stroke-linejoin: round; stroke: #000000" x="-1258.54" y="0" width="117.071" height="40" rx="10" ry="10"/>
  </g>
  <text font-size="28.2222" style="fill: #000000;text-anchor:middle;font-family:monospace;font-style:normal;font-weight:normal" x="-1200" y="27.525">
    <tspan x="-1200" y="27.525">maint</tspan>
  </text>
  <g>
    <line style="fill: none; fill-opacity:0; stroke-width: 4; stroke-linejoin: round; stroke: #000000" x1="-980" y1="0" x2="-978.555" y2="-908"/>
    <polygon style="fill: #000000" points="-973.555,-907.992 -978.539,-918 -983.555,-908.008 "/>
    <polygon style="fill: none; fill-opacity:0; stroke-width: 4; stroke: #000000" points="-973.555,-907.992 -978.539,-918 -983.555,-908.008 "/>
  </g>
  <g>
    <line style="fill: none; fill-opacity:0; stroke-width: 4; stroke: #000000" x1="-760" y1="0" x2="-758.555" y2="-908"/>
    <polygon style="fill: #000000" points="-753.555,-907.992 -758.539,-918 -763.555,-908.008 "/>
    <polygon style="fill: none; fill-opacity:0; stroke-width: 4; stroke: #000000" points="-753.555,-907.992 -758.539,-918 -763.555,-908.008 "/>
  </g>
  <g>
    <line style="fill: none; fill-opacity:0; stroke-width: 4; stroke: #000000" x1="-620" y1="0" x2="-620" y2="-908"/>
    <polygon style="fill: #000000" points="-615,-908 -620,-918 -625,-908 "/>
    <polygon style="fill: none; fill-opacity:0; stroke-width: 4; stroke: #000000" points="-615,-908 -620,-918 -625,-908 "/>
  </g>
  <g>
    <line style="fill: none; fill-opacity:0; stroke-width: 4; stroke: #000000" x1="-1200" y1="0" x2="-1198.56" y2="-908"/>
    <polygon style="fill: #000000" points="-1193.56,-907.992 -1198.54,-918 -1203.56,-908.008 "/>
    <polygon style="fill: none; fill-opacity:0; stroke-width: 4; stroke: #000000" points="-1193.56,-907.992 -1198.54,-918 -1203.56,-908.008 "/>
  </g>
  <g>
    <rect style="fill: #e4c8c8" x="-998.536" y="-80" width="40" height="40" rx="10" ry="10"/>
    <rect style="fill: none; fill-opacity:0; stroke-width: 2; stroke-linejoin: round; stroke: #000000" x="-998.536" y="-80" width="40" height="40" rx="10" ry="10"/>
  </g>
  <g>
    <rect style="fill: #b5b5b5" x="-778.536" y="-260" width="40" height="40" rx="10" ry="10"/>
    <rect style="fill: none; fill-opacity:0; stroke-width: 2; stroke-linejoin: round; stroke: #000000" x="-778.536" y="-260" width="40" height="40" rx="10" ry="10"/>
  </g>
  <g>
    <rect style="fill: #a9e5a1" x="-640" y="-260" width="40" height="40" rx="10" ry="10"/>
    <rect style="fill: none; fill-opacity:0; stroke-width: 2; stroke-linejoin: round; stroke: #000000" x="-640" y="-260" width="40" height="40" rx="10" ry="10"/>
  </g>
  <g>
    <rect style="fill: #a9e5a1" x="-640" y="-320" width="40" height="40" rx="10" ry="10"/>
    <rect style="fill: none; fill-opacity:0; stroke-width: 2; stroke-linejoin: round; stroke: #000000" x="-640" y="-320" width="40" height="40" rx="10" ry="10"/>
  </g>
  <g>
    <rect style="fill: #b5b5b5" x="-778.536" y="-380" width="40" height="40" rx="10" ry="10"/>
    <rect style="fill: none; fill-opacity:0; stroke-width: 2; stroke-linejoin: round; stroke: #000000" x="-778.536" y="-380" width="40" height="40" rx="10" ry="10"/>
  </g>
  <g>
    <rect style="fill: #a6b1ed" x="-1220" y="-878.536" width="40" height="40" rx="10" ry="10"/>
    <rect style="fill: none; fill-opacity:0; stroke-width: 2; stroke-linejoin: round; stroke: #000000" x="-1220" y="-878.536" width="40" height="40" rx="10" ry="10"/>
  </g>
  <g>
    <rect style="fill: #b5b5b5" x="-778.536" y="-560" width="40" height="40" rx="10" ry="10"/>
    <rect style="fill: none; fill-opacity:0; stroke-width: 2; stroke-linejoin: round; stroke: #000000" x="-778.536" y="-560" width="40" height="40" rx="10" ry="10"/>
  </g>
  <g>
    <rect style="fill: #e4c8c8" x="-1038.54" y="0" width="117.071" height="40" rx="10" ry="10"/>
    <rect style="fill: none; fill-opacity:0; stroke-width: 2; stroke-linejoin: round; stroke: #000000" x="-1038.54" y="0" width="117.071" height="40" rx="10" ry="10"/>
  </g>
  <g>
    <rect style="fill: #b5b5b5" x="-818.536" y="0" width="117.071" height="40" rx="10" ry="10"/>
    <rect style="fill: none; fill-opacity:0; stroke-width: 2; stroke-linejoin: round; stroke: #000000" x="-818.536" y="0" width="117.071" height="40" rx="10" ry="10"/>
  </g>
  <g>
    <rect style="fill: #a9e5a1" x="-640" y="0" width="157.071" height="40" rx="10" ry="10"/>
    <rect style="fill: none; fill-opacity:0; stroke-width: 2; stroke-linejoin: round; stroke: #000000" x="-640" y="0" width="157.071" height="40" rx="10" ry="10"/>
  </g>
  <text font-size="28.2222" style="fill: #000000;text-anchor:middle;font-family:monospace;font-style:normal;font-weight:normal" x="-980" y="27.525">
    <tspan x="-980" y="27.525">master</tspan>
  </text>
  <text font-size="28.2222" style="fill: #000000;text-anchor:middle;font-family:monospace;font-style:normal;font-weight:normal" x="-760" y="27.525">
    <tspan x="-760" y="27.525">next</tspan>
  </text>
  <text font-size="28.2222" style="fill: #000000;text-anchor:middle;font-family:monospace;font-style:normal;font-weight:normal" x="-561.464" y="27.525">
    <tspan x="-561.464" y="27.525">pu/*</tspan>
  </text>
  <g>
    <rect style="fill: #f6f687" x="-1160" y="-80" width="140" height="38.5355" rx="10" ry="10"/>
    <rect style="fill: none; fill-opacity:0; stroke-width: 2; stroke-linejoin: round; stroke: #000000" x="-1160" y="-80" width="140" height="38.5355" rx="10" ry="10"/>
  </g>
  <text font-size="28.2222" style="fill: #000000;text-anchor:middle;font-family:monospace;font-style:normal;font-weight:normal" x="-1090" y="-53.2072">
    <tspan x="-1090" y="-53.2072">v0.1</tspan>
  </text>
  <g>
    <rect style="fill: #f6f687" x="-1380" y="-380" width="140" height="39.9991" rx="10" ry="10"/>
    <rect style="fill: none; fill-opacity:0; stroke-width: 2; stroke-linejoin: round; stroke: #000000" x="-1380" y="-380" width="140" height="39.9991" rx="10" ry="10"/>
  </g>
  <text font-size="28.2222" style="fill: #000000;text-anchor:middle;font-family:monospace;font-style:normal;font-weight:normal" x="-1310" y="-352.475">
    <tspan x="-1310" y="-352.475">v0.1.1</tspan>
  </text>
  <g>
    <rect style="fill: #f6f687" x="-1160" y="-738.536" width="140" height="37.0711" rx="10" ry="10"/>
    <rect style="fill: none; fill-opacity:0; stroke-width: 2; stroke-linejoin: round; stroke: #000000" x="-1160" y="-738.536" width="140" height="37.0711" rx="10" ry="10"/>
  </g>
  <text font-size="28.2222" style="fill: #000000;text-anchor:middle;font-family:monospace;font-style:normal;font-weight:normal" x="-1090" y="-712.475">
    <tspan x="-1090" y="-712.475">v0.2</tspan>
  </text>
  <g>
    <line style="fill: none; fill-opacity:0; stroke-width: 4; stroke-linejoin: round; stroke: #000000" x1="-958.536" y1="-60" x2="-788.497" y2="-173.359"/>
    <polygon style="fill: #000000" points="-782.257,-177.519 -787.804,-167.812 -788.497,-173.359 -793.351,-176.133 "/>
    <polygon style="fill: none; fill-opacity:0; stroke-width: 4; stroke: #000000" points="-782.257,-177.519 -787.804,-167.812 -788.497,-173.359 -793.351,-176.133 "/>
  </g>
  <g>
    <line style="fill: none; fill-opacity:0; stroke-width: 4; stroke: #000000" x1="-500" y1="0" x2="-500" y2="-908"/>
    <polygon style="fill: #000000" points="-495,-908 -500,-918 -505,-908 "/>
    <polygon style="fill: none; fill-opacity:0; stroke-width: 4; stroke: #000000" points="-495,-908 -500,-918 -505,-908 "/>
  </g>
  <g>
    <rect style="fill: #a9e5a1" x="-520" y="-320" width="40" height="40" rx="10" ry="10"/>
    <rect style="fill: none; fill-opacity:0; stroke-width: 2; stroke-linejoin: round; stroke: #000000" x="-520" y="-320" width="40" height="40" rx="10" ry="10"/>
  </g>
  <g>
    <rect style="fill: #a9e5a1" x="-520" y="-140" width="40" height="40" rx="10" ry="10"/>
    <rect style="fill: none; fill-opacity:0; stroke-width: 2; stroke-linejoin: round; stroke: #000000" x="-520" y="-140" width="40" height="40" rx="10" ry="10"/>
  </g>
  <g>
    <line style="fill: none; fill-opacity:0; stroke-width: 4; stroke-linejoin: round; stroke: #000000" x1="-958.536" y1="-60" x2="-647.751" y2="-217.516"/>
    <polygon style="fill: #000000" points="-641.061,-220.906 -647.72,-211.926 -647.751,-217.516 -652.241,-220.845 "/>
    <polygon style="fill: none; fill-opacity:0; stroke-width: 4; stroke: #000000" points="-641.061,-220.906 -647.72,-211.926 -647.751,-217.516 -652.241,-220.845 "/>
  </g>
  <g>
    <line style="fill: none; fill-opacity:0; stroke-width: 4; stroke: #000000" x1="-958.536" y1="-60" x2="-531.862" y2="-118.377"/>
    <polygon style="fill: #000000" points="-524.431,-119.394 -533.661,-113.084 -531.862,-118.377 -535.016,-122.992 "/>
    <polygon style="fill: none; fill-opacity:0; stroke-width: 4; stroke: #000000" points="-524.431,-119.394 -533.661,-113.084 -531.862,-118.377 -535.016,-122.992 "/>
  </g>
  <g>
    <rect style="fill: #b5b5b5" x="-778.536" y="-440" width="40" height="40" rx="10" ry="10"/>
    <rect style="fill: none; fill-opacity:0; stroke-width: 2; stroke-linejoin: round; stroke: #000000" x="-778.536" y="-440" width="40" height="40" rx="10" ry="10"/>
  </g>
  <g>
    <rect style="fill: #e4c8c8" x="-998.536" y="-620" width="40" height="40" rx="10" ry="10"/>
    <rect style="fill: none; fill-opacity:0; stroke-width: 2; stroke-linejoin: round; stroke: #000000" x="-998.536" y="-620" width="40" height="40" rx="10" ry="10"/>
  </g>
  <g>
    <rect style="fill: #e4c8c8" x="-998.536" y="-680" width="40" height="40" rx="10" ry="10"/>
    <rect style="fill: none; fill-opacity:0; stroke-width: 2; stroke-linejoin: round; stroke: #000000" x="-998.536" y="-680" width="40" height="40" rx="10" ry="10"/>
  </g>
  <g>
    <rect style="fill: #b5b5b5" x="-778.536" y="-880" width="40" height="40" rx="10" ry="10"/>
    <rect style="fill: none; fill-opacity:0; stroke-width: 2; stroke-linejoin: round; stroke: #000000" x="-778.536" y="-880" width="40" height="40" rx="10" ry="10"/>
  </g>
  <g>
    <rect style="fill: #f6f687" x="-1160" y="-620" width="140" height="38.5351" rx="10" ry="10"/>
    <rect style="fill: none; fill-opacity:0; stroke-width: 2; stroke-linejoin: round; stroke: #000000" x="-1160" y="-620" width="140" height="38.5351" rx="10" ry="10"/>
  </g>
  <text font-size="28.2222" style="fill: #000000;text-anchor:middle;font-family:monospace;font-style:normal;font-weight:normal" x="-1090" y="-593.207">
    <tspan x="-1090" y="-593.207">v0.2-rc1</tspan>
  </text>
  <g>
    <rect style="fill: #b5b5b5" x="-778.536" y="-500" width="40" height="40" rx="10" ry="10"/>
    <rect style="fill: none; fill-opacity:0; stroke-width: 2; stroke-linejoin: round; stroke: #000000" x="-778.536" y="-500" width="40" height="40" rx="10" ry="10"/>
  </g>
  <g>
    <line style="fill: none; fill-opacity:0; stroke-width: 4; stroke-linejoin: round; stroke: #000000" x1="-961.464" y1="-718.536" x2="-789.885" y2="-776.187"/>
    <polygon style="fill: #000000" points="-782.775,-778.576 -790.662,-770.651 -789.885,-776.187 -793.847,-780.13 "/>
    <polygon style="fill: none; fill-opacity:0; stroke-width: 4; stroke: #000000" points="-782.775,-778.576 -790.662,-770.651 -789.885,-776.187 -793.847,-780.13 "/>
  </g>
  <g>
    <rect style="fill: #a9e5a1" x="-520" y="-500" width="40" height="40" rx="10" ry="10"/>
    <rect style="fill: none; fill-opacity:0; stroke-width: 2; stroke-linejoin: round; stroke: #000000" x="-520" y="-500" width="40" height="40" rx="10" ry="10"/>
  </g>
  <g>
    <rect style="fill: #a9e5a1" x="-520" y="-680" width="40" height="40" rx="10" ry="10"/>
    <rect style="fill: none; fill-opacity:0; stroke-width: 2; stroke-linejoin: round; stroke: #000000" x="-520" y="-680" width="40" height="40" rx="10" ry="10"/>
  </g>
  <g>
    <rect style="fill: #b5b5b5" x="-778.536" y="-200" width="40" height="40" rx="10" ry="10"/>
    <rect style="fill: none; fill-opacity:0; stroke-width: 2; stroke-linejoin: round; stroke: #000000" x="-778.536" y="-200" width="40" height="40" rx="10" ry="10"/>
  </g>
  <g>
    <line style="fill: none; fill-opacity:0; stroke-width: 4; stroke-linejoin: round; stroke: #000000" x1="-995.606" y1="-77.071" x2="-1176.03" y2="-333.141"/>
    <polygon style="fill: #000000" points="-1180.35,-339.272 -1170.51,-333.977 -1176.03,-333.141 -1178.68,-328.218 "/>
    <polygon style="fill: none; fill-opacity:0; stroke-width: 4; stroke: #000000" points="-1180.35,-339.272 -1170.51,-333.977 -1176.03,-333.141 -1178.68,-328.218 "/>
  </g>
  <g>
    <rect style="fill: #e4c8c8" x="-998.536" y="-320" width="40" height="40" rx="10" ry="10"/>
    <rect style="fill: none; fill-opacity:0; stroke-width: 2; stroke-linejoin: round; stroke: #000000" x="-998.536" y="-320" width="40" height="40" rx="10" ry="10"/>
  </g>
  <g>
    <rect style="fill: #f6f687" x="-1380" y="-500" width="140" height="40" rx="10" ry="10"/>
    <rect style="fill: none; fill-opacity:0; stroke-width: 2; stroke-linejoin: round; stroke: #000000" x="-1380" y="-500" width="140" height="40" rx="10" ry="10"/>
  </g>
  <text font-size="28.2222" style="fill: #000000;text-anchor:middle;font-family:monospace;font-style:normal;font-weight:normal" x="-1310" y="-472.475">
    <tspan x="-1310" y="-472.475">v0.1.2</tspan>
  </text>
  <g>
    <rect style="fill: #e4c8c8" x="-998.536" y="-560" width="40" height="40" rx="10" ry="10"/>
    <rect style="fill: none; fill-opacity:0; stroke-width: 2; stroke-linejoin: round; stroke: #000000" x="-998.536" y="-560" width="40" height="40" rx="10" ry="10"/>
  </g>
  <g>
    <line style="fill: none; fill-opacity:0; stroke-width: 4; stroke-linejoin: round; stroke: #000000" x1="-778.536" y1="-540" x2="-947.178" y2="-596.214"/>
    <polygon style="fill: #000000" points="-954.293,-598.586 -943.225,-600.167 -947.178,-596.214 -946.388,-590.68 "/>
    <polygon style="fill: none; fill-opacity:0; stroke-width: 4; stroke: #000000" points="-954.293,-598.586 -943.225,-600.167 -947.178,-596.214 -946.388,-590.68 "/>
  </g>
  <g>
    <line style="fill: none; fill-opacity:0; stroke-width: 4; stroke: #000000" x1="-640" y1="-360" x2="-728.31" y2="-413.773"/>
    <polygon style="fill: #000000" points="-734.716,-417.674 -723.575,-416.744 -728.31,-413.773 -728.776,-408.203 "/>
    <polygon style="fill: none; fill-opacity:0; stroke-width: 4; stroke: #000000" points="-734.716,-417.674 -723.575,-416.744 -728.31,-413.773 -728.776,-408.203 "/>
  </g>
  <g>
    <rect style="fill: #e4c8c8" x="-998.536" y="-440" width="40" height="40" rx="10" ry="10"/>
    <rect style="fill: none; fill-opacity:0; stroke-width: 2; stroke-linejoin: round; stroke: #000000" x="-998.536" y="-440" width="40" height="40" rx="10" ry="10"/>
  </g>
  <g>
    <line style="fill: none; fill-opacity:0; stroke-width: 4; stroke-linejoin: round; stroke: #000000" x1="-1180" y1="-360" x2="-1009.9" y2="-416.242"/>
    <polygon style="fill: #000000" points="-1002.78,-418.596 -1010.71,-410.71 -1009.9,-416.242 -1013.85,-420.204 "/>
    <polygon style="fill: none; fill-opacity:0; stroke-width: 4; stroke: #000000" points="-1002.78,-418.596 -1010.71,-410.71 -1009.9,-416.242 -1013.85,-420.204 "/>
  </g>
  <g>
    <line style="fill: none; fill-opacity:0; stroke-width: 4; stroke: #000000" x1="-1180" y1="-480" x2="-1009.9" y2="-536.242"/>
    <polygon style="fill: #000000" points="-1002.78,-538.596 -1010.71,-530.71 -1009.9,-536.242 -1013.85,-540.204 "/>
    <polygon style="fill: none; fill-opacity:0; stroke-width: 4; stroke: #000000" points="-1002.78,-538.596 -1010.71,-530.71 -1009.9,-536.242 -1013.85,-540.204 "/>
  </g>
  <g>
    <rect style="fill: #e4c8c8" x="-998.536" y="-260" width="40" height="40" rx="10" ry="10"/>
    <rect style="fill: none; fill-opacity:0; stroke-width: 2; stroke-linejoin: round; stroke: #000000" x="-998.536" y="-260" width="40" height="40" rx="10" ry="10"/>
  </g>
  <g>
    <line style="fill: none; fill-opacity:0; stroke-width: 4; stroke-linejoin: round; stroke: #000000" x1="-995.606" y1="-734.144" x2="-1172.54" y2="-835.513"/>
    <polygon style="fill: #000000" points="-1179.05,-839.241 -1167.89,-838.608 -1172.54,-835.513 -1172.86,-829.931 "/>
    <polygon style="fill: none; fill-opacity:0; stroke-width: 4; stroke: #000000" points="-1179.05,-839.241 -1167.89,-838.608 -1172.54,-835.513 -1172.86,-829.931 "/>
  </g>
  <g>
    <rect style="fill: #f6f687" x="-1380" y="-877.072" width="140" height="37.072" rx="10" ry="10"/>
    <rect style="fill: none; fill-opacity:0; stroke-width: 2; stroke-linejoin: round; stroke: #000000" x="-1380" y="-877.072" width="140" height="37.072" rx="10" ry="10"/>
  </g>
  <text font-size="28.2222" style="fill: #000000;text-anchor:middle;font-family:monospace;font-style:normal;font-weight:normal" x="-1310" y="-851.011">
    <tspan x="-1310" y="-851.011">v0.2.1</tspan>
  </text>
  <g>
    <rect style="fill: #b5b5b5" x="-778.536" y="-800" width="40" height="40" rx="10" ry="10"/>
    <rect style="fill: none; fill-opacity:0; stroke-width: 2; stroke-linejoin: round; stroke: #000000" x="-778.536" y="-800" width="40" height="40" rx="10" ry="10"/>
  </g>
  <g>
    <line style="fill: none; fill-opacity:0; stroke-width: 4; stroke-linejoin: round; stroke: #000000" x1="-517.072" y1="-677.072" x2="-731.836" y2="-835.812"/>
    <polygon style="fill: #000000" points="-737.868,-840.27 -726.854,-838.347 -731.836,-835.812 -732.798,-830.305 "/>
    <polygon style="fill: none; fill-opacity:0; stroke-width: 4; stroke: #000000" points="-737.868,-840.27 -726.854,-838.347 -731.836,-835.812 -732.798,-830.305 "/>
  </g>
  <g>
    <rect style="fill: #a9e5a1" x="-640" y="-380" width="40" height="40" rx="10" ry="10"/>
    <rect style="fill: none; fill-opacity:0; stroke-width: 2; stroke-linejoin: round; stroke: #000000" x="-640" y="-380" width="40" height="40" rx="10" ry="10"/>
  </g>
  <g>
    <rect style="fill: #e4c8c8" x="-998.536" y="-500" width="40" height="40" rx="10" ry="10"/>
    <rect style="fill: none; fill-opacity:0; stroke-width: 2; stroke-linejoin: round; stroke: #000000" x="-998.536" y="-500" width="40" height="40" rx="10" ry="10"/>
  </g>
  <g>
    <rect style="fill: #a6b1ed" x="-1220" y="-380" width="40" height="40" rx="10" ry="10"/>
    <rect style="fill: none; fill-opacity:0; stroke-width: 2; stroke-linejoin: round; stroke: #000000" x="-1220" y="-380" width="40" height="40" rx="10" ry="10"/>
  </g>
  <g>
    <rect style="fill: #a6b1ed" x="-1220" y="-500" width="40" height="40" rx="10" ry="10"/>
    <rect style="fill: none; fill-opacity:0; stroke-width: 2; stroke-linejoin: round; stroke: #000000" x="-1220" y="-500" width="40" height="40" rx="10" ry="10"/>
  </g>
  <g>
    <rect style="fill: #e4c8c8" x="-1000" y="-740" width="40" height="40" rx="10" ry="10"/>
    <rect style="fill: none; fill-opacity:0; stroke-width: 2; stroke-linejoin: round; stroke: #000000" x="-1000" y="-740" width="40" height="40" rx="10" ry="10"/>
  </g>
  <g>
    <rect style="fill: #e4c8c8" x="-1000" y="-800" width="40" height="40" rx="10" ry="10"/>
    <rect style="fill: none; fill-opacity:0; stroke-width: 2; stroke-linejoin: round; stroke: #000000" x="-1000" y="-800" width="40" height="40" rx="10" ry="10"/>
  </g>
  <g>
    <line style="fill: none; fill-opacity:0; stroke-width: 4; stroke-linejoin: round; stroke: #000000" x1="-561.464" y1="0" x2="-560.019" y2="-908"/>
    <polygon style="fill: #000000" points="-555.019,-907.992 -560.003,-918 -565.019,-908.008 "/>
    <polygon style="fill: none; fill-opacity:0; stroke-width: 4; stroke: #000000" points="-555.019,-907.992 -560.003,-918 -565.019,-908.008 "/>
  </g>
  <g>
    <rect style="fill: #a9e5a1" x="-580" y="-200" width="40" height="40" rx="10" ry="10"/>
    <rect style="fill: none; fill-opacity:0; stroke-width: 2; stroke-linejoin: round; stroke: #000000" x="-580" y="-200" width="40" height="40" rx="10" ry="10"/>
  </g>
  <g>
    <rect style="fill: #a9e5a1" x="-580" y="-320" width="40" height="40" rx="10" ry="10"/>
    <rect style="fill: none; fill-opacity:0; stroke-width: 2; stroke-linejoin: round; stroke: #000000" x="-580" y="-320" width="40" height="40" rx="10" ry="10"/>
  </g>
  <g>
    <rect style="fill: #a9e5a1" x="-580" y="-440" width="40" height="40" rx="10" ry="10"/>
    <rect style="fill: none; fill-opacity:0; stroke-width: 2; stroke-linejoin: round; stroke: #000000" x="-580" y="-440" width="40" height="40" rx="10" ry="10"/>
  </g>
  <g>
    <line style="fill: none; fill-opacity:0; stroke-width: 4; stroke-linejoin: round; stroke: #000000" x1="-580" y1="-420" x2="-727.339" y2="-475.762"/>
    <polygon style="fill: #000000" points="-734.353,-478.417 -723.231,-479.554 -727.339,-475.762 -726.771,-470.201 "/>
    <polygon style="fill: none; fill-opacity:0; stroke-width: 4; stroke: #000000" points="-734.353,-478.417 -723.231,-479.554 -727.339,-475.762 -726.771,-470.201 "/>
  </g>
  <g>
    <line style="fill: none; fill-opacity:0; stroke-width: 4; stroke: #000000" x1="-958.536" y1="-60" x2="-591.412" y2="-176.382"/>
    <polygon style="fill: #000000" points="-584.263,-178.649 -592.285,-170.86 -591.412,-176.382 -595.306,-180.393 "/>
    <polygon style="fill: none; fill-opacity:0; stroke-width: 4; stroke: #000000" points="-584.263,-178.649 -592.285,-170.86 -591.412,-176.382 -595.306,-180.393 "/>
  </g>
  <g>
    <rect style="fill: #e9a963" x="-1097.59" y="-811.088" width="35.1749" height="42.1776" rx="10" ry="10"/>
    <rect style="fill: none; fill-opacity:0; stroke-width: 2; stroke-linejoin: round; stroke: #000000" x="-1097.59" y="-811.088" width="35.1749" height="42.1776" rx="10" ry="10"/>
  </g>
  <text font-size="28.2222" style="fill: #000000;text-anchor:middle;font-family:monospace;font-style:normal;font-weight:normal" x="-1080" y="-782.475">
    <tspan x="-1080" y="-782.475">10</tspan>
  </text>
  <g>
    <rect style="fill: #e9a963" x="-855.072" y="-121.089" width="30.1421" height="42.1776" rx="10" ry="10"/>
    <rect style="fill: none; fill-opacity:0; stroke-width: 2; stroke-linejoin: round; stroke: #000000" x="-855.072" y="-121.089" width="30.1421" height="42.1776" rx="10" ry="10"/>
  </g>
  <text font-size="28.2222" style="fill: #000000;text-anchor:middle;font-family:monospace;font-style:normal;font-weight:normal" x="-840" y="-92.475">
    <tspan x="-840" y="-92.475">1</tspan>
  </text>
  <g>
    <rect style="fill: #e9a963" x="-695.072" y="-461.088" width="30.1421" height="42.1776" rx="10" ry="10"/>
    <rect style="fill: none; fill-opacity:0; stroke-width: 2; stroke-linejoin: round; stroke: #000000" x="-695.072" y="-461.088" width="30.1421" height="42.1776" rx="10" ry="10"/>
  </g>
  <text font-size="28.2222" style="fill: #000000;text-anchor:middle;font-family:monospace;font-style:normal;font-weight:normal" x="-680" y="-432.475">
    <tspan x="-680" y="-432.475">2</tspan>
  </text>
  <g>
    <rect style="fill: #e9a963" x="-875.072" y="-581.088" width="30.1421" height="42.1776" rx="10" ry="10"/>
    <rect style="fill: none; fill-opacity:0; stroke-width: 2; stroke-linejoin: round; stroke: #000000" x="-875.072" y="-581.088" width="30.1421" height="42.1776" rx="10" ry="10"/>
  </g>
  <text font-size="28.2222" style="fill: #000000;text-anchor:middle;font-family:monospace;font-style:normal;font-weight:normal" x="-860" y="-552.475">
    <tspan x="-860" y="-552.475">3</tspan>
  </text>
  <g>
    <rect style="fill: #e9a963" x="-1035.07" y="-681.088" width="30.1421" height="42.1776" rx="10" ry="10"/>
    <rect style="fill: none; fill-opacity:0; stroke-width: 2; stroke-linejoin: round; stroke: #000000" x="-1035.07" y="-681.088" width="30.1421" height="42.1776" rx="10" ry="10"/>
  </g>
  <text font-size="28.2222" style="fill: #000000;text-anchor:middle;font-family:monospace;font-style:normal;font-weight:normal" x="-1020" y="-652.475">
    <tspan x="-1020" y="-652.475">4</tspan>
  </text>
  <g>
    <rect style="fill: #e9a963" x="-875.072" y="-781.088" width="30.1421" height="42.1776" rx="10" ry="10"/>
    <rect style="fill: none; fill-opacity:0; stroke-width: 2; stroke-linejoin: round; stroke: #000000" x="-875.072" y="-781.088" width="30.1421" height="42.1776" rx="10" ry="10"/>
  </g>
  <text font-size="28.2222" style="fill: #000000;text-anchor:middle;font-family:monospace;font-style:normal;font-weight:normal" x="-860" y="-752.475">
    <tspan x="-860" y="-752.475">5</tspan>
  </text>
  <g>
    <rect style="fill: #e9a963" x="-695.072" y="-821.088" width="30.1421" height="42.1776" rx="10" ry="10"/>
    <rect style="fill: none; fill-opacity:0; stroke-width: 2; stroke-linejoin: round; stroke: #000000" x="-695.072" y="-821.088" width="30.1421" height="42.1776" rx="10" ry="10"/>
  </g>
  <text font-size="28.2222" style="fill: #000000;text-anchor:middle;font-family:monospace;font-style:normal;font-weight:normal" x="-680" y="-792.475">
    <tspan x="-680" y="-792.475">6</tspan>
  </text>
  <g>
    <rect style="fill: #e9a963" x="-1095.07" y="-221.088" width="30.1421" height="42.1776" rx="10" ry="10"/>
    <rect style="fill: none; fill-opacity:0; stroke-width: 2; stroke-linejoin: round; stroke: #000000" x="-1095.07" y="-221.088" width="30.1421" height="42.1776" rx="10" ry="10"/>
  </g>
  <text font-size="28.2222" style="fill: #000000;text-anchor:middle;font-family:monospace;font-style:normal;font-weight:normal" x="-1080" y="-192.475">
    <tspan x="-1080" y="-192.475">7</tspan>
  </text>
  <g>
    <rect style="fill: #e9a963" x="-1235.07" y="-441.088" width="30.1421" height="42.1776" rx="10" ry="10"/>
    <rect style="fill: none; fill-opacity:0; stroke-width: 2; stroke-linejoin: round; stroke: #000000" x="-1235.07" y="-441.088" width="30.1421" height="42.1776" rx="10" ry="10"/>
  </g>
  <text font-size="28.2222" style="fill: #000000;text-anchor:middle;font-family:monospace;font-style:normal;font-weight:normal" x="-1220" y="-412.475">
    <tspan x="-1220" y="-412.475">8</tspan>
  </text>
  <g>
    <rect style="fill: #e9a963" x="-1095.07" y="-540.088" width="30.1421" height="42.1776" rx="10" ry="10"/>
    <rect style="fill: none; fill-opacity:0; stroke-width: 2; stroke-linejoin: round; stroke: #000000" x="-1095.07" y="-540.088" width="30.1421" height="42.1776" rx="10" ry="10"/>
  </g>
  <text font-size="28.2222" style="fill: #000000;text-anchor:middle;font-family:monospace;font-style:normal;font-weight:normal" x="-1080" y="-511.475">
    <tspan x="-1080" y="-511.475">9</tspan>
  </text>
</svg>
