<svg xmlns="http://www.w3.org/2000/svg" xmlns:xlink="http://www.w3.org/1999/xlink" width="940pt" height="1000pt" viewBox="0 0 940 1000"><defs><symbol overflow="visible" id="a"><path style="stroke:none" d="M8.434-17.598V0H6.488v-15.145l-3.554 1.043-.454-1.101 4.598-2.395zm0 0"/></symbol><symbol overflow="visible" id="b"><path style="stroke:none" d="M10.887-15.344c.543.739.976 1.7 1.308 2.88.328 1.187.496 2.51.496 3.976 0 1.488-.168 2.781-.496 3.879-.332 1.101-.761 2.02-1.297 2.75-.535.734-1.14 1.277-1.816 1.632-.68.356-1.367.532-2.059.536C6.305.305 5.61.089 4.933-.34 4.259-.77 3.657-1.375 3.13-2.156c-.527-.781-.945-1.719-1.254-2.82-.313-1.098-.469-2.317-.465-3.653-.004-1.332.153-2.555.465-3.668.309-1.105.727-2.058 1.254-2.863.527-.797 1.129-1.418 1.805-1.86.675-.44 1.37-.664 2.09-.664 1.464 0 2.753.782 3.863 2.34zm-1.043 1.656c-.38-.75-.813-1.316-1.301-1.699s-.988-.574-1.492-.578c-.477.004-.942.172-1.399.508-.46.336-.87.805-1.226 1.406-.36.602-.645 1.332-.86 2.192a11.31 11.31 0 0 0-.324 2.836c-.004 1.164.13 2.27.395 3.316zm.648 1.883L4.285-3.938c.45.844.926 1.454 1.426 1.825.496.379.988.566 1.48.562.504.004.98-.148 1.422-.46.442-.305.825-.75 1.157-1.337.328-.578.593-1.285.793-2.12.195-.829.292-1.77.296-2.825a21.3 21.3 0 0 0-.086-1.855 12.1 12.1 0 0 0-.28-1.657zm0 0"/></symbol><symbol overflow="visible" id="c"><path style="stroke:none" d="M2.988-17.57h8.914v1.777h-7.25l-.28 5.047a6.542 6.542 0 0 1 2.878-.676c.746.004 1.445.14 2.098.41a4.89 4.89 0 0 1 1.695 1.184c.477.52.848 1.137 1.113 1.86.262.726.395 1.542.395 2.44 0 .907-.145 1.72-.426 2.438a5.448 5.448 0 0 1-1.168 1.848c-.5.508-1.086.894-1.75 1.156A6.042 6.042 0 0 1 7.023.31C5.95.305 4.957.074 4.047-.395a5.912 5.912 0 0 1-2.242-2.003l1.75-1.297c.09.058.14.172.152.34.008.171.023.273.043.308.074.133.203.293.395.48.183.188.421.368.714.536.29.172.63.316 1.012.437.383.125.797.188 1.25.184.445.004.879-.094 1.293-.297.41-.195.77-.473 1.078-.832.309-.352.555-.79.746-1.309.184-.515.278-1.105.282-1.765-.004-.657-.098-1.242-.282-1.762a4.025 4.025 0 0 0-.773-1.313 3.427 3.427 0 0 0-1.14-.816 3.5 3.5 0 0 0-1.403-.281c-.602 0-1.192.148-1.77.437-.586.293-1.09.7-1.52 1.227L2.399-8.63zm0 0"/></symbol><symbol overflow="visible" id="d"><path style="stroke:none" d="M8.852-17.598h1.64v11h2.254v1.746h-2.254V0H8.461v-4.879H1.355v-1.437zm-.364 3.13-5.187 7.87h5.187zm0 0"/></symbol><symbol overflow="visible" id="e"><path style="stroke:none" d="M8.094-17.77c1.46.004 2.75.54 3.863 1.61l-1.379 1.496a1.063 1.063 0 0 1-.34-.492.63.63 0 0 0-.394-.383 2.652 2.652 0 0 0-.864-.379 3.77 3.77 0 0 0-.828-.102c-.382 0-.82.09-1.312.27-.5.18-.965.516-1.399 1-.433.492-.804 1.184-1.113 2.074-.312.899-.476 2.047-.492 3.453a4.305 4.305 0 0 1 1.594-1.55 4.347 4.347 0 0 1 2.129-.563c.656.004 1.273.14 1.859.41a4.764 4.764 0 0 1 1.539 1.168c.441.512.79 1.117 1.043 1.82.254.708.379 1.493.383 2.352-.004.871-.137 1.664-.399 2.387-.265.722-.62 1.344-1.07 1.86-.453.519-.984.917-1.594 1.198a4.644 4.644 0 0 1-1.96.422c-.883 0-1.665-.191-2.34-.578-.68-.383-1.25-.933-1.707-1.648-.465-.715-.817-1.582-1.06-2.61-.245-1.023-.366-2.175-.362-3.453-.004-1.578.14-2.972.437-4.187.29-1.211.707-2.235 1.254-3.063.54-.828 1.191-1.453 1.957-1.875.758-.422 1.61-.633 2.555-.637zM3.949-7.25c-.02.117-.031.23-.027.34-.004.117-.004.23 0 .34a7.14 7.14 0 0 0 .265 2.03c.176.622.426 1.157.747 1.606.32.454.695.813 1.128 1.075.43.265.891.394 1.383.394.809 0 1.516-.347 2.117-1.043.602-.695.903-1.71.903-3.047 0-.715-.098-1.324-.285-1.836-.192-.504-.43-.921-.72-1.254a2.891 2.891 0 0 0-.987-.73 2.774 2.774 0 0 0-1.082-.242c-.68.004-1.329.234-1.95.691A5.498 5.498 0 0 0 3.95-7.25zm0 0"/></symbol><symbol overflow="visible" id="f"><path style="stroke:none" d="M11.59-13.16c0 .851-.242 1.625-.719 2.32A4.029 4.029 0 0 1 8.97-9.344c.902.324 1.629.899 2.183 1.719.551.828.828 1.766.832 2.813a5.278 5.278 0 0 1-.379 1.972 4.735 4.735 0 0 1-1.101 1.63A5.104 5.104 0 0 1 8.742-.099c-.695.27-1.484.403-2.367.407-1.734-.004-3.21-.668-4.43-2L3.441-3.47c.07.074.13.2.168.371.04.176.106.317.2.422l.394.356c.149.148.453.316.914.496.457.187.934.277 1.426.273a3.511 3.511 0 0 0 2.54-1.04c.32-.323.565-.702.745-1.136a3.7 3.7 0 0 0 .27-1.375c-.004-.996-.383-1.785-1.145-2.37-.762-.579-1.765-.872-3.004-.876a8.12 8.12 0 0 0-.871.055v-1.633c.863 0 1.586-.09 2.168-.27.582-.179 1.059-.417 1.426-.718.367-.3.629-.652.789-1.059.16-.398.242-.836.242-1.312 0-.336-.078-.66-.226-.973a2.92 2.92 0 0 0-.622-.816 3.512 3.512 0 0 0-.96-.578 3.357 3.357 0 0 0-1.239-.227c-1.203 0-2.21.453-3.02 1.356L2.54-15.738c1.14-1.258 2.543-1.887 4.203-1.887.676 0 1.309.117 1.903.352a4.814 4.814 0 0 1 1.535.976c.43.418.773.89 1.027 1.426.254.539.383 1.11.383 1.71zm0 0"/></symbol><symbol overflow="visible" id="g"><path style="stroke:none" d="M6.121.281c-1.508 0-2.805-.535-3.894-1.605L3.609-2.82c.094.062.172.175.239.34.066.171.136.28.215.335.539.434 1.207.653 2 .649 1.41.004 2.464-.527 3.16-1.594.695-1.058 1.078-2.785 1.156-5.172a4.52 4.52 0 0 1-1.582 1.38c-.64.339-1.324.507-2.055.507-.66 0-1.281-.133-1.863-.406a4.678 4.678 0 0 1-1.54-1.145 5.36 5.36 0 0 1-1.042-1.761 6.392 6.392 0 0 1-.379-2.27 6.392 6.392 0 0 1 .395-2.297 5.772 5.772 0 0 1 1.085-1.836c.461-.515.997-.918 1.606-1.21a4.573 4.573 0 0 1 1.96-.438c1.708.004 3.028.742 3.962 2.215.93 1.476 1.394 3.84 1.398 7.09-.004 1.492-.168 2.78-.496 3.867-.332 1.093-.777 1.988-1.34 2.691-.562.707-1.222 1.238-1.972 1.594A5.867 5.867 0 0 1 6.12.28zm4.145-10.52c.015-.148.023-.296.027-.437a8.165 8.165 0 0 1 0-.437 7.263 7.263 0 0 0-.27-2c-.18-.602-.418-1.114-.718-1.535-.301-.422-.649-.75-1.043-.989a2.394 2.394 0 0 0-1.211-.355c-.961.004-1.735.36-2.328 1.074-.594.715-.891 1.695-.887 2.934a4.662 4.662 0 0 0 .254 1.62c.168.481.387.891.66 1.227.27.344.578.602.93.778.343.18.707.27 1.09.265a3.58 3.58 0 0 0 2.015-.578 4.759 4.759 0 0 0 1.48-1.566zm0 0"/></symbol><symbol overflow="visible" id="h"><path style="stroke:none" d="M11.844-13.621c-.004.848-.258 1.652-.762 2.41a5.467 5.467 0 0 1-2.027 1.82c1.011.473 1.832 1.145 2.453 2.016.617.879.926 1.824.93 2.836a4.418 4.418 0 0 1-.426 1.902 4.836 4.836 0 0 1-1.14 1.535A5.257 5.257 0 0 1 9.163-.086a5.98 5.98 0 0 1-2.113.367 5.97 5.97 0 0 1-2.117-.367 5.26 5.26 0 0 1-1.704-1 4.444 4.444 0 0 1-1.128-1.492 4.144 4.144 0 0 1-.41-1.852c-.004-1.011.316-1.957.956-2.843.641-.883 1.497-1.57 2.57-2.063A4.952 4.952 0 0 1 3.27-11.07c-.489-.739-.735-1.535-.73-2.383a3.888 3.888 0 0 1 .366-1.692 4.283 4.283 0 0 1 1.016-1.382c.43-.395.93-.703 1.492-.93a5.016 5.016 0 0 1 1.836-.34 5.2 5.2 0 0 1 1.828.324c.563.22 1.047.52 1.453.903.403.386.723.836.961 1.34a3.94 3.94 0 0 1 .352 1.609zM6.672-8.547a5.323 5.323 0 0 0-2.11 1.598c-.562.703-.843 1.48-.84 2.324-.003.438.087.84.266 1.215.176.375.418.703.73.984.305.281.66.508 1.067.676.399.172.836.258 1.309.254.465.004.898-.078 1.304-.238.399-.157.75-.371 1.055-.649.297-.27.531-.59.7-.957.167-.367.253-.765.253-1.2 0-.862-.34-1.655-1.011-2.382-.68-.719-1.586-1.262-2.723-1.625zm-1.766-3.562c.223.379.52.707.887.98a8.15 8.15 0 0 0 1.258.777l.48.254a5.006 5.006 0 0 0 1.719-1.527c.45-.64.676-1.293.676-1.957 0-.34-.07-.66-.211-.965-.14-.3-.34-.574-.594-.82a2.973 2.973 0 0 0-.887-.578 2.864 2.864 0 0 0-1.097-.215 2.74 2.74 0 0 0-1.09.215 3.116 3.116 0 0 0-.86.55c-.246.23-.433.493-.562.793a2.315 2.315 0 0 0-.195.934c0 .57.156 1.09.476 1.559zm0 0"/></symbol><symbol overflow="visible" id="i"><path style="stroke:none" d="M2.2-14.836a5.408 5.408 0 0 1 2.073-2.098c.872-.5 1.817-.75 2.832-.75a5.179 5.179 0 0 1 3.61 1.442 5 5 0 0 1 1.101 1.578c.262.605.395 1.246.395 1.918 0 .547-.082 1.062-.238 1.55a7.253 7.253 0 0 1-.637 1.395c-.266.446-.57.867-.918 1.27-.348.406-.711.777-1.082 1.113L7.645-5.84c-.247.23-.52.5-.82.805-.302.312-.598.644-.888 1.004-.296.36-.582.738-.863 1.129-.281.398-.527.793-.73 1.183h7.36c.089.004.19-.039.296-.125a.508.508 0 0 1 .297-.129h.086V0H2.059v-1.242c.691-1.371 1.445-2.555 2.253-3.551.81-.996 1.59-1.832 2.344-2.512l1.352-1.242c.469-.43.851-.828 1.144-1.195.29-.363.52-.715.692-1.059.168-.336.277-.66.336-.972a5.35 5.35 0 0 0 .086-.946c0-.41-.086-.808-.254-1.199a3.536 3.536 0 0 0-.719-1.043 3.914 3.914 0 0 0-1.043-.734 2.946 2.946 0 0 0-1.2-.27c-.491.004-.929.074-1.312.215-.39.14-.726.313-1.015.508-.293.199-.524.402-.692.617-.172.219-.265.414-.281.578-.04.172-.078.285-.113.34zm0 0"/></symbol><symbol overflow="visible" id="j"><path style="stroke:none" d="M12.184-16.469A161.955 161.955 0 0 0 8.867-8.32 138.829 138.829 0 0 0 6.035 0H3.81A221.209 221.209 0 0 1 9.73-15.71H2.226v-1.86h9.957zm0 0"/></symbol><symbol overflow="visible" id="k"><path style="stroke:none" d="m1.41-12.184-.281-.707h2.394a1.581 1.581 0 0 1-.043.356.907.907 0 0 0-.039.265c-.003.04.008.07.028.086l3.75 9.418 2.09-4.793c.449-1.03.816-1.988 1.097-2.875.281-.882.496-1.703.649-2.457h1.836c-.38 1.582-1.032 3.465-1.95 5.641L7.812.086H6.234zm0 0"/></symbol><symbol overflow="visible" id="l"><path style="stroke:none" d="M7.898-2.453c.336.34.504.726.508 1.156A1.531 1.531 0 0 1 7.91-.168c-.328.316-.73.473-1.2.477-.472-.004-.866-.157-1.183-.465a1.492 1.492 0 0 1-.48-1.14c-.004-.446.168-.833.508-1.157a1.657 1.657 0 0 1 1.156-.48c.43.003.828.163 1.187.48zm0 0"/></symbol><symbol overflow="visible" id="m"><path style="stroke:none" d="M2.004-9.816h10.152v1.89H2.004zm0 0"/></symbol><symbol overflow="visible" id="n"><path style="stroke:none" d="M2.793-12.89h2.086l-.055 2.484a4.258 4.258 0 0 1 1.88-2.074 5.644 5.644 0 0 1 2.76-.72c1.391.005 2.544.473 3.454 1.41l-.934 1.946a10.65 10.65 0 0 0-.566-.703 3.155 3.155 0 0 0-.55-.48 2.566 2.566 0 0 0-.653-.309 2.91 2.91 0 0 0-.863-.113c-.625 0-1.211.148-1.754.437a4.758 4.758 0 0 0-1.43 1.157 5.752 5.752 0 0 0-.977 1.648 5.155 5.155 0 0 0-.367 1.945v6.29H2.793zm0 0"/></symbol><symbol overflow="visible" id="o"><path style="stroke:none" d="m12.89-10.746-1.44 1.664c-.095-.055-.137-.113-.13-.18a.916.916 0 0 0-.027-.27 1.596 1.596 0 0 0-.215-.425c-.113-.164-.34-.39-.68-.676-.644-.523-1.523-.785-2.64-.789a3.91 3.91 0 0 0-1.578.34 3.868 3.868 0 0 0-1.32.969c-.383.422-.684.93-.91 1.52-.227.59-.34 1.25-.34 1.98 0 .734.113 1.41.34 2.027.226.621.538 1.156.937 1.602.398.453.87.804 1.422 1.054a4.147 4.147 0 0 0 1.816.38c1.305.003 2.434-.512 3.383-1.552l1.183 1.383C11.411-.367 9.84.305 7.981.31 7.058.305 6.206.14 5.425-.195a6.069 6.069 0 0 1-2.028-1.41 6.38 6.38 0 0 1-1.34-2.133c-.324-.817-.484-1.711-.48-2.692a7.237 7.237 0 0 1 .48-2.68 6.248 6.248 0 0 1 1.34-2.128 6.104 6.104 0 0 1 2.059-1.399c.797-.336 1.668-.504 2.61-.508 1.011.004 1.937.215 2.777.637a5.584 5.584 0 0 1 2.047 1.762zm0 0"/></symbol><symbol overflow="visible" id="p"><path style="stroke:none" d="M1.07 0v-12.89h1.864v1.269c.296-.465.68-.848 1.152-1.14.469-.29.969-.434 1.5-.438.539.004 1.023.183 1.45.535.421.36.69.809.804 1.355a3.06 3.06 0 0 1 1.156-1.367 3.113 3.113 0 0 1 1.723-.523c.879.004 1.527.32 1.945.945.41.633.598 1.418.563 2.356V0h-1.86v-9.137c0-.578-.031-1.039-.086-1.383-.062-.335-.156-.593-.285-.773-.133-.176-.266-.289-.394-.34a1.776 1.776 0 0 0-.504-.07c-.25.004-.493.101-.735.297-.246.199-.465.449-.648.746-.192.305-.34.644-.453 1.027a3.842 3.842 0 0 0-.168 1.117V0h-1.89v-8.969c-.005-1.07-.102-1.785-.298-2.144-.195-.356-.539-.535-1.027-.535-.453 0-.89.27-1.313.804-.425.54-.636 1.285-.632 2.242V0zm0 0"/></symbol><symbol overflow="visible" id="q"><path style="stroke:none" d="M2.566-11.367c1.145-1.203 2.676-1.805 4.598-1.805 1.574 0 2.82.402 3.734 1.2.915.804 1.372 2.132 1.372 3.992V0h-1.918v-1.41C8.977-.266 7.434.305 5.727.309 5.047.305 4.44.203 3.907 0a4.18 4.18 0 0 1-1.372-.816 3.402 3.402 0 0 1-.86-1.157 3.117 3.117 0 0 1-.292-1.3c0-1.293.558-2.317 1.676-3.07 1.117-.75 2.73-1.165 4.84-1.243h2.425v-.484c0-1.282-.27-2.18-.804-2.696-.54-.507-1.372-.765-2.497-.77-1.394.005-2.55.493-3.468 1.466zm7.84 5.332h-.48c-.266 0-.516-.004-.746-.012-.239-.008-.47-.012-.692-.016-1.035.004-1.883.075-2.539.211-.66.145-1.176.336-1.55.579-.38.246-.637.523-.774.832a2.3 2.3 0 0 0-.21 1c-.005.605.257 1.12.788 1.55.524.434 1.172.649 1.945.649.563 0 1.07-.086 1.524-.266.445-.176.84-.394 1.183-.648a4.155 4.155 0 0 0 1.27-1.512c.188-.375.281-.879.281-1.52zm0 0"/></symbol><symbol overflow="visible" id="r"><path style="stroke:none" d="M2.988-12.89h5.164v11.253h3.016V0H2.82v-1.637h3.301v-9.617H2.988zm3.16-5.188a1.405 1.405 0 0 1 1.016-.422c.395.004.738.148 1.027.438.29.292.434.636.438 1.027a1.38 1.38 0 0 1-.438 1.015c-.289.282-.632.422-1.027.422-.398 0-.738-.14-1.016-.422a1.351 1.351 0 0 1-.421-1.015 1.4 1.4 0 0 1 .421-1.043zm0 0"/></symbol><symbol overflow="visible" id="s"><path style="stroke:none" d="M1.918 0v-12.89h2.031v2.285a5.73 5.73 0 0 1 1.887-1.887c.766-.469 1.547-.703 2.344-.707a4.373 4.373 0 0 1 1.59.297c.488.199.914.515 1.277.945.355.434.637.988.836 1.664.199.68.297 1.508.3 2.48V0h-2.03v-7.758c-.005-1.351-.235-2.297-.696-2.844-.46-.543-1.023-.816-1.684-.82a3.593 3.593 0 0 0-1.332.281 4.055 4.055 0 0 0-1.234.805 4.165 4.165 0 0 0-.906 1.254c-.235.492-.352 1.047-.352 1.664V0zm0 0"/></symbol><symbol overflow="visible" id="t"><path style="stroke:none" d="m5.3-16.328 2.204-.367c-.004.172-.027.32-.074.453a3.114 3.114 0 0 0-.098.308l-.336 3.043h4.23v1.637h-4.23a45.728 45.728 0 0 0-.254 4.738c-.004.91.016 1.68.055 2.301.039.625.137 1.113.297 1.473.16.36.39.64.695.836.297.203.703.3 1.219.297.867.004 1.832-.391 2.89-1.184l.625 1.61C11.223-.228 9.887.25 8.516.253 7.16.25 6.176-.156 5.555-.976c-.621-.817-.903-2.149-.844-4a79.489 79.489 0 0 1 .281-6.277h-3.02v-1.638h3.106zm0 0"/></symbol><symbol overflow="visible" id="u"><path style="stroke:none" d="M12.184-11.168 11-9.391c-.102-.015-.148-.09-.145-.226a.669.669 0 0 0-.054-.281c-.344-.43-.828-.832-1.453-1.2-.63-.367-1.34-.55-2.133-.55-.363 0-.707.043-1.04.128a3.472 3.472 0 0 0-.882.352c-.258.152-.461.348-.61.578-.156.238-.23.504-.226.805-.004.226.05.43.168.605.11.18.29.352.54.52.241.172.589.344 1.038.508.442.172 1.024.359 1.746.566 1.63.434 2.781.945 3.453 1.54.672.593 1.008 1.323 1.008 2.183 0 .566-.125 1.101-.367 1.605-.25.512-.605.953-1.074 1.328a5.193 5.193 0 0 1-1.692.887c-.66.219-1.402.324-2.226.324-2.164 0-3.977-.676-5.442-2.031l1.157-2.027c.054.058.09.148.109.273.02.125.086.277.2.45.112.175.32.37.624.59.301.222.766.468 1.395.734.281.14.605.234.965.289.359.058.718.09 1.082.086.375.003.757-.043 1.148-.141a3.73 3.73 0 0 0 1.05-.41 2.37 2.37 0 0 0 .755-.653c.187-.253.281-.543.285-.867-.004-.488-.23-.906-.684-1.25-.457-.34-1.289-.687-2.496-1.05a34.055 34.055 0 0 1-1.648-.508C4.863-6.5 4.37-6.73 4.07-6.93a3.933 3.933 0 0 1-.825-.707 3.25 3.25 0 0 1-.594-.933 2.83 2.83 0 0 1-.226-1.149c0-.449.12-.883.367-1.297A3.7 3.7 0 0 1 3.82-12.12c.442-.32.965-.582 1.578-.781a6.615 6.615 0 0 1 1.993-.297c1.968.004 3.566.68 4.793 2.031zm0 0"/></symbol><symbol overflow="visible" id="v"><path style="stroke:none" d="M7.305-13.2a5.62 5.62 0 0 1 1.972.368c.637.246 1.2.617 1.68 1.113.477.5.86 1.137 1.156 1.903.29.773.438 1.683.438 2.738 0 .152-.008.308-.016.465a8.2 8.2 0 0 1-.043.465H3.328c.035.906.188 1.664.465 2.273.27.613.613 1.105 1.027 1.48.41.38.871.645 1.383.801.504.16 1.012.242 1.524.239 1.332.003 2.441-.477 3.328-1.438l1.129 1.102C11.09-.375 9.586.28 7.672.28c-.945 0-1.805-.144-2.582-.437a5.216 5.216 0 0 1-1.988-1.282c-.547-.562-.97-1.265-1.27-2.101-.3-.836-.45-1.79-.45-2.863 0-1.09.153-2.059.466-2.907.304-.843.73-1.554 1.27-2.129a5.495 5.495 0 0 1 1.874-1.308c.711-.297 1.48-.45 2.313-.453zm-3.89 5.415h7.077c-.004-.07 0-.14.012-.207a3.03 3.03 0 0 0 .016-.238 3.464 3.464 0 0 0-2.047-3.137 3.089 3.089 0 0 0-1.309-.281c-.887 0-1.687.312-2.398.933-.72.621-1.168 1.598-1.352 2.93zm0 0"/></symbol><symbol overflow="visible" id="w"><path style="stroke:none" d="M10.21-12.89h2.087L8.12-6.63 12.86 0h-2.312l-3.55-5.02L3.636 0H1.324l4.543-6.543-4.457-6.348h2.227l3.36 4.77zm0 0"/></symbol><symbol overflow="visible" id="x"><path style="stroke:none" d="M1.691-12.89h2.004v1.976a4.77 4.77 0 0 1 1.743-1.649c.726-.406 1.457-.609 2.199-.609.718 0 1.406.137 2.058.41.653.274 1.23.684 1.73 1.227.5.547.895 1.234 1.192 2.058.29.832.438 1.809.442 2.934-.004 1.129-.16 2.125-.47 2.988-.316.868-.726 1.586-1.234 2.16A5.098 5.098 0 0 1 9.61-.098a4.838 4.838 0 0 1-2 .438 4.663 4.663 0 0 1-2.214-.535 4.466 4.466 0 0 1-1.672-1.496V4.71H1.69zm2.004 7.495c.035 1.387.356 2.38.965 2.977.602.598 1.352.895 2.246.895.473 0 .946-.075 1.422-.223a3.463 3.463 0 0 0 1.305-.774c.398-.363.715-.843.953-1.44.234-.599.351-1.345.355-2.247-.004-1.64-.347-2.918-1.039-3.828-.691-.902-1.664-1.375-2.91-1.414-.383 0-.77.066-1.168.195a2.63 2.63 0 0 0-1.062.672c-.317.32-.574.746-.77 1.277-.203.532-.3 1.192-.297 1.977zm0 0"/></symbol><symbol overflow="visible" id="y"><path style="stroke:none" d="M1.777-12.89H3.81v7.195c0 .828.074 1.52.226 2.07.149.559.36 1.004.637 1.34.27.34.582.586.933.734.348.153.73.227 1.149.227.45-.04.883-.153 1.3-.34.415-.188.79-.453 1.122-.8.328-.349.586-.794.777-1.34.188-.544.281-1.204.285-1.977v-7.11h2.032v11.735c0 .437.046.82.14 1.156h-2.117a8.9 8.9 0 0 1-.055-.438 2.154 2.154 0 0 1 0-.55l.028-.985A4.473 4.473 0 0 1 8.582-.297 4.7 4.7 0 0 1 6.246.31C5.586.305 4.992.19 4.465-.043c-.531-.23-1.008-.594-1.43-1.086-.426-.488-.746-1.11-.96-1.86-.22-.75-.329-1.652-.325-2.706zm0 0"/></symbol><symbol overflow="visible" id="z"><path style="stroke:none" d="m1.805.367 8.828-19.12 1.691.874L3.47 1.184zm0 0"/></symbol><symbol overflow="visible" id="A"><path style="stroke:none" d="M6.008-14.637h2.285a8.04 8.04 0 0 1-.086.38c-.039.144-.066.269-.086.382L7.7-9.645l4.485-2.03.734 1.718-4.824 1.469 3.554 4.258-1.55 1.21L7.05-7.7 3.89-2.987 2.367-4.23l3.668-4.23-4.879-1.497.735-1.832 4.566 2.144zm0 0"/></symbol></defs><path style="stroke:none;fill-rule:nonzero;fill:#fff;fill-opacity:1" d="M0 0h920v980H0zm0 0"/><path style="fill:none;stroke-width:0;stroke-linecap:butt;stroke-linejoin:miter;stroke:#000;stroke-opacity:1;stroke-miterlimit:10" d="M-1-1h47v50H-1zm0 0" transform="matrix(20 0 0 20 20 20)"/><path style="fill:none;stroke-width:.2;stroke-linecap:butt;stroke-linejoin:miter;stroke:#000;stroke-opacity:1;stroke-miterlimit:10" d="m20.002 45.95.07-45.423" transform="matrix(20 0 0 20 20 20)"/><path style="fill-rule:evenodd;fill:#000;fill-opacity:1;stroke-width:.2;stroke-linecap:butt;stroke-linejoin:miter;stroke:#000;stroke-opacity:1;stroke-miterlimit:10" d="m20.322.527-.249-.5-.25.5h.5zm0 0" transform="matrix(20 0 0 20 20 20)"/><path style="fill:none;stroke-width:.2;stroke-linecap:butt;stroke-linejoin:miter;stroke:#000;stroke-opacity:1;stroke-miterlimit:10" d="m31.002 45.95.07-45.423" transform="matrix(20 0 0 20 20 20)"/><path style="fill-rule:evenodd;fill:#000;fill-opacity:1;stroke-width:.2;stroke-linecap:butt;stroke-linejoin:miter;stroke:#000;stroke-opacity:1;stroke-miterlimit:10" d="m31.322.527-.249-.5-.25.5h.5zm0 0" transform="matrix(20 0 0 20 20 20)"/><path style="fill:none;stroke-width:.2;stroke-linecap:butt;stroke-linejoin:miter;stroke:#000;stroke-opacity:1;stroke-miterlimit:10" d="M38 45.927V.527" transform="matrix(20 0 0 20 20 20)"/><path style="fill-rule:evenodd;fill:#000;fill-opacity:1;stroke-width:.2;stroke-linecap:butt;stroke-linejoin:miter;stroke:#000;stroke-opacity:1;stroke-miterlimit:10" d="m38.25.527-.25-.5-.25.5h.5zm0 0" transform="matrix(20 0 0 20 20 20)"/><path style="fill:none;stroke-width:.2;stroke-linecap:butt;stroke-linejoin:miter;stroke:#000;stroke-opacity:1;stroke-miterlimit:10" d="M9.002 45.95 9.072.527" transform="matrix(20 0 0 20 20 20)"/><path style="fill-rule:evenodd;fill:#000;fill-opacity:1;stroke-width:.2;stroke-linecap:butt;stroke-linejoin:miter;stroke:#000;stroke-opacity:1;stroke-miterlimit:10" d="m9.322.527-.249-.5-.25.5h.5zm0 0" transform="matrix(20 0 0 20 20 20)"/><path style="fill-rule:evenodd;fill:#e9a4de;fill-opacity:1;stroke-width:.1;stroke-linecap:butt;stroke-linejoin:round;stroke:#000;stroke-opacity:1;stroke-miterlimit:10" d="M19.573 41.927h1a.5.5 0 0 1 .5.5v1a.5.5 0 0 1-.5.5h-1a.5.5 0 0 1-.5-.5v-1a.5.5 0 0 1 .5-.5" transform="matrix(20 0 0 20 20 20)"/><path style="fill-rule:evenodd;fill:#dedede;fill-opacity:1;stroke-width:.1;stroke-linecap:butt;stroke-linejoin:round;stroke:#000;stroke-opacity:1;stroke-miterlimit:10" d="M30.573 32.927h1a.5.5 0 0 1 .5.5v1a.5.5 0 0 1-.5.5h-1a.5.5 0 0 1-.5-.5v-1a.5.5 0 0 1 .5-.5" transform="matrix(20 0 0 20 20 20)"/><path style="fill-rule:evenodd;fill:#a9e5a1;fill-opacity:1;stroke-width:.1;stroke-linecap:butt;stroke-linejoin:round;stroke:#000;stroke-opacity:1;stroke-miterlimit:10" d="M37.5 32.927h1a.5.5 0 0 1 .5.5v1a.5.5 0 0 1-.5.5h-1a.5.5 0 0 1-.5-.5v-1a.5.5 0 0 1 .5-.5M37.5 29.927h1a.5.5 0 0 1 .5.5v1a.5.5 0 0 1-.5.5h-1a.5.5 0 0 1-.5-.5v-1a.5.5 0 0 1 .5-.5" transform="matrix(20 0 0 20 20 20)"/><path style="fill-rule:evenodd;fill:#dedede;fill-opacity:1;stroke-width:.1;stroke-linecap:butt;stroke-linejoin:round;stroke:#000;stroke-opacity:1;stroke-miterlimit:10" d="M30.573 26.927h1a.5.5 0 0 1 .5.5v1a.5.5 0 0 1-.5.5h-1a.5.5 0 0 1-.5-.5v-1a.5.5 0 0 1 .5-.5" transform="matrix(20 0 0 20 20 20)"/><path style="fill-rule:evenodd;fill:#a1bbe5;fill-opacity:1;stroke-width:.1;stroke-linecap:butt;stroke-linejoin:round;stroke:#000;stroke-opacity:1;stroke-miterlimit:10" d="M8.5 2h1a.5.5 0 0 1 .5.5v1a.5.5 0 0 1-.5.5h-1a.5.5 0 0 1-.5-.5v-1a.5.5 0 0 1 .5-.5" transform="matrix(20 0 0 20 20 20)"/><path style="fill-rule:evenodd;fill:#dedede;fill-opacity:1;stroke-width:.1;stroke-linecap:butt;stroke-linejoin:round;stroke:#000;stroke-opacity:1;stroke-miterlimit:10" d="M30.573 17.927h1a.5.5 0 0 1 .5.5v1a.5.5 0 0 1-.5.5h-1a.5.5 0 0 1-.5-.5v-1a.5.5 0 0 1 .5-.5" transform="matrix(20 0 0 20 20 20)"/><path style="fill:none;stroke-width:.2;stroke-linecap:butt;stroke-linejoin:round;stroke:#000;stroke-opacity:1;stroke-miterlimit:10" d="m21.073 42.927 8.502-5.668" transform="matrix(20 0 0 20 20 20)"/><path style="fill-rule:evenodd;fill:#000;fill-opacity:1;stroke-width:.2;stroke-linecap:butt;stroke-linejoin:miter;stroke:#000;stroke-opacity:1;stroke-miterlimit:10" d="m29.887 37.05-.277.486-.035-.277-.243-.139.555-.07zm0 0" transform="matrix(20 0 0 20 20 20)"/><path style="fill:none;stroke-width:.2;stroke-linecap:butt;stroke-linejoin:miter;stroke:#000;stroke-opacity:1;stroke-miterlimit:10" d="M44 46V.527" transform="matrix(20 0 0 20 20 20)"/><path style="fill-rule:evenodd;fill:#000;fill-opacity:1;stroke-width:.2;stroke-linecap:butt;stroke-linejoin:miter;stroke:#000;stroke-opacity:1;stroke-miterlimit:10" d="m44.25.527-.25-.5-.25.5h.5zm0 0" transform="matrix(20 0 0 20 20 20)"/><path style="fill-rule:evenodd;fill:#a9e5a1;fill-opacity:1;stroke-width:.1;stroke-linecap:butt;stroke-linejoin:round;stroke:#000;stroke-opacity:1;stroke-miterlimit:10" d="M43.5 29.927h1a.5.5 0 0 1 .5.5v1a.5.5 0 0 1-.5.5h-1a.5.5 0 0 1-.5-.5v-1a.5.5 0 0 1 .5-.5M43.5 38.927h1a.5.5 0 0 1 .5.5v1a.5.5 0 0 1-.5.5h-1a.5.5 0 0 1-.5-.5v-1a.5.5 0 0 1 .5-.5" transform="matrix(20 0 0 20 20 20)"/><path style="fill:none;stroke-width:.2;stroke-linecap:butt;stroke-linejoin:round;stroke:#000;stroke-opacity:1;stroke-miterlimit:10" d="m21.073 42.927 15.54-7.876" transform="matrix(20 0 0 20 20 20)"/><path style="fill-rule:evenodd;fill:#000;fill-opacity:1;stroke-width:.2;stroke-linecap:butt;stroke-linejoin:miter;stroke:#000;stroke-opacity:1;stroke-miterlimit:10" d="m36.947 34.881-.333.45-.002-.28-.224-.166.559-.004zm0 0" transform="matrix(20 0 0 20 20 20)"/><path style="fill:none;stroke-width:.2;stroke-linecap:butt;stroke-linejoin:miter;stroke:#000;stroke-opacity:1;stroke-miterlimit:10" d="m21.073 42.927 21.334-2.919" transform="matrix(20 0 0 20 20 20)"/><path style="fill-rule:evenodd;fill:#000;fill-opacity:1;stroke-width:.2;stroke-linecap:butt;stroke-linejoin:miter;stroke:#000;stroke-opacity:1;stroke-miterlimit:10" d="m42.779 39.957-.462.316.09-.265-.158-.23.53.179zm0 0" transform="matrix(20 0 0 20 20 20)"/><path style="fill-rule:evenodd;fill:#dedede;fill-opacity:1;stroke-width:.1;stroke-linecap:butt;stroke-linejoin:round;stroke:#000;stroke-opacity:1;stroke-miterlimit:10" d="M30.573 23.927h1a.5.5 0 0 1 .5.5v1a.5.5 0 0 1-.5.5h-1a.5.5 0 0 1-.5-.5v-1a.5.5 0 0 1 .5-.5" transform="matrix(20 0 0 20 20 20)"/><path style="fill-rule:evenodd;fill:#e9a4de;fill-opacity:1;stroke-width:.1;stroke-linecap:butt;stroke-linejoin:round;stroke:#000;stroke-opacity:1;stroke-miterlimit:10" d="M19.573 14.927h1a.5.5 0 0 1 .5.5v1a.5.5 0 0 1-.5.5h-1a.5.5 0 0 1-.5-.5v-1a.5.5 0 0 1 .5-.5M19.573 11.927h1a.5.5 0 0 1 .5.5v1a.5.5 0 0 1-.5.5h-1a.5.5 0 0 1-.5-.5v-1a.5.5 0 0 1 .5-.5" transform="matrix(20 0 0 20 20 20)"/><path style="fill-rule:evenodd;fill:#dedede;fill-opacity:1;stroke-width:.1;stroke-linecap:butt;stroke-linejoin:round;stroke:#000;stroke-opacity:1;stroke-miterlimit:10" d="M30.573 1.927h1a.5.5 0 0 1 .5.5v1a.5.5 0 0 1-.5.5h-1a.5.5 0 0 1-.5-.5v-1a.5.5 0 0 1 .5-.5M30.573 20.927h1a.5.5 0 0 1 .5.5v1a.5.5 0 0 1-.5.5h-1a.5.5 0 0 1-.5-.5v-1a.5.5 0 0 1 .5-.5" transform="matrix(20 0 0 20 20 20)"/><path style="fill:none;stroke-width:.2;stroke-linecap:butt;stroke-linejoin:round;stroke:#000;stroke-opacity:1;stroke-miterlimit:10" d="m21 9.927 8.505-2.812" transform="matrix(20 0 0 20 20 20)"/><path style="fill-rule:evenodd;fill:#000;fill-opacity:1;stroke-width:.2;stroke-linecap:butt;stroke-linejoin:miter;stroke:#000;stroke-opacity:1;stroke-miterlimit:10" d="m29.86 6.997-.395.394.04-.276-.197-.198.553.08zm0 0" transform="matrix(20 0 0 20 20 20)"/><path style="fill-rule:evenodd;fill:#a9e5a1;fill-opacity:1;stroke-width:.1;stroke-linecap:butt;stroke-linejoin:round;stroke:#000;stroke-opacity:1;stroke-miterlimit:10" d="M43.5 20.927h1a.5.5 0 0 1 .5.5v1a.5.5 0 0 1-.5.5h-1a.5.5 0 0 1-.5-.5v-1a.5.5 0 0 1 .5-.5M43.5 11.927h1a.5.5 0 0 1 .5.5v1a.5.5 0 0 1-.5.5h-1a.5.5 0 0 1-.5-.5v-1a.5.5 0 0 1 .5-.5" transform="matrix(20 0 0 20 20 20)"/><path style="fill-rule:evenodd;fill:#dedede;fill-opacity:1;stroke-width:.1;stroke-linecap:butt;stroke-linejoin:round;stroke:#000;stroke-opacity:1;stroke-miterlimit:10" d="M30.573 35.927h1a.5.5 0 0 1 .5.5v1a.5.5 0 0 1-.5.5h-1a.5.5 0 0 1-.5-.5v-1a.5.5 0 0 1 .5-.5" transform="matrix(20 0 0 20 20 20)"/><path style="fill:none;stroke-width:.2;stroke-linecap:butt;stroke-linejoin:round;stroke:#000;stroke-opacity:1;stroke-miterlimit:10" d="M19.22 42.073 10.198 29.27" transform="matrix(20 0 0 20 20 20)"/><path style="fill-rule:evenodd;fill:#000;fill-opacity:1;stroke-width:.2;stroke-linecap:butt;stroke-linejoin:miter;stroke:#000;stroke-opacity:1;stroke-miterlimit:10" d="m9.982 28.963.493.265-.277.042-.132.246-.084-.553zm0 0" transform="matrix(20 0 0 20 20 20)"/><path style="fill-rule:evenodd;fill:#e9a4de;fill-opacity:1;stroke-width:.1;stroke-linecap:butt;stroke-linejoin:round;stroke:#000;stroke-opacity:1;stroke-miterlimit:10" d="M19.573 29.927h1a.5.5 0 0 1 .5.5v1a.5.5 0 0 1-.5.5h-1a.5.5 0 0 1-.5-.5v-1a.5.5 0 0 1 .5-.5M19.573 17.927h1a.5.5 0 0 1 .5.5v1a.5.5 0 0 1-.5.5h-1a.5.5 0 0 1-.5-.5v-1a.5.5 0 0 1 .5-.5" transform="matrix(20 0 0 20 20 20)"/><path style="fill:none;stroke-width:.2;stroke-linecap:butt;stroke-linejoin:round;stroke:#000;stroke-opacity:1;stroke-miterlimit:10" d="m30.073 18.927-8.432-2.811" transform="matrix(20 0 0 20 20 20)"/><path style="fill-rule:evenodd;fill:#000;fill-opacity:1;stroke-width:.2;stroke-linecap:butt;stroke-linejoin:miter;stroke:#000;stroke-opacity:1;stroke-miterlimit:10" d="m21.285 15.997.554-.079-.198.198.04.277-.396-.396zm0 0" transform="matrix(20 0 0 20 20 20)"/><path style="fill:none;stroke-width:.2;stroke-linecap:butt;stroke-linejoin:miter;stroke:#000;stroke-opacity:1;stroke-miterlimit:10" d="m37 27.927-4.415-2.689" transform="matrix(20 0 0 20 20 20)"/><path style="fill-rule:evenodd;fill:#000;fill-opacity:1;stroke-width:.2;stroke-linecap:butt;stroke-linejoin:miter;stroke:#000;stroke-opacity:1;stroke-miterlimit:10" d="m32.264 25.043.557.047-.236.148-.024.279-.297-.474zm0 0" transform="matrix(20 0 0 20 20 20)"/><path style="fill-rule:evenodd;fill:#e9a4de;fill-opacity:1;stroke-width:.1;stroke-linecap:butt;stroke-linejoin:round;stroke:#000;stroke-opacity:1;stroke-miterlimit:10" d="M19.573 23.927h1a.5.5 0 0 1 .5.5v1a.5.5 0 0 1-.5.5h-1a.5.5 0 0 1-.5-.5v-1a.5.5 0 0 1 .5-.5" transform="matrix(20 0 0 20 20 20)"/><path style="fill:none;stroke-width:.2;stroke-linecap:butt;stroke-linejoin:round;stroke:#000;stroke-opacity:1;stroke-miterlimit:10" d="m10 27.927 8.505-2.812" transform="matrix(20 0 0 20 20 20)"/><path style="fill-rule:evenodd;fill:#000;fill-opacity:1;stroke-width:.2;stroke-linecap:butt;stroke-linejoin:miter;stroke:#000;stroke-opacity:1;stroke-miterlimit:10" d="m18.86 24.997-.395.394.04-.276-.197-.198.553.08zm0 0" transform="matrix(20 0 0 20 20 20)"/><path style="fill:none;stroke-width:.2;stroke-linecap:butt;stroke-linejoin:miter;stroke:#000;stroke-opacity:1;stroke-miterlimit:10" d="m10 21.927 8.505-2.812" transform="matrix(20 0 0 20 20 20)"/><path style="fill-rule:evenodd;fill:#000;fill-opacity:1;stroke-width:.2;stroke-linecap:butt;stroke-linejoin:miter;stroke:#000;stroke-opacity:1;stroke-miterlimit:10" d="m18.86 18.997-.395.394.04-.276-.197-.198.553.08zm0 0" transform="matrix(20 0 0 20 20 20)"/><path style="fill-rule:evenodd;fill:#e9a4de;fill-opacity:1;stroke-width:.1;stroke-linecap:butt;stroke-linejoin:round;stroke:#000;stroke-opacity:1;stroke-miterlimit:10" d="M19.573 32.927h1a.5.5 0 0 1 .5.5v1a.5.5 0 0 1-.5.5h-1a.5.5 0 0 1-.5-.5v-1a.5.5 0 0 1 .5-.5" transform="matrix(20 0 0 20 20 20)"/><path style="fill:none;stroke-width:.2;stroke-linecap:butt;stroke-linejoin:round;stroke:#000;stroke-opacity:1;stroke-miterlimit:10" d="m19.146 9.073-8.77-4.926" transform="matrix(20 0 0 20 20 20)"/><path style="fill-rule:evenodd;fill:#000;fill-opacity:1;stroke-width:.2;stroke-linecap:butt;stroke-linejoin:miter;stroke:#000;stroke-opacity:1;stroke-miterlimit:10" d="m10.048 3.963.559.027-.232.157-.013.279-.314-.463zm0 0" transform="matrix(20 0 0 20 20 20)"/><path style="fill-rule:evenodd;fill:#dedede;fill-opacity:1;stroke-width:.1;stroke-linecap:butt;stroke-linejoin:round;stroke:#000;stroke-opacity:1;stroke-miterlimit:10" d="M30.573 5.927h1a.5.5 0 0 1 .5.5v1a.5.5 0 0 1-.5.5h-1a.5.5 0 0 1-.5-.5v-1a.5.5 0 0 1 .5-.5" transform="matrix(20 0 0 20 20 20)"/><path style="fill:none;stroke-width:.2;stroke-linecap:butt;stroke-linejoin:round;stroke:#000;stroke-opacity:1;stroke-miterlimit:10" d="M43.146 12.073 32.408 4.136" transform="matrix(20 0 0 20 20 20)"/><path style="fill-rule:evenodd;fill:#000;fill-opacity:1;stroke-width:.2;stroke-linecap:butt;stroke-linejoin:miter;stroke:#000;stroke-opacity:1;stroke-miterlimit:10" d="m32.107 3.913.55.096-.249.127-.048.276-.253-.499zm0 0" transform="matrix(20 0 0 20 20 20)"/><path style="fill-rule:evenodd;fill:#a9e5a1;fill-opacity:1;stroke-width:.1;stroke-linecap:butt;stroke-linejoin:round;stroke:#000;stroke-opacity:1;stroke-miterlimit:10" d="M37.5 26.927h1a.5.5 0 0 1 .5.5v1a.5.5 0 0 1-.5.5h-1a.5.5 0 0 1-.5-.5v-1a.5.5 0 0 1 .5-.5" transform="matrix(20 0 0 20 20 20)"/><path style="fill-rule:evenodd;fill:#e9a4de;fill-opacity:1;stroke-width:.1;stroke-linecap:butt;stroke-linejoin:round;stroke:#000;stroke-opacity:1;stroke-miterlimit:10" d="M19.573 20.927h1a.5.5 0 0 1 .5.5v1a.5.5 0 0 1-.5.5h-1a.5.5 0 0 1-.5-.5v-1a.5.5 0 0 1 .5-.5" transform="matrix(20 0 0 20 20 20)"/><path style="fill-rule:evenodd;fill:#a1bbe5;fill-opacity:1;stroke-width:.1;stroke-linecap:butt;stroke-linejoin:round;stroke:#000;stroke-opacity:1;stroke-miterlimit:10" d="M8.5 26.927h1a.5.5 0 0 1 .5.5v1a.5.5 0 0 1-.5.5h-1a.5.5 0 0 1-.5-.5v-1a.5.5 0 0 1 .5-.5M8.5 20.927h1a.5.5 0 0 1 .5.5v1a.5.5 0 0 1-.5.5h-1a.5.5 0 0 1-.5-.5v-1a.5.5 0 0 1 .5-.5" transform="matrix(20 0 0 20 20 20)"/><path style="fill-rule:evenodd;fill:#e9a4de;fill-opacity:1;stroke-width:.1;stroke-linecap:butt;stroke-linejoin:round;stroke:#000;stroke-opacity:1;stroke-miterlimit:10" d="M19.5 8.927h1a.5.5 0 0 1 .5.5v1a.5.5 0 0 1-.5.5h-1a.5.5 0 0 1-.5-.5v-1a.5.5 0 0 1 .5-.5M19.5 5.927h1a.5.5 0 0 1 .5.5v1a.5.5 0 0 1-.5.5h-1a.5.5 0 0 1-.5-.5v-1a.5.5 0 0 1 .5-.5" transform="matrix(20 0 0 20 20 20)"/><path style="fill:none;stroke-width:.2;stroke-linecap:butt;stroke-linejoin:round;stroke:#000;stroke-opacity:1;stroke-miterlimit:10" d="M41 45.95V.527" transform="matrix(20 0 0 20 20 20)"/><path style="fill-rule:evenodd;fill:#000;fill-opacity:1;stroke-width:.2;stroke-linecap:butt;stroke-linejoin:miter;stroke:#000;stroke-opacity:1;stroke-miterlimit:10" d="m41.25.527-.25-.5-.25.5h.5zm0 0" transform="matrix(20 0 0 20 20 20)"/><path style="fill-rule:evenodd;fill:#a9e5a1;fill-opacity:1;stroke-width:.1;stroke-linecap:butt;stroke-linejoin:round;stroke:#000;stroke-opacity:1;stroke-miterlimit:10" d="M40.5 35.927h1a.5.5 0 0 1 .5.5v1a.5.5 0 0 1-.5.5h-1a.5.5 0 0 1-.5-.5v-1a.5.5 0 0 1 .5-.5M40.5 29.927h1a.5.5 0 0 1 .5.5v1a.5.5 0 0 1-.5.5h-1a.5.5 0 0 1-.5-.5v-1a.5.5 0 0 1 .5-.5M40.5 23.927h1a.5.5 0 0 1 .5.5v1a.5.5 0 0 1-.5.5h-1a.5.5 0 0 1-.5-.5v-1a.5.5 0 0 1 .5-.5" transform="matrix(20 0 0 20 20 20)"/><path style="fill:none;stroke-width:.2;stroke-linecap:butt;stroke-linejoin:round;stroke:#000;stroke-opacity:1;stroke-miterlimit:10" d="m40 24.927-7.367-2.788" transform="matrix(20 0 0 20 20 20)"/><path style="fill-rule:evenodd;fill:#000;fill-opacity:1;stroke-width:.2;stroke-linecap:butt;stroke-linejoin:miter;stroke:#000;stroke-opacity:1;stroke-miterlimit:10" d="m32.282 22.006.556-.057-.205.19.029.278-.38-.411zm0 0" transform="matrix(20 0 0 20 20 20)"/><path style="fill:none;stroke-width:.2;stroke-linecap:butt;stroke-linejoin:miter;stroke:#000;stroke-opacity:1;stroke-miterlimit:10" d="m21.073 42.927 18.356-5.82" transform="matrix(20 0 0 20 20 20)"/><path style="fill-rule:evenodd;fill:#000;fill-opacity:1;stroke-width:.2;stroke-linecap:butt;stroke-linejoin:miter;stroke:#000;stroke-opacity:1;stroke-miterlimit:10" d="m39.787 36.994-.401.39.043-.276-.194-.2.552.086zm0 0" transform="matrix(20 0 0 20 20 20)"/><path style="fill-rule:evenodd;fill:#fdd1b2;fill-opacity:1;stroke-width:.1;stroke-linecap:butt;stroke-linejoin:miter;stroke:#000;stroke-opacity:1;stroke-miterlimit:10" d="M13.412 5.26h1.65c.228 0 .413.447.413 1 0 .552-.185 1-.412 1h-1.65c-.228 0-.413-.448-.413-1 0-.553.185-1 .412-1" transform="matrix(20 0 0 20 20 20)"/><g style="fill:#000;fill-opacity:1"><use xlink:href="#a" x="290.648" y="152.242"/><use xlink:href="#b" x="304.75" y="152.242"/></g><path style="fill-rule:evenodd;fill:#fdd1b2;fill-opacity:1;stroke-width:.1;stroke-linecap:butt;stroke-linejoin:miter;stroke:#000;stroke-opacity:1;stroke-miterlimit:10" d="M25.413 7h1.65c.227 0 .412.448.412 1s-.185 1-.413 1h-1.65C25.186 9 25 8.552 25 8s.185-1 .413-1" transform="matrix(20 0 0 20 20 20)"/><use xlink:href="#c" x="537.699" y="187.055" style="fill:#000;fill-opacity:1"/><path style="fill-rule:evenodd;fill:#fdd1b2;fill-opacity:1;stroke-width:.1;stroke-linecap:butt;stroke-linejoin:miter;stroke:#000;stroke-opacity:1;stroke-miterlimit:10" d="M16.413 12h1.65c.227 0 .412.448.412 1s-.185 1-.413 1h-1.65c-.227 0-.412-.448-.412-1s.185-1 .413-1" transform="matrix(20 0 0 20 20 20)"/><use xlink:href="#d" x="357.699" y="287.055" style="fill:#000;fill-opacity:1"/><path style="fill-rule:evenodd;fill:#fdd1b2;fill-opacity:1;stroke-width:.1;stroke-linecap:butt;stroke-linejoin:miter;stroke:#000;stroke-opacity:1;stroke-miterlimit:10" d="M34.413 5h1.65c.227 0 .412.448.412 1s-.185 1-.413 1h-1.65C34.186 7 34 6.552 34 6s.185-1 .413-1" transform="matrix(20 0 0 20 20 20)"/><use xlink:href="#e" x="717.699" y="147.055" style="fill:#000;fill-opacity:1"/><path style="fill-rule:evenodd;fill:#fdd1b2;fill-opacity:1;stroke-width:.1;stroke-linecap:butt;stroke-linejoin:miter;stroke:#000;stroke-opacity:1;stroke-miterlimit:10" d="M25.413 16.676h1.65c.227 0 .412.447.412 1 0 .552-.185 1-.413 1h-1.65c-.227 0-.412-.448-.412-1 0-.553.185-1 .413-1" transform="matrix(20 0 0 20 20 20)"/><use xlink:href="#f" x="537.699" y="380.57" style="fill:#000;fill-opacity:1"/><path style="fill-rule:evenodd;fill:#fdd1b2;fill-opacity:1;stroke-width:.1;stroke-linecap:butt;stroke-linejoin:miter;stroke:#000;stroke-opacity:1;stroke-miterlimit:10" d="M13.412 19.514h1.65c.228 0 .413.447.413 1 0 .552-.185 1-.412 1h-1.65c-.228 0-.413-.448-.413-1 0-.553.185-1 .412-1" transform="matrix(20 0 0 20 20 20)"/><use xlink:href="#g" x="297.699" y="437.328" style="fill:#000;fill-opacity:1"/><path style="fill-rule:evenodd;fill:#fdd1b2;fill-opacity:1;stroke-width:.1;stroke-linecap:butt;stroke-linejoin:miter;stroke:#000;stroke-opacity:1;stroke-miterlimit:10" d="M6.412 24h1.65c.228 0 .413.448.413 1s-.185 1-.412 1h-1.65C6.184 26 6 25.552 6 25s.185-1 .412-1" transform="matrix(20 0 0 20 20 20)"/><use xlink:href="#h" x="157.699" y="527.055" style="fill:#000;fill-opacity:1"/><path style="fill-rule:evenodd;fill:#fdd1b2;fill-opacity:1;stroke-width:.1;stroke-linecap:butt;stroke-linejoin:miter;stroke:#000;stroke-opacity:1;stroke-miterlimit:10" d="M34.413 22.13h1.65c.227 0 .412.447.412 1 0 .552-.185 1-.413 1h-1.65c-.227 0-.412-.448-.412-1 0-.553.185-1 .413-1" transform="matrix(20 0 0 20 20 20)"/><use xlink:href="#i" x="717.699" y="489.648" style="fill:#000;fill-opacity:1"/><path style="fill-rule:evenodd;fill:#fdd1b2;fill-opacity:1;stroke-width:.1;stroke-linecap:butt;stroke-linejoin:miter;stroke:#000;stroke-opacity:1;stroke-miterlimit:10" d="M13.412 34h1.65c.228 0 .413.448.413 1s-.185 1-.412 1h-1.65c-.228 0-.413-.448-.413-1s.185-1 .412-1" transform="matrix(20 0 0 20 20 20)"/><use xlink:href="#j" x="297.699" y="727.055" style="fill:#000;fill-opacity:1"/><path style="fill-rule:evenodd;fill:#fdd1b2;fill-opacity:1;stroke-width:.1;stroke-linecap:butt;stroke-linejoin:miter;stroke:#000;stroke-opacity:1;stroke-miterlimit:10" d="M25.413 40.022h1.65c.227 0 .412.448.412 1 0 .553-.185 1-.413 1h-1.65c-.227 0-.412-.447-.412-1 0-.552.185-1 .413-1" transform="matrix(20 0 0 20 20 20)"/><use xlink:href="#a" x="537.699" y="847.5" style="fill:#000;fill-opacity:1"/><path style="stroke:none;fill-rule:evenodd;fill:#fdf6b2;fill-opacity:1" d="M30 60h120v41.277H30zM30 70V60c-5.523 0-10 4.477-10 10h10zM150 70h10c0-5.523-4.477-10-10-10v10zm0 0"/><path style="stroke:none;fill-rule:evenodd;fill:#fdf6b2;fill-opacity:1" d="M20 70h140v21.277H20zM30 91.277H20c0 5.524 4.477 10 10 10v-10zM150 91.277v10c5.523 0 10-4.476 10-10h-10zm0 0"/><path style="fill:none;stroke-width:.1;stroke-linecap:butt;stroke-linejoin:miter;stroke:#000;stroke-opacity:1;stroke-miterlimit:10" d="M.5 2h6M.5 4.064h6M.5 2a.5.5 0 0 0-.5.5M7 2.5a.5.5 0 0 0-.5-.5M0 2.5v1.064M7 2.5v1.064M0 3.564a.5.5 0 0 0 .5.5M6.5 4.064a.5.5 0 0 0 .5-.5" transform="matrix(20 0 0 20 20 20)"/><g style="fill:#000;fill-opacity:1"><use xlink:href="#k" x="47.695" y="87.199"/><use xlink:href="#b" x="61.797" y="87.199"/><use xlink:href="#l" x="75.898" y="87.199"/><use xlink:href="#i" x="90" y="87.199"/><use xlink:href="#l" x="104.102" y="87.199"/><use xlink:href="#a" x="118.203" y="87.199"/></g><path style="stroke:none;fill-rule:evenodd;fill:#fdf6b2;fill-opacity:1" d="M30 440h120v41.277H30zM30 450v-10c-5.523 0-10 4.477-10 10h10zM150 450h10c0-5.523-4.477-10-10-10v10zm0 0"/><path style="stroke:none;fill-rule:evenodd;fill:#fdf6b2;fill-opacity:1" d="M20 450h140v21.277H20zM30 471.277H20c0 5.524 4.477 10 10 10v-10zM150 471.277v10c5.523 0 10-4.476 10-10h-10zm0 0"/><path style="fill:none;stroke-width:.1;stroke-linecap:butt;stroke-linejoin:miter;stroke:#000;stroke-opacity:1;stroke-miterlimit:10" d="M.5 21h6M.5 23.064h6M.5 21a.5.5 0 0 0-.5.5M7 21.5a.5.5 0 0 0-.5-.5M0 21.5v1.064M7 21.5v1.064M0 22.564a.5.5 0 0 0 .5.5M6.5 23.064a.5.5 0 0 0 .5-.5" transform="matrix(20 0 0 20 20 20)"/><g style="fill:#000;fill-opacity:1"><use xlink:href="#k" x="47.695" y="467.199"/><use xlink:href="#b" x="61.797" y="467.199"/><use xlink:href="#l" x="75.898" y="467.199"/><use xlink:href="#a" x="90" y="467.199"/><use xlink:href="#l" x="104.102" y="467.199"/><use xlink:href="#i" x="118.203" y="467.199"/></g><path style="stroke:none;fill-rule:evenodd;fill:#fdf6b2;fill-opacity:1" d="M30 560h120v41.277H30zM30 570v-10c-5.523 0-10 4.477-10 10h10zM150 570h10c0-5.523-4.477-10-10-10v10zm0 0"/><path style="stroke:none;fill-rule:evenodd;fill:#fdf6b2;fill-opacity:1" d="M20 570h140v21.277H20zM30 591.277H20c0 5.524 4.477 10 10 10v-10zM150 591.277v10c5.523 0 10-4.476 10-10h-10zm0 0"/><path style="fill:none;stroke-width:.1;stroke-linecap:butt;stroke-linejoin:miter;stroke:#000;stroke-opacity:1;stroke-miterlimit:10" d="M.5 27h6M.5 29.064h6M.5 27a.5.5 0 0 0-.5.5M7 27.5a.5.5 0 0 0-.5-.5M0 27.5v1.064M7 27.5v1.064M0 28.564a.5.5 0 0 0 .5.5M6.5 29.064a.5.5 0 0 0 .5-.5" transform="matrix(20 0 0 20 20 20)"/><g style="fill:#000;fill-opacity:1"><use xlink:href="#k" x="47.695" y="587.199"/><use xlink:href="#b" x="61.797" y="587.199"/><use xlink:href="#l" x="75.898" y="587.199"/><use xlink:href="#a" x="90" y="587.199"/><use xlink:href="#l" x="104.102" y="587.199"/><use xlink:href="#a" x="118.203" y="587.199"/></g><path style="stroke:none;fill-rule:evenodd;fill:#fdf6b2;fill-opacity:1" d="M230 320h140v41.277H230zM230 330v-10c-5.523 0-10 4.477-10 10h10zM370 330h10c0-5.523-4.477-10-10-10v10zm0 0"/><path style="stroke:none;fill-rule:evenodd;fill:#fdf6b2;fill-opacity:1" d="M220 330h160v21.277H220zM230 351.277h-10c0 5.524 4.477 10 10 10v-10zM370 351.277v10c5.523 0 10-4.476 10-10h-10zm0 0"/><path style="fill:none;stroke-width:.1;stroke-linecap:butt;stroke-linejoin:miter;stroke:#000;stroke-opacity:1;stroke-miterlimit:10" d="M10.5 15h7M10.5 17.064h7M10.5 15a.5.5 0 0 0-.5.5M18 15.5a.5.5 0 0 0-.5-.5M10 15.5v1.064M18 15.5v1.064M10 16.564a.5.5 0 0 0 .5.5M17.5 17.064a.5.5 0 0 0 .5-.5" transform="matrix(20 0 0 20 20 20)"/><g style="fill:#000;fill-opacity:1"><use xlink:href="#k" x="243.594" y="347.199"/><use xlink:href="#b" x="257.695" y="347.199"/><use xlink:href="#l" x="271.797" y="347.199"/><use xlink:href="#i" x="285.898" y="347.199"/><use xlink:href="#m" x="300" y="347.199"/><use xlink:href="#n" x="314.102" y="347.199"/><use xlink:href="#o" x="328.203" y="347.199"/><use xlink:href="#a" x="342.305" y="347.199"/></g><path style="stroke:none;fill-rule:evenodd;fill:#fdf6b2;fill-opacity:1" d="M230 860h140v41.277H230zM230 870v-10c-5.523 0-10 4.477-10 10h10zM370 870h10c0-5.523-4.477-10-10-10v10zm0 0"/><path style="stroke:none;fill-rule:evenodd;fill:#fdf6b2;fill-opacity:1" d="M220 870h160v21.277H220zM230 891.277h-10c0 5.524 4.477 10 10 10v-10zM370 891.277v10c5.523 0 10-4.476 10-10h-10zm0 0"/><path style="fill:none;stroke-width:.1;stroke-linecap:butt;stroke-linejoin:miter;stroke:#000;stroke-opacity:1;stroke-miterlimit:10" d="M10.5 42h7M10.5 44.064h7M10.5 42a.5.5 0 0 0-.5.5M18 42.5a.5.5 0 0 0-.5-.5M10 42.5v1.064M18 42.5v1.064M10 43.564a.5.5 0 0 0 .5.5M17.5 44.064a.5.5 0 0 0 .5-.5" transform="matrix(20 0 0 20 20 20)"/><g style="fill:#000;fill-opacity:1"><use xlink:href="#k" x="271.797" y="887.199"/><use xlink:href="#b" x="285.898" y="887.199"/><use xlink:href="#l" x="300" y="887.199"/><use xlink:href="#a" x="314.102" y="887.199"/></g><path style="stroke:none;fill-rule:evenodd;fill:#a1bbe5;fill-opacity:1" d="M130 940h140v41.277H130zM130 950v-10c-5.523 0-10 4.477-10 10h10zM270 950h10c0-5.523-4.477-10-10-10v10zm0 0"/><path style="stroke:none;fill-rule:evenodd;fill:#a1bbe5;fill-opacity:1" d="M120 950h160v21.277H120zM130 971.277h-10c0 5.524 4.477 10 10 10v-10zM270 971.277v10c5.523 0 10-4.476 10-10h-10zm0 0"/><path style="fill:none;stroke-width:.1;stroke-linecap:butt;stroke-linejoin:miter;stroke:#000;stroke-opacity:1;stroke-miterlimit:10" d="M5.5 46h7M5.5 48.064h7M5.5 46a.5.5 0 0 0-.5.5M13 46.5a.5.5 0 0 0-.5-.5M5 46.5v1.064M13 46.5v1.064M5 47.564a.5.5 0 0 0 .5.5M12.5 48.064a.5.5 0 0 0 .5-.5" transform="matrix(20 0 0 20 20 20)"/><g style="fill:#000;fill-opacity:1"><use xlink:href="#p" x="164.746" y="967.199"/><use xlink:href="#q" x="178.848" y="967.199"/><use xlink:href="#r" x="192.949" y="967.199"/><use xlink:href="#s" x="207.051" y="967.199"/><use xlink:href="#t" x="221.152" y="967.199"/></g><path style="stroke:none;fill-rule:evenodd;fill:#e9a4de;fill-opacity:1" d="M350 940h140v41.277H350zM350 950v-10c-5.523 0-10 4.477-10 10h10zM490 950h10c0-5.523-4.477-10-10-10v10zm0 0"/><path style="stroke:none;fill-rule:evenodd;fill:#e9a4de;fill-opacity:1" d="M340 950h160v21.277H340zM350 971.277h-10c0 5.524 4.477 10 10 10v-10zM490 971.277v10c5.523 0 10-4.476 10-10h-10zm0 0"/><path style="fill:none;stroke-width:.1;stroke-linecap:butt;stroke-linejoin:miter;stroke:#000;stroke-opacity:1;stroke-miterlimit:10" d="M16.5 46h7M16.5 48.064h7M16.5 46a.5.5 0 0 0-.5.5M24 46.5a.5.5 0 0 0-.5-.5M16 46.5v1.064M24 46.5v1.064M16 47.564a.5.5 0 0 0 .5.5M23.5 48.064a.5.5 0 0 0 .5-.5" transform="matrix(20 0 0 20 20 20)"/><g style="fill:#000;fill-opacity:1"><use xlink:href="#p" x="377.695" y="967.199"/><use xlink:href="#q" x="391.797" y="967.199"/><use xlink:href="#u" x="405.898" y="967.199"/><use xlink:href="#t" x="420" y="967.199"/><use xlink:href="#v" x="434.102" y="967.199"/><use xlink:href="#n" x="448.203" y="967.199"/></g><path style="stroke:none;fill-rule:evenodd;fill:#dedede;fill-opacity:1" d="M570 940h140v41.277H570zM570 950v-10c-5.523 0-10 4.477-10 10h10zM710 950h10c0-5.523-4.477-10-10-10v10zm0 0"/><path style="stroke:none;fill-rule:evenodd;fill:#dedede;fill-opacity:1" d="M560 950h160v21.277H560zM570 971.277h-10c0 5.524 4.477 10 10 10v-10zM710 971.277v10c5.523 0 10-4.476 10-10h-10zm0 0"/><path style="fill:none;stroke-width:.1;stroke-linecap:butt;stroke-linejoin:miter;stroke:#000;stroke-opacity:1;stroke-miterlimit:10" d="M27.5 46h7M27.5 48.064h7M27.5 46a.5.5 0 0 0-.5.5M35 46.5a.5.5 0 0 0-.5-.5M27 46.5v1.064M35 46.5v1.064M27 47.564a.5.5 0 0 0 .5.5M34.5 48.064a.5.5 0 0 0 .5-.5" transform="matrix(20 0 0 20 20 20)"/><g style="fill:#000;fill-opacity:1"><use xlink:href="#s" x="611.797" y="967.199"/><use xlink:href="#v" x="625.898" y="967.199"/><use xlink:href="#w" x="640" y="967.199"/><use xlink:href="#t" x="654.102" y="967.199"/></g><path style="stroke:none;fill-rule:evenodd;fill:#a9e5a1;fill-opacity:1" d="M770 940h140v41.277H770zM770 950v-10c-5.523 0-10 4.477-10 10h10zM910 950h10c0-5.523-4.477-10-10-10v10zm0 0"/><path style="stroke:none;fill-rule:evenodd;fill:#a9e5a1;fill-opacity:1" d="M760 950h160v21.277H760zM770 971.277h-10c0 5.524 4.477 10 10 10v-10zM910 971.277v10c5.523 0 10-4.476 10-10h-10zm0 0"/><path style="fill:none;stroke-width:.1;stroke-linecap:butt;stroke-linejoin:miter;stroke:#000;stroke-opacity:1;stroke-miterlimit:10" d="M37.5 46h7M37.5 48.064h7M37.5 46a.5.5 0 0 0-.5.5M45 46.5a.5.5 0 0 0-.5-.5M37 46.5v1.064M45 46.5v1.064M37 47.564a.5.5 0 0 0 .5.5M44.5 48.064a.5.5 0 0 0 .5-.5" transform="matrix(20 0 0 20 20 20)"/><g style="fill:#000;fill-opacity:1"><use xlink:href="#x" x="811.797" y="967.199"/><use xlink:href="#y" x="825.898" y="967.199"/><use xlink:href="#z" x="840" y="967.199"/><use xlink:href="#A" x="854.102" y="967.199"/></g><path style="stroke:none;fill-rule:evenodd;fill:#fdf6b2;fill-opacity:1" d="M230 200h140v41.277H230zM230 210v-10c-5.523 0-10 4.477-10 10h10zM370 210h10c0-5.523-4.477-10-10-10v10zm0 0"/><path style="stroke:none;fill-rule:evenodd;fill:#fdf6b2;fill-opacity:1" d="M220 210h160v21.277H220zM230 231.277h-10c0 5.524 4.477 10 10 10v-10zM370 231.277v10c5.523 0 10-4.476 10-10h-10zm0 0"/><path style="fill:none;stroke-width:.1;stroke-linecap:butt;stroke-linejoin:miter;stroke:#000;stroke-opacity:1;stroke-miterlimit:10" d="M10.5 9h7M10.5 11.064h7M10.5 9a.5.5 0 0 0-.5.5M18 9.5a.5.5 0 0 0-.5-.5M10 9.5v1.064M18 9.5v1.064M10 10.564a.5.5 0 0 0 .5.5M17.5 11.064a.5.5 0 0 0 .5-.5" transform="matrix(20 0 0 20 20 20)"/><g style="fill:#000;fill-opacity:1"><use xlink:href="#k" x="271.797" y="227.199"/><use xlink:href="#b" x="285.898" y="227.199"/><use xlink:href="#l" x="300" y="227.199"/><use xlink:href="#i" x="314.102" y="227.199"/></g></svg>