<svg xmlns="http://www.w3.org/2000/svg" xmlns:xlink="http://www.w3.org/1999/xlink" width="580pt" height="320pt" viewBox="0 0 580 320"><defs><symbol overflow="visible" id="a"><path style="stroke:none" d="M7.633-9.242a.91.91 0 0 0-.059-.336 3.048 3.048 0 0 0-.996-.988 2.526 2.526 0 0 0-1.305-.368c-.437 0-.847.114-1.226.336a3.181 3.181 0 0 0-1.016.98c-.297.43-.527.95-.691 1.563-.172.614-.254 1.309-.25 2.09-.004.758.078 1.445.25 2.063.164.62.398 1.152.7 1.593.3.442.651.786 1.054 1.024.402.246.836.367 1.297.363.468.004.921-.133 1.367-.402a3.08 3.08 0 0 0 1.066-1.094l1 .652a3.77 3.77 0 0 1-.691.848 4.366 4.366 0 0 1-1.758.984c-.3.079-.605.121-.91.125-.692-.004-1.3-.12-1.832-.355-.531-.234-1.02-.602-1.457-1.102-.446-.5-.785-1.132-1.028-1.898C.906-3.93.785-4.844.785-5.906c0-1.176.14-2.157.422-2.946.281-.785.652-1.414 1.113-1.886.461-.473.95-.809 1.47-1.008a4.322 4.322 0 0 1 1.503-.297c.39.004.777.059 1.16.172.375.117.727.277 1.055.48.32.204.613.45.87.739.259.289.462.613.618.964l-1.285.633c-.055-.03-.082-.093-.078-.187zm0 0"/></symbol><symbol overflow="visible" id="b"><path style="stroke:none" d="M4.969-8.977c.457 0 .902.086 1.34.25.433.172.812.422 1.14.758.324.34.59.774.79 1.297.195.527.292 1.149.296 1.86l-.012.316c-.007.11-.015.215-.027.316H2.262c.023.617.129 1.13.316 1.543.188.414.422.75.703 1.008.281.258.594.442.938.547.343.11.687.164 1.035.16.906.004 1.66-.324 2.266-.976l.765.746C7.543-.258 6.52.188 5.22.19A5.12 5.12 0 0 1 3.46-.105a3.468 3.468 0 0 1-1.352-.872 3.904 3.904 0 0 1-.863-1.43C1.04-2.972.938-3.62.941-4.354c-.003-.735.102-1.395.317-1.973a4.164 4.164 0 0 1 .86-1.45 3.66 3.66 0 0 1 1.277-.89 4.04 4.04 0 0 1 1.574-.309zM2.32-5.293h4.817c0-.047 0-.094.008-.14 0-.04.003-.094.007-.165a2.393 2.393 0 0 0-.183-.894 2.531 2.531 0 0 0-.489-.738 2.47 2.47 0 0 0-.718-.5 2.145 2.145 0 0 0-.89-.192c-.606 0-1.15.211-1.634.633-.488.422-.793 1.09-.918 1.996zm0 0"/></symbol><symbol overflow="visible" id="c"><path style="stroke:none" d="M1.305 0v-8.766h1.379v1.555a3.923 3.923 0 0 1 1.285-1.285c.515-.32 1.047-.48 1.594-.48.382 0 .742.07 1.078.203.332.136.625.347.87.64.243.297.43.676.571 1.133.133.465.203 1.027.203 1.688V0H6.906v-5.273c-.004-.922-.16-1.567-.472-1.938-.317-.371-.7-.559-1.149-.559-.297 0-.601.067-.906.196-.313.129-.59.312-.836.547-.254.238-.461.52-.617.851a2.55 2.55 0 0 0-.242 1.133V0zm0 0"/></symbol><symbol overflow="visible" id="d"><path style="stroke:none" d="m3.605-11.105 1.497-.25c-.004.117-.02.222-.047.308a1.316 1.316 0 0 0-.067.211l-.23 2.07h2.875v1.114H4.758a31.854 31.854 0 0 0-.176 3.222c0 .617.012 1.14.04 1.563.023.43.089.762.202 1.004.106.242.266.433.473.566.203.14.476.207.828.203.586.004 1.242-.265 1.965-.804l.426 1.093c-.887.653-1.793.973-2.723.977-.926-.004-1.598-.277-2.016-.836-.425-.555-.617-1.461-.574-2.719-.004-.46.008-1.05.04-1.77.023-.714.073-1.55.152-2.5H1.344v-1.113h2.11zm0 0"/></symbol><symbol overflow="visible" id="e"><path style="stroke:none" d="M1.898-8.766h1.418l-.035 1.688A2.903 2.903 0 0 1 4.56-8.484a3.76 3.76 0 0 1 1.878-.493c.946 0 1.727.32 2.348.961l-.633 1.32a9.86 9.86 0 0 0-.386-.476 2.425 2.425 0 0 0-.375-.324 2.323 2.323 0 0 0-.446-.211 2.288 2.288 0 0 0-.586-.078c-.425.004-.82.101-1.191.297-.375.199-.7.46-.973.785-.277.328-.5.703-.664 1.121-.168.426-.25.867-.25 1.324V.02H1.898zm0 0"/></symbol><symbol overflow="visible" id="f"><path style="stroke:none" d="M1.746-7.73c.777-.813 1.817-1.223 3.125-1.227 1.07.004 1.918.277 2.543.816.617.547.93 1.45.93 2.711V0H7.039v-.96C6.102-.18 5.055.21 3.895.21 3.43.21 3.015.14 2.656 0a2.911 2.911 0 0 1-.93-.555 2.326 2.326 0 0 1-.585-.789 1.99 1.99 0 0 1-.2-.883c-.003-.878.375-1.574 1.141-2.086.758-.511 1.856-.792 3.29-.847H7.02v-.328c0-.871-.184-1.48-.547-1.832-.368-.344-.934-.52-1.696-.524-.953.004-1.738.336-2.359.996zm5.332 3.625H6.75c-.18.003-.352 0-.508-.008a9.872 9.872 0 0 0-.469-.012c-.707 0-1.28.05-1.726.145-.45.101-.8.23-1.055.394-.258.168-.433.36-.527.566a1.622 1.622 0 0 0-.145.68c0 .414.176.766.535 1.055.356.297.797.441 1.325.441.383 0 .73-.058 1.035-.18.305-.12.57-.269.805-.44.226-.173.414-.352.558-.54.137-.183.238-.344.309-.488.125-.25.191-.598.191-1.035zm0 0"/></symbol><symbol overflow="visible" id="g"><path style="stroke:none" d="M1.629-12.754h3.855v11.64h2.57V0H1.517v-1.113h2.59v-10.528H1.628zm0 0"/></symbol><symbol overflow="visible" id="h"><path style="stroke:none" d="M1.074-11.95h3.528c1.402.005 2.418.317 3.039.942.62.63.93 1.453.933 2.473a3.319 3.319 0 0 1-.176 1.027 3.525 3.525 0 0 1-1.253 1.719c-.305.219-.641.371-1.008.457L8.898 0H7.402L4.758-5.273H2.453V0H1.074zm1.38 1.266v4.22h2.312c.851.003 1.468-.184 1.851-.563.38-.375.57-.88.574-1.508a2.453 2.453 0 0 0-.152-.844 2.131 2.131 0 0 0-.43-.668 2.038 2.038 0 0 0-.738-.46c-.305-.114-.676-.173-1.105-.177zm0 0"/></symbol><symbol overflow="visible" id="i"><path style="stroke:none" d="M1.152-8.766h1.36v1.344a3.151 3.151 0 0 1 1.187-1.121c.492-.273.992-.41 1.496-.414.489.004.953.098 1.399.277.437.188.832.465 1.176.836.34.371.609.836.808 1.399.2.562.297 1.23.3 1.996-.003.77-.108 1.445-.32 2.031-.214.59-.492 1.078-.835 1.469a3.47 3.47 0 0 1-1.188.883 3.36 3.36 0 0 1-1.36.296 3.231 3.231 0 0 1-1.507-.363 3.096 3.096 0 0 1-1.137-1.02v4.356H1.152zm1.36 5.098c.023.941.242 1.617.656 2.023.41.41.918.614 1.527.61.32.004.645-.047.97-.153a2.28 2.28 0 0 0 .886-.523c.27-.25.484-.578.648-.984.16-.407.242-.914.242-1.528 0-1.113-.238-1.98-.707-2.601-.472-.614-1.132-.934-1.98-.961a2.72 2.72 0 0 0-.793.133c-.273.09-.516.242-.727.457-.21.218-.386.508-.52.867-.14.363-.206.812-.202 1.344zm0 0"/></symbol><symbol overflow="visible" id="j"><path style="stroke:none" d="M4.871-8.957c.531.004 1.04.11 1.524.316.476.215.898.52 1.257.91.36.399.645.88.856 1.45.21.57.316 1.207.316 1.91 0 .715-.105 1.355-.308 1.918a4.583 4.583 0 0 1-.844 1.45c-.36.405-.781.71-1.266.917A3.965 3.965 0 0 1 4.852.23 3.74 3.74 0 0 1 3.27-.113a4.017 4.017 0 0 1-1.297-.95 4.45 4.45 0 0 1-.883-1.449 4.884 4.884 0 0 1-.324-1.824 4.916 4.916 0 0 1 .336-1.84 4.46 4.46 0 0 1 .902-1.465 4.316 4.316 0 0 1 1.312-.96 3.676 3.676 0 0 1 1.555-.356zm2.57 4.621c0-.547-.074-1.035-.222-1.465a3.585 3.585 0 0 0-.582-1.086 2.654 2.654 0 0 0-.836-.668 2.35 2.35 0 0 0-.989-.23 2.336 2.336 0 0 0-.988.23c-.316.157-.59.38-.824.668a3.542 3.542 0 0 0-.563 1.067c-.14.418-.21.886-.21 1.41 0 .512.07.976.21 1.398.141.422.329.79.563 1.094.234.313.512.547.836.711.316.164.656.246 1.016.246a2.316 2.316 0 0 0 1.832-.867c.234-.29.418-.645.554-1.067.133-.421.203-.902.203-1.44zm0 0"/></symbol><symbol overflow="visible" id="k"><path style="stroke:none" d="M8.285-7.594 7.48-6.387c-.066-.011-.097-.062-.097-.152a.38.38 0 0 0-.04-.191c-.234-.293-.562-.567-.988-.817a2.812 2.812 0 0 0-1.449-.375c-.25 0-.484.031-.707.086a2.45 2.45 0 0 0-.597.242 1.194 1.194 0 0 0-.418.395.928.928 0 0 0-.153.543.703.703 0 0 0 .114.414c.074.125.195.242.367.355.164.117.402.23.707.344.3.117.695.246 1.187.383 1.106.297 1.887.644 2.344 1.047.457.402.688.898.688 1.484A2.524 2.524 0 0 1 7.46-.633c-.324.258-.707.461-1.152.606-.45.144-.954.214-1.512.218C3.324.187 2.09-.269 1.094-1.188l.785-1.382a.418.418 0 0 1 .078.187.759.759 0 0 0 .133.305c.074.121.215.254.426.402.203.153.52.32.949.5.187.094.406.16.656.196.242.042.488.062.734.058.254.004.516-.027.782-.094.265-.062.504-.156.715-.28.21-.118.378-.266.511-.442.125-.172.192-.367.196-.59-.004-.332-.16-.617-.465-.852-.313-.23-.88-.468-1.7-.715-.57-.164-.94-.277-1.12-.343-.465-.176-.801-.336-1.004-.473a2.737 2.737 0 0 1-.563-.48 2.298 2.298 0 0 1-.406-.637 1.825 1.825 0 0 1-.153-.781 1.675 1.675 0 0 1 .25-.883c.165-.281.395-.531.7-.75.297-.215.656-.39 1.074-.531a4.397 4.397 0 0 1 1.351-.204c1.34 0 2.43.461 3.262 1.383zm0 0"/></symbol><symbol overflow="visible" id="l"><path style="stroke:none" d="M2.031-8.766h3.512v7.653h2.05V0H1.919v-1.113H4.16v-6.54H2.031zm2.149-3.527a.947.947 0 0 1 .691-.289.99.99 0 0 1 .7.297.99.99 0 0 1 .296.7.939.939 0 0 1-.297.69.965.965 0 0 1-.699.29.917.917 0 0 1-.691-.29.9.9 0 0 1-.285-.69.934.934 0 0 1 .285-.708zm0 0"/></symbol><symbol overflow="visible" id="m"><path style="stroke:none" d="m1.133-8.152-.25-.614H2.55a.943.943 0 0 1-.04.258.485.485 0 0 0-.034.203c-.004.055.007.09.035.114l2.61 6.445 1.667-4.7a14.774 14.774 0 0 0 .652-2.32H8.88a43.25 43.25 0 0 0-.375 1.133c-.137.426-.297.89-.488 1.399L5.64.039l-.368.957c-.308.856-.703 1.457-1.18 1.813a2.78 2.78 0 0 1-1.655.527C1.602 3.332.93 3.086.421 2.59l.73-1.227a.466.466 0 0 1 .094.184c.024.086.043.14.059.168l.074.086c.047.054.117.113.203.176.082.054.188.113.316.168.125.054.266.082.422.082.368 0 .696-.118.985-.352.289-.234.574-.652.855-1.254l.27-.66zm0 0"/></symbol><symbol overflow="visible" id="n"><path style="stroke:none" d="M1.035-11.95h2.781c1.02.005 1.817.145 2.387.423.567.285 1.05.687 1.45 1.21.394.528.687 1.16.882 1.899.192.742.29 1.578.29 2.512 0 .922-.118 1.746-.348 2.472-.23.73-.547 1.356-.95 1.872-.402.519-.922.914-1.562 1.18-.64.269-1.434.398-2.38.402h-2.55zm1.266 1.114v9.8H3.52c1.355.005 2.347-.41 2.98-1.237.625-.829.941-2.016.941-3.567-.015-1.558-.304-2.781-.867-3.668-.566-.883-1.515-1.324-2.844-1.328zm0 0"/></symbol><symbol overflow="visible" id="o"><path style="stroke:none" d="m.96-8.285-.194-.48h1.632c-.003.09-.011.171-.03.242a.572.572 0 0 0-.028.18c-.004.027.004.046.02.058L4.91-1.88 6.328-5.14c.305-.699.55-1.351.746-1.953.188-.597.336-1.156.446-1.672h1.246c-.258 1.079-.7 2.36-1.325 3.836L5.313.06H4.237zm0 0"/></symbol></defs><path style="fill-rule:nonzero;fill:#fff;fill-opacity:1;stroke-width:0;stroke-linecap:butt;stroke-linejoin:miter;stroke:#000;stroke-opacity:1;stroke-miterlimit:10" d="M0 0h29v16H0zm0 0" transform="scale(20)"/><path style="fill:none;stroke-width:.2;stroke-linecap:butt;stroke-linejoin:miter;stroke:#000;stroke-opacity:1;stroke-miterlimit:10" d="m4.856 11.116 5.875-6.32" transform="scale(20)"/><path style="fill-rule:evenodd;fill:#000;fill-opacity:1;stroke-width:.2;stroke-linecap:butt;stroke-linejoin:miter;stroke:#000;stroke-opacity:1;stroke-miterlimit:10" d="m4.652 11.336.126-.429.078.21.215.062-.419.157zM10.936 4.576l-.126.43-.079-.21-.214-.063.419-.157zm0 0" transform="scale(20)"/><path style="fill:none;stroke-width:.2;stroke-linecap:butt;stroke-linejoin:miter;stroke:#000;stroke-opacity:1;stroke-miterlimit:10" d="M14.5 10.976V5.024" transform="scale(20)"/><path style="fill-rule:evenodd;fill:#000;fill-opacity:1;stroke-width:.2;stroke-linecap:butt;stroke-linejoin:miter;stroke:#000;stroke-opacity:1;stroke-miterlimit:10" d="m14.5 11.276-.2-.4.2.1.2-.1-.2.4zM14.5 4.724l.2.4-.2-.1-.2.1.2-.4zm0 0" transform="scale(20)"/><path style="fill:none;stroke-width:.2;stroke-linecap:butt;stroke-linejoin:miter;stroke:#000;stroke-opacity:1;stroke-miterlimit:10" d="m24.144 11.116-5.875-6.32" transform="scale(20)"/><path style="fill-rule:evenodd;fill:#000;fill-opacity:1;stroke-width:.2;stroke-linecap:butt;stroke-linejoin:miter;stroke:#000;stroke-opacity:1;stroke-miterlimit:10" d="m24.348 11.336-.42-.157.216-.063.078-.209.126.43zM18.064 4.576l.42.157-.215.063-.079.21-.126-.43zm0 0" transform="scale(20)"/><path style="stroke:none;fill-rule:evenodd;fill:#fdd1b2;fill-opacity:1" d="M226 20h128v70H226zM226 26v-6c-3.313 0-6 2.688-6 6h6zM354 26h6c0-3.313-2.688-6-6-6v6zm0 0"/><path style="stroke:none;fill-rule:evenodd;fill:#fdd1b2;fill-opacity:1" d="M220 26h140v58H220zM226 84h-6c0 3.313 2.688 6 6 6v-6zM354 84v6c3.313 0 6-2.688 6-6h-6zm0 0"/><path style="fill:none;stroke-width:.1;stroke-linecap:butt;stroke-linejoin:miter;stroke:#000;stroke-opacity:1;stroke-miterlimit:10" d="M11.3 1h6.4M11.3 4.5h6.4M11.3 1a.3.3 0 0 0-.3.3M18 1.3a.3.3 0 0 0-.3-.3M11 1.3v2.9M18 1.3v2.9M11 4.2a.3.3 0 0 0 .3.3M17.7 4.5a.3.3 0 0 0 .3-.3" transform="scale(20)"/><g style="fill:#000;fill-opacity:1"><use xlink:href="#a" x="256.445" y="47.512"/><use xlink:href="#b" x="266.035" y="47.512"/><use xlink:href="#c" x="275.625" y="47.512"/><use xlink:href="#d" x="285.215" y="47.512"/><use xlink:href="#e" x="294.805" y="47.512"/><use xlink:href="#f" x="304.395" y="47.512"/><use xlink:href="#g" x="313.984" y="47.512"/></g><g style="fill:#000;fill-opacity:1"><use xlink:href="#h" x="242.051" y="71.5"/><use xlink:href="#b" x="251.641" y="71.5"/><use xlink:href="#i" x="261.23" y="71.5"/><use xlink:href="#j" x="270.82" y="71.5"/><use xlink:href="#k" x="280.41" y="71.5"/><use xlink:href="#l" x="290" y="71.5"/><use xlink:href="#d" x="299.59" y="71.5"/><use xlink:href="#j" x="309.18" y="71.5"/><use xlink:href="#e" x="318.77" y="71.5"/><use xlink:href="#m" x="328.359" y="71.5"/></g><path style="stroke:none;fill-rule:evenodd;fill:#a1bbe5;fill-opacity:1" d="M426 230h128v70H426zM426 236v-6c-3.313 0-6 2.688-6 6h6zM554 236h6c0-3.313-2.688-6-6-6v6zm0 0"/><path style="stroke:none;fill-rule:evenodd;fill:#a1bbe5;fill-opacity:1" d="M420 236h140v58H420zM426 294h-6c0 3.313 2.688 6 6 6v-6zM554 294v6c3.313 0 6-2.688 6-6h-6zm0 0"/><path style="fill:none;stroke-width:.1;stroke-linecap:butt;stroke-linejoin:miter;stroke:#000;stroke-opacity:1;stroke-miterlimit:10" d="M21.3 11.5h6.4M21.3 15h6.4M21.3 11.5a.3.3 0 0 0-.3.3M28 11.8a.3.3 0 0 0-.3-.3M21 11.8v2.9M28 11.8v2.9M21 14.7a.3.3 0 0 0 .3.3M27.7 15a.3.3 0 0 0 .3-.3" transform="scale(20)"/><g style="fill:#000;fill-opacity:1"><use xlink:href="#n" x="446.855" y="257.512"/><use xlink:href="#b" x="456.445" y="257.512"/><use xlink:href="#o" x="466.035" y="257.512"/><use xlink:href="#b" x="475.625" y="257.512"/><use xlink:href="#g" x="485.215" y="257.512"/><use xlink:href="#j" x="494.805" y="257.512"/><use xlink:href="#i" x="504.395" y="257.512"/><use xlink:href="#b" x="513.984" y="257.512"/><use xlink:href="#e" x="523.574" y="257.512"/></g><g style="fill:#000;fill-opacity:1"><use xlink:href="#h" x="442.051" y="281.5"/><use xlink:href="#b" x="451.641" y="281.5"/><use xlink:href="#i" x="461.23" y="281.5"/><use xlink:href="#j" x="470.82" y="281.5"/><use xlink:href="#k" x="480.41" y="281.5"/><use xlink:href="#l" x="490" y="281.5"/><use xlink:href="#d" x="499.59" y="281.5"/><use xlink:href="#j" x="509.18" y="281.5"/><use xlink:href="#e" x="518.77" y="281.5"/><use xlink:href="#m" x="528.359" y="281.5"/></g><path style="stroke:none;fill-rule:evenodd;fill:#a1bbe5;fill-opacity:1" d="M226 230h128v70H226zM226 236v-6c-3.313 0-6 2.688-6 6h6zM354 236h6c0-3.313-2.688-6-6-6v6zm0 0"/><path style="stroke:none;fill-rule:evenodd;fill:#a1bbe5;fill-opacity:1" d="M220 236h140v58H220zM226 294h-6c0 3.313 2.688 6 6 6v-6zM354 294v6c3.313 0 6-2.688 6-6h-6zm0 0"/><path style="fill:none;stroke-width:.1;stroke-linecap:butt;stroke-linejoin:miter;stroke:#000;stroke-opacity:1;stroke-miterlimit:10" d="M11.3 11.5h6.4M11.3 15h6.4M11.3 11.5a.3.3 0 0 0-.3.3M18 11.8a.3.3 0 0 0-.3-.3M11 11.8v2.9M18 11.8v2.9M11 14.7a.3.3 0 0 0 .3.3M17.7 15a.3.3 0 0 0 .3-.3" transform="scale(20)"/><g style="fill:#000;fill-opacity:1"><use xlink:href="#n" x="246.855" y="257.512"/><use xlink:href="#b" x="256.445" y="257.512"/><use xlink:href="#o" x="266.035" y="257.512"/><use xlink:href="#b" x="275.625" y="257.512"/><use xlink:href="#g" x="285.215" y="257.512"/><use xlink:href="#j" x="294.805" y="257.512"/><use xlink:href="#i" x="304.395" y="257.512"/><use xlink:href="#b" x="313.984" y="257.512"/><use xlink:href="#e" x="323.574" y="257.512"/></g><g style="fill:#000;fill-opacity:1"><use xlink:href="#h" x="242.051" y="281.5"/><use xlink:href="#b" x="251.641" y="281.5"/><use xlink:href="#i" x="261.23" y="281.5"/><use xlink:href="#j" x="270.82" y="281.5"/><use xlink:href="#k" x="280.41" y="281.5"/><use xlink:href="#l" x="290" y="281.5"/><use xlink:href="#d" x="299.59" y="281.5"/><use xlink:href="#j" x="309.18" y="281.5"/><use xlink:href="#e" x="318.77" y="281.5"/><use xlink:href="#m" x="328.359" y="281.5"/></g><path style="stroke:none;fill-rule:evenodd;fill:#a1bbe5;fill-opacity:1" d="M26 230h128v70H26zM26 236v-6c-3.313 0-6 2.688-6 6h6zM154 236h6c0-3.313-2.688-6-6-6v6zm0 0"/><path style="stroke:none;fill-rule:evenodd;fill:#a1bbe5;fill-opacity:1" d="M20 236h140v58H20zM26 294h-6c0 3.313 2.688 6 6 6v-6zM154 294v6c3.313 0 6-2.688 6-6h-6zm0 0"/><path style="fill:none;stroke-width:.1;stroke-linecap:butt;stroke-linejoin:miter;stroke:#000;stroke-opacity:1;stroke-miterlimit:10" d="M1.3 11.5h6.4M1.3 15h6.4M1.3 11.5a.3.3 0 0 0-.3.3M8 11.8a.3.3 0 0 0-.3-.3M1 11.8v2.9M8 11.8v2.9M1 14.7a.3.3 0 0 0 .3.3M7.7 15a.3.3 0 0 0 .3-.3" transform="scale(20)"/><g style="fill:#000;fill-opacity:1"><use xlink:href="#n" x="46.855" y="257.512"/><use xlink:href="#b" x="56.445" y="257.512"/><use xlink:href="#o" x="66.035" y="257.512"/><use xlink:href="#b" x="75.625" y="257.512"/><use xlink:href="#g" x="85.215" y="257.512"/><use xlink:href="#j" x="94.805" y="257.512"/><use xlink:href="#i" x="104.395" y="257.512"/><use xlink:href="#b" x="113.984" y="257.512"/><use xlink:href="#e" x="123.574" y="257.512"/></g><g style="fill:#000;fill-opacity:1"><use xlink:href="#h" x="42.051" y="281.5"/><use xlink:href="#b" x="51.641" y="281.5"/><use xlink:href="#i" x="61.23" y="281.5"/><use xlink:href="#j" x="70.82" y="281.5"/><use xlink:href="#k" x="80.41" y="281.5"/><use xlink:href="#l" x="90" y="281.5"/><use xlink:href="#d" x="99.59" y="281.5"/><use xlink:href="#j" x="109.18" y="281.5"/><use xlink:href="#e" x="118.77" y="281.5"/><use xlink:href="#m" x="128.359" y="281.5"/></g></svg>