<svg xmlns="http://www.w3.org/2000/svg" xmlns:xlink="http://www.w3.org/1999/xlink" width="3120" height="1120pt" viewBox="0 0 2340 1120"><defs><symbol overflow="visible" id="a"><path style="stroke:none" d="M12.898-23.715a9.984 9.984 0 0 1 4.036.84 9.758 9.758 0 0 1 3.328 2.41c.945 1.05 1.695 2.328 2.258 3.836.554 1.508.835 3.192.84 5.05-.005 1.9-.274 3.595-.813 5.079-.543 1.492-1.29 2.77-2.235 3.836a9.525 9.525 0 0 1-3.351 2.437C15.67.332 14.3.61 12.848.61a9.761 9.761 0 0 1-4.192-.914A10.84 10.84 0 0 1 5.23-2.816C4.246-3.883 3.47-5.16 2.895-6.652c-.579-1.485-.868-3.094-.864-4.825a13.252 13.252 0 0 1 .887-4.875c.594-1.52 1.387-2.812 2.387-3.882a11.482 11.482 0 0 1 3.48-2.54 9.541 9.541 0 0 1 4.113-.94Zm6.805 12.238c-.004-1.453-.2-2.746-.586-3.882-.39-1.133-.906-2.09-1.547-2.871-.644-.774-1.383-1.368-2.21-1.778a5.991 5.991 0 0 0-2.614-.61 5.97 5.97 0 0 0-2.617.61c-.832.41-1.559 1.004-2.184 1.778-.625.78-1.125 1.718-1.496 2.82-.375 1.101-.562 2.348-.558 3.73-.004 1.36.183 2.594.558 3.707.371 1.121.871 2.086 1.496 2.895.625.816 1.36 1.441 2.211 1.879a5.68 5.68 0 0 0 2.692.66 6.128 6.128 0 0 0 2.664-.582 6.18 6.18 0 0 0 2.183-1.727c.625-.757 1.114-1.699 1.473-2.82.352-1.113.531-2.383.535-3.809Zm0 0"/></symbol><symbol overflow="visible" id="b"><path style="stroke:none" d="M5.027-23.207h3.758l-.101 4.469a7.694 7.694 0 0 1 3.386-3.73 10.041 10.041 0 0 1 4.973-1.298c2.512 0 4.582.848 6.215 2.54l-1.676 3.503a22.31 22.31 0 0 0-1.02-1.27 5.56 5.56 0 0 0-.996-.862 4.904 4.904 0 0 0-1.171-.56c-.43-.132-.946-.198-1.555-.202a6.688 6.688 0 0 0-3.164.789 8.699 8.699 0 0 0-2.574 2.082 10.563 10.563 0 0 0-1.758 2.969 9.448 9.448 0 0 0-.66 3.504V.05H5.027Zm0 0"/></symbol><symbol overflow="visible" id="c"><path style="stroke:none" d="M5.383-23.207h9.293v20.262h5.433V0H5.08v-2.945h5.94v-17.317H5.384Zm5.687-9.344a2.511 2.511 0 0 1 1.828-.761c.707.003 1.325.265 1.852.789.523.527.79 1.144.79 1.851 0 .715-.267 1.324-.79 1.828-.527.512-1.145.766-1.852.762a2.451 2.451 0 0 1-1.828-.762 2.451 2.451 0 0 1-.761-1.828c-.004-.742.25-1.367.761-1.879Zm0 0"/></symbol><symbol overflow="visible" id="d"><path style="stroke:none" d="M7.871-19.508a4.767 4.767 0 0 0-1.117 1.668 5.223 5.223 0 0 0-.356 1.918c0 .68.133 1.328.407 1.95a4.96 4.96 0 0 0 1.09 1.617c.453.457.996.82 1.625 1.085a4.76 4.76 0 0 0 1.957.403 4.74 4.74 0 0 0 1.98-.403 5.285 5.285 0 0 0 1.625-1.113A5.327 5.327 0 0 0 16.199-14c.27-.602.406-1.242.406-1.922 0-.668-.136-1.316-.406-1.941a5.402 5.402 0 0 0-1.117-1.645 5.367 5.367 0 0 0-1.652-1.11 4.889 4.889 0 0 0-1.953-.405c-1.391 0-2.594.507-3.606 1.515Zm9.344-2.226c1.625-1.383 3.555-2.078 5.789-2.082h.66l.457 3.046a9.704 9.704 0 0 0-1.371-.102c-1.492 0-2.828.356-4.012 1.067a7.03 7.03 0 0 1 1.168 3.91 7.418 7.418 0 0 1-.66 3.075 8.179 8.179 0 0 1-1.805 2.539 8.534 8.534 0 0 1-2.664 1.726 8.396 8.396 0 0 1-3.25.633c-.953 0-1.933-.183-2.945-.558-1.086 1.054-1.629 1.933-1.625 2.64-.004.578.328 1.027.988 1.348.66.324 1.567.484 2.72.48.64.004 1.288-.02 1.952-.074a28.976 28.976 0 0 1 1.856-.078c1.523.004 2.832.148 3.933.434 1.098.289 1.989.695 2.668 1.218.676.528 1.184 1.145 1.524 1.852.336.71.504 1.469.507 2.285a5.89 5.89 0 0 1-.66 2.664c-.441.863-1.101 1.625-1.98 2.285-.883.66-1.992 1.184-3.328 1.574-1.34.387-2.907.582-4.696.586-1.867-.004-3.464-.148-4.8-.433-1.336-.29-2.41-.688-3.223-1.192-.813-.511-1.434-1.093-1.856-1.754A3.784 3.784 0 0 1 1.93 3.25C1.926 1.418 3.195-.29 5.738-1.879c-1.258-.64-1.883-1.707-1.879-3.2-.004-1.452.875-2.91 2.641-4.366a7.558 7.558 0 0 1-2.54-2.742 7.31 7.31 0 0 1-.913-3.555c0-1.149.234-2.223.71-3.223a8.586 8.586 0 0 1 1.903-2.617 8.98 8.98 0 0 1 2.742-1.75 8.394 8.394 0 0 1 3.176-.637c2.266.004 4.145.75 5.637 2.235ZM8.175-1.22C6.243-.137 5.278 1.047 5.282 2.336c-.004.676.192 1.242.582 1.7.387.456.91.827 1.574 1.116.657.285 1.438.5 2.336.637.899.133 1.836.2 2.82.203 2.063-.004 3.774-.375 5.13-1.117 1.351-.746 2.027-1.746 2.03-2.996-.07-.918-.448-1.625-1.144-2.133-.695-.504-1.789-.758-3.273-.762-.172.004-.34.012-.508.028-.172.02-.34.027-.508.023-1.289.004-2.441-.02-3.453-.074a60.698 60.698 0 0 1-2.691-.18Zm0 0"/></symbol><symbol overflow="visible" id="e"><path style="stroke:none" d="M3.453 0v-23.207H7.11v4.113a10.364 10.364 0 0 1 3.399-3.402c1.379-.844 2.785-1.27 4.219-1.27 1.02 0 1.976.18 2.863.536.887.355 1.652.921 2.3 1.699.645.781 1.15 1.781 1.508 2.996.36 1.223.54 2.71.54 4.469V0H18.28v-13.965c0-2.433-.418-4.144-1.25-5.129-.836-.98-1.847-1.472-3.035-1.472-.785 0-1.586.171-2.398.507a7.307 7.307 0 0 0-2.22 1.45 7.496 7.496 0 0 0-1.632 2.257c-.426.883-.64 1.883-.637 2.997V0Zm0 0"/></symbol><symbol overflow="visible" id="f"><path style="stroke:none" d="m23.207-19.348-2.59 2.996c-.172-.097-.25-.207-.23-.328.015-.117 0-.277-.051-.484-.055-.2-.184-.453-.387-.762-.207-.3-.613-.707-1.222-1.219-1.165-.945-2.75-1.421-4.758-1.421-.992 0-1.942.203-2.84.609-.906.406-1.7.988-2.379 1.746-.688.758-1.23 1.672-1.637 2.734-.41 1.067-.617 2.254-.613 3.57-.004 1.317.203 2.532.613 3.645.407 1.117.969 2.082 1.688 2.887a7.54 7.54 0 0 0 2.558 1.898c.989.461 2.079.688 3.274.684 2.347.004 4.379-.926 6.086-2.793l2.133 2.488C20.547-.66 17.719.555 14.372.56 12.71.555 11.18.254 9.772-.355a10.968 10.968 0 0 1-3.656-2.54c-1.031-1.082-1.836-2.359-2.41-3.832-.578-1.472-.867-3.09-.863-4.851-.004-1.727.285-3.332.863-4.824.574-1.485 1.379-2.762 2.41-3.832 1.031-1.063 2.266-1.903 3.707-2.516 1.438-.605 3.004-.91 4.7-.914 1.824.004 3.492.387 5 1.144a9.893 9.893 0 0 1 3.683 3.172Zm0 0"/></symbol><symbol overflow="visible" id="g"><path style="stroke:none" d="M4.316-33.77h10.207v30.825h6.805V0H4.012v-2.945h6.855v-27.88h-6.55Zm0 0"/></symbol><symbol overflow="visible" id="h"><path style="stroke:none" d="M13.152-23.766c1.215 0 2.399.223 3.555.66a8.339 8.339 0 0 1 3.02 2.008c.863.899 1.558 2.04 2.082 3.426.523 1.39.785 3.035.789 4.926-.004.273-.012.55-.028.84-.015.289-.043.57-.074.836H5.992c.067 1.629.344 2.992.836 4.09.488 1.101 1.11 1.988 1.856 2.664a6.516 6.516 0 0 0 2.488 1.449c.91.289 1.824.43 2.742.43 2.402 0 4.399-.864 5.992-2.59l2.032 1.98C19.973-.68 17.261.503 13.813.508 12.117.504 10.57.246 9.163-.277 7.758-.801 6.563-1.574 5.586-2.59 4.602-3.605 3.84-4.863 3.3-6.37c-.547-1.504-.817-3.223-.813-5.156-.004-1.961.274-3.707.836-5.23.555-1.524 1.317-2.802 2.285-3.833a9.798 9.798 0 0 1 3.38-2.363c1.284-.54 2.671-.813 4.163-.813Zm-7.007 9.75H18.89c0-.132.007-.257.023-.375a4.03 4.03 0 0 0 .027-.425 6.06 6.06 0 0 0-.484-2.375 6.355 6.355 0 0 0-1.293-1.954 6.575 6.575 0 0 0-1.906-1.328 5.679 5.679 0 0 0-2.36-.5c-1.593.004-3.03.563-4.316 1.676-1.289 1.121-2.102 2.879-2.437 5.281Zm0 0"/></symbol><symbol overflow="visible" id="i"><path style="stroke:none" d="m9.547-29.402 3.96-.66a2.55 2.55 0 0 1-.128.812 5.453 5.453 0 0 0-.176.559l-.61 5.484h7.618v2.945h-7.617c-.309 3.032-.461 5.875-.457 8.532a65.325 65.325 0 0 0 .101 4.136c.067 1.125.246 2.012.535 2.657.29.648.704 1.152 1.25 1.507.54.36 1.274.535 2.196.535 1.562 0 3.297-.71 5.207-2.132l1.12 2.894c-2.335 1.727-4.741 2.59-7.21 2.59-2.441 0-4.219-.738-5.332-2.215C8.883-3.234 8.375-5.633 8.48-8.96c-.003-1.219.032-2.781.102-4.684.066-1.898.203-4.105.406-6.617H3.555v-2.945H9.14Zm0 0"/></symbol><symbol overflow="visible" id="B"><path style="stroke:none" d="M3.047-23.207h3.605v3.555a8.524 8.524 0 0 1 3.141-2.97c1.309-.726 2.629-1.089 3.96-1.093 1.29.004 2.524.25 3.704.738a8.911 8.911 0 0 1 3.117 2.207c.899.985 1.613 2.22 2.145 3.707.523 1.493.789 3.254.793 5.282-.004 2.035-.285 3.828-.844 5.383-.566 1.558-1.309 2.855-2.223 3.886-.922 1.035-1.968 1.813-3.14 2.336-1.18.524-2.38.785-3.602.785-1.433 0-2.762-.32-3.984-.964a8.126 8.126 0 0 1-3.016-2.692V8.48H3.047ZM6.652-9.711c.063 2.496.645 4.281 1.739 5.356 1.093 1.078 2.441 1.613 4.046 1.613.848 0 1.7-.133 2.555-.403.852-.27 1.637-.734 2.356-1.39.715-.656 1.285-1.52 1.715-2.598.421-1.074.636-2.422.64-4.043-.004-2.957-.629-5.254-1.871-6.89-1.25-1.63-2.996-2.48-5.242-2.551a6.877 6.877 0 0 0-2.102.355c-.718.235-1.36.64-1.918 1.211-.566.578-1.027 1.344-1.383 2.297-.359.961-.539 2.145-.535 3.559Zm0 0"/></symbol><symbol overflow="visible" id="C"><path style="stroke:none" d="M3.2-23.207h3.655v12.95c0 1.491.133 2.737.407 3.734.27 1 .652 1.8 1.148 2.41.492.61 1.055 1.05 1.684 1.32.629.273 1.316.41 2.066.406a6.843 6.843 0 0 0 2.344-.61A6.439 6.439 0 0 0 16.52-4.44c.593-.625 1.062-1.43 1.402-2.414.34-.98.512-2.165.512-3.555v-12.797h3.656v21.125c0 .781.082 1.473.254 2.082h-3.809c-.039-.234-.07-.496-.101-.785a4.66 4.66 0 0 1 0-.992l.05-1.778a8.128 8.128 0 0 1-3.03 3.024C14.175.195 12.776.555 11.25.559 10.059.555 8.988.348 8.04-.074c-.954-.422-1.813-1.074-2.575-1.957-.766-.88-1.344-1.996-1.73-3.352-.395-1.351-.59-2.976-.587-4.875Zm0 0"/></symbol><symbol overflow="visible" id="D"><path style="stroke:none" d="M1.93 0v-23.207H5.28v2.285a6.536 6.536 0 0 1 2.082-2.055c.844-.523 1.742-.789 2.692-.789.98 0 1.851.325 2.613.965a4.28 4.28 0 0 1 1.45 2.438c.437-1.012 1.132-1.832 2.081-2.461a5.504 5.504 0 0 1 3.098-.942c1.586 0 2.754.57 3.504 1.703.742 1.137 1.082 2.547 1.015 4.239V0h-3.351v-16.453c-.004-1.047-.055-1.875-.152-2.488-.106-.606-.274-1.07-.508-1.395-.239-.32-.477-.523-.711-.61-.239-.081-.543-.124-.914-.128-.442.004-.883.183-1.32.535-.446.36-.833.805-1.169 1.344a7.29 7.29 0 0 0-.812 1.855 6.867 6.867 0 0 0-.305 2.004V0h-3.402v-16.148c-.004-1.93-.184-3.215-.535-3.86-.36-.64-.977-.96-1.852-.965-.816.004-1.601.485-2.363 1.45-.762.964-1.145 2.312-1.14 4.035V0Zm0 0"/></symbol><symbol overflow="visible" id="E"><path style="stroke:none" d="M4.621-20.465c2.063-2.164 4.82-3.246 8.277-3.25 2.84.004 5.082.723 6.727 2.16 1.64 1.442 2.465 3.836 2.465 7.184V0h-3.453v-2.54C16.164-.472 13.387.556 10.309.56 9.086.555 7.996.37 7.03 0c-.965-.371-1.785-.86-2.46-1.473A6.17 6.17 0 0 1 3.02-3.555c-.36-.777-.536-1.554-.532-2.336-.004-2.332 1.004-4.18 3.02-5.535 2.015-1.351 4.918-2.094 8.71-2.234h4.368v-.871c0-2.317-.484-3.934-1.45-4.856-.964-.918-2.46-1.379-4.491-1.383-2.508.004-4.59.883-6.247 2.641Zm14.117 9.598h-.863c-.477.004-.926-.004-1.348-.024-.425-.015-.84-.023-1.242-.027-1.863.004-3.387.129-4.57.383-1.188.254-2.117.601-2.793 1.039-.68.441-1.149.941-1.399 1.5a4.185 4.185 0 0 0-.378 1.8c-.004 1.087.468 2.016 1.421 2.794.946.78 2.114 1.172 3.504 1.168 1.012.004 1.926-.157 2.742-.48.81-.321 1.52-.712 2.133-1.169.606-.457 1.098-.93 1.473-1.422.371-.488.64-.922.812-1.297.336-.675.508-1.59.508-2.742Zm0 0"/></symbol><symbol overflow="visible" id="F"><path style="stroke:none" d="m21.938-20.11-2.133 3.2c-.172-.031-.258-.164-.258-.406 0-.235-.035-.407-.102-.508-.617-.778-1.488-1.496-2.613-2.156-1.129-.66-2.41-.989-3.84-.993a7.72 7.72 0 0 0-1.87.23 6.06 6.06 0 0 0-1.587.634 3.213 3.213 0 0 0-1.101 1.043 2.543 2.543 0 0 0-.41 1.445c-.004.41.097.773.304 1.094.203.324.527.636.973.937.437.309 1.062.613 1.867.914.8.309 1.848.649 3.145 1.016 2.93.781 5 1.703 6.214 2.77 1.207 1.066 1.813 2.378 1.817 3.933a6.656 6.656 0 0 1-.66 2.894c-.442.918-1.086 1.711-1.93 2.387-.852.68-1.867 1.215-3.047 1.602-1.187.387-2.523.578-4.012.582-3.894-.004-7.16-1.219-9.8-3.656l2.082-3.657c.097.11.168.274.203.496.03.227.148.497.36.805.202.316.577.672 1.124 1.066.543.403 1.379.844 2.508 1.325.508.246 1.09.418 1.738.52.649.105 1.297.155 1.945.155.68 0 1.368-.082 2.07-.253a7.201 7.201 0 0 0 1.895-.743 4.337 4.337 0 0 0 1.356-1.175c.34-.457.508-.977.512-1.559-.004-.883-.41-1.633-1.227-2.246-.82-.613-2.32-1.242-4.5-1.895-1.5-.437-2.492-.746-2.969-.918-1.23-.476-2.117-.89-2.66-1.25a7.284 7.284 0 0 1-1.484-1.273 5.906 5.906 0 0 1-1.075-1.68 5.043 5.043 0 0 1-.406-2.066c-.004-.813.219-1.594.66-2.344.438-.746 1.055-1.406 1.852-1.988.797-.574 1.742-1.043 2.844-1.402 1.097-.356 2.293-.536 3.582-.536 3.55 0 6.43 1.22 8.633 3.657Zm0 0"/></symbol><symbol overflow="visible" id="L"><path style="stroke:none" d="m3.25.66 15.895-34.43 3.046 1.575L6.246 2.133Zm0 0"/></symbol><symbol overflow="visible" id="k"><path style="stroke:none" d="M10.605-16.75 7.055 0H2.37l8.512-40.281h8.816c8.192.004 12.285 3.367 12.29 10.086-.005 6.394-3.384 10.515-10.141 12.37L28.434 0h-5.125L17.55-16.75Zm4.051-19.426c-1.875 9.074-2.937 14.211-3.195 15.403h4.629c3.543.003 6.27-.778 8.18-2.34 1.91-1.559 2.863-3.801 2.867-6.727-.004-2.219-.621-3.828-1.86-4.832-1.242-1-3.257-1.504-6.047-1.504Zm0 0"/></symbol><symbol overflow="visible" id="l"><path style="stroke:none" d="M13.555.55c-3.383 0-6.035-1-7.965-3.003-1.93-2-2.895-4.774-2.89-8.32-.005-3.45.679-6.758 2.05-9.93 1.367-3.164 3.18-5.633 5.441-7.399 2.258-1.761 4.75-2.64 7.47-2.644 2.808.004 4.917.613 6.335 1.832 1.41 1.223 2.117 2.926 2.121 5.11-.004 3.308-1.527 5.902-4.574 7.784-3.05 1.883-7.414 2.825-13.086 2.825h-.906l-.114 2.203C7.434-8.586 8-6.707 9.133-5.355c1.129 1.351 2.879 2.027 5.25 2.023 1.152.004 2.34-.16 3.566-.496 1.219-.328 2.738-.938 4.559-1.82v4.023c-1.73.813-3.254 1.371-4.574 1.691-1.325.32-2.786.485-4.38.485Zm3.832-27.359c-1.899.004-3.676.868-5.336 2.59-1.664 1.73-2.934 4.125-3.813 7.192h.332c4.184 0 7.395-.543 9.63-1.637 2.23-1.09 3.343-2.676 3.347-4.754-.004-.973-.34-1.781-1.008-2.426-.672-.64-1.723-.96-3.152-.965Zm0 0"/></symbol><symbol overflow="visible" id="m"><path style="stroke:none" d="m19.176 0 4.078-19.066c.328-1.727.492-2.965.496-3.72-.004-1.284-.29-2.284-.855-3.003-.57-.711-1.543-1.07-2.918-1.074-1.547.004-3.047.554-4.508 1.652-1.461 1.106-2.746 2.68-3.856 4.727-1.113 2.047-1.972 4.515-2.578 7.398L6.254 0H1.625l6.45-30.195h3.827l-.605 5.59h.273c1.598-2.18 3.192-3.75 4.782-4.707 1.585-.954 3.226-1.43 4.918-1.434 2.074.004 3.671.601 4.793 1.793 1.12 1.195 1.78 2.855 1.984 4.984h.223c1.574-2.293 3.253-3.996 5.039-5.11 1.78-1.108 3.582-1.663 5.402-1.667 2.332.004 4.137.629 5.414 1.875 1.273 1.25 1.91 3.066 1.914 5.453-.004 1.25-.203 2.883-.605 4.902L41.464 0h-4.683l4.078-19.066c.364-1.907.547-3.247.551-4.024-.004-1.137-.32-2.05-.953-2.738-.637-.688-1.633-1.031-2.988-1.035-1.489.004-2.957.535-4.407 1.597-1.453 1.067-2.726 2.578-3.816 4.536-1.098 1.957-1.926 4.277-2.492 6.953L23.804 0Zm0 0"/></symbol><symbol overflow="visible" id="n"><path style="stroke:none" d="M17.715-30.582c3.484.004 6.242 1.035 8.265 3.102 2.02 2.066 3.028 4.91 3.032 8.523-.004 3.457-.664 6.715-1.985 9.781-1.324 3.07-3.117 5.442-5.375 7.11C19.391-.395 16.84.437 13.996.44 10.47.437 7.703-.598 5.703-2.672 3.695-4.746 2.695-7.582 2.7-11.187c-.004-3.485.668-6.77 2.012-9.848 1.34-3.078 3.148-5.438 5.426-7.082 2.277-1.64 4.8-2.461 7.578-2.465Zm6.504 10.992c-.004-2.11-.578-3.824-1.723-5.137-1.152-1.312-2.707-1.968-4.672-1.972-2 .004-3.797.683-5.387 2.039-1.59 1.363-2.82 3.25-3.69 5.664-.876 2.414-1.313 5.101-1.31 8.058-.003 2.41.583 4.27 1.75 5.579 1.165 1.316 2.84 1.972 5.028 1.968 1.91.004 3.625-.664 5.152-2.007 1.524-1.336 2.715-3.243 3.57-5.72.852-2.468 1.278-5.292 1.282-8.472Zm0 0"/></symbol><symbol overflow="visible" id="o"><path style="stroke:none" d="M10.883-3.223c1.008 0 2.332-.238 3.969-.718v3.554c-.63.258-1.403.477-2.317.66-.922.184-1.656.278-2.203.278-2.3 0-4.059-.543-5.277-1.637-1.223-1.09-1.832-2.723-1.832-4.894 0-1.207.164-2.586.496-4.133l3.5-16.586H2.48l.387-2.008 5.094-2.152 3.445-6.282h2.7l-1.516 6.946h7.55l-.714 3.496h-7.524L8.348-10.055c-.332 1.598-.496 2.813-.496 3.637 0 1.031.265 1.82.796 2.371.532.55 1.274.824 2.235.824Zm0 0"/></symbol><symbol overflow="visible" id="p"><path style="stroke:none" d="m1.516-12.922.964-4.351h13.196l-.938 4.351Zm0 0"/></symbol><symbol overflow="visible" id="q"><path style="stroke:none" d="M21.215-40.281c7.933.004 11.902 3.09 11.902 9.258 0 2.593-.8 4.78-2.398 6.558-1.598 1.785-3.848 2.942-6.75 3.469v.277c2.11.59 3.73 1.606 4.863 3.047 1.129 1.442 1.695 3.172 1.695 5.192 0 3.894-1.398 6.949-4.187 9.16C23.543-1.105 19.805 0 15.125 0H2.371l8.512-40.281Zm-9.258 17.25h6.832c2.863.004 5.148-.668 6.86-2.012 1.703-1.34 2.558-3.168 2.562-5.484-.004-1.91-.613-3.336-1.832-4.285-1.223-.942-3.149-1.415-5.77-1.418h-5.812ZM7.907-3.996h7.327c3.325 0 5.875-.738 7.66-2.215 1.778-1.476 2.669-3.566 2.672-6.27-.003-2.128-.687-3.757-2.054-4.89-1.371-1.129-3.34-1.695-5.907-1.695h-6.503Zm0 0"/></symbol><symbol overflow="visible" id="r"><path style="stroke:none" d="M20.719-30.746c1.265.004 2.367.129 3.304.383l-.992 4.133a12.531 12.531 0 0 0-2.89-.356c-1.676.004-3.243.555-4.7 1.652-1.46 1.106-2.734 2.633-3.828 4.586-1.093 1.957-1.898 4.13-2.41 6.516L6.253 0H1.626l6.45-30.195h3.827l-.605 5.59h.273c1.32-1.743 2.414-2.997 3.278-3.758.863-.762 1.765-1.348 2.714-1.762.946-.41 2-.617 3.157-.621Zm0 0"/></symbol><symbol overflow="visible" id="s"><path style="stroke:none" d="M17.605-30.746c1.688.004 3.196.457 4.52 1.363 1.32.91 2.348 2.219 3.086 3.926h.3l1.848-4.738h3.5L24.437 0h-3.664l.72-5.758h-.223C17.98-1.55 14.516.551 10.883.551c-2.555 0-4.555-.906-6.008-2.727-1.453-1.812-2.18-4.304-2.176-7.469-.004-3.82.649-7.363 1.957-10.632 1.301-3.27 3.102-5.832 5.399-7.688 2.297-1.851 4.812-2.777 7.55-2.781ZM12.371-3.277c1.777.004 3.55-.848 5.316-2.547 1.762-1.7 3.196-3.91 4.297-6.64 1.102-2.727 1.653-5.462 1.657-8.2-.004-1.887-.52-3.39-1.543-4.516-1.032-1.117-2.38-1.68-4.051-1.683-1.914.004-3.692.793-5.332 2.37-1.645 1.579-2.938 3.72-3.871 6.419-.942 2.703-1.41 5.55-1.406 8.543-.004 2.097.43 3.664 1.292 4.699.864 1.039 2.075 1.559 3.641 1.555Zm0 0"/></symbol><symbol overflow="visible" id="t"><path style="stroke:none" d="m20.086 0 4.078-19.066c.367-1.907.55-3.227.55-3.965 0-1.157-.327-2.086-.98-2.785-.652-.696-1.695-1.043-3.125-1.047-1.64.004-3.234.554-4.78 1.652-1.556 1.106-2.923 2.676-4.106 4.711-1.188 2.043-2.082 4.516-2.688 7.414L6.254 0H1.625l6.45-30.195h3.827l-.605 5.59h.273c1.762-2.235 3.465-3.82 5.11-4.75 1.644-.926 3.347-1.387 5.113-1.391 2.328.004 4.172.64 5.523 1.914 1.352 1.277 2.028 3.062 2.028 5.36 0 1.452-.215 3.105-.637 4.956L24.77 0Zm0 0"/></symbol><symbol overflow="visible" id="u"><path style="stroke:none" d="M13.941.55c-3.566 0-6.328-.98-8.293-2.945C3.68-4.359 2.695-7.133 2.7-10.719c-.004-3.668.676-7.058 2.04-10.164 1.355-3.101 3.234-5.52 5.632-7.258 2.399-1.734 5.094-2.601 8.09-2.605 2.512.004 4.973.469 7.383 1.402l-1.297 3.887c-2.207-.934-4.215-1.402-6.031-1.406-2.059.004-3.938.707-5.637 2.11-1.7 1.405-3.031 3.362-3.996 5.866-.965 2.512-1.45 5.235-1.445 8.168-.004 2.356.609 4.184 1.832 5.485 1.218 1.308 2.902 1.96 5.058 1.957 1.32.004 2.57-.18 3.746-.551a33.302 33.302 0 0 0 3.473-1.297v3.941C19.266-.027 16.73.551 13.94.551Zm0 0"/></symbol><symbol overflow="visible" id="v"><path style="stroke:none" d="m20.086 0 4.078-19.066c.328-1.727.492-2.965.496-3.72-.004-2.714-1.355-4.073-4.05-4.077-1.641.004-3.235.547-4.782 1.625-1.555 1.086-2.922 2.66-4.105 4.726-1.188 2.067-2.082 4.559-2.688 7.48L6.254 0H1.625l9.094-42.871h4.629a524.96 524.96 0 0 0-.953 4.383 931.268 931.268 0 0 1-.938 4.312c-.324 1.461-.672 2.989-1.047 4.586a188.85 188.85 0 0 1-1.308 5.207h.304c1.723-2.258 3.426-3.875 5.11-4.847 1.68-.973 3.437-1.461 5.277-1.461 2.402 0 4.262.664 5.578 1.984 1.313 1.324 1.973 3.195 1.973 5.617 0 1.145-.215 2.668-.637 4.574-.719 3.547-2.047 9.72-3.992 18.516Zm0 0"/></symbol><symbol overflow="visible" id="w"><path style="stroke:none" d="M20.25-8.57c0 2.87-1.016 5.11-3.047 6.71C15.172-.25 12.313.55 8.625.55 5.52.55 2.715-.081.219-1.351v-4.351a16.91 16.91 0 0 0 4.16 1.793c1.484.426 2.863.637 4.133.633 2.312.004 4.058-.457 5.234-1.38 1.176-.917 1.762-2.093 1.766-3.527-.004-1.043-.325-1.925-.965-2.644-.645-.715-2.031-1.695-4.16-2.95-2.39-1.335-4.082-2.648-5.07-3.937-.997-1.281-1.493-2.808-1.489-4.574-.004-2.531.926-4.574 2.781-6.129 1.856-1.55 4.297-2.324 7.332-2.328 3.137.004 6.168.683 9.09 2.039l-1.484 3.773-1.543-.687c-1.86-.79-3.883-1.184-6.063-1.188-1.71.004-3.05.403-4.023 1.2-.977.8-1.465 1.836-1.461 3.101-.004 1.031.324 1.91.977 2.645.652.734 1.996 1.68 4.039 2.836 1.96 1.101 3.37 2.05 4.23 2.84.852.792 1.492 1.64 1.914 2.546.422.91.633 1.934.633 3.07Zm0 0"/></symbol><symbol overflow="visible" id="x"><path style="stroke:none" d="M13.418 0H8.68l7.633-36.121H5.124l.91-4.16h27.137l-.828 4.16H21.105Zm0 0"/></symbol><symbol overflow="visible" id="y"><path style="stroke:none" d="m9.094-15.402 14.492-14.793h5.535L16.2-17.328 24.33 0h-5.153l-6.473-14.438-4.191 3.391L6.254 0H1.57l9.094-42.871h4.684c-1.328 6.176-2.512 11.703-3.555 16.586-1.05 4.887-1.988 8.515-2.813 10.883Zm0 0"/></symbol><symbol overflow="visible" id="z"><path style="stroke:none" d="M6.254 0H1.625l6.45-30.195h4.628Zm3.113-37.91c-.004-1.028.29-1.867.883-2.52.586-.652 1.348-.976 2.285-.98 1.613.004 2.422.828 2.426 2.48-.004 1.012-.313 1.867-.926 2.563-.617.699-1.328 1.047-2.133 1.047-.738 0-1.343-.223-1.82-.676-.48-.445-.719-1.086-.715-1.914Zm0 0"/></symbol><symbol overflow="visible" id="A"><path style="stroke:none" d="m30.309-30.195-.692 2.945-5.812.664c.75 1.14 1.125 2.59 1.129 4.352-.004 3.511-1.075 6.308-3.211 8.39-2.141 2.086-5 3.13-8.582 3.125-1.012.004-1.782-.07-2.313-.219C8.273-9.96 6.996-8.758 7-7.328c-.004.754.297 1.254.906 1.5.602.25 1.485.45 2.645.594l3.226.386c3.32.407 5.73 1.215 7.23 2.426C22.5-1.207 23.25.57 23.255 2.922c-.004 3.375-1.344 5.992-4.024 7.848-2.683 1.855-6.46 2.78-11.324 2.785-3.566-.004-6.355-.68-8.375-2.028-2.02-1.351-3.027-3.254-3.031-5.714.004-1.93.664-3.602 1.984-5.016C-.19-.617 1.945-1.816 4.902-2.81c-1.433-.75-2.148-1.863-2.148-3.336 0-1.265.469-2.355 1.406-3.265.938-.906 2.242-1.754 3.914-2.547-1.16-.586-2.11-1.453-2.84-2.602-.738-1.144-1.105-2.48-1.101-4.011-.004-3.559 1.094-6.48 3.293-8.758 2.191-2.277 5-3.414 8.418-3.418 1.43.004 2.844.187 4.242.55ZM.965 5.37c-.004 1.41.594 2.531 1.789 3.36 1.195.828 2.969 1.242 5.32 1.242 3.34 0 5.95-.586 7.836-1.75 1.88-1.168 2.82-2.817 2.824-4.946-.004-1.14-.5-2.039-1.488-2.699C16.25-.082 14.563-.539 12.18-.8l-4.383-.437C5.59-.778 3.898.027 2.727 1.184 1.547 2.34.96 3.734.965 5.37Zm7.66-24.105c0 1.562.41 2.75 1.238 3.566.82.82 1.969 1.23 3.446 1.227 1.445.004 2.714-.383 3.8-1.157 1.082-.77 1.91-1.828 2.493-3.18.578-1.347.87-2.816.87-4.398 0-1.504-.406-2.648-1.214-3.441-.809-.79-1.965-1.188-3.473-1.188-1.433 0-2.687.375-3.762 1.117-1.074.75-1.91 1.786-2.503 3.114-.598 1.332-.895 2.781-.895 4.34Zm0 0"/></symbol><symbol overflow="visible" id="G"><path style="stroke:none" d="M3.328-35.21h21.555v3.5H7.055v11.565H21.78v3.727H7.055V-3.5h17.66V0H3.328Zm0 0"/></symbol><symbol overflow="visible" id="H"><path style="stroke:none" d="M22.457-27.188c-.004-.44-.059-.769-.168-.992a8.673 8.673 0 0 0-2.937-2.906c-1.207-.715-2.485-1.074-3.836-1.078a7.088 7.088 0 0 0-3.61.988c-1.129.66-2.129 1.621-2.992 2.88-.867 1.265-1.543 2.796-2.031 4.597-.488 1.808-.73 3.86-.73 6.152 0 2.223.242 4.246.73 6.067.488 1.828 1.176 3.386 2.058 4.683.883 1.297 1.918 2.305 3.106 3.02a7.239 7.239 0 0 0 3.808 1.07c1.391 0 2.735-.395 4.036-1.188 1.293-.789 2.336-1.859 3.132-3.214l2.934 1.918a10.945 10.945 0 0 1-2.035 2.484A13.528 13.528 0 0 1 21.41-.902c-.883.492-1.765.855-2.648 1.097-.883.242-1.778.367-2.68.367-2.035 0-3.832-.347-5.39-1.042-1.563-.696-2.993-1.774-4.29-3.243-1.3-1.465-2.308-3.328-3.02-5.586-.718-2.254-1.073-4.945-1.07-8.07-.003-3.46.41-6.348 1.243-8.66.824-2.313 1.914-4.164 3.273-5.559 1.352-1.39 2.793-2.379 4.317-2.96 1.523-.583 3-.872 4.43-.876 1.163.004 2.3.172 3.413.508 1.106.34 2.14.809 3.102 1.41.96.602 1.816 1.328 2.566 2.172.75.852 1.352 1.801 1.809 2.848l-3.781 1.863c-.157-.105-.23-.293-.227-.555Zm0 0"/></symbol><symbol overflow="visible" id="I"><path style="stroke:none" d="M2.707-35.152h9.988c2.028.004 3.785.199 5.274.593 1.484.395 2.68.989 3.586 1.774.902.789 1.597 1.7 2.086 2.73.488 1.035.734 2.168.734 3.407 0 1.652-.453 3.21-1.355 4.675-.903 1.465-2.18 2.5-3.836 3.098a9.748 9.748 0 0 1 2.68 1.441 11.68 11.68 0 0 1 2.116 2.118 8.884 8.884 0 0 1 1.352 2.574c.297.926.45 1.875.453 2.851-.004 2.977-1.058 5.371-3.16 7.18C20.515-.902 17.187 0 12.641 0H2.707Zm3.895 3.273v11.285h5.484c1.566.004 2.855-.136 3.863-.426 1.008-.28 1.817-.671 2.434-1.164a4.661 4.661 0 0 0 1.37-1.785 7.47 7.47 0 0 0 .56-2.242 7.668 7.668 0 0 0-.532-2.21c-.281-.677-.722-1.27-1.316-1.786-.602-.508-1.363-.914-2.293-1.219-.934-.297-2.09-.449-3.469-.453Zm0 14.555v13.883h6.765c3.028.003 5.14-.63 6.336-1.899 1.192-1.262 1.863-2.86 2.02-4.789-.078-1.055-.285-2.016-.625-2.887a6.33 6.33 0 0 0-1.563-2.293c-.703-.66-1.652-1.16-2.844-1.504-1.195-.335-2.625-.507-4.289-.511Zm0 0"/></symbol><symbol overflow="visible" id="J"><path style="stroke:none" d="m.875 0 12.414-35.773h.45L27.28 0H23.22l-3.895-10.27H8.152L4.77 0Zm17.547-13.316-4.965-13.43-4.512 13.43Zm0 0"/></symbol><symbol overflow="visible" id="K"><path style="stroke:none" d="M3.047-35.152h8.183c3.004.004 5.344.418 7.024 1.242 1.672.828 3.094 2.012 4.258 3.555 1.164 1.543 2.027 3.406 2.597 5.585.563 2.184.848 4.645.848 7.391 0 2.711-.34 5.14-1.016 7.281-.68 2.149-1.609 3.98-2.793 5.5-1.187 1.528-2.722 2.684-4.601 3.47C15.664-.34 13.332.05 10.55.054H3.047ZM6.77-31.88v28.832h3.585c3.993 0 6.915-1.215 8.766-3.644 1.844-2.43 2.77-5.926 2.774-10.489-.043-4.597-.895-8.195-2.551-10.797-1.664-2.597-4.453-3.898-8.371-3.902Zm0 0"/></symbol></defs><path style="fill-rule:nonzero;fill:#fff;fill-opacity:1;stroke-width:0;stroke-linecap:butt;stroke-linejoin:miter;stroke:#000;stroke-opacity:1;stroke-miterlimit:10" d="M0 0h117v56H0Zm0 0" transform="scale(20)"/><path style="fill-rule:evenodd;fill:#fefad8;fill-opacity:1;stroke-width:.1;stroke-linecap:butt;stroke-linejoin:round;stroke:#000;stroke-opacity:1;stroke-miterlimit:10" d="M2.3 8h39.4a.3.3 0 0 1 .3.3v45.4a.3.3 0 0 1-.3.3H2.3a.3.3 0 0 1-.3-.3V8.3a.3.3 0 0 1 .3-.3" transform="scale(20)"/><path style="fill:none;stroke-width:.35;stroke-linecap:butt;stroke-linejoin:round;stroke:#000;stroke-opacity:1;stroke-miterlimit:10" d="M22 42v3.234" transform="scale(20)"/><path style="fill-rule:evenodd;fill:#000;fill-opacity:1;stroke-width:.35;stroke-linecap:butt;stroke-linejoin:miter;stroke:#000;stroke-opacity:1;stroke-miterlimit:10" d="m22 45.609-.25-.5.25.125.25-.125-.25.5Zm0 0" transform="scale(20)"/><path style="fill:none;stroke-width:.35;stroke-linecap:butt;stroke-linejoin:miter;stroke:#000;stroke-opacity:1;stroke-miterlimit:10" d="M22 32v3.234" transform="scale(20)"/><path style="fill-rule:evenodd;fill:#000;fill-opacity:1;stroke-width:.35;stroke-linecap:butt;stroke-linejoin:miter;stroke:#000;stroke-opacity:1;stroke-miterlimit:10" d="m22 35.609-.25-.5.25.125.25-.125-.25.5Zm0 0" transform="scale(20)"/><g style="fill:#000;fill-opacity:1"><use xlink:href="#a" x="383.828" y="217"/><use xlink:href="#b" x="409.219" y="217"/><use xlink:href="#c" x="434.609" y="217"/><use xlink:href="#d" x="460" y="217"/><use xlink:href="#c" x="485.391" y="217"/><use xlink:href="#e" x="510.781" y="217"/></g><path style="fill:none;stroke-width:.35;stroke-linecap:butt;stroke-linejoin:miter;stroke:#000;stroke-opacity:1;stroke-miterlimit:10" d="m35 42-7.475 7.942" transform="scale(20)"/><path style="fill-rule:evenodd;fill:#000;fill-opacity:1;stroke-width:.35;stroke-linecap:butt;stroke-linejoin:miter;stroke:#000;stroke-opacity:1;stroke-miterlimit:10" d="m27.268 50.215.16-.535.097.262.268.08-.525.193Zm0 0" transform="scale(20)"/><path style="fill:none;stroke-width:.35;stroke-linecap:butt;stroke-linejoin:miter;stroke:#000;stroke-opacity:1;stroke-miterlimit:10" d="m9 22 7.423 6.495" transform="scale(20)"/><path style="fill-rule:evenodd;fill:#000;fill-opacity:1;stroke-width:.35;stroke-linecap:butt;stroke-linejoin:miter;stroke:#000;stroke-opacity:1;stroke-miterlimit:10" d="m16.705 28.742-.54-.14.258-.107.07-.27.212.517Zm0 0" transform="scale(20)"/><path style="fill-rule:evenodd;fill:#fefad8;fill-opacity:1;stroke-width:.1;stroke-linecap:butt;stroke-linejoin:round;stroke:#000;stroke-opacity:1;stroke-miterlimit:10" d="M65.847 8H114.7a.3.3 0 0 1 .3.3v45.4a.3.3 0 0 1-.3.3H65.847a.3.3 0 0 1-.3-.3V8.3a.3.3 0 0 1 .3-.3" transform="scale(20)"/><g style="fill:#000;fill-opacity:1"><use xlink:href="#f" x="1707.473" y="217"/><use xlink:href="#g" x="1732.863" y="217"/><use xlink:href="#a" x="1758.254" y="217"/><use xlink:href="#e" x="1783.645" y="217"/><use xlink:href="#h" x="1809.035" y="217"/></g><path style="fill:none;stroke-width:.8;stroke-linecap:butt;stroke-linejoin:round;stroke:#000;stroke-opacity:1;stroke-miterlimit:10" d="M44 31h17.7" transform="scale(20)"/><path style="fill-rule:evenodd;fill:#000;fill-opacity:1;stroke-width:.8;stroke-linecap:butt;stroke-linejoin:miter;stroke:#000;stroke-opacity:1;stroke-miterlimit:10" d="m61.7 31.45.9-.45-.9-.45v.9Zm0 0" transform="scale(20)"/><g style="fill:#000;fill-opacity:1"><use xlink:href="#d" x="960.688" y="697"/><use xlink:href="#c" x="986.078" y="697"/><use xlink:href="#i" x="1011.469" y="697"/><use xlink:href="#j" x="1036.859" y="697"/><use xlink:href="#f" x="1062.25" y="697"/><use xlink:href="#g" x="1087.641" y="697"/><use xlink:href="#a" x="1113.031" y="697"/><use xlink:href="#e" x="1138.422" y="697"/><use xlink:href="#h" x="1163.813" y="697"/></g><g style="fill:#000;fill-opacity:1"><use xlink:href="#k" x="40" y="80"/><use xlink:href="#l" x="72.09" y="80"/><use xlink:href="#m" x="99.922" y="80"/><use xlink:href="#n" x="149.121" y="80"/><use xlink:href="#o" x="180.781" y="80"/><use xlink:href="#l" x="199.082" y="80"/><use xlink:href="#p" x="226.914" y="80"/><use xlink:href="#q" x="244.512" y="80"/><use xlink:href="#r" x="278.262" y="80"/><use xlink:href="#s" x="300.605" y="80"/><use xlink:href="#t" x="332.48" y="80"/><use xlink:href="#u" x="365.039" y="80"/><use xlink:href="#v" x="390.449" y="80"/><use xlink:href="#l" x="423.008" y="80"/><use xlink:href="#w" x="450.84" y="80"/></g><path style="fill:none;stroke-width:.35;stroke-linecap:butt;stroke-linejoin:miter;stroke:#000;stroke-opacity:1;stroke-miterlimit:10" d="M9 11.234V5" transform="scale(20)"/><path style="fill-rule:evenodd;fill:#000;fill-opacity:1;stroke-width:.35;stroke-linecap:butt;stroke-linejoin:miter;stroke:#000;stroke-opacity:1;stroke-miterlimit:10" d="m9 11.609-.25-.5.25.125.25-.125-.25.5Zm0 0" transform="scale(20)"/><path style="fill:none;stroke-width:.35;stroke-linecap:butt;stroke-linejoin:miter;stroke:#000;stroke-opacity:1;stroke-miterlimit:10" d="M21.535 21.391 9 5" transform="scale(20)"/><path style="fill-rule:evenodd;fill:#000;fill-opacity:1;stroke-width:.35;stroke-linecap:butt;stroke-linejoin:miter;stroke:#000;stroke-opacity:1;stroke-miterlimit:10" d="m21.762 21.69-.502-.246.275-.053.122-.251.105.55Zm0 0" transform="scale(20)"/><g style="fill:#000;fill-opacity:1"><use xlink:href="#k" x="1636.992" y="80"/><use xlink:href="#l" x="1669.082" y="80"/><use xlink:href="#m" x="1696.914" y="80"/><use xlink:href="#n" x="1746.113" y="80"/><use xlink:href="#o" x="1777.773" y="80"/><use xlink:href="#l" x="1796.074" y="80"/><use xlink:href="#p" x="1823.906" y="80"/><use xlink:href="#x" x="1841.504" y="80"/><use xlink:href="#r" x="1869.609" y="80"/><use xlink:href="#s" x="1891.953" y="80"/><use xlink:href="#u" x="1923.828" y="80"/><use xlink:href="#y" x="1949.238" y="80"/><use xlink:href="#z" x="1976.758" y="80"/><use xlink:href="#t" x="1991.094" y="80"/><use xlink:href="#A" x="2023.652" y="80"/><use xlink:href="#p" x="2051.914" y="80"/><use xlink:href="#q" x="2069.512" y="80"/><use xlink:href="#r" x="2103.262" y="80"/><use xlink:href="#s" x="2125.605" y="80"/><use xlink:href="#t" x="2157.48" y="80"/><use xlink:href="#u" x="2190.039" y="80"/><use xlink:href="#v" x="2215.449" y="80"/><use xlink:href="#l" x="2248.008" y="80"/><use xlink:href="#w" x="2275.84" y="80"/></g><path style="fill:none;stroke-width:.35;stroke-linecap:butt;stroke-linejoin:miter;stroke:#000;stroke-opacity:1;stroke-miterlimit:10" d="M104.124 31.234 104.381 5" transform="scale(20)"/><path style="fill-rule:evenodd;fill:#000;fill-opacity:1;stroke-width:.35;stroke-linecap:butt;stroke-linejoin:miter;stroke:#000;stroke-opacity:1;stroke-miterlimit:10" d="m104.12 31.609-.244-.503.248.128.252-.123-.255.498Zm0 0" transform="scale(20)"/><path style="fill:none;stroke-width:.35;stroke-linecap:butt;stroke-linejoin:miter;stroke:#000;stroke-opacity:1;stroke-miterlimit:10" d="M98.785 22.09 104.381 5" transform="scale(20)"/><path style="fill-rule:evenodd;fill:#000;fill-opacity:1;stroke-width:.35;stroke-linecap:butt;stroke-linejoin:miter;stroke:#000;stroke-opacity:1;stroke-miterlimit:10" d="m98.669 22.447-.082-.553.198.197.277-.041-.393.397Zm0 0" transform="scale(20)"/><path style="stroke:none;fill-rule:evenodd;fill:#a9e5a1;fill-opacity:1" d="M90 240h180v65.5H90ZM90 250v-10c-5.523 0-10 4.477-10 10h10ZM270 250h10c0-5.523-4.477-10-10-10v10Zm0 0"/><path style="stroke:none;fill-rule:evenodd;fill:#a9e5a1;fill-opacity:1" d="M80 250h200v45.5H80ZM90 295.5H80c0 5.523 4.477 10 10 10v-10ZM270 295.5v10c5.523 0 10-4.477 10-10h-10Zm0 0"/><path style="fill:none;stroke-width:.1;stroke-linecap:butt;stroke-linejoin:miter;stroke:#000;stroke-opacity:1;stroke-miterlimit:10" d="M4.5 12h9M4.5 15.275h9M4.5 12a.5.5 0 0 0-.5.5M14 12.5a.5.5 0 0 0-.5-.5M4 12.5v2.275M14 12.5v2.275M4 14.775a.5.5 0 0 0 .5.5M13.5 15.275a.5.5 0 0 0 .5-.5" transform="scale(20)"/><g style="fill:#000;fill-opacity:1"><use xlink:href="#B" x="154.609" y="284.648"/><use xlink:href="#C" x="180" y="284.648"/></g><path style="stroke:none;fill-rule:evenodd;fill:#a9e5a1;fill-opacity:1" d="M350 440h180v65.5H350ZM350 450v-10c-5.523 0-10 4.477-10 10h10ZM530 450h10c0-5.523-4.477-10-10-10v10Zm0 0"/><path style="stroke:none;fill-rule:evenodd;fill:#a9e5a1;fill-opacity:1" d="M340 450h200v45.5H340ZM350 495.5h-10c0 5.523 4.477 10 10 10v-10ZM530 495.5v10c5.523 0 10-4.477 10-10h-10Zm0 0"/><path style="fill:none;stroke-width:.1;stroke-linecap:butt;stroke-linejoin:miter;stroke:#000;stroke-opacity:1;stroke-miterlimit:10" d="M17.5 22h9M17.5 25.275h9M17.5 22a.5.5 0 0 0-.5.5M27 22.5a.5.5 0 0 0-.5-.5M17 22.5v2.275M27 22.5v2.275M17 24.775a.5.5 0 0 0 .5.5M26.5 25.275a.5.5 0 0 0 .5-.5" transform="scale(20)"/><g style="fill:#000;fill-opacity:1"><use xlink:href="#D" x="363.828" y="484.648"/><use xlink:href="#E" x="389.219" y="484.648"/><use xlink:href="#F" x="414.609" y="484.648"/><use xlink:href="#i" x="440" y="484.648"/><use xlink:href="#h" x="465.391" y="484.648"/><use xlink:href="#b" x="490.781" y="484.648"/></g><path style="stroke:none;fill-rule:evenodd;fill:#a1bbe5;fill-opacity:1" d="M90 320h180v120H90ZM90 330v-10c-5.523 0-10 4.477-10 10h10ZM270 330h10c0-5.523-4.477-10-10-10v10Zm0 0"/><path style="stroke:none;fill-rule:evenodd;fill:#a1bbe5;fill-opacity:1" d="M80 330h200v100H80ZM90 430H80c0 5.523 4.477 10 10 10v-10ZM270 430v10c5.523 0 10-4.477 10-10h-10Zm0 0"/><path style="fill:none;stroke-width:.1;stroke-linecap:butt;stroke-linejoin:miter;stroke:#000;stroke-opacity:1;stroke-miterlimit:10" d="M4.5 16h9M4.5 22h9M4.5 16a.5.5 0 0 0-.5.5M14 16.5a.5.5 0 0 0-.5-.5M4 16.5v5M14 16.5v5M4 21.5a.5.5 0 0 0 .5.5M13.5 22a.5.5 0 0 0 .5-.5" transform="scale(20)"/><use xlink:href="#G" x="165.898" y="393.223" style="fill:#000;fill-opacity:1"/><path style="stroke:none;fill-rule:evenodd;fill:#dedede;fill-opacity:1" d="M350 520h180v120H350ZM350 530v-10c-5.523 0-10 4.477-10 10h10ZM530 530h10c0-5.523-4.477-10-10-10v10Zm0 0"/><path style="stroke:none;fill-rule:evenodd;fill:#dedede;fill-opacity:1" d="M340 530h200v100H340ZM350 630h-10c0 5.523 4.477 10 10 10v-10ZM530 630v10c5.523 0 10-4.477 10-10h-10Zm0 0"/><path style="fill:none;stroke-width:.1;stroke-linecap:butt;stroke-linejoin:miter;stroke:#000;stroke-opacity:1;stroke-miterlimit:10" d="M17.5 26h9M17.5 32h9M17.5 26a.5.5 0 0 0-.5.5M27 26.5a.5.5 0 0 0-.5-.5M17 26.5v5M27 26.5v5M17 31.5a.5.5 0 0 0 .5.5M26.5 32a.5.5 0 0 0 .5-.5" transform="scale(20)"/><use xlink:href="#H" x="425.898" y="593.223" style="fill:#000;fill-opacity:1"/><path style="stroke:none;fill-rule:evenodd;fill:#dedede;fill-opacity:1" d="M350 720h180v120H350ZM350 730v-10c-5.523 0-10 4.477-10 10h10ZM530 730h10c0-5.523-4.477-10-10-10v10Zm0 0"/><path style="stroke:none;fill-rule:evenodd;fill:#dedede;fill-opacity:1" d="M340 730h200v100H340ZM350 830h-10c0 5.523 4.477 10 10 10v-10ZM530 830v10c5.523 0 10-4.477 10-10h-10Zm0 0"/><path style="fill:none;stroke-width:.1;stroke-linecap:butt;stroke-linejoin:miter;stroke:#000;stroke-opacity:1;stroke-miterlimit:10" d="M17.5 36h9M17.5 42h9M17.5 36a.5.5 0 0 0-.5.5M27 36.5a.5.5 0 0 0-.5-.5M17 36.5v5M27 36.5v5M17 41.5a.5.5 0 0 0 .5.5M26.5 42a.5.5 0 0 0 .5-.5" transform="scale(20)"/><use xlink:href="#I" x="425.898" y="793.223" style="fill:#000;fill-opacity:1"/><path style="stroke:none;fill-rule:evenodd;fill:#dedede;fill-opacity:1" d="M350 920h180v120H350ZM350 930v-10c-5.523 0-10 4.477-10 10h10ZM530 930h10c0-5.523-4.477-10-10-10v10Zm0 0"/><path style="stroke:none;fill-rule:evenodd;fill:#dedede;fill-opacity:1" d="M340 930h200v100H340ZM350 1030h-10c0 5.523 4.477 10 10 10v-10ZM530 1030v10c5.523 0 10-4.477 10-10h-10Zm0 0"/><path style="fill:none;stroke-width:.1;stroke-linecap:butt;stroke-linejoin:miter;stroke:#000;stroke-opacity:1;stroke-miterlimit:10" d="M17.5 46h9M17.5 52h9M17.5 46a.5.5 0 0 0-.5.5M27 46.5a.5.5 0 0 0-.5-.5M17 46.5v5M27 46.5v5M17 51.5a.5.5 0 0 0 .5.5M26.5 52a.5.5 0 0 0 .5-.5" transform="scale(20)"/><use xlink:href="#J" x="425.898" y="993.223" style="fill:#000;fill-opacity:1"/><path style="stroke:none;fill-rule:evenodd;fill:#e9a4de;fill-opacity:1" d="M610 720h180v120H610ZM610 730v-10c-5.523 0-10 4.477-10 10h10ZM790 730h10c0-5.523-4.477-10-10-10v10Zm0 0"/><path style="stroke:none;fill-rule:evenodd;fill:#e9a4de;fill-opacity:1" d="M600 730h200v100H600ZM610 830h-10c0 5.523 4.477 10 10 10v-10ZM790 830v10c5.523 0 10-4.477 10-10h-10Zm0 0"/><path style="fill:none;stroke-width:.1;stroke-linecap:butt;stroke-linejoin:miter;stroke:#000;stroke-opacity:1;stroke-miterlimit:10" d="M30.5 36h9M30.5 42h9M30.5 36a.5.5 0 0 0-.5.5M40 36.5a.5.5 0 0 0-.5-.5M30 36.5v5M40 36.5v5M30 41.5a.5.5 0 0 0 .5.5M39.5 42a.5.5 0 0 0 .5-.5" transform="scale(20)"/><use xlink:href="#K" x="685.898" y="793.223" style="fill:#000;fill-opacity:1"/><path style="stroke:none;fill-rule:evenodd;fill:#a9e5a1;fill-opacity:1" d="M610 640h180v65.5H610ZM610 650v-10c-5.523 0-10 4.477-10 10h10ZM790 650h10c0-5.523-4.477-10-10-10v10Zm0 0"/><path style="stroke:none;fill-rule:evenodd;fill:#a9e5a1;fill-opacity:1" d="M600 650h200v45.5H600ZM610 695.5h-10c0 5.523 4.477 10 10 10v-10ZM790 695.5v10c5.523 0 10-4.477 10-10h-10Zm0 0"/><path style="fill:none;stroke-width:.1;stroke-linecap:butt;stroke-linejoin:miter;stroke:#000;stroke-opacity:1;stroke-miterlimit:10" d="M30.5 32h9M30.5 35.275h9M30.5 32a.5.5 0 0 0-.5.5M40 32.5a.5.5 0 0 0-.5-.5M30 32.5v2.275M40 32.5v2.275M30 34.775a.5.5 0 0 0 .5.5M39.5 35.275a.5.5 0 0 0 .5-.5" transform="scale(20)"/><g style="fill:#000;fill-opacity:1"><use xlink:href="#D" x="636.523" y="684.648"/><use xlink:href="#E" x="661.914" y="684.648"/><use xlink:href="#c" x="687.305" y="684.648"/><use xlink:href="#e" x="712.695" y="684.648"/><use xlink:href="#i" x="738.086" y="684.648"/></g><path style="fill:none;stroke-width:.35;stroke-linecap:butt;stroke-linejoin:miter;stroke:#000;stroke-opacity:1;stroke-miterlimit:10" d="M89.07 42v3.234" transform="scale(20)"/><path style="fill-rule:evenodd;fill:#000;fill-opacity:1;stroke-width:.35;stroke-linecap:butt;stroke-linejoin:miter;stroke:#000;stroke-opacity:1;stroke-miterlimit:10" d="m89.07 45.609-.25-.5.25.125.25-.125-.25.5Zm0 0" transform="scale(20)"/><path style="fill:none;stroke-width:.35;stroke-linecap:butt;stroke-linejoin:miter;stroke:#000;stroke-opacity:1;stroke-miterlimit:10" d="M89.07 32v3.234" transform="scale(20)"/><path style="fill-rule:evenodd;fill:#000;fill-opacity:1;stroke-width:.35;stroke-linecap:butt;stroke-linejoin:miter;stroke:#000;stroke-opacity:1;stroke-miterlimit:10" d="m89.07 35.609-.25-.5.25.125.25-.125-.25.5Zm0 0" transform="scale(20)"/><path style="fill:none;stroke-width:.35;stroke-linecap:butt;stroke-linejoin:miter;stroke:#000;stroke-opacity:1;stroke-miterlimit:10" d="m103.904 42-9.254 7.999" transform="scale(20)"/><path style="fill-rule:evenodd;fill:#000;fill-opacity:1;stroke-width:.35;stroke-linecap:butt;stroke-linejoin:miter;stroke:#000;stroke-opacity:1;stroke-miterlimit:10" d="m94.366 50.244.215-.516.069.27.258.108-.542.138Zm0 0" transform="scale(20)"/><path style="fill:none;stroke-width:.35;stroke-linecap:butt;stroke-linejoin:miter;stroke:#000;stroke-opacity:1;stroke-miterlimit:10" d="m74.388 22 9.061 6.551" transform="scale(20)"/><path style="fill-rule:evenodd;fill:#000;fill-opacity:1;stroke-width:.35;stroke-linecap:butt;stroke-linejoin:miter;stroke:#000;stroke-opacity:1;stroke-miterlimit:10" d="m83.753 28.77-.552-.09.248-.129.045-.276.26.496Zm0 0" transform="scale(20)"/><path style="stroke:none;fill-rule:evenodd;fill:#a9e5a1;fill-opacity:1" d="M1357.77 240h263.039v65.5h-263.04Zm0 0"/><path style="stroke:none;fill-rule:evenodd;fill:#a9e5a1;fill-opacity:1" d="M1357.77 250v-10c-5.524 0-10 4.477-10 10h10ZM1620.809 250h10c0-5.523-4.477-10-10-10v10ZM1347.77 250h283.039v45.5h-283.04ZM1357.77 295.5h-10c0 5.523 4.476 10 10 10v-10ZM1620.809 295.5v10c5.523 0 10-4.477 10-10h-10Zm0 0"/><path style="fill:none;stroke-width:.1;stroke-linecap:butt;stroke-linejoin:miter;stroke:#000;stroke-opacity:1;stroke-miterlimit:10" d="M67.888 12H81.04M67.888 15.275H81.04M67.888 12a.5.5 0 0 0-.5.5M81.54 12.5a.5.5 0 0 0-.5-.5M67.388 12.5v2.275M81.54 12.5v2.275M67.388 14.775a.5.5 0 0 0 .5.5M81.04 15.275a.5.5 0 0 0 .5-.5" transform="scale(20)"/><g style="fill:#000;fill-opacity:1"><use xlink:href="#a" x="1375.031" y="284.648"/><use xlink:href="#b" x="1400.422" y="284.648"/><use xlink:href="#c" x="1425.813" y="284.648"/><use xlink:href="#d" x="1451.203" y="284.648"/><use xlink:href="#c" x="1476.594" y="284.648"/><use xlink:href="#e" x="1501.984" y="284.648"/><use xlink:href="#L" x="1527.375" y="284.648"/><use xlink:href="#B" x="1552.766" y="284.648"/><use xlink:href="#C" x="1578.156" y="284.648"/></g><path style="stroke:none;fill-rule:evenodd;fill:#a9e5a1;fill-opacity:1" d="M1614.586 440h346.351v65.5h-346.351Zm0 0"/><path style="stroke:none;fill-rule:evenodd;fill:#a9e5a1;fill-opacity:1" d="M1614.586 450v-10c-5.524 0-10 4.477-10 10h10ZM1960.938 450h10c0-5.523-4.477-10-10-10v10ZM1604.586 450h366.351v45.5h-366.351ZM1614.586 495.5h-10c0 5.523 4.476 10 10 10v-10ZM1960.938 495.5v10c5.523 0 10-4.477 10-10h-10Zm0 0"/><path style="fill:none;stroke-width:.1;stroke-linecap:butt;stroke-linejoin:miter;stroke:#000;stroke-opacity:1;stroke-miterlimit:10" d="M80.73 22h17.317M80.73 25.275h17.317M80.73 22a.5.5 0 0 0-.5.5M98.547 22.5a.5.5 0 0 0-.5-.5M80.23 22.5v2.275M98.547 22.5v2.275M80.23 24.775a.5.5 0 0 0 .5.5M98.047 25.275a.5.5 0 0 0 .5-.5" transform="scale(20)"/><g style="fill:#000;fill-opacity:1"><use xlink:href="#a" x="1622.723" y="484.648"/><use xlink:href="#b" x="1648.113" y="484.648"/><use xlink:href="#c" x="1673.504" y="484.648"/><use xlink:href="#d" x="1698.895" y="484.648"/><use xlink:href="#c" x="1724.285" y="484.648"/><use xlink:href="#e" x="1749.676" y="484.648"/><use xlink:href="#L" x="1775.066" y="484.648"/><use xlink:href="#D" x="1800.457" y="484.648"/><use xlink:href="#E" x="1825.848" y="484.648"/><use xlink:href="#F" x="1851.238" y="484.648"/><use xlink:href="#i" x="1876.629" y="484.648"/><use xlink:href="#h" x="1902.02" y="484.648"/><use xlink:href="#b" x="1927.41" y="484.648"/></g><path style="stroke:none;fill-rule:evenodd;fill:#a1bbe5;fill-opacity:1" d="M1397.77 320h180v120h-180ZM1397.77 330v-10c-5.524 0-10 4.477-10 10h10ZM1577.77 330h10c0-5.523-4.48-10-10-10v10Zm0 0"/><path style="stroke:none;fill-rule:evenodd;fill:#a1bbe5;fill-opacity:1" d="M1387.77 330h200v100h-200ZM1397.77 430h-10c0 5.523 4.476 10 10 10v-10ZM1577.77 430v10c5.52 0 10-4.477 10-10h-10Zm0 0"/><path style="fill:none;stroke-width:.1;stroke-linecap:butt;stroke-linejoin:miter;stroke:#000;stroke-opacity:1;stroke-miterlimit:10" d="M69.888 16h9M69.888 22h9M69.888 16a.5.5 0 0 0-.5.5M79.388 16.5a.5.5 0 0 0-.5-.5M69.388 16.5v5M79.388 16.5v5M69.388 21.5a.5.5 0 0 0 .5.5M78.888 22a.5.5 0 0 0 .5-.5" transform="scale(20)"/><use xlink:href="#G" x="1473.668" y="393.223" style="fill:#000;fill-opacity:1"/><path style="stroke:none;fill-rule:evenodd;fill:#dedede;fill-opacity:1" d="M1691.402 520h180v120h-180ZM1691.402 530v-10c-5.52 0-10 4.477-10 10h10ZM1871.402 530h10c0-5.523-4.476-10-10-10v10Zm0 0"/><path style="stroke:none;fill-rule:evenodd;fill:#dedede;fill-opacity:1" d="M1681.402 530h200v100h-200ZM1691.402 630h-10c0 5.523 4.48 10 10 10v-10ZM1871.402 630v10c5.524 0 10-4.477 10-10h-10Zm0 0"/><path style="fill:none;stroke-width:.1;stroke-linecap:butt;stroke-linejoin:miter;stroke:#000;stroke-opacity:1;stroke-miterlimit:10" d="M84.57 26h9M84.57 32h9M84.57 26a.5.5 0 0 0-.5.5M94.07 26.5a.5.5 0 0 0-.5-.5M84.07 26.5v5M94.07 26.5v5M84.07 31.5a.5.5 0 0 0 .5.5M93.57 32a.5.5 0 0 0 .5-.5" transform="scale(20)"/><use xlink:href="#H" x="1767.301" y="593.223" style="fill:#000;fill-opacity:1"/><path style="stroke:none;fill-rule:evenodd;fill:#dedede;fill-opacity:1" d="M1691.402 720h180v120h-180ZM1691.402 730v-10c-5.52 0-10 4.477-10 10h10ZM1871.402 730h10c0-5.523-4.476-10-10-10v10Zm0 0"/><path style="stroke:none;fill-rule:evenodd;fill:#dedede;fill-opacity:1" d="M1681.402 730h200v100h-200ZM1691.402 830h-10c0 5.523 4.48 10 10 10v-10ZM1871.402 830v10c5.524 0 10-4.477 10-10h-10Zm0 0"/><path style="fill:none;stroke-width:.1;stroke-linecap:butt;stroke-linejoin:miter;stroke:#000;stroke-opacity:1;stroke-miterlimit:10" d="M84.57 36h9M84.57 42h9M84.57 36a.5.5 0 0 0-.5.5M94.07 36.5a.5.5 0 0 0-.5-.5M84.07 36.5v5M94.07 36.5v5M84.07 41.5a.5.5 0 0 0 .5.5M93.57 42a.5.5 0 0 0 .5-.5" transform="scale(20)"/><use xlink:href="#I" x="1767.301" y="793.223" style="fill:#000;fill-opacity:1"/><path style="stroke:none;fill-rule:evenodd;fill:#dedede;fill-opacity:1" d="M1691.402 920h180v120h-180ZM1691.402 930v-10c-5.52 0-10 4.477-10 10h10ZM1871.402 930h10c0-5.523-4.476-10-10-10v10Zm0 0"/><path style="stroke:none;fill-rule:evenodd;fill:#dedede;fill-opacity:1" d="M1681.402 930h200v100h-200ZM1691.402 1030h-10c0 5.523 4.48 10 10 10v-10ZM1871.402 1030v10c5.524 0 10-4.477 10-10h-10Zm0 0"/><path style="fill:none;stroke-width:.1;stroke-linecap:butt;stroke-linejoin:miter;stroke:#000;stroke-opacity:1;stroke-miterlimit:10" d="M84.57 46h9M84.57 52h9M84.57 46a.5.5 0 0 0-.5.5M94.07 46.5a.5.5 0 0 0-.5-.5M84.07 46.5v5M94.07 46.5v5M84.07 51.5a.5.5 0 0 0 .5.5M93.57 52a.5.5 0 0 0 .5-.5" transform="scale(20)"/><use xlink:href="#J" x="1767.301" y="993.223" style="fill:#000;fill-opacity:1"/><path style="stroke:none;fill-rule:evenodd;fill:#e9a4de;fill-opacity:1" d="M1988.086 720h180v120h-180ZM1988.086 730v-10c-5.524 0-10 4.477-10 10h10Zm0 0"/><path style="stroke:none;fill-rule:evenodd;fill:#e9a4de;fill-opacity:1" d="M2168.086 730h10c0-5.523-4.48-10-10-10v10ZM1978.086 730h200v100h-200ZM1988.086 830h-10c0 5.523 4.476 10 10 10v-10ZM2168.086 830v10c5.52 0 10-4.477 10-10h-10Zm0 0"/><path style="fill:none;stroke-width:.1;stroke-linecap:butt;stroke-linejoin:miter;stroke:#000;stroke-opacity:1;stroke-miterlimit:10" d="M99.404 36h9M99.404 42h9M99.404 36a.5.5 0 0 0-.5.5M108.904 36.5a.5.5 0 0 0-.5-.5M98.904 36.5v5M108.904 36.5v5M98.904 41.5a.5.5 0 0 0 .5.5M108.404 42a.5.5 0 0 0 .5-.5" transform="scale(20)"/><use xlink:href="#K" x="2063.984" y="793.223" style="fill:#000;fill-opacity:1"/><path style="stroke:none;fill-rule:evenodd;fill:#a9e5a1;fill-opacity:1" d="M1916.344 640h331.996v65.5h-331.996ZM1916.344 650v-10c-5.524 0-10 4.477-10 10h10ZM2248.34 650h10c0-5.523-4.477-10-10-10v10Zm0 0"/><path style="stroke:none;fill-rule:evenodd;fill:#a9e5a1;fill-opacity:1" d="M1906.344 650h351.996v45.5h-351.996ZM1916.344 695.5h-10c0 5.523 4.476 10 10 10v-10ZM2248.34 695.5v10c5.523 0 10-4.477 10-10h-10Zm0 0"/><path style="fill:none;stroke-width:.1;stroke-linecap:butt;stroke-linejoin:miter;stroke:#000;stroke-opacity:1;stroke-miterlimit:10" d="M95.817 32h16.6M95.817 35.275h16.6M95.817 32a.5.5 0 0 0-.5.5M112.917 32.5a.5.5 0 0 0-.5-.5M95.317 32.5v2.275M112.917 32.5v2.275M95.317 34.775a.5.5 0 0 0 .5.5M112.417 35.275a.5.5 0 0 0 .5-.5" transform="scale(20)"/><g style="fill:#000;fill-opacity:1"><use xlink:href="#a" x="1930" y="684.648"/><use xlink:href="#b" x="1955.391" y="684.648"/><use xlink:href="#c" x="1980.781" y="684.648"/><use xlink:href="#d" x="2006.172" y="684.648"/><use xlink:href="#c" x="2031.563" y="684.648"/><use xlink:href="#e" x="2056.953" y="684.648"/><use xlink:href="#L" x="2082.344" y="684.648"/><use xlink:href="#D" x="2107.734" y="684.648"/><use xlink:href="#E" x="2133.125" y="684.648"/><use xlink:href="#c" x="2158.516" y="684.648"/><use xlink:href="#e" x="2183.906" y="684.648"/><use xlink:href="#i" x="2209.297" y="684.648"/></g><path style="stroke:none;fill-rule:evenodd;fill:#a9e5a1;fill-opacity:1" d="M1694.586 360h180v65.5h-180ZM1694.586 370v-10c-5.524 0-10 4.477-10 10h10ZM1874.586 370h10c0-5.523-4.477-10-10-10v10Zm0 0"/><path style="stroke:none;fill-rule:evenodd;fill:#a9e5a1;fill-opacity:1" d="M1684.586 370h200v45.5h-200ZM1694.586 415.5h-10c0 5.523 4.476 10 10 10v-10ZM1874.586 415.5v10c5.523 0 10-4.477 10-10h-10Zm0 0"/><path style="fill:none;stroke-width:.1;stroke-linecap:butt;stroke-linejoin:miter;stroke:#000;stroke-opacity:1;stroke-miterlimit:10" d="M84.73 18h9M84.73 21.275h9M84.73 18a.5.5 0 0 0-.5.5M94.23 18.5a.5.5 0 0 0-.5-.5M84.23 18.5v2.275M94.23 18.5v2.275M84.23 20.775a.5.5 0 0 0 .5.5M93.73 21.275a.5.5 0 0 0 .5-.5" transform="scale(20)"/><g style="fill:#000;fill-opacity:1"><use xlink:href="#D" x="1708.414" y="404.648"/><use xlink:href="#E" x="1733.805" y="404.648"/><use xlink:href="#F" x="1759.195" y="404.648"/><use xlink:href="#i" x="1784.586" y="404.648"/><use xlink:href="#h" x="1809.977" y="404.648"/><use xlink:href="#b" x="1835.367" y="404.648"/></g></svg>