<?xml version="1.0" encoding="UTF-8" standalone="no"?>
<!DOCTYPE svg PUBLIC "-//W3C//DTD SVG 1.0//EN" "http://www.w3.org/TR/2001/PR-SVG-20010719/DTD/svg10.dtd">
<svg width="72cm" height="53cm" viewBox="-994 -832 1427 1053" xmlns="http://www.w3.org/2000/svg" xmlns:xlink="http://www.w3.org/1999/xlink">
  <g>
    <rect style="fill: #a6b1ed" x="-400" y="100" width="241" height="120" rx="10" ry="10"/>
    <rect style="fill: none; fill-opacity:0; stroke-width: 2; stroke-linejoin: round; stroke: #000000" x="-400" y="100" width="241" height="120" rx="10" ry="10"/>
  </g>
  <g>
    <rect style="fill: #e4c8c8" x="-700" y="-300" width="240" height="120" rx="10" ry="10"/>
    <rect style="fill: none; fill-opacity:0; stroke-width: 2; stroke-linejoin: round; stroke: #000000" x="-700" y="-300" width="240" height="120" rx="10" ry="10"/>
  </g>
  <text font-size="12.8" style="fill: #000000;text-anchor:start;font-family:sans-serif;font-style:normal;font-weight:normal" x="-580" y="-240">
    <tspan x="-580" y="-240"></tspan>
  </text>
  <g>
    <line style="fill: none; fill-opacity:0; stroke-width: 7; stroke-linejoin: round; stroke: #000000" x1="-279.5" y1="20" x2="-279.5" y2="84.6738"/>
    <polygon style="fill: #000000" points="-279.5,92.1738 -284.5,82.1738 -279.5,84.6738 -274.5,82.1738 "/>
    <polygon style="fill: none; fill-opacity:0; stroke-width: 7; stroke: #000000" points="-279.5,92.1738 -284.5,82.1738 -279.5,84.6738 -274.5,82.1738 "/>
  </g>
  <g>
    <rect style="fill: #a6b1ed" x="-400" y="-100" width="241" height="120" rx="10" ry="10"/>
    <rect style="fill: none; fill-opacity:0; stroke-width: 2; stroke-linejoin: round; stroke: #000000" x="-400" y="-100" width="241" height="120" rx="10" ry="10"/>
  </g>
  <text font-size="12.8" style="fill: #000000;text-anchor:start;font-family:sans-serif;font-style:normal;font-weight:normal" x="-279.5" y="-40">
    <tspan x="-279.5" y="-40"></tspan>
  </text>
  <text font-size="12.8" style="fill: #000000;text-anchor:start;font-family:sans-serif;font-style:normal;font-weight:normal" x="-279.5" y="-40">
    <tspan x="-279.5" y="-40"></tspan>
  </text>
  <text font-size="56.4444" style="fill: #000000;text-anchor:middle;font-family:monospace;font-style:normal;font-weight:normal" x="-279.5" y="175.025">
    <tspan x="-279.5" y="175.025">A</tspan>
  </text>
  <text font-size="56.4444" style="fill: #000000;text-anchor:middle;font-family:monospace;font-style:normal;font-weight:normal" x="-279.5" y="-24.975">
    <tspan x="-279.5" y="-24.975">B</tspan>
  </text>
  <text font-size="56.4444" style="fill: #000000;text-anchor:middle;font-family:monospace;font-style:normal;font-weight:normal" x="-580" y="-224.975">
    <tspan x="-580" y="-224.975">E</tspan>
  </text>
  <g>
    <line style="fill: none; fill-opacity:0; stroke-width: 7; stroke-linejoin: round; stroke: #000000" x1="-580" y1="-180" x2="-412.098" y2="-49.4094"/>
    <polygon style="fill: #000000" points="-406.178,-44.8048 -417.141,-46.9975 -412.098,-49.4094 -411.001,-54.891 "/>
    <polygon style="fill: none; fill-opacity:0; stroke-width: 7; stroke: #000000" points="-406.178,-44.8048 -417.141,-46.9975 -412.098,-49.4094 -411.001,-54.891 "/>
  </g>
  <g>
    <rect style="fill: #a6b1ed" x="-400" y="-300" width="241" height="120" rx="10" ry="10"/>
    <rect style="fill: none; fill-opacity:0; stroke-width: 2; stroke-linejoin: round; stroke: #000000" x="-400" y="-300" width="241" height="120" rx="10" ry="10"/>
  </g>
  <g>
    <rect style="fill: #e4c8c8" x="-700" y="-500" width="241" height="120" rx="10" ry="10"/>
    <rect style="fill: none; fill-opacity:0; stroke-width: 2; stroke-linejoin: round; stroke: #000000" x="-700" y="-500" width="241" height="120" rx="10" ry="10"/>
  </g>
  <g>
    <rect style="fill: #a6b1ed" x="-400" y="-500" width="241" height="120" rx="10" ry="10"/>
    <rect style="fill: none; fill-opacity:0; stroke-width: 2; stroke-linejoin: round; stroke: #000000" x="-400" y="-500" width="241" height="120" rx="10" ry="10"/>
  </g>
  <g>
    <rect style="fill: #a6b1ed" x="-400" y="-700" width="241" height="120" rx="10" ry="10"/>
    <rect style="fill: none; fill-opacity:0; stroke-width: 2; stroke-linejoin: round; stroke: #000000" x="-400" y="-700" width="241" height="120" rx="10" ry="10"/>
  </g>
  <g>
    <line style="fill: none; fill-opacity:0; stroke-width: 7; stroke-linejoin: round; stroke: #000000" x1="-579.5" y1="-380" x2="-579.904" y2="-315.326"/>
    <polygon style="fill: #000000" points="-579.951,-307.826 -584.888,-317.857 -579.904,-315.326 -574.889,-317.795 "/>
    <polygon style="fill: none; fill-opacity:0; stroke-width: 7; stroke: #000000" points="-579.951,-307.826 -584.888,-317.857 -579.904,-315.326 -574.889,-317.795 "/>
  </g>
  <g>
    <line style="fill: none; fill-opacity:0; stroke-width: 7; stroke: #000000" x1="-279.5" y1="-580" x2="-279.5" y2="-515.326"/>
    <polygon style="fill: #000000" points="-279.5,-507.826 -284.5,-517.826 -279.5,-515.326 -274.5,-517.826 "/>
    <polygon style="fill: none; fill-opacity:0; stroke-width: 7; stroke: #000000" points="-279.5,-507.826 -284.5,-517.826 -279.5,-515.326 -274.5,-517.826 "/>
  </g>
  <g>
    <rect style="fill: #b5b5b5" x="-100" y="-500" width="241" height="120" rx="10" ry="10"/>
    <rect style="fill: none; fill-opacity:0; stroke-width: 2; stroke-linejoin: round; stroke: #000000" x="-100" y="-500" width="241" height="120" rx="10" ry="10"/>
  </g>
  <g>
    <line style="fill: none; fill-opacity:0; stroke-width: 7; stroke-linejoin: round; stroke: #000000" x1="20.5" y1="-380" x2="-146.915" y2="-249.426"/>
    <polygon style="fill: #000000" points="-152.829,-244.813 -148.019,-254.906 -146.915,-249.426 -141.869,-247.021 "/>
    <polygon style="fill: none; fill-opacity:0; stroke-width: 7; stroke: #000000" points="-152.829,-244.813 -148.019,-254.906 -146.915,-249.426 -141.869,-247.021 "/>
  </g>
  <text font-size="56.4444" style="fill: #000000;text-anchor:middle;font-family:monospace;font-style:normal;font-weight:normal" x="-579.5" y="-424.975">
    <tspan x="-579.5" y="-424.975">F</tspan>
  </text>
  <text font-size="56.4444" style="fill: #000000;text-anchor:middle;font-family:monospace;font-style:normal;font-weight:normal" x="-279.5" y="-224.975">
    <tspan x="-279.5" y="-224.975">C</tspan>
  </text>
  <text font-size="56.4444" style="fill: #000000;text-anchor:middle;font-family:monospace;font-style:normal;font-weight:normal" x="-279.5" y="-424.975">
    <tspan x="-279.5" y="-424.975">D</tspan>
  </text>
  <text font-size="56.4444" style="fill: #000000;text-anchor:middle;font-family:monospace;font-style:normal;font-weight:normal" x="-279.5" y="-624.975">
    <tspan x="-279.5" y="-624.975">H</tspan>
  </text>
  <text font-size="56.4444" style="fill: #000000;text-anchor:middle;font-family:monospace;font-style:normal;font-weight:normal" x="20.5" y="-424.975">
    <tspan x="20.5" y="-424.975">G</tspan>
  </text>
  <g>
    <line style="fill: none; fill-opacity:0; stroke-width: 7; stroke: #000000" x1="-279.5" y1="-380" x2="-279.5" y2="-315.326"/>
    <polygon style="fill: #000000" points="-279.5,-307.826 -284.5,-317.826 -279.5,-315.326 -274.5,-317.826 "/>
    <polygon style="fill: none; fill-opacity:0; stroke-width: 7; stroke: #000000" points="-279.5,-307.826 -284.5,-317.826 -279.5,-315.326 -274.5,-317.826 "/>
  </g>
  <g>
    <line style="fill: none; fill-opacity:0; stroke-width: 7; stroke: #000000" x1="-279.5" y1="-180" x2="-279.5" y2="-115.326"/>
    <polygon style="fill: #000000" points="-279.5,-107.826 -284.5,-117.826 -279.5,-115.326 -274.5,-117.826 "/>
    <polygon style="fill: none; fill-opacity:0; stroke-width: 7; stroke: #000000" points="-279.5,-107.826 -284.5,-117.826 -279.5,-115.326 -274.5,-117.826 "/>
  </g>
  <g>
    <line style="fill: none; fill-opacity:0; stroke-width: 7; stroke: #000000" x1="-400" y1="-640" x2="-567.415" y2="-509.426"/>
    <polygon style="fill: #000000" points="-573.329,-504.813 -568.519,-514.906 -567.415,-509.426 -562.369,-507.021 "/>
    <polygon style="fill: none; fill-opacity:0; stroke-width: 7; stroke: #000000" points="-573.329,-504.813 -568.519,-514.906 -567.415,-509.426 -562.369,-507.021 "/>
  </g>
  <g>
    <rect style="fill: #9eec9e" x="-992.054" y="-630.274" width="224.106" height="60.5472" rx="10" ry="10"/>
    <rect style="fill: none; fill-opacity:0; stroke-width: 2; stroke-linejoin: round; stroke: #000000" x="-992.054" y="-630.274" width="224.106" height="60.5472" rx="10" ry="10"/>
  </g>
  <text font-size="50.8" style="fill: #000000;text-anchor:middle;font-family:monospace;font-style:normal;font-weight:normal" x="-880" y="-586.475">
    <tspan x="-880" y="-586.475">feature</tspan>
  </text>
  <g>
    <rect style="fill: #f6f687" x="-92.0532" y="-230.274" width="224.106" height="60.5472" rx="10" ry="10"/>
    <rect style="fill: none; fill-opacity:0; stroke-width: 2; stroke-linejoin: round; stroke: #000000" x="-92.0532" y="-230.274" width="224.106" height="60.5472" rx="10" ry="10"/>
  </g>
  <text font-size="50.8" style="fill: #000000;text-anchor:middle;font-family:monospace;font-style:normal;font-weight:normal" x="20" y="-186.475">
    <tspan x="20" y="-186.475">v0.1</tspan>
  </text>
  <g>
    <rect style="fill: #f6f687" x="-92.0532" y="-630.274" width="224.106" height="60.5472" rx="10" ry="10"/>
    <rect style="fill: none; fill-opacity:0; stroke-width: 2; stroke-linejoin: round; stroke: #000000" x="-92.0532" y="-630.274" width="224.106" height="60.5472" rx="10" ry="10"/>
  </g>
  <text font-size="50.8" style="fill: #000000;text-anchor:middle;font-family:monospace;font-style:normal;font-weight:normal" x="20" y="-586.475">
    <tspan x="20" y="-586.475">v0.2</tspan>
  </text>
  <g>
    <rect style="fill: #9eec9e" x="-92.0532" y="-830.274" width="224.106" height="60.5472" rx="10" ry="10"/>
    <rect style="fill: none; fill-opacity:0; stroke-width: 2; stroke-linejoin: round; stroke: #000000" x="-92.0532" y="-830.274" width="224.106" height="60.5472" rx="10" ry="10"/>
  </g>
  <text font-size="50.8" style="fill: #000000;text-anchor:middle;font-family:monospace;font-style:normal;font-weight:normal" x="20" y="-786.475">
    <tspan x="20" y="-786.475">master</tspan>
  </text>
  <g>
    <rect style="fill: #9eec9e" x="207.946" y="-631.274" width="224.106" height="60.5472" rx="10" ry="10"/>
    <rect style="fill: none; fill-opacity:0; stroke-width: 2; stroke-linejoin: round; stroke: #000000" x="207.946" y="-631.274" width="224.106" height="60.5472" rx="10" ry="10"/>
  </g>
  <text font-size="50.8" style="fill: #000000;text-anchor:middle;font-family:monospace;font-style:normal;font-weight:normal" x="320" y="-587.475">
    <tspan x="320" y="-587.475">bugfix</tspan>
  </text>
  <g>
    <rect style="fill: #9eec9e" x="147.947" y="-830.274" width="224.106" height="60.5472" rx="10" ry="10"/>
    <rect style="fill: none; fill-opacity:0; stroke-width: 2; stroke-linejoin: round; stroke: #000000" x="147.947" y="-830.274" width="224.106" height="60.5472" rx="10" ry="10"/>
  </g>
  <text font-size="50.8" style="fill: #000000;text-anchor:middle;font-family:monospace;font-style:normal;font-weight:normal" x="260" y="-786.475">
    <tspan x="260" y="-786.475">HEAD</tspan>
  </text>
  <line style="fill: none; fill-opacity:0; stroke-width: 7; stroke-linejoin: round; stroke: #000000" x1="-697.072" y1="-497.072" x2="-770.876" y2="-572.656"/>
  <line style="fill: none; fill-opacity:0; stroke-width: 7; stroke-linejoin: round; stroke: #000000" x1="-161.929" y1="-697.072" x2="-89.1242" y2="-772.656"/>
  <line style="fill: none; fill-opacity:0; stroke-width: 7; stroke-linejoin: round; stroke: #000000" x1="-161.929" y1="-497.072" x2="-89.1242" y2="-572.656"/>
  <line style="fill: none; fill-opacity:0; stroke-width: 7; stroke-linejoin: round; stroke: #000000" x1="-161.929" y1="-97.071" x2="-89.1242" y2="-172.655"/>
  <line style="fill: none; fill-opacity:0; stroke-width: 7; stroke-linejoin: round; stroke: #000000" x1="138.071" y1="-497.072" x2="210.874" y2="-573.656"/>
</svg>
