<?xml version="1.0" encoding="UTF-8" standalone="no"?>
<!DOCTYPE svg PUBLIC "-//W3C//DTD SVG 1.0//EN" "http://www.w3.org/TR/2001/PR-SVG-20010719/DTD/svg10.dtd">
<svg width="65cm" height="47cm" viewBox="-580 -592 1283 921" xmlns="http://www.w3.org/2000/svg" xmlns:xlink="http://www.w3.org/1999/xlink">
  <text font-size="12.8" style="fill: #000000;text-anchor:start;font-family:sans-serif;font-style:normal;font-weight:normal" x="-580" y="-240">
    <tspan x="-580" y="-240"></tspan>
  </text>
  <g>
    <rect style="fill: #b5b5b5" x="460" y="80" width="241" height="120" rx="10" ry="10"/>
    <rect style="fill: none; fill-opacity:0; stroke-width: 2; stroke-linejoin: round; stroke: #000000" x="460" y="80" width="241" height="120" rx="10" ry="10"/>
  </g>
  <g>
    <line style="fill: none; fill-opacity:0; stroke-width: 7; stroke-linejoin: round; stroke: #000000" x1="580.5" y1="0" x2="580.5" y2="64.6738"/>
    <polygon style="fill: #000000" points="580.5,72.1738 575.5,62.1738 580.5,64.6738 585.5,62.1738 "/>
    <polygon style="fill: none; fill-opacity:0; stroke-width: 7; stroke: #000000" points="580.5,72.1738 575.5,62.1738 580.5,64.6738 585.5,62.1738 "/>
  </g>
  <g>
    <rect style="fill: #b5b5b5" x="460" y="-120" width="241" height="120" rx="10" ry="10"/>
    <rect style="fill: none; fill-opacity:0; stroke-width: 2; stroke-linejoin: round; stroke: #000000" x="460" y="-120" width="241" height="120" rx="10" ry="10"/>
  </g>
  <text font-size="12.8" style="fill: #000000;text-anchor:start;font-family:sans-serif;font-style:normal;font-weight:normal" x="580.5" y="-60">
    <tspan x="580.5" y="-60"></tspan>
  </text>
  <text font-size="12.8" style="fill: #000000;text-anchor:start;font-family:sans-serif;font-style:normal;font-weight:normal" x="580.5" y="-60">
    <tspan x="580.5" y="-60"></tspan>
  </text>
  <text font-size="56.4444" style="fill: #000000;text-anchor:middle;font-family:monospace;font-style:normal;font-weight:normal" x="580.5" y="155.025">
    <tspan x="580.5" y="155.025">A</tspan>
  </text>
  <text font-size="56.4444" style="fill: #000000;text-anchor:middle;font-family:monospace;font-style:normal;font-weight:normal" x="580.5" y="-44.975">
    <tspan x="580.5" y="-44.975">B</tspan>
  </text>
  <g>
    <rect style="fill: #e4c8c8" x="460" y="-520" width="241" height="120" rx="10" ry="10"/>
    <rect style="fill: none; fill-opacity:0; stroke-width: 2; stroke-linejoin: round; stroke: #000000" x="460" y="-520" width="241" height="120" rx="10" ry="10"/>
  </g>
  <text font-size="56.4444" style="fill: #000000;text-anchor:middle;font-family:monospace;font-style:normal;font-weight:normal" x="580.5" y="-444.975">
    <tspan x="580.5" y="-444.975">D</tspan>
  </text>
  <g>
    <line style="fill: none; fill-opacity:0; stroke-width: 7; stroke-linejoin: round; stroke: #000000" x1="580.5" y1="-400" x2="580.5" y2="-335.326"/>
    <polygon style="fill: #000000" points="580.5,-327.826 575.5,-337.826 580.5,-335.326 585.5,-337.826 "/>
    <polygon style="fill: none; fill-opacity:0; stroke-width: 7; stroke: #000000" points="580.5,-327.826 575.5,-337.826 580.5,-335.326 585.5,-337.826 "/>
  </g>
  <g>
    <rect style="fill: #9eec9e" x="467.946" y="-590.274" width="218.248" height="54.6894" rx="10" ry="10"/>
    <rect style="fill: none; fill-opacity:0; stroke-width: 2; stroke-linejoin: round; stroke: #000000" x="467.946" y="-590.274" width="218.248" height="54.6894" rx="10" ry="10"/>
  </g>
  <text font-size="50.8" style="fill: #000000;text-anchor:middle;font-family:monospace;font-style:normal;font-weight:normal" x="577.07" y="-549.405">
    <tspan x="577.07" y="-549.405">master</tspan>
  </text>
  <g>
    <rect style="fill: #b5b5b5" x="-400" y="80" width="241" height="120" rx="10" ry="10"/>
    <rect style="fill: none; fill-opacity:0; stroke-width: 2; stroke-linejoin: round; stroke: #000000" x="-400" y="80" width="241" height="120" rx="10" ry="10"/>
  </g>
  <g>
    <line style="fill: none; fill-opacity:0; stroke-width: 7; stroke-linejoin: round; stroke: #000000" x1="-279.5" y1="0" x2="-279.5" y2="64.6738"/>
    <polygon style="fill: #000000" points="-279.5,72.1738 -284.5,62.1738 -279.5,64.6738 -274.5,62.1738 "/>
    <polygon style="fill: none; fill-opacity:0; stroke-width: 7; stroke: #000000" points="-279.5,72.1738 -284.5,62.1738 -279.5,64.6738 -274.5,62.1738 "/>
  </g>
  <g>
    <rect style="fill: #b5b5b5" x="-400" y="-120" width="241" height="120" rx="10" ry="10"/>
    <rect style="fill: none; fill-opacity:0; stroke-width: 2; stroke-linejoin: round; stroke: #000000" x="-400" y="-120" width="241" height="120" rx="10" ry="10"/>
  </g>
  <text font-size="12.8" style="fill: #000000;text-anchor:start;font-family:sans-serif;font-style:normal;font-weight:normal" x="-279.5" y="-60">
    <tspan x="-279.5" y="-60"></tspan>
  </text>
  <text font-size="12.8" style="fill: #000000;text-anchor:start;font-family:sans-serif;font-style:normal;font-weight:normal" x="-279.5" y="-60">
    <tspan x="-279.5" y="-60"></tspan>
  </text>
  <text font-size="56.4444" style="fill: #000000;text-anchor:middle;font-family:monospace;font-style:normal;font-weight:normal" x="-279.5" y="155.025">
    <tspan x="-279.5" y="155.025">A</tspan>
  </text>
  <text font-size="56.4444" style="fill: #000000;text-anchor:middle;font-family:monospace;font-style:normal;font-weight:normal" x="-279.5" y="-44.975">
    <tspan x="-279.5" y="-44.975">B</tspan>
  </text>
  <g>
    <rect style="fill: #a6b1ed" x="-400" y="-320" width="241" height="120" rx="10" ry="10"/>
    <rect style="fill: none; fill-opacity:0; stroke-width: 2; stroke-linejoin: round; stroke: #000000" x="-400" y="-320" width="241" height="120" rx="10" ry="10"/>
  </g>
  <text font-size="56.4444" style="fill: #000000;text-anchor:middle;font-family:monospace;font-style:normal;font-weight:normal" x="-279.5" y="-244.975">
    <tspan x="-279.5" y="-244.975">C</tspan>
  </text>
  <g>
    <line style="fill: none; fill-opacity:0; stroke-width: 7; stroke-linejoin: round; stroke: #000000" x1="-279.5" y1="-200" x2="-279.5" y2="-135.326"/>
    <polygon style="fill: #000000" points="-279.5,-127.826 -284.5,-137.826 -279.5,-135.326 -274.5,-137.826 "/>
    <polygon style="fill: none; fill-opacity:0; stroke-width: 7; stroke: #000000" points="-279.5,-127.826 -284.5,-137.826 -279.5,-135.326 -274.5,-137.826 "/>
  </g>
  <g>
    <rect style="fill: #9eec9e" x="-392.054" y="-390.274" width="221.177" height="57.6183" rx="10" ry="10"/>
    <rect style="fill: none; fill-opacity:0; stroke-width: 2; stroke-linejoin: round; stroke: #000000" x="-392.054" y="-390.274" width="221.177" height="57.6183" rx="10" ry="10"/>
  </g>
  <text font-size="50.8" style="fill: #000000;text-anchor:middle;font-family:monospace;font-style:normal;font-weight:normal" x="-280" y="-346.475">
    <tspan x="-280" y="-346.475">master</tspan>
  </text>
  <text font-size="12.8" style="fill: #000000;text-anchor:start;font-family:sans-serif;font-style:normal;font-weight:normal" x="-60" y="-280">
    <tspan x="-60" y="-280"></tspan>
  </text>
  <g>
    <line style="fill: none; fill-opacity:0; stroke-width: 16; stroke-linejoin: round; stroke: #000000" x1="-160" y1="260" x2="414" y2="260"/>
    <polygon style="fill: #000000" points="414,269 432,260 414,251 "/>
    <polygon style="fill: none; fill-opacity:0; stroke-width: 16; stroke: #000000" points="414,269 432,260 414,251 "/>
  </g>
  <text font-size="50.8" style="fill: #000000;text-anchor:middle;font-family:monospace;font-style:normal;font-weight:normal" x="140" y="313.525">
    <tspan x="140" y="313.525">git commit</tspan>
  </text>
  <g>
    <rect style="fill: #a6b1ed" x="460" y="-320" width="241" height="120" rx="10" ry="10"/>
    <rect style="fill: none; fill-opacity:0; stroke-width: 2; stroke-linejoin: round; stroke: #000000" x="460" y="-320" width="241" height="120" rx="10" ry="10"/>
  </g>
  <text font-size="56.4444" style="fill: #000000;text-anchor:middle;font-family:monospace;font-style:normal;font-weight:normal" x="580.5" y="-244.975">
    <tspan x="580.5" y="-244.975">C</tspan>
  </text>
  <g>
    <line style="fill: none; fill-opacity:0; stroke-width: 7; stroke-linejoin: round; stroke: #000000" x1="580.5" y1="-200" x2="580.5" y2="-135.326"/>
    <polygon style="fill: #000000" points="580.5,-127.826 575.5,-137.826 580.5,-135.326 585.5,-137.826 "/>
    <polygon style="fill: none; fill-opacity:0; stroke-width: 7; stroke: #000000" points="580.5,-127.826 575.5,-137.826 580.5,-135.326 585.5,-137.826 "/>
  </g>
</svg>
