<svg xmlns="http://www.w3.org/2000/svg" xmlns:xlink="http://www.w3.org/1999/xlink" width="1520pt" height="1000pt" viewBox="0 0 1520 1000"><defs><symbol overflow="visible" id="a"><path style="stroke:none" d="m.875 0 12.414-35.773h.45L27.28 0H23.22l-3.895-10.27H8.152L4.77 0zm17.547-13.316-4.965-13.43-4.512 13.43zm0 0"/></symbol><symbol overflow="visible" id="b"><path style="stroke:none" d="M2.707-35.152h9.988c2.028.004 3.785.199 5.274.593 1.484.395 2.68.989 3.586 1.774.902.789 1.597 1.7 2.086 2.73.488 1.035.734 2.168.734 3.407 0 1.652-.453 3.21-1.355 4.675-.903 1.465-2.18 2.5-3.836 3.098a9.748 9.748 0 0 1 2.68 1.441 11.68 11.68 0 0 1 2.116 2.118 8.884 8.884 0 0 1 1.352 2.574c.297.926.45 1.875.453 2.851-.004 2.977-1.058 5.371-3.16 7.18C20.515-.902 17.187 0 12.641 0H2.707zm3.895 3.273v11.285h5.484c1.566.004 2.855-.136 3.863-.426 1.008-.28 1.817-.671 2.434-1.164a4.661 4.661 0 0 0 1.37-1.785 7.47 7.47 0 0 0 .56-2.242 7.668 7.668 0 0 0-.532-2.21c-.281-.677-.722-1.27-1.316-1.786-.602-.508-1.363-.914-2.293-1.219-.934-.297-2.09-.449-3.469-.453zm0 14.555v13.883h6.765c3.028.003 5.14-.63 6.336-1.899 1.192-1.262 1.863-2.86 2.02-4.789-.078-1.055-.285-2.016-.625-2.887a6.33 6.33 0 0 0-1.563-2.293c-.703-.66-1.652-1.16-2.844-1.504-1.195-.335-2.625-.507-4.289-.511zm0 0"/></symbol><symbol overflow="visible" id="c"><path style="stroke:none" d="M3.047-35.152h8.183c3.004.004 5.344.418 7.024 1.242 1.672.828 3.094 2.012 4.258 3.555 1.164 1.543 2.027 3.406 2.597 5.585.563 2.184.848 4.645.848 7.391 0 2.711-.34 5.14-1.016 7.281-.68 2.149-1.609 3.98-2.793 5.5-1.187 1.528-2.722 2.684-4.601 3.47C15.664-.34 13.332.05 10.55.054H3.047zM6.77-31.88v28.832h3.585c3.993 0 6.915-1.215 8.766-3.644 1.844-2.43 2.77-5.926 2.774-10.489-.043-4.597-.895-8.195-2.551-10.797-1.664-2.597-4.453-3.898-8.371-3.902zm0 0"/></symbol><symbol overflow="visible" id="d"><path style="stroke:none" d="M22.457-27.188c-.004-.44-.059-.769-.168-.992a8.673 8.673 0 0 0-2.937-2.906c-1.207-.715-2.485-1.074-3.836-1.078a7.088 7.088 0 0 0-3.61.988c-1.129.66-2.129 1.621-2.992 2.88-.867 1.265-1.543 2.796-2.031 4.597-.488 1.808-.73 3.86-.73 6.152 0 2.223.242 4.246.73 6.067.488 1.828 1.176 3.386 2.058 4.683.883 1.297 1.918 2.305 3.106 3.02a7.239 7.239 0 0 0 3.808 1.07c1.391 0 2.735-.395 4.036-1.188 1.293-.789 2.336-1.859 3.132-3.214l2.934 1.918a10.945 10.945 0 0 1-2.035 2.484A13.528 13.528 0 0 1 21.41-.902c-.883.492-1.765.855-2.648 1.097-.883.242-1.778.367-2.68.367-2.035 0-3.832-.347-5.39-1.042-1.563-.696-2.993-1.774-4.29-3.243-1.3-1.465-2.308-3.328-3.02-5.586-.718-2.254-1.073-4.945-1.07-8.07-.003-3.46.41-6.348 1.243-8.66.824-2.313 1.914-4.164 3.273-5.559 1.352-1.39 2.793-2.379 4.317-2.96 1.523-.583 3-.872 4.43-.876 1.163.004 2.3.172 3.413.508 1.106.34 2.14.809 3.102 1.41.96.602 1.816 1.328 2.566 2.172.75.852 1.352 1.801 1.809 2.848l-3.781 1.863c-.157-.105-.23-.293-.227-.555zm0 0"/></symbol><symbol overflow="visible" id="e"><path style="stroke:none" d="M3.047-35.152H7.39c.035.039.054.093.058.168-.004.113-.05.265-.14.453a2.172 2.172 0 0 0-.2.73v13.715h13.77v-15.066h4.344c.035.039.054.093.054.168 0 .152-.058.312-.168.48a1.438 1.438 0 0 0-.226.594V.055H20.82v-16.871H7.11V0H3.046zm0 0"/></symbol><symbol overflow="visible" id="f"><path style="stroke:none" d="m25.844-29.625-2.766 2.824c-.23-.148-.476-.504-.734-1.074-.567-1.238-1.438-2.246-2.621-3.02-1.188-.77-2.57-1.156-4.149-1.156-1.094 0-2.215.227-3.36.68-1.148.453-2.19 1.226-3.128 2.312-.941 1.094-1.703 2.532-2.285 4.317-.586 1.789-.88 4.035-.875 6.742-.004 2.445.242 4.61.73 6.488C7.145-9.629 7.82-8.059 8.688-6.8c.863 1.262 1.89 2.223 3.078 2.88a7.71 7.71 0 0 0 3.863.987c2.441.004 4.664-.71 6.66-2.144v-8.352H15.91v-3.441h10.047v13.77C22.605-.657 19.16.561 15.629.561c-2.11 0-4-.421-5.672-1.269-1.676-.844-3.102-2.04-4.285-3.582C4.484-5.83 3.578-7.688 2.96-9.875c-.625-2.18-.934-4.605-.93-7.277-.004-3.684.457-6.77 1.383-9.254.918-2.48 2.113-4.371 3.582-5.672 1.469-1.293 2.965-2.188 4.488-2.68 1.524-.488 2.903-.73 4.145-.734 2.14.004 4.137.539 5.98 1.61 1.844 1.073 3.254 2.491 4.235 4.257zm0 0"/></symbol><symbol overflow="visible" id="g"><path style="stroke:none" d="M3.328-35.21h21.555v3.5H7.055v11.565H21.78v3.727H7.055V-3.5h17.66V0H3.328zm0 0"/></symbol><symbol overflow="visible" id="h"><path style="stroke:none" d="M4.402-35.21h20.254v3.44H8.465v11.063H21.5v3.441H8.465V0H4.402zm0 0"/></symbol></defs><path style="stroke:none;fill-rule:nonzero;fill:#fff;fill-opacity:1" d="M0 0h480v260H0zm0 0"/><path style="fill:none;stroke-width:0;stroke-linecap:butt;stroke-linejoin:miter;stroke:#000;stroke-opacity:1;stroke-miterlimit:10" d="M-52-37h76v50h-76zm0 0" transform="matrix(20 0 0 20 1040 740)"/><path style="fill:none;stroke-width:.35;stroke-linecap:butt;stroke-linejoin:miter;stroke:#000;stroke-opacity:1;stroke-miterlimit:10" d="M-14 1v3.234" transform="matrix(20 0 0 20 1040 740)"/><path style="fill-rule:evenodd;fill:#000;fill-opacity:1;stroke-width:.35;stroke-linecap:butt;stroke-linejoin:miter;stroke:#000;stroke-opacity:1;stroke-miterlimit:10" d="m-14 4.609-.25-.5.25.125.25-.125-.25.5zm0 0" transform="matrix(20 0 0 20 1040 740)"/><path style="fill:none;stroke-width:.35;stroke-linecap:butt;stroke-linejoin:miter;stroke:#000;stroke-opacity:1;stroke-miterlimit:10" d="m-29-9 8.395 6.53" transform="matrix(20 0 0 20 1040 740)"/><path style="fill-rule:evenodd;fill:#000;fill-opacity:1;stroke-width:.35;stroke-linecap:butt;stroke-linejoin:miter;stroke:#000;stroke-opacity:1;stroke-miterlimit:10" d="m-20.309-2.24-.548-.11.252-.12.055-.275.241.505zm0 0" transform="matrix(20 0 0 20 1040 740)"/><path style="fill:none;stroke-width:.35;stroke-linecap:butt;stroke-linejoin:miter;stroke:#000;stroke-opacity:1;stroke-miterlimit:10" d="M-29-19v3.234" transform="matrix(20 0 0 20 1040 740)"/><path style="fill-rule:evenodd;fill:#000;fill-opacity:1;stroke-width:.35;stroke-linecap:butt;stroke-linejoin:miter;stroke:#000;stroke-opacity:1;stroke-miterlimit:10" d="m-29-15.391-.25-.5.25.125.25-.125-.25.5zm0 0" transform="matrix(20 0 0 20 1040 740)"/><path style="fill:none;stroke-width:.35;stroke-linecap:butt;stroke-linejoin:miter;stroke:#000;stroke-opacity:1;stroke-miterlimit:10" d="M-14-29v3.234" transform="matrix(20 0 0 20 1040 740)"/><path style="fill-rule:evenodd;fill:#000;fill-opacity:1;stroke-width:.35;stroke-linecap:butt;stroke-linejoin:miter;stroke:#000;stroke-opacity:1;stroke-miterlimit:10" d="m-14-25.391-.25-.5.25.125.25-.125-.25.5zm0 0" transform="matrix(20 0 0 20 1040 740)"/><path style="fill:none;stroke-width:.35;stroke-linecap:butt;stroke-linejoin:miter;stroke:#000;stroke-opacity:1;stroke-miterlimit:10" d="m1-19-8.395 6.53" transform="matrix(20 0 0 20 1040 740)"/><path style="fill-rule:evenodd;fill:#000;fill-opacity:1;stroke-width:.35;stroke-linecap:butt;stroke-linejoin:miter;stroke:#000;stroke-opacity:1;stroke-miterlimit:10" d="m-7.691-12.24.241-.505.055.274.252.121-.548.11zm0 0" transform="matrix(20 0 0 20 1040 740)"/><path style="fill:none;stroke-width:.35;stroke-linecap:butt;stroke-linejoin:miter;stroke:#000;stroke-opacity:1;stroke-miterlimit:10" d="M-14-19v3.234" transform="matrix(20 0 0 20 1040 740)"/><path style="fill-rule:evenodd;fill:#000;fill-opacity:1;stroke-width:.35;stroke-linecap:butt;stroke-linejoin:miter;stroke:#000;stroke-opacity:1;stroke-miterlimit:10" d="m-14-15.391-.25-.5.25.125.25-.125-.25.5zm0 0" transform="matrix(20 0 0 20 1040 740)"/><path style="fill:none;stroke-width:.35;stroke-linecap:butt;stroke-linejoin:miter;stroke:#000;stroke-opacity:1;stroke-miterlimit:10" d="M-14-9v3.234" transform="matrix(20 0 0 20 1040 740)"/><path style="fill-rule:evenodd;fill:#000;fill-opacity:1;stroke-width:.35;stroke-linecap:butt;stroke-linejoin:miter;stroke:#000;stroke-opacity:1;stroke-miterlimit:10" d="m-14-5.391-.25-.5.25.125.25-.125-.25.5zm0 0" transform="matrix(20 0 0 20 1040 740)"/><path style="fill:none;stroke-width:.35;stroke-linecap:butt;stroke-linejoin:miter;stroke:#000;stroke-opacity:1;stroke-miterlimit:10" d="m-20-32-8.395 6.53" transform="matrix(20 0 0 20 1040 740)"/><path style="fill-rule:evenodd;fill:#000;fill-opacity:1;stroke-width:.35;stroke-linecap:butt;stroke-linejoin:miter;stroke:#000;stroke-opacity:1;stroke-miterlimit:10" d="m-28.691-25.24.241-.505.055.274.252.121-.548.11zm0 0" transform="matrix(20 0 0 20 1040 740)"/><path style="stroke:none;fill-rule:evenodd;fill:#a1bbe5;fill-opacity:1" d="M650 840h220v120H650zM650 850v-10c-5.523 0-10 4.477-10 10h10zM870 850h10c0-5.523-4.477-10-10-10v10zm0 0"/><path style="stroke:none;fill-rule:evenodd;fill:#a1bbe5;fill-opacity:1" d="M640 850h240v100H640zM650 950h-10c0 5.523 4.477 10 10 10v-10zM870 950v10c5.523 0 10-4.477 10-10h-10zm0 0"/><path style="fill:none;stroke-width:.1;stroke-linecap:butt;stroke-linejoin:miter;stroke:#000;stroke-opacity:1;stroke-miterlimit:10" d="M-19.5 5h11M-19.5 11h11M-19.5 5a.5.5 0 0 0-.5.5M-8 5.5a.5.5 0 0 0-.5-.5M-20 5.5v5M-8 5.5v5M-20 10.5a.5.5 0 0 0 .5.5M-8.5 11a.5.5 0 0 0 .5-.5" transform="matrix(20 0 0 20 1040 740)"/><use xlink:href="#a" x="745.898" y="913.223" style="fill:#000;fill-opacity:1"/><path style="stroke:none;fill-rule:evenodd;fill:#a1bbe5;fill-opacity:1" d="M650 640h220v120H650zM650 650v-10c-5.523 0-10 4.477-10 10h10zM870 650h10c0-5.523-4.477-10-10-10v10zm0 0"/><path style="stroke:none;fill-rule:evenodd;fill:#a1bbe5;fill-opacity:1" d="M640 650h240v100H640zM650 750h-10c0 5.523 4.477 10 10 10v-10zM870 750v10c5.523 0 10-4.477 10-10h-10zm0 0"/><path style="fill:none;stroke-width:.1;stroke-linecap:butt;stroke-linejoin:miter;stroke:#000;stroke-opacity:1;stroke-miterlimit:10" d="M-19.5-5h11M-19.5 1h11M-19.5-5a.5.5 0 0 0-.5.5M-8-4.5a.5.5 0 0 0-.5-.5M-20-4.5v5M-8-4.5v5M-20 .5a.5.5 0 0 0 .5.5M-8.5 1A.5.5 0 0 0-8 .5" transform="matrix(20 0 0 20 1040 740)"/><use xlink:href="#b" x="745.898" y="713.223" style="fill:#000;fill-opacity:1"/><path style="stroke:none;fill-rule:evenodd;fill:#a1bbe5;fill-opacity:1" d="M650 240h220v120H650zM650 250v-10c-5.523 0-10 4.477-10 10h10zM870 250h10c0-5.523-4.477-10-10-10v10zm0 0"/><path style="stroke:none;fill-rule:evenodd;fill:#a1bbe5;fill-opacity:1" d="M640 250h240v100H640zM650 350h-10c0 5.523 4.477 10 10 10v-10zM870 350v10c5.523 0 10-4.477 10-10h-10zm0 0"/><path style="fill:none;stroke-width:.1;stroke-linecap:butt;stroke-linejoin:miter;stroke:#000;stroke-opacity:1;stroke-miterlimit:10" d="M-19.5-25h11M-19.5-19h11M-19.5-25a.5.5 0 0 0-.5.5M-8-24.5a.5.5 0 0 0-.5-.5M-20-24.5v5M-8-24.5v5M-20-19.5a.5.5 0 0 0 .5.5M-8.5-19a.5.5 0 0 0 .5-.5" transform="matrix(20 0 0 20 1040 740)"/><use xlink:href="#c" x="745.898" y="313.223" style="fill:#000;fill-opacity:1"/><path style="stroke:none;fill-rule:evenodd;fill:#a1bbe5;fill-opacity:1" d="M650 440h220v120H650zM650 450v-10c-5.523 0-10 4.477-10 10h10zM870 450h10c0-5.523-4.477-10-10-10v10zm0 0"/><path style="stroke:none;fill-rule:evenodd;fill:#a1bbe5;fill-opacity:1" d="M640 450h240v100H640zM650 550h-10c0 5.523 4.477 10 10 10v-10zM870 550v10c5.523 0 10-4.477 10-10h-10zm0 0"/><path style="fill:none;stroke-width:.1;stroke-linecap:butt;stroke-linejoin:miter;stroke:#000;stroke-opacity:1;stroke-miterlimit:10" d="M-19.5-15h11M-19.5-9h11M-19.5-15a.5.5 0 0 0-.5.5M-8-14.5a.5.5 0 0 0-.5-.5M-20-14.5v5M-8-14.5v5M-20-9.5a.5.5 0 0 0 .5.5M-8.5-9a.5.5 0 0 0 .5-.5" transform="matrix(20 0 0 20 1040 740)"/><use xlink:href="#d" x="745.898" y="513.223" style="fill:#000;fill-opacity:1"/><path style="stroke:none;fill-rule:evenodd;fill:#a1bbe5;fill-opacity:1" d="M650 40h220v120H650zM650 50V40c-5.523 0-10 4.477-10 10h10zM870 50h10c0-5.523-4.477-10-10-10v10zm0 0"/><path style="stroke:none;fill-rule:evenodd;fill:#a1bbe5;fill-opacity:1" d="M640 50h240v100H640zM650 150h-10c0 5.523 4.477 10 10 10v-10zM870 150v10c5.523 0 10-4.477 10-10h-10zm0 0"/><path style="fill:none;stroke-width:.1;stroke-linecap:butt;stroke-linejoin:miter;stroke:#000;stroke-opacity:1;stroke-miterlimit:10" d="M-19.5-35h11M-19.5-29h11M-19.5-35a.5.5 0 0 0-.5.5M-8-34.5a.5.5 0 0 0-.5-.5M-20-34.5v5M-8-34.5v5M-20-29.5a.5.5 0 0 0 .5.5M-8.5-29a.5.5 0 0 0 .5-.5" transform="matrix(20 0 0 20 1040 740)"/><use xlink:href="#e" x="745.898" y="113.223" style="fill:#000;fill-opacity:1"/><path style="stroke:none;fill-rule:evenodd;fill:#dedede;fill-opacity:1" d="M950 240h220v120H950zM950 250v-10c-5.523 0-10 4.477-10 10h10zM1170 250h10c0-5.523-4.477-10-10-10v10zm0 0"/><path style="stroke:none;fill-rule:evenodd;fill:#dedede;fill-opacity:1" d="M940 250h240v100H940zM950 350h-10c0 5.523 4.477 10 10 10v-10zM1170 350v10c5.523 0 10-4.477 10-10h-10zm0 0"/><path style="fill:none;stroke-width:.1;stroke-linecap:butt;stroke-linejoin:miter;stroke:#000;stroke-opacity:1;stroke-miterlimit:10" d="M-4.5-25h11M-4.5-19h11M-4.5-25a.5.5 0 0 0-.5.5M7-24.5a.5.5 0 0 0-.5-.5M-5-24.5v5M7-24.5v5M-5-19.5a.5.5 0 0 0 .5.5M6.5-19a.5.5 0 0 0 .5-.5" transform="matrix(20 0 0 20 1040 740)"/><use xlink:href="#f" x="1045.898" y="313.223" style="fill:#000;fill-opacity:1"/><path style="stroke:none;fill-rule:evenodd;fill:#e9a4de;fill-opacity:1" d="M350 440h220v120H350zM350 450v-10c-5.523 0-10 4.477-10 10h10zM570 450h10c0-5.523-4.477-10-10-10v10zm0 0"/><path style="stroke:none;fill-rule:evenodd;fill:#e9a4de;fill-opacity:1" d="M340 450h240v100H340zM350 550h-10c0 5.523 4.477 10 10 10v-10zM570 550v10c5.523 0 10-4.477 10-10h-10zm0 0"/><path style="fill:none;stroke-width:.1;stroke-linecap:butt;stroke-linejoin:miter;stroke:#000;stroke-opacity:1;stroke-miterlimit:10" d="M-34.5-15h11M-34.5-9h11M-34.5-15a.5.5 0 0 0-.5.5M-23-14.5a.5.5 0 0 0-.5-.5M-35-14.5v5M-23-14.5v5M-35-9.5a.5.5 0 0 0 .5.5M-23.5-9a.5.5 0 0 0 .5-.5" transform="matrix(20 0 0 20 1040 740)"/><use xlink:href="#g" x="445.898" y="513.223" style="fill:#000;fill-opacity:1"/><path style="stroke:none;fill-rule:evenodd;fill:#e9a4de;fill-opacity:1" d="M350 240h220v120H350zM350 250v-10c-5.523 0-10 4.477-10 10h10zM570 250h10c0-5.523-4.477-10-10-10v10zm0 0"/><path style="stroke:none;fill-rule:evenodd;fill:#e9a4de;fill-opacity:1" d="M340 250h240v100H340zM350 350h-10c0 5.523 4.477 10 10 10v-10zM570 350v10c5.523 0 10-4.477 10-10h-10zm0 0"/><path style="fill:none;stroke-width:.1;stroke-linecap:butt;stroke-linejoin:miter;stroke:#000;stroke-opacity:1;stroke-miterlimit:10" d="M-34.5-25h11M-34.5-19h11M-34.5-25a.5.5 0 0 0-.5.5M-23-24.5a.5.5 0 0 0-.5-.5M-35-24.5v5M-23-24.5v5M-35-19.5a.5.5 0 0 0 .5.5M-23.5-19a.5.5 0 0 0 .5-.5" transform="matrix(20 0 0 20 1040 740)"/><use xlink:href="#h" x="445.898" y="313.223" style="fill:#000;fill-opacity:1"/></svg>