<svg xmlns="http://www.w3.org/2000/svg" xmlns:xlink="http://www.w3.org/1999/xlink" width="2960pt" height="1280" viewBox="0 0 2960 960"><defs><symbol overflow="visible" id="a"><path style="stroke:none" d="M12.898-23.715a9.984 9.984 0 0 1 4.036.84 9.758 9.758 0 0 1 3.328 2.41c.945 1.05 1.695 2.328 2.258 3.836.554 1.508.835 3.192.84 5.05-.005 1.9-.274 3.595-.813 5.079-.543 1.492-1.29 2.77-2.235 3.836a9.525 9.525 0 0 1-3.351 2.437C15.67.332 14.3.61 12.848.61a9.761 9.761 0 0 1-4.192-.914A10.84 10.84 0 0 1 5.23-2.816C4.246-3.883 3.47-5.16 2.895-6.652c-.579-1.485-.868-3.094-.864-4.825a13.252 13.252 0 0 1 .887-4.875c.594-1.52 1.387-2.812 2.387-3.882a11.482 11.482 0 0 1 3.48-2.54 9.541 9.541 0 0 1 4.113-.94zm6.805 12.238c-.004-1.453-.2-2.746-.586-3.882-.39-1.133-.906-2.09-1.547-2.871-.644-.774-1.383-1.368-2.21-1.778a5.991 5.991 0 0 0-2.614-.61 5.97 5.97 0 0 0-2.617.61c-.832.41-1.559 1.004-2.184 1.778-.625.78-1.125 1.718-1.496 2.82-.375 1.101-.562 2.348-.558 3.73-.004 1.36.183 2.594.558 3.707.371 1.121.871 2.086 1.496 2.895.625.816 1.36 1.441 2.211 1.879a5.68 5.68 0 0 0 2.692.66 6.128 6.128 0 0 0 2.664-.582 6.18 6.18 0 0 0 2.183-1.727c.625-.757 1.114-1.699 1.473-2.82.352-1.113.531-2.383.535-3.809zm0 0"/></symbol><symbol overflow="visible" id="b"><path style="stroke:none" d="M5.027-23.207h3.758l-.101 4.469a7.694 7.694 0 0 1 3.386-3.73 10.041 10.041 0 0 1 4.973-1.298c2.512 0 4.582.848 6.215 2.54l-1.676 3.503a22.31 22.31 0 0 0-1.02-1.27 5.56 5.56 0 0 0-.996-.862 4.904 4.904 0 0 0-1.171-.56c-.43-.132-.946-.198-1.555-.202a6.688 6.688 0 0 0-3.164.789 8.699 8.699 0 0 0-2.574 2.082 10.563 10.563 0 0 0-1.758 2.969 9.448 9.448 0 0 0-.66 3.504V.05H5.027zm0 0"/></symbol><symbol overflow="visible" id="c"><path style="stroke:none" d="M5.383-23.207h9.293v20.262h5.433V0H5.08v-2.945h5.94v-17.317H5.384zm5.687-9.344a2.511 2.511 0 0 1 1.828-.761c.707.003 1.325.265 1.852.789.523.527.79 1.144.79 1.851 0 .715-.267 1.324-.79 1.828-.527.512-1.145.766-1.852.762a2.451 2.451 0 0 1-1.828-.762 2.451 2.451 0 0 1-.761-1.828c-.004-.742.25-1.367.761-1.879zm0 0"/></symbol><symbol overflow="visible" id="d"><path style="stroke:none" d="M7.871-19.508a4.767 4.767 0 0 0-1.117 1.668 5.223 5.223 0 0 0-.356 1.918c0 .68.133 1.328.407 1.95a4.96 4.96 0 0 0 1.09 1.617c.453.457.996.82 1.625 1.085a4.76 4.76 0 0 0 1.957.403 4.74 4.74 0 0 0 1.98-.403 5.285 5.285 0 0 0 1.625-1.113A5.327 5.327 0 0 0 16.199-14c.27-.602.406-1.242.406-1.922 0-.668-.136-1.316-.406-1.941a5.402 5.402 0 0 0-1.117-1.645 5.367 5.367 0 0 0-1.652-1.11 4.889 4.889 0 0 0-1.953-.405c-1.391 0-2.594.507-3.606 1.515zm9.344-2.226c1.625-1.383 3.555-2.078 5.789-2.082h.66l.457 3.046a9.704 9.704 0 0 0-1.371-.102c-1.492 0-2.828.356-4.012 1.067a7.03 7.03 0 0 1 1.168 3.91 7.418 7.418 0 0 1-.66 3.075 8.179 8.179 0 0 1-1.805 2.539 8.534 8.534 0 0 1-2.664 1.726 8.396 8.396 0 0 1-3.25.633c-.953 0-1.933-.183-2.945-.558-1.086 1.054-1.629 1.933-1.625 2.64-.004.578.328 1.027.988 1.348.66.324 1.567.484 2.72.48.64.004 1.288-.02 1.952-.074a28.976 28.976 0 0 1 1.856-.078c1.523.004 2.832.148 3.933.434 1.098.289 1.989.695 2.668 1.218.676.528 1.184 1.145 1.524 1.852.336.71.504 1.469.507 2.285a5.89 5.89 0 0 1-.66 2.664c-.441.863-1.101 1.625-1.98 2.285-.883.66-1.992 1.184-3.328 1.574-1.34.387-2.907.582-4.696.586-1.867-.004-3.464-.148-4.8-.433-1.336-.29-2.41-.688-3.223-1.192-.813-.511-1.434-1.093-1.856-1.754A3.784 3.784 0 0 1 1.93 3.25C1.926 1.418 3.195-.29 5.738-1.879c-1.258-.64-1.883-1.707-1.879-3.2-.004-1.452.875-2.91 2.641-4.366a7.558 7.558 0 0 1-2.54-2.742 7.31 7.31 0 0 1-.913-3.555c0-1.149.234-2.223.71-3.223a8.586 8.586 0 0 1 1.903-2.617 8.98 8.98 0 0 1 2.742-1.75 8.394 8.394 0 0 1 3.176-.637c2.266.004 4.145.75 5.637 2.235zM8.175-1.22C6.243-.137 5.278 1.047 5.282 2.336c-.004.676.192 1.242.582 1.7.387.456.91.827 1.574 1.116.657.285 1.438.5 2.336.637.899.133 1.836.2 2.82.203 2.063-.004 3.774-.375 5.13-1.117 1.351-.746 2.027-1.746 2.03-2.996-.07-.918-.448-1.625-1.144-2.133-.695-.504-1.789-.758-3.273-.762-.172.004-.34.012-.508.028-.172.02-.34.027-.508.023-1.289.004-2.441-.02-3.453-.074a60.698 60.698 0 0 1-2.691-.18zm0 0"/></symbol><symbol overflow="visible" id="e"><path style="stroke:none" d="M3.453 0v-23.207H7.11v4.113a10.364 10.364 0 0 1 3.399-3.402c1.379-.844 2.785-1.27 4.219-1.27 1.02 0 1.976.18 2.863.536.887.355 1.652.921 2.3 1.699.645.781 1.15 1.781 1.508 2.996.36 1.223.54 2.71.54 4.469V0H18.28v-13.965c0-2.433-.418-4.144-1.25-5.129-.836-.98-1.847-1.472-3.035-1.472-.785 0-1.586.171-2.398.507a7.307 7.307 0 0 0-2.22 1.45 7.496 7.496 0 0 0-1.632 2.257c-.426.883-.64 1.883-.637 2.997V0zm0 0"/></symbol><symbol overflow="visible" id="i"><path style="stroke:none" d="M1.93 0v-23.207H5.28v2.285a6.536 6.536 0 0 1 2.082-2.055c.844-.523 1.742-.789 2.692-.789.98 0 1.851.325 2.613.965a4.28 4.28 0 0 1 1.45 2.438c.437-1.012 1.132-1.832 2.081-2.461a5.504 5.504 0 0 1 3.098-.942c1.586 0 2.754.57 3.504 1.703.742 1.137 1.082 2.547 1.015 4.239V0h-3.351v-16.453c-.004-1.047-.055-1.875-.152-2.488-.106-.606-.274-1.07-.508-1.395-.239-.32-.477-.523-.711-.61-.239-.081-.543-.124-.914-.128-.442.004-.883.183-1.32.535-.446.36-.833.805-1.169 1.344a7.29 7.29 0 0 0-.812 1.855 6.867 6.867 0 0 0-.305 2.004V0h-3.402v-16.148c-.004-1.93-.184-3.215-.535-3.86-.36-.64-.977-.96-1.852-.965-.816.004-1.601.485-2.363 1.45-.762.964-1.145 2.312-1.14 4.035V0zm0 0"/></symbol><symbol overflow="visible" id="j"><path style="stroke:none" d="M4.621-20.465c2.063-2.164 4.82-3.246 8.277-3.25 2.84.004 5.082.723 6.727 2.16 1.64 1.442 2.465 3.836 2.465 7.184V0h-3.453v-2.54C16.164-.472 13.387.556 10.309.56 9.086.555 7.996.37 7.03 0c-.965-.371-1.785-.86-2.46-1.473A6.17 6.17 0 0 1 3.02-3.555c-.36-.777-.536-1.554-.532-2.336-.004-2.332 1.004-4.18 3.02-5.535 2.015-1.351 4.918-2.094 8.71-2.234h4.368v-.871c0-2.317-.484-3.934-1.45-4.856-.964-.918-2.46-1.379-4.491-1.383-2.508.004-4.59.883-6.247 2.641zm14.117 9.598h-.863c-.477.004-.926-.004-1.348-.024-.425-.015-.84-.023-1.242-.027-1.863.004-3.387.129-4.57.383-1.188.254-2.117.601-2.793 1.039-.68.441-1.149.941-1.399 1.5a4.185 4.185 0 0 0-.378 1.8c-.004 1.087.468 2.016 1.421 2.794.946.78 2.114 1.172 3.504 1.168 1.012.004 1.926-.157 2.742-.48.81-.321 1.52-.712 2.133-1.169.606-.457 1.098-.93 1.473-1.422.371-.488.64-.922.812-1.297.336-.675.508-1.59.508-2.742zm0 0"/></symbol><symbol overflow="visible" id="k"><path style="stroke:none" d="m21.938-20.11-2.133 3.2c-.172-.031-.258-.164-.258-.406 0-.235-.035-.407-.102-.508-.617-.778-1.488-1.496-2.613-2.156-1.129-.66-2.41-.989-3.84-.993a7.72 7.72 0 0 0-1.87.23 6.06 6.06 0 0 0-1.587.634 3.213 3.213 0 0 0-1.101 1.043 2.543 2.543 0 0 0-.41 1.445c-.004.41.097.773.304 1.094.203.324.527.636.973.937.437.309 1.062.613 1.867.914.8.309 1.848.649 3.145 1.016 2.93.781 5 1.703 6.214 2.77 1.207 1.066 1.813 2.378 1.817 3.933a6.656 6.656 0 0 1-.66 2.894c-.442.918-1.086 1.711-1.93 2.387-.852.68-1.867 1.215-3.047 1.602-1.187.387-2.523.578-4.012.582-3.894-.004-7.16-1.219-9.8-3.656l2.082-3.657c.097.11.168.274.203.496.03.227.148.497.36.805.202.316.577.672 1.124 1.066.543.403 1.379.844 2.508 1.325.508.246 1.09.418 1.738.52.649.105 1.297.155 1.945.155.68 0 1.368-.082 2.07-.253a7.201 7.201 0 0 0 1.895-.743 4.337 4.337 0 0 0 1.356-1.175c.34-.457.508-.977.512-1.559-.004-.883-.41-1.633-1.227-2.246-.82-.613-2.32-1.242-4.5-1.895-1.5-.437-2.492-.746-2.969-.918-1.23-.476-2.117-.89-2.66-1.25a7.284 7.284 0 0 1-1.484-1.273 5.906 5.906 0 0 1-1.075-1.68 5.043 5.043 0 0 1-.406-2.066c-.004-.813.219-1.594.66-2.344.438-.746 1.055-1.406 1.852-1.988.797-.574 1.742-1.043 2.844-1.402 1.097-.356 2.293-.536 3.582-.536 3.55 0 6.43 1.22 8.633 3.657zm0 0"/></symbol><symbol overflow="visible" id="l"><path style="stroke:none" d="m9.547-29.402 3.96-.66a2.55 2.55 0 0 1-.128.812 5.453 5.453 0 0 0-.176.559l-.61 5.484h7.618v2.945h-7.617c-.309 3.032-.461 5.875-.457 8.532a65.325 65.325 0 0 0 .101 4.136c.067 1.125.246 2.012.535 2.657.29.648.704 1.152 1.25 1.507.54.36 1.274.535 2.196.535 1.562 0 3.297-.71 5.207-2.132l1.12 2.894c-2.335 1.727-4.741 2.59-7.21 2.59-2.441 0-4.219-.738-5.332-2.215C8.883-3.234 8.375-5.633 8.48-8.96c-.003-1.219.032-2.781.102-4.684.066-1.898.203-4.105.406-6.617H3.555v-2.945H9.14zm0 0"/></symbol><symbol overflow="visible" id="m"><path style="stroke:none" d="M13.152-23.766c1.215 0 2.399.223 3.555.66a8.339 8.339 0 0 1 3.02 2.008c.863.899 1.558 2.04 2.082 3.426.523 1.39.785 3.035.789 4.926-.004.273-.012.55-.028.84-.015.289-.043.57-.074.836H5.992c.067 1.629.344 2.992.836 4.09.488 1.101 1.11 1.988 1.856 2.664a6.516 6.516 0 0 0 2.488 1.449c.91.289 1.824.43 2.742.43 2.402 0 4.399-.864 5.992-2.59l2.032 1.98C19.973-.68 17.261.503 13.813.508 12.117.504 10.57.246 9.163-.277 7.758-.801 6.563-1.574 5.586-2.59 4.602-3.605 3.84-4.863 3.3-6.37c-.547-1.504-.817-3.223-.813-5.156-.004-1.961.274-3.707.836-5.23.555-1.524 1.317-2.802 2.285-3.833a9.798 9.798 0 0 1 3.38-2.363c1.284-.54 2.671-.813 4.163-.813zm-7.007 9.75H18.89c0-.132.007-.257.023-.375a4.03 4.03 0 0 0 .027-.425 6.06 6.06 0 0 0-.484-2.375 6.355 6.355 0 0 0-1.293-1.954 6.575 6.575 0 0 0-1.906-1.328 5.679 5.679 0 0 0-2.36-.5c-1.593.004-3.03.563-4.316 1.676-1.289 1.121-2.102 2.879-2.437 5.281zm0 0"/></symbol><symbol overflow="visible" id="o"><path style="stroke:none" d="m3.25.66 15.895-34.43 3.046 1.575L6.246 2.133zm0 0"/></symbol><symbol overflow="visible" id="q"><path style="stroke:none" d="M17.418-34.074c2.941.004 5.312 1.07 7.11 3.199l-1.676 3.352c-.274.003-.41-.13-.407-.399-.004-.265-.039-.469-.101-.601-.547-.766-1.266-1.391-2.16-1.88a6.142 6.142 0 0 0-2.918-.726c-.883.004-1.645.129-2.286.379-.644.254-1.218.668-1.726 1.238-.508.575-.89 1.348-1.145 2.325-.254.976-.379 2.171-.379 3.582v1.77h7.618v2.944H11.73V0H8.227v-18.89H3.199v-2.946h5.028v-2.285c0-1.793.226-3.324.683-4.594.457-1.27 1.117-2.293 1.98-3.074a8.456 8.456 0 0 1 2.946-1.727c1.098-.37 2.293-.554 3.582-.558zm0 0"/></symbol><symbol overflow="visible" id="r"><path style="stroke:none" d="m23.207-19.348-2.59 2.996c-.172-.097-.25-.207-.23-.328.015-.117 0-.277-.051-.484-.055-.2-.184-.453-.387-.762-.207-.3-.613-.707-1.222-1.219-1.165-.945-2.75-1.421-4.758-1.421-.992 0-1.942.203-2.84.609-.906.406-1.7.988-2.379 1.746-.688.758-1.23 1.672-1.637 2.734-.41 1.067-.617 2.254-.613 3.57-.004 1.317.203 2.532.613 3.645.407 1.117.969 2.082 1.688 2.887a7.54 7.54 0 0 0 2.558 1.898c.989.461 2.079.688 3.274.684 2.347.004 4.379-.926 6.086-2.793l2.133 2.488C20.547-.66 17.719.555 14.372.56 12.71.555 11.18.254 9.772-.355a10.968 10.968 0 0 1-3.656-2.54c-1.031-1.082-1.836-2.359-2.41-3.832-.578-1.472-.867-3.09-.863-4.851-.004-1.727.285-3.332.863-4.824.574-1.485 1.379-2.762 2.41-3.832 1.031-1.063 2.266-1.903 3.707-2.516 1.438-.605 3.004-.91 4.7-.914 1.824.004 3.492.387 5 1.144a9.893 9.893 0 0 1 3.683 3.172zm0 0"/></symbol><symbol overflow="visible" id="s"><path style="stroke:none" d="M3.555 0v-33.77h4.164c-.004.04.004.055.023.051.016.004.028.02.028.051 0 .102-.079.246-.23.434a1.741 1.741 0 0 0-.33.683v13.457c.915-1.418 2.06-2.55 3.438-3.402 1.375-.844 2.778-1.27 4.207-1.27 1.047 0 2.008.18 2.875.536.868.355 1.622.921 2.27 1.699.64.781 1.133 1.781 1.477 2.996.335 1.223.507 2.71.511 4.469V0h-3.656v-13.965c-.004-2.433-.418-4.144-1.246-5.129-.828-.98-1.836-1.472-3.02-1.472-.78 0-1.558.171-2.336.507a9.531 9.531 0 0 0-2.261 1.422 6.187 6.187 0 0 0-1.676 2.235c-.39.882-.586 1.898-.582 3.047V0zm0 0"/></symbol><symbol overflow="visible" id="f"><path style="stroke:none" d="M3.047-35.152h8.183c3.004.004 5.344.418 7.024 1.242 1.672.828 3.094 2.012 4.258 3.555 1.164 1.543 2.027 3.406 2.597 5.585.563 2.184.848 4.645.848 7.391 0 2.711-.34 5.14-1.016 7.281-.68 2.149-1.609 3.98-2.793 5.5-1.187 1.528-2.722 2.684-4.601 3.47C15.664-.34 13.332.05 10.55.054H3.047zM6.77-31.88v28.832h3.585c3.993 0 6.915-1.215 8.766-3.644 1.844-2.43 2.77-5.926 2.774-10.489-.043-4.597-.895-8.195-2.551-10.797-1.664-2.597-4.453-3.898-8.371-3.902zm0 0"/></symbol><symbol overflow="visible" id="g"><path style="stroke:none" d="M2.707-35.152h9.988c2.028.004 3.785.199 5.274.593 1.484.395 2.68.989 3.586 1.774.902.789 1.597 1.7 2.086 2.73.488 1.035.734 2.168.734 3.407 0 1.652-.453 3.21-1.355 4.675-.903 1.465-2.18 2.5-3.836 3.098a9.748 9.748 0 0 1 2.68 1.441 11.68 11.68 0 0 1 2.116 2.118 8.884 8.884 0 0 1 1.352 2.574c.297.926.45 1.875.453 2.851-.004 2.977-1.058 5.371-3.16 7.18C20.515-.902 17.187 0 12.641 0H2.707zm3.895 3.273v11.285h5.484c1.566.004 2.855-.136 3.863-.426 1.008-.28 1.817-.671 2.434-1.164a4.661 4.661 0 0 0 1.37-1.785 7.47 7.47 0 0 0 .56-2.242 7.668 7.668 0 0 0-.532-2.21c-.281-.677-.722-1.27-1.316-1.786-.602-.508-1.363-.914-2.293-1.219-.934-.297-2.09-.449-3.469-.453zm0 14.555v13.883h6.765c3.028.003 5.14-.63 6.336-1.899 1.192-1.262 1.863-2.86 2.02-4.789-.078-1.055-.285-2.016-.625-2.887a6.33 6.33 0 0 0-1.563-2.293c-.703-.66-1.652-1.16-2.844-1.504-1.195-.335-2.625-.507-4.289-.511zm0 0"/></symbol><symbol overflow="visible" id="h"><path style="stroke:none" d="m.875 0 12.414-35.773h.45L27.28 0H23.22l-3.895-10.27H8.152L4.77 0zm17.547-13.316-4.965-13.43-4.512 13.43zm0 0"/></symbol><symbol overflow="visible" id="n"><path style="stroke:none" d="M22.457-27.188c-.004-.44-.059-.769-.168-.992a8.673 8.673 0 0 0-2.937-2.906c-1.207-.715-2.485-1.074-3.836-1.078a7.088 7.088 0 0 0-3.61.988c-1.129.66-2.129 1.621-2.992 2.88-.867 1.265-1.543 2.796-2.031 4.597-.488 1.808-.73 3.86-.73 6.152 0 2.223.242 4.246.73 6.067.488 1.828 1.176 3.386 2.058 4.683.883 1.297 1.918 2.305 3.106 3.02a7.239 7.239 0 0 0 3.808 1.07c1.391 0 2.735-.395 4.036-1.188 1.293-.789 2.336-1.859 3.132-3.214l2.934 1.918a10.945 10.945 0 0 1-2.035 2.484A13.528 13.528 0 0 1 21.41-.902c-.883.492-1.765.855-2.648 1.097-.883.242-1.778.367-2.68.367-2.035 0-3.832-.347-5.39-1.042-1.563-.696-2.993-1.774-4.29-3.243-1.3-1.465-2.308-3.328-3.02-5.586-.718-2.254-1.073-4.945-1.07-8.07-.003-3.46.41-6.348 1.243-8.66.824-2.313 1.914-4.164 3.273-5.559 1.352-1.39 2.793-2.379 4.317-2.96 1.523-.583 3-.872 4.43-.876 1.163.004 2.3.172 3.413.508 1.106.34 2.14.809 3.102 1.41.96.602 1.816 1.328 2.566 2.172.75.852 1.352 1.801 1.809 2.848l-3.781 1.863c-.157-.105-.23-.293-.227-.555zm0 0"/></symbol></defs><path style="fill-rule:nonzero;fill:#fff;fill-opacity:1;stroke-width:0;stroke-linecap:butt;stroke-linejoin:miter;stroke:#000;stroke-opacity:1;stroke-miterlimit:10" d="M0 0h148v48H0zm0 0" transform="scale(20)"/><path style="fill-rule:evenodd;fill:#fefad8;fill-opacity:1;stroke-width:.1;stroke-linecap:butt;stroke-linejoin:round;stroke:#000;stroke-opacity:1;stroke-miterlimit:10" d="M30.3 2h17.4a.3.3 0 0 1 .3.3v37.4a.3.3 0 0 1-.3.3H30.3a.3.3 0 0 1-.3-.3V2.3a.3.3 0 0 1 .3-.3" transform="scale(20)"/><path style="fill:none;stroke-width:.35;stroke-linecap:butt;stroke-linejoin:round;stroke:#000;stroke-opacity:1;stroke-miterlimit:10" d="M39 27.049v4.185" transform="scale(20)"/><path style="fill-rule:evenodd;fill:#000;fill-opacity:1;stroke-width:.35;stroke-linecap:butt;stroke-linejoin:miter;stroke:#000;stroke-opacity:1;stroke-miterlimit:10" d="m39 31.609-.25-.5.25.125.25-.125-.25.5zm0 0" transform="scale(20)"/><path style="fill:none;stroke-width:.35;stroke-linecap:butt;stroke-linejoin:miter;stroke:#000;stroke-opacity:1;stroke-miterlimit:10" d="M39 16v4.185" transform="scale(20)"/><path style="fill-rule:evenodd;fill:#000;fill-opacity:1;stroke-width:.35;stroke-linecap:butt;stroke-linejoin:miter;stroke:#000;stroke-opacity:1;stroke-miterlimit:10" d="m39 20.56-.25-.5.25.125.25-.125-.25.5zm0 0" transform="scale(20)"/><g style="fill:#000;fill-opacity:1"><use xlink:href="#a" x="703.828" y="97"/><use xlink:href="#b" x="729.219" y="97"/><use xlink:href="#c" x="754.609" y="97"/><use xlink:href="#d" x="780" y="97"/><use xlink:href="#c" x="805.391" y="97"/><use xlink:href="#e" x="830.781" y="97"/></g><path style="fill:none;stroke-width:.8;stroke-linecap:butt;stroke-linejoin:miter;stroke:#000;stroke-opacity:1;stroke-miterlimit:10" d="M63 43h44.7" transform="scale(20)"/><path style="fill-rule:evenodd;fill:#000;fill-opacity:1;stroke-width:.8;stroke-linecap:butt;stroke-linejoin:miter;stroke:#000;stroke-opacity:1;stroke-miterlimit:10" d="m107.7 43.45.9-.45-.9-.45v.9zm0 0" transform="scale(20)"/><path style="fill:none;stroke-width:.35;stroke-linecap:butt;stroke-linejoin:miter;stroke:#000;stroke-opacity:1;stroke-miterlimit:10" d="M60 27v4.234" transform="scale(20)"/><path style="fill-rule:evenodd;fill:#000;fill-opacity:1;stroke-width:.35;stroke-linecap:butt;stroke-linejoin:miter;stroke:#000;stroke-opacity:1;stroke-miterlimit:10" d="m60 31.609-.25-.5.25.125.25-.125-.25.5zm0 0" transform="scale(20)"/><path style="fill:none;stroke-width:.35;stroke-linecap:butt;stroke-linejoin:miter;stroke:#000;stroke-opacity:1;stroke-miterlimit:10" d="M60 16v4.234" transform="scale(20)"/><path style="fill-rule:evenodd;fill:#000;fill-opacity:1;stroke-width:.35;stroke-linecap:butt;stroke-linejoin:miter;stroke:#000;stroke-opacity:1;stroke-miterlimit:10" d="m60 20.609-.25-.5.25.125.25-.125-.25.5zm0 0" transform="scale(20)"/><path style="stroke:none;fill-rule:evenodd;fill:#e9a4de;fill-opacity:1" d="M1090 200h220v120h-220zM1090 210v-10c-5.523 0-10 4.477-10 10h10zM1310 210h10c0-5.523-4.477-10-10-10v10zm0 0"/><path style="stroke:none;fill-rule:evenodd;fill:#e9a4de;fill-opacity:1" d="M1080 210h240v100h-240zM1090 310h-10c0 5.523 4.477 10 10 10v-10zM1310 310v10c5.523 0 10-4.477 10-10h-10zm0 0"/><path style="fill:none;stroke-width:.1;stroke-linecap:butt;stroke-linejoin:miter;stroke:#000;stroke-opacity:1;stroke-miterlimit:10" d="M54.5 10h11M54.5 16h11M54.5 10a.5.5 0 0 0-.5.5M66 10.5a.5.5 0 0 0-.5-.5M54 10.5v5M66 10.5v5M54 15.5a.5.5 0 0 0 .5.5M65.5 16a.5.5 0 0 0 .5-.5" transform="scale(20)"/><use xlink:href="#f" x="1185.898" y="273.223" style="fill:#000;fill-opacity:1"/><path style="stroke:none;fill-rule:evenodd;fill:#dedede;fill-opacity:1" d="M1090 420h220v120h-220zM1090 430v-10c-5.523 0-10 4.477-10 10h10zM1310 430h10c0-5.523-4.477-10-10-10v10zm0 0"/><path style="stroke:none;fill-rule:evenodd;fill:#dedede;fill-opacity:1" d="M1080 430h240v100h-240zM1090 530h-10c0 5.523 4.477 10 10 10v-10zM1310 530v10c5.523 0 10-4.477 10-10h-10zm0 0"/><path style="fill:none;stroke-width:.1;stroke-linecap:butt;stroke-linejoin:miter;stroke:#000;stroke-opacity:1;stroke-miterlimit:10" d="M54.5 21h11M54.5 27h11M54.5 21a.5.5 0 0 0-.5.5M66 21.5a.5.5 0 0 0-.5-.5M54 21.5v5M66 21.5v5M54 26.5a.5.5 0 0 0 .5.5M65.5 27a.5.5 0 0 0 .5-.5" transform="scale(20)"/><use xlink:href="#g" x="1185.898" y="493.223" style="fill:#000;fill-opacity:1"/><path style="stroke:none;fill-rule:evenodd;fill:#dedede;fill-opacity:1" d="M1090 640h220v120h-220zM1090 650v-10c-5.523 0-10 4.477-10 10h10zM1310 650h10c0-5.523-4.477-10-10-10v10zm0 0"/><path style="stroke:none;fill-rule:evenodd;fill:#dedede;fill-opacity:1" d="M1080 650h240v100h-240zM1090 750h-10c0 5.523 4.477 10 10 10v-10zM1310 750v10c5.523 0 10-4.477 10-10h-10zm0 0"/><path style="fill:none;stroke-width:.1;stroke-linecap:butt;stroke-linejoin:miter;stroke:#000;stroke-opacity:1;stroke-miterlimit:10" d="M54.5 32h11M54.5 38h11M54.5 32a.5.5 0 0 0-.5.5M66 32.5a.5.5 0 0 0-.5-.5M54 32.5v5M66 32.5v5M54 37.5a.5.5 0 0 0 .5.5M65.5 38a.5.5 0 0 0 .5-.5" transform="scale(20)"/><use xlink:href="#h" x="1185.898" y="713.223" style="fill:#000;fill-opacity:1"/><path style="stroke:none;fill-rule:evenodd;fill:#a9e5a1;fill-opacity:1" d="M1090 120h220v65.5h-220zM1090 130v-10c-5.523 0-10 4.477-10 10h10zM1310 130h10c0-5.523-4.477-10-10-10v10zm0 0"/><path style="stroke:none;fill-rule:evenodd;fill:#a9e5a1;fill-opacity:1" d="M1080 130h240v45.5h-240zM1090 175.5h-10c0 5.523 4.477 10 10 10v-10zM1310 175.5v10c5.523 0 10-4.477 10-10h-10zm0 0"/><path style="fill:none;stroke-width:.1;stroke-linecap:butt;stroke-linejoin:miter;stroke:#000;stroke-opacity:1;stroke-miterlimit:10" d="M54.5 6h11M54.5 9.275h11M54.5 6a.5.5 0 0 0-.5.5M66 6.5a.5.5 0 0 0-.5-.5M54 6.5v2.275M66 6.5v2.275M54 8.775a.5.5 0 0 0 .5.5M65.5 9.275a.5.5 0 0 0 .5-.5" transform="scale(20)"/><g style="fill:#000;fill-opacity:1"><use xlink:href="#i" x="1123.828" y="164.648"/><use xlink:href="#j" x="1149.219" y="164.648"/><use xlink:href="#k" x="1174.609" y="164.648"/><use xlink:href="#l" x="1200" y="164.648"/><use xlink:href="#m" x="1225.391" y="164.648"/><use xlink:href="#b" x="1250.781" y="164.648"/></g><path style="stroke:none;fill-rule:evenodd;fill:#a9e5a1;fill-opacity:1" d="M670 120h220v65.5H670zM670 130v-10c-5.523 0-10 4.477-10 10h10zM890 130h10c0-5.523-4.477-10-10-10v10zm0 0"/><path style="stroke:none;fill-rule:evenodd;fill:#a9e5a1;fill-opacity:1" d="M660 130h240v45.5H660zM670 175.5h-10c0 5.523 4.477 10 10 10v-10zM890 175.5v10c5.523 0 10-4.477 10-10h-10zm0 0"/><path style="fill:none;stroke-width:.1;stroke-linecap:butt;stroke-linejoin:miter;stroke:#000;stroke-opacity:1;stroke-miterlimit:10" d="M33.5 6h11M33.5 9.275h11M33.5 6a.5.5 0 0 0-.5.5M45 6.5a.5.5 0 0 0-.5-.5M33 6.5v2.275M45 6.5v2.275M33 8.775a.5.5 0 0 0 .5.5M44.5 9.275a.5.5 0 0 0 .5-.5" transform="scale(20)"/><g style="fill:#000;fill-opacity:1"><use xlink:href="#i" x="703.828" y="164.648"/><use xlink:href="#j" x="729.219" y="164.648"/><use xlink:href="#k" x="754.609" y="164.648"/><use xlink:href="#l" x="780" y="164.648"/><use xlink:href="#m" x="805.391" y="164.648"/><use xlink:href="#b" x="830.781" y="164.648"/></g><path style="stroke:none;fill-rule:evenodd;fill:#a1bbe5;fill-opacity:1" d="M670 200h220v120H670zM670 210v-10c-5.523 0-10 4.477-10 10h10zM890 210h10c0-5.523-4.477-10-10-10v10zm0 0"/><path style="stroke:none;fill-rule:evenodd;fill:#a1bbe5;fill-opacity:1" d="M660 210h240v100H660zM670 310h-10c0 5.523 4.477 10 10 10v-10zM890 310v10c5.523 0 10-4.477 10-10h-10zm0 0"/><path style="fill:none;stroke-width:.1;stroke-linecap:butt;stroke-linejoin:miter;stroke:#000;stroke-opacity:1;stroke-miterlimit:10" d="M33.5 10h11M33.5 16h11M33.5 10a.5.5 0 0 0-.5.5M45 10.5a.5.5 0 0 0-.5-.5M33 10.5v5M45 10.5v5M33 15.5a.5.5 0 0 0 .5.5M44.5 16a.5.5 0 0 0 .5-.5" transform="scale(20)"/><use xlink:href="#n" x="765.898" y="273.223" style="fill:#000;fill-opacity:1"/><path style="stroke:none;fill-rule:evenodd;fill:#dedede;fill-opacity:1" d="M670 640h220v120H670zM670 650v-10c-5.523 0-10 4.477-10 10h10zM890 650h10c0-5.523-4.477-10-10-10v10zm0 0"/><path style="stroke:none;fill-rule:evenodd;fill:#dedede;fill-opacity:1" d="M660 650h240v100H660zM670 750h-10c0 5.523 4.477 10 10 10v-10zM890 750v10c5.523 0 10-4.477 10-10h-10zm0 0"/><path style="fill:none;stroke-width:.1;stroke-linecap:butt;stroke-linejoin:miter;stroke:#000;stroke-opacity:1;stroke-miterlimit:10" d="M33.5 32h11M33.5 38h11M33.5 32a.5.5 0 0 0-.5.5M45 32.5a.5.5 0 0 0-.5-.5M33 32.5v5M45 32.5v5M33 37.5a.5.5 0 0 0 .5.5M44.5 38a.5.5 0 0 0 .5-.5" transform="scale(20)"/><use xlink:href="#h" x="765.898" y="713.223" style="fill:#000;fill-opacity:1"/><path style="stroke:none;fill-rule:evenodd;fill:#dedede;fill-opacity:1" d="M670 420h220v120H670zM670 430v-10c-5.523 0-10 4.477-10 10h10zM890 430h10c0-5.523-4.477-10-10-10v10zm0 0"/><path style="stroke:none;fill-rule:evenodd;fill:#dedede;fill-opacity:1" d="M660 430h240v100H660zM670 530h-10c0 5.523 4.477 10 10 10v-10zM890 530v10c5.523 0 10-4.477 10-10h-10zm0 0"/><path style="fill:none;stroke-width:.1;stroke-linecap:butt;stroke-linejoin:miter;stroke:#000;stroke-opacity:1;stroke-miterlimit:10" d="M33.5 21h11M33.5 27h11M33.5 21a.5.5 0 0 0-.5.5M45 21.5a.5.5 0 0 0-.5-.5M33 21.5v5M45 21.5v5M33 26.5a.5.5 0 0 0 .5.5M44.5 27a.5.5 0 0 0 .5-.5" transform="scale(20)"/><use xlink:href="#g" x="765.898" y="493.223" style="fill:#000;fill-opacity:1"/><path style="stroke:none;fill-rule:evenodd;fill:#a9e5a1;fill-opacity:1" d="M1030 340h340v65.5h-340zM1030 350v-10c-5.523 0-10 4.477-10 10h10zM1370 350h10c0-5.523-4.477-10-10-10v10zm0 0"/><path style="stroke:none;fill-rule:evenodd;fill:#a9e5a1;fill-opacity:1" d="M1020 350h360v45.5h-360zM1030 395.5h-10c0 5.523 4.477 10 10 10v-10zM1370 395.5v10c5.523 0 10-4.477 10-10h-10zm0 0"/><path style="fill:none;stroke-width:.1;stroke-linecap:butt;stroke-linejoin:miter;stroke:#000;stroke-opacity:1;stroke-miterlimit:10" d="M51.5 17h17M51.5 20.275h17M51.5 17a.5.5 0 0 0-.5.5M69 17.5a.5.5 0 0 0-.5-.5M51 17.5v2.275M69 17.5v2.275M51 19.775a.5.5 0 0 0 .5.5M68.5 20.275a.5.5 0 0 0 .5-.5" transform="scale(20)"/><g style="fill:#000;fill-opacity:1"><use xlink:href="#a" x="1034.961" y="384.648"/><use xlink:href="#b" x="1060.352" y="384.648"/><use xlink:href="#c" x="1085.742" y="384.648"/><use xlink:href="#d" x="1111.133" y="384.648"/><use xlink:href="#c" x="1136.523" y="384.648"/><use xlink:href="#e" x="1161.914" y="384.648"/><use xlink:href="#o" x="1187.305" y="384.648"/><use xlink:href="#i" x="1212.695" y="384.648"/><use xlink:href="#j" x="1238.086" y="384.648"/><use xlink:href="#k" x="1263.477" y="384.648"/><use xlink:href="#l" x="1288.867" y="384.648"/><use xlink:href="#m" x="1314.258" y="384.648"/><use xlink:href="#b" x="1339.648" y="384.648"/></g><g style="fill:#000;fill-opacity:1"><use xlink:href="#d" x="1496.875" y="917"/><use xlink:href="#c" x="1522.266" y="917"/><use xlink:href="#l" x="1547.656" y="917"/><use xlink:href="#p" x="1573.047" y="917"/><use xlink:href="#q" x="1598.438" y="917"/><use xlink:href="#m" x="1623.828" y="917"/><use xlink:href="#l" x="1649.219" y="917"/><use xlink:href="#r" x="1674.609" y="917"/><use xlink:href="#s" x="1700" y="917"/><use xlink:href="#p" x="1725.391" y="917"/><use xlink:href="#a" x="1750.781" y="917"/><use xlink:href="#b" x="1776.172" y="917"/><use xlink:href="#c" x="1801.563" y="917"/><use xlink:href="#d" x="1826.953" y="917"/><use xlink:href="#c" x="1852.344" y="917"/><use xlink:href="#e" x="1877.734" y="917"/></g><path style="fill:none;stroke-width:.35;stroke-linecap:butt;stroke-linejoin:miter;stroke:#000;stroke-opacity:1;stroke-miterlimit:10" d="M112 27v4.234" transform="scale(20)"/><path style="fill-rule:evenodd;fill:#000;fill-opacity:1;stroke-width:.35;stroke-linecap:butt;stroke-linejoin:miter;stroke:#000;stroke-opacity:1;stroke-miterlimit:10" d="m112 31.609-.25-.5.25.125.25-.125-.25.5zm0 0" transform="scale(20)"/><path style="fill:none;stroke-width:.35;stroke-linecap:butt;stroke-linejoin:miter;stroke:#000;stroke-opacity:1;stroke-miterlimit:10" d="M112 16.049v4.185" transform="scale(20)"/><path style="fill-rule:evenodd;fill:#000;fill-opacity:1;stroke-width:.35;stroke-linecap:butt;stroke-linejoin:miter;stroke:#000;stroke-opacity:1;stroke-miterlimit:10" d="m112 20.609-.25-.5.25.125.25-.125-.25.5zm0 0" transform="scale(20)"/><path style="stroke:none;fill-rule:evenodd;fill:#dedede;fill-opacity:1" d="M2130 420h220v120h-220zM2130 430v-10c-5.523 0-10 4.477-10 10h10zM2350 430h10c0-5.523-4.477-10-10-10v10zm0 0"/><path style="stroke:none;fill-rule:evenodd;fill:#dedede;fill-opacity:1" d="M2120 430h240v100h-240zM2130 530h-10c0 5.523 4.477 10 10 10v-10zM2350 530v10c5.523 0 10-4.477 10-10h-10zm0 0"/><path style="fill:none;stroke-width:.1;stroke-linecap:butt;stroke-linejoin:miter;stroke:#000;stroke-opacity:1;stroke-miterlimit:10" d="M106.5 21h11M106.5 27h11M106.5 21a.5.5 0 0 0-.5.5M118 21.5a.5.5 0 0 0-.5-.5M106 21.5v5M118 21.5v5M106 26.5a.5.5 0 0 0 .5.5M117.5 27a.5.5 0 0 0 .5-.5" transform="scale(20)"/><use xlink:href="#g" x="2225.898" y="493.223" style="fill:#000;fill-opacity:1"/><path style="stroke:none;fill-rule:evenodd;fill:#dedede;fill-opacity:1" d="M2130 640h220v120h-220zM2130 650v-10c-5.523 0-10 4.477-10 10h10zM2350 650h10c0-5.523-4.477-10-10-10v10zm0 0"/><path style="stroke:none;fill-rule:evenodd;fill:#dedede;fill-opacity:1" d="M2120 650h240v100h-240zM2130 750h-10c0 5.523 4.477 10 10 10v-10zM2350 750v10c5.523 0 10-4.477 10-10h-10zm0 0"/><path style="fill:none;stroke-width:.1;stroke-linecap:butt;stroke-linejoin:miter;stroke:#000;stroke-opacity:1;stroke-miterlimit:10" d="M106.5 32h11M106.5 38h11M106.5 32a.5.5 0 0 0-.5.5M118 32.5a.5.5 0 0 0-.5-.5M106 32.5v5M118 32.5v5M106 37.5a.5.5 0 0 0 .5.5M117.5 38a.5.5 0 0 0 .5-.5" transform="scale(20)"/><use xlink:href="#h" x="2225.898" y="713.223" style="fill:#000;fill-opacity:1"/><path style="stroke:none;fill-rule:evenodd;fill:#a9e5a1;fill-opacity:1" d="M2130 120h220v65.5h-220zM2130 130v-10c-5.523 0-10 4.477-10 10h10zM2350 130h10c0-5.523-4.477-10-10-10v10zm0 0"/><path style="stroke:none;fill-rule:evenodd;fill:#a9e5a1;fill-opacity:1" d="M2120 130h240v45.5h-240zM2130 175.5h-10c0 5.523 4.477 10 10 10v-10zM2350 175.5v10c5.523 0 10-4.477 10-10h-10zm0 0"/><path style="fill:none;stroke-width:.1;stroke-linecap:butt;stroke-linejoin:miter;stroke:#000;stroke-opacity:1;stroke-miterlimit:10" d="M106.5 6h11M106.5 9.275h11M106.5 6a.5.5 0 0 0-.5.5M118 6.5a.5.5 0 0 0-.5-.5M106 6.5v2.275M118 6.5v2.275M106 8.775a.5.5 0 0 0 .5.5M117.5 9.275a.5.5 0 0 0 .5-.5" transform="scale(20)"/><g style="fill:#000;fill-opacity:1"><use xlink:href="#i" x="2163.828" y="164.648"/><use xlink:href="#j" x="2189.219" y="164.648"/><use xlink:href="#k" x="2214.609" y="164.648"/><use xlink:href="#l" x="2240" y="164.648"/><use xlink:href="#m" x="2265.391" y="164.648"/><use xlink:href="#b" x="2290.781" y="164.648"/></g><path style="stroke:none;fill-rule:evenodd;fill:#a1bbe5;fill-opacity:1" d="M1797.25 200h220v120h-220zM1797.25 210v-10c-5.523 0-10 4.477-10 10h10zM2017.25 210h10c0-5.523-4.477-10-10-10v10zm0 0"/><path style="stroke:none;fill-rule:evenodd;fill:#a1bbe5;fill-opacity:1" d="M1787.25 210h240v100h-240zM1797.25 310h-10c0 5.523 4.477 10 10 10v-10zM2017.25 310v10c5.523 0 10-4.477 10-10h-10zm0 0"/><path style="fill:none;stroke-width:.1;stroke-linecap:butt;stroke-linejoin:miter;stroke:#000;stroke-opacity:1;stroke-miterlimit:10" d="M89.862 10h11M89.862 16h11M89.862 10a.5.5 0 0 0-.5.5M101.362 10.5a.5.5 0 0 0-.5-.5M89.362 10.5v5M101.362 10.5v5M89.362 15.5a.5.5 0 0 0 .5.5M100.862 16a.5.5 0 0 0 .5-.5" transform="scale(20)"/><use xlink:href="#n" x="1893.148" y="273.223" style="fill:#000;fill-opacity:1"/><path style="stroke:none;fill-rule:evenodd;fill:#e9a4de;fill-opacity:1" d="M2130 200h220v120h-220zM2130 210v-10c-5.523 0-10 4.477-10 10h10zM2350 210h10c0-5.523-4.477-10-10-10v10zm0 0"/><path style="stroke:none;fill-rule:evenodd;fill:#e9a4de;fill-opacity:1" d="M2120 210h240v100h-240zM2130 310h-10c0 5.523 4.477 10 10 10v-10zM2350 310v10c5.523 0 10-4.477 10-10h-10zm0 0"/><path style="fill:none;stroke-width:.1;stroke-linecap:butt;stroke-linejoin:miter;stroke:#000;stroke-opacity:1;stroke-miterlimit:10" d="M106.5 10h11M106.5 16h11M106.5 10a.5.5 0 0 0-.5.5M118 10.5a.5.5 0 0 0-.5-.5M106 10.5v5M118 10.5v5M106 15.5a.5.5 0 0 0 .5.5M117.5 16a.5.5 0 0 0 .5-.5" transform="scale(20)"/><use xlink:href="#f" x="2225.898" y="273.223" style="fill:#000;fill-opacity:1"/><path style="stroke:none;fill-rule:evenodd;fill:#a9e5a1;fill-opacity:1" d="M1737.25 120h340v65.5h-340zM1737.25 130v-10c-5.523 0-10 4.477-10 10h10zM2077.25 130h10c0-5.523-4.477-10-10-10v10zm0 0"/><path style="stroke:none;fill-rule:evenodd;fill:#a9e5a1;fill-opacity:1" d="M1727.25 130h360v45.5h-360zM1737.25 175.5h-10c0 5.523 4.477 10 10 10v-10zM2077.25 175.5v10c5.523 0 10-4.477 10-10h-10zm0 0"/><path style="fill:none;stroke-width:.1;stroke-linecap:butt;stroke-linejoin:miter;stroke:#000;stroke-opacity:1;stroke-miterlimit:10" d="M86.862 6h17M86.862 9.275h17M86.862 6a.5.5 0 0 0-.5.5M104.362 6.5a.5.5 0 0 0-.5-.5M86.362 6.5v2.275M104.362 6.5v2.275M86.362 8.775a.5.5 0 0 0 .5.5M103.862 9.275a.5.5 0 0 0 .5-.5" transform="scale(20)"/><g style="fill:#000;fill-opacity:1"><use xlink:href="#a" x="1742.211" y="164.648"/><use xlink:href="#b" x="1767.602" y="164.648"/><use xlink:href="#c" x="1792.992" y="164.648"/><use xlink:href="#d" x="1818.383" y="164.648"/><use xlink:href="#c" x="1843.773" y="164.648"/><use xlink:href="#e" x="1869.164" y="164.648"/><use xlink:href="#o" x="1894.555" y="164.648"/><use xlink:href="#i" x="1919.945" y="164.648"/><use xlink:href="#j" x="1945.336" y="164.648"/><use xlink:href="#k" x="1970.727" y="164.648"/><use xlink:href="#l" x="1996.117" y="164.648"/><use xlink:href="#m" x="2021.508" y="164.648"/><use xlink:href="#b" x="2046.898" y="164.648"/></g><path style="fill:none;stroke-width:.35;stroke-linecap:butt;stroke-linejoin:miter;stroke:#000;stroke-opacity:1;stroke-miterlimit:10" d="m95.362 16 10.026 7.54" transform="scale(20)"/><path style="fill-rule:evenodd;fill:#000;fill-opacity:1;stroke-width:.35;stroke-linecap:butt;stroke-linejoin:miter;stroke:#000;stroke-opacity:1;stroke-miterlimit:10" d="m105.687 23.765-.55-.1.25-.126.05-.275.25.5zm0 0" transform="scale(20)"/></svg>