<?xml version="1.0" encoding="UTF-8" standalone="no"?>
<!DOCTYPE svg PUBLIC "-//W3C//DTD SVG 1.0//EN" "http://www.w3.org/TR/2001/PR-SVG-20010719/DTD/svg10.dtd">
<svg width="93cm" height="23cm" viewBox="-402 28 1843 453" xmlns="http://www.w3.org/2000/svg" xmlns:xlink="http://www.w3.org/1999/xlink">
  <g>
    <rect style="fill: #a6b1ed" x="-400" y="100" width="241" height="120" rx="10" ry="10"/>
    <rect style="fill: none; fill-opacity:0; stroke-width: 2; stroke-linejoin: round; stroke: #000000" x="-400" y="100" width="241" height="120" rx="10" ry="10"/>
  </g>
  <text font-size="12.8" style="fill: #000000;text-anchor:start;font-family:sans-serif;font-style:normal;font-weight:normal" x="520" y="160">
    <tspan x="520" y="160"></tspan>
  </text>
  <line style="fill: none; fill-opacity:0; stroke-width: 7; stroke-linejoin: round; stroke: #000000" x1="0" y1="160" x2="-159" y2="160"/>
  <g>
    <rect style="fill: #a6b1ed" x="0" y="100" width="241" height="120" rx="10" ry="10"/>
    <rect style="fill: none; fill-opacity:0; stroke-width: 2; stroke-linejoin: round; stroke: #000000" x="0" y="100" width="241" height="120" rx="10" ry="10"/>
  </g>
  <text font-size="12.8" style="fill: #000000;text-anchor:start;font-family:sans-serif;font-style:normal;font-weight:normal" x="120.5" y="160">
    <tspan x="120.5" y="160"></tspan>
  </text>
  <text font-size="12.8" style="fill: #000000;text-anchor:start;font-family:sans-serif;font-style:normal;font-weight:normal" x="120.5" y="160">
    <tspan x="120.5" y="160"></tspan>
  </text>
  <text font-size="56.4444" style="fill: #000000;text-anchor:middle;font-family:monospace;font-style:normal;font-weight:normal" x="-279.5" y="175.025">
    <tspan x="-279.5" y="175.025">A</tspan>
  </text>
  <text font-size="12.8" style="fill: #000000;text-anchor:start;font-family:sans-serif;font-style:normal;font-weight:normal" x="740" y="200">
    <tspan x="740" y="200"></tspan>
  </text>
  <g>
    <rect style="fill: #e4c8c8" x="400" y="360" width="241" height="120" rx="10" ry="10"/>
    <rect style="fill: none; fill-opacity:0; stroke-width: 2; stroke-linejoin: round; stroke: #000000" x="400" y="360" width="241" height="120" rx="10" ry="10"/>
  </g>
  <g>
    <rect style="fill: #e4c8c8" x="800" y="360" width="241" height="120" rx="10" ry="10"/>
    <rect style="fill: none; fill-opacity:0; stroke-width: 2; stroke-linejoin: round; stroke: #000000" x="800" y="360" width="241" height="120" rx="10" ry="10"/>
  </g>
  <text font-size="56.4444" style="fill: #000000;text-anchor:middle;font-family:monospace;font-style:normal;font-weight:normal" x="120.5" y="175.025">
    <tspan x="120.5" y="175.025">B</tspan>
  </text>
  <line style="fill: none; fill-opacity:0; stroke-width: 7; stroke-linejoin: round; stroke: #000000" x1="800" y1="420" x2="641" y2="420"/>
  <line style="fill: none; fill-opacity:0; stroke-width: 7; stroke-linejoin: round; stroke: #000000" x1="400" y1="420" x2="120.5" y2="220"/>
  <text font-size="56.4444" style="fill: #000000;text-anchor:middle;font-family:monospace;font-style:normal;font-weight:normal" x="520.5" y="435.025">
    <tspan x="520.5" y="435.025">C</tspan>
  </text>
  <text font-size="56.4444" style="fill: #000000;text-anchor:middle;font-family:monospace;font-style:normal;font-weight:normal" x="920.5" y="435.025">
    <tspan x="920.5" y="435.025">D</tspan>
  </text>
  <g>
    <rect style="fill: #ffffff" x="1200" y="100" width="240" height="120" rx="10" ry="10"/>
    <rect style="fill: none; fill-opacity:0; stroke-width: 2; stroke-linejoin: round; stroke: #ffffff" x="1200" y="100" width="240" height="120" rx="10" ry="10"/>
  </g>
  <g>
    <rect style="fill: #9eec9e" x="7.94688" y="29.7264" width="224.106" height="60.5472" rx="10" ry="10"/>
    <rect style="fill: none; fill-opacity:0; stroke-width: 2; stroke-linejoin: round; stroke: #000000" x="7.94688" y="29.7264" width="224.106" height="60.5472" rx="10" ry="10"/>
  </g>
  <text font-size="50.8" style="fill: #000000;text-anchor:middle;font-family:monospace;font-style:normal;font-weight:normal" x="120" y="73.525">
    <tspan x="120" y="73.525">master</tspan>
  </text>
  <g>
    <rect style="fill: #9eec9e" x="807.946" y="289.726" width="224.106" height="60.5472" rx="10" ry="10"/>
    <rect style="fill: none; fill-opacity:0; stroke-width: 2; stroke-linejoin: round; stroke: #000000" x="807.946" y="289.726" width="224.106" height="60.5472" rx="10" ry="10"/>
  </g>
  <text font-size="50.8" style="fill: #000000;text-anchor:middle;font-family:monospace;font-style:normal;font-weight:normal" x="920" y="333.525">
    <tspan x="920" y="333.525">topic</tspan>
  </text>
</svg>
