<svg xmlns="http://www.w3.org/2000/svg" xmlns:xlink="http://www.w3.org/1999/xlink" width="356pt" height="136pt" viewBox="0 0 356 136"><defs><symbol overflow="visible" id="a"><path style="stroke:none" d="M5.168-7.527c.871.004 1.55.343 2.047 1.023.492.68.742 1.613.742 2.797 0 1.223-.258 2.168-.766 2.836-.511.668-1.203 1-2.074 1.004-.875-.004-1.554-.317-2.043-.946h-.14L2.598 0h-1.54v-10.285h2.016v2.394c-.004.309-.031.797-.082 1.461h.082c.469-.726 1.168-1.093 2.094-1.097ZM4.52-5.914c-.5.004-.864.156-1.09.46-.235.31-.352.813-.356 1.516v.215c-.004.797.114 1.364.352 1.707.234.344.61.516 1.12.516.415 0 .743-.188.99-.57.241-.38.362-.934.366-1.664-.004-.723-.125-1.27-.37-1.633-.25-.363-.59-.543-1.012-.547Zm0 0"/></symbol><symbol overflow="visible" id="b"><path style="stroke:none" d="M3.074 0H1.06v-10.285h2.015Zm0 0"/></symbol><symbol overflow="visible" id="c"><path style="stroke:none" d="M2.664-3.707c-.004.734.117 1.289.36 1.66.238.375.628.559 1.171.559.54 0 .926-.184 1.16-.559.235-.367.352-.922.356-1.66-.004-.73-.125-1.277-.36-1.645-.242-.363-.628-.546-1.167-.55-.54.004-.93.183-1.164.547-.243.363-.36.914-.356 1.648Zm5.11 0C7.77-2.5 7.453-1.559 6.82-.883 6.184-.207 5.3.13 4.172.133 3.46.129 2.832-.023 2.293-.332a3.034 3.034 0 0 1-1.25-1.34C.753-2.25.609-2.93.609-3.707c0-1.207.313-2.145.946-2.816.625-.665 1.511-1 2.656-1.004.707.004 1.332.16 1.875.465.539.312.957.753 1.25 1.328.289.578.434 1.254.437 2.027Zm0 0"/></symbol><symbol overflow="visible" id="d"><path style="stroke:none" d="M4.172-1.473c.351.004.773-.074 1.266-.234v1.504C4.938.02 4.32.129 3.59.133 2.78.129 2.195-.07 1.828-.477c-.367-.406-.55-1.02-.55-1.835v-3.563H.311v-.852l1.11-.675.582-1.559h1.289v1.57h2.066v1.516H3.293v3.563c0 .289.078.5.238.636.16.137.375.207.64.203Zm0 0"/></symbol><symbol overflow="visible" id="e"><path style="stroke:none" d="M5.18-7.527c.273.004.5.023.683.058l-.152 1.89a2.621 2.621 0 0 0-.594-.066c-.648.004-1.148.168-1.504.497-.363.332-.543.793-.539 1.386V0H1.06v-7.39h1.527l.297 1.245h.097c.227-.41.536-.742.926-1 .387-.25.813-.378 1.274-.382Zm0 0"/></symbol><symbol overflow="visible" id="f"><path style="stroke:none" d="M4.117-6.094c-.43 0-.765.137-1.004.407-.246.273-.383.656-.418 1.152h2.828c-.011-.496-.14-.88-.39-1.152-.25-.27-.59-.407-1.016-.407ZM4.402.133C3.207.129 2.277-.195 1.613-.852.941-1.504.61-2.434.61-3.64c0-1.234.309-2.191.926-2.87.617-.673 1.473-1.012 2.57-1.016 1.043.004 1.856.3 2.438.894.578.594.867 1.414.871 2.461v.98H2.648c.024.575.192 1.024.512 1.344.313.325.758.485 1.332.48.442.005.863-.042 1.262-.136.398-.09.812-.238 1.246-.445v1.558a4.69 4.69 0 0 1-1.133.395 7.785 7.785 0 0 1-1.465.129Zm0 0"/></symbol><symbol overflow="visible" id="g"><path style="stroke:none" d="M4.059.133C1.758.129.609-1.133.609-3.657c0-1.253.313-2.21.938-2.874.625-.66 1.52-.992 2.691-.996.852.004 1.617.172 2.297.504l-.594 1.558c-.32-.125-.617-.23-.886-.312a3.026 3.026 0 0 0-.817-.125c-1.054.004-1.578.746-1.574 2.234C2.66-2.223 3.184-1.5 4.238-1.5c.383 0 .742-.05 1.074-.156.329-.102.66-.262.993-.485v1.723c-.328.211-.66.352-.989.43-.336.078-.753.117-1.257.12Zm0 0"/></symbol><symbol overflow="visible" id="h"><path style="stroke:none" d="M7.672 0H5.656v-4.316c-.004-.532-.093-.93-.27-1.2-.179-.261-.456-.394-.84-.398-.515.004-.89.191-1.124.57-.235.38-.352 1.004-.348 1.867V0H1.06v-7.39h1.539l.27.945h.112c.196-.336.48-.598.86-.793.37-.188.8-.285 1.289-.29 1.101.005 1.851.364 2.246 1.083h.18c.195-.344.488-.61.875-.797a2.979 2.979 0 0 1 1.304-.285c.836.004 1.473.218 1.903.644.43.434.644 1.121.644 2.067V0h-2.023v-4.316c-.004-.532-.094-.93-.27-1.2-.18-.261-.46-.394-.84-.398-.5.004-.867.18-1.109.527-.246.356-.371.914-.367 1.68Zm0 0"/></symbol><symbol overflow="visible" id="i"><path style="stroke:none" d="M.973-9.297c0-.656.363-.984 1.097-.988.727.004 1.094.332 1.094.988 0 .317-.094.559-.273.73-.188.172-.461.258-.82.258-.735 0-1.098-.328-1.098-.988ZM3.074 0H1.06v-7.39h2.015Zm0 0"/></symbol><symbol overflow="visible" id="j"><path style="stroke:none" d="M3.883-8.527c.703.004 1.32.261 1.855.773l-.664.715a.516.516 0 0 1-.164-.234.301.301 0 0 0-.187-.184 1.285 1.285 0 0 0-.414-.184 1.84 1.84 0 0 0-.399-.046c-.183 0-.39.042-.629.128a1.608 1.608 0 0 0-.672.48c-.21.235-.386.567-.53.997-.153.43-.231.984-.24 1.656.188-.312.442-.562.766-.742a2.08 2.08 0 0 1 1.024-.273c.312.003.61.07.89.199.278.133.524.32.739.562.21.246.379.535.5.871.12.34.183.72.183 1.13 0 .417-.066.796-.191 1.144a2.852 2.852 0 0 1-.512.894c-.218.25-.476.442-.765.575-.297.136-.61.199-.942.203-.426-.004-.8-.094-1.12-.278a2.272 2.272 0 0 1-.821-.793c-.227-.34-.395-.757-.508-1.25a6.746 6.746 0 0 1-.176-1.66c-.004-.758.067-1.426.211-2.008.137-.582.336-1.07.602-1.468.258-.395.574-.696.941-.903.363-.199.77-.3 1.223-.304ZM1.895-3.48a.582.582 0 0 0-.012.164 1.15 1.15 0 0 0 0 .164c-.004.351.039.675.125.972.082.297.203.555.36.774.152.218.331.39.542.515.207.125.43.188.664.188.387 0 .723-.164 1.016-.5.285-.332.43-.82.433-1.465a2.655 2.655 0 0 0-.136-.875 2.089 2.089 0 0 0-.348-.605 1.397 1.397 0 0 0-.473-.352 1.282 1.282 0 0 0-.52-.117c-.327 0-.64.113-.937.332-.3.226-.539.492-.714.805Zm0 0"/></symbol><symbol overflow="visible" id="k"><path style="stroke:none" d="M5.848-7.906a78.29 78.29 0 0 0-1.59 3.914A63.125 63.125 0 0 0 2.898 0h-1.07c.43-1.29.879-2.555 1.352-3.8.465-1.247.96-2.493 1.488-3.74H1.07v-.894h4.778Zm0 0"/></symbol><symbol overflow="visible" id="an"><path style="stroke:none" d="M1.055-7.121c.242-.43.574-.766.996-1.008a2.782 2.782 0 0 1 1.36-.36c.331.005.644.067.944.184.297.125.56.293.786.508.222.219.398.473.527.758.125.293.191.598.191.922 0 .262-.039.512-.117.742a3.37 3.37 0 0 1-.304.672 4.14 4.14 0 0 1-.438.61 6.796 6.796 0 0 1-.52.534l-.812.758c-.117.11-.25.239-.395.387a7.44 7.44 0 0 0-.425.48c-.141.172-.278.352-.41.54a4.797 4.797 0 0 0-.352.57h3.531c.043.004.09-.016.14-.063a.227.227 0 0 1 .145-.062h.04V0H.987v-.594A9.491 9.491 0 0 1 2.07-2.3a9.75 9.75 0 0 1 1.125-1.203l.649-.598a5.13 5.13 0 0 0 .547-.574c.136-.176.25-.344.332-.508.078-.16.129-.316.16-.464.023-.149.039-.301.043-.457a1.56 1.56 0 0 0-.121-.575 1.786 1.786 0 0 0-.344-.5 2.018 2.018 0 0 0-.504-.351 1.496 1.496 0 0 0-.574-.13 1.93 1.93 0 0 0-.63.102 2.28 2.28 0 0 0-.487.247c-.141.093-.25.195-.332.296-.082.106-.13.196-.133.274a.752.752 0 0 1-.055.164Zm0 0"/></symbol><symbol overflow="visible" id="ao"><path style="stroke:none" d="M4.246-8.445h.79v5.277h1.081v.84H5.035V0h-.973v-2.34H.648v-.691Zm-.172 1.5L1.582-3.168h2.492Zm0 0"/></symbol><symbol overflow="visible" id="ap"><path style="stroke:none" d="M1.434-8.434H5.71v.856H2.234l-.136 2.422c.441-.215.902-.32 1.382-.324.36.003.692.066 1.004.195.309.133.582.324.813.57.23.25.406.547.535.895.125.347.191.738.191 1.168 0 .433-.07.824-.203 1.172-.14.347-.328.644-.562.886a2.37 2.37 0 0 1-.84.555 2.95 2.95 0 0 1-1.047.187 3.134 3.134 0 0 1-1.43-.335 2.805 2.805 0 0 1-1.074-.965l.84-.621c.04.027.063.082.07.164 0 .082.008.132.024.148.031.066.094.14.187.23.086.09.203.176.344.258.14.082.3.153.484.211.184.059.383.09.602.086.21.004.418-.043.621-.14.195-.094.367-.23.516-.403.144-.172.265-.379.355-.629.09-.242.133-.527.137-.847a2.581 2.581 0 0 0-.137-.844 1.992 1.992 0 0 0-.367-.629c-.16-.168-.34-.3-.547-.39a1.754 1.754 0 0 0-.676-.137c-.289.004-.57.074-.847.21-.282.141-.528.337-.73.587l-.59-.243Zm0 0"/></symbol><symbol overflow="visible" id="aq"><path style="stroke:none" d="M4.047-8.445V0h-.934v-7.27l-1.707.504-.215-.53 2.207-1.15Zm0 0"/></symbol><symbol overflow="visible" id="ar"><path style="stroke:none" d="M5.223-7.363c.257.355.468.816.629 1.383.156.57.234 1.207.238 1.906-.004.719-.082 1.34-.238 1.863-.16.531-.368.969-.622 1.316-.261.356-.554.618-.875.786a2.153 2.153 0 0 1-.984.257A1.865 1.865 0 0 1 2.367-.16a2.884 2.884 0 0 1-.863-.875 4.539 4.539 0 0 1-.606-1.352A6.14 6.14 0 0 1 .676-4.14a6.262 6.262 0 0 1 .222-1.757 4.88 4.88 0 0 1 .606-1.375c.25-.383.539-.684.863-.895.324-.21.656-.316 1.004-.32.7.004 1.317.379 1.852 1.125Zm-.5.793c-.18-.356-.387-.63-.621-.813a1.19 1.19 0 0 0-.72-.277 1.15 1.15 0 0 0-.667.242c-.227.164-.422.39-.59.676-.176.289-.313.64-.414 1.05-.106.415-.16.868-.156 1.36a6.188 6.188 0 0 0 .191 1.594Zm.312.906L2.06-1.891c.21.407.437.7.68.875.234.184.472.274.714.27.238.004.465-.07.68-.219.21-.144.398-.36.554-.64.157-.278.282-.618.38-1.02.093-.398.14-.848.144-1.355-.004-.313-.016-.61-.043-.891a6.334 6.334 0 0 0-.133-.793Zm0 0"/></symbol><symbol overflow="visible" id="l"><path style="stroke:none" d="m1.363-4.922.485-.02L1.68-3.59h.867l.16-1.316.488-.008-.156 1.309h.719l-.051.37h-.715l-.168 1.333h.781l-.039.355h-.78L2.612-.109l-.484.03.176-1.444H1.43L1.262-.11l-.465.007.164-1.406H.195l.035-.355h.782l.156-1.348h-.86l.024-.363h.875Zm.27 1.703-.156 1.34h.867l.164-1.34Zm0 0"/></symbol><symbol overflow="visible" id="m"><path style="stroke:none" d="M2.219-.703c.09.098.136.21.14.332a.445.445 0 0 1-.144.32.478.478 0 0 1-.328.137.477.477 0 0 1-.328-.133.402.402 0 0 1-.137-.324.443.443 0 0 1 .137-.328c.09-.094.199-.145.328-.145.125 0 .234.047.332.14ZM1.902-5.27a.365.365 0 0 1 .29.153c.074.105.109.273.113.508-.004.062-.004.132-.008.21a13.59 13.59 0 0 0-.024.282l-.039.41-.144 2.176h-.395l-.117-2.176c-.008-.082-.012-.172-.02-.266l-.023-.265a28.804 28.804 0 0 0-.023-.25 2.051 2.051 0 0 1-.012-.2c0-.183.035-.324.105-.43a.357.357 0 0 1 .297-.152Zm0 0"/></symbol><symbol overflow="visible" id="o"><path style="stroke:none" d="m.504.102 2.473-5.348.472.242L.97.332Zm0 0"/></symbol><symbol overflow="visible" id="p"><path style="stroke:none" d="M.496-3.605h.57v2.011c0 .235.02.43.063.582a.93.93 0 0 0 .176.375c.074.098.16.164.261.203a.718.718 0 0 0 .325.063c.12-.008.242-.04.363-.094a.972.972 0 0 0 .531-.598c.047-.148.074-.335.078-.554v-1.988h.57v3.28c0 .126.012.231.04.325h-.594a.922.922 0 0 1-.016-.121.52.52 0 0 1 0-.156l.008-.274c-.117.2-.273.356-.469.469-.199.11-.418.164-.656.168a1.32 1.32 0 0 1-.496-.098 1.02 1.02 0 0 1-.402-.3 1.254 1.254 0 0 1-.27-.524 2.535 2.535 0 0 1-.09-.758Zm0 0"/></symbol><symbol overflow="visible" id="q"><path style="stroke:none" d="m3.41-3.125-.332.496c-.031-.004-.043-.023-.039-.062a.343.343 0 0 0-.016-.079 1.595 1.595 0 0 0-.41-.332 1.171 1.171 0 0 0-.593-.156c-.106 0-.204.012-.293.035a1.01 1.01 0 0 0-.247.098.535.535 0 0 0-.171.164.359.359 0 0 0-.063.223.26.26 0 0 0 .047.172c.031.05.082.101.152.144.067.05.164.098.29.14.124.052.285.102.488.16.453.122.777.267.965.43a.806.806 0 0 1 .285.61c-.004.16-.04.312-.106.453-.07.145-.172.266-.3.371-.133.106-.29.188-.473.246-.184.059-.39.086-.621.09C1.367.074.859-.109.449-.488l.324-.57c.016.019.024.046.032.078 0 .039.02.078.054.125.032.05.09.109.176.167.082.063.211.13.39.204.075.043.165.07.27.082.098.02.2.027.301.023.106.004.215-.008.324-.039a.974.974 0 0 0 .293-.113.746.746 0 0 0 .211-.184.426.426 0 0 0 .078-.242.449.449 0 0 0-.191-.348c-.129-.093-.36-.191-.695-.297a4.185 4.185 0 0 1-.465-.144 2.013 2.013 0 0 1-.414-.192 1.02 1.02 0 0 1-.23-.199.806.806 0 0 1-.165-.258.8.8 0 0 1-.062-.324c0-.125.03-.246.101-.363a.924.924 0 0 1 .285-.309c.125-.09.27-.164.442-.218.168-.055.355-.082.558-.082.551 0 1 .191 1.344.566Zm0 0"/></symbol><symbol overflow="visible" id="r"><path style="stroke:none" d="M.781-3.605h.582l-.015.695c.109-.25.285-.442.527-.578.238-.133.496-.203.773-.203.391 0 .711.132.965.394l-.261.543c-.059-.078-.114-.14-.157-.195a1.263 1.263 0 0 0-.156-.137 1.119 1.119 0 0 0-.184-.086 1.358 1.358 0 0 0-.238-.031c-.176.004-.34.043-.492.121a1.35 1.35 0 0 0-.402.324 1.676 1.676 0 0 0-.274.465 1.44 1.44 0 0 0-.101.543V.008H.78Zm0 0"/></symbol><symbol overflow="visible" id="s"><path style="stroke:none" d="M.473-5.246h.656v.016a.133.133 0 0 1-.043.074.097.097 0 0 0-.043.082v2.02c.113-.188.27-.344.469-.462.195-.117.394-.175.605-.175.196 0 .387.039.57.113.176.078.333.195.473.348.133.156.242.347.324.578.079.234.118.504.121.812a2.616 2.616 0 0 1-.132.852c-.09.238-.203.437-.344.597-.14.164-.3.286-.48.36-.18.078-.368.113-.555.117a1.301 1.301 0 0 1-.61-.148 1.216 1.216 0 0 1-.457-.41L.832 0h-.36Zm.984 4.68a.91.91 0 0 0 .27.105.92.92 0 0 0 .226.027c.102 0 .219-.02.352-.058A.909.909 0 0 0 2.656-.7c.106-.098.2-.235.274-.403.07-.164.105-.375.11-.636-.005-.473-.103-.836-.298-1.086-.199-.25-.484-.375-.855-.38a.87.87 0 0 0-.422.142.89.89 0 0 0-.328.374c-.063.16-.094.418-.094.77 0 .227.004.41.016.559.007.152.027.28.062.379.027.105.07.187.125.25.05.066.121.12.211.164Zm0 0"/></symbol><symbol overflow="visible" id="t"><path style="stroke:none" d="M.836-3.605H2.28v3.148h.844V0H.789v-.457h.922v-2.691H.836Zm.883-1.454a.426.426 0 0 1 .285-.117.423.423 0 0 1 .41.41.39.39 0 0 1-.121.286.383.383 0 0 1-.29.117.364.364 0 0 1-.284-.117.359.359 0 0 1-.117-.286.38.38 0 0 1 .117-.293Zm0 0"/></symbol><symbol overflow="visible" id="u"><path style="stroke:none" d="M.535 0v-3.605h.57v.636c.137-.215.313-.39.528-.523a1.215 1.215 0 0 1 1.101-.117.898.898 0 0 1 .356.265c.098.121.176.278.234.465.055.192.086.422.086.692V0h-.57v-2.172c-.004-.375-.07-.64-.195-.793a.62.62 0 0 0-.47-.23c-.124.004-.25.027-.374.078a1.19 1.19 0 0 0-.598.578.966.966 0 0 0-.098.465V0Zm0 0"/></symbol><symbol overflow="visible" id="v"><path style="stroke:none" d="M2.043-3.691c.187 0 .371.035.55.101.177.07.333.176.47.313.132.14.242.316.324.53.082.22.12.474.125.767-.004.042-.004.085-.004.128l-.012.133H.93c.007.258.05.469.129.637.074.172.171.309.289.414.117.106.246.18.386.223.141.047.282.07.426.066.371.004.684-.129.934-.402l.316.308c-.308.368-.73.547-1.265.551a2.108 2.108 0 0 1-.723-.121 1.407 1.407 0 0 1-.555-.36 1.573 1.573 0 0 1-.355-.585c-.086-.23-.125-.5-.125-.805 0-.305.043-.574.129-.812C.602-2.84.719-3.04.87-3.2c.149-.16.324-.281.524-.367.199-.082.414-.125.648-.125ZM.953-2.18h1.98a.09.09 0 0 1 .005-.054c0-.016.003-.04.003-.067a.998.998 0 0 0-.074-.37 1.1 1.1 0 0 0-.203-.302 1.203 1.203 0 0 0-.293-.207.884.884 0 0 0-.367-.078c-.25 0-.477.09-.672.262-.203.176-.328.445-.379.816Zm0 0"/></symbol><symbol overflow="visible" id="w"><path style="stroke:none" d="m.395-3.41-.079-.195h.668c0 .039-.004.07-.011.097a.316.316 0 0 0-.012.074c0 .012 0 .02.008.024l1.05 2.637.586-1.34c.122-.285.223-.555.305-.805a6.51 6.51 0 0 0 .184-.687h.511c-.109.445-.289.968-.542 1.578L2.187.023h-.445Zm0 0"/></symbol><symbol overflow="visible" id="x"><path style="stroke:none" d="M.473-3.605h.562v.55c.117-.187.278-.34.485-.457.203-.11.41-.168.617-.172.199.004.39.043.574.114.184.078.344.191.484.343.137.153.25.344.332.575.082.234.121.507.125.82-.004.32-.047.602-.132.84-.09.242-.204.441-.344.601a1.389 1.389 0 0 1-1.047.485 1.28 1.28 0 0 1-.621-.149 1.172 1.172 0 0 1-.465-.418v1.79h-.57Zm.562 2.097c.008.39.098.668.27.832a.825.825 0 0 0 .629.25 1.07 1.07 0 0 0 .394-.062.986.986 0 0 0 .367-.215c.11-.102.196-.235.266-.406.062-.164.098-.375.102-.63-.004-.456-.102-.812-.293-1.066-.196-.254-.465-.386-.813-.398-.11.004-.219.023-.328.055a.798.798 0 0 0-.297.187.91.91 0 0 0-.215.36 1.436 1.436 0 0 0-.082.55Zm0 0"/></symbol><symbol overflow="visible" id="y"><path style="stroke:none" d="m.465-3.352-.102-.253h.688a.507.507 0 0 1-.016.105.231.231 0 0 0-.015.082c0 .023.003.04.015.047L2.105-.72l.688-1.933c.066-.18.121-.352.164-.516a7.67 7.67 0 0 0 .106-.437h.59a8.18 8.18 0 0 0-.153.464c-.059.176-.125.371-.203.579L2.32.015 2.172.41c-.129.352-.293.598-.488.742a1.13 1.13 0 0 1-.68.22c-.348 0-.625-.102-.832-.306l.3-.507c.012.015.024.043.04.078a.363.363 0 0 0 .023.07l.031.035a.64.64 0 0 0 .215.14.45.45 0 0 0 .172.032c.152 0 .29-.05.406-.144.118-.098.235-.27.352-.516l.113-.27Zm0 0"/></symbol><symbol overflow="visible" id="z"><path style="stroke:none" d="m1.484-4.57.614-.102c0 .05-.008.094-.02.129a.5.5 0 0 0-.027.086l-.094.852h1.184v.457H1.957c-.047.476-.07.918-.07 1.324 0 .258.004.472.015.644.008.18.036.317.082.414.043.102.106.18.192.235.082.058.199.086.344.082.242.004.511-.106.808-.332l.176.449c-.363.27-.738.402-1.121.402-.38 0-.656-.113-.828-.343-.18-.227-.258-.598-.239-1.118-.004-.187 0-.43.016-.726.008-.293.031-.637.066-1.031H.551v-.457h.87Zm0 0"/></symbol><symbol overflow="visible" id="A"><path style="stroke:none" d="M.55 0v-5.246h.65c-.005.008-.005.008.003.008 0 0 .004.004.004.008 0 .02-.012.043-.035.066a.265.265 0 0 0-.05.105v2.09c.14-.215.32-.39.534-.523a1.212 1.212 0 0 1 1.098-.117c.133.054.25.144.351.265.102.121.176.278.23.465.052.192.08.422.083.692V0h-.57v-2.172c0-.375-.067-.64-.196-.793a.606.606 0 0 0-.465-.23 1.015 1.015 0 0 0-.367.078 1.558 1.558 0 0 0-.351.222.911.911 0 0 0-.258.348 1.065 1.065 0 0 0-.09.473V0Zm0 0"/></symbol><symbol overflow="visible" id="B"><path style="stroke:none" d="M2.004-3.684c.219.004.426.047.625.13.195.09.367.214.52.374.144.168.261.368.351.598.082.234.125.496.129.781-.004.301-.043.563-.125.793a1.89 1.89 0 0 1-.348.594 1.536 1.536 0 0 1-1.16.508c-.234 0-.453-.047-.652-.14a1.63 1.63 0 0 1-.532-.392 1.705 1.705 0 0 1-.363-.597c-.09-.23-.133-.48-.133-.75 0-.266.043-.516.137-.754.09-.234.215-.438.371-.606.153-.164.332-.296.54-.394a1.58 1.58 0 0 1 .64-.145Zm1.058 1.899a2.045 2.045 0 0 0-.093-.602 1.609 1.609 0 0 0-.239-.445 1.208 1.208 0 0 0-.343-.277 1.063 1.063 0 0 0-.407-.094 1.015 1.015 0 0 0-.406.094c-.129.066-.242.16-.34.277A1.51 1.51 0 0 0 1-2.395a1.814 1.814 0 0 0-.086.579c0 .21.027.406.086.578.059.18.137.328.234.449.098.129.211.227.344.293a.8.8 0 0 0 .418.101.9.9 0 0 0 .414-.09c.125-.058.238-.148.34-.265.094-.117.172-.262.227-.441a2.09 2.09 0 0 0 .086-.594Zm0 0"/></symbol><symbol overflow="visible" id="C"><path style="stroke:none" d="m2.484-4.324-.046-.496c0-.145.03-.254.101-.328a.352.352 0 0 1 .238-.106.373.373 0 0 1 .243.117c.07.082.109.207.113.38-.004.163-.094.491-.27.984l-.187.523-.434-.102.172-.539c.047-.156.07-.3.07-.433Zm-1.355 0-.055-.496c-.004-.145.031-.254.102-.328a.345.345 0 0 1 .238-.106.365.365 0 0 1 .242.117c.07.082.106.207.11.38-.004.179-.09.507-.258.984l-.192.523-.441-.102.176-.539c.023-.078.043-.152.058-.222.008-.07.016-.14.02-.211Zm0 0"/></symbol><symbol overflow="visible" id="D"><path style="stroke:none" d="M.426-4.914h.61a.056.056 0 0 1 .007.023c0 .02-.008.04-.02.063a.259.259 0 0 0-.027.101v1.918h1.922v-2.105h.61c.003.008.003.016.007.023a.192.192 0 0 1-.023.067.178.178 0 0 0-.032.082v4.75h-.57v-2.36H.996V0h-.57Zm0 0"/></symbol><symbol overflow="visible" id="E"><path style="stroke:none" d="M.672-5.246h1.586v4.789h1.054V0H.626v-.457h1.063v-4.332H.671Zm0 0"/></symbol><symbol overflow="visible" id="F"><path style="stroke:none" d="M.137-4.914h.515l.528 3.32.789-2.96h.172l.796 2.976.454-3.336h.464L3.075.03h-.216L2.016-3.21 1.156.031h-.23Zm0 0"/></symbol><symbol overflow="visible" id="G"><path style="stroke:none" d="M2.918-3.078v-2.168h.617a.233.233 0 0 1-.039.105.208.208 0 0 0-.039.114l.008 4.695c-.004.129.012.238.039.332H2.93a.802.802 0 0 1-.035-.27v-.304c-.118.199-.278.36-.473.476a1.237 1.237 0 0 1-.606.176C1.617.074 1.43.04 1.254-.039a1.189 1.189 0 0 1-.465-.356 1.624 1.624 0 0 1-.316-.593 2.536 2.536 0 0 1-.118-.852c-.003-.328.04-.61.133-.847.086-.231.203-.422.348-.575.144-.148.305-.258.484-.332.176-.066.36-.101.547-.105.246.004.461.058.645.168.18.113.316.265.406.453Zm-1.66.105c-.227.211-.34.559-.336 1.043-.004.457.082.82.258 1.098a.82.82 0 0 0 .758.414.687.687 0 0 0 .25-.043.827.827 0 0 0 .246-.129c.074-.058.144-.129.21-.207a.98.98 0 0 0 .141-.27 2.8 2.8 0 0 0 .086-.761c0-.2-.008-.363-.023-.5a1.748 1.748 0 0 0-.075-.344 1.088 1.088 0 0 0-.128-.234 1.032 1.032 0 0 0-.196-.164 1.976 1.976 0 0 0-.258-.13.879.879 0 0 0-.23-.042 1.213 1.213 0 0 0-.387.062c-.11.043-.215.114-.316.207Zm0 0"/></symbol><symbol overflow="visible" id="H"><path style="stroke:none" d="m1.879-4.324-.055-.496c-.004-.145.031-.254.102-.328a.343.343 0 0 1 .234-.106c.09.004.172.043.246.117.07.082.106.207.11.38-.008.089-.028.218-.067.378-.039.168-.105.367-.191.606l-.2.523-.433-.102.176-.539c.023-.078.043-.152.058-.222.008-.07.016-.14.02-.211Zm0 0"/></symbol><symbol overflow="visible" id="T"><path style="stroke:none" d="M2.266-4.973c.406.004.765.157 1.078.453l-.383.418a.252.252 0 0 1-.098-.14.194.194 0 0 0-.11-.106.775.775 0 0 0-.241-.105 1.75 1.75 0 0 0-.23-.027c-.11.003-.231.027-.372.074a.94.94 0 0 0-.39.281c-.125.137-.227.332-.31.578-.089.254-.136.574-.136.965a1.15 1.15 0 0 1 .446-.43c.183-.105.382-.156.593-.16.184.004.356.043.52.117.16.078.304.188.43.328.12.145.218.313.292.508.07.2.106.418.11.656-.004.247-.04.47-.113.668a1.65 1.65 0 0 1-.301.52 1.268 1.268 0 0 1-.446.336 1.374 1.374 0 0 1-.546.117 1.36 1.36 0 0 1-.657-.16 1.376 1.376 0 0 1-.476-.461 2.27 2.27 0 0 1-.297-.73 4.031 4.031 0 0 1-.102-.97c0-.437.04-.827.121-1.167.082-.34.2-.625.352-.86a1.56 1.56 0 0 1 .55-.523c.212-.117.45-.176.716-.18Zm-1.16 2.946a.255.255 0 0 0-.008.093.376.376 0 0 0 0 .094c-.004.207.023.399.074.57.047.176.113.325.207.45.086.125.191.226.316.3.117.075.246.11.387.11.223 0 .422-.098.59-.293.168-.195.25-.477.254-.852a1.658 1.658 0 0 0-.078-.511 1.26 1.26 0 0 0-.203-.352.939.939 0 0 0-.274-.203.903.903 0 0 0-.305-.07.916.916 0 0 0-.543.195 1.45 1.45 0 0 0-.418.469Zm0 0"/></symbol><symbol overflow="visible" id="U"><path style="stroke:none" d="m3.605-3.008-.402.469c-.027-.012-.039-.031-.035-.05 0-.02-.004-.044-.008-.079a.922.922 0 0 0-.062-.117 1.972 1.972 0 0 0-.188-.192c-.183-.144-.43-.214-.738-.218a1.19 1.19 0 0 0-.442.093 1.118 1.118 0 0 0-.37.274 1.26 1.26 0 0 0-.255.426 1.384 1.384 0 0 0-.093.55c-.004.207.027.399.093.57.06.177.145.325.262.45a1.18 1.18 0 0 0 .906.398c.364 0 .676-.144.946-.433l.332.387c-.36.375-.801.562-1.317.566a1.837 1.837 0 0 1-.714-.14A1.575 1.575 0 0 1 .95-.45a1.805 1.805 0 0 1-.376-.598A1.948 1.948 0 0 1 .441-1.8a1.962 1.962 0 0 1 .133-.746c.09-.23.215-.43.375-.598.16-.164.352-.292.578-.39a2.01 2.01 0 0 1 .73-.14c.282.003.544.062.778.179.235.121.422.285.57.488Zm0 0"/></symbol><symbol overflow="visible" id="V"><path style="stroke:none" d="M2.707-5.293c.457.004.824.168 1.106.496l-.262.52c-.043 0-.067-.02-.063-.063a.464.464 0 0 0-.015-.094.994.994 0 0 0-1.145-.344.758.758 0 0 0-.27.192.792.792 0 0 0-.175.363 1.932 1.932 0 0 0-.059.555v.273h1.184v.461H1.824V0h-.547v-2.934h-.78v-.46h.78v-.356c0-.277.036-.512.106-.71.07-.196.172-.356.308-.478.133-.12.286-.21.457-.269.168-.055.356-.082.559-.086Zm0 0"/></symbol><symbol overflow="visible" id="W"><path style="stroke:none" d="M1.71.078a1.496 1.496 0 0 1-1.085-.45l.387-.417c.023.02.047.05.066.094.016.05.035.082.059.093a.81.81 0 0 0 .558.184c.39.004.688-.145.883-.445.195-.293.3-.778.324-1.45a1.167 1.167 0 0 1-.441.387c-.18.098-.371.145-.574.14a1.128 1.128 0 0 1-.524-.112 1.266 1.266 0 0 1-.43-.317 1.452 1.452 0 0 1-.292-.496 1.658 1.658 0 0 1-.106-.633c-.004-.23.035-.445.11-.644.074-.196.175-.367.304-.512a1.41 1.41 0 0 1 .45-.34c.167-.082.351-.12.55-.125.477.004.848.211 1.11.621.257.418.386 1.078.39 1.985-.004.418-.05.777-.14 1.082a2.269 2.269 0 0 1-.375.754c-.16.199-.344.347-.551.445a1.675 1.675 0 0 1-.672.156Zm1.161-2.941c.004-.04.004-.078.008-.121a.668.668 0 0 1 0-.125 2.247 2.247 0 0 0-.074-.559 1.46 1.46 0 0 0-.203-.43 1.033 1.033 0 0 0-.293-.277.722.722 0 0 0-.336-.098.818.818 0 0 0-.653.301c-.168.2-.25.473-.246.82-.004.168.02.32.07.454.044.136.106.25.184.343.074.094.16.168.262.215a.552.552 0 0 0 .305.074.975.975 0 0 0 .562-.16 1.35 1.35 0 0 0 .414-.437Zm0 0"/></symbol><symbol overflow="visible" id="X"><path style="stroke:none" d="M3.313-3.813a1.235 1.235 0 0 1-.215.676 1.479 1.479 0 0 1-.567.508c.285.137.512.324.688.567.172.246.261.511.261.792 0 .192-.042.372-.12.536a1.406 1.406 0 0 1-.32.43 1.493 1.493 0 0 1-.478.28 1.852 1.852 0 0 1-.59.102 1.802 1.802 0 0 1-.593-.101A1.368 1.368 0 0 1 .586-.72a1.112 1.112 0 0 1-.113-.52 1.292 1.292 0 0 1 .27-.796c.175-.242.413-.438.718-.578a1.34 1.34 0 0 1-.547-.485 1.158 1.158 0 0 1-.203-.668c-.004-.164.031-.32.102-.468.066-.145.16-.274.28-.387a1.377 1.377 0 0 1 .934-.36c.184 0 .352.032.512.094.156.063.293.149.406.254.114.11.203.235.27.375.062.145.094.293.098.446ZM1.867-2.39c-.238.102-.433.25-.59.446-.156.199-.234.418-.234.652 0 .121.023.234.074.34.047.105.113.2.203.277a.836.836 0 0 0 .297.188c.113.05.235.074.367.07.13.004.25-.02.364-.066a.916.916 0 0 0 .297-.18.92.92 0 0 0 .195-.27.937.937 0 0 0 .07-.336 1.017 1.017 0 0 0-.281-.667 1.795 1.795 0 0 0-.762-.454Zm-.496-.996c.063.106.145.2.25.274.098.078.215.148.352.218l.132.07c.192-.105.352-.245.48-.429a.94.94 0 0 0 .192-.547.64.64 0 0 0-.058-.265.793.793 0 0 0-.168-.23.989.989 0 0 0-.25-.165 1.004 1.004 0 0 0-.305-.059.919.919 0 0 0-.305.06.891.891 0 0 0-.242.155.66.66 0 0 0-.156.223.558.558 0 0 0-.055.258.732.732 0 0 0 .133.437Zm0 0"/></symbol><symbol overflow="visible" id="Y"><path style="stroke:none" d="M2.21-.688c.09.102.138.208.142.325a.441.441 0 0 1-.141.316.495.495 0 0 1-.332.133.463.463 0 0 1-.332-.129.403.403 0 0 1-.133-.32.4.4 0 0 1 .14-.32c.09-.09.2-.137.325-.137.117 0 .226.047.332.132Zm0 0"/></symbol><symbol overflow="visible" id="Z"><path style="stroke:none" d="M.836-4.914h2.492v.496H1.301l-.078 1.41c.254-.12.523-.183.804-.187.211.004.407.039.586.113.18.078.336.191.473.332.133.148.238.32.312.523.075.204.11.43.114.68a1.956 1.956 0 0 1-.121.684 1.554 1.554 0 0 1-.329.52c-.14.144-.304.25-.488.32A1.815 1.815 0 0 1 1.133-.11a1.612 1.612 0 0 1-.63-.563l.493-.363c.024.02.035.05.043.097 0 .047.004.079.012.086a.43.43 0 0 0 .11.133c.05.055.116.106.198.153.079.05.172.09.282.12.109.036.226.055.351.051a.734.734 0 0 0 .36-.082.9.9 0 0 0 .304-.23 1.22 1.22 0 0 0 .207-.367c.051-.14.078-.309.078-.496 0-.184-.027-.348-.078-.492a1.168 1.168 0 0 0-.215-.368 1.078 1.078 0 0 0-.32-.23 1.105 1.105 0 0 0-.39-.078 1.124 1.124 0 0 0-.497.125 1.281 1.281 0 0 0-.425.34l-.344-.141Zm0 0"/></symbol><symbol overflow="visible" id="aa"><path style="stroke:none" d="M.617-4.152c.137-.246.332-.442.578-.586.242-.137.504-.207.793-.211.192.004.375.039.551.11.172.07.324.171.457.296.129.129.234.273.309.441.074.168.11.348.113.536-.004.156-.027.3-.07.437-.047.137-.106.27-.176.39a2.905 2.905 0 0 1-.258.352c-.102.117-.2.219-.3.313l-.477.441a6.18 6.18 0 0 0-.227.227c-.086.086-.172.18-.25.281-.086.102-.164.207-.242.313a2.814 2.814 0 0 0-.203.332h2.058c.024 0 .051-.012.082-.036a.128.128 0 0 1 .086-.035h.024V0H.575v-.348a5.858 5.858 0 0 1 1.288-1.695l.38-.348c.128-.12.234-.23.316-.336.082-.097.148-.195.195-.293.047-.093.078-.187.094-.273.015-.086.023-.172.023-.266a.846.846 0 0 0-.07-.332.94.94 0 0 0-.203-.293 1.248 1.248 0 0 0-.293-.207.837.837 0 0 0-.332-.074c-.141 0-.262.02-.368.059-.109.039-.207.086-.285.14a.65.65 0 0 0-.191.176c-.05.063-.078.117-.078.16-.016.051-.024.082-.031.094Zm0 0"/></symbol><symbol overflow="visible" id="ab"><path style="stroke:none" d="M.719-3.18c.316-.332.746-.5 1.285-.504.441.004.789.118 1.047.336.254.227.383.598.383 1.114V0h-.54v-.395c-.382.32-.816.477-1.292.48A1.558 1.558 0 0 1 1.09 0a1.13 1.13 0 0 1-.383-.227.955.955 0 0 1-.32-.687c0-.363.156-.648.468-.86.313-.206.762-.324 1.356-.347h.676v-.137c-.004-.355-.078-.61-.227-.754-.148-.14-.383-.21-.695-.215a1.3 1.3 0 0 0-.969.41ZM2.91-1.687h-.133c-.074 0-.144 0-.21-.004-.067 0-.133 0-.192-.004a4.182 4.182 0 0 0-.71.058 1.439 1.439 0 0 0-.435.164.579.579 0 0 0-.218.23.57.57 0 0 0-.059.282c-.004.168.07.313.223.434a.793.793 0 0 0 .543.18c.156.003.3-.024.426-.075a1.288 1.288 0 0 0 .562-.402c.055-.074.094-.14.125-.203.047-.102.074-.246.078-.426Zm0 0"/></symbol><symbol overflow="visible" id="ac"><path style="stroke:none" d="M3.242-3.684a1.152 1.152 0 0 1-.734 1.07c.25.09.453.25.61.481.155.23.234.492.234.785 0 .196-.036.383-.106.555-.07.176-.176.328-.308.457-.137.133-.301.234-.493.309-.199.074-.418.109-.66.113A1.637 1.637 0 0 1 .543-.473l.418-.496c.023.024.039.055.05.102.009.05.028.09.055.117l.11.102c.039.043.125.09.254.14a1.081 1.081 0 0 0 .793-.004.937.937 0 0 0 .316-.21c.086-.087.156-.196.211-.321.047-.121.074-.246.074-.383 0-.277-.11-.5-.32-.664-.215-.16-.492-.242-.84-.246-.043.004-.086.004-.121.004l-.121.012v-.457c.238 0 .441-.024.605-.075a1.06 1.06 0 0 0 .399-.199.72.72 0 0 0 .222-.297c.043-.109.063-.234.067-.367a.753.753 0 0 0-.063-.273.865.865 0 0 0-.175-.227 1.125 1.125 0 0 0-.27-.164 1.085 1.085 0 0 0-1.188.316l-.308-.34a1.549 1.549 0 0 1 1.707-.429 1.324 1.324 0 0 1 .719.672c.066.152.101.312.105.476Zm0 0"/></symbol><symbol overflow="visible" id="ad"><path style="stroke:none" d="M3.41-4.61a41.147 41.147 0 0 0-.93 2.282C2.191-1.563 1.93-.79 1.688 0h-.622c.25-.75.512-1.488.79-2.215.269-.726.558-1.453.867-2.18H.625v-.52H3.41Zm0 0"/></symbol><symbol overflow="visible" id="ae"><path style="stroke:none" d="M.441-4.914h1.454c.574.004.992.133 1.25.387.253.261.382.601.382 1.015 0 .149-.023.29-.07.426a1.412 1.412 0 0 1-.52.703c-.124.09-.261.153-.414.188L3.66 0h-.613l-1.09-2.172h-.945V0h-.57Zm.57.52v1.734h.95c.348 0 .601-.074.762-.23.156-.153.234-.36.238-.622a.996.996 0 0 0-.066-.343.93.93 0 0 0-.176-.278.847.847 0 0 0-.305-.191 1.3 1.3 0 0 0-.453-.07Zm0 0"/></symbol><symbol overflow="visible" id="af"><path style="stroke:none" d="M.465-4.922H3.48v.488H.984v1.618h2.063v.52H.984v1.808h2.473V0H.465Zm0 0"/></symbol><symbol overflow="visible" id="ag"><path style="stroke:none" d="M.121 0 1.86-5.004h.063L3.816 0h-.57l-.543-1.438H1.141L.668 0Zm2.457-1.863-.695-1.875-.633 1.875Zm0 0"/></symbol><symbol overflow="visible" id="ah"><path style="stroke:none" d="M.426-4.914H1.57c.422.004.746.062.98.172.231.117.43.281.598.496.16.219.282.48.364.781.074.309.113.652.117 1.035-.004.38-.05.72-.145 1.02a2.5 2.5 0 0 1-.39.77 1.53 1.53 0 0 1-.64.484c-.267.11-.59.16-.977.164H.426Zm.52.457v4.031h.503c.555.004.965-.164 1.223-.508.258-.336.387-.828.39-1.468-.007-.641-.128-1.141-.359-1.508-.234-.36-.621-.543-1.168-.547Zm0 0"/></symbol><symbol overflow="visible" id="ai"><path style="stroke:none" d="M.324-4.914h.434l1.215 2.406L3.21-4.922h.418V0h-.52v-3.707l-1.066 1.98h-.211L.836-3.684V0H.324Zm0 0"/></symbol><symbol overflow="visible" id="aj"><path style="stroke:none" d="M.3 0v-3.605h.52v.355c.082-.129.188-.234.32-.32a.803.803 0 0 1 .423-.121c.152 0 .289.05.406.148a.692.692 0 0 1 .226.379A.866.866 0 0 1 3-3.691c.246 0 .426.09.543.265.113.176.164.395.156.656V0h-.52v-2.555a4.078 4.078 0 0 0-.023-.386.74.74 0 0 0-.078-.22.3.3 0 0 0-.113-.093 1.11 1.11 0 0 0-.14-.02.375.375 0 0 0-.208.083 1.012 1.012 0 0 0-.305.5.886.886 0 0 0-.046.308V0h-.532v-2.508c0-.3-.027-.5-.082-.601-.054-.098-.152-.149-.289-.149-.129 0-.25.078-.367.227-.117.152-.176.36-.176.625V0Zm0 0"/></symbol><symbol overflow="visible" id="ak"><path style="stroke:none" d="M.332-4.922h.664a.173.173 0 0 1-.039.098c-.027.039-.039.074-.035.105v2.067l2.055-2.305c.113.031.25.047.41.043h.203L1.727-2.793 3.715 0l-.707.031-1.7-2.492-.386.426V0h-.59Zm0 0"/></symbol><symbol overflow="visible" id="al"><path style="stroke:none" d="M3.047-4.293c.148.207.27.477.363.805.094.336.14.707.14 1.113 0 .422-.046.781-.14 1.086a2.562 2.562 0 0 1-.363.77c-.149.207-.32.359-.508.457a1.308 1.308 0 0 1-.574.148 1.13 1.13 0 0 1-.586-.18 1.688 1.688 0 0 1-.504-.508 2.58 2.58 0 0 1-.352-.789 3.497 3.497 0 0 1-.128-1.023 3.56 3.56 0 0 1 .128-1.027c.086-.305.204-.575.352-.801.145-.223.313-.395.504-.52.187-.12.383-.183.586-.187.406.004.77.222 1.082.656Zm-.293.465a1.432 1.432 0 0 0-.363-.477.685.685 0 0 0-.418-.16.64.64 0 0 0-.391.14 1.273 1.273 0 0 0-.344.395c-.101.168-.18.371-.242.614a3.008 3.008 0 0 0-.09.793c-.004.324.035.632.114.925Zm.18.523L1.199-1.102c.125.235.258.407.399.512a.67.67 0 0 0 .414.156c.14 0 .273-.043.398-.129.121-.085.23-.21.324-.375.09-.16.164-.355.22-.59.054-.23.081-.495.085-.792-.004-.18-.012-.352-.023-.516a4.176 4.176 0 0 0-.082-.469Zm0 0"/></symbol><symbol overflow="visible" id="am"><path style="stroke:none" d="M.203-4.922H.77l1.27 3.777 1.19-3.77h.547L2.125.032h-.25Zm0 0"/></symbol><symbol overflow="visible" id="I"><path style="stroke:none" d="M3.219-5.16c.886.004 1.59.226 2.101.664.508.445.762 1.047.766 1.809-.004.878-.281 1.566-.836 2.058-.559.5-1.328.746-2.3.746-.958 0-1.684-.152-2.18-.457v-.926a3.17 3.17 0 0 0 1.003.41c.399.098.793.149 1.188.145.672.004 1.2-.156 1.578-.48.371-.317.559-.782.563-1.387-.004-1.18-.727-1.77-2.165-1.77-.37 0-.859.059-1.468.168l-.496-.316.316-3.953h4.203v.883H2.11l-.214 2.539a7.18 7.18 0 0 1 1.324-.133Zm0 0"/></symbol><symbol overflow="visible" id="J"><path style="stroke:none" d="M6.133 0H.578v-.828l2.227-2.235c.675-.683 1.12-1.171 1.34-1.464.21-.293.375-.578.484-.856a2.6 2.6 0 0 0 .16-.898c-.004-.45-.14-.805-.41-1.07-.277-.262-.656-.395-1.137-.399a3.005 3.005 0 0 0-1 .176c-.316.117-.664.328-1.047.629l-.508-.657c.774-.64 1.622-.964 2.543-.968.79.004 1.415.207 1.868.61.449.41.672.956.675 1.636A3.209 3.209 0 0 1 5.32-4.73c-.3.527-.863 1.187-1.683 1.984L1.785-.938v.047h4.348Zm0 0"/></symbol><symbol overflow="visible" id="K"><path style="stroke:none" d="M3.691.117c-.937 0-1.675-.285-2.214-.855-.543-.57-.817-1.36-.813-2.375-.004-1.02.25-1.832.754-2.434.5-.598 1.176-.898 2.027-.902.793.004 1.418.265 1.883.785.461.523.695 1.21.695 2.062v.61H1.66c.016.746.203 1.308.563 1.691.351.387.855.582 1.504.578.68.004 1.351-.14 2.023-.425v.855c-.344.148-.664.25-.96.313A5.498 5.498 0 0 1 3.69.117Zm-.257-5.762c-.508.004-.914.168-1.22.497-.304.332-.484.789-.53 1.375h3.308c0-.602-.137-1.063-.406-1.387-.27-.32-.652-.48-1.152-.485Zm0 0"/></symbol><symbol overflow="visible" id="L"><path style="stroke:none" d="m4.914 0-.191-.902h-.047c-.317.398-.633.668-.946.808-.316.14-.707.211-1.175.211-.63 0-1.121-.16-1.477-.484C.718-.691.54-1.152.543-1.75c-.004-1.277 1.02-1.95 3.07-2.012l1.075-.035v-.394c0-.493-.11-.86-.32-1.098-.22-.234-.56-.352-1.028-.356-.531.004-1.13.165-1.79.485l-.296-.735c.312-.168.652-.3 1.023-.398a4.77 4.77 0 0 1 1.121-.144c.754.003 1.313.171 1.68.503.363.336.547.872.547 1.61V0ZM2.746-.676c.594.004 1.063-.16 1.406-.492.34-.324.512-.785.512-1.375v-.57l-.96.039c-.767.027-1.317.144-1.65.355-.34.211-.507.54-.503.98-.004.348.101.614.312.794.211.183.504.273.883.27Zm0 0"/></symbol><symbol overflow="visible" id="M"><path style="stroke:none" d="M.676-3.613c-.004-1.657.32-2.899.969-3.723.644-.82 1.597-1.23 2.863-1.234.43.004.773.039 1.027.11v.827a3.54 3.54 0 0 0-1.015-.144c-.91.004-1.602.285-2.079.847-.48.567-.742 1.453-.78 2.66h.066c.421-.66 1.093-.992 2.011-.996.758.004 1.356.235 1.797.688.434.46.652 1.082.656 1.867-.003.879-.246 1.57-.722 2.074-.485.504-1.133.754-1.946.754-.875 0-1.566-.328-2.078-.984-.515-.656-.773-1.57-.77-2.746ZM3.516-.7c.546.004.968-.168 1.273-.516.297-.344.45-.844.453-1.496-.004-.555-.144-.992-.422-1.316-.285-.317-.707-.477-1.261-.48a2.177 2.177 0 0 0-.954.214c-.292.145-.523.34-.69.59-.173.25-.259.512-.255.777-.004.403.074.774.23 1.114.153.343.372.613.653.812.281.203.605.305.973.3Zm0 0"/></symbol><symbol overflow="visible" id="N"><path style="stroke:none" d="M5.328-.848h-.05c-.446.645-1.11.965-1.989.965-.832 0-1.477-.281-1.934-.847C.891-1.297.66-2.102.665-3.148.66-4.188.89-5 1.354-5.582c.461-.574 1.106-.863 1.934-.867.856.004 1.516.316 1.977.937h.074l-.04-.457-.023-.445v-2.578h.957V0h-.777Zm-1.918.16c.652.004 1.125-.175 1.422-.535.293-.355.441-.93.445-1.726v-.2c-.004-.894-.152-1.535-.449-1.921-.3-.38-.777-.57-1.43-.575-.562.004-.996.223-1.293.657-.3.437-.449 1.054-.445 1.851-.004.813.145 1.422.442 1.832.293.414.73.621 1.308.617Zm0 0"/></symbol><symbol overflow="visible" id="O"><path style="stroke:none" d="M.879-.613c0-.254.058-.45.176-.586.117-.13.285-.196.504-.2.222.004.394.07.523.2.121.137.184.332.188.586-.004.254-.067.445-.192.578-.129.133-.3.2-.52.203a.722.722 0 0 1-.488-.18C.941-.132.88-.332.88-.613Zm0 0"/></symbol><symbol overflow="visible" id="P"><path style="stroke:none" d="M3.965-6.438c.832.004 1.476.29 1.937.852.457.57.688 1.375.692 2.414-.004 1.043-.235 1.852-.696 2.426-.464.578-1.109.863-1.933.863-.414 0-.79-.074-1.13-.226a2.06 2.06 0 0 1-.858-.707h-.07L1.702 0h-.687v-8.992h.96v2.183a21.1 21.1 0 0 1-.046 1.317h.047c.445-.625 1.109-.942 1.988-.946Zm-.14.801c-.657 0-1.13.192-1.415.567-.293.379-.437 1.011-.433 1.898-.004.895.144 1.531.445 1.91.293.387.77.578 1.426.575.59.003 1.03-.211 1.32-.645.289-.426.434-1.043.434-1.852 0-.82-.145-1.437-.434-1.843-.29-.407-.738-.61-1.344-.61Zm0 0"/></symbol><symbol overflow="visible" id="Q"><path style="stroke:none" d="M6.18-4.234c-.004 1.46-.235 2.55-.692 3.27C5.023-.243 4.32.116 3.375.116c-.91 0-1.602-.367-2.074-1.105C.824-1.727.586-2.808.59-4.234c-.004-1.473.226-2.567.687-3.278.457-.71 1.157-1.066 2.098-1.07.914.004 1.61.375 2.09 1.117.473.742.71 1.82.715 3.23Zm-4.621 0c0 1.23.144 2.125.433 2.683.29.563.75.844 1.383.84.64.004 1.102-.281 1.39-.852.282-.566.426-1.457.43-2.671-.004-1.215-.148-2.106-.43-2.668-.288-.563-.75-.844-1.39-.848-.633.004-1.094.281-1.383.836-.289.559-.433 1.453-.433 2.68Zm0 0"/></symbol><symbol overflow="visible" id="R"><path style="stroke:none" d="M3.547.117c-.922 0-1.629-.281-2.129-.847C.914-1.293.66-2.09.664-3.125.66-4.18.918-5 1.43-5.582c.508-.574 1.234-.863 2.183-.867.301.004.606.035.91.097.305.067.543.145.72.23l-.298.817a5.152 5.152 0 0 0-.691-.21 3.191 3.191 0 0 0-.664-.087c-1.29 0-1.934.825-1.93 2.465-.004.782.153 1.375.469 1.79.312.417.777.628 1.394.624a4.17 4.17 0 0 0 1.625-.34v.848c-.425.223-.96.332-1.601.332Zm0 0"/></symbol><symbol overflow="visible" id="S"><path style="stroke:none" d="m1.648 0 3.5-7.566H.543v-.883h5.625v.77L2.711 0Zm0 0"/></symbol></defs><path style="fill-rule:nonzero;fill:#fff;fill-opacity:1;stroke-width:0;stroke-linecap:butt;stroke-linejoin:miter;stroke:#000;stroke-opacity:1;stroke-miterlimit:10" d="M0 0h17.8v6.8H0Zm0 0" transform="scale(20)"/><path style="fill-rule:evenodd;fill:#a1bbe5;fill-opacity:1;stroke-width:.1;stroke-linecap:butt;stroke-linejoin:round;stroke:#000;stroke-opacity:1;stroke-miterlimit:10" d="M.7.4h4.4a.3.3 0 0 1 .3.3v5.4a.3.3 0 0 1-.3.3H.7a.3.3 0 0 1-.3-.3V.7A.3.3 0 0 1 .7.4" transform="scale(20)"/><path style="fill-rule:evenodd;fill:#a9e5a1;fill-opacity:1;stroke-width:.1;stroke-linecap:butt;stroke-linejoin:round;stroke:#000;stroke-opacity:1;stroke-miterlimit:10" d="M6.7.4h4.4a.3.3 0 0 1 .3.3v5.4a.3.3 0 0 1-.3.3H6.7a.3.3 0 0 1-.3-.3V.7a.3.3 0 0 1 .3-.3" transform="scale(20)"/><path style="fill-rule:evenodd;fill:#e9a4de;fill-opacity:1;stroke-width:.1;stroke-linecap:butt;stroke-linejoin:round;stroke:#000;stroke-opacity:1;stroke-miterlimit:10" d="M12.7.4h4.4a.3.3 0 0 1 .3.3v5.391a.3.3 0 0 1-.3.3h-4.4a.3.3 0 0 1-.3-.3V.7a.3.3 0 0 1 .3-.3" transform="scale(20)"/><g style="fill:#000;fill-opacity:1"><use xlink:href="#a" x="12" y="28"/><use xlink:href="#b" x="20.574" y="28"/><use xlink:href="#c" x="24.695" y="28"/><use xlink:href="#a" x="33.074" y="28"/></g><g style="fill:#000;fill-opacity:1"><use xlink:href="#d" x="132" y="28"/><use xlink:href="#e" x="137.879" y="28"/><use xlink:href="#f" x="144.031" y="28"/><use xlink:href="#f" x="152.02" y="28"/></g><g style="fill:#000;fill-opacity:1"><use xlink:href="#g" x="252" y="28"/><use xlink:href="#c" x="258.953" y="28"/><use xlink:href="#h" x="267.332" y="28"/><use xlink:href="#h" x="280.613" y="28"/><use xlink:href="#i" x="293.895" y="28"/><use xlink:href="#d" x="298.016" y="28"/></g><path style="fill:none;stroke-width:.1;stroke-linecap:butt;stroke-linejoin:round;stroke:#000;stroke-opacity:1;stroke-miterlimit:10" d="M3.4 1.8V.4M6.4 1.8h5M.4 1.8h5M12.4 1.8h5M9.2 1.8V.4M15.4 1.8V.4" transform="scale(20)"/><g style="fill:#000;fill-opacity:1"><use xlink:href="#j" x="80.344" y="28"/><use xlink:href="#k" x="87.121" y="28"/></g><g style="fill:#000;fill-opacity:1"><use xlink:href="#l" x="12" y="76"/><use xlink:href="#m" x="15.945" y="76"/><use xlink:href="#n" x="19.891" y="76"/><use xlink:href="#o" x="23.836" y="76"/><use xlink:href="#p" x="27.781" y="76"/><use xlink:href="#q" x="31.727" y="76"/><use xlink:href="#r" x="35.672" y="76"/><use xlink:href="#o" x="39.617" y="76"/><use xlink:href="#s" x="43.563" y="76"/><use xlink:href="#t" x="47.508" y="76"/><use xlink:href="#u" x="51.453" y="76"/><use xlink:href="#o" x="55.398" y="76"/><use xlink:href="#v" x="59.344" y="76"/><use xlink:href="#u" x="63.289" y="76"/><use xlink:href="#w" x="67.234" y="76"/><use xlink:href="#n" x="71.18" y="76"/><use xlink:href="#x" x="75.125" y="76"/><use xlink:href="#y" x="79.07" y="76"/><use xlink:href="#z" x="83.016" y="76"/><use xlink:href="#A" x="86.961" y="76"/><use xlink:href="#B" x="90.906" y="76"/><use xlink:href="#u" x="94.852" y="76"/></g><g style="fill:#000;fill-opacity:1"><use xlink:href="#C" x="12" y="95.754"/><use xlink:href="#C" x="15.945" y="95.754"/><use xlink:href="#C" x="19.891" y="95.754"/><use xlink:href="#n" x="23.836" y="95.754"/><use xlink:href="#D" x="27.781" y="95.754"/><use xlink:href="#v" x="31.727" y="95.754"/><use xlink:href="#E" x="35.672" y="95.754"/><use xlink:href="#E" x="39.617" y="95.754"/><use xlink:href="#B" x="43.563" y="95.754"/><use xlink:href="#n" x="47.508" y="95.754"/><use xlink:href="#F" x="51.453" y="95.754"/><use xlink:href="#B" x="55.398" y="95.754"/><use xlink:href="#r" x="59.344" y="95.754"/><use xlink:href="#E" x="63.289" y="95.754"/><use xlink:href="#G" x="67.234" y="95.754"/><use xlink:href="#m" x="71.18" y="95.754"/><use xlink:href="#n" x="75.125" y="95.754"/><use xlink:href="#C" x="79.07" y="95.754"/><use xlink:href="#C" x="83.016" y="95.754"/><use xlink:href="#C" x="86.961" y="95.754"/></g><g style="fill:#000;fill-opacity:1"><use xlink:href="#x" x="12" y="115.512"/><use xlink:href="#r" x="15.945" y="115.512"/><use xlink:href="#t" x="19.891" y="115.512"/><use xlink:href="#u" x="23.836" y="115.512"/><use xlink:href="#z" x="27.781" y="115.512"/><use xlink:href="#n" x="31.727" y="115.512"/><use xlink:href="#H" x="35.672" y="115.512"/><use xlink:href="#D" x="39.617" y="115.512"/><use xlink:href="#v" x="43.563" y="115.512"/><use xlink:href="#E" x="47.508" y="115.512"/><use xlink:href="#E" x="51.453" y="115.512"/><use xlink:href="#B" x="55.398" y="115.512"/><use xlink:href="#n" x="59.344" y="115.512"/><use xlink:href="#F" x="63.289" y="115.512"/><use xlink:href="#B" x="67.234" y="115.512"/><use xlink:href="#r" x="71.18" y="115.512"/><use xlink:href="#E" x="75.125" y="115.512"/><use xlink:href="#G" x="79.07" y="115.512"/><use xlink:href="#m" x="83.016" y="115.512"/><use xlink:href="#H" x="86.961" y="115.512"/></g><path style="fill:none;stroke-width:.1;stroke-linecap:butt;stroke-linejoin:round;stroke:#000;stroke-opacity:1;stroke-miterlimit:10" d="M.4 2.8h5" transform="scale(20)"/><g style="fill:#000;fill-opacity:1"><use xlink:href="#I" x="12" y="52"/><use xlink:href="#J" x="18.758" y="52"/><use xlink:href="#K" x="25.516" y="52"/><use xlink:href="#L" x="32.156" y="52"/><use xlink:href="#M" x="38.738" y="52"/><use xlink:href="#N" x="45.496" y="52"/><use xlink:href="#M" x="52.742" y="52"/><use xlink:href="#O" x="59.5" y="52"/><use xlink:href="#O" x="62.645" y="52"/><use xlink:href="#O" x="65.789" y="52"/></g><path style="fill:none;stroke-width:.1;stroke-linecap:butt;stroke-linejoin:round;stroke:#000;stroke-opacity:1;stroke-miterlimit:10" d="M6.4 2.8h5M12.4 2.8h5" transform="scale(20)"/><g style="fill:#000;fill-opacity:1"><use xlink:href="#L" x="132" y="52"/><use xlink:href="#J" x="138.582" y="52"/><use xlink:href="#M" x="145.34" y="52"/><use xlink:href="#P" x="152.098" y="52"/><use xlink:href="#Q" x="159.344" y="52"/><use xlink:href="#Q" x="166.102" y="52"/><use xlink:href="#L" x="172.859" y="52"/><use xlink:href="#O" x="179.441" y="52"/><use xlink:href="#O" x="182.586" y="52"/><use xlink:href="#O" x="185.73" y="52"/></g><g style="fill:#000;fill-opacity:1"><use xlink:href="#K" x="252" y="52"/><use xlink:href="#J" x="258.641" y="52"/><use xlink:href="#R" x="265.398" y="52"/><use xlink:href="#M" x="271.043" y="52"/><use xlink:href="#S" x="277.801" y="52"/><use xlink:href="#K" x="284.559" y="52"/><use xlink:href="#P" x="291.199" y="52"/><use xlink:href="#O" x="298.445" y="52"/><use xlink:href="#O" x="301.59" y="52"/><use xlink:href="#O" x="304.734" y="52"/></g><path style="fill:none;stroke-width:.05;stroke-linecap:butt;stroke-linejoin:round;stroke:#000;stroke-opacity:1;stroke-miterlimit:10" d="M6.4 3.4h5M6.4 4h5" transform="scale(20)"/><g style="fill:#000;fill-opacity:1"><use xlink:href="#z" x="132" y="88"/><use xlink:href="#r" x="135.945" y="88"/><use xlink:href="#v" x="139.891" y="88"/><use xlink:href="#v" x="143.836" y="88"/></g><path style="fill:none;stroke-width:.05;stroke-linecap:butt;stroke-linejoin:round;stroke:#000;stroke-opacity:1;stroke-miterlimit:10" d="M6.4 4.6h5" transform="scale(20)"/><g style="fill:#000;fill-opacity:1"><use xlink:href="#s" x="132" y="64"/><use xlink:href="#E" x="135.945" y="64"/><use xlink:href="#B" x="139.891" y="64"/><use xlink:href="#s" x="143.836" y="64"/></g><path style="fill:none;stroke-width:.05;stroke-linecap:butt;stroke-linejoin:round;stroke:#000;stroke-opacity:1;stroke-miterlimit:10" d="M6.4 5.2h5" transform="scale(20)"/><g style="fill:#000;fill-opacity:1"><use xlink:href="#s" x="132" y="76"/><use xlink:href="#E" x="135.945" y="76"/><use xlink:href="#B" x="139.891" y="76"/><use xlink:href="#s" x="143.836" y="76"/></g><path style="fill:none;stroke-width:.05;stroke-linecap:butt;stroke-linejoin:round;stroke:#000;stroke-opacity:1;stroke-miterlimit:10" d="M6.4 5.8h5M7.6 6.4V2.8M9.4 6.4V2.8" transform="scale(20)"/><g style="fill:#000;fill-opacity:1"><use xlink:href="#T" x="156" y="64"/><use xlink:href="#U" x="159.945" y="64"/><use xlink:href="#V" x="163.891" y="64"/><use xlink:href="#W" x="167.836" y="64"/><use xlink:href="#s" x="171.781" y="64"/><use xlink:href="#v" x="175.727" y="64"/><use xlink:href="#X" x="179.672" y="64"/><use xlink:href="#Y" x="183.617" y="64"/></g><g style="fill:#000;fill-opacity:1"><use xlink:href="#Z" x="156" y="76"/><use xlink:href="#aa" x="159.945" y="76"/><use xlink:href="#v" x="163.891" y="76"/><use xlink:href="#ab" x="167.836" y="76"/><use xlink:href="#T" x="171.781" y="76"/><use xlink:href="#G" x="175.727" y="76"/><use xlink:href="#T" x="179.672" y="76"/><use xlink:href="#Y" x="183.617" y="76"/></g><g style="fill:#000;fill-opacity:1"><use xlink:href="#U" x="156" y="88"/><use xlink:href="#ac" x="159.945" y="88"/><use xlink:href="#ad" x="163.891" y="88"/><use xlink:href="#V" x="167.836" y="88"/><use xlink:href="#G" x="171.781" y="88"/><use xlink:href="#T" x="175.727" y="88"/><use xlink:href="#V" x="179.672" y="88"/><use xlink:href="#Y" x="183.617" y="88"/></g><g style="fill:#000;fill-opacity:1"><use xlink:href="#A" x="192" y="76"/><use xlink:href="#v" x="195.945" y="76"/><use xlink:href="#E" x="199.891" y="76"/><use xlink:href="#E" x="203.836" y="76"/><use xlink:href="#B" x="207.781" y="76"/><use xlink:href="#Y" x="211.727" y="76"/><use xlink:href="#x" x="215.672" y="76"/><use xlink:href="#y" x="219.617" y="76"/></g><g style="fill:#000;fill-opacity:1"><use xlink:href="#z" x="192" y="88"/><use xlink:href="#v" x="195.945" y="88"/><use xlink:href="#q" x="199.891" y="88"/><use xlink:href="#z" x="203.836" y="88"/></g><g style="fill:#000;fill-opacity:1"><use xlink:href="#ae" x="192" y="64"/><use xlink:href="#af" x="195.945" y="64"/><use xlink:href="#ag" x="199.891" y="64"/><use xlink:href="#ah" x="203.836" y="64"/><use xlink:href="#ai" x="207.781" y="64"/><use xlink:href="#af" x="211.727" y="64"/></g><path style="fill:none;stroke-width:.05;stroke-linecap:butt;stroke-linejoin:round;stroke:#000;stroke-opacity:1;stroke-miterlimit:10" d="M12.4 3.396h5M12.4 4h5M12.4 4.6h5M12.4 5.2h5M14.4 5.2V2.8" transform="scale(20)"/><g style="fill:#000;fill-opacity:1"><use xlink:href="#z" x="252" y="64"/><use xlink:href="#r" x="255.945" y="64"/><use xlink:href="#v" x="259.891" y="64"/><use xlink:href="#v" x="263.836" y="64"/></g><g style="fill:#000;fill-opacity:1"><use xlink:href="#x" x="252" y="76"/><use xlink:href="#ab" x="255.945" y="76"/><use xlink:href="#r" x="259.891" y="76"/><use xlink:href="#v" x="263.836" y="76"/><use xlink:href="#u" x="267.781" y="76"/><use xlink:href="#z" x="271.727" y="76"/></g><g style="fill:#000;fill-opacity:1"><use xlink:href="#U" x="252" y="88"/><use xlink:href="#B" x="255.945" y="88"/><use xlink:href="#aj" x="259.891" y="88"/><use xlink:href="#aj" x="263.836" y="88"/><use xlink:href="#t" x="267.781" y="88"/><use xlink:href="#z" x="271.727" y="88"/><use xlink:href="#v" x="275.672" y="88"/><use xlink:href="#r" x="279.617" y="88"/></g><g style="fill:#000;fill-opacity:1"><use xlink:href="#ab" x="252" y="100"/><use xlink:href="#p" x="255.945" y="100"/><use xlink:href="#z" x="259.891" y="100"/><use xlink:href="#A" x="263.836" y="100"/><use xlink:href="#B" x="267.781" y="100"/><use xlink:href="#r" x="271.727" y="100"/></g><g style="fill:#000;fill-opacity:1"><use xlink:href="#ak" x="252" y="116"/><use xlink:href="#B" x="255.945" y="116"/><use xlink:href="#aj" x="259.891" y="116"/><use xlink:href="#aj" x="263.836" y="116"/><use xlink:href="#v" x="267.781" y="116"/><use xlink:href="#u" x="271.727" y="116"/><use xlink:href="#z" x="275.672" y="116"/><use xlink:href="#ab" x="279.617" y="116"/><use xlink:href="#r" x="283.563" y="116"/><use xlink:href="#n" x="287.508" y="116"/><use xlink:href="#V" x="291.453" y="116"/><use xlink:href="#v" x="295.398" y="116"/><use xlink:href="#A" x="299.344" y="116"/><use xlink:href="#E" x="303.289" y="116"/><use xlink:href="#z" x="307.234" y="116"/><use xlink:href="#v" x="311.18" y="116"/></g><g style="fill:#000;fill-opacity:1"><use xlink:href="#ab" x="292" y="64"/><use xlink:href="#aa" x="295.945" y="64"/><use xlink:href="#T" x="299.891" y="64"/><use xlink:href="#s" x="303.836" y="64"/><use xlink:href="#al" x="307.781" y="64"/><use xlink:href="#al" x="311.727" y="64"/><use xlink:href="#ab" x="315.672" y="64"/><use xlink:href="#Y" x="319.617" y="64"/><use xlink:href="#Y" x="323.563" y="64"/><use xlink:href="#Y" x="327.508" y="64"/></g><g style="fill:#000;fill-opacity:1"><use xlink:href="#X" x="292" y="76"/><use xlink:href="#v" x="295.945" y="76"/><use xlink:href="#aa" x="299.891" y="76"/><use xlink:href="#V" x="303.836" y="76"/><use xlink:href="#Z" x="307.781" y="76"/><use xlink:href="#V" x="311.727" y="76"/><use xlink:href="#W" x="315.672" y="76"/><use xlink:href="#Y" x="319.617" y="76"/><use xlink:href="#Y" x="323.563" y="76"/><use xlink:href="#Y" x="327.508" y="76"/></g><g style="fill:#000;fill-opacity:1"><use xlink:href="#am" x="292" y="88"/><use xlink:href="#ab" x="295.945" y="88"/><use xlink:href="#E" x="299.891" y="88"/><use xlink:href="#v" x="303.836" y="88"/><use xlink:href="#u" x="307.781" y="88"/><use xlink:href="#z" x="311.727" y="88"/><use xlink:href="#t" x="315.672" y="88"/><use xlink:href="#u" x="319.617" y="88"/></g><g style="fill:#000;fill-opacity:1"><use xlink:href="#am" x="292" y="100"/><use xlink:href="#ab" x="295.945" y="100"/><use xlink:href="#E" x="299.891" y="100"/><use xlink:href="#v" x="303.836" y="100"/><use xlink:href="#u" x="307.781" y="100"/><use xlink:href="#z" x="311.727" y="100"/><use xlink:href="#t" x="315.672" y="100"/><use xlink:href="#u" x="319.617" y="100"/></g><g style="fill:#000;fill-opacity:1"><use xlink:href="#an" x="318" y="28"/><use xlink:href="#ao" x="324.777" y="28"/><use xlink:href="#ap" x="331.555" y="28"/></g><g style="fill:#000;fill-opacity:1"><use xlink:href="#aq" x="195.656" y="28"/><use xlink:href="#ar" x="202.434" y="28"/><use xlink:href="#aq" x="209.211" y="28"/></g></svg>