<?xml version="1.0" encoding="UTF-8" standalone="no"?>
<!DOCTYPE svg PUBLIC "-//W3C//DTD SVG 1.0//EN" "http://www.w3.org/TR/2001/PR-SVG-20010719/DTD/svg10.dtd">
<svg width="16cm" height="11cm" viewBox="339 -13 316 204" xmlns="http://www.w3.org/2000/svg" xmlns:xlink="http://www.w3.org/1999/xlink">
  <g>
    <rect style="fill: #c5919b" x="340" y="10" width="52" height="30" rx="6" ry="6"/>
    <rect style="fill: none; fill-opacity:0; stroke-width: 1; stroke-linejoin: round; stroke: #000000" x="340" y="10" width="52" height="30" rx="6" ry="6"/>
  </g>
  <text font-size="12.8919" style="fill: #000000;text-anchor:middle;font-family:monospace;font-style:normal;font-weight:normal" x="364" y="27.45">
    <tspan x="364" y="27.45">C4</tspan>
  </text>
  <g>
    <rect style="fill: #c5919b" x="340" y="60" width="52" height="30" rx="6" ry="6"/>
    <rect style="fill: none; fill-opacity:0; stroke-width: 1; stroke-linejoin: round; stroke: #000000" x="340" y="60" width="52" height="30" rx="6" ry="6"/>
  </g>
  <text font-size="12.8919" style="fill: #000000;text-anchor:middle;font-family:monospace;font-style:normal;font-weight:normal" x="366" y="78.45">
    <tspan x="366" y="78.45">C3</tspan>
  </text>
  <text font-size="11.2" style="fill: #000000;text-anchor:middle;font-family:monospace;font-style:normal;font-weight:normal" x="366" y="127.975">
    <tspan x="366" y="127.975">A</tspan>
  </text>
  <g>
    <line style="fill: none; fill-opacity:0; stroke-width: 1; stroke-linejoin: round; stroke: #000000" x1="366" y1="40" x2="366" y2="53.5"/>
    <polygon style="fill: #000000" points="363,53.5 366,59.5 369,53.5 "/>
    <polygon style="fill: none; fill-opacity:0; stroke-width: 1; stroke: #000000" points="363,53.5 366,59.5 369,53.5 "/>
  </g>
  <g>
    <line style="fill: none; fill-opacity:0; stroke-width: 1; stroke: #000000" x1="366" y1="90" x2="366" y2="103.017"/>
    <polygon style="fill: #000000" points="363,103.017 366,109.017 369,103.017 "/>
    <polygon style="fill: none; fill-opacity:0; stroke-width: 1; stroke: #000000" points="363,103.017 366,109.017 369,103.017 "/>
  </g>
  <text font-size="12.8" style="fill: #000000;text-anchor:start;font-family:sans-serif;font-style:normal;font-weight:normal" x="340" y="0">
    <tspan x="340" y="0">Repository</tspan>
  </text>
  <g>
    <line style="fill: none; fill-opacity:0; stroke-width: 1; stroke: #000000" x1="540" y1="180" x2="573.5" y2="180"/>
    <polygon style="fill: #000000" points="573.5,183 579.5,180 573.5,177 "/>
    <polygon style="fill: none; fill-opacity:0; stroke-width: 1; stroke: #000000" points="573.5,183 579.5,180 573.5,177 "/>
  </g>
  <text font-size="12.8" style="fill: #000000;text-anchor:start;font-family:sans-serif;font-style:normal;font-weight:normal" x="584" y="184">
    <tspan x="584" y="184">hat Vorfahre</tspan>
  </text>
  <g>
    <line style="fill: none; fill-opacity:0; stroke-width: 1; stroke: #000000" x1="540" y1="160" x2="577.5" y2="160"/>
    <polygon style="fill: #000000" points="577.5,161 579.5,160 577.5,159 "/>
    <polygon style="fill: none; fill-opacity:0; stroke-width: 1; stroke: #000000" points="577.5,161 579.5,160 577.5,159 "/>
  </g>
  <text font-size="12.8" style="fill: #000000;text-anchor:start;font-family:sans-serif;font-style:normal;font-weight:normal" x="584" y="164">
    <tspan x="584" y="164">referenziert</tspan>
  </text>
  <g>
    <rect style="fill: #c5919b" x="464" y="152" width="12" height="8" rx="2" ry="2"/>
    <rect style="fill: none; fill-opacity:0; stroke-width: 1; stroke-linejoin: round; stroke: #000000" x="464" y="152" width="12" height="8" rx="2" ry="2"/>
  </g>
  <g>
    <rect style="fill: #699768" x="464" y="164" width="12" height="8" rx="2" ry="2"/>
    <rect style="fill: none; fill-opacity:0; stroke-width: 1; stroke-linejoin: round; stroke: #000000" x="464" y="164" width="12" height="8" rx="2" ry="2"/>
  </g>
  <g>
    <rect style="fill: #8086ac" x="464" y="176" width="12" height="8" rx="2" ry="2"/>
    <rect style="fill: none; fill-opacity:0; stroke-width: 1; stroke-linejoin: round; stroke: #000000" x="464" y="176" width="12" height="8" rx="2" ry="2"/>
  </g>
  <text font-size="12.8" style="fill: #000000;text-anchor:start;font-family:sans-serif;font-style:normal;font-weight:normal" x="480" y="160">
    <tspan x="480" y="160">Commits</tspan>
  </text>
  <text font-size="12.8" style="fill: #000000;text-anchor:start;font-family:sans-serif;font-style:normal;font-weight:normal" x="480" y="172">
    <tspan x="480" y="172">Trees</tspan>
  </text>
  <text font-size="12.8" style="fill: #000000;text-anchor:start;font-family:sans-serif;font-style:normal;font-weight:normal" x="480" y="184">
    <tspan x="480" y="184">Blobs</tspan>
  </text>
  <g>
    <line style="fill: none; fill-opacity:0; stroke-width: 1; stroke-linejoin: round; stroke-dasharray: 4; stroke: #000000" x1="392" y1="75" x2="449.5" y2="74.0417"/>
    <polygon style="fill: #000000" points="449.517,75.0415 451.5,74.0083 449.484,73.0418 "/>
    <polygon style="fill: none; fill-opacity:0; stroke-width: 1; stroke: #000000" points="449.517,75.0415 451.5,74.0083 449.484,73.0418 "/>
  </g>
  <g>
    <line style="fill: none; fill-opacity:0; stroke-width: 1; stroke-dasharray: 4; stroke: #000000" x1="390" y1="124" x2="449.5" y2="124"/>
    <polygon style="fill: #000000" points="449.5,125 451.5,124 449.5,123 "/>
    <polygon style="fill: none; fill-opacity:0; stroke-width: 1; stroke: #000000" points="449.5,125 451.5,124 449.5,123 "/>
  </g>
  <text font-size="12.8" style="fill: #000000;text-anchor:start;font-family:sans-serif;font-style:normal;font-weight:normal" x="516.886" y="115.871">
    <tspan x="516.886" y="115.871"></tspan>
  </text>
  <g>
    <rect style="fill: #ffffbb" x="470" y="-9.125" width="180" height="150" rx="6" ry="6"/>
    <rect style="fill: none; fill-opacity:0; stroke-width: 2; stroke-linejoin: round; stroke: #000000" x="470" y="-9.125" width="180" height="150" rx="6" ry="6"/>
  </g>
  <g>
    <rect style="fill: #699768" x="490.126" y="100.75" width="53.5238" height="30.2426" rx="6" ry="6"/>
    <rect style="fill: none; fill-opacity:0; stroke-width: 1; stroke-linejoin: round; stroke: #000000" x="490.126" y="100.75" width="53.5238" height="30.2426" rx="6" ry="6"/>
  </g>
  <g>
    <rect style="fill: #c5919b" x="340" y="110" width="52" height="30" rx="6" ry="6"/>
    <rect style="fill: none; fill-opacity:0; stroke-width: 1; stroke-linejoin: round; stroke: #000000" x="340" y="110" width="52" height="30" rx="6" ry="6"/>
  </g>
  <g>
    <rect style="fill: #699768" x="489.874" y="9.5" width="54" height="30" rx="6" ry="6"/>
    <rect style="fill: none; fill-opacity:0; stroke-width: 1; stroke-linejoin: round; stroke: #000000" x="489.874" y="9.5" width="54" height="30" rx="6" ry="6"/>
  </g>
  <g>
    <rect style="fill: #8086ac" x="576.5" y="50.5" width="54.0202" height="28.2426" rx="6" ry="6"/>
    <rect style="fill: none; fill-opacity:0; stroke-width: 1; stroke-linejoin: round; stroke: #000000" x="576.5" y="50.5" width="54.0202" height="28.2426" rx="6" ry="6"/>
  </g>
  <g>
    <rect style="fill: #8086ac" x="576.5" y="100.375" width="54.0202" height="30.2426" rx="6" ry="6"/>
    <rect style="fill: none; fill-opacity:0; stroke-width: 1; stroke-linejoin: round; stroke: #000000" x="576.5" y="100.375" width="54.0202" height="30.2426" rx="6" ry="6"/>
  </g>
  <g>
    <line style="fill: none; fill-opacity:0; stroke-width: 1; stroke-linejoin: round; stroke: #000000" x1="392" y1="25" x2="486.867" y2="24.6201"/>
    <polygon style="fill: #000000" points="486.871,25.6201 488.867,24.6121 486.863,23.6202 "/>
    <polygon style="fill: none; fill-opacity:0; stroke-width: 1; stroke: #000000" points="486.871,25.6201 488.867,24.6121 486.863,23.6202 "/>
  </g>
  <g>
    <line style="fill: none; fill-opacity:0; stroke-width: 1; stroke: #000000" x1="543.876" y1="24.5" x2="574" y2="24.5"/>
    <polygon style="fill: #000000" points="574,25.5 576,24.5 574,23.5 "/>
    <polygon style="fill: none; fill-opacity:0; stroke-width: 1; stroke: #000000" points="574,25.5 576,24.5 574,23.5 "/>
  </g>
  <g>
    <line style="fill: none; fill-opacity:0; stroke-width: 1; stroke: #000000" x1="516.876" y1="39.5" x2="516.886" y2="98.25"/>
    <polygon style="fill: #000000" points="515.886,98.2502 516.886,100.25 517.886,98.2498 "/>
    <polygon style="fill: none; fill-opacity:0; stroke-width: 1; stroke: #000000" points="515.886,98.2502 516.886,100.25 517.886,98.2498 "/>
  </g>
  <g>
    <line style="fill: none; fill-opacity:0; stroke-width: 1; stroke: #000000" x1="543.876" y1="24.5" x2="574.923" y2="62.6817"/>
    <polygon style="fill: #000000" points="574.147,63.3126 576.185,64.2335 575.699,62.0508 "/>
    <polygon style="fill: none; fill-opacity:0; stroke-width: 1; stroke: #000000" points="574.147,63.3126 576.185,64.2335 575.699,62.0508 "/>
  </g>
  <text font-size="11.0292" style="fill: #000000;text-anchor:middle;font-family:monospace;font-style:normal;font-weight:normal" x="516.876" y="27.35">
    <tspan x="516.876" y="27.35">/</tspan>
  </text>
  <text font-size="11.0292" style="fill: #000000;text-anchor:middle;font-family:monospace;font-style:normal;font-weight:normal" x="516.886" y="118.721">
    <tspan x="516.886" y="118.721">test</tspan>
  </text>
  <text font-size="11.0292" style="fill: #000000;text-anchor:middle;font-family:monospace;font-style:normal;font-weight:normal" x="603.51" y="67.4714">
    <tspan x="603.51" y="67.4714">README</tspan>
  </text>
  <text font-size="11.0292" style="fill: #000000;text-anchor:middle;font-family:monospace;font-style:normal;font-weight:normal" x="603.51" y="118.346">
    <tspan x="603.51" y="118.346">test.sh</tspan>
  </text>
  <text font-size="12.8" style="fill: #000000;text-anchor:middle;font-family:sans-serif;font-style:normal;font-weight:normal" x="560" y="5.075">
    <tspan x="560" y="5.075">Commit  C4</tspan>
  </text>
  <g>
    <line style="fill: none; fill-opacity:0; stroke-width: 1; stroke: #000000" x1="543.648" y1="115.871" x2="574" y2="115.756"/>
    <polygon style="fill: #000000" points="574.004,116.756 576,115.748 573.996,114.756 "/>
    <polygon style="fill: none; fill-opacity:0; stroke-width: 1; stroke: #000000" points="574.004,116.756 576,115.748 573.996,114.756 "/>
  </g>
  <text font-size="12.8919" style="fill: #000000;text-anchor:middle;font-family:monospace;font-style:normal;font-weight:normal" x="366" y="128.45">
    <tspan x="366" y="128.45">C2</tspan>
  </text>
  <g>
    <rect style="fill: #c5919b" x="340" y="160" width="52" height="30" rx="6" ry="6"/>
    <rect style="fill: none; fill-opacity:0; stroke-width: 1; stroke-linejoin: round; stroke: #000000" x="340" y="160" width="52" height="30" rx="6" ry="6"/>
  </g>
  <g>
    <line style="fill: none; fill-opacity:0; stroke-width: 1; stroke-linejoin: round; stroke: #000000" x1="366" y1="140" x2="366" y2="153.5"/>
    <polygon style="fill: #000000" points="363,153.5 366,159.5 369,153.5 "/>
    <polygon style="fill: none; fill-opacity:0; stroke-width: 1; stroke: #000000" points="363,153.5 366,159.5 369,153.5 "/>
  </g>
  <text font-size="12.8919" style="fill: #000000;text-anchor:middle;font-family:monospace;font-style:normal;font-weight:normal" x="366" y="178.45">
    <tspan x="366" y="178.45">C1</tspan>
  </text>
  <g>
    <line style="fill: none; fill-opacity:0; stroke-width: 1; stroke-dasharray: 4; stroke: #000000" x1="392" y1="175" x2="448" y2="175.096"/>
    <polygon style="fill: #000000" points="447.998,176.096 450,175.099 448.002,174.096 "/>
    <polygon style="fill: none; fill-opacity:0; stroke-width: 1; stroke: #000000" points="447.998,176.096 450,175.099 448.002,174.096 "/>
  </g>
  <g>
    <rect style="fill: #8086ac" x="576.5" y="9.5" width="54" height="30" rx="6" ry="6"/>
    <rect style="fill: none; fill-opacity:0; stroke-width: 1; stroke-linejoin: round; stroke: #000000" x="576.5" y="9.5" width="54" height="30" rx="6" ry="6"/>
  </g>
  <text font-size="11.0292" style="fill: #000000;text-anchor:middle;font-family:monospace;font-style:normal;font-weight:normal" x="603.5" y="27.35">
    <tspan x="603.5" y="27.35">hello.py</tspan>
  </text>
</svg>
