<svg xmlns="http://www.w3.org/2000/svg" xmlns:xlink="http://www.w3.org/1999/xlink" width="332pt" height="304" viewBox="0 0 332 228"><defs><symbol overflow="visible" id="a"><path style="stroke:none" d="M2.348-3.852V0H1.273v-9.258h2.54c1.132 0 1.972.219 2.515.653.543.437.813 1.09.817 1.96C7.14-5.418 6.52-4.59 5.28-4.16L7.797 0H6.523L4.281-3.852Zm0-.921h1.476c.758.003 1.317-.149 1.672-.454.352-.3.527-.753.531-1.359-.004-.61-.183-1.047-.543-1.32-.359-.266-.937-.403-1.734-.407H2.348Zm0 0"/></symbol><symbol overflow="visible" id="b"><path style="stroke:none" d="M4.047.125C3.02.121 2.21-.188 1.617-.809 1.023-1.434.727-2.3.727-3.414s.273-2 .828-2.664c.547-.656 1.289-.988 2.218-.988.868 0 1.555.289 2.063.859.508.574.762 1.328.762 2.262v.664H1.816c.02.816.223 1.437.618 1.855.386.426.937.637 1.652.633A5.48 5.48 0 0 0 6.3-1.262v.938A5.498 5.498 0 0 1 5.246.02a6.543 6.543 0 0 1-1.2.105Zm-.285-6.313c-.559 0-1.004.184-1.336.547-.332.364-.528.864-.582 1.504h3.629c0-.66-.149-1.164-.446-1.52-.297-.35-.718-.53-1.265-.53Zm0 0"/></symbol><symbol overflow="visible" id="c"><path style="stroke:none" d="M4.344.125a3.049 3.049 0 0 1-1.239-.25 2.268 2.268 0 0 1-.94-.77H2.09c.047.41.07.793.074 1.153v2.86h-1.05v-10.06h.855l.144.95h.051a2.44 2.44 0 0 1 .945-.82 2.855 2.855 0 0 1 1.235-.254c.914 0 1.625.316 2.129.945.5.629.75 1.512.754 2.644-.004 1.145-.258 2.028-.766 2.657-.512.629-1.219.941-2.117.945Zm-.153-6.3c-.71 0-1.222.198-1.539.59-.316.397-.48 1.022-.488 1.874v.234c-.004.977.16 1.672.488 2.094.325.422.848.633 1.567.63.597.003 1.066-.24 1.406-.727.34-.485.508-1.153.512-2.008-.004-.864-.172-1.528-.512-1.992-.34-.461-.82-.696-1.434-.696Zm0 0"/></symbol><symbol overflow="visible" id="d"><path style="stroke:none" d="M7.105-3.477C7.102-2.344 6.816-1.46 6.25-.828c-.574.637-1.363.95-2.363.953C3.262.121 2.71-.02 2.234-.309c-.484-.289-.855-.707-1.117-1.253-.262-.543-.39-1.18-.39-1.915 0-1.125.28-2.007.847-2.64s1.352-.95 2.36-.95c.968 0 1.742.325 2.312.97.57.648.856 1.523.86 2.62Zm-5.289 0c0 .891.176 1.567.532 2.028.355.469.879.699 1.566.695.688.004 1.207-.226 1.566-.691.352-.461.532-1.137.536-2.032-.004-.878-.184-1.55-.536-2.011-.359-.457-.882-.688-1.578-.688-.691 0-1.215.227-1.562.68-.352.453-.524 1.129-.524 2.02Zm0 0"/></symbol><symbol overflow="visible" id="e"><path style="stroke:none" d="M5.59-1.895c0 .649-.242 1.145-.723 1.497-.48.347-1.156.52-2.023.523C1.918.121 1.204-.02.69-.309v-.976c.332.172.688.305 1.07.398.38.102.747.149 1.106.145.547.004.969-.082 1.266-.262.293-.172.441-.441.445-.8-.004-.27-.121-.5-.351-.692-.239-.192-.696-.418-1.372-.684-.648-.238-1.105-.449-1.378-.629C1.203-3.989 1-4.19.87-4.418c-.137-.227-.203-.5-.2-.82-.003-.563.227-1.008.688-1.336.461-.328 1.09-.492 1.895-.492.742 0 1.473.152 2.191.457l-.375.851c-.699-.285-1.328-.43-1.89-.43-.504 0-.88.079-1.13.235-.253.156-.382.375-.378.648a.731.731 0 0 0 .14.473c.094.133.25.258.461.375.211.121.614.293 1.215.512.82.304 1.38.605 1.668.906.29.309.434.691.434 1.144Zm0 0"/></symbol><symbol overflow="visible" id="f"><path style="stroke:none" d="M2.164 0h-1.05v-6.941h1.05ZM1.027-8.82c-.004-.239.055-.418.176-.532a.63.63 0 0 1 .442-.168.668.668 0 0 1 .437.172c.117.118.18.293.184.528-.004.242-.067.418-.184.53a.598.598 0 0 1-.437.173.571.571 0 0 1-.442-.172c-.121-.113-.18-.29-.176-.531Zm0 0"/></symbol><symbol overflow="visible" id="g"><path style="stroke:none" d="M3.355-.742a2.74 2.74 0 0 0 .54-.04c.167-.023.304-.054.41-.085v.804A1.904 1.904 0 0 1 3.8.07a4.46 4.46 0 0 1-.598.055C1.86.121 1.188-.582 1.191-1.996v-4.129H.195v-.504l.996-.437.442-1.48h.61v1.605h2.01v.816h-2.01v4.086c-.005.418.093.738.296.96.195.227.469.34.816.337Zm0 0"/></symbol><symbol overflow="visible" id="h"><path style="stroke:none" d="M4.281-7.066c.305 0 .582.027.828.074l-.144.976a4.282 4.282 0 0 0-.762-.093c-.562.004-1.043.23-1.441.683-.403.457-.602 1.028-.598 1.703V0h-1.05v-6.941h.866l.122 1.285h.05a3.11 3.11 0 0 1 .93-1.043 2.117 2.117 0 0 1 1.2-.367Zm0 0"/></symbol><symbol overflow="visible" id="i"><path style="stroke:none" d="M.012-6.941H1.14l1.52 3.957c.331.906.538 1.558.62 1.957h.051c.05-.211.164-.578.344-1.102.172-.52.746-2.125 1.719-4.812h1.128L3.54.96c-.297.781-.644 1.336-1.035 1.664-.399.328-.883.492-1.453.492-.324 0-.64-.039-.95-.11v-.843c.227.047.489.074.778.078.723-.004 1.238-.41 1.547-1.215L2.812.04Zm0 0"/></symbol><symbol overflow="visible" id="j"><path style="stroke:none" d="M5.863 0v-4.488c-.004-.567-.133-.989-.386-1.27-.262-.277-.665-.418-1.207-.418-.735 0-1.27.2-1.602.598-.34.398-.508 1.05-.504 1.95V0h-1.05v-9.852h1.05v2.98c-.004.364-.02.661-.05.895h.066c.203-.332.496-.593.882-.789.38-.191.817-.289 1.31-.289.843 0 1.476.203 1.905.606.422.406.637 1.047.637 1.922V0Zm0 0"/></symbol><symbol overflow="visible" id="k"><path style="stroke:none" d="m5.383 0-.211-.988h-.05c-.345.437-.692.73-1.036.883-.348.152-.774.226-1.285.23C2.109.121 1.566-.051 1.18-.406.785-.758.59-1.262.594-1.918.59-3.316 1.71-4.051 3.957-4.121l1.18-.04v-.429c-.004-.539-.121-.941-.352-1.207-.238-.258-.613-.39-1.125-.39-.582 0-1.238.18-1.965.53l-.32-.804a4.99 4.99 0 0 1 1.121-.434 4.85 4.85 0 0 1 1.227-.16c.824 0 1.437.184 1.84.551.394.367.593.957.597 1.766V0ZM3.008-.742c.648.004 1.164-.176 1.539-.535.375-.36.562-.86.562-1.508v-.63l-1.05.048c-.84.031-1.442.16-1.809.39-.371.23-.559.59-.555 1.07-.004.384.114.673.344.868.23.203.55.3.969.297Zm0 0"/></symbol><symbol overflow="visible" id="m"><path style="stroke:none" d="M5.863 0v-4.488c-.004-.567-.133-.989-.386-1.27-.262-.277-.665-.418-1.207-.418-.73 0-1.262.2-1.598.59-.34.399-.512 1.047-.508 1.945V0h-1.05v-6.941h.855l.172.949h.05a2.14 2.14 0 0 1 .907-.793c.386-.188.82-.281 1.297-.281.835 0 1.464.203 1.886.605.422.402.633 1.047.633 1.934V0Zm0 0"/></symbol><symbol overflow="visible" id="n"><path style="stroke:none" d="M3.887.125C2.879.121 2.102-.184 1.555-.801 1-1.418.727-2.293.727-3.426c0-1.16.277-2.058.84-2.691.554-.633 1.351-.95 2.39-.95.328 0 .664.04 1 .11.332.074.594.156.785.25l-.32.894a5.424 5.424 0 0 0-.762-.23 3.938 3.938 0 0 0-.726-.094c-1.414.004-2.118.903-2.118 2.7 0 .855.172 1.507.516 1.96.344.457.852.688 1.531.684.575.004 1.168-.121 1.778-.371v.93C5.176.004 4.59.12 3.887.125Zm0 0"/></symbol><symbol overflow="visible" id="o"><path style="stroke:none" d="M4.242-6.125H2.477V0H1.426v-6.125H.184v-.473l1.242-.379v-.386c-.004-1.703.742-2.555 2.234-2.559.363.004.793.074 1.293.219l-.273.844c-.41-.13-.758-.192-1.04-.196-.398.004-.69.133-.878.395-.196.265-.29.691-.285 1.27v.449h1.765Zm0 0"/></symbol><symbol overflow="visible" id="p"><path style="stroke:none" d="M5.238-8.43c-1.02.004-1.824.344-2.41 1.02-.59.68-.883 1.605-.883 2.781 0 1.211.282 2.149.852 2.809.562.664 1.371.996 2.426.992.64.004 1.379-.113 2.21-.352v.946C6.79.004 5.997.12 5.06.125 3.69.121 2.64-.289 1.902-1.113 1.16-1.941.79-3.117.793-4.641c-.004-.953.176-1.789.535-2.507a3.847 3.847 0 0 1 1.543-1.66c.672-.383 1.465-.579 2.379-.583.969.004 1.816.18 2.547.532l-.457.925c-.703-.328-1.402-.492-2.102-.496Zm0 0"/></symbol><symbol overflow="visible" id="q"><path style="stroke:none" d="M9.96 0v-4.516c0-.55-.12-.964-.355-1.242-.242-.277-.609-.418-1.101-.418-.656 0-1.137.192-1.45.567-.312.379-.468.957-.468 1.734V0h-1.05v-4.516c-.005-.55-.122-.964-.356-1.242-.239-.277-.61-.418-1.11-.418-.66 0-1.144.2-1.449.594-.308.398-.46 1.047-.457 1.941V0h-1.05v-6.941h.855l.172.949h.05c.196-.332.473-.594.836-.79.36-.187.766-.284 1.215-.284 1.086 0 1.793.394 2.13 1.175h.05c.203-.359.5-.648.898-.859.39-.21.84-.316 1.344-.316.781 0 1.367.203 1.762.605.386.402.582 1.047.586 1.934V0Zm0 0"/></symbol><symbol overflow="visible" id="r"><path style="stroke:none" d="M4.121 0H3.047v-8.3H.113v-.958h6.942v.957H4.12Zm0 0"/></symbol><symbol overflow="visible" id="s"><path style="stroke:none" d="M1.273-9.258h2.614c1.226 0 2.117.184 2.668.551.547.367.82.95.824 1.742-.004.55-.156 1.004-.461 1.36-.309.359-.754.59-1.34.69v.063c1.406.243 2.11.985 2.11 2.22 0 .827-.282 1.472-.84 1.937C6.285-.23 5.504 0 4.504 0h-3.23Zm1.075 3.965H4.12c.758.004 1.305-.117 1.64-.355.329-.239.497-.641.5-1.211-.003-.516-.19-.891-.558-1.121-.375-.23-.965-.344-1.77-.348H2.349Zm0 .91v3.465H4.28c.746.004 1.309-.14 1.688-.434.375-.285.562-.738.566-1.359-.004-.57-.195-.992-.582-1.266-.387-.27-.976-.406-1.762-.406Zm0 0"/></symbol><symbol overflow="visible" id="t"><path style="stroke:none" d="M2.164 0h-1.05v-9.852h1.05Zm0 0"/></symbol><symbol overflow="visible" id="u"><path style="stroke:none" d="M4.344-7.055c.906 0 1.617.313 2.125.934.504.625.754 1.508.758 2.644-.004 1.145-.258 2.028-.766 2.657-.512.629-1.219.941-2.117.945a3.049 3.049 0 0 1-1.239-.25 2.268 2.268 0 0 1-.94-.77H2.09L1.867 0h-.754v-9.852h1.051v2.391c-.004.54-.02 1.02-.05 1.445h.05c.484-.691 1.211-1.039 2.18-1.039Zm-.153.88c-.718 0-1.234.206-1.55.62-.32.414-.48 1.11-.477 2.078-.004.977.16 1.672.488 2.094.325.422.848.633 1.567.63.644.003 1.125-.231 1.441-.704.317-.469.473-1.145.477-2.031-.004-.899-.16-1.575-.477-2.02-.316-.445-.808-.668-1.469-.668Zm0 0"/></symbol><symbol overflow="visible" id="v"><path style="stroke:none" d="M7.156-2.129H5.781V0H4.773v-2.129h-4.5v-.918l4.395-6.262h1.113v6.227h1.375Zm-2.383-.953V-6.16c-.003-.602.02-1.285.067-2.047h-.05a9.66 9.66 0 0 1-.571 1.008L1.324-3.082Zm0 0"/></symbol><symbol overflow="visible" id="w"><path style="stroke:none" d="M5.16-6.25a.658.658 0 0 0-.039-.227 2.034 2.034 0 0 0-.672-.668 1.803 1.803 0 0 0-.883-.246 1.684 1.684 0 0 0-.832.227 2.118 2.118 0 0 0-.687.66c-.203.29-.356.645-.465 1.059a5.23 5.23 0 0 0-.168 1.41 5.17 5.17 0 0 0 .168 1.394c.11.422.266.782.473 1.079.199.3.437.53.71.695.274.164.567.246.88.246.32 0 .628-.09.925-.274.297-.18.535-.425.723-.738l.672.442c-.133.218-.29.406-.469.57-.18.164-.371.305-.574.414a2.51 2.51 0 0 1-.61.25c-.203.055-.41.086-.617.086-.468 0-.882-.078-1.238-.238a2.866 2.866 0 0 1-.988-.746c-.301-.336-.532-.762-.692-1.286C.61-2.656.527-3.277.531-3.996.527-4.79.621-5.45.816-5.984c.188-.528.438-.954.75-1.278.309-.316.641-.543.993-.68a2.853 2.853 0 0 1 1.02-.203c.265 0 .526.04.784.118.254.078.492.187.711.324.219.14.414.308.59.5.172.195.313.41.418.652l-.867.43c-.04-.024-.059-.066-.055-.129Zm0 0"/></symbol><symbol overflow="visible" id="x"><path style="stroke:none" d="M3.879-8.094V0h-.895v-6.965l-1.636.48-.207-.503 2.113-1.106Zm0 0"/></symbol><symbol overflow="visible" id="y"><path style="stroke:none" d="M1.012-6.82c.23-.414.547-.735.953-.97a2.605 2.605 0 0 1 1.305-.343 2.385 2.385 0 0 1 1.66.664c.21.207.379.45.504.727.117.277.18.57.183.879a2.49 2.49 0 0 1-.113.715 3.536 3.536 0 0 1-.293.64 4.457 4.457 0 0 1-.422.586 6.897 6.897 0 0 1-.496.512l-.777.726c-.114.106-.243.23-.38.372a7.738 7.738 0 0 0-.804.976 5.27 5.27 0 0 0-.336.543h3.387c.039.004.082-.016.133-.055a.273.273 0 0 1 .14-.058h.035V0H.945v-.57a9.09 9.09 0 0 1 1.04-1.633c.37-.457.73-.84 1.077-1.156l.622-.57c.214-.196.39-.38.523-.551a3.13 3.13 0 0 0 .32-.485c.075-.152.125-.305.153-.45.023-.14.035-.284.039-.433a1.514 1.514 0 0 0-.117-.55 1.643 1.643 0 0 0-.329-.48 1.977 1.977 0 0 0-.48-.337 1.448 1.448 0 0 0-.55-.125 1.884 1.884 0 0 0-.602.098c-.18.066-.336.144-.47.234-.136.09-.241.188-.316.285-.082.102-.125.188-.128.266a.558.558 0 0 1-.055.152Zm0 0"/></symbol><symbol overflow="visible" id="z"><path style="stroke:none" d="M5.332-6.05c0 .394-.113.75-.332 1.066a1.818 1.818 0 0 1-.875.687c.414.149.746.41 1.004.79.25.382.379.816.383 1.296-.004.32-.063.621-.176.906-.121.285-.29.535-.508.75a2.366 2.366 0 0 1-.808.512c-.32.125-.684.184-1.09.188C2.133.14 1.453-.165.895-.777l.687-.817a.472.472 0 0 1 .078.172.381.381 0 0 0 .09.192l.184.164c.066.07.203.148.418.226.21.086.43.125.656.125.23 0 .449-.039.648-.125.2-.082.371-.2.52-.351.144-.145.258-.32.344-.524.078-.2.12-.41.125-.633-.004-.457-.18-.82-.528-1.09-.351-.265-.812-.398-1.379-.402-.074.004-.14.004-.203.008-.066.008-.133.016-.2.02v-.754c.395.003.728-.04.997-.122.266-.082.484-.19.656-.332.168-.136.29-.296.364-.484.07-.184.105-.387.109-.605-.004-.153-.04-.301-.106-.446a1.258 1.258 0 0 0-.285-.375 1.58 1.58 0 0 0-.441-.265 1.506 1.506 0 0 0-.567-.106 1.78 1.78 0 0 0-1.39.621l-.504-.558c.523-.574 1.168-.864 1.93-.867.308.003.601.058.875.164.273.109.507.257.707.449.199.191.36.41.476.656.117.246.176.508.176.785Zm0 0"/></symbol><symbol overflow="visible" id="A"><path style="stroke:none" d="M4.07-8.094h.754v5.059h1.04v.805h-1.04V0h-.933v-2.242H.62v-.664Zm-.168 1.442L1.516-3.035h2.386Zm0 0"/></symbol><symbol overflow="visible" id="B"><path style="stroke:none" d="m.828.168 4.063-8.793.777.402L1.594.543Zm0 0"/></symbol><symbol overflow="visible" id="C"><path style="stroke:none" d="m2.438-7.508 1.011-.168a1.006 1.006 0 0 1-.031.207c-.023.063-.04.11-.047.14l-.156 1.403H5.16v.75H3.215a19.852 19.852 0 0 0-.117 2.18c-.004.422.004.773.027 1.058.016.29.063.516.137.68a.82.82 0 0 0 .32.383c.133.094.32.137.559.137.398 0 .843-.18 1.332-.547l.285.742c-.598.441-1.211.66-1.84.66-.625 0-1.078-.187-1.363-.566-.29-.375-.422-.988-.39-1.84a24.35 24.35 0 0 1 .026-1.195c.016-.48.051-1.043.106-1.692H.907v-.75h1.429Zm0 0"/></symbol><symbol overflow="visible" id="D"><path style="stroke:none" d="M3.36-6.07c.304 0 .609.058.906.172.293.113.546.285.77.511.218.235.398.524.53.875.133.356.2.778.204 1.258-.004.07-.008.14-.008.215-.008.074-.012.144-.016.21H1.531c.012.419.082.767.211 1.048.125.281.285.508.477.68.187.171.398.296.633.37.23.075.464.11.703.11.61 0 1.117-.219 1.527-.664l.52.508c-.5.605-1.192.906-2.075.906-.433 0-.832-.067-1.187-.2a2.327 2.327 0 0 1-.914-.59 2.564 2.564 0 0 1-.582-.964 3.734 3.734 0 0 1-.207-1.32 3.74 3.74 0 0 1 .21-1.332c.141-.391.337-.715.583-.98.246-.263.53-.466.863-.606a2.746 2.746 0 0 1 1.066-.207ZM1.57-3.578h3.254c-.004-.031 0-.063.004-.094.004-.027.004-.066.008-.113a1.614 1.614 0 0 0-.453-1.106 1.781 1.781 0 0 0-.488-.336 1.422 1.422 0 0 0-.602-.128 1.64 1.64 0 0 0-1.102.43c-.328.284-.535.734-.62 1.347Zm0 0"/></symbol><symbol overflow="visible" id="E"><path style="stroke:none" d="m5.602-5.137-.543.817c-.047-.004-.067-.04-.067-.102a.264.264 0 0 0-.027-.129 2.42 2.42 0 0 0-.668-.55 1.91 1.91 0 0 0-.98-.254c-.165 0-.325.02-.477.058-.152.04-.29.094-.406.164a.802.802 0 0 0-.282.266.659.659 0 0 0-.101.367c0 .105.023.2.078.281a.72.72 0 0 0 .246.239c.11.082.27.16.477.234.203.078.472.164.804.258.746.203 1.274.437 1.586.707.309.273.465.61.465 1.004 0 .265-.059.511-.172.742a1.751 1.751 0 0 1-.492.61 2.335 2.335 0 0 1-.777.405A3.239 3.239 0 0 1 3.242.13c-1 0-1.832-.309-2.504-.934l.532-.933c.023.027.039.07.05.125.008.062.04.129.094.207a.96.96 0 0 0 .285.273c.14.106.356.215.645.336.129.063.273.11.441.137.164.027.332.039.496.039.172 0 .348-.02.531-.067.176-.039.336-.101.485-.187.14-.078.258-.18.344-.3a.669.669 0 0 0 .132-.4c-.003-.222-.109-.413-.316-.573-.21-.153-.594-.313-1.148-.485a9.812 9.812 0 0 1-.758-.234c-.317-.117-.543-.227-.68-.32a1.756 1.756 0 0 1-.379-.325 1.468 1.468 0 0 1-.273-.43 1.234 1.234 0 0 1-.102-.527c-.004-.207.051-.406.168-.597.11-.188.27-.356.473-.508.203-.145.445-.266.726-.36.282-.09.586-.136.914-.136.907 0 1.641.312 2.204.933Zm0 0"/></symbol><symbol overflow="visible" id="F"><path style="stroke:none" d="M.906 0v-8.625h1.067c-.004.012-.004.02.004.016 0 .004.003.007.007.011a.232.232 0 0 1-.058.11.412.412 0 0 0-.086.175v3.438c.234-.363.527-.652.879-.871a2.034 2.034 0 0 1 1.074-.324c.266 0 .512.047.734.136.22.094.41.239.578.438.165.2.293.457.38.766.085.312.128.69.132 1.136V0h-.933v-3.566c-.004-.622-.11-1.059-.32-1.309-.216-.25-.473-.375-.77-.379a1.543 1.543 0 0 0-.598.133 2.234 2.234 0 0 0-.578.363 1.542 1.542 0 0 0-.43.57 1.878 1.878 0 0 0-.148.778V0Zm0 0"/></symbol><symbol overflow="visible" id="G"><path style="stroke:none" d="M1.102-8.625H3.71v7.871h1.734V0H1.023v-.754h1.75V-7.87H1.102Zm0 0"/></symbol><symbol overflow="visible" id="H"><path style="stroke:none" d="M3.293-6.055c.363.004.707.075 1.031.215.324.145.606.348.852.613.238.27.43.598.574.98.14.388.215.817.215 1.29 0 .488-.07.922-.207 1.297a3.1 3.1 0 0 1-.57.98c-.247.274-.532.48-.856.621-.332.141-.68.211-1.05.215A2.523 2.523 0 0 1 2.21-.078a2.668 2.668 0 0 1-.875-.64c-.25-.27-.45-.598-.598-.981A3.264 3.264 0 0 1 .52-2.93a3.24 3.24 0 0 1 .226-1.247 2.99 2.99 0 0 1 .61-.992c.25-.273.546-.488.886-.648a2.532 2.532 0 0 1 1.051-.239ZM5.031-2.93a3.352 3.352 0 0 0-.148-.992 2.388 2.388 0 0 0-.395-.734 1.782 1.782 0 0 0-.566-.453 1.609 1.609 0 0 0-.668-.157 1.58 1.58 0 0 0-.668.157 1.674 1.674 0 0 0-.559.453c-.16.199-.289.437-.382.718a2.81 2.81 0 0 0-.141.954c-.004.351.043.668.14.949.094.289.223.535.383.738.16.211.348.371.567.48.215.118.445.172.687.169a1.573 1.573 0 0 0 1.238-.59 2.23 2.23 0 0 0 .376-.719 3.5 3.5 0 0 0 .136-.973Zm0 0"/></symbol><symbol overflow="visible" id="I"><path style="stroke:none" d="M3.633-1.129c.152.16.226.336.23.531a.725.725 0 0 1-.226.524.79.79 0 0 1-.551.219.774.774 0 0 1-.547-.215.693.693 0 0 1-.219-.528c0-.203.078-.379.235-.527a.749.749 0 0 1 .53-.223c.2 0 .384.075.548.22Zm0 0"/></symbol><symbol overflow="visible" id="J"><path style="stroke:none" d="M.777-5.926H1.7v.906c.2-.316.465-.57.801-.757a2.111 2.111 0 0 1 1.012-.278c.328.004.644.067.945.188.3.129.566.316.797.562.23.254.414.57.547.95.133.382.199.832.203 1.347-.004.524-.074.98-.215 1.375-.144.399-.336.73-.566.992a2.353 2.353 0 0 1-.805.598c-.3.133-.61.195-.918.2A2.207 2.207 0 0 1 2.48-.09c-.316-.16-.57-.39-.77-.687v2.941H.778ZM1.7-2.48c.016.64.164 1.093.446 1.367.277.277.62.418 1.03.414.22.004.434-.031.653-.102.215-.066.418-.183.602-.355.18-.164.324-.387.437-.664.106-.274.16-.617.164-1.035-.004-.75-.164-1.336-.476-1.758-.32-.414-.766-.633-1.34-.653a1.994 1.994 0 0 0-.535.09 1.178 1.178 0 0 0-.493.313 1.543 1.543 0 0 0-.351.586c-.094.246-.137.55-.137.906Zm0 0"/></symbol><symbol overflow="visible" id="K"><path style="stroke:none" d="m.766-5.512-.168-.414h1.129a.692.692 0 0 1-.028.176.3.3 0 0 0-.027.133c-.004.039.008.066.027.078l1.762 4.36L4.59-4.36a10.013 10.013 0 0 0 .441-1.567h.973c-.082.227-.168.48-.254.766-.094.285-.203.601-.328.945L3.812.027l-.246.649c-.21.574-.476.984-.8 1.222a1.87 1.87 0 0 1-1.118.36C1.082 2.254.628 2.086.285 1.75L.777.922a.334.334 0 0 1 .063.125.532.532 0 0 0 .043.113c-.004 0 .012.02.05.059.032.039.079.078.133.117.055.039.125.074.215.113a.95.95 0 0 0 .29.055c.25-.004.468-.082.663-.234.192-.16.387-.446.579-.852l.183-.445Zm0 0"/></symbol><symbol overflow="visible" id="L"><path style="stroke:none" d="M.727-8.078h2.386c.946.004 1.633.215 2.055.637.418.421.625.98.629 1.671a2.334 2.334 0 0 1-.117.692c-.082.23-.192.445-.332.644-.145.2-.317.372-.516.52a1.838 1.838 0 0 1-.684.309L6.016 0H5.008L3.215-3.566H1.66V0H.727Zm.933.855v2.852h1.563c.578 0 .996-.125 1.254-.383.257-.25.386-.59.386-1.016 0-.207-.035-.398-.105-.57a1.52 1.52 0 0 0-.29-.453 1.54 1.54 0 0 0-.5-.312 2.336 2.336 0 0 0-.745-.118Zm0 0"/></symbol><symbol overflow="visible" id="M"><path style="stroke:none" d="M.766-8.094h4.953v.805H1.62v2.66h3.387v.856H1.62v2.968H5.68V0H.766Zm0 0"/></symbol><symbol overflow="visible" id="N"><path style="stroke:none" d="m.2 0 2.855-8.223h.101L6.27 0h-.934L4.44-2.36H1.875L1.098 0Zm4.034-3.063-1.14-3.085-1.04 3.085Zm0 0"/></symbol><symbol overflow="visible" id="O"><path style="stroke:none" d="M.7-8.078h1.882c.688.004 1.227.098 1.613.285.383.191.707.465.98.816.266.356.466.786.595 1.286a6.83 6.83 0 0 1 .195 1.695c0 .625-.078 1.183-.235 1.676a4.1 4.1 0 0 1-.64 1.265 2.56 2.56 0 0 1-1.055.797c-.433.18-.969.27-1.61.27H.7Zm.855.75V-.7h.824c.918.004 1.59-.278 2.016-.836.421-.559.632-1.363.636-2.414-.011-1.055-.207-1.88-.586-2.48-.383-.594-1.023-.895-1.922-.9Zm0 0"/></symbol><symbol overflow="visible" id="P"><path style="stroke:none" d="M.531-8.078h.715l1.996 3.953 2.035-3.969h.688V0h-.856v-6.094L3.36-2.84h-.351L1.375-6.055V0H.531Zm0 0"/></symbol></defs><path style="fill-rule:nonzero;fill:#fff;fill-opacity:1;stroke-width:0;stroke-linecap:butt;stroke-linejoin:miter;stroke:#000;stroke-opacity:1;stroke-miterlimit:10" d="M0 0h16.6v11.4H0Zm0 0" transform="scale(20)"/><path style="fill:none;stroke-width:.05;stroke-linecap:butt;stroke-linejoin:miter;stroke:#000;stroke-opacity:1;stroke-miterlimit:10" d="M1.9 3.2v.675" transform="scale(20)"/><path style="fill-rule:evenodd;fill:#000;fill-opacity:1;stroke-width:.05;stroke-linecap:butt;stroke-linejoin:miter;stroke:#000;stroke-opacity:1;stroke-miterlimit:10" d="m1.75 3.875.15.3.15-.3h-.3Zm0 0" transform="scale(20)"/><path style="fill:none;stroke-width:.05;stroke-linecap:butt;stroke-linejoin:miter;stroke:#000;stroke-opacity:1;stroke-miterlimit:10" d="M1.9 5.8v.675" transform="scale(20)"/><path style="fill-rule:evenodd;fill:#000;fill-opacity:1;stroke-width:.05;stroke-linecap:butt;stroke-linejoin:miter;stroke:#000;stroke-opacity:1;stroke-miterlimit:10" d="m1.75 6.475.15.3.15-.3h-.3Zm0 0" transform="scale(20)"/><g style="fill:#000;fill-opacity:1"><use xlink:href="#a" x="10" y="24"/><use xlink:href="#b" x="18.008" y="24"/><use xlink:href="#c" x="25.293" y="24"/><use xlink:href="#d" x="33.242" y="24"/><use xlink:href="#e" x="41.074" y="24"/><use xlink:href="#f" x="47.266" y="24"/><use xlink:href="#g" x="50.547" y="24"/><use xlink:href="#d" x="55.117" y="24"/><use xlink:href="#h" x="62.949" y="24"/><use xlink:href="#i" x="68.242" y="24"/></g><path style="fill:none;stroke-width:.05;stroke-linecap:butt;stroke-linejoin:miter;stroke:#000;stroke-opacity:1;stroke-miterlimit:10" d="M10.317 10.2h1.358" transform="scale(20)"/><path style="fill-rule:evenodd;fill:#000;fill-opacity:1;stroke-width:.05;stroke-linecap:butt;stroke-linejoin:miter;stroke:#000;stroke-opacity:1;stroke-miterlimit:10" d="m11.675 10.35.3-.15-.3-.15v.3Zm0 0" transform="scale(20)"/><g style="fill:#000;fill-opacity:1"><use xlink:href="#j" x="244" y="208"/><use xlink:href="#k" x="251.969" y="208"/><use xlink:href="#e" x="259.176" y="208"/><use xlink:href="#l" x="265.367" y="208"/><use xlink:href="#k" x="268.727" y="208"/><use xlink:href="#m" x="275.934" y="208"/><use xlink:href="#n" x="283.902" y="208"/><use xlink:href="#b" x="290.074" y="208"/><use xlink:href="#e" x="297.359" y="208"/><use xlink:href="#g" x="303.551" y="208"/><use xlink:href="#d" x="308.121" y="208"/><use xlink:href="#h" x="315.953" y="208"/></g><path style="fill:none;stroke-width:.05;stroke-linecap:butt;stroke-linejoin:miter;stroke:#000;stroke-opacity:1;stroke-miterlimit:10" d="M10.317 9.2h1.558" transform="scale(20)"/><path style="fill-rule:evenodd;fill:#000;fill-opacity:1;stroke-width:.05;stroke-linecap:butt;stroke-linejoin:miter;stroke:#000;stroke-opacity:1;stroke-miterlimit:10" d="m11.875 9.25.1-.05-.1-.05v.1Zm0 0" transform="scale(20)"/><g style="fill:#000;fill-opacity:1"><use xlink:href="#h" x="244" y="188"/><use xlink:href="#b" x="249.293" y="188"/><use xlink:href="#o" x="256.578" y="188"/><use xlink:href="#b" x="260.973" y="188"/><use xlink:href="#h" x="268.258" y="188"/><use xlink:href="#b" x="273.551" y="188"/><use xlink:href="#m" x="280.836" y="188"/><use xlink:href="#n" x="288.805" y="188"/><use xlink:href="#b" x="294.977" y="188"/><use xlink:href="#e" x="302.262" y="188"/></g><path style="fill-rule:evenodd;fill:#e9a4de;fill-opacity:1;stroke-width:.05;stroke-linecap:butt;stroke-linejoin:round;stroke:#000;stroke-opacity:1;stroke-miterlimit:10" d="M6.8 8.8h.4a.1.1 0 0 1 .1.1v.2a.1.1 0 0 1-.1.1h-.4a.1.1 0 0 1-.1-.1v-.2a.1.1 0 0 1 .1-.1" transform="scale(20)"/><path style="fill-rule:evenodd;fill:#a9e5a1;fill-opacity:1;stroke-width:.05;stroke-linecap:butt;stroke-linejoin:round;stroke:#000;stroke-opacity:1;stroke-miterlimit:10" d="M6.8 9.4h.4a.1.1 0 0 1 .1.1v.2a.1.1 0 0 1-.1.1h-.4a.1.1 0 0 1-.1-.1v-.2a.1.1 0 0 1 .1-.1" transform="scale(20)"/><path style="fill-rule:evenodd;fill:#a1bbe5;fill-opacity:1;stroke-width:.05;stroke-linecap:butt;stroke-linejoin:round;stroke:#000;stroke-opacity:1;stroke-miterlimit:10" d="M6.8 10h.4a.1.1 0 0 1 .1.1v.2a.1.1 0 0 1-.1.1h-.4a.1.1 0 0 1-.1-.1v-.2a.1.1 0 0 1 .1-.1" transform="scale(20)"/><g style="fill:#000;fill-opacity:1"><use xlink:href="#p" x="150" y="184"/><use xlink:href="#d" x="158.184" y="184"/><use xlink:href="#q" x="166.016" y="184"/><use xlink:href="#q" x="178.086" y="184"/><use xlink:href="#f" x="190.156" y="184"/><use xlink:href="#g" x="193.438" y="184"/><use xlink:href="#e" x="198.008" y="184"/></g><g style="fill:#000;fill-opacity:1"><use xlink:href="#r" x="150" y="196"/><use xlink:href="#h" x="157.168" y="196"/><use xlink:href="#b" x="162.461" y="196"/><use xlink:href="#b" x="169.746" y="196"/><use xlink:href="#e" x="177.031" y="196"/></g><g style="fill:#000;fill-opacity:1"><use xlink:href="#s" x="150" y="208"/><use xlink:href="#t" x="158.398" y="208"/><use xlink:href="#d" x="161.68" y="208"/><use xlink:href="#u" x="169.512" y="208"/><use xlink:href="#e" x="177.461" y="208"/></g><path style="fill:none;stroke-width:.05;stroke-linecap:butt;stroke-linejoin:round;stroke:#000;stroke-opacity:1;stroke-dasharray:.1,.1;stroke-miterlimit:10" d="M3.4 5h2.475" transform="scale(20)"/><path style="fill-rule:evenodd;fill:#000;fill-opacity:1;stroke-width:.05;stroke-linecap:butt;stroke-linejoin:miter;stroke:#000;stroke-opacity:1;stroke-miterlimit:10" d="m5.875 5.05.1-.05-.1-.05v.1Zm0 0" transform="scale(20)"/><path style="fill:none;stroke-width:.05;stroke-linecap:butt;stroke-linejoin:miter;stroke:#000;stroke-opacity:1;stroke-dasharray:.1,.1;stroke-miterlimit:10" d="M3.4 7.6h2.675" transform="scale(20)"/><path style="fill-rule:evenodd;fill:#000;fill-opacity:1;stroke-width:.05;stroke-linecap:butt;stroke-linejoin:miter;stroke:#000;stroke-opacity:1;stroke-miterlimit:10" d="m6.075 7.65.1-.05-.1-.05v.1Zm0 0" transform="scale(20)"/><path style="fill-rule:evenodd;fill:#fefad8;fill-opacity:1;stroke-width:.1;stroke-linecap:butt;stroke-linejoin:round;stroke:#000;stroke-opacity:1;stroke-miterlimit:10" d="M7.1.4h8.8a.3.3 0 0 1 .3.3v7a.3.3 0 0 1-.3.3H7.1a.3.3 0 0 1-.3-.3v-7a.3.3 0 0 1 .3-.3" transform="scale(20)"/><path style="fill:none;stroke-width:.05;stroke-linecap:butt;stroke-linejoin:round;stroke:#000;stroke-opacity:1;stroke-miterlimit:10" d="M3.425 2.4h3.65" transform="scale(20)"/><path style="fill-rule:evenodd;fill:#000;fill-opacity:1;stroke-width:.05;stroke-linecap:butt;stroke-linejoin:miter;stroke:#000;stroke-opacity:1;stroke-miterlimit:10" d="m7.075 2.45.1-.05-.1-.05v.1Zm0 0" transform="scale(20)"/><path style="fill:none;stroke-width:.05;stroke-linecap:butt;stroke-linejoin:miter;stroke:#000;stroke-opacity:1;stroke-miterlimit:10" d="M10.2 2.4h2.275" transform="scale(20)"/><path style="fill-rule:evenodd;fill:#000;fill-opacity:1;stroke-width:.05;stroke-linecap:butt;stroke-linejoin:miter;stroke:#000;stroke-opacity:1;stroke-miterlimit:10" d="m12.475 2.45.1-.05-.1-.05v.1Zm0 0" transform="scale(20)"/><path style="fill:none;stroke-width:.05;stroke-linecap:butt;stroke-linejoin:miter;stroke:#000;stroke-opacity:1;stroke-miterlimit:10" d="M8.7 3.225V5.85" transform="scale(20)"/><path style="fill-rule:evenodd;fill:#000;fill-opacity:1;stroke-width:.05;stroke-linecap:butt;stroke-linejoin:miter;stroke:#000;stroke-opacity:1;stroke-miterlimit:10" d="m8.65 5.85.05.1.05-.1h-.1Zm0 0" transform="scale(20)"/><path style="fill:none;stroke-width:.05;stroke-linecap:butt;stroke-linejoin:miter;stroke:#000;stroke-opacity:1;stroke-miterlimit:10" d="m10.2 2.4 2.308 2.116" transform="scale(20)"/><path style="fill-rule:evenodd;fill:#000;fill-opacity:1;stroke-width:.05;stroke-linecap:butt;stroke-linejoin:miter;stroke:#000;stroke-opacity:1;stroke-miterlimit:10" d="m12.474 4.552.108.031-.04-.104-.068.073Zm0 0" transform="scale(20)"/><g style="fill:#000;fill-opacity:1"><use xlink:href="#p" x="192.844" y="25.051"/><use xlink:href="#d" x="201.027" y="25.051"/><use xlink:href="#q" x="208.859" y="25.051"/><use xlink:href="#q" x="220.93" y="25.051"/><use xlink:href="#f" x="233" y="25.051"/><use xlink:href="#g" x="236.281" y="25.051"/><use xlink:href="#l" x="240.852" y="25.051"/><use xlink:href="#l" x="244.211" y="25.051"/><use xlink:href="#p" x="247.57" y="25.051"/><use xlink:href="#v" x="255.754" y="25.051"/></g><path style="fill:none;stroke-width:.05;stroke-linecap:butt;stroke-linejoin:miter;stroke:#000;stroke-opacity:1;stroke-miterlimit:10" d="M10.2 6.8h2.275" transform="scale(20)"/><path style="fill-rule:evenodd;fill:#000;fill-opacity:1;stroke-width:.05;stroke-linecap:butt;stroke-linejoin:miter;stroke:#000;stroke-opacity:1;stroke-miterlimit:10" d="m12.475 6.85.1-.05-.1-.05v.1Zm0 0" transform="scale(20)"/><path style="fill:none;stroke-width:.05;stroke-linecap:butt;stroke-linejoin:miter;stroke:#000;stroke-opacity:1;stroke-miterlimit:10" d="M1.9 8.4v.675" transform="scale(20)"/><path style="fill-rule:evenodd;fill:#000;fill-opacity:1;stroke-width:.05;stroke-linecap:butt;stroke-linejoin:miter;stroke:#000;stroke-opacity:1;stroke-miterlimit:10" d="m1.75 9.075.15.3.15-.3h-.3Zm0 0" transform="scale(20)"/><path style="fill:none;stroke-width:.05;stroke-linecap:butt;stroke-linejoin:miter;stroke:#000;stroke-opacity:1;stroke-dasharray:.1,.1;stroke-miterlimit:10" d="M3.4 10.2h2.475" transform="scale(20)"/><path style="fill-rule:evenodd;fill:#000;fill-opacity:1;stroke-width:.05;stroke-linecap:butt;stroke-linejoin:miter;stroke:#000;stroke-opacity:1;stroke-miterlimit:10" d="m5.875 10.25.1-.05-.1-.05v.1Zm0 0" transform="scale(20)"/><path style="stroke:none;fill-rule:evenodd;fill:#e9a4de;fill-opacity:1" d="M14 188h48v32H14ZM14 194v-6c-3.313 0-6 2.688-6 6h6ZM62 194h6c0-3.313-2.688-6-6-6v6Zm0 0"/><path style="stroke:none;fill-rule:evenodd;fill:#e9a4de;fill-opacity:1" d="M8 194h60v20H8ZM14 214H8c0 3.313 2.688 6 6 6v-6ZM62 214v6c3.313 0 6-2.688 6-6h-6Zm0 0"/><path style="fill:none;stroke-width:.05;stroke-linecap:butt;stroke-linejoin:miter;stroke:#000;stroke-opacity:1;stroke-miterlimit:10" d="M.7 9.4h2.4M.7 11h2.4M.7 9.4a.3.3 0 0 0-.3.3M3.4 9.7a.3.3 0 0 0-.3-.3M.4 9.7v1M3.4 9.7v1M.4 10.7a.3.3 0 0 0 .3.3M3.1 11a.3.3 0 0 0 .3-.3" transform="scale(20)"/><g style="fill:#000;fill-opacity:1"><use xlink:href="#w" x="31.516" y="207.035"/><use xlink:href="#x" x="38" y="207.035"/></g><path style="stroke:none;fill-rule:evenodd;fill:#e9a4de;fill-opacity:1" d="M14 136h48v32H14ZM14 142v-6c-3.313 0-6 2.688-6 6h6ZM62 142h6c0-3.313-2.688-6-6-6v6Zm0 0"/><path style="stroke:none;fill-rule:evenodd;fill:#e9a4de;fill-opacity:1" d="M8 142h60v20H8ZM14 162H8c0 3.313 2.688 6 6 6v-6ZM62 162v6c3.313 0 6-2.688 6-6h-6Zm0 0"/><path style="fill:none;stroke-width:.05;stroke-linecap:butt;stroke-linejoin:miter;stroke:#000;stroke-opacity:1;stroke-miterlimit:10" d="M.7 6.8h2.4M.7 8.4h2.4M.7 6.8a.3.3 0 0 0-.3.3M3.4 7.1a.3.3 0 0 0-.3-.3M.4 7.1v1M3.4 7.1v1M.4 8.1a.3.3 0 0 0 .3.3M3.1 8.4a.3.3 0 0 0 .3-.3" transform="scale(20)"/><g style="fill:#000;fill-opacity:1"><use xlink:href="#w" x="31.516" y="155.035"/><use xlink:href="#y" x="38" y="155.035"/></g><path style="stroke:none;fill-rule:evenodd;fill:#e9a4de;fill-opacity:1" d="M14 84h48v32H14ZM14 90v-6c-3.313 0-6 2.688-6 6h6ZM62 90h6c0-3.313-2.688-6-6-6v6Zm0 0"/><path style="stroke:none;fill-rule:evenodd;fill:#e9a4de;fill-opacity:1" d="M8 90h60v20H8ZM14 110H8c0 3.313 2.688 6 6 6v-6ZM62 110v6c3.313 0 6-2.688 6-6h-6Zm0 0"/><path style="fill:none;stroke-width:.05;stroke-linecap:butt;stroke-linejoin:miter;stroke:#000;stroke-opacity:1;stroke-miterlimit:10" d="M.7 4.2h2.4M.7 5.8h2.4M.7 4.2a.3.3 0 0 0-.3.3M3.4 4.5a.3.3 0 0 0-.3-.3M.4 4.5v1M3.4 4.5v1M.4 5.5a.3.3 0 0 0 .3.3M3.1 5.8a.3.3 0 0 0 .3-.3" transform="scale(20)"/><g style="fill:#000;fill-opacity:1"><use xlink:href="#w" x="31.516" y="103.035"/><use xlink:href="#z" x="38" y="103.035"/></g><path style="stroke:none;fill-rule:evenodd;fill:#e9a4de;fill-opacity:1" d="M14 32h48v32H14ZM14 38v-6c-3.313 0-6 2.688-6 6h6ZM62 38h6c0-3.313-2.688-6-6-6v6Zm0 0"/><path style="stroke:none;fill-rule:evenodd;fill:#e9a4de;fill-opacity:1" d="M8 38h60v20H8ZM14 58H8c0 3.313 2.688 6 6 6v-6ZM62 58v6c3.313 0 6-2.688 6-6h-6Zm0 0"/><path style="fill:none;stroke-width:.05;stroke-linecap:butt;stroke-linejoin:miter;stroke:#000;stroke-opacity:1;stroke-miterlimit:10" d="M.7 1.6h2.4M.7 3.2h2.4M.7 1.6a.3.3 0 0 0-.3.3M3.4 1.9a.3.3 0 0 0-.3-.3M.4 1.9v1M3.4 1.9v1M.4 2.9a.3.3 0 0 0 .3.3M3.1 3.2a.3.3 0 0 0 .3-.3" transform="scale(20)"/><g style="fill:#000;fill-opacity:1"><use xlink:href="#w" x="31.516" y="51.035"/><use xlink:href="#A" x="38" y="51.035"/></g><path style="stroke:none;fill-rule:evenodd;fill:#a9e5a1;fill-opacity:1" d="M150 32h48v32h-48ZM150 38v-6c-3.313 0-6 2.688-6 6h6ZM198 38h6c0-3.313-2.688-6-6-6v6Zm0 0"/><path style="stroke:none;fill-rule:evenodd;fill:#a9e5a1;fill-opacity:1" d="M144 38h60v20h-60ZM150 58h-6c0 3.313 2.688 6 6 6v-6ZM198 58v6c3.313 0 6-2.688 6-6h-6Zm0 0"/><path style="fill:none;stroke-width:.05;stroke-linecap:butt;stroke-linejoin:miter;stroke:#000;stroke-opacity:1;stroke-miterlimit:10" d="M7.5 1.6h2.4M7.5 3.2h2.4M7.5 1.6a.3.3 0 0 0-.3.3M10.2 1.9a.3.3 0 0 0-.3-.3M7.2 1.9v1M10.2 1.9v1M7.2 2.9a.3.3 0 0 0 .3.3M9.9 3.2a.3.3 0 0 0 .3-.3" transform="scale(20)"/><use xlink:href="#B" x="170.758" y="51.035" style="fill:#000;fill-opacity:1"/><path style="stroke:none;fill-rule:evenodd;fill:#a9e5a1;fill-opacity:1" d="M150 120h48v32h-48ZM150 126v-6c-3.313 0-6 2.688-6 6h6ZM198 126h6c0-3.313-2.688-6-6-6v6Zm0 0"/><path style="stroke:none;fill-rule:evenodd;fill:#a9e5a1;fill-opacity:1" d="M144 126h60v20h-60ZM150 146h-6c0 3.313 2.688 6 6 6v-6ZM198 146v6c3.313 0 6-2.688 6-6h-6Zm0 0"/><path style="fill:none;stroke-width:.05;stroke-linecap:butt;stroke-linejoin:miter;stroke:#000;stroke-opacity:1;stroke-miterlimit:10" d="M7.5 6h2.4M7.5 7.6h2.4M7.5 6a.3.3 0 0 0-.3.3M10.2 6.3a.3.3 0 0 0-.3-.3M7.2 6.3v1M10.2 6.3v1M7.2 7.3a.3.3 0 0 0 .3.3M9.9 7.6a.3.3 0 0 0 .3-.3" transform="scale(20)"/><g style="fill:#000;fill-opacity:1"><use xlink:href="#C" x="161.031" y="139.035"/><use xlink:href="#D" x="167.516" y="139.035"/><use xlink:href="#E" x="174" y="139.035"/><use xlink:href="#C" x="180.484" y="139.035"/></g><path style="stroke:none;fill-rule:evenodd;fill:#a1bbe5;fill-opacity:1" d="M258 32h52v32h-52ZM258 38v-6c-3.313 0-6 2.688-6 6h6ZM310 38h6c0-3.313-2.688-6-6-6v6Zm0 0"/><path style="stroke:none;fill-rule:evenodd;fill:#a1bbe5;fill-opacity:1" d="M252 38h64v20h-64ZM258 58h-6c0 3.313 2.688 6 6 6v-6ZM310 58v6c3.313 0 6-2.688 6-6h-6Zm0 0"/><path style="fill:none;stroke-width:.05;stroke-linecap:butt;stroke-linejoin:miter;stroke:#000;stroke-opacity:1;stroke-miterlimit:10" d="M12.9 1.6h2.6M12.9 3.2h2.6M12.9 1.6a.3.3 0 0 0-.3.3M15.8 1.9a.3.3 0 0 0-.3-.3M12.6 1.9v1M15.8 1.9v1M12.6 2.9a.3.3 0 0 0 .3.3M15.5 3.2a.3.3 0 0 0 .3-.3" transform="scale(20)"/><g style="fill:#000;fill-opacity:1"><use xlink:href="#F" x="258.063" y="51.035"/><use xlink:href="#D" x="264.547" y="51.035"/><use xlink:href="#G" x="271.031" y="51.035"/><use xlink:href="#G" x="277.516" y="51.035"/><use xlink:href="#H" x="284" y="51.035"/><use xlink:href="#I" x="290.484" y="51.035"/><use xlink:href="#J" x="296.969" y="51.035"/><use xlink:href="#K" x="303.453" y="51.035"/></g><path style="stroke:none;fill-rule:evenodd;fill:#a1bbe5;fill-opacity:1" d="M258 76h52v32h-52ZM258 82v-6c-3.313 0-6 2.688-6 6h6ZM310 82h6c0-3.313-2.688-6-6-6v6Zm0 0"/><path style="stroke:none;fill-rule:evenodd;fill:#a1bbe5;fill-opacity:1" d="M252 82h64v20h-64ZM258 102h-6c0 3.313 2.688 6 6 6v-6ZM310 102v6c3.313 0 6-2.688 6-6h-6Zm0 0"/><path style="fill:none;stroke-width:.05;stroke-linecap:butt;stroke-linejoin:miter;stroke:#000;stroke-opacity:1;stroke-miterlimit:10" d="M12.9 3.8h2.6M12.9 5.4h2.6M12.9 3.8a.3.3 0 0 0-.3.3M15.8 4.1a.3.3 0 0 0-.3-.3M12.6 4.1v1M15.8 4.1v1M12.6 5.1a.3.3 0 0 0 .3.3M15.5 5.4a.3.3 0 0 0 .3-.3" transform="scale(20)"/><g style="fill:#000;fill-opacity:1"><use xlink:href="#L" x="264.547" y="95.035"/><use xlink:href="#M" x="271.031" y="95.035"/><use xlink:href="#N" x="277.516" y="95.035"/><use xlink:href="#O" x="284" y="95.035"/><use xlink:href="#P" x="290.484" y="95.035"/><use xlink:href="#M" x="296.969" y="95.035"/></g><path style="stroke:none;fill-rule:evenodd;fill:#a1bbe5;fill-opacity:1" d="M258 120h52v32h-52ZM258 126v-6c-3.313 0-6 2.688-6 6h6ZM310 126h6c0-3.313-2.688-6-6-6v6Zm0 0"/><path style="stroke:none;fill-rule:evenodd;fill:#a1bbe5;fill-opacity:1" d="M252 126h64v20h-64ZM258 146h-6c0 3.313 2.688 6 6 6v-6ZM310 146v6c3.313 0 6-2.688 6-6h-6Zm0 0"/><path style="fill:none;stroke-width:.05;stroke-linecap:butt;stroke-linejoin:miter;stroke:#000;stroke-opacity:1;stroke-miterlimit:10" d="M12.9 6h2.6M12.9 7.6h2.6M12.9 6a.3.3 0 0 0-.3.3M15.8 6.3a.3.3 0 0 0-.3-.3M12.6 6.3v1M15.8 6.3v1M12.6 7.3a.3.3 0 0 0 .3.3M15.5 7.6a.3.3 0 0 0 .3-.3" transform="scale(20)"/><g style="fill:#000;fill-opacity:1"><use xlink:href="#C" x="261.305" y="139.035"/><use xlink:href="#D" x="267.789" y="139.035"/><use xlink:href="#E" x="274.273" y="139.035"/><use xlink:href="#C" x="280.758" y="139.035"/><use xlink:href="#I" x="287.242" y="139.035"/><use xlink:href="#E" x="293.727" y="139.035"/><use xlink:href="#F" x="300.211" y="139.035"/></g></svg>