<?xml version="1.0" encoding="UTF-8" standalone="no"?>
<!DOCTYPE svg PUBLIC "-//W3C//DTD SVG 1.0//EN" "http://www.w3.org/TR/2001/PR-SVG-20010719/DTD/svg10.dtd">
<svg width="17cm" height="11cm" viewBox="-1 -460 330 220" xmlns="http://www.w3.org/2000/svg" xmlns:xlink="http://www.w3.org/1999/xlink">
  <rect style="fill: none; fill-opacity:0; stroke-width: 2.35099e-037; stroke: #000000" x="0" y="-460" width="330" height="220"/>
  <g>
    <rect style="fill: #c5919b" x="10" y="-430" width="52" height="30" rx="6" ry="6"/>
    <rect style="fill: none; fill-opacity:0; stroke-width: 1; stroke-linejoin: round; stroke: #000000" x="10" y="-430" width="52" height="30" rx="6" ry="6"/>
  </g>
  <text font-size="12.8919" style="fill: #000000;text-anchor:middle;font-family:monospace;font-style:normal;font-weight:normal" x="36" y="-411.55">
    <tspan x="36" y="-411.55">C4</tspan>
  </text>
  <g>
    <rect style="fill: #c5919b" x="10" y="-380" width="52" height="30" rx="6" ry="6"/>
    <rect style="fill: none; fill-opacity:0; stroke-width: 1; stroke-linejoin: round; stroke: #000000" x="10" y="-380" width="52" height="30" rx="6" ry="6"/>
  </g>
  <text font-size="12.8919" style="fill: #000000;text-anchor:middle;font-family:monospace;font-style:normal;font-weight:normal" x="36" y="-361.55">
    <tspan x="36" y="-361.55">C3</tspan>
  </text>
  <text font-size="11.2" style="fill: #000000;text-anchor:middle;font-family:monospace;font-style:normal;font-weight:normal" x="36" y="-312.025">
    <tspan x="36" y="-312.025">A</tspan>
  </text>
  <g>
    <line style="fill: none; fill-opacity:0; stroke-width: 1; stroke-linejoin: round; stroke: #000000" x1="36" y1="-400" x2="36" y2="-386.5"/>
    <polygon style="fill: #000000" points="33,-386.5 36,-380.5 39,-386.5 "/>
    <polygon style="fill: none; fill-opacity:0; stroke-width: 1; stroke: #000000" points="33,-386.5 36,-380.5 39,-386.5 "/>
  </g>
  <g>
    <line style="fill: none; fill-opacity:0; stroke-width: 1; stroke: #000000" x1="36" y1="-350" x2="36" y2="-336.983"/>
    <polygon style="fill: #000000" points="33,-336.983 36,-330.983 39,-336.983 "/>
    <polygon style="fill: none; fill-opacity:0; stroke-width: 1; stroke: #000000" points="33,-336.983 36,-330.983 39,-336.983 "/>
  </g>
  <text font-size="12.8" style="fill: #000000;text-anchor:start;font-family:sans-serif;font-style:normal;font-weight:normal" x="10" y="-440">
    <tspan x="10" y="-440">Repository</tspan>
  </text>
  <g>
    <line style="fill: none; fill-opacity:0; stroke-width: 1; stroke: #000000" x1="206.332" y1="-260" x2="239.832" y2="-260"/>
    <polygon style="fill: #000000" points="239.832,-257 245.832,-260 239.832,-263 "/>
    <polygon style="fill: none; fill-opacity:0; stroke-width: 1; stroke: #000000" points="239.832,-257 245.832,-260 239.832,-263 "/>
  </g>
  <text font-size="12.8" style="fill: #000000;text-anchor:start;font-family:sans-serif;font-style:normal;font-weight:normal" x="250.332" y="-256">
    <tspan x="250.332" y="-256">has ancestor</tspan>
  </text>
  <g>
    <line style="fill: none; fill-opacity:0; stroke-width: 1; stroke: #000000" x1="206.332" y1="-280" x2="243.832" y2="-280"/>
    <polygon style="fill: #000000" points="243.832,-279 245.832,-280 243.832,-281 "/>
    <polygon style="fill: none; fill-opacity:0; stroke-width: 1; stroke: #000000" points="243.832,-279 245.832,-280 243.832,-281 "/>
  </g>
  <text font-size="12.8" style="fill: #000000;text-anchor:start;font-family:sans-serif;font-style:normal;font-weight:normal" x="250.332" y="-276">
    <tspan x="250.332" y="-276">references</tspan>
  </text>
  <g>
    <rect style="fill: #c5919b" x="134" y="-288" width="12" height="8" rx="2" ry="2"/>
    <rect style="fill: none; fill-opacity:0; stroke-width: 1; stroke-linejoin: round; stroke: #000000" x="134" y="-288" width="12" height="8" rx="2" ry="2"/>
  </g>
  <g>
    <rect style="fill: #699768" x="134" y="-276" width="12" height="8" rx="2" ry="2"/>
    <rect style="fill: none; fill-opacity:0; stroke-width: 1; stroke-linejoin: round; stroke: #000000" x="134" y="-276" width="12" height="8" rx="2" ry="2"/>
  </g>
  <g>
    <rect style="fill: #8086ac" x="134" y="-264" width="12" height="8" rx="2" ry="2"/>
    <rect style="fill: none; fill-opacity:0; stroke-width: 1; stroke-linejoin: round; stroke: #000000" x="134" y="-264" width="12" height="8" rx="2" ry="2"/>
  </g>
  <text font-size="12.8" style="fill: #000000;text-anchor:start;font-family:sans-serif;font-style:normal;font-weight:normal" x="150" y="-280">
    <tspan x="150" y="-280">Commits</tspan>
  </text>
  <text font-size="12.8" style="fill: #000000;text-anchor:start;font-family:sans-serif;font-style:normal;font-weight:normal" x="150" y="-268">
    <tspan x="150" y="-268">Trees</tspan>
  </text>
  <text font-size="12.8" style="fill: #000000;text-anchor:start;font-family:sans-serif;font-style:normal;font-weight:normal" x="150" y="-256">
    <tspan x="150" y="-256">Blobs</tspan>
  </text>
  <g>
    <line style="fill: none; fill-opacity:0; stroke-width: 1; stroke-linejoin: round; stroke-dasharray: 4; stroke: #000000" x1="62" y1="-365" x2="119.5" y2="-365.958"/>
    <polygon style="fill: #000000" points="119.517,-364.958 121.5,-365.992 119.484,-366.958 "/>
    <polygon style="fill: none; fill-opacity:0; stroke-width: 1; stroke: #000000" points="119.517,-364.958 121.5,-365.992 119.484,-366.958 "/>
  </g>
  <g>
    <line style="fill: none; fill-opacity:0; stroke-width: 1; stroke-dasharray: 4; stroke: #000000" x1="62" y1="-315" x2="119.5" y2="-315.958"/>
    <polygon style="fill: #000000" points="119.517,-314.958 121.5,-315.992 119.484,-316.958 "/>
    <polygon style="fill: none; fill-opacity:0; stroke-width: 1; stroke: #000000" points="119.517,-314.958 121.5,-315.992 119.484,-316.958 "/>
  </g>
  <text font-size="12.8" style="fill: #000000;text-anchor:start;font-family:sans-serif;font-style:normal;font-weight:normal" x="186.888" y="-324.128">
    <tspan x="186.888" y="-324.128"></tspan>
  </text>
  <g>
    <rect style="fill: #ffffbb" x="140" y="-449.126" width="180" height="150" rx="6" ry="6"/>
    <rect style="fill: none; fill-opacity:0; stroke-width: 2; stroke-linejoin: round; stroke: #000000" x="140" y="-449.126" width="180" height="150" rx="6" ry="6"/>
  </g>
  <g>
    <rect style="fill: #699768" x="160.126" y="-339.25" width="53.5238" height="30.2426" rx="6" ry="6"/>
    <rect style="fill: none; fill-opacity:0; stroke-width: 1; stroke-linejoin: round; stroke: #000000" x="160.126" y="-339.25" width="53.5238" height="30.2426" rx="6" ry="6"/>
  </g>
  <g>
    <rect style="fill: #c5919b" x="10" y="-330" width="52" height="30" rx="6" ry="6"/>
    <rect style="fill: none; fill-opacity:0; stroke-width: 1; stroke-linejoin: round; stroke: #000000" x="10" y="-330" width="52" height="30" rx="6" ry="6"/>
  </g>
  <g>
    <rect style="fill: #699768" x="159.874" y="-430.5" width="54" height="30" rx="6" ry="6"/>
    <rect style="fill: none; fill-opacity:0; stroke-width: 1; stroke-linejoin: round; stroke: #000000" x="159.874" y="-430.5" width="54" height="30" rx="6" ry="6"/>
  </g>
  <g>
    <rect style="fill: #8086ac" x="246.5" y="-389.5" width="54.0202" height="28.2426" rx="6" ry="6"/>
    <rect style="fill: none; fill-opacity:0; stroke-width: 1; stroke-linejoin: round; stroke: #000000" x="246.5" y="-389.5" width="54.0202" height="28.2426" rx="6" ry="6"/>
  </g>
  <g>
    <rect style="fill: #8086ac" x="246.5" y="-339.624" width="54.0202" height="30.2426" rx="6" ry="6"/>
    <rect style="fill: none; fill-opacity:0; stroke-width: 1; stroke-linejoin: round; stroke: #000000" x="246.5" y="-339.624" width="54.0202" height="30.2426" rx="6" ry="6"/>
  </g>
  <g>
    <line style="fill: none; fill-opacity:0; stroke-width: 1; stroke-linejoin: round; stroke: #000000" x1="62" y1="-415" x2="156.867" y2="-415.38"/>
    <polygon style="fill: #000000" points="156.871,-414.38 158.867,-415.388 156.863,-416.38 "/>
    <polygon style="fill: none; fill-opacity:0; stroke-width: 1; stroke: #000000" points="156.871,-414.38 158.867,-415.388 156.863,-416.38 "/>
  </g>
  <g>
    <line style="fill: none; fill-opacity:0; stroke-width: 1; stroke: #000000" x1="213.874" y1="-415.5" x2="244" y2="-415.5"/>
    <polygon style="fill: #000000" points="244,-414.5 246,-415.5 244,-416.5 "/>
    <polygon style="fill: none; fill-opacity:0; stroke-width: 1; stroke: #000000" points="244,-414.5 246,-415.5 244,-416.5 "/>
  </g>
  <g>
    <line style="fill: none; fill-opacity:0; stroke-width: 1; stroke: #000000" x1="186.874" y1="-400.5" x2="186.887" y2="-341.75"/>
    <polygon style="fill: #000000" points="185.887,-341.75 186.888,-339.75 187.887,-341.75 "/>
    <polygon style="fill: none; fill-opacity:0; stroke-width: 1; stroke: #000000" points="185.887,-341.75 186.888,-339.75 187.887,-341.75 "/>
  </g>
  <g>
    <line style="fill: none; fill-opacity:0; stroke-width: 1; stroke: #000000" x1="213.874" y1="-415.5" x2="244.923" y2="-377.318"/>
    <polygon style="fill: #000000" points="244.147,-376.687 246.185,-375.766 245.699,-377.949 "/>
    <polygon style="fill: none; fill-opacity:0; stroke-width: 1; stroke: #000000" points="244.147,-376.687 246.185,-375.766 245.699,-377.949 "/>
  </g>
  <text font-size="11.0292" style="fill: #000000;text-anchor:middle;font-family:monospace;font-style:normal;font-weight:normal" x="186.874" y="-412.65">
    <tspan x="186.874" y="-412.65">/</tspan>
  </text>
  <text font-size="11.0292" style="fill: #000000;text-anchor:middle;font-family:monospace;font-style:normal;font-weight:normal" x="186.888" y="-321.278">
    <tspan x="186.888" y="-321.278">test</tspan>
  </text>
  <text font-size="11.0292" style="fill: #000000;text-anchor:middle;font-family:monospace;font-style:normal;font-weight:normal" x="273.51" y="-372.528">
    <tspan x="273.51" y="-372.528">README</tspan>
  </text>
  <text font-size="11.0292" style="fill: #000000;text-anchor:middle;font-family:monospace;font-style:normal;font-weight:normal" x="273.51" y="-321.654">
    <tspan x="273.51" y="-321.654">test.sh</tspan>
  </text>
  <text font-size="12.8" style="fill: #000000;text-anchor:middle;font-family:sans-serif;font-style:normal;font-weight:normal" x="230" y="-434.925">
    <tspan x="230" y="-434.925">Commit  C4</tspan>
  </text>
  <g>
    <line style="fill: none; fill-opacity:0; stroke-width: 1; stroke: #000000" x1="213.65" y1="-324.128" x2="244" y2="-324.475"/>
    <polygon style="fill: #000000" points="244.012,-323.475 246,-324.498 243.989,-325.475 "/>
    <polygon style="fill: none; fill-opacity:0; stroke-width: 1; stroke: #000000" points="244.012,-323.475 246,-324.498 243.989,-325.475 "/>
  </g>
  <text font-size="12.8919" style="fill: #000000;text-anchor:middle;font-family:monospace;font-style:normal;font-weight:normal" x="36" y="-311.55">
    <tspan x="36" y="-311.55">C2</tspan>
  </text>
  <g>
    <rect style="fill: #c5919b" x="10" y="-280" width="52" height="30" rx="6" ry="6"/>
    <rect style="fill: none; fill-opacity:0; stroke-width: 1; stroke-linejoin: round; stroke: #000000" x="10" y="-280" width="52" height="30" rx="6" ry="6"/>
  </g>
  <g>
    <line style="fill: none; fill-opacity:0; stroke-width: 1; stroke-linejoin: round; stroke: #000000" x1="36" y1="-300" x2="36" y2="-286.5"/>
    <polygon style="fill: #000000" points="33,-286.5 36,-280.5 39,-286.5 "/>
    <polygon style="fill: none; fill-opacity:0; stroke-width: 1; stroke: #000000" points="33,-286.5 36,-280.5 39,-286.5 "/>
  </g>
  <text font-size="12.8919" style="fill: #000000;text-anchor:middle;font-family:monospace;font-style:normal;font-weight:normal" x="36" y="-261.55">
    <tspan x="36" y="-261.55">C1</tspan>
  </text>
  <g>
    <line style="fill: none; fill-opacity:0; stroke-width: 1; stroke-dasharray: 4; stroke: #000000" x1="62" y1="-265" x2="118" y2="-264.904"/>
    <polygon style="fill: #000000" points="117.998,-263.904 120,-264.901 118.002,-265.904 "/>
    <polygon style="fill: none; fill-opacity:0; stroke-width: 1; stroke: #000000" points="117.998,-263.904 120,-264.901 118.002,-265.904 "/>
  </g>
  <g>
    <rect style="fill: #8086ac" x="246.5" y="-430.5" width="54" height="30" rx="6" ry="6"/>
    <rect style="fill: none; fill-opacity:0; stroke-width: 1; stroke-linejoin: round; stroke: #000000" x="246.5" y="-430.5" width="54" height="30" rx="6" ry="6"/>
  </g>
  <text font-size="11.0292" style="fill: #000000;text-anchor:middle;font-family:monospace;font-style:normal;font-weight:normal" x="273.5" y="-412.65">
    <tspan x="273.5" y="-412.65">hello.py</tspan>
  </text>
  <text font-size="12.8" style="fill: #000000;text-anchor:start;font-family:sans-serif;font-style:normal;font-weight:normal" x="276.332" y="-280">
    <tspan x="276.332" y="-280"></tspan>
  </text>
  <text font-size="12.8" style="fill: #000000;text-anchor:start;font-family:sans-serif;font-style:normal;font-weight:normal" x="256.332" y="-280">
    <tspan x="256.332" y="-280"></tspan>
  </text>
  <text font-size="12.8" style="fill: #000000;text-anchor:start;font-family:sans-serif;font-style:normal;font-weight:normal" x="266.332" y="-280">
    <tspan x="266.332" y="-280"></tspan>
  </text>
  <text font-size="12.8" style="fill: #000000;text-anchor:start;font-family:sans-serif;font-style:normal;font-weight:normal" x="266.332" y="-280">
    <tspan x="266.332" y="-280"></tspan>
  </text>
  <text font-size="12.8" style="fill: #000000;text-anchor:start;font-family:sans-serif;font-style:normal;font-weight:normal" x="276.332" y="-280">
    <tspan x="276.332" y="-280"></tspan>
  </text>
  <text font-size="12.8" style="fill: #000000;text-anchor:start;font-family:sans-serif;font-style:normal;font-weight:normal" x="276.332" y="-260">
    <tspan x="276.332" y="-260"></tspan>
  </text>
</svg>
