<?xml version="1.0" encoding="UTF-8" standalone="no"?>
<!DOCTYPE svg PUBLIC "-//W3C//DTD SVG 1.0//EN" "http://www.w3.org/TR/2001/PR-SVG-20010719/DTD/svg10.dtd">
<svg width="24cm" height="16cm" viewBox="-1 -1 480 320" xmlns="http://www.w3.org/2000/svg" xmlns:xlink="http://www.w3.org/1999/xlink">
  <rect style="fill: none; fill-opacity:0; stroke-width: 2.35099e-037; stroke: #000000" x="0" y="0" width="480" height="320"/>
  <g>
    <line style="fill: none; fill-opacity:0; stroke-width: 4; stroke: #000000" x1="170" y1="50" x2="299.528" y2="50"/>
    <polygon style="fill: #000000" points="305.528,50 297.528,54 299.528,50 297.528,46 "/>
    <polygon style="fill: none; fill-opacity:0; stroke-width: 4; stroke: #000000" points="305.528,50 297.528,54 299.528,50 297.528,46 "/>
  </g>
  <g>
    <line style="fill: none; fill-opacity:0; stroke-width: 4; stroke: #000000" x1="347.664" y1="229.529" x2="350" y2="80"/>
    <polygon style="fill: #000000" points="347.57,235.528 343.695,227.467 347.664,229.529 351.694,227.592 "/>
    <polygon style="fill: none; fill-opacity:0; stroke-width: 4; stroke: #000000" points="347.57,235.528 343.695,227.467 347.664,229.529 351.694,227.592 "/>
  </g>
  <g>
    <line style="fill: none; fill-opacity:0; stroke-width: 4; stroke: #000000" x1="385" y1="80" x2="178.401" y2="233.748"/>
    <polygon style="fill: #000000" points="173.588,237.33 177.618,229.345 178.401,233.748 182.394,235.763 "/>
    <polygon style="fill: none; fill-opacity:0; stroke-width: 4; stroke: #000000" points="173.588,237.33 177.618,229.345 178.401,233.748 182.394,235.763 "/>
  </g>
  <g>
    <line style="fill: none; fill-opacity:0; stroke-width: 4; stroke: #000000" x1="95" y1="80" x2="303.365" y2="235.495"/>
    <polygon style="fill: #000000" points="308.174,239.083 299.37,237.504 303.365,235.495 304.155,231.093 "/>
    <polygon style="fill: none; fill-opacity:0; stroke-width: 4; stroke: #000000" points="308.174,239.083 299.37,237.504 303.365,235.495 304.155,231.093 "/>
  </g>
  <g>
    <line style="fill: none; fill-opacity:0; stroke-width: 4; stroke: #000000" x1="90" y1="240" x2="90" y2="90.4721"/>
    <polygon style="fill: #000000" points="90,84.4721 94,92.4721 90,90.4721 86,92.4721 "/>
    <polygon style="fill: none; fill-opacity:0; stroke-width: 4; stroke: #000000" points="90,84.4721 94,92.4721 90,90.4721 86,92.4721 "/>
  </g>
  <g>
    <line style="fill: none; fill-opacity:0; stroke-width: 2; stroke: #757575" x1="310" y1="270" x2="178.236" y2="270"/>
    <polygon style="fill: #757575" points="172.236,270 180.236,266 178.236,270 180.236,274 "/>
    <polygon style="fill: none; fill-opacity:0; stroke-width: 2; stroke: #757575" points="172.236,270 180.236,266 178.236,270 180.236,274 "/>
  </g>
  <g>
    <line style="fill: none; fill-opacity:0; stroke-width: 4; stroke: #000000" x1="410" y1="240" x2="410" y2="90.4721"/>
    <polygon style="fill: #000000" points="410,84.4721 414,92.4721 410,90.4721 406,92.4721 "/>
    <polygon style="fill: none; fill-opacity:0; stroke-width: 4; stroke: #000000" points="410,84.4721 414,92.4721 410,90.4721 406,92.4721 "/>
  </g>
  <g>
    <path style="fill: #e9a963" d="M 233.463 30 L 247.313,30 C 249.225,30 250.775,38.9543 250.775,50 C 250.775,61.0457 249.225,70 247.313,70 L 233.463,70 C 231.55,70 230,61.0457 230,50 C 230,38.9543 231.55,30 233.463,30z"/>
    <path style="fill: none; fill-opacity:0; stroke-width: 2; stroke: #000000" d="M 233.463 30 L 247.313,30 C 249.225,30 250.775,38.9543 250.775,50 C 250.775,61.0457 249.225,70 247.313,70 L 233.463,70 C 231.55,70 230,61.0457 230,50 C 230,38.9543 231.55,30 233.463,30"/>
    <text font-size="19.7556" style="fill: #000000;text-anchor:middle;font-family:monospace;font-style:normal;font-weight:normal" x="240.388" y="54.9389">
      <tspan x="240.388" y="54.9389">1</tspan>
    </text>
  </g>
  <g>
    <path style="fill: #e9a963" d="M 83.4625 130 L 97.3125,130 C 99.2248,130 100.775,138.954 100.775,150 C 100.775,161.046 99.2248,170 97.3125,170 L 83.4625,170 C 81.5502,170 80,161.046 80,150 C 80,138.954 81.5502,130 83.4625,130z"/>
    <path style="fill: none; fill-opacity:0; stroke-width: 2; stroke: #000000" d="M 83.4625 130 L 97.3125,130 C 99.2248,130 100.775,138.954 100.775,150 C 100.775,161.046 99.2248,170 97.3125,170 L 83.4625,170 C 81.5502,170 80,161.046 80,150 C 80,138.954 81.5502,130 83.4625,130"/>
    <text font-size="19.7556" style="fill: #000000;text-anchor:middle;font-family:monospace;font-style:normal;font-weight:normal" x="90.3875" y="154.939">
      <tspan x="90.3875" y="154.939">6</tspan>
    </text>
  </g>
  <g>
    <path style="fill: #e9a963" d="M 343.463 130 L 357.313,130 C 359.225,130 360.775,138.954 360.775,150 C 360.775,161.046 359.225,170 357.313,170 L 343.463,170 C 341.55,170 340,161.046 340,150 C 340,138.954 341.55,130 343.463,130z"/>
    <path style="fill: none; fill-opacity:0; stroke-width: 2; stroke: #000000" d="M 343.463 130 L 357.313,130 C 359.225,130 360.775,138.954 360.775,150 C 360.775,161.046 359.225,170 357.313,170 L 343.463,170 C 341.55,170 340,161.046 340,150 C 340,138.954 341.55,130 343.463,130"/>
    <text font-size="19.7556" style="fill: #000000;text-anchor:middle;font-family:monospace;font-style:normal;font-weight:normal" x="350.388" y="154.939">
      <tspan x="350.388" y="154.939">2</tspan>
    </text>
  </g>
  <g>
    <path style="fill: #e9a963" d="M 403.463 130 L 417.313,130 C 419.225,130 420.775,138.954 420.775,150 C 420.775,161.046 419.225,170 417.313,170 L 403.463,170 C 401.55,170 400,161.046 400,150 C 400,138.954 401.55,130 403.463,130z"/>
    <path style="fill: none; fill-opacity:0; stroke-width: 2; stroke: #000000" d="M 403.463 130 L 417.313,130 C 419.225,130 420.775,138.954 420.775,150 C 420.775,161.046 419.225,170 417.313,170 L 403.463,170 C 401.55,170 400,161.046 400,150 C 400,138.954 401.55,130 403.463,130"/>
    <text font-size="19.7556" style="fill: #000000;text-anchor:middle;font-family:monospace;font-style:normal;font-weight:normal" x="410.388" y="154.939">
      <tspan x="410.388" y="154.939">3</tspan>
    </text>
  </g>
  <g>
    <path style="fill: #e9a963" d="M 233.463 250 L 247.313,250 C 249.225,250 250.775,258.954 250.775,270 C 250.775,281.046 249.225,290 247.313,290 L 233.463,290 C 231.55,290 230,281.046 230,270 C 230,258.954 231.55,250 233.463,250z"/>
    <path style="fill: none; fill-opacity:0; stroke-width: 2; stroke: #000000" d="M 233.463 250 L 247.313,250 C 249.225,250 250.775,258.954 250.775,270 C 250.775,281.046 249.225,290 247.313,290 L 233.463,290 C 231.55,290 230,281.046 230,270 C 230,258.954 231.55,250 233.463,250"/>
    <text font-size="19.7556" style="fill: #000000;text-anchor:middle;font-family:monospace;font-style:normal;font-weight:normal" x="240.388" y="274.939">
      <tspan x="240.388" y="274.939">4</tspan>
    </text>
  </g>
  <g>
    <path style="fill: #e9a963" d="M 283.463 130 L 297.313,130 C 299.225,130 300.775,138.954 300.775,150 C 300.775,161.046 299.225,170 297.313,170 L 283.463,170 C 281.55,170 280,161.046 280,150 C 280,138.954 281.55,130 283.463,130z"/>
    <path style="fill: none; fill-opacity:0; stroke-width: 2; stroke: #000000" d="M 283.463 130 L 297.313,130 C 299.225,130 300.775,138.954 300.775,150 C 300.775,161.046 299.225,170 297.313,170 L 283.463,170 C 281.55,170 280,161.046 280,150 C 280,138.954 281.55,130 283.463,130"/>
    <text font-size="19.7556" style="fill: #000000;text-anchor:middle;font-family:monospace;font-style:normal;font-weight:normal" x="290.388" y="154.939">
      <tspan x="290.388" y="154.939">5</tspan>
    </text>
  </g>
  <g>
    <path style="fill: #e9a963" d="M 183.463 130 L 197.313,130 C 199.225,130 200.775,138.954 200.775,150 C 200.775,161.046 199.225,170 197.313,170 L 183.463,170 C 181.55,170 180,161.046 180,150 C 180,138.954 181.55,130 183.463,130z"/>
    <path style="fill: none; fill-opacity:0; stroke-width: 2; stroke: #000000" d="M 183.463 130 L 197.313,130 C 199.225,130 200.775,138.954 200.775,150 C 200.775,161.046 199.225,170 197.313,170 L 183.463,170 C 181.55,170 180,161.046 180,150 C 180,138.954 181.55,130 183.463,130"/>
    <text font-size="19.7556" style="fill: #000000;text-anchor:middle;font-family:monospace;font-style:normal;font-weight:normal" x="190.388" y="154.939">
      <tspan x="190.388" y="154.939">7</tspan>
    </text>
  </g>
  <g>
    <rect style="fill: #c5919b" x="316" y="20" width="138" height="60"/>
    <path style="fill: #c5919b" d="M 316,20 A 6,6 0 0 0 310,26 L 316,26 z"/>
    <path style="fill: #c5919b" d="M 460,26 A 6,6 0 0 0 454,20 L 454,26 z"/>
    <rect style="fill: #c5919b" x="310" y="26" width="150" height="48"/>
    <path style="fill: #c5919b" d="M 310,74 A 6,6 0 0 0 316,80 L 316,74 z"/>
    <path style="fill: #c5919b" d="M 454,80 A 6,6 0 0 0 460,74 L 454,74 z"/>
    <line style="fill: none; fill-opacity:0; stroke-width: 2; stroke: #000000" x1="316" y1="20" x2="454" y2="20"/>
    <line style="fill: none; fill-opacity:0; stroke-width: 2; stroke: #000000" x1="316" y1="80" x2="454" y2="80"/>
    <path style="fill: none; fill-opacity:0; stroke-width: 2; stroke: #000000" d="M 316,20 A 6,6 0 0 0 310,26"/>
    <path style="fill: none; fill-opacity:0; stroke-width: 2; stroke: #000000" d="M 460,26 A 6,6 0 0 0 454,20"/>
    <line style="fill: none; fill-opacity:0; stroke-width: 2; stroke: #000000" x1="310" y1="26" x2="310" y2="74"/>
    <line style="fill: none; fill-opacity:0; stroke-width: 2; stroke: #000000" x1="460" y1="26" x2="460" y2="74"/>
    <path style="fill: none; fill-opacity:0; stroke-width: 2; stroke: #000000" d="M 310,74 A 6,6 0 0 0 316,80"/>
    <path style="fill: none; fill-opacity:0; stroke-width: 2; stroke: #000000" d="M 454,80 A 6,6 0 0 0 460,74"/>
    <text font-size="19.1911" style="fill: #000000;text-anchor:middle;font-family:monospace;font-style:normal;font-weight:normal" x="385" y="42.0111">
      <tspan x="385" y="42.0111"> Contributor</tspan>
      <tspan x="385" y="66">Public</tspan>
    </text>
  </g>
  <g>
    <rect style="fill: #a6b1ed" x="316" y="240" width="138" height="60"/>
    <path style="fill: #a6b1ed" d="M 316,240 A 6,6 0 0 0 310,246 L 316,246 z"/>
    <path style="fill: #a6b1ed" d="M 460,246 A 6,6 0 0 0 454,240 L 454,246 z"/>
    <rect style="fill: #a6b1ed" x="310" y="246" width="150" height="48"/>
    <path style="fill: #a6b1ed" d="M 310,294 A 6,6 0 0 0 316,300 L 316,294 z"/>
    <path style="fill: #a6b1ed" d="M 454,300 A 6,6 0 0 0 460,294 L 454,294 z"/>
    <line style="fill: none; fill-opacity:0; stroke-width: 2; stroke: #000000" x1="316" y1="240" x2="454" y2="240"/>
    <line style="fill: none; fill-opacity:0; stroke-width: 2; stroke: #000000" x1="316" y1="300" x2="454" y2="300"/>
    <path style="fill: none; fill-opacity:0; stroke-width: 2; stroke: #000000" d="M 316,240 A 6,6 0 0 0 310,246"/>
    <path style="fill: none; fill-opacity:0; stroke-width: 2; stroke: #000000" d="M 460,246 A 6,6 0 0 0 454,240"/>
    <line style="fill: none; fill-opacity:0; stroke-width: 2; stroke: #000000" x1="310" y1="246" x2="310" y2="294"/>
    <line style="fill: none; fill-opacity:0; stroke-width: 2; stroke: #000000" x1="460" y1="246" x2="460" y2="294"/>
    <path style="fill: none; fill-opacity:0; stroke-width: 2; stroke: #000000" d="M 310,294 A 6,6 0 0 0 316,300"/>
    <path style="fill: none; fill-opacity:0; stroke-width: 2; stroke: #000000" d="M 454,300 A 6,6 0 0 0 460,294"/>
    <text font-size="19.1911" style="fill: #000000;text-anchor:middle;font-family:monospace;font-style:normal;font-weight:normal" x="385" y="262.011">
      <tspan x="385" y="262.011"> Contributor</tspan>
      <tspan x="385" y="286">Private</tspan>
    </text>
  </g>
  <g>
    <rect style="fill: #c5919b" x="26" y="20" width="138" height="60"/>
    <path style="fill: #c5919b" d="M 26,20 A 6,6 0 0 0 20,26 L 26,26 z"/>
    <path style="fill: #c5919b" d="M 170,26 A 6,6 0 0 0 164,20 L 164,26 z"/>
    <rect style="fill: #c5919b" x="20" y="26" width="150" height="48"/>
    <path style="fill: #c5919b" d="M 20,74 A 6,6 0 0 0 26,80 L 26,74 z"/>
    <path style="fill: #c5919b" d="M 164,80 A 6,6 0 0 0 170,74 L 164,74 z"/>
    <line style="fill: none; fill-opacity:0; stroke-width: 2; stroke: #000000" x1="26" y1="20" x2="164" y2="20"/>
    <line style="fill: none; fill-opacity:0; stroke-width: 2; stroke: #000000" x1="26" y1="80" x2="164" y2="80"/>
    <path style="fill: none; fill-opacity:0; stroke-width: 2; stroke: #000000" d="M 26,20 A 6,6 0 0 0 20,26"/>
    <path style="fill: none; fill-opacity:0; stroke-width: 2; stroke: #000000" d="M 170,26 A 6,6 0 0 0 164,20"/>
    <line style="fill: none; fill-opacity:0; stroke-width: 2; stroke: #000000" x1="20" y1="26" x2="20" y2="74"/>
    <line style="fill: none; fill-opacity:0; stroke-width: 2; stroke: #000000" x1="170" y1="26" x2="170" y2="74"/>
    <path style="fill: none; fill-opacity:0; stroke-width: 2; stroke: #000000" d="M 20,74 A 6,6 0 0 0 26,80"/>
    <path style="fill: none; fill-opacity:0; stroke-width: 2; stroke: #000000" d="M 164,80 A 6,6 0 0 0 170,74"/>
    <text font-size="19.1911" style="fill: #000000;text-anchor:middle;font-family:monospace;font-style:normal;font-weight:normal" x="95" y="42.0111">
      <tspan x="95" y="42.0111"> Author</tspan>
      <tspan x="95" y="66">Public</tspan>
    </text>
  </g>
  <g>
    <rect style="fill: #a6b1ed" x="26" y="240" width="138" height="60"/>
    <path style="fill: #a6b1ed" d="M 26,240 A 6,6 0 0 0 20,246 L 26,246 z"/>
    <path style="fill: #a6b1ed" d="M 170,246 A 6,6 0 0 0 164,240 L 164,246 z"/>
    <rect style="fill: #a6b1ed" x="20" y="246" width="150" height="48"/>
    <path style="fill: #a6b1ed" d="M 20,294 A 6,6 0 0 0 26,300 L 26,294 z"/>
    <path style="fill: #a6b1ed" d="M 164,300 A 6,6 0 0 0 170,294 L 164,294 z"/>
    <line style="fill: none; fill-opacity:0; stroke-width: 2; stroke: #000000" x1="26" y1="240" x2="164" y2="240"/>
    <line style="fill: none; fill-opacity:0; stroke-width: 2; stroke: #000000" x1="26" y1="300" x2="164" y2="300"/>
    <path style="fill: none; fill-opacity:0; stroke-width: 2; stroke: #000000" d="M 26,240 A 6,6 0 0 0 20,246"/>
    <path style="fill: none; fill-opacity:0; stroke-width: 2; stroke: #000000" d="M 170,246 A 6,6 0 0 0 164,240"/>
    <line style="fill: none; fill-opacity:0; stroke-width: 2; stroke: #000000" x1="20" y1="246" x2="20" y2="294"/>
    <line style="fill: none; fill-opacity:0; stroke-width: 2; stroke: #000000" x1="170" y1="246" x2="170" y2="294"/>
    <path style="fill: none; fill-opacity:0; stroke-width: 2; stroke: #000000" d="M 20,294 A 6,6 0 0 0 26,300"/>
    <path style="fill: none; fill-opacity:0; stroke-width: 2; stroke: #000000" d="M 164,300 A 6,6 0 0 0 170,294"/>
    <text font-size="19.1911" style="fill: #000000;text-anchor:middle;font-family:monospace;font-style:normal;font-weight:normal" x="95" y="262.011">
      <tspan x="95" y="262.011"> Author</tspan>
      <tspan x="95" y="286">Private</tspan>
    </text>
  </g>
</svg>
