<svg xmlns="http://www.w3.org/2000/svg" xmlns:xlink="http://www.w3.org/1999/xlink" width="640" height="320pt" viewBox="0 0 480 320"><defs><symbol overflow="visible" id="a"><path style="stroke:none" d="M5.902-12.32V0H4.543v-10.605l-2.488.73-.317-.77 3.219-1.675Zm0 0"/></symbol><symbol overflow="visible" id="b"><path style="stroke:none" d="M5.668-12.441c1.023.004 1.926.379 2.703 1.125l-.965 1.046a.691.691 0 0 1-.238-.343.437.437 0 0 0-.277-.266 1.932 1.932 0 0 0-.602-.266 2.625 2.625 0 0 0-.582-.07c-.266 0-.574.063-.918.188-.351.125-.676.359-.98.703-.305.344-.567.828-.778 1.449-.219.629-.332 1.434-.347 2.418A3.01 3.01 0 0 1 3.8-7.543c.465-.258.96-.39 1.492-.394.457.003.89.097 1.3.285a3.3 3.3 0 0 1 1.079.82c.305.355.55.781.73 1.273.176.497.262 1.047.266 1.649a4.97 4.97 0 0 1-.277 1.672 4.004 4.004 0 0 1-.75 1.3 3.293 3.293 0 0 1-1.118.84c-.43.2-.886.297-1.37.297C4.53.2 3.987.066 3.515-.207A3.344 3.344 0 0 1 2.32-1.363c-.324-.496-.574-1.106-.742-1.825-.172-.718-.254-1.523-.254-2.421 0-1.102.102-2.079.305-2.93.203-.844.496-1.559.879-2.14.383-.579.84-1.016 1.37-1.317a3.681 3.681 0 0 1 1.79-.445ZM2.766-5.074a.982.982 0 0 0-.02.238c-.004.082-.004.16 0 .234-.004.516.059.989.188 1.422.12.438.296.813.523 1.13.223.316.484.566.79.75.3.183.624.277.968.273.562.004 1.055-.243 1.476-.73.422-.485.633-1.196.633-2.134 0-.5-.066-.925-.199-1.28a2.865 2.865 0 0 0-.5-.88 2.054 2.054 0 0 0-.691-.515 2.052 2.052 0 0 0-.762-.168c-.477.004-.93.164-1.363.484a3.796 3.796 0 0 0-1.043 1.176Zm0 0"/></symbol><symbol overflow="visible" id="c"><path style="stroke:none" d="M1.54-10.387a3.832 3.832 0 0 1 1.452-1.468c.61-.344 1.27-.52 1.985-.524.484.004.945.094 1.382.266.43.18.813.425 1.145.742.324.316.582.684.77 1.105a3.4 3.4 0 0 1 .277 1.34c-.004.387-.059.75-.168 1.09a4.903 4.903 0 0 1-.445.977 6.652 6.652 0 0 1-.645.886c-.246.29-.5.547-.758.782L5.352-4.086c-.176.16-.368.348-.575.563-.215.218-.422.449-.62.699-.208.25-.407.515-.602.789a7.54 7.54 0 0 0-.516.832h5.156c.063.004.133-.027.207-.09.07-.059.137-.09.207-.09h.059V0H1.441v-.867c.485-.961 1.008-1.79 1.579-2.488a15.22 15.22 0 0 1 1.64-1.758l.95-.871c.324-.297.59-.579.796-.836a4.27 4.27 0 0 0 .485-.742c.117-.235.195-.461.238-.68.035-.215.055-.438.059-.664a2.143 2.143 0 0 0-.18-.836 2.355 2.355 0 0 0-.504-.73 2.758 2.758 0 0 0-.73-.516 2.114 2.114 0 0 0-.837-.188c-.347.004-.656.051-.921.149a3.55 3.55 0 0 0-.711.355c-.203.14-.368.285-.485.434-.12.156-.183.289-.195.406a.923.923 0 0 1-.078.234Zm0 0"/></symbol><symbol overflow="visible" id="d"><path style="stroke:none" d="M8.117-9.215a2.846 2.846 0 0 1-.504 1.625c-.34.492-.785.84-1.336 1.047.63.227 1.141.629 1.532 1.203A3.48 3.48 0 0 1 8.39-3.37c0 .492-.09.953-.266 1.383-.18.437-.438.816-.77 1.14-.34.332-.75.594-1.234.782-.488.191-1.043.28-1.66.285C3.246.215 2.215-.25 1.363-1.184L2.41-2.43c.047.055.086.14.117.262.024.121.07.223.137.297l.277.246c.106.11.317.223.641.348.32.129.656.195 1 .191.352.004.68-.062.984-.191a2.41 2.41 0 0 0 .793-.536A2.5 2.5 0 0 0 7.07-3.57c-.004-.696-.27-1.25-.8-1.66-.536-.407-1.239-.61-2.102-.614l-.309.012a8.019 8.019 0 0 0-.304.027v-1.144c.601 0 1.11-.063 1.52-.188.405-.125.737-.293.995-.504.258-.21.442-.457.555-.742.11-.281.164-.586.168-.918a1.606 1.606 0 0 0-.16-.68 1.922 1.922 0 0 0-.434-.574 2.475 2.475 0 0 0-.672-.402 2.41 2.41 0 0 0-.867-.16c-.848.004-1.55.32-2.113.949l-.77-.852c.797-.878 1.778-1.32 2.942-1.32.468 0 .914.082 1.332.246a3.34 3.34 0 0 1 1.078.684c.3.293.539.625.719 1 .175.379.265.777.27 1.195Zm0 0"/></symbol><symbol overflow="visible" id="e"><path style="stroke:none" d="M6.195-12.32h1.149v7.699h1.582v1.226H7.344V0H5.922v-3.418H.949v-1.004Zm-.25 2.191L2.31-4.62h3.636Zm0 0"/></symbol><symbol overflow="visible" id="f"><path style="stroke:none" d="M2.094-12.3h6.238v1.241H3.258l-.196 3.536a4.595 4.595 0 0 1 2.012-.473 3.904 3.904 0 0 1 1.469.285c.453.191.848.469 1.187.828.332.363.594.797.778 1.305.183.508.273 1.078.277 1.707-.004.637-.101 1.207-.297 1.71-.199.509-.472.938-.816 1.294a3.498 3.498 0 0 1-1.227.808c-.468.184-.98.274-1.527.278a4.534 4.534 0 0 1-2.086-.492A4.106 4.106 0 0 1 1.266-1.68l1.222-.906c.063.043.098.121.106.238.004.121.015.192.031.215.05.094.14.207.273.336.13.137.297.262.504.379.2.117.434.219.707.305.266.086.559.129.875.125a2.01 2.01 0 0 0 .907-.207c.285-.137.539-.328.757-.582.215-.246.387-.555.52-.918.129-.36.195-.77.2-1.235a3.803 3.803 0 0 0-.2-1.234 2.737 2.737 0 0 0-.543-.918 2.375 2.375 0 0 0-.797-.57 2.54 2.54 0 0 0-.98-.2c-.426.004-.84.106-1.243.309-.41.207-.761.492-1.062.856l-.863-.356Zm0 0"/></symbol><symbol overflow="visible" id="g"><path style="stroke:none" d="M8.531-11.531a113.56 113.56 0 0 0-2.324 5.707A96.267 96.267 0 0 0 4.227 0H2.664c.629-1.883 1.29-3.73 1.977-5.547A153.622 153.622 0 0 1 6.812-11H1.56v-1.3H8.53Zm0 0"/></symbol><symbol overflow="visible" id="h"><path style="stroke:none" d="M7.633-9.242a.91.91 0 0 0-.059-.336 3.048 3.048 0 0 0-.996-.988 2.526 2.526 0 0 0-1.305-.368c-.437 0-.847.114-1.226.336a3.181 3.181 0 0 0-1.016.98c-.297.43-.527.95-.691 1.563-.172.614-.254 1.309-.25 2.09-.004.758.078 1.445.25 2.063.164.62.398 1.152.7 1.593.3.442.651.786 1.054 1.024.402.246.836.367 1.297.363.468.004.921-.133 1.367-.402a3.08 3.08 0 0 0 1.066-1.094l1 .652a3.77 3.77 0 0 1-.691.848 4.366 4.366 0 0 1-1.758.984c-.3.079-.605.121-.91.125-.692-.004-1.3-.12-1.832-.355-.531-.234-1.02-.602-1.457-1.102-.446-.5-.785-1.132-1.028-1.898C.906-3.93.785-4.844.785-5.906c0-1.176.14-2.157.422-2.946.281-.785.652-1.414 1.113-1.886.461-.473.95-.809 1.47-1.008a4.322 4.322 0 0 1 1.503-.297c.39.004.777.059 1.16.172.375.117.727.277 1.055.48.32.204.613.45.87.739.259.289.462.613.618.964l-1.285.633c-.055-.03-.082-.093-.078-.187Zm0 0"/></symbol><symbol overflow="visible" id="i"><path style="stroke:none" d="M4.871-8.957c.531.004 1.04.11 1.524.316.476.215.898.52 1.257.91.36.399.645.88.856 1.45.21.57.316 1.207.316 1.91 0 .715-.105 1.355-.308 1.918a4.583 4.583 0 0 1-.844 1.45c-.36.405-.781.71-1.266.917A3.965 3.965 0 0 1 4.852.23 3.74 3.74 0 0 1 3.27-.113a4.017 4.017 0 0 1-1.297-.95 4.45 4.45 0 0 1-.883-1.449 4.884 4.884 0 0 1-.324-1.824 4.916 4.916 0 0 1 .336-1.84 4.46 4.46 0 0 1 .902-1.465 4.316 4.316 0 0 1 1.312-.96 3.676 3.676 0 0 1 1.555-.356Zm2.57 4.621c0-.547-.074-1.035-.222-1.465a3.585 3.585 0 0 0-.582-1.086 2.654 2.654 0 0 0-.836-.668 2.35 2.35 0 0 0-.989-.23 2.336 2.336 0 0 0-.988.23c-.316.157-.59.38-.824.668a3.542 3.542 0 0 0-.563 1.067c-.14.418-.21.886-.21 1.41 0 .512.07.976.21 1.398.141.422.329.79.563 1.094.234.313.512.547.836.711.316.164.656.246 1.016.246a2.316 2.316 0 0 0 1.832-.867c.234-.29.418-.645.554-1.067.133-.421.203-.902.203-1.44Zm0 0"/></symbol><symbol overflow="visible" id="j"><path style="stroke:none" d="M1.305 0v-8.766h1.379v1.555a3.923 3.923 0 0 1 1.285-1.285c.515-.32 1.047-.48 1.594-.48.382 0 .742.07 1.078.203.332.136.625.347.87.64.243.297.43.676.571 1.133.133.465.203 1.027.203 1.688V0H6.906v-5.273c-.004-.922-.16-1.567-.472-1.938-.317-.371-.7-.559-1.149-.559-.297 0-.601.067-.906.196-.313.129-.59.312-.836.547-.254.238-.461.52-.617.851a2.55 2.55 0 0 0-.242 1.133V0Zm0 0"/></symbol><symbol overflow="visible" id="k"><path style="stroke:none" d="m3.605-11.105 1.497-.25c-.004.117-.02.222-.047.308a1.316 1.316 0 0 0-.067.211l-.23 2.07h2.875v1.114H4.758a31.854 31.854 0 0 0-.176 3.222c0 .617.012 1.14.04 1.563.023.43.089.762.202 1.004.106.242.266.433.473.566.203.14.476.207.828.203.586.004 1.242-.265 1.965-.804l.426 1.093c-.887.653-1.793.973-2.723.977-.926-.004-1.598-.277-2.016-.836-.425-.555-.617-1.461-.574-2.719-.004-.46.008-1.05.04-1.77.023-.714.073-1.55.152-2.5H1.344v-1.113h2.11Zm0 0"/></symbol><symbol overflow="visible" id="l"><path style="stroke:none" d="M1.898-8.766h1.418l-.035 1.688A2.903 2.903 0 0 1 4.56-8.484a3.76 3.76 0 0 1 1.878-.493c.946 0 1.727.32 2.348.961l-.633 1.32a9.86 9.86 0 0 0-.386-.476 2.425 2.425 0 0 0-.375-.324 2.323 2.323 0 0 0-.446-.211 2.288 2.288 0 0 0-.586-.078c-.425.004-.82.101-1.191.297-.375.199-.7.46-.973.785-.277.328-.5.703-.664 1.121-.168.426-.25.867-.25 1.324V.02H1.898Zm0 0"/></symbol><symbol overflow="visible" id="m"><path style="stroke:none" d="M2.031-8.766h3.512v7.653h2.05V0H1.919v-1.113H4.16v-6.54H2.031Zm2.149-3.527a.947.947 0 0 1 .691-.289.99.99 0 0 1 .7.297.99.99 0 0 1 .296.7.939.939 0 0 1-.297.69.965.965 0 0 1-.699.29.917.917 0 0 1-.691-.29.9.9 0 0 1-.285-.69.934.934 0 0 1 .285-.708Zm0 0"/></symbol><symbol overflow="visible" id="n"><path style="stroke:none" d="M1.152-12.754h1.59v.04c0 .062-.035.124-.105.179-.07.062-.106.129-.106.203v4.91c.281-.473.66-.851 1.145-1.133a2.865 2.865 0 0 1 1.472-.422c.485 0 .946.094 1.383.282.434.187.82.468 1.157.843.332.375.593.844.789 1.407.191.562.289 1.222.289 1.976 0 .793-.11 1.48-.32 2.063-.216.582-.493 1.066-.837 1.457-.347.39-.738.683-1.171.875A3.328 3.328 0 0 1 5.09.21a3.044 3.044 0 0 1-1.48-.363 3.154 3.154 0 0 1-1.118-1L2.02 0h-.868ZM3.543-1.379c.242.133.46.219.656.258.192.047.375.066.547.066.258 0 .54-.047.852-.14.304-.094.593-.262.863-.508.262-.238.48-.563.66-.973.172-.402.262-.918.262-1.547 0-1.152-.242-2.035-.719-2.648-.48-.606-1.172-.91-2.074-.914-.328.004-.672.117-1.031.344a1.956 1.956 0 0 0-.793.914c-.157.382-.235 1.007-.235 1.867 0 .539.012.988.04 1.355.023.368.074.676.156.926.074.25.18.453.308.602a1.6 1.6 0 0 0 .508.398Zm0 0"/></symbol><symbol overflow="visible" id="o"><path style="stroke:none" d="M1.207-8.766H2.59v4.891c0 .566.05 1.035.152 1.41.102.38.246.684.434.914.187.23.398.395.636.496.235.102.497.153.782.153.304-.024.597-.098.883-.23.28-.126.535-.31.761-.544.223-.234.399-.535.532-.91.125-.367.19-.816.19-1.348v-4.832h1.384v7.98c0 .298.031.56.094.786H7a4 4 0 0 1-.04-.297 1.497 1.497 0 0 1 0-.375l.02-.672A3.037 3.037 0 0 1 5.836-.199 3.178 3.178 0 0 1 4.25.21c-.453 0-.855-.078-1.215-.238a2.802 2.802 0 0 1-.973-.739c-.289-.332-.507-.754-.652-1.265-.152-.512-.226-1.125-.222-1.844Zm0 0"/></symbol><symbol overflow="visible" id="p"><path style="stroke:none" d="M1.133-11.95h3.836c.664.005 1.226.09 1.695.262.461.176.844.418 1.149.727.296.316.523.676.671 1.082.149.41.235.848.262 1.305a4.474 4.474 0 0 1-.262 1.297c-.148.402-.367.75-.652 1.043-.289.296-.66.53-1.11.703-.456.172-1.007.258-1.66.258h-2.55V0h-1.38Zm1.379 1.266v4.22H4.91c.867.003 1.485-.184 1.852-.563.363-.375.562-.88.601-1.508a3.39 3.39 0 0 0-.18-.832 1.876 1.876 0 0 0-.433-.68 2.107 2.107 0 0 0-.738-.46c-.301-.114-.664-.173-1.082-.177Zm0 0"/></symbol><symbol overflow="visible" id="q"><path style="stroke:none" d="M1.629-12.754h3.855v11.64h2.57V0H1.517v-1.113h2.59v-10.528H1.628Zm0 0"/></symbol><symbol overflow="visible" id="r"><path style="stroke:none" d="m8.766-7.309-.98 1.133c-.067-.039-.095-.078-.087-.125a.465.465 0 0 0-.02-.18.983.983 0 0 0-.144-.289c-.078-.109-.234-.265-.465-.46-.441-.36-1.039-.54-1.793-.54-.379 0-.738.079-1.074.23-.344.157-.64.376-.898.661-.258.29-.465.637-.621 1.035a3.644 3.644 0 0 0-.23 1.348c-.005.5.073.957.23 1.379.156.422.367.785.64 1.09.266.304.59.543.965.715.375.171.785.257 1.238.257.883 0 1.649-.351 2.297-1.054l.809.937C7.758-.25 6.69.211 5.43.211A4.315 4.315 0 0 1 3.69-.133a4.192 4.192 0 0 1-1.382-.96 4.271 4.271 0 0 1-.91-1.446 4.883 4.883 0 0 1-.325-1.832 4.927 4.927 0 0 1 .324-1.824c.215-.559.52-1.043.91-1.446a4.2 4.2 0 0 1 1.403-.949 4.544 4.544 0 0 1 1.773-.348 4.214 4.214 0 0 1 1.887.434c.57.29 1.035.688 1.395 1.195Zm0 0"/></symbol><symbol overflow="visible" id="s"><path style="stroke:none" d="m.96-8.285-.194-.48h1.632c-.003.09-.011.171-.03.242a.572.572 0 0 0-.028.18c-.004.027.004.046.02.058L4.91-1.88 6.328-5.14c.305-.699.55-1.351.746-1.953.188-.597.336-1.156.446-1.672h1.246c-.258 1.079-.7 2.36-1.325 3.836L5.313.06H4.237Zm0 0"/></symbol><symbol overflow="visible" id="t"><path style="stroke:none" d="M1.746-7.73c.777-.813 1.817-1.223 3.125-1.227 1.07.004 1.918.277 2.543.816.617.547.93 1.45.93 2.711V0H7.039v-.96C6.102-.18 5.055.21 3.895.21 3.43.21 3.015.14 2.656 0a2.911 2.911 0 0 1-.93-.555 2.326 2.326 0 0 1-.585-.789 1.99 1.99 0 0 1-.2-.883c-.003-.878.375-1.574 1.141-2.086.758-.511 1.856-.792 3.29-.847H7.02v-.328c0-.871-.184-1.48-.547-1.832-.368-.344-.934-.52-1.696-.524-.953.004-1.738.336-2.359.996Zm5.332 3.625H6.75c-.18.003-.352 0-.508-.008a9.872 9.872 0 0 0-.469-.012c-.707 0-1.28.05-1.726.145-.45.101-.8.23-1.055.394-.258.168-.433.36-.527.566a1.622 1.622 0 0 0-.145.68c0 .414.176.766.535 1.055.356.297.797.441 1.325.441.383 0 .73-.058 1.035-.18.305-.12.57-.269.805-.44.226-.173.414-.352.558-.54.137-.183.238-.344.309-.488.125-.25.191-.598.191-1.035Zm0 0"/></symbol><symbol overflow="visible" id="u"><path style="stroke:none" d="M4.969-8.977c.457 0 .902.086 1.34.25.433.172.812.422 1.14.758.324.34.59.774.79 1.297.195.527.292 1.149.296 1.86l-.012.316c-.007.11-.015.215-.027.316H2.262c.023.617.129 1.13.316 1.543.188.414.422.75.703 1.008.281.258.594.442.938.547.343.11.687.164 1.035.16.906.004 1.66-.324 2.266-.976l.765.746C7.543-.258 6.52.188 5.22.19A5.12 5.12 0 0 1 3.46-.105a3.468 3.468 0 0 1-1.352-.872 3.904 3.904 0 0 1-.863-1.43C1.04-2.972.938-3.62.941-4.354c-.003-.735.102-1.395.317-1.973a4.164 4.164 0 0 1 .86-1.45 3.66 3.66 0 0 1 1.277-.89 4.04 4.04 0 0 1 1.574-.309ZM2.32-5.293h4.817c0-.047 0-.094.008-.14 0-.04.003-.094.007-.165a2.393 2.393 0 0 0-.183-.894 2.531 2.531 0 0 0-.489-.738 2.47 2.47 0 0 0-.718-.5 2.145 2.145 0 0 0-.89-.192c-.606 0-1.15.211-1.634.633-.488.422-.793 1.09-.918 1.996Zm0 0"/></symbol><symbol overflow="visible" id="v"><path style="stroke:none" d="m.297 0 4.219-12.16h.156L9.273 0H7.891L6.57-3.492H2.77L1.62 0Zm5.965-4.527L4.574-9.09 3.04-4.527Zm0 0"/></symbol><symbol overflow="visible" id="w"><path style="stroke:none" d="M1.344 0v-12.754h1.57c-.004.016 0 .024.008.02.004.004.008.007.012.02-.004.038-.032.093-.086.16a.652.652 0 0 0-.125.261v5.082A4.072 4.072 0 0 1 4.02-8.496c.52-.32 1.046-.48 1.59-.48.394 0 .757.07 1.085.203.325.136.61.347.86.64.242.297.43.676.558 1.133.125.465.188 1.027.192 1.688V0h-1.38v-5.273c0-.922-.16-1.567-.472-1.938-.316-.371-.695-.559-1.14-.559-.297 0-.59.067-.883.196a3.58 3.58 0 0 0-.856.535 2.402 2.402 0 0 0-.633.844 2.758 2.758 0 0 0-.218 1.152V0Zm0 0"/></symbol></defs><path style="fill-rule:nonzero;fill:#fff;fill-opacity:1;stroke-width:0;stroke-linecap:butt;stroke-linejoin:miter;stroke:#000;stroke-opacity:1;stroke-miterlimit:10" d="M0 0h24v16H0Zm0 0" transform="scale(20)"/><path style="fill:none;stroke-width:.2;stroke-linecap:butt;stroke-linejoin:miter;stroke:#000;stroke-opacity:1;stroke-miterlimit:10" d="M8.5 2.5h6.476" transform="scale(20)"/><path style="fill-rule:evenodd;fill:#000;fill-opacity:1;stroke-width:.2;stroke-linecap:butt;stroke-linejoin:miter;stroke:#000;stroke-opacity:1;stroke-miterlimit:10" d="m15.276 2.5-.4.2.1-.2-.1-.2.4.2Zm0 0" transform="scale(20)"/><path style="fill:none;stroke-width:.2;stroke-linecap:butt;stroke-linejoin:miter;stroke:#000;stroke-opacity:1;stroke-miterlimit:10" d="M17.383 11.476 17.5 4" transform="scale(20)"/><path style="fill-rule:evenodd;fill:#000;fill-opacity:1;stroke-width:.2;stroke-linecap:butt;stroke-linejoin:miter;stroke:#000;stroke-opacity:1;stroke-miterlimit:10" d="m17.379 11.776-.194-.403.198.103.202-.096-.206.396Zm0 0" transform="scale(20)"/><path style="fill:none;stroke-width:.2;stroke-linecap:butt;stroke-linejoin:miter;stroke:#000;stroke-opacity:1;stroke-miterlimit:10" d="M19.25 4 8.92 11.687" transform="scale(20)"/><path style="fill-rule:evenodd;fill:#000;fill-opacity:1;stroke-width:.2;stroke-linecap:butt;stroke-linejoin:miter;stroke:#000;stroke-opacity:1;stroke-miterlimit:10" d="m8.68 11.867.2-.4.04.22.2.101-.44.079Zm0 0" transform="scale(20)"/><path style="fill:none;stroke-width:.2;stroke-linecap:butt;stroke-linejoin:miter;stroke:#000;stroke-opacity:1;stroke-miterlimit:10" d="m4.75 4 10.418 7.775" transform="scale(20)"/><path style="fill-rule:evenodd;fill:#000;fill-opacity:1;stroke-width:.2;stroke-linecap:butt;stroke-linejoin:miter;stroke:#000;stroke-opacity:1;stroke-miterlimit:10" d="m15.409 11.954-.44-.079.2-.1.039-.22.2.4Zm0 0" transform="scale(20)"/><path style="fill:none;stroke-width:.2;stroke-linecap:butt;stroke-linejoin:miter;stroke:#000;stroke-opacity:1;stroke-miterlimit:10" d="M4.5 12V4.524" transform="scale(20)"/><path style="fill-rule:evenodd;fill:#000;fill-opacity:1;stroke-width:.2;stroke-linecap:butt;stroke-linejoin:miter;stroke:#000;stroke-opacity:1;stroke-miterlimit:10" d="m4.5 4.224.2.4-.2-.1-.2.1.2-.4Zm0 0" transform="scale(20)"/><path style="fill:none;stroke-width:.1;stroke-linecap:butt;stroke-linejoin:miter;stroke:#757575;stroke-opacity:1;stroke-miterlimit:10" d="M15.5 13.5H8.912" transform="scale(20)"/><path style="fill-rule:evenodd;fill:#757575;fill-opacity:1;stroke-width:.1;stroke-linecap:butt;stroke-linejoin:miter;stroke:#757575;stroke-opacity:1;stroke-miterlimit:10" d="m8.612 13.5.4-.2-.1.2.1.2-.4-.2Zm0 0" transform="scale(20)"/><path style="fill:none;stroke-width:.2;stroke-linecap:butt;stroke-linejoin:miter;stroke:#000;stroke-opacity:1;stroke-miterlimit:10" d="M20.5 12V4.524" transform="scale(20)"/><path style="fill-rule:evenodd;fill:#000;fill-opacity:1;stroke-width:.2;stroke-linecap:butt;stroke-linejoin:miter;stroke:#000;stroke-opacity:1;stroke-miterlimit:10" d="m20.5 4.224.2.4-.2-.1-.2.1.2-.4Zm0 0" transform="scale(20)"/><path style="fill-rule:evenodd;fill:#fdd1b2;fill-opacity:1;stroke-width:.1;stroke-linecap:butt;stroke-linejoin:miter;stroke:#000;stroke-opacity:1;stroke-miterlimit:10" d="M11.673 1.5h.693c.095 0 .173.448.173 1s-.078 1-.173 1h-.693c-.095 0-.173-.448-.173-1s.078-1 .173-1" transform="scale(20)"/><use xlink:href="#a" x="235.445" y="54.938" style="fill:#000;fill-opacity:1"/><path style="fill-rule:evenodd;fill:#fdd1b2;fill-opacity:1;stroke-width:.1;stroke-linecap:butt;stroke-linejoin:miter;stroke:#000;stroke-opacity:1;stroke-miterlimit:10" d="M4.173 6.5h.693c.095 0 .173.448.173 1s-.078 1-.173 1h-.693C4.078 8.5 4 8.052 4 7.5s.078-1 .173-1" transform="scale(20)"/><use xlink:href="#b" x="85.445" y="154.938" style="fill:#000;fill-opacity:1"/><path style="fill-rule:evenodd;fill:#fdd1b2;fill-opacity:1;stroke-width:.1;stroke-linecap:butt;stroke-linejoin:miter;stroke:#000;stroke-opacity:1;stroke-miterlimit:10" d="M17.173 6.5h.693c.095 0 .173.448.173 1s-.078 1-.173 1h-.693c-.095 0-.173-.448-.173-1s.078-1 .173-1" transform="scale(20)"/><use xlink:href="#c" x="345.445" y="154.938" style="fill:#000;fill-opacity:1"/><path style="fill-rule:evenodd;fill:#fdd1b2;fill-opacity:1;stroke-width:.1;stroke-linecap:butt;stroke-linejoin:miter;stroke:#000;stroke-opacity:1;stroke-miterlimit:10" d="M20.173 6.5h.693c.095 0 .173.448.173 1s-.078 1-.173 1h-.693c-.095 0-.173-.448-.173-1s.078-1 .173-1" transform="scale(20)"/><use xlink:href="#d" x="405.445" y="154.938" style="fill:#000;fill-opacity:1"/><path style="fill-rule:evenodd;fill:#fdd1b2;fill-opacity:1;stroke-width:.1;stroke-linecap:butt;stroke-linejoin:miter;stroke:#000;stroke-opacity:1;stroke-miterlimit:10" d="M11.673 12.5h.693c.095 0 .173.448.173 1s-.078 1-.173 1h-.693c-.095 0-.173-.448-.173-1s.078-1 .173-1" transform="scale(20)"/><use xlink:href="#e" x="235.445" y="274.938" style="fill:#000;fill-opacity:1"/><path style="fill-rule:evenodd;fill:#fdd1b2;fill-opacity:1;stroke-width:.1;stroke-linecap:butt;stroke-linejoin:miter;stroke:#000;stroke-opacity:1;stroke-miterlimit:10" d="M14.173 6.5h.693c.095 0 .173.448.173 1s-.078 1-.173 1h-.693c-.095 0-.173-.448-.173-1s.078-1 .173-1" transform="scale(20)"/><use xlink:href="#f" x="285.445" y="154.938" style="fill:#000;fill-opacity:1"/><path style="fill-rule:evenodd;fill:#fdd1b2;fill-opacity:1;stroke-width:.1;stroke-linecap:butt;stroke-linejoin:miter;stroke:#000;stroke-opacity:1;stroke-miterlimit:10" d="M9.173 6.5h.693c.095 0 .173.448.173 1s-.078 1-.173 1h-.693C9.078 8.5 9 8.052 9 7.5s.078-1 .173-1" transform="scale(20)"/><use xlink:href="#g" x="185.445" y="154.938" style="fill:#000;fill-opacity:1"/><path style="stroke:none;fill-rule:evenodd;fill:#e9a4de;fill-opacity:1" d="M316 20h138v60H316ZM316 26v-6c-3.313 0-6 2.688-6 6h6ZM454 26h6c0-3.313-2.688-6-6-6v6Zm0 0"/><path style="stroke:none;fill-rule:evenodd;fill:#e9a4de;fill-opacity:1" d="M310 26h150v48H310ZM316 74h-6c0 3.313 2.688 6 6 6v-6ZM454 74v6c3.313 0 6-2.688 6-6h-6Zm0 0"/><path style="fill:none;stroke-width:.1;stroke-linecap:butt;stroke-linejoin:miter;stroke:#000;stroke-opacity:1;stroke-miterlimit:10" d="M15.8 1h6.9M15.8 4h6.9M15.8 1a.3.3 0 0 0-.3.3M23 1.3a.3.3 0 0 0-.3-.3M15.5 1.3v2.4M23 1.3v2.4M15.5 3.7a.3.3 0 0 0 .3.3M22.7 4a.3.3 0 0 0 .3-.3" transform="scale(20)"/><g style="fill:#000;fill-opacity:1"><use xlink:href="#h" x="332.266" y="42.512"/><use xlink:href="#i" x="341.855" y="42.512"/><use xlink:href="#j" x="351.445" y="42.512"/><use xlink:href="#k" x="361.035" y="42.512"/><use xlink:href="#l" x="370.625" y="42.512"/><use xlink:href="#m" x="380.215" y="42.512"/><use xlink:href="#n" x="389.805" y="42.512"/><use xlink:href="#o" x="399.395" y="42.512"/><use xlink:href="#k" x="408.984" y="42.512"/><use xlink:href="#i" x="418.574" y="42.512"/><use xlink:href="#l" x="428.164" y="42.512"/></g><g style="fill:#000;fill-opacity:1"><use xlink:href="#p" x="356.23" y="66.5"/><use xlink:href="#o" x="365.82" y="66.5"/><use xlink:href="#n" x="375.41" y="66.5"/><use xlink:href="#q" x="385" y="66.5"/><use xlink:href="#m" x="394.59" y="66.5"/><use xlink:href="#r" x="404.18" y="66.5"/></g><path style="stroke:none;fill-rule:evenodd;fill:#a1bbe5;fill-opacity:1" d="M316 240h138v60H316ZM316 246v-6c-3.313 0-6 2.688-6 6h6ZM454 246h6c0-3.313-2.688-6-6-6v6Zm0 0"/><path style="stroke:none;fill-rule:evenodd;fill:#a1bbe5;fill-opacity:1" d="M310 246h150v48H310ZM316 294h-6c0 3.313 2.688 6 6 6v-6ZM454 294v6c3.313 0 6-2.688 6-6h-6Zm0 0"/><path style="fill:none;stroke-width:.1;stroke-linecap:butt;stroke-linejoin:miter;stroke:#000;stroke-opacity:1;stroke-miterlimit:10" d="M15.8 12h6.9M15.8 15h6.9M15.8 12a.3.3 0 0 0-.3.3M23 12.3a.3.3 0 0 0-.3-.3M15.5 12.3v2.4M23 12.3v2.4M15.5 14.7a.3.3 0 0 0 .3.3M22.7 15a.3.3 0 0 0 .3-.3" transform="scale(20)"/><g style="fill:#000;fill-opacity:1"><use xlink:href="#h" x="332.266" y="262.512"/><use xlink:href="#i" x="341.855" y="262.512"/><use xlink:href="#j" x="351.445" y="262.512"/><use xlink:href="#k" x="361.035" y="262.512"/><use xlink:href="#l" x="370.625" y="262.512"/><use xlink:href="#m" x="380.215" y="262.512"/><use xlink:href="#n" x="389.805" y="262.512"/><use xlink:href="#o" x="399.395" y="262.512"/><use xlink:href="#k" x="408.984" y="262.512"/><use xlink:href="#i" x="418.574" y="262.512"/><use xlink:href="#l" x="428.164" y="262.512"/></g><g style="fill:#000;fill-opacity:1"><use xlink:href="#p" x="351.445" y="286.5"/><use xlink:href="#l" x="361.035" y="286.5"/><use xlink:href="#m" x="370.625" y="286.5"/><use xlink:href="#s" x="380.215" y="286.5"/><use xlink:href="#t" x="389.805" y="286.5"/><use xlink:href="#k" x="399.395" y="286.5"/><use xlink:href="#u" x="408.984" y="286.5"/></g><path style="stroke:none;fill-rule:evenodd;fill:#e9a4de;fill-opacity:1" d="M26 20h138v60H26ZM26 26v-6c-3.313 0-6 2.688-6 6h6ZM164 26h6c0-3.313-2.688-6-6-6v6Zm0 0"/><path style="stroke:none;fill-rule:evenodd;fill:#e9a4de;fill-opacity:1" d="M20 26h150v48H20ZM26 74h-6c0 3.313 2.688 6 6 6v-6ZM164 74v6c3.313 0 6-2.688 6-6h-6Zm0 0"/><path style="fill:none;stroke-width:.1;stroke-linecap:butt;stroke-linejoin:miter;stroke:#000;stroke-opacity:1;stroke-miterlimit:10" d="M1.3 1h6.9M1.3 4h6.9M1.3 1a.3.3 0 0 0-.3.3M8.5 1.3a.3.3 0 0 0-.3-.3M1 1.3v2.4M8.5 1.3v2.4M1 3.7a.3.3 0 0 0 .3.3M8.2 4a.3.3 0 0 0 .3-.3" transform="scale(20)"/><g style="fill:#000;fill-opacity:1"><use xlink:href="#v" x="66.23" y="42.512"/><use xlink:href="#o" x="75.82" y="42.512"/><use xlink:href="#k" x="85.41" y="42.512"/><use xlink:href="#w" x="95" y="42.512"/><use xlink:href="#i" x="104.59" y="42.512"/><use xlink:href="#l" x="114.18" y="42.512"/></g><g style="fill:#000;fill-opacity:1"><use xlink:href="#p" x="66.23" y="66.5"/><use xlink:href="#o" x="75.82" y="66.5"/><use xlink:href="#n" x="85.41" y="66.5"/><use xlink:href="#q" x="95" y="66.5"/><use xlink:href="#m" x="104.59" y="66.5"/><use xlink:href="#r" x="114.18" y="66.5"/></g><path style="stroke:none;fill-rule:evenodd;fill:#a1bbe5;fill-opacity:1" d="M26 240h138v60H26ZM26 246v-6c-3.313 0-6 2.688-6 6h6ZM164 246h6c0-3.313-2.688-6-6-6v6Zm0 0"/><path style="stroke:none;fill-rule:evenodd;fill:#a1bbe5;fill-opacity:1" d="M20 246h150v48H20ZM26 294h-6c0 3.313 2.688 6 6 6v-6ZM164 294v6c3.313 0 6-2.688 6-6h-6Zm0 0"/><path style="fill:none;stroke-width:.1;stroke-linecap:butt;stroke-linejoin:miter;stroke:#000;stroke-opacity:1;stroke-miterlimit:10" d="M1.3 12h6.9M1.3 15h6.9M1.3 12a.3.3 0 0 0-.3.3M8.5 12.3a.3.3 0 0 0-.3-.3M1 12.3v2.4M8.5 12.3v2.4M1 14.7a.3.3 0 0 0 .3.3M8.2 15a.3.3 0 0 0 .3-.3" transform="scale(20)"/><g style="fill:#000;fill-opacity:1"><use xlink:href="#v" x="66.23" y="262.512"/><use xlink:href="#o" x="75.82" y="262.512"/><use xlink:href="#k" x="85.41" y="262.512"/><use xlink:href="#w" x="95" y="262.512"/><use xlink:href="#i" x="104.59" y="262.512"/><use xlink:href="#l" x="114.18" y="262.512"/></g><g style="fill:#000;fill-opacity:1"><use xlink:href="#p" x="61.445" y="286.5"/><use xlink:href="#l" x="71.035" y="286.5"/><use xlink:href="#m" x="80.625" y="286.5"/><use xlink:href="#s" x="90.215" y="286.5"/><use xlink:href="#t" x="99.805" y="286.5"/><use xlink:href="#k" x="109.395" y="286.5"/><use xlink:href="#u" x="118.984" y="286.5"/></g></svg>