<svg xmlns="http://www.w3.org/2000/svg" xmlns:xlink="http://www.w3.org/1999/xlink" width="560pt" height="100pt" viewBox="0 0 560 100"><defs><symbol overflow="visible" id="a"><path style="stroke:none" d="M5.148 0 4.95-.945H4.9c-.333.422-.665.703-.993.847-.332.145-.742.215-1.23.22C2.016.116 1.5-.052 1.129-.388.754-.723.566-1.203.57-1.836.566-3.172 1.64-3.875 3.785-3.94l1.125-.04v-.41c0-.515-.113-.902-.336-1.152-.226-.25-.586-.375-1.074-.375-.555 0-1.18.172-1.879.512l-.308-.77c.328-.18.683-.316 1.074-.418a5.003 5.003 0 0 1 1.175-.152c.79.004 1.372.18 1.754.527.38.356.57.918.575 1.688V0zM2.875-.707c.625.004 1.117-.168 1.477-.516.355-.34.535-.82.535-1.441v-.602l-1.004.043c-.801.032-1.38.157-1.73.375-.36.22-.536.563-.532 1.024-.004.367.106.644.328.832.219.195.528.289.926.285zm0 0"/></symbol><symbol overflow="visible" id="b"><path style="stroke:none" d="M5.582-.89h-.055C5.06-.22 4.367.116 3.445.12c-.867-.004-1.543-.297-2.027-.89C.934-1.36.691-2.204.695-3.302c-.004-1.09.239-1.941.727-2.547.48-.605 1.156-.906 2.023-.91.899.004 1.586.328 2.07.98h.079l-.04-.476-.027-.469v-2.699h1.008V0h-.82zM3.574-.72c.684.004 1.18-.183 1.489-.558.308-.375.46-.977.464-1.813v-.21c-.004-.938-.16-1.61-.468-2.013-.317-.402-.813-.605-1.497-.605-.593 0-1.046.23-1.355.688-.316.46-.473 1.109-.469 1.94-.004.853.153 1.493.465 1.923.313.437.77.652 1.371.648zm0 0"/></symbol><symbol overflow="visible" id="c"><path style="stroke:none" d="M4.094-6.758c.293.004.558.028.793.07l-.14.934a3.823 3.823 0 0 0-.727-.09c-.54.004-1 .223-1.38.657-.382.437-.574.976-.57 1.625V0H1.066v-6.637h.829l.117 1.23h.047c.242-.429.539-.761.89-1a2.05 2.05 0 0 1 1.145-.35zm0 0"/></symbol><symbol overflow="visible" id="d"><path style="stroke:none" d="M3.871.121c-.984-.004-1.758-.3-2.324-.894C.977-1.371.69-2.2.695-3.266c-.004-1.062.258-1.914.79-2.546.523-.63 1.234-.942 2.124-.946.829.004 1.485.278 1.973.82.48.551.723 1.27.727 2.165v.636h-4.57c.019.782.214 1.371.59 1.774.366.406.894.61 1.577.605a5.283 5.283 0 0 0 2.121-.449v.898c-.359.157-.695.262-1.011.329-.317.062-.7.097-1.145.101zm-.273-6.039c-.535 0-.961.176-1.278.523-.316.348-.504.829-.558 1.442H5.23c-.003-.633-.144-1.117-.425-1.457-.282-.336-.684-.508-1.207-.508zm0 0"/></symbol><symbol overflow="visible" id="e"><path style="stroke:none" d="M5.348-1.813c-.004.625-.235 1.102-.692 1.434-.465.332-1.11.496-1.937.5C1.836.117 1.149-.019.66-.297v-.933c.317.164.656.292 1.024.382a3.91 3.91 0 0 0 1.058.141c.524.004.926-.078 1.211-.25.281-.164.422-.422.426-.77-.004-.253-.113-.472-.336-.66-.227-.18-.664-.398-1.313-.652-.617-.23-1.058-.43-1.316-.602a1.665 1.665 0 0 1-.582-.586 1.459 1.459 0 0 1-.191-.78c-.004-.54.218-.966.66-1.282.437-.309 1.039-.465 1.812-.469.711.004 1.41.149 2.094.434l-.355.82c-.668-.273-1.274-.414-1.813-.414-.48 0-.84.078-1.078.227-.246.152-.367.355-.363.617a.696.696 0 0 0 .136.453c.09.129.235.25.438.36.2.116.586.277 1.164.488.785.289 1.32.578 1.598.867.273.289.41.656.414 1.094zm0 0"/></symbol><symbol overflow="visible" id="f"><path style="stroke:none" d="M3.21-.707a2.47 2.47 0 0 0 .513-.04c.164-.023.297-.05.394-.081v.765a1.868 1.868 0 0 1-.48.133 4.778 4.778 0 0 1-.575.051C1.778.117 1.137-.555 1.137-1.906v-3.95h-.95v-.484l.95-.418.425-1.418h.583v1.54H4.07v.78H2.145v3.907c0 .402.093.71.285.922.187.218.449.324.78.32zm0 0"/></symbol><symbol overflow="visible" id="g"><path style="stroke:none" d="M3.719.121C2.754.117 2.008-.176 1.484-.766.954-1.356.691-2.19.695-3.277c-.004-1.106.262-1.965.801-2.57.531-.606 1.297-.907 2.29-.91.316.003.632.038.952.105.317.07.567.148.754.238l-.308.855a5.128 5.128 0 0 0-.727-.218 3.57 3.57 0 0 0-.695-.09c-1.352.004-2.028.863-2.024 2.578-.004.82.16 1.445.492 1.879.329.437.817.656 1.465.652.551.004 1.118-.117 1.7-.355v.89c-.446.227-1.004.34-1.676.344zm0 0"/></symbol><symbol overflow="visible" id="h"><path style="stroke:none" d="M6.793-3.324c-.004 1.086-.273 1.93-.816 2.535-.547.605-1.301.906-2.258.91-.598-.004-1.125-.14-1.582-.418a2.732 2.732 0 0 1-1.067-1.2C.816-2.011.691-2.62.695-3.323c-.004-1.078.266-1.922.813-2.528.539-.601 1.293-.902 2.254-.906.925.004 1.66.313 2.21.926.544.621.817 1.457.821 2.508zm-5.055 0c-.004.851.164 1.496.508 1.937.336.45.836.672 1.496.668.656.004 1.156-.219 1.5-.664.34-.441.512-1.086.512-1.941 0-.84-.172-1.48-.512-1.922-.344-.438-.847-.66-1.512-.66-.66 0-1.156.218-1.492.648-.336.438-.504 1.082-.5 1.934zm0 0"/></symbol><symbol overflow="visible" id="i"><path style="stroke:none" d="M9.527 0v-4.316c0-.528-.113-.926-.34-1.192-.226-.265-.578-.398-1.054-.398-.625 0-1.09.18-1.387.539-.305.36-.453.914-.45 1.66V0H5.294v-4.316c-.004-.528-.117-.926-.34-1.192-.23-.265-.582-.398-1.058-.398-.633 0-1.094.191-1.387.566-.293.383-.442 1-.438 1.86V0H1.066v-6.637h.817l.164.907h.047c.187-.32.457-.57.8-.754.344-.18.731-.27 1.165-.274 1.035.004 1.714.38 2.035 1.125h.047A2.1 2.1 0 0 1 7-6.453c.371-.2.8-.3 1.285-.305.75.004 1.309.196 1.684.578.37.387.558 1.004.562 1.852V0zm0 0"/></symbol><symbol overflow="visible" id="j"><path style="stroke:none" d="M2.07 0H1.066v-6.637H2.07zM.98-8.438c-.003-.226.055-.394.168-.503a.63.63 0 0 1 .844.004c.117.113.176.277.176.5 0 .226-.059.398-.176.507a.55.55 0 0 1-.418.168.546.546 0 0 1-.426-.168c-.113-.11-.171-.28-.168-.508zm0 0"/></symbol><symbol overflow="visible" id="k"><path style="stroke:none" d="M8.945 0h-1.02L6.142-5.93c-.086-.261-.184-.59-.286-.992-.109-.394-.164-.637-.164-.719a16.013 16.013 0 0 1-.421 1.75L3.535 0H2.52L.164-8.855h1.09l1.398 5.468c.192.77.332 1.465.426 2.086.102-.738.266-1.46.485-2.168l1.585-5.386h1.09l1.664 5.433c.192.625.356 1.332.493 2.121.074-.57.218-1.27.433-2.097l1.395-5.457h1.09zm0 0"/></symbol><symbol overflow="visible" id="l"><path style="stroke:none" d="M2.059-3.398c.171-.243.437-.563.793-.97l2.144-2.269h1.191L3.5-3.809 6.375 0H5.16L2.816-3.137l-.757.653V0h-.993v-9.422h.993v4.996c-.004.227-.02.567-.047 1.028zm0 0"/></symbol><symbol overflow="visible" id="m"><path style="stroke:none" d="M5.61 0v-4.293c-.005-.539-.126-.941-.372-1.21-.25-.267-.636-.403-1.156-.403-.7 0-1.207.191-1.527.566-.325.38-.489.996-.485 1.86V0H1.066v-6.637h.817l.164.907h.047c.203-.325.492-.575.867-.758a2.9 2.9 0 0 1 1.242-.27c.797.004 1.399.196 1.805.578.398.387.601 1.004.605 1.852V0zm0 0"/></symbol><symbol overflow="visible" id="n"><path style="stroke:none" d="M6.496-6.637V-6l-1.226.145c.109.144.21.328.3.554.086.23.13.489.133.77-.004.656-.226 1.176-.668 1.558-.445.391-1.05.582-1.824.582-.2 0-.387-.015-.559-.05-.43.23-.644.515-.64.855a.417.417 0 0 0 .222.402c.145.086.403.13.77.13H4.18c.715 0 1.27.152 1.656.456.383.305.574.743.578 1.317-.004.734-.3 1.297-.887 1.683-.593.383-1.453.575-2.578.578-.87-.003-1.539-.164-2.008-.484C.47 2.172.234 1.715.234 1.125c0-.406.13-.758.387-1.047.258-.297.621-.492 1.094-.598a1.002 1.002 0 0 1-.43-.359.924.924 0 0 1-.172-.562c0-.243.063-.454.192-.637.129-.18.332-.356.613-.527a1.725 1.725 0 0 1-.836-.72 2.058 2.058 0 0 1-.324-1.163c-.004-.727.215-1.285.652-1.68.434-.39 1.05-.586 1.856-.59.343.004.656.043.937.121zm-5.289 7.75c0 .36.148.63.453.817.297.183.73.277 1.3.28.84-.003 1.466-.128 1.876-.378.402-.254.605-.598.61-1.027C5.44.44 5.331.19 5.108.055c-.222-.14-.64-.207-1.25-.207H2.652c-.457 0-.812.109-1.066.328-.254.219-.379.531-.379.937zm.543-5.625c-.004.465.129.817.395 1.055.261.238.625.36 1.093.355.98.004 1.473-.472 1.473-1.43 0-.991-.496-1.491-1.488-1.495-.477.004-.844.132-1.094.382-.258.258-.383.633-.379 1.133zm0 0"/></symbol><symbol overflow="visible" id="p"><path style="stroke:none" d="M3.941 0H2.914v-7.938H.11v-.917h6.637v.918H3.941zm0 0"/></symbol><symbol overflow="visible" id="q"><path style="stroke:none" d="M1.219 0v-8.855h1.027V0zm0 0"/></symbol><symbol overflow="visible" id="r"><path style="stroke:none" d="M2.664-3.398.355-6.637H1.5l1.754 2.543 1.742-2.543H6.13L3.82-3.398 6.25 0H5.11L3.253-2.688 1.375 0H.235zm0 0"/></symbol><symbol overflow="visible" id="s"><path style="stroke:none" d="M2.246-3.684V0H1.22v-8.855h2.426c1.085.003 1.886.21 2.406.625.52.418.781 1.043.781 1.878 0 1.172-.594 1.965-1.781 2.372L7.453 0H6.238L4.094-3.684zm0-.882h1.41c.727.003 1.258-.141 1.598-.434.34-.285.512-.719.512-1.297 0-.582-.176-1.004-.52-1.266-.348-.257-.898-.386-1.66-.39h-1.34zm0 0"/></symbol><symbol overflow="visible" id="t"><path style="stroke:none" d="M4.156.121A2.983 2.983 0 0 1 2.97-.117a2.13 2.13 0 0 1-.899-.738H2c.043.39.066.757.07 1.105v2.73H1.066v-9.617h.817l.14.907h.047a2.32 2.32 0 0 1 .903-.786c.34-.16.734-.238 1.183-.242.875.004 1.555.305 2.035.903.477.605.715 1.449.72 2.53-.005 1.095-.247 1.938-.731 2.54-.489.601-1.164.902-2.024.906zm-.148-6.027c-.68 0-1.172.191-1.473.566-.305.38-.46.977-.465 1.793v.223c-.004.937.153 1.605.465 2.004.309.406.809.605 1.496.601.574.004 1.024-.226 1.348-.695.324-.461.484-1.102.488-1.922-.004-.824-.164-1.46-.488-1.906-.324-.442-.781-.664-1.371-.664zm0 0"/></symbol><symbol overflow="visible" id="u"><path style="stroke:none" d="M.012-6.637H1.09l1.453 3.785c.32.868.516 1.493.594 1.872h.047c.05-.204.164-.555.332-1.055.164-.496.71-2.031 1.644-4.602h1.078L3.387.922c-.285.742-.617 1.273-.992 1.586-.38.312-.844.469-1.391.472a4.386 4.386 0 0 1-.906-.105V2.07c.218.047.464.075.742.075.687 0 1.183-.391 1.48-1.165l.368-.945zm0 0"/></symbol></defs><path style="fill-rule:nonzero;fill:#fff;fill-opacity:1;stroke-width:0;stroke-linecap:butt;stroke-linejoin:miter;stroke:#000;stroke-opacity:1;stroke-miterlimit:10" d="M0 0h28v5H0zm0 0" transform="scale(20)"/><path style="fill:none;stroke-width:.25;stroke-linecap:butt;stroke-linejoin:miter;stroke:#000;stroke-opacity:1;stroke-miterlimit:10" d="M7 2.5h3.475" transform="scale(20)"/><path style="fill-rule:evenodd;fill:#000;fill-opacity:1;stroke-width:.25;stroke-linecap:butt;stroke-linejoin:miter;stroke:#000;stroke-opacity:1;stroke-miterlimit:10" d="m10.475 2.7.4-.2-.4-.2v.4zm0 0" transform="scale(20)"/><g style="fill:#000;fill-opacity:1"><use xlink:href="#a" x="168.965" y="39"/><use xlink:href="#b" x="175.859" y="39"/><use xlink:href="#b" x="183.457" y="39"/></g><path style="fill:none;stroke-width:.25;stroke-linecap:butt;stroke-linejoin:miter;stroke:#000;stroke-opacity:1;stroke-miterlimit:10" d="M17.5 2.925h3.475" transform="scale(20)"/><path style="fill-rule:evenodd;fill:#000;fill-opacity:1;stroke-width:.25;stroke-linecap:butt;stroke-linejoin:miter;stroke:#000;stroke-opacity:1;stroke-miterlimit:10" d="m17.5 2.725-.4.2.4.2v-.4zm0 0" transform="scale(20)"/><g style="fill:#000;fill-opacity:1"><use xlink:href="#c" x="364.871" y="78.5"/><use xlink:href="#d" x="369.93" y="78.5"/><use xlink:href="#e" x="376.883" y="78.5"/><use xlink:href="#d" x="382.801" y="78.5"/><use xlink:href="#f" x="389.754" y="78.5"/></g><g style="fill:#000;fill-opacity:1"><use xlink:href="#g" x="358.008" y="31.5"/><use xlink:href="#h" x="363.906" y="31.5"/><use xlink:href="#i" x="371.406" y="31.5"/><use xlink:href="#i" x="382.949" y="31.5"/><use xlink:href="#j" x="394.492" y="31.5"/><use xlink:href="#f" x="397.637" y="31.5"/></g><path style="fill:none;stroke-width:.25;stroke-linecap:butt;stroke-linejoin:miter;stroke:#000;stroke-opacity:1;stroke-miterlimit:10" d="M17 2.075h3.475" transform="scale(20)"/><path style="fill-rule:evenodd;fill:#000;fill-opacity:1;stroke-width:.25;stroke-linecap:butt;stroke-linejoin:miter;stroke:#000;stroke-opacity:1;stroke-miterlimit:10" d="m20.475 2.275.4-.2-.4-.2v.4zm0 0" transform="scale(20)"/><path style="stroke:none;fill-rule:evenodd;fill:#e9a4de;fill-opacity:1" d="M26 30h108v40H26zM26 36v-6c-3.313 0-6 2.688-6 6h6zM134 36h6c0-3.313-2.688-6-6-6v6zm0 0"/><path style="stroke:none;fill-rule:evenodd;fill:#e9a4de;fill-opacity:1" d="M20 36h120v28H20zM26 64h-6c0 3.313 2.688 6 6 6v-6zM134 64v6c3.313 0 6-2.688 6-6h-6zm0 0"/><path style="fill:none;stroke-width:.1;stroke-linecap:butt;stroke-linejoin:miter;stroke:#000;stroke-opacity:1;stroke-miterlimit:10" d="M1.3 1.5h5.4M1.3 3.5h5.4M1.3 1.5a.3.3 0 0 0-.3.3M7 1.8a.3.3 0 0 0-.3-.3M1 1.8v1.4M7 1.8v1.4M1 3.2a.3.3 0 0 0 .3.3M6.7 3.5a.3.3 0 0 0 .3-.3" transform="scale(20)"/><g style="fill:#000;fill-opacity:1"><use xlink:href="#k" x="41.426" y="55.488"/><use xlink:href="#h" x="52.91" y="55.488"/><use xlink:href="#c" x="60.41" y="55.488"/><use xlink:href="#l" x="65.469" y="55.488"/><use xlink:href="#j" x="71.973" y="55.488"/><use xlink:href="#m" x="75.117" y="55.488"/><use xlink:href="#n" x="82.734" y="55.488"/><use xlink:href="#o" x="89.531" y="55.488"/><use xlink:href="#p" x="92.754" y="55.488"/><use xlink:href="#c" x="99.609" y="55.488"/><use xlink:href="#d" x="104.668" y="55.488"/><use xlink:href="#d" x="111.621" y="55.488"/></g><path style="stroke:none;fill-rule:evenodd;fill:#a9e5a1;fill-opacity:1" d="M226 30h108v40H226zM226 36v-6c-3.313 0-6 2.688-6 6h6zM334 36h6c0-3.313-2.688-6-6-6v6zm0 0"/><path style="stroke:none;fill-rule:evenodd;fill:#a9e5a1;fill-opacity:1" d="M220 36h120v28H220zM226 64h-6c0 3.313 2.688 6 6 6v-6zM334 64v6c3.313 0 6-2.688 6-6h-6zm0 0"/><path style="fill:none;stroke-width:.1;stroke-linecap:butt;stroke-linejoin:miter;stroke:#000;stroke-opacity:1;stroke-miterlimit:10" d="M11.3 1.5h5.4M11.3 3.5h5.4M11.3 1.5a.3.3 0 0 0-.3.3M17 1.8a.3.3 0 0 0-.3-.3M11 1.8v1.4M17 1.8v1.4M11 3.2a.3.3 0 0 0 .3.3M16.7 3.5a.3.3 0 0 0 .3-.3" transform="scale(20)"/><g style="fill:#000;fill-opacity:1"><use xlink:href="#q" x="263.945" y="55.488"/><use xlink:href="#m" x="267.402" y="55.488"/><use xlink:href="#b" x="275.02" y="55.488"/><use xlink:href="#d" x="282.617" y="55.488"/><use xlink:href="#r" x="289.57" y="55.488"/></g><path style="stroke:none;fill-rule:evenodd;fill:#a1bbe5;fill-opacity:1" d="M426 30h108v40H426zM426 36v-6c-3.313 0-6 2.688-6 6h6zM534 36h6c0-3.313-2.688-6-6-6v6zm0 0"/><path style="stroke:none;fill-rule:evenodd;fill:#a1bbe5;fill-opacity:1" d="M420 36h120v28H420zM426 64h-6c0 3.313 2.688 6 6 6v-6zM534 64v6c3.313 0 6-2.688 6-6h-6zm0 0"/><path style="fill:none;stroke-width:.1;stroke-linecap:butt;stroke-linejoin:miter;stroke:#000;stroke-opacity:1;stroke-miterlimit:10" d="M21.3 1.5h5.4M21.3 3.5h5.4M21.3 1.5a.3.3 0 0 0-.3.3M27 1.8a.3.3 0 0 0-.3-.3M21 1.8v1.4M27 1.8v1.4M21 3.2a.3.3 0 0 0 .3.3M26.7 3.5a.3.3 0 0 0 .3-.3" transform="scale(20)"/><g style="fill:#000;fill-opacity:1"><use xlink:href="#s" x="449.023" y="55.488"/><use xlink:href="#d" x="456.699" y="55.488"/><use xlink:href="#t" x="463.652" y="55.488"/><use xlink:href="#h" x="471.25" y="55.488"/><use xlink:href="#e" x="478.75" y="55.488"/><use xlink:href="#j" x="484.668" y="55.488"/><use xlink:href="#f" x="487.813" y="55.488"/><use xlink:href="#h" x="492.188" y="55.488"/><use xlink:href="#c" x="499.688" y="55.488"/><use xlink:href="#u" x="504.746" y="55.488"/></g></svg>