<?xml version="1.0" encoding="UTF-8" standalone="no"?>
<!DOCTYPE svg PUBLIC "-//W3C//DTD SVG 1.0//EN" "http://www.w3.org/TR/2001/PR-SVG-20010719/DTD/svg10.dtd">
<svg width="27cm" height="4cm" viewBox="18 8 523 63" xmlns="http://www.w3.org/2000/svg" xmlns:xlink="http://www.w3.org/1999/xlink">
  <g>
    <line style="fill: none; fill-opacity:0; stroke-width: 5; stroke: #000000" x1="140" y1="39" x2="209.5" y2="39"/>
    <polygon style="fill: #000000" points="209.5,43 217.5,39 209.5,35 "/>
    <polygon style="fill: none; fill-opacity:0; stroke-width: 5; stroke: #000000" points="209.5,43 217.5,39 209.5,35 "/>
  </g>
  <text font-size="12.8" style="fill: #000000;text-anchor:middle;font-family:sans-serif;font-style:normal;font-weight:normal" x="180" y="29">
    <tspan x="180" y="29">add</tspan>
  </text>
  <g>
    <line style="fill: none; fill-opacity:0; stroke-width: 5; stroke: #000000" x1="350" y1="48.5" x2="419.5" y2="48.5"/>
    <polygon style="fill: #000000" points="350,44.5 342,48.5 350,52.5 "/>
    <polygon style="fill: none; fill-opacity:0; stroke-width: 5; stroke: #000000" points="350,44.5 342,48.5 350,52.5 "/>
  </g>
  <text font-size="12.8" style="fill: #000000;text-anchor:middle;font-family:sans-serif;font-style:normal;font-weight:normal" x="379.5" y="68.5">
    <tspan x="379.5" y="68.5">reset</tspan>
  </text>
  <text font-size="12.8" style="fill: #000000;text-anchor:middle;font-family:sans-serif;font-style:normal;font-weight:normal" x="380" y="21.5">
    <tspan x="380" y="21.5">commit</tspan>
  </text>
  <g>
    <rect style="fill: #c5919b" x="20" y="20" width="120" height="40" rx="8" ry="8"/>
    <rect style="fill: none; fill-opacity:0; stroke-width: 2; stroke-linejoin: round; stroke: #000000" x="20" y="20" width="120" height="40" rx="8" ry="8"/>
  </g>
  <g>
    <rect style="fill: #699768" x="220" y="20" width="120" height="40" rx="8" ry="8"/>
    <rect style="fill: none; fill-opacity:0; stroke-width: 2; stroke-linejoin: round; stroke: #000000" x="220" y="20" width="120" height="40" rx="8" ry="8"/>
  </g>
  <text font-size="12.8" style="fill: #000000;text-anchor:middle;font-family:sans-serif;font-style:normal;font-weight:normal" x="80" y="45.075">
    <tspan x="80" y="45.075">Working Tree</tspan>
  </text>
  <text font-size="12.8" style="fill: #000000;text-anchor:middle;font-family:sans-serif;font-style:normal;font-weight:normal" x="280" y="45.075">
    <tspan x="280" y="45.075">Index</tspan>
  </text>
  <g>
    <line style="fill: none; fill-opacity:0; stroke-width: 5; stroke-linejoin: round; stroke: #000000" x1="340" y1="31.5" x2="409.5" y2="31.5"/>
    <polygon style="fill: #000000" points="409.5,35.5 417.5,31.5 409.5,27.5 "/>
    <polygon style="fill: none; fill-opacity:0; stroke-width: 5; stroke: #000000" points="409.5,35.5 417.5,31.5 409.5,27.5 "/>
  </g>
  <g>
    <rect style="fill: #8086ac" x="420" y="20" width="120" height="40" rx="8" ry="8"/>
    <rect style="fill: none; fill-opacity:0; stroke-width: 2; stroke-linejoin: round; stroke: #000000" x="420" y="20" width="120" height="40" rx="8" ry="8"/>
  </g>
  <text font-size="12.8" style="fill: #000000;text-anchor:middle;font-family:sans-serif;font-style:normal;font-weight:normal" x="480" y="45.075">
    <tspan x="480" y="45.075">Repository</tspan>
  </text>
</svg>
