<svg xmlns="http://www.w3.org/2000/svg" xmlns:xlink="http://www.w3.org/1999/xlink" width="550pt" height="400" viewBox="0 0 550 300"><defs><symbol overflow="visible" id="a"><path style="stroke:none" d="M4.871.191a3.592 3.592 0 0 1-1.773-.449 4.079 4.079 0 0 1-1.364-1.265C1.36-2.066 1.066-2.72.864-3.48.651-4.238.55-5.078.553-6.004c-.003-.918.102-1.754.317-2.512.207-.75.504-1.39.89-1.918.384-.52.844-.925 1.384-1.214a3.659 3.659 0 0 1 1.765-.434c.563 0 1.086.121 1.57.363.485.242.926.61 1.332 1.102.399.492.704 1.125.915 1.89.203.774.308 1.688.308 2.743 0 1.156-.125 2.125-.367 2.906-.246.789-.563 1.426-.957 1.91-.399.488-.844.836-1.332 1.043-.496.21-1 .313-1.508.316Zm-2-2.398c.594.719 1.254 1.078 1.98 1.074.344.004.68-.07 1.008-.219.329-.144.63-.402.907-.777.27-.367.484-.867.648-1.496.156-.625.238-1.426.238-2.398 0-.946-.09-1.72-.265-2.329-.18-.605-.407-1.09-.676-1.449-.277-.355-.563-.613-.86-.773-.3-.16-.62-.242-.96-.242a2.38 2.38 0 0 0-1.086.21c-.336.157-.645.407-.934.75-.293.344-.531.817-.715 1.418-.187.602-.281 1.376-.277 2.32-.004.884.09 1.665.277 2.34.184.68.422 1.204.715 1.571Zm0 0"/></symbol><symbol overflow="visible" id="b"><path style="stroke:none" d="M6.578-12.871c1.11.004 2.004.406 2.688 1.21l-.633 1.266c-.11 0-.16-.05-.156-.152a.623.623 0 0 0-.04-.226 2.433 2.433 0 0 0-.812-.707 2.478 2.478 0 0 0-1.969-.133c-.246.093-.46.25-.652.465-.191.218-.336.511-.43.878-.097.372-.144.825-.144 1.356v.668h2.879v1.11h-2.88V0H3.106v-7.137H1.207v-1.11h1.898v-.862c0-.676.086-1.254.258-1.735.172-.48.422-.867.75-1.164.324-.289.696-.508 1.114-.652a4.395 4.395 0 0 1 1.351-.211Zm0 0"/></symbol><symbol overflow="visible" id="c"><path style="stroke:none" d="M2.031-8.766h3.512v7.653h2.05V0H1.919v-1.113H4.16v-6.54H2.031Zm2.149-3.527a.947.947 0 0 1 .691-.289.99.99 0 0 1 .7.297.99.99 0 0 1 .296.7.939.939 0 0 1-.297.69.965.965 0 0 1-.699.29.917.917 0 0 1-.691-.29.9.9 0 0 1-.285-.69.934.934 0 0 1 .285-.708Zm0 0"/></symbol><symbol overflow="visible" id="d"><path style="stroke:none" d="m8.766-7.309-.98 1.133c-.067-.039-.095-.078-.087-.125a.465.465 0 0 0-.02-.18.983.983 0 0 0-.144-.289c-.078-.109-.234-.265-.465-.46-.441-.36-1.039-.54-1.793-.54-.379 0-.738.079-1.074.23-.344.157-.64.376-.898.661-.258.29-.465.637-.621 1.035a3.644 3.644 0 0 0-.23 1.348c-.005.5.073.957.23 1.379.156.422.367.785.64 1.09.266.304.59.543.965.715.375.171.785.257 1.238.257.883 0 1.649-.351 2.297-1.054l.809.937C7.758-.25 6.69.211 5.43.211A4.315 4.315 0 0 1 3.69-.133a4.192 4.192 0 0 1-1.382-.96 4.271 4.271 0 0 1-.91-1.446 4.883 4.883 0 0 1-.325-1.832 4.927 4.927 0 0 1 .324-1.824c.215-.559.52-1.043.91-1.446a4.2 4.2 0 0 1 1.403-.949 4.544 4.544 0 0 1 1.773-.348 4.214 4.214 0 0 1 1.887.434c.57.29 1.035.688 1.395 1.195Zm0 0"/></symbol><symbol overflow="visible" id="e"><path style="stroke:none" d="M1.746-7.73c.777-.813 1.817-1.223 3.125-1.227 1.07.004 1.918.277 2.543.816.617.547.93 1.45.93 2.711V0H7.039v-.96C6.102-.18 5.055.21 3.895.21 3.43.21 3.015.14 2.656 0a2.911 2.911 0 0 1-.93-.555 2.326 2.326 0 0 1-.585-.789 1.99 1.99 0 0 1-.2-.883c-.003-.878.375-1.574 1.141-2.086.758-.511 1.856-.792 3.29-.847H7.02v-.328c0-.871-.184-1.48-.547-1.832-.368-.344-.934-.52-1.696-.524-.953.004-1.738.336-2.359.996Zm5.332 3.625H6.75c-.18.003-.352 0-.508-.008a9.872 9.872 0 0 0-.469-.012c-.707 0-1.28.05-1.726.145-.45.101-.8.23-1.055.394-.258.168-.433.36-.527.566a1.622 1.622 0 0 0-.145.68c0 .414.176.766.535 1.055.356.297.797.441 1.325.441.383 0 .73-.058 1.035-.18.305-.12.57-.269.805-.44.226-.173.414-.352.558-.54.137-.183.238-.344.309-.488.125-.25.191-.598.191-1.035Zm0 0"/></symbol><symbol overflow="visible" id="f"><path style="stroke:none" d="M1.629-12.754h3.855v11.64h2.57V0H1.517v-1.113h2.59v-10.528H1.628Zm0 0"/></symbol><symbol overflow="visible" id="g"><path style="stroke:none" d="M1.074-11.95h3.528c1.402.005 2.418.317 3.039.942.62.63.93 1.453.933 2.473a3.319 3.319 0 0 1-.176 1.027 3.525 3.525 0 0 1-1.253 1.719c-.305.219-.641.371-1.008.457L8.898 0H7.402L4.758-5.273H2.453V0H1.074Zm1.38 1.266v4.22h2.312c.851.003 1.468-.184 1.851-.563.38-.375.57-.88.574-1.508a2.453 2.453 0 0 0-.152-.844 2.131 2.131 0 0 0-.43-.668 2.038 2.038 0 0 0-.738-.46c-.305-.114-.676-.173-1.105-.177Zm0 0"/></symbol><symbol overflow="visible" id="h"><path style="stroke:none" d="M4.969-8.977c.457 0 .902.086 1.34.25.433.172.812.422 1.14.758.324.34.59.774.79 1.297.195.527.292 1.149.296 1.86l-.012.316c-.007.11-.015.215-.027.316H2.262c.023.617.129 1.13.316 1.543.188.414.422.75.703 1.008.281.258.594.442.938.547.343.11.687.164 1.035.16.906.004 1.66-.324 2.266-.976l.765.746C7.543-.258 6.52.188 5.22.19A5.12 5.12 0 0 1 3.46-.105a3.468 3.468 0 0 1-1.352-.872 3.904 3.904 0 0 1-.863-1.43C1.04-2.972.938-3.62.941-4.354c-.003-.735.102-1.395.317-1.973a4.164 4.164 0 0 1 .86-1.45 3.66 3.66 0 0 1 1.277-.89 4.04 4.04 0 0 1 1.574-.309ZM2.32-5.293h4.817c0-.047 0-.094.008-.14 0-.04.003-.094.007-.165a2.393 2.393 0 0 0-.183-.894 2.531 2.531 0 0 0-.489-.738 2.47 2.47 0 0 0-.718-.5 2.145 2.145 0 0 0-.89-.192c-.606 0-1.15.211-1.634.633-.488.422-.793 1.09-.918 1.996Zm0 0"/></symbol><symbol overflow="visible" id="i"><path style="stroke:none" d="M1.152-8.766h1.36v1.344a3.151 3.151 0 0 1 1.187-1.121c.492-.273.992-.41 1.496-.414.489.004.953.098 1.399.277.437.188.832.465 1.176.836.34.371.609.836.808 1.399.2.562.297 1.23.3 1.996-.003.77-.108 1.445-.32 2.031-.214.59-.492 1.078-.835 1.469a3.47 3.47 0 0 1-1.188.883 3.36 3.36 0 0 1-1.36.296 3.231 3.231 0 0 1-1.507-.363 3.096 3.096 0 0 1-1.137-1.02v4.356H1.152Zm1.36 5.098c.023.941.242 1.617.656 2.023.41.41.918.614 1.527.61.32.004.645-.047.97-.153a2.28 2.28 0 0 0 .886-.523c.27-.25.484-.578.648-.984.16-.407.242-.914.242-1.528 0-1.113-.238-1.98-.707-2.601-.472-.614-1.132-.934-1.98-.961a2.72 2.72 0 0 0-.793.133c-.273.09-.516.242-.727.457-.21.218-.386.508-.52.867-.14.363-.206.812-.202 1.344Zm0 0"/></symbol><symbol overflow="visible" id="j"><path style="stroke:none" d="M4.871-8.957c.531.004 1.04.11 1.524.316.476.215.898.52 1.257.91.36.399.645.88.856 1.45.21.57.316 1.207.316 1.91 0 .715-.105 1.355-.308 1.918a4.583 4.583 0 0 1-.844 1.45c-.36.405-.781.71-1.266.917A3.965 3.965 0 0 1 4.852.23 3.74 3.74 0 0 1 3.27-.113a4.017 4.017 0 0 1-1.297-.95 4.45 4.45 0 0 1-.883-1.449 4.884 4.884 0 0 1-.324-1.824 4.916 4.916 0 0 1 .336-1.84 4.46 4.46 0 0 1 .902-1.465 4.316 4.316 0 0 1 1.312-.96 3.676 3.676 0 0 1 1.555-.356Zm2.57 4.621c0-.547-.074-1.035-.222-1.465a3.585 3.585 0 0 0-.582-1.086 2.654 2.654 0 0 0-.836-.668 2.35 2.35 0 0 0-.989-.23 2.336 2.336 0 0 0-.988.23c-.316.157-.59.38-.824.668a3.542 3.542 0 0 0-.563 1.067c-.14.418-.21.886-.21 1.41 0 .512.07.976.21 1.398.141.422.329.79.563 1.094.234.313.512.547.836.711.316.164.656.246 1.016.246a2.316 2.316 0 0 0 1.832-.867c.234-.29.418-.645.554-1.067.133-.421.203-.902.203-1.44Zm0 0"/></symbol><symbol overflow="visible" id="k"><path style="stroke:none" d="M8.285-7.594 7.48-6.387c-.066-.011-.097-.062-.097-.152a.38.38 0 0 0-.04-.191c-.234-.293-.562-.567-.988-.817a2.812 2.812 0 0 0-1.449-.375c-.25 0-.484.031-.707.086a2.45 2.45 0 0 0-.597.242 1.194 1.194 0 0 0-.418.395.928.928 0 0 0-.153.543.703.703 0 0 0 .114.414c.074.125.195.242.367.355.164.117.402.23.707.344.3.117.695.246 1.187.383 1.106.297 1.887.644 2.344 1.047.457.402.688.898.688 1.484A2.524 2.524 0 0 1 7.46-.633c-.324.258-.707.461-1.152.606-.45.144-.954.214-1.512.218C3.324.187 2.09-.269 1.094-1.188l.785-1.382a.418.418 0 0 1 .078.187.759.759 0 0 0 .133.305c.074.121.215.254.426.402.203.153.52.32.949.5.187.094.406.16.656.196.242.042.488.062.734.058.254.004.516-.027.782-.094.265-.062.504-.156.715-.28.21-.118.378-.266.511-.442.125-.172.192-.367.196-.59-.004-.332-.16-.617-.465-.852-.313-.23-.88-.468-1.7-.715-.57-.164-.94-.277-1.12-.343-.465-.176-.801-.336-1.004-.473a2.737 2.737 0 0 1-.563-.48 2.298 2.298 0 0 1-.406-.637 1.825 1.825 0 0 1-.153-.781 1.675 1.675 0 0 1 .25-.883c.165-.281.395-.531.7-.75.297-.215.656-.39 1.074-.531a4.397 4.397 0 0 1 1.351-.204c1.34 0 2.43.461 3.262 1.383Zm0 0"/></symbol><symbol overflow="visible" id="l"><path style="stroke:none" d="m3.605-11.105 1.497-.25c-.004.117-.02.222-.047.308a1.316 1.316 0 0 0-.067.211l-.23 2.07h2.875v1.114H4.758a31.854 31.854 0 0 0-.176 3.222c0 .617.012 1.14.04 1.563.023.43.089.762.202 1.004.106.242.266.433.473.566.203.14.476.207.828.203.586.004 1.242-.265 1.965-.804l.426 1.093c-.887.653-1.793.973-2.723.977-.926-.004-1.598-.277-2.016-.836-.425-.555-.617-1.461-.574-2.719-.004-.46.008-1.05.04-1.77.023-.714.073-1.55.152-2.5H1.344v-1.113h2.11Zm0 0"/></symbol><symbol overflow="visible" id="m"><path style="stroke:none" d="M1.898-8.766h1.418l-.035 1.688A2.903 2.903 0 0 1 4.56-8.484a3.76 3.76 0 0 1 1.878-.493c.946 0 1.727.32 2.348.961l-.633 1.32a9.86 9.86 0 0 0-.386-.476 2.425 2.425 0 0 0-.375-.324 2.323 2.323 0 0 0-.446-.211 2.288 2.288 0 0 0-.586-.078c-.425.004-.82.101-1.191.297-.375.199-.7.46-.973.785-.277.328-.5.703-.664 1.121-.168.426-.25.867-.25 1.324V.02H1.898Zm0 0"/></symbol><symbol overflow="visible" id="n"><path style="stroke:none" d="m1.133-8.152-.25-.614H2.55a.943.943 0 0 1-.04.258.485.485 0 0 0-.034.203c-.004.055.007.09.035.114l2.61 6.445 1.667-4.7a14.774 14.774 0 0 0 .652-2.32H8.88a43.25 43.25 0 0 0-.375 1.133c-.137.426-.297.89-.488 1.399L5.64.039l-.368.957c-.308.856-.703 1.457-1.18 1.813a2.78 2.78 0 0 1-1.655.527C1.602 3.332.93 3.086.421 2.59l.73-1.227a.466.466 0 0 1 .094.184c.024.086.043.14.059.168l.074.086c.047.054.117.113.203.176.082.054.188.113.316.168.125.054.266.082.422.082.368 0 .696-.118.985-.352.289-.234.574-.652.855-1.254l.27-.66Zm0 0"/></symbol><symbol overflow="visible" id="o"><path style="stroke:none" d="M1.035-11.95h2.781c1.02.005 1.817.145 2.387.423.567.285 1.05.687 1.45 1.21.394.528.687 1.16.882 1.899.192.742.29 1.578.29 2.512 0 .922-.118 1.746-.348 2.472-.23.73-.547 1.356-.95 1.872-.402.519-.922.914-1.562 1.18-.64.269-1.434.398-2.38.402h-2.55Zm1.266 1.114v9.8H3.52c1.355.005 2.347-.41 2.98-1.237.625-.829.941-2.016.941-3.567-.015-1.558-.304-2.781-.867-3.668-.566-.883-1.515-1.324-2.844-1.328Zm0 0"/></symbol><symbol overflow="visible" id="p"><path style="stroke:none" d="m.96-8.285-.194-.48h1.632c-.003.09-.011.171-.03.242a.572.572 0 0 0-.028.18c-.004.027.004.046.02.058L4.91-1.88 6.328-5.14c.305-.699.55-1.351.746-1.953.188-.597.336-1.156.446-1.672h1.246c-.258 1.079-.7 2.36-1.325 3.836L5.313.06H4.237Zm0 0"/></symbol><symbol overflow="visible" id="q"><path style="stroke:none" d="M1.133-11.95h3.836c.664.005 1.226.09 1.695.262.461.176.844.418 1.149.727.296.316.523.676.671 1.082.149.41.235.848.262 1.305a4.474 4.474 0 0 1-.262 1.297c-.148.402-.367.75-.652 1.043-.289.296-.66.53-1.11.703-.456.172-1.007.258-1.66.258h-2.55V0h-1.38Zm1.379 1.266v4.22H4.91c.867.003 1.485-.184 1.852-.563.363-.375.562-.88.601-1.508a3.39 3.39 0 0 0-.18-.832 1.876 1.876 0 0 0-.433-.68 2.107 2.107 0 0 0-.738-.46c-.301-.114-.664-.173-1.082-.177Zm0 0"/></symbol><symbol overflow="visible" id="r"><path style="stroke:none" d="M1.207-8.766H2.59v4.891c0 .566.05 1.035.152 1.41.102.38.246.684.434.914.187.23.398.395.636.496.235.102.497.153.782.153.304-.024.597-.098.883-.23.28-.126.535-.31.761-.544.223-.234.399-.535.532-.91.125-.367.19-.816.19-1.348v-4.832h1.384v7.98c0 .298.031.56.094.786H7a4 4 0 0 1-.04-.297 1.497 1.497 0 0 1 0-.375l.02-.672A3.037 3.037 0 0 1 5.836-.199 3.178 3.178 0 0 1 4.25.21c-.453 0-.855-.078-1.215-.238a2.802 2.802 0 0 1-.973-.739c-.289-.332-.507-.754-.652-1.265-.152-.512-.226-1.125-.222-1.844Zm0 0"/></symbol><symbol overflow="visible" id="s"><path style="stroke:none" d="M1.152-12.754h1.59v.04c0 .062-.035.124-.105.179-.07.062-.106.129-.106.203v4.91c.281-.473.66-.851 1.145-1.133a2.865 2.865 0 0 1 1.472-.422c.485 0 .946.094 1.383.282.434.187.82.468 1.157.843.332.375.593.844.789 1.407.191.562.289 1.222.289 1.976 0 .793-.11 1.48-.32 2.063-.216.582-.493 1.066-.837 1.457-.347.39-.738.683-1.171.875A3.328 3.328 0 0 1 5.09.21a3.044 3.044 0 0 1-1.48-.363 3.154 3.154 0 0 1-1.118-1L2.02 0h-.868ZM3.543-1.379c.242.133.46.219.656.258.192.047.375.066.547.066.258 0 .54-.047.852-.14.304-.094.593-.262.863-.508.262-.238.48-.563.66-.973.172-.402.262-.918.262-1.547 0-1.152-.242-2.035-.719-2.648-.48-.606-1.172-.91-2.074-.914-.328.004-.672.117-1.031.344a1.956 1.956 0 0 0-.793.914c-.157.382-.235 1.007-.235 1.867 0 .539.012.988.04 1.355.023.368.074.676.156.926.074.25.18.453.308.602a1.6 1.6 0 0 0 .508.398Zm0 0"/></symbol><symbol overflow="visible" id="t"><path style="stroke:none" d="M2.418-8.766h4.66v8.344c0 .664-.09 1.227-.27 1.695-.18.465-.425.848-.738 1.145-.312.293-.68.512-1.101.66-.422.145-.88.23-1.364.258-1.128-.004-2.023-.41-2.683-1.227L1.82.922a.308.308 0 0 1 .106.187.515.515 0 0 0 .07.211.868.868 0 0 0 .23.262c.118.094.31.211.579.355a2.1 2.1 0 0 0 .906.211c.574-.003 1.05-.199 1.426-.586.37-.394.558-1.03.558-1.914v-7.3H2.418Zm3.258-3.527a1.005 1.005 0 0 1 1.41 0c.195.191.297.43.297.707a.924.924 0 0 1-.297.691.972.972 0 0 1-.7.29.953.953 0 0 1-.699-.29.91.91 0 0 1-.296-.69c0-.278.093-.517.285-.708Zm0 0"/></symbol><symbol overflow="visible" id="u"><path style="stroke:none" d="M.785-11.95H1.84l2.957 5.852 3.008-5.87h1.02V0H7.558v-9.016l-2.59 4.817h-.52L2.031-8.957V0H.785Zm0 0"/></symbol><symbol overflow="visible" id="v"><path style="stroke:none" d="M1.305 0v-8.766h1.379v1.555a3.923 3.923 0 0 1 1.285-1.285c.515-.32 1.047-.48 1.594-.48.382 0 .742.07 1.078.203.332.136.625.347.87.64.243.297.43.676.571 1.133.133.465.203 1.027.203 1.688V0H6.906v-5.273c-.004-.922-.16-1.567-.472-1.938-.317-.371-.7-.559-1.149-.559-.297 0-.601.067-.906.196-.313.129-.59.312-.836.547-.254.238-.461.52-.617.851a2.55 2.55 0 0 0-.242 1.133V0Zm0 0"/></symbol></defs><path style="fill-rule:nonzero;fill:#fff;fill-opacity:1;stroke-width:0;stroke-linecap:butt;stroke-linejoin:miter;stroke:#000;stroke-opacity:1;stroke-miterlimit:10" d="M0 0h27.5v15H0Zm0 0" transform="scale(20)"/><path style="fill:none;stroke-width:.2;stroke-linecap:butt;stroke-linejoin:miter;stroke:#000;stroke-opacity:1;stroke-miterlimit:10" d="M22.75 10.426V4.673" transform="scale(20)"/><path style="fill-rule:evenodd;fill:#000;fill-opacity:1;stroke-width:.2;stroke-linecap:butt;stroke-linejoin:miter;stroke:#000;stroke-opacity:1;stroke-miterlimit:10" d="m22.75 10.726-.2-.4.2.1.2-.1-.2.4ZM22.75 4.373l.2.4-.2-.1-.2.1.2-.4Zm0 0" transform="scale(20)"/><path style="fill:none;stroke-width:.2;stroke-linecap:butt;stroke-linejoin:miter;stroke:#000;stroke-opacity:1;stroke-miterlimit:10" d="M4.75 10.426V4.673" transform="scale(20)"/><path style="fill-rule:evenodd;fill:#000;fill-opacity:1;stroke-width:.2;stroke-linecap:butt;stroke-linejoin:miter;stroke:#000;stroke-opacity:1;stroke-miterlimit:10" d="m4.75 10.726-.2-.4.2.1.2-.1-.2.4ZM4.75 4.373l.2.4-.2-.1-.2.1.2-.4Zm0 0" transform="scale(20)"/><path style="fill:none;stroke-width:.1;stroke-linecap:butt;stroke-linejoin:miter;stroke:#757575;stroke-opacity:1;stroke-miterlimit:10" d="m21.31 4.15-5.845 6.494" transform="scale(20)"/><path style="fill-rule:evenodd;fill:#757575;fill-opacity:1;stroke-width:.1;stroke-linecap:butt;stroke-linejoin:miter;stroke:#757575;stroke-opacity:1;stroke-miterlimit:10" d="m15.265 10.867.118-.431.082.208.216.06-.416.163Zm0 0" transform="scale(20)"/><path style="fill:none;stroke-width:.1;stroke-linecap:butt;stroke-linejoin:miter;stroke:#757575;stroke-opacity:1;stroke-miterlimit:10" d="m15.19 4.15 5.845 6.494" transform="scale(20)"/><path style="fill-rule:evenodd;fill:#757575;fill-opacity:1;stroke-width:.1;stroke-linecap:butt;stroke-linejoin:miter;stroke:#757575;stroke-opacity:1;stroke-miterlimit:10" d="m21.235 10.867-.416-.164.216-.06.082-.207.118.43Zm0 0" transform="scale(20)"/><path style="fill:none;stroke-width:.1;stroke-linecap:butt;stroke-linejoin:miter;stroke:#757575;stroke-opacity:1;stroke-miterlimit:10" d="m12.5 3.5-6.116 7.142" transform="scale(20)"/><path style="fill-rule:evenodd;fill:#757575;fill-opacity:1;stroke-width:.1;stroke-linecap:butt;stroke-linejoin:miter;stroke:#757575;stroke-opacity:1;stroke-miterlimit:10" d="m6.189 10.87.108-.434.087.206.217.054-.412.173Zm0 0" transform="scale(20)"/><path style="fill:none;stroke-width:.1;stroke-linecap:butt;stroke-linejoin:miter;stroke:#757575;stroke-opacity:1;stroke-miterlimit:10" d="m19.87 4.15-11.88 6.6" transform="scale(20)"/><path style="fill-rule:evenodd;fill:#757575;fill-opacity:1;stroke-width:.1;stroke-linecap:butt;stroke-linejoin:miter;stroke:#757575;stroke-opacity:1;stroke-miterlimit:10" d="m7.727 10.896.253-.37.01.224.184.126-.447.02Zm0 0" transform="scale(20)"/><path style="fill:none;stroke-width:.1;stroke-linecap:butt;stroke-linejoin:miter;stroke:#757575;stroke-opacity:1;stroke-miterlimit:10" d="m6.19 4.15 5.845 6.494" transform="scale(20)"/><path style="fill-rule:evenodd;fill:#757575;fill-opacity:1;stroke-width:.1;stroke-linecap:butt;stroke-linejoin:miter;stroke:#757575;stroke-opacity:1;stroke-miterlimit:10" d="m12.235 10.867-.416-.164.216-.06.082-.207.118.43Zm0 0" transform="scale(20)"/><path style="fill:none;stroke-width:.1;stroke-linecap:butt;stroke-linejoin:miter;stroke:#757575;stroke-opacity:1;stroke-miterlimit:10" d="m7.63 4.15 11.88 6.6" transform="scale(20)"/><path style="fill-rule:evenodd;fill:#757575;fill-opacity:1;stroke-width:.1;stroke-linecap:butt;stroke-linejoin:miter;stroke:#757575;stroke-opacity:1;stroke-miterlimit:10" d="m19.773 10.896-.447-.02.185-.126.01-.224.252.37Zm0 0" transform="scale(20)"/><path style="fill:none;stroke-width:.2;stroke-linecap:butt;stroke-linejoin:miter;stroke:#000;stroke-opacity:1;stroke-miterlimit:10" d="M13.75 10.426V4.673" transform="scale(20)"/><path style="fill-rule:evenodd;fill:#000;fill-opacity:1;stroke-width:.2;stroke-linecap:butt;stroke-linejoin:miter;stroke:#000;stroke-opacity:1;stroke-miterlimit:10" d="m13.75 10.726-.2-.4.2.1.2-.1-.2.4ZM13.75 4.373l.2.4-.2-.1-.2.1.2-.4Zm0 0" transform="scale(20)"/><path style="stroke:none;fill-rule:evenodd;fill:#fdd1b2;fill-opacity:1" d="M26 20h138v61.977H26ZM26 26v-6c-3.313 0-6 2.688-6 6h6ZM164 26h6c0-3.313-2.688-6-6-6v6Zm0 0"/><path style="stroke:none;fill-rule:evenodd;fill:#fdd1b2;fill-opacity:1" d="M20 26h150v49.977H20ZM26 75.977h-6c0 3.316 2.688 6 6 6v-6ZM164 75.977v6c3.313 0 6-2.684 6-6h-6Zm0 0"/><path style="fill:none;stroke-width:.1;stroke-linecap:butt;stroke-linejoin:miter;stroke:#000;stroke-opacity:1;stroke-miterlimit:10" d="M1.3 1h6.9M1.3 4.099h6.9M1.3 1a.3.3 0 0 0-.3.3M8.5 1.3a.3.3 0 0 0-.3-.3M1 1.3v2.499M8.5 1.3v2.499M1 3.799a.3.3 0 0 0 .3.3M8.2 4.099a.3.3 0 0 0 .3-.3" transform="scale(20)"/><g style="fill:#000;fill-opacity:1"><use xlink:href="#a" x="56.641" y="43.5"/><use xlink:href="#b" x="66.23" y="43.5"/><use xlink:href="#b" x="75.82" y="43.5"/><use xlink:href="#c" x="85.41" y="43.5"/><use xlink:href="#d" x="95" y="43.5"/><use xlink:href="#c" x="104.59" y="43.5"/><use xlink:href="#e" x="114.18" y="43.5"/><use xlink:href="#f" x="123.77" y="43.5"/></g><g style="fill:#000;fill-opacity:1"><use xlink:href="#g" x="47.051" y="67.488"/><use xlink:href="#h" x="56.641" y="67.488"/><use xlink:href="#i" x="66.23" y="67.488"/><use xlink:href="#j" x="75.82" y="67.488"/><use xlink:href="#k" x="85.41" y="67.488"/><use xlink:href="#c" x="95" y="67.488"/><use xlink:href="#l" x="104.59" y="67.488"/><use xlink:href="#j" x="114.18" y="67.488"/><use xlink:href="#m" x="123.77" y="67.488"/><use xlink:href="#n" x="133.359" y="67.488"/></g><path style="stroke:none;fill-rule:evenodd;fill:#e9a4de;fill-opacity:1" d="M206 20h138v61.977H206ZM206 26v-6c-3.313 0-6 2.688-6 6h6ZM344 26h6c0-3.313-2.688-6-6-6v6Zm0 0"/><path style="stroke:none;fill-rule:evenodd;fill:#e9a4de;fill-opacity:1" d="M200 26h150v49.977H200ZM206 75.977h-6c0 3.316 2.688 6 6 6v-6ZM344 75.977v6c3.313 0 6-2.684 6-6h-6Zm0 0"/><path style="fill:none;stroke-width:.1;stroke-linecap:butt;stroke-linejoin:miter;stroke:#000;stroke-opacity:1;stroke-miterlimit:10" d="M10.3 1h6.9M10.3 4.099h6.9M10.3 1a.3.3 0 0 0-.3.3M17.5 1.3a.3.3 0 0 0-.3-.3M10 1.3v2.499M17.5 1.3v2.499M10 3.799a.3.3 0 0 0 .3.3M17.2 4.099a.3.3 0 0 0 .3-.3" transform="scale(20)"/><g style="fill:#000;fill-opacity:1"><use xlink:href="#o" x="231.855" y="43.5"/><use xlink:href="#h" x="241.445" y="43.5"/><use xlink:href="#p" x="251.035" y="43.5"/><use xlink:href="#h" x="260.625" y="43.5"/><use xlink:href="#f" x="270.215" y="43.5"/><use xlink:href="#j" x="279.805" y="43.5"/><use xlink:href="#i" x="289.395" y="43.5"/><use xlink:href="#h" x="298.984" y="43.5"/><use xlink:href="#m" x="308.574" y="43.5"/></g><g style="fill:#000;fill-opacity:1"><use xlink:href="#q" x="246.23" y="67.488"/><use xlink:href="#r" x="255.82" y="67.488"/><use xlink:href="#s" x="265.41" y="67.488"/><use xlink:href="#f" x="275" y="67.488"/><use xlink:href="#c" x="284.59" y="67.488"/><use xlink:href="#d" x="294.18" y="67.488"/></g><path style="stroke:none;fill-rule:evenodd;fill:#bacfcf;fill-opacity:1" d="M26 220h138v61.977H26ZM26 226v-6c-3.313 0-6 2.688-6 6h6ZM164 226h6c0-3.313-2.688-6-6-6v6Zm0 0"/><path style="stroke:none;fill-rule:evenodd;fill:#bacfcf;fill-opacity:1" d="M20 226h150v49.977H20ZM26 275.977h-6c0 3.316 2.688 6 6 6v-6ZM164 275.977v6c3.313 0 6-2.684 6-6h-6Zm0 0"/><path style="fill:none;stroke-width:.1;stroke-linecap:butt;stroke-linejoin:miter;stroke:#000;stroke-opacity:1;stroke-miterlimit:10" d="M1.3 11h6.9M1.3 14.099h6.9M1.3 11a.3.3 0 0 0-.3.3M8.5 11.3a.3.3 0 0 0-.3-.3M1 11.3v2.499M8.5 11.3v2.499M1 13.799a.3.3 0 0 0 .3.3M8.2 14.099a.3.3 0 0 0 .3-.3" transform="scale(20)"/><g style="fill:#000;fill-opacity:1"><use xlink:href="#q" x="61.445" y="243.5"/><use xlink:href="#m" x="71.035" y="243.5"/><use xlink:href="#j" x="80.625" y="243.5"/><use xlink:href="#t" x="90.215" y="243.5"/><use xlink:href="#h" x="99.805" y="243.5"/><use xlink:href="#d" x="109.395" y="243.5"/><use xlink:href="#l" x="118.984" y="243.5"/></g><g style="fill:#000;fill-opacity:1"><use xlink:href="#u" x="47.051" y="267.488"/><use xlink:href="#e" x="56.641" y="267.488"/><use xlink:href="#c" x="66.23" y="267.488"/><use xlink:href="#v" x="75.82" y="267.488"/><use xlink:href="#l" x="85.41" y="267.488"/><use xlink:href="#e" x="95" y="267.488"/><use xlink:href="#c" x="104.59" y="267.488"/><use xlink:href="#v" x="114.18" y="267.488"/><use xlink:href="#h" x="123.77" y="267.488"/><use xlink:href="#m" x="133.359" y="267.488"/></g><path style="stroke:none;fill-rule:evenodd;fill:#a1bbe5;fill-opacity:1" d="M206 220h138v61.977H206ZM206 226v-6c-3.313 0-6 2.688-6 6h6ZM344 226h6c0-3.313-2.688-6-6-6v6Zm0 0"/><path style="stroke:none;fill-rule:evenodd;fill:#a1bbe5;fill-opacity:1" d="M200 226h150v49.977H200ZM206 275.977h-6c0 3.316 2.688 6 6 6v-6ZM344 275.977v6c3.313 0 6-2.684 6-6h-6Zm0 0"/><path style="fill:none;stroke-width:.1;stroke-linecap:butt;stroke-linejoin:miter;stroke:#000;stroke-opacity:1;stroke-miterlimit:10" d="M10.3 11h6.9M10.3 14.099h6.9M10.3 11a.3.3 0 0 0-.3.3M17.5 11.3a.3.3 0 0 0-.3-.3M10 11.3v2.499M17.5 11.3v2.499M10 13.799a.3.3 0 0 0 .3.3M17.2 14.099a.3.3 0 0 0 .3-.3" transform="scale(20)"/><g style="fill:#000;fill-opacity:1"><use xlink:href="#o" x="231.855" y="243.5"/><use xlink:href="#h" x="241.445" y="243.5"/><use xlink:href="#p" x="251.035" y="243.5"/><use xlink:href="#h" x="260.625" y="243.5"/><use xlink:href="#f" x="270.215" y="243.5"/><use xlink:href="#j" x="279.805" y="243.5"/><use xlink:href="#i" x="289.395" y="243.5"/><use xlink:href="#h" x="298.984" y="243.5"/><use xlink:href="#m" x="308.574" y="243.5"/></g><g style="fill:#000;fill-opacity:1"><use xlink:href="#q" x="241.445" y="267.488"/><use xlink:href="#m" x="251.035" y="267.488"/><use xlink:href="#c" x="260.625" y="267.488"/><use xlink:href="#p" x="270.215" y="267.488"/><use xlink:href="#e" x="279.805" y="267.488"/><use xlink:href="#l" x="289.395" y="267.488"/><use xlink:href="#h" x="298.984" y="267.488"/></g><path style="stroke:none;fill-rule:evenodd;fill:#e9a4de;fill-opacity:1" d="M386 20h138v61.977H386ZM386 26v-6c-3.313 0-6 2.688-6 6h6ZM524 26h6c0-3.313-2.688-6-6-6v6Zm0 0"/><path style="stroke:none;fill-rule:evenodd;fill:#e9a4de;fill-opacity:1" d="M380 26h150v49.977H380ZM386 75.977h-6c0 3.316 2.688 6 6 6v-6ZM524 75.977v6c3.313 0 6-2.684 6-6h-6Zm0 0"/><path style="fill:none;stroke-width:.1;stroke-linecap:butt;stroke-linejoin:miter;stroke:#000;stroke-opacity:1;stroke-miterlimit:10" d="M19.3 1h6.9M19.3 4.099h6.9M19.3 1a.3.3 0 0 0-.3.3M26.5 1.3a.3.3 0 0 0-.3-.3M19 1.3v2.499M26.5 1.3v2.499M19 3.799a.3.3 0 0 0 .3.3M26.2 4.099a.3.3 0 0 0 .3-.3" transform="scale(20)"/><g style="fill:#000;fill-opacity:1"><use xlink:href="#o" x="411.855" y="43.5"/><use xlink:href="#h" x="421.445" y="43.5"/><use xlink:href="#p" x="431.035" y="43.5"/><use xlink:href="#h" x="440.625" y="43.5"/><use xlink:href="#f" x="450.215" y="43.5"/><use xlink:href="#j" x="459.805" y="43.5"/><use xlink:href="#i" x="469.395" y="43.5"/><use xlink:href="#h" x="478.984" y="43.5"/><use xlink:href="#m" x="488.574" y="43.5"/></g><g style="fill:#000;fill-opacity:1"><use xlink:href="#q" x="426.23" y="67.488"/><use xlink:href="#r" x="435.82" y="67.488"/><use xlink:href="#s" x="445.41" y="67.488"/><use xlink:href="#f" x="455" y="67.488"/><use xlink:href="#c" x="464.59" y="67.488"/><use xlink:href="#d" x="474.18" y="67.488"/></g><path style="stroke:none;fill-rule:evenodd;fill:#a1bbe5;fill-opacity:1" d="M386 220h138v61.977H386ZM386 226v-6c-3.313 0-6 2.688-6 6h6ZM524 226h6c0-3.313-2.688-6-6-6v6Zm0 0"/><path style="stroke:none;fill-rule:evenodd;fill:#a1bbe5;fill-opacity:1" d="M380 226h150v49.977H380ZM386 275.977h-6c0 3.316 2.688 6 6 6v-6ZM524 275.977v6c3.313 0 6-2.684 6-6h-6Zm0 0"/><path style="fill:none;stroke-width:.1;stroke-linecap:butt;stroke-linejoin:miter;stroke:#000;stroke-opacity:1;stroke-miterlimit:10" d="M19.3 11h6.9M19.3 14.099h6.9M19.3 11a.3.3 0 0 0-.3.3M26.5 11.3a.3.3 0 0 0-.3-.3M19 11.3v2.499M26.5 11.3v2.499M19 13.799a.3.3 0 0 0 .3.3M26.2 14.099a.3.3 0 0 0 .3-.3" transform="scale(20)"/><g style="fill:#000;fill-opacity:1"><use xlink:href="#o" x="411.855" y="243.5"/><use xlink:href="#h" x="421.445" y="243.5"/><use xlink:href="#p" x="431.035" y="243.5"/><use xlink:href="#h" x="440.625" y="243.5"/><use xlink:href="#f" x="450.215" y="243.5"/><use xlink:href="#j" x="459.805" y="243.5"/><use xlink:href="#i" x="469.395" y="243.5"/><use xlink:href="#h" x="478.984" y="243.5"/><use xlink:href="#m" x="488.574" y="243.5"/></g><g style="fill:#000;fill-opacity:1"><use xlink:href="#q" x="421.445" y="267.488"/><use xlink:href="#m" x="431.035" y="267.488"/><use xlink:href="#c" x="440.625" y="267.488"/><use xlink:href="#p" x="450.215" y="267.488"/><use xlink:href="#e" x="459.805" y="267.488"/><use xlink:href="#l" x="469.395" y="267.488"/><use xlink:href="#h" x="478.984" y="267.488"/></g></svg>