<svg xmlns="http://www.w3.org/2000/svg" xmlns:xlink="http://www.w3.org/1999/xlink" width="2560" height="700pt" viewBox="0 0 1920 700"><defs><symbol overflow="visible" id="a"><path style="stroke:none" d="m9.547-29.402 3.96-.66a2.55 2.55 0 0 1-.128.812 5.453 5.453 0 0 0-.176.559l-.61 5.484h7.618v2.945h-7.617c-.309 3.032-.461 5.875-.457 8.532a65.325 65.325 0 0 0 .101 4.136c.067 1.125.246 2.012.535 2.657.29.648.704 1.152 1.25 1.507.54.36 1.274.535 2.196.535 1.562 0 3.297-.71 5.207-2.132l1.12 2.894c-2.335 1.727-4.741 2.59-7.21 2.59-2.441 0-4.219-.738-5.332-2.215C8.883-3.234 8.375-5.633 8.48-8.96c-.003-1.219.032-2.781.102-4.684.066-1.898.203-4.105.406-6.617H3.555v-2.945H9.14Zm0 0"/></symbol><symbol overflow="visible" id="b"><path style="stroke:none" d="M12.898-23.715a9.984 9.984 0 0 1 4.036.84 9.758 9.758 0 0 1 3.328 2.41c.945 1.05 1.695 2.328 2.258 3.836.554 1.508.835 3.192.84 5.05-.005 1.9-.274 3.595-.813 5.079-.543 1.492-1.29 2.77-2.235 3.836a9.525 9.525 0 0 1-3.351 2.437C15.67.332 14.3.61 12.848.61a9.761 9.761 0 0 1-4.192-.914A10.84 10.84 0 0 1 5.23-2.816C4.246-3.883 3.47-5.16 2.895-6.652c-.579-1.485-.868-3.094-.864-4.825a13.252 13.252 0 0 1 .887-4.875c.594-1.52 1.387-2.812 2.387-3.882a11.482 11.482 0 0 1 3.48-2.54 9.541 9.541 0 0 1 4.113-.94Zm6.805 12.238c-.004-1.453-.2-2.746-.586-3.882-.39-1.133-.906-2.09-1.547-2.871-.644-.774-1.383-1.368-2.21-1.778a5.991 5.991 0 0 0-2.614-.61 5.97 5.97 0 0 0-2.617.61c-.832.41-1.559 1.004-2.184 1.778-.625.78-1.125 1.718-1.496 2.82-.375 1.101-.562 2.348-.558 3.73-.004 1.36.183 2.594.558 3.707.371 1.121.871 2.086 1.496 2.895.625.816 1.36 1.441 2.211 1.879a5.68 5.68 0 0 0 2.692.66 6.128 6.128 0 0 0 2.664-.582 6.18 6.18 0 0 0 2.183-1.727c.625-.757 1.114-1.699 1.473-2.82.352-1.113.531-2.383.535-3.809Zm0 0"/></symbol><symbol overflow="visible" id="c"><path style="stroke:none" d="M3.047-23.207h3.605v3.555a8.524 8.524 0 0 1 3.141-2.97c1.309-.726 2.629-1.089 3.96-1.093 1.29.004 2.524.25 3.704.738a8.911 8.911 0 0 1 3.117 2.207c.899.985 1.613 2.22 2.145 3.707.523 1.493.789 3.254.793 5.282-.004 2.035-.285 3.828-.844 5.383-.566 1.558-1.309 2.855-2.223 3.886-.922 1.035-1.968 1.813-3.14 2.336-1.18.524-2.38.785-3.602.785-1.433 0-2.762-.32-3.984-.964a8.126 8.126 0 0 1-3.016-2.692V8.48H3.047ZM6.652-9.711c.063 2.496.645 4.281 1.739 5.356 1.093 1.078 2.441 1.613 4.046 1.613.848 0 1.7-.133 2.555-.403.852-.27 1.637-.734 2.356-1.39.715-.656 1.285-1.52 1.715-2.598.421-1.074.636-2.422.64-4.043-.004-2.957-.629-5.254-1.871-6.89-1.25-1.63-2.996-2.48-5.242-2.551a6.877 6.877 0 0 0-2.102.355c-.718.235-1.36.64-1.918 1.211-.566.578-1.027 1.344-1.383 2.297-.359.961-.539 2.145-.535 3.559Zm0 0"/></symbol><symbol overflow="visible" id="d"><path style="stroke:none" d="M5.383-23.207h9.293v20.262h5.433V0H5.08v-2.945h5.94v-17.317H5.384Zm5.687-9.344a2.511 2.511 0 0 1 1.828-.761c.707.003 1.325.265 1.852.789.523.527.79 1.144.79 1.851 0 .715-.267 1.324-.79 1.828-.527.512-1.145.766-1.852.762a2.451 2.451 0 0 1-1.828-.762 2.451 2.451 0 0 1-.761-1.828c-.004-.742.25-1.367.761-1.879Zm0 0"/></symbol><symbol overflow="visible" id="e"><path style="stroke:none" d="m23.207-19.348-2.59 2.996c-.172-.097-.25-.207-.23-.328.015-.117 0-.277-.051-.484-.055-.2-.184-.453-.387-.762-.207-.3-.613-.707-1.222-1.219-1.165-.945-2.75-1.421-4.758-1.421-.992 0-1.942.203-2.84.609-.906.406-1.7.988-2.379 1.746-.688.758-1.23 1.672-1.637 2.734-.41 1.067-.617 2.254-.613 3.57-.004 1.317.203 2.532.613 3.645.407 1.117.969 2.082 1.688 2.887a7.54 7.54 0 0 0 2.558 1.898c.989.461 2.079.688 3.274.684 2.347.004 4.379-.926 6.086-2.793l2.133 2.488C20.547-.66 17.719.555 14.372.56 12.71.555 11.18.254 9.772-.355a10.968 10.968 0 0 1-3.656-2.54c-1.031-1.082-1.836-2.359-2.41-3.832-.578-1.472-.867-3.09-.863-4.851-.004-1.727.285-3.332.863-4.824.574-1.485 1.379-2.762 2.41-3.832 1.031-1.063 2.266-1.903 3.707-2.516 1.438-.605 3.004-.91 4.7-.914 1.824.004 3.492.387 5 1.144a9.893 9.893 0 0 1 3.683 3.172Zm0 0"/></symbol><symbol overflow="visible" id="s"><path style="stroke:none" d="M1.93 0v-23.207H5.28v2.285a6.536 6.536 0 0 1 2.082-2.055c.844-.523 1.742-.789 2.692-.789.98 0 1.851.325 2.613.965a4.28 4.28 0 0 1 1.45 2.438c.437-1.012 1.132-1.832 2.081-2.461a5.504 5.504 0 0 1 3.098-.942c1.586 0 2.754.57 3.504 1.703.742 1.137 1.082 2.547 1.015 4.239V0h-3.351v-16.453c-.004-1.047-.055-1.875-.152-2.488-.106-.606-.274-1.07-.508-1.395-.239-.32-.477-.523-.711-.61-.239-.081-.543-.124-.914-.128-.442.004-.883.183-1.32.535-.446.36-.833.805-1.169 1.344a7.29 7.29 0 0 0-.812 1.855 6.867 6.867 0 0 0-.305 2.004V0h-3.402v-16.148c-.004-1.93-.184-3.215-.535-3.86-.36-.64-.977-.96-1.852-.965-.816.004-1.601.485-2.363 1.45-.762.964-1.145 2.312-1.14 4.035V0Zm0 0"/></symbol><symbol overflow="visible" id="t"><path style="stroke:none" d="M4.621-20.465c2.063-2.164 4.82-3.246 8.277-3.25 2.84.004 5.082.723 6.727 2.16 1.64 1.442 2.465 3.836 2.465 7.184V0h-3.453v-2.54C16.164-.472 13.387.556 10.309.56 9.086.555 7.996.37 7.03 0c-.965-.371-1.785-.86-2.46-1.473A6.17 6.17 0 0 1 3.02-3.555c-.36-.777-.536-1.554-.532-2.336-.004-2.332 1.004-4.18 3.02-5.535 2.015-1.351 4.918-2.094 8.71-2.234h4.368v-.871c0-2.317-.484-3.934-1.45-4.856-.964-.918-2.46-1.379-4.491-1.383-2.508.004-4.59.883-6.247 2.641Zm14.117 9.598h-.863c-.477.004-.926-.004-1.348-.024-.425-.015-.84-.023-1.242-.027-1.863.004-3.387.129-4.57.383-1.188.254-2.117.601-2.793 1.039-.68.441-1.149.941-1.399 1.5a4.185 4.185 0 0 0-.378 1.8c-.004 1.087.468 2.016 1.421 2.794.946.78 2.114 1.172 3.504 1.168 1.012.004 1.926-.157 2.742-.48.81-.321 1.52-.712 2.133-1.169.606-.457 1.098-.93 1.473-1.422.371-.488.64-.922.812-1.297.336-.675.508-1.59.508-2.742Zm0 0"/></symbol><symbol overflow="visible" id="u"><path style="stroke:none" d="m21.938-20.11-2.133 3.2c-.172-.031-.258-.164-.258-.406 0-.235-.035-.407-.102-.508-.617-.778-1.488-1.496-2.613-2.156-1.129-.66-2.41-.989-3.84-.993a7.72 7.72 0 0 0-1.87.23 6.06 6.06 0 0 0-1.587.634 3.213 3.213 0 0 0-1.101 1.043 2.543 2.543 0 0 0-.41 1.445c-.004.41.097.773.304 1.094.203.324.527.636.973.937.437.309 1.062.613 1.867.914.8.309 1.848.649 3.145 1.016 2.93.781 5 1.703 6.214 2.77 1.207 1.066 1.813 2.378 1.817 3.933a6.656 6.656 0 0 1-.66 2.894c-.442.918-1.086 1.711-1.93 2.387-.852.68-1.867 1.215-3.047 1.602-1.187.387-2.523.578-4.012.582-3.894-.004-7.16-1.219-9.8-3.656l2.082-3.657c.097.11.168.274.203.496.03.227.148.497.36.805.202.316.577.672 1.124 1.066.543.403 1.379.844 2.508 1.325.508.246 1.09.418 1.738.52.649.105 1.297.155 1.945.155.68 0 1.368-.082 2.07-.253a7.201 7.201 0 0 0 1.895-.743 4.337 4.337 0 0 0 1.356-1.175c.34-.457.508-.977.512-1.559-.004-.883-.41-1.633-1.227-2.246-.82-.613-2.32-1.242-4.5-1.895-1.5-.437-2.492-.746-2.969-.918-1.23-.476-2.117-.89-2.66-1.25a7.284 7.284 0 0 1-1.484-1.273 5.906 5.906 0 0 1-1.075-1.68 5.043 5.043 0 0 1-.406-2.066c-.004-.813.219-1.594.66-2.344.438-.746 1.055-1.406 1.852-1.988.797-.574 1.742-1.043 2.844-1.402 1.097-.356 2.293-.536 3.582-.536 3.55 0 6.43 1.22 8.633 3.657Zm0 0"/></symbol><symbol overflow="visible" id="v"><path style="stroke:none" d="M13.152-23.766c1.215 0 2.399.223 3.555.66a8.339 8.339 0 0 1 3.02 2.008c.863.899 1.558 2.04 2.082 3.426.523 1.39.785 3.035.789 4.926-.004.273-.012.55-.028.84-.015.289-.043.57-.074.836H5.992c.067 1.629.344 2.992.836 4.09.488 1.101 1.11 1.988 1.856 2.664a6.516 6.516 0 0 0 2.488 1.449c.91.289 1.824.43 2.742.43 2.402 0 4.399-.864 5.992-2.59l2.032 1.98C19.973-.68 17.261.503 13.813.508 12.117.504 10.57.246 9.163-.277 7.758-.801 6.563-1.574 5.586-2.59 4.602-3.605 3.84-4.863 3.3-6.37c-.547-1.504-.817-3.223-.813-5.156-.004-1.961.274-3.707.836-5.23.555-1.524 1.317-2.802 2.285-3.833a9.798 9.798 0 0 1 3.38-2.363c1.284-.54 2.671-.813 4.163-.813Zm-7.007 9.75H18.89c0-.132.007-.257.023-.375a4.03 4.03 0 0 0 .027-.425 6.06 6.06 0 0 0-.484-2.375 6.355 6.355 0 0 0-1.293-1.954 6.575 6.575 0 0 0-1.906-1.328 5.679 5.679 0 0 0-2.36-.5c-1.593.004-3.03.563-4.316 1.676-1.289 1.121-2.102 2.879-2.437 5.281Zm0 0"/></symbol><symbol overflow="visible" id="w"><path style="stroke:none" d="M5.027-23.207h3.758l-.101 4.469a7.694 7.694 0 0 1 3.386-3.73 10.041 10.041 0 0 1 4.973-1.298c2.512 0 4.582.848 6.215 2.54l-1.676 3.503a22.31 22.31 0 0 0-1.02-1.27 5.56 5.56 0 0 0-.996-.862 4.904 4.904 0 0 0-1.171-.56c-.43-.132-.946-.198-1.555-.202a6.688 6.688 0 0 0-3.164.789 8.699 8.699 0 0 0-2.574 2.082 10.563 10.563 0 0 0-1.758 2.969 9.448 9.448 0 0 0-.66 3.504V.05H5.027Zm0 0"/></symbol><symbol overflow="visible" id="f"><path style="stroke:none" d="M23.363 0 9.7-35.707h-.222c.253 2.828.382 6.191.386 10.086V0H5.54v-40.281h7.05L25.349-7.055h.218L38.434-40.28h7V0H40.75v-25.953c-.004-2.973.125-6.207.383-9.7h-.219L27.137 0Zm0 0"/></symbol><symbol overflow="visible" id="g"><path style="stroke:none" d="M17.605.55C13.141.55 9.617-.808 7.04-3.526c-2.586-2.72-3.875-6.493-3.871-11.325-.004-4.863 1.195-8.73 3.594-11.597 2.398-2.863 5.617-4.293 9.66-4.297 3.781.004 6.773 1.246 8.98 3.734 2.2 2.489 3.301 5.774 3.305 9.848v2.89h-20.8c.09 3.547.988 6.239 2.687 8.075 1.695 1.836 4.086 2.754 7.176 2.754 3.25 0 6.464-.68 9.644-2.04v4.079c-1.621.699-3.152 1.199-4.59 1.5-1.445.304-3.183.457-5.219.457Zm-1.238-27.468c-2.43 0-4.363.793-5.8 2.371-1.446 1.582-2.294 3.766-2.551 6.555h15.789c-.004-2.88-.649-5.086-1.93-6.625-1.29-1.531-3.125-2.301-5.508-2.301Zm0 0"/></symbol><symbol overflow="visible" id="h"><path style="stroke:none" d="M18.625-30.746c1.34.004 2.543.113 3.61.328l-.633 4.242c-1.254-.27-2.356-.406-3.309-.41-2.445.004-4.535.996-6.27 2.977-1.734 1.984-2.601 4.453-2.601 7.41V0H4.848v-30.195h3.777l.523 5.59h.22c1.116-1.961 2.464-3.477 4.046-4.543a9.17 9.17 0 0 1 5.211-1.598Zm0 0"/></symbol><symbol overflow="visible" id="i"><path style="stroke:none" d="M29.563-30.195v2.89l-5.594.664c.511.645.972 1.485 1.379 2.52.402 1.039.601 2.21.605 3.512-.004 2.96-1.012 5.32-3.031 7.082-2.024 1.765-4.797 2.648-8.32 2.644a13.41 13.41 0 0 1-2.536-.219c-1.949 1.032-2.921 2.325-2.918 3.883-.003.828.336 1.442 1.02 1.832.676.399 1.844.594 3.496.594h5.348c3.265 0 5.777.691 7.531 2.066 1.754 1.383 2.629 3.38 2.633 6.004-.004 3.34-1.344 5.891-4.024 7.645-2.683 1.754-6.593 2.629-11.734 2.633-3.953-.004-7-.739-9.137-2.203-2.14-1.473-3.21-3.547-3.207-6.227-.004-1.84.586-3.43 1.762-4.766 1.176-1.343 2.828-2.25 4.96-2.73-.773-.348-1.421-.89-1.94-1.625-.528-.734-.79-1.586-.786-2.563-.004-1.097.29-2.062.88-2.89.585-.824 1.515-1.625 2.784-2.399-1.566-.64-2.84-1.73-3.816-3.277-.984-1.54-1.473-3.305-1.473-5.29 0-3.304.989-5.85 2.973-7.644 1.98-1.789 4.793-2.683 8.434-2.687 1.574.004 2.996.187 4.27.55ZM5.483 5.07c0 1.633.688 2.875 2.067 3.72 1.375.843 3.347 1.265 5.922 1.265 3.836 0 6.68-.575 8.527-1.723 1.844-1.148 2.766-2.707 2.77-4.668-.004-1.64-.508-2.773-1.516-3.402-1.012-.633-2.914-.946-5.703-.95h-5.485C9.988-.683 8.375-.19 7.22.798 6.062 1.789 5.484 3.21 5.484 5.07Zm2.477-25.597c-.004 2.117.594 3.715 1.789 4.797 1.195 1.085 2.855 1.628 4.988 1.625 4.461.003 6.696-2.165 6.696-6.504 0-4.532-2.262-6.801-6.778-6.805-2.152.004-3.804.582-4.96 1.738-1.16 1.156-1.739 2.875-1.735 5.149Zm0 0"/></symbol><symbol overflow="visible" id="j"><path style="stroke:none" d="M2.313-13.031v-4.188h13.53v4.188Zm0 0"/></symbol><symbol overflow="visible" id="k"><path style="stroke:none" d="M5.54-40.281h11.378c5.34.004 9.207.804 11.598 2.398 2.386 1.602 3.582 4.125 3.582 7.574 0 2.391-.668 4.36-2 5.91-1.332 1.555-3.274 2.563-5.825 3.02v.274c6.114 1.046 9.172 4.261 9.176 9.644-.004 3.602-1.222 6.414-3.652 8.43C27.359-1.008 23.957 0 19.59 0H5.54Zm4.683 17.25h7.714c3.301.004 5.68-.516 7.133-1.559 1.45-1.035 2.176-2.785 2.18-5.25-.004-2.254-.813-3.883-2.426-4.887-1.62-1-4.191-1.5-7.715-1.503h-6.886Zm0 3.965v15.07h8.402c3.246 0 5.691-.629 7.34-1.887 1.64-1.258 2.465-3.226 2.469-5.91-.004-2.496-.844-4.332-2.524-5.508-1.68-1.176-4.238-1.765-7.672-1.765Zm0 0"/></symbol><symbol overflow="visible" id="l"><path style="stroke:none" d="m23.418 0-.91-4.297h-.219c-1.508 1.895-3.012 3.176-4.504 3.844C16.285.219 14.418.55 12.18.55c-2.996 0-5.344-.77-7.043-2.313C3.437-3.305 2.59-5.5 2.59-8.348c0-6.097 4.875-9.293 14.629-9.59l5.125-.164v-1.875c-.004-2.363-.512-4.113-1.532-5.246-1.019-1.129-2.648-1.695-4.886-1.695-2.52 0-5.367.773-8.543 2.313L5.98-28.102c1.485-.808 3.114-1.441 4.887-1.902a21.246 21.246 0 0 1 5.332-.687c3.598 0 6.266.8 8.004 2.398 1.735 1.598 2.602 4.16 2.606 7.684V0ZM13.086-3.223c2.844 0 5.082-.777 6.71-2.34 1.622-1.558 2.434-3.746 2.438-6.558v-2.73l-4.574.195c-3.637.133-6.262.695-7.867 1.695-1.61 1-2.41 2.559-2.41 4.668 0 1.656.5 2.914 1.5 3.777 1 .864 2.398 1.293 4.203 1.293Zm0 0"/></symbol><symbol overflow="visible" id="m"><path style="stroke:none" d="M24.328-8.238c0 2.812-1.047 4.98-3.14 6.504C19.093-.211 16.151.55 12.37.55c-4.008 0-7.129-.633-9.367-1.903v-4.242a22.329 22.329 0 0 0 4.668 1.739c1.66.421 3.266.632 4.808.632 2.387 0 4.223-.379 5.508-1.144 1.285-.758 1.926-1.922 1.93-3.485-.004-1.175-.512-2.18-1.527-3.015-1.02-.832-3.008-1.82-5.965-2.965-2.813-1.043-4.809-1.957-5.992-2.738-1.188-.782-2.07-1.668-2.645-2.66-.582-.993-.871-2.176-.867-3.555-.004-2.457.996-4.399 3-5.824 2-1.422 4.746-2.133 8.238-2.137 3.25.004 6.43.664 9.535 1.98l-1.625 3.723c-3.035-1.25-5.78-1.875-8.238-1.875-2.172 0-3.809.34-4.906 1.02-1.106.68-1.656 1.617-1.653 2.808-.003.813.204 1.504.618 2.07.41.57 1.078 1.11 2 1.625.918.516 2.68 1.262 5.289 2.23 3.582 1.31 6.004 2.622 7.261 3.942 1.258 1.325 1.887 2.985 1.887 4.985Zm0 0"/></symbol><symbol overflow="visible" id="n"><path style="stroke:none" d="M9.422 0H4.848v-30.195h4.574ZM4.465-38.379c0-1.047.254-1.812.77-2.3.511-.485 1.156-.727 1.93-.731.73.004 1.362.25 1.897.746.532.496.797 1.258.801 2.285-.004 1.031-.27 1.8-.8 2.3a2.662 2.662 0 0 1-1.899.759c-.773 0-1.418-.25-1.93-.758-.515-.5-.77-1.27-.77-2.3Zm0 0"/></symbol><symbol overflow="visible" id="o"><path style="stroke:none" d="M22.785-36.672c-4.43.004-7.926 1.477-10.484 4.422-2.567 2.95-3.848 6.988-3.844 12.11-.004 5.273 1.234 9.343 3.707 12.218 2.469 2.875 5.988 4.313 10.566 4.313 2.805 0 6.012-.504 9.614-1.516v4.105C29.55.027 26.105.55 22.016.55 16.078.55 11.5-1.245 8.277-4.847c-3.222-3.597-4.832-8.714-4.832-15.347 0-4.149.774-7.785 2.328-10.91 1.547-3.122 3.79-5.528 6.723-7.22 2.926-1.687 6.375-2.53 10.344-2.534 4.223.004 7.914.773 11.078 2.316l-1.984 4.02c-3.051-1.43-6.102-2.145-9.149-2.149Zm0 0"/></symbol><symbol overflow="visible" id="p"><path style="stroke:none" d="M30.914-15.125c0 4.926-1.242 8.77-3.723 11.531C24.711-.828 21.285.551 16.918.551c-2.703 0-5.098-.633-7.191-1.899C7.633-2.613 6.016-4.43 4.875-6.805c-1.14-2.367-1.71-5.14-1.707-8.32-.004-4.918 1.227-8.754 3.691-11.5 2.457-2.746 5.875-4.117 10.25-4.121 4.223.004 7.578 1.406 10.07 4.215 2.489 2.812 3.735 6.617 3.735 11.406Zm-23.008 0c-.004 3.86.77 6.797 2.313 8.816 1.543 2.024 3.812 3.036 6.808 3.032 2.993.004 5.266-1.004 6.82-3.016 1.551-2.012 2.325-4.953 2.329-8.832-.004-3.836-.778-6.754-2.328-8.746-1.555-1.992-3.848-2.988-6.875-2.992-2.996.004-5.258.988-6.782 2.949-1.527 1.969-2.289 4.898-2.285 8.789Zm0 0"/></symbol><symbol overflow="visible" id="q"><path style="stroke:none" d="M43.34 0v-19.645c-.004-2.402-.52-4.207-1.543-5.414-1.031-1.199-2.629-1.8-4.797-1.804-2.848.004-4.95.82-6.309 2.453-1.359 1.637-2.039 4.152-2.039 7.547V0h-4.57v-19.645c0-2.402-.516-4.207-1.543-5.414-1.031-1.199-2.64-1.8-4.824-1.804-2.867.004-4.965.863-6.297 2.578-1.332 1.719-1.996 4.531-1.996 8.441V0H4.848v-30.195H8.57l.742 4.133h.22c.863-1.47 2.081-2.618 3.652-3.446 1.57-.824 3.328-1.234 5.277-1.238 4.715.004 7.8 1.71 9.258 5.125h.218c.899-1.578 2.2-2.828 3.91-3.746 1.704-.918 3.653-1.375 5.844-1.38 3.414.005 5.973.88 7.672 2.634 1.7 1.754 2.547 4.558 2.551 8.414V0Zm0 0"/></symbol><symbol overflow="visible" id="r"><path style="stroke:none" d="M14.602-3.223c.808 0 1.59-.058 2.343-.18a14.96 14.96 0 0 0 1.79-.37v3.496c-.5.242-1.231.437-2.192.593-.969.157-1.836.235-2.602.235C8.098.55 5.18-2.523 5.18-8.68v-17.962H.855v-2.207l4.325-1.898 1.93-6.45h2.644v7h8.762v3.555H9.754v17.77c-.004 1.82.426 3.219 1.293 4.187.86.977 2.047 1.461 3.555 1.461Zm0 0"/></symbol><symbol overflow="visible" id="x"><path style="stroke:none" d="M22.457-27.188c-.004-.44-.059-.769-.168-.992a8.673 8.673 0 0 0-2.937-2.906c-1.207-.715-2.485-1.074-3.836-1.078a7.088 7.088 0 0 0-3.61.988c-1.129.66-2.129 1.621-2.992 2.88-.867 1.265-1.543 2.796-2.031 4.597-.488 1.808-.73 3.86-.73 6.152 0 2.223.242 4.246.73 6.067.488 1.828 1.176 3.386 2.058 4.683.883 1.297 1.918 2.305 3.106 3.02a7.239 7.239 0 0 0 3.808 1.07c1.391 0 2.735-.395 4.036-1.188 1.293-.789 2.336-1.859 3.132-3.214l2.934 1.918a10.945 10.945 0 0 1-2.035 2.484A13.528 13.528 0 0 1 21.41-.902c-.883.492-1.765.855-2.648 1.097-.883.242-1.778.367-2.68.367-2.035 0-3.832-.347-5.39-1.042-1.563-.696-2.993-1.774-4.29-3.243-1.3-1.465-2.308-3.328-3.02-5.586-.718-2.254-1.073-4.945-1.07-8.07-.003-3.46.41-6.348 1.243-8.66.824-2.313 1.914-4.164 3.273-5.559 1.352-1.39 2.793-2.379 4.317-2.96 1.523-.583 3-.872 4.43-.876 1.163.004 2.3.172 3.413.508 1.106.34 2.14.809 3.102 1.41.96.602 1.816 1.328 2.566 2.172.75.852 1.352 1.801 1.809 2.848l-3.781 1.863c-.157-.105-.23-.293-.227-.555Zm0 0"/></symbol><symbol overflow="visible" id="y"><path style="stroke:none" d="M3.047-35.152h8.183c3.004.004 5.344.418 7.024 1.242 1.672.828 3.094 2.012 4.258 3.555 1.164 1.543 2.027 3.406 2.597 5.585.563 2.184.848 4.645.848 7.391 0 2.711-.34 5.14-1.016 7.281-.68 2.149-1.609 3.98-2.793 5.5-1.187 1.528-2.722 2.684-4.601 3.47C15.664-.34 13.332.05 10.55.054H3.047ZM6.77-31.88v28.832h3.585c3.993 0 6.915-1.215 8.766-3.644 1.844-2.43 2.77-5.926 2.774-10.489-.043-4.597-.895-8.195-2.551-10.797-1.664-2.597-4.453-3.898-8.371-3.902Zm0 0"/></symbol><symbol overflow="visible" id="z"><path style="stroke:none" d="M2.707-35.152h9.988c2.028.004 3.785.199 5.274.593 1.484.395 2.68.989 3.586 1.774.902.789 1.597 1.7 2.086 2.73.488 1.035.734 2.168.734 3.407 0 1.652-.453 3.21-1.355 4.675-.903 1.465-2.18 2.5-3.836 3.098a9.748 9.748 0 0 1 2.68 1.441 11.68 11.68 0 0 1 2.116 2.118 8.884 8.884 0 0 1 1.352 2.574c.297.926.45 1.875.453 2.851-.004 2.977-1.058 5.371-3.16 7.18C20.515-.902 17.187 0 12.641 0H2.707Zm3.895 3.273v11.285h5.484c1.566.004 2.855-.136 3.863-.426 1.008-.28 1.817-.671 2.434-1.164a4.661 4.661 0 0 0 1.37-1.785 7.47 7.47 0 0 0 .56-2.242 7.668 7.668 0 0 0-.532-2.21c-.281-.677-.722-1.27-1.316-1.786-.602-.508-1.363-.914-2.293-1.219-.934-.297-2.09-.449-3.469-.453Zm0 14.555v13.883h6.765c3.028.003 5.14-.63 6.336-1.899 1.192-1.262 1.863-2.86 2.02-4.789-.078-1.055-.285-2.016-.625-2.887a6.33 6.33 0 0 0-1.563-2.293c-.703-.66-1.652-1.16-2.844-1.504-1.195-.335-2.625-.507-4.289-.511Zm0 0"/></symbol><symbol overflow="visible" id="A"><path style="stroke:none" d="m.875 0 12.414-35.773h.45L27.28 0H23.22l-3.895-10.27H8.152L4.77 0Zm17.547-13.316-4.965-13.43-4.512 13.43Zm0 0"/></symbol><symbol overflow="visible" id="B"><path style="stroke:none" d="M3.328-35.21h21.555v3.5H7.055v11.565H21.78v3.727H7.055V-3.5h17.66V0H3.328Zm0 0"/></symbol><symbol overflow="visible" id="C"><path style="stroke:none" d="M4.402-35.21h20.254v3.44H8.465v11.063H21.5v3.441H8.465V0H4.402Zm0 0"/></symbol><symbol overflow="visible" id="D"><path style="stroke:none" d="M2.313-35.152h3.105l8.687 17.207 8.86-17.266h2.992V0H22.23v-26.52l-7.617 14.165H13.09L5.98-26.352V0H2.312Zm0 0"/></symbol></defs><path style="fill-rule:nonzero;fill:#fff;fill-opacity:1;stroke-width:0;stroke-linecap:butt;stroke-linejoin:miter;stroke:#000;stroke-opacity:1;stroke-miterlimit:10" d="M0 0h96v35H0Zm0 0" transform="scale(20)"/><path style="fill:none;stroke-width:.35;stroke-linecap:butt;stroke-linejoin:miter;stroke:#000;stroke-opacity:1;stroke-miterlimit:10" d="M22 17h-8M42 17h-7.95M62 17h-8M61.95 30H54M42 30 28 20" transform="scale(20)"/><path style="fill-rule:evenodd;fill:#9eec9e;fill-opacity:1;stroke-width:.1;stroke-linecap:butt;stroke-linejoin:round;stroke:#000;stroke-opacity:1;stroke-miterlimit:10" d="M62.897 23.486h10.206a.5.5 0 0 1 .5.5v2.028a.5.5 0 0 1-.5.5H62.897a.5.5 0 0 1-.5-.5v-2.028a.5.5 0 0 1 .5-.5" transform="scale(20)"/><g style="fill:#000;fill-opacity:1"><use xlink:href="#a" x="1296.523" y="517"/><use xlink:href="#b" x="1321.914" y="517"/><use xlink:href="#c" x="1347.305" y="517"/><use xlink:href="#d" x="1372.695" y="517"/><use xlink:href="#e" x="1398.086" y="517"/></g><path style="fill:none;stroke-width:.35;stroke-linecap:butt;stroke-linejoin:round;stroke:#000;stroke-opacity:1;stroke-miterlimit:10" d="M82 17h-8M88 20 74 30M28.597 13.52l11.156-8.991" transform="scale(20)"/><path style="fill-rule:evenodd;fill:#000;fill-opacity:1;stroke-width:.35;stroke-linecap:butt;stroke-linejoin:miter;stroke:#000;stroke-opacity:1;stroke-miterlimit:10" d="m28.305 13.754.232-.508.06.273.254.116-.546.12Zm0 0" transform="scale(20)"/><g style="fill:#000;fill-opacity:1"><use xlink:href="#f" x="623.039" y="79.641"/><use xlink:href="#g" x="673.977" y="79.641"/><use xlink:href="#h" x="705.637" y="79.641"/><use xlink:href="#i" x="728.664" y="79.641"/><use xlink:href="#g" x="759.582" y="79.641"/><use xlink:href="#j" x="791.242" y="79.641"/><use xlink:href="#k" x="809.406" y="79.641"/><use xlink:href="#l" x="845.969" y="79.641"/><use xlink:href="#m" x="877.355" y="79.641"/><use xlink:href="#n" x="904.27" y="79.641"/><use xlink:href="#m" x="918.547" y="79.641"/></g><g style="fill:#000;fill-opacity:1"><use xlink:href="#f" x="1205.875" y="76.73"/><use xlink:href="#g" x="1256.813" y="76.73"/><use xlink:href="#h" x="1288.473" y="76.73"/><use xlink:href="#i" x="1311.5" y="76.73"/><use xlink:href="#g" x="1342.418" y="76.73"/><use xlink:href="#j" x="1374.078" y="76.73"/><use xlink:href="#o" x="1392.242" y="76.73"/><use xlink:href="#p" x="1427.848" y="76.73"/><use xlink:href="#q" x="1461.93" y="76.73"/><use xlink:href="#q" x="1514.41" y="76.73"/><use xlink:href="#n" x="1566.891" y="76.73"/><use xlink:href="#r" x="1581.168" y="76.73"/></g><path style="fill:none;stroke-width:.35;stroke-linecap:butt;stroke-linejoin:miter;stroke:#000;stroke-opacity:1;stroke-miterlimit:10" d="M81.541 13.677 69.753 4.529" transform="scale(20)"/><path style="fill-rule:evenodd;fill:#000;fill-opacity:1;stroke-width:.35;stroke-linecap:butt;stroke-linejoin:miter;stroke:#000;stroke-opacity:1;stroke-miterlimit:10" d="m81.837 13.906-.548-.109.252-.12.055-.274.241.503Zm0 0" transform="scale(20)"/><path style="stroke:none;fill-rule:evenodd;fill:#a9e5a1;fill-opacity:1" d="M1650 200h220v65.5h-220ZM1650 210v-10c-5.523 0-10 4.477-10 10h10ZM1870 210h10c0-5.523-4.477-10-10-10v10Zm0 0"/><path style="stroke:none;fill-rule:evenodd;fill:#a9e5a1;fill-opacity:1" d="M1640 210h240v45.5h-240ZM1650 255.5h-10c0 5.523 4.477 10 10 10v-10ZM1870 255.5v10c5.523 0 10-4.477 10-10h-10Zm0 0"/><path style="fill:none;stroke-width:.1;stroke-linecap:butt;stroke-linejoin:miter;stroke:#000;stroke-opacity:1;stroke-miterlimit:10" d="M82.5 10h11M82.5 13.275h11M82.5 10a.5.5 0 0 0-.5.5M94 10.5a.5.5 0 0 0-.5-.5M82 10.5v2.275M94 10.5v2.275M82 12.775a.5.5 0 0 0 .5.5M93.5 13.275a.5.5 0 0 0 .5-.5" transform="scale(20)"/><g style="fill:#000;fill-opacity:1"><use xlink:href="#s" x="1683.828" y="244.648"/><use xlink:href="#t" x="1709.219" y="244.648"/><use xlink:href="#u" x="1734.609" y="244.648"/><use xlink:href="#a" x="1760" y="244.648"/><use xlink:href="#v" x="1785.391" y="244.648"/><use xlink:href="#w" x="1810.781" y="244.648"/></g><path style="stroke:none;fill-rule:evenodd;fill:#a1bbe5;fill-opacity:1" d="M850 280h220v120H850ZM850 290v-10c-5.523 0-10 4.477-10 10h10ZM1070 290h10c0-5.523-4.477-10-10-10v10Zm0 0"/><path style="stroke:none;fill-rule:evenodd;fill:#a1bbe5;fill-opacity:1" d="M840 290h240v100H840ZM850 390h-10c0 5.523 4.477 10 10 10v-10ZM1070 390v10c5.523 0 10-4.477 10-10h-10Zm0 0"/><path style="fill:none;stroke-width:.1;stroke-linecap:butt;stroke-linejoin:miter;stroke:#000;stroke-opacity:1;stroke-miterlimit:10" d="M42.5 14h11M42.5 20h11M42.5 14a.5.5 0 0 0-.5.5M54 14.5a.5.5 0 0 0-.5-.5M42 14.5v5M54 14.5v5M42 19.5a.5.5 0 0 0 .5.5M53.5 20a.5.5 0 0 0 .5-.5" transform="scale(20)"/><use xlink:href="#x" x="945.898" y="353.223" style="fill:#000;fill-opacity:1"/><path style="stroke:none;fill-rule:evenodd;fill:#d2f2ce;fill-opacity:1" d="M1250 200h220v65.5h-220ZM1250 210v-10c-5.523 0-10 4.477-10 10h10ZM1470 210h10c0-5.523-4.477-10-10-10v10Zm0 0"/><path style="stroke:none;fill-rule:evenodd;fill:#d2f2ce;fill-opacity:1" d="M1240 210h240v45.5h-240ZM1250 255.5h-10c0 5.523 4.477 10 10 10v-10ZM1470 255.5v10c5.523 0 10-4.477 10-10h-10Zm0 0"/><path style="fill:none;stroke-width:.1;stroke-linecap:butt;stroke-linejoin:miter;stroke:#a7a2a2;stroke-opacity:1;stroke-dasharray:.1,.1;stroke-miterlimit:10" d="M62.5 10h11M62.5 13.275h11M62.5 10a.5.5 0 0 0-.5.5M74 10.5a.5.5 0 0 0-.5-.5M62 10.5v2.275M74 10.5v2.275M62 12.775a.5.5 0 0 0 .5.5M73.5 13.275a.5.5 0 0 0 .5-.5" transform="scale(20)"/><g style="fill:#a7a2a2;fill-opacity:1"><use xlink:href="#s" x="1283.828" y="244.648"/><use xlink:href="#t" x="1309.219" y="244.648"/><use xlink:href="#u" x="1334.609" y="244.648"/><use xlink:href="#a" x="1360" y="244.648"/><use xlink:href="#v" x="1385.391" y="244.648"/><use xlink:href="#w" x="1410.781" y="244.648"/></g><path style="stroke:none;fill-rule:evenodd;fill:#a1bbe5;fill-opacity:1" d="M1250 280h220v120h-220ZM1250 290v-10c-5.523 0-10 4.477-10 10h10ZM1470 290h10c0-5.523-4.477-10-10-10v10Zm0 0"/><path style="stroke:none;fill-rule:evenodd;fill:#a1bbe5;fill-opacity:1" d="M1240 290h240v100h-240ZM1250 390h-10c0 5.523 4.477 10 10 10v-10ZM1470 390v10c5.523 0 10-4.477 10-10h-10Zm0 0"/><path style="fill:none;stroke-width:.1;stroke-linecap:butt;stroke-linejoin:miter;stroke:#000;stroke-opacity:1;stroke-miterlimit:10" d="M62.5 14h11M62.5 20h11M62.5 14a.5.5 0 0 0-.5.5M74 14.5a.5.5 0 0 0-.5-.5M62 14.5v5M74 14.5v5M62 19.5a.5.5 0 0 0 .5.5M73.5 20a.5.5 0 0 0 .5-.5" transform="scale(20)"/><use xlink:href="#y" x="1345.898" y="353.223" style="fill:#000;fill-opacity:1"/><path style="stroke:none;fill-rule:evenodd;fill:#a1bbe5;fill-opacity:1" d="M450 280h220v120H450ZM450 290v-10c-5.523 0-10 4.477-10 10h10ZM670 290h10c0-5.523-4.477-10-10-10v10Zm0 0"/><path style="stroke:none;fill-rule:evenodd;fill:#a1bbe5;fill-opacity:1" d="M440 290h240v100H440ZM450 390h-10c0 5.523 4.477 10 10 10v-10ZM670 390v10c5.523 0 10-4.477 10-10h-10Zm0 0"/><path style="fill:none;stroke-width:.1;stroke-linecap:butt;stroke-linejoin:miter;stroke:#000;stroke-opacity:1;stroke-miterlimit:10" d="M22.5 14h11M22.5 20h11M22.5 14a.5.5 0 0 0-.5.5M34 14.5a.5.5 0 0 0-.5-.5M22 14.5v5M34 14.5v5M22 19.5a.5.5 0 0 0 .5.5M33.5 20a.5.5 0 0 0 .5-.5" transform="scale(20)"/><use xlink:href="#z" x="545.898" y="353.223" style="fill:#000;fill-opacity:1"/><path style="stroke:none;fill-rule:evenodd;fill:#a1bbe5;fill-opacity:1" d="M50 280h220v120H50ZM50 290v-10c-5.523 0-10 4.477-10 10h10ZM270 290h10c0-5.523-4.477-10-10-10v10Zm0 0"/><path style="stroke:none;fill-rule:evenodd;fill:#a1bbe5;fill-opacity:1" d="M40 290h240v100H40ZM50 390H40c0 5.523 4.477 10 10 10v-10ZM270 390v10c5.523 0 10-4.477 10-10h-10Zm0 0"/><path style="fill:none;stroke-width:.1;stroke-linecap:butt;stroke-linejoin:miter;stroke:#000;stroke-opacity:1;stroke-miterlimit:10" d="M2.5 14h11M2.5 20h11M2.5 14a.5.5 0 0 0-.5.5M14 14.5a.5.5 0 0 0-.5-.5M2 14.5v5M14 14.5v5M2 19.5a.5.5 0 0 0 .5.5M13.5 20a.5.5 0 0 0 .5-.5" transform="scale(20)"/><use xlink:href="#A" x="145.898" y="353.223" style="fill:#000;fill-opacity:1"/><path style="stroke:none;fill-rule:evenodd;fill:#e9a4de;fill-opacity:1" d="M850 540h220v120H850ZM850 550v-10c-5.523 0-10 4.477-10 10h10ZM1070 550h10c0-5.523-4.477-10-10-10v10Zm0 0"/><path style="stroke:none;fill-rule:evenodd;fill:#e9a4de;fill-opacity:1" d="M840 550h240v100H840ZM850 650h-10c0 5.523 4.477 10 10 10v-10ZM1070 650v10c5.523 0 10-4.477 10-10h-10Zm0 0"/><path style="fill:none;stroke-width:.1;stroke-linecap:butt;stroke-linejoin:miter;stroke:#000;stroke-opacity:1;stroke-miterlimit:10" d="M42.5 27h11M42.5 33h11M42.5 27a.5.5 0 0 0-.5.5M54 27.5a.5.5 0 0 0-.5-.5M42 27.5v5M54 27.5v5M42 32.5a.5.5 0 0 0 .5.5M53.5 33a.5.5 0 0 0 .5-.5" transform="scale(20)"/><use xlink:href="#B" x="945.898" y="613.223" style="fill:#000;fill-opacity:1"/><path style="stroke:none;fill-rule:evenodd;fill:#e9a4de;fill-opacity:1" d="M1250 540h220v120h-220ZM1250 550v-10c-5.523 0-10 4.477-10 10h10ZM1470 550h10c0-5.523-4.477-10-10-10v10Zm0 0"/><path style="stroke:none;fill-rule:evenodd;fill:#e9a4de;fill-opacity:1" d="M1240 550h240v100h-240ZM1250 650h-10c0 5.523 4.477 10 10 10v-10ZM1470 650v10c5.523 0 10-4.477 10-10h-10Zm0 0"/><path style="fill:none;stroke-width:.1;stroke-linecap:butt;stroke-linejoin:miter;stroke:#000;stroke-opacity:1;stroke-miterlimit:10" d="M62.5 27h11M62.5 33h11M62.5 27a.5.5 0 0 0-.5.5M74 27.5a.5.5 0 0 0-.5-.5M62 27.5v5M74 27.5v5M62 32.5a.5.5 0 0 0 .5.5M73.5 33a.5.5 0 0 0 .5-.5" transform="scale(20)"/><use xlink:href="#C" x="1345.898" y="613.223" style="fill:#000;fill-opacity:1"/><path style="stroke:none;fill-rule:evenodd;fill:#a1bbe5;fill-opacity:1" d="M1650 280h220v120h-220ZM1650 290v-10c-5.523 0-10 4.477-10 10h10ZM1870 290h10c0-5.523-4.477-10-10-10v10Zm0 0"/><path style="stroke:none;fill-rule:evenodd;fill:#a1bbe5;fill-opacity:1" d="M1640 290h240v100h-240ZM1650 390h-10c0 5.523 4.477 10 10 10v-10ZM1870 390v10c5.523 0 10-4.477 10-10h-10Zm0 0"/><path style="fill:none;stroke-width:.1;stroke-linecap:butt;stroke-linejoin:miter;stroke:#000;stroke-opacity:1;stroke-miterlimit:10" d="M82.5 14h11M82.5 20h11M82.5 14a.5.5 0 0 0-.5.5M94 14.5a.5.5 0 0 0-.5-.5M82 14.5v5M94 14.5v5M82 19.5a.5.5 0 0 0 .5.5M93.5 20a.5.5 0 0 0 .5-.5" transform="scale(20)"/><use xlink:href="#D" x="1745.898" y="353.223" style="fill:#000;fill-opacity:1"/><path style="fill:none;stroke-width:1;stroke-linecap:butt;stroke-linejoin:miter;stroke:#e9a4de;stroke-opacity:1;stroke-miterlimit:10" d="M84 14v6" transform="scale(20)"/><path style="fill:none;stroke-width:.2;stroke-linecap:butt;stroke-linejoin:miter;stroke:#000;stroke-opacity:1;stroke-miterlimit:10" d="M88 17" transform="scale(20)"/><path style="fill-rule:evenodd;fill:#000;fill-opacity:1;stroke-width:.2;stroke-linecap:butt;stroke-linejoin:miter;stroke:#000;stroke-opacity:1;stroke-miterlimit:10" d="M87.5 17.25 88 17l-.5-.25v.5Zm0 0" transform="scale(20)"/><path style="fill:none;stroke-width:1;stroke-linecap:butt;stroke-linejoin:miter;stroke:#e9a4de;stroke-opacity:1;stroke-miterlimit:10" d="M86 14v6M90 14v6M92 14v6M88 14v6" transform="scale(20)"/><use xlink:href="#D" x="1745.898" y="358.875" style="fill:#000;fill-opacity:1"/><path style="fill:none;stroke-width:.1;stroke-linecap:butt;stroke-linejoin:miter;stroke:#000;stroke-opacity:1;stroke-miterlimit:10" d="M82.5 14h11M82.5 20h11M82.5 14a.5.5 0 0 0-.5.5M94 14.5a.5.5 0 0 0-.5-.5M82 14.5v5M94 14.5v5M82 19.5a.5.5 0 0 0 .5.5M93.5 20a.5.5 0 0 0 .5-.5" transform="scale(20)"/></svg>