<?xml version="1.0" encoding="UTF-8" standalone="no"?>
<!DOCTYPE svg PUBLIC "-//W3C//DTD SVG 1.0//EN" "http://www.w3.org/TR/2001/PR-SVG-20010719/DTD/svg10.dtd">
<svg width="93cm" height="32cm" viewBox="-402 -151 1843 632" xmlns="http://www.w3.org/2000/svg" xmlns:xlink="http://www.w3.org/1999/xlink">
  <g>
    <rect style="fill: #a6b1ed" x="-400" y="100" width="241" height="120" rx="10" ry="10"/>
    <rect style="fill: none; fill-opacity:0; stroke-width: 2; stroke-linejoin: round; stroke: #000000" x="-400" y="100" width="241" height="120" rx="10" ry="10"/>
  </g>
  <g>
    <rect style="fill: #a6b1ed" x="400" y="100" width="240" height="120" rx="10" ry="10"/>
    <rect style="fill: none; fill-opacity:0; stroke-width: 2; stroke-linejoin: round; stroke: #000000" x="400" y="100" width="240" height="120" rx="10" ry="10"/>
  </g>
  <g>
    <rect style="fill: #a6b1ed" x="800" y="100" width="240" height="120" rx="10" ry="10"/>
    <rect style="fill: none; fill-opacity:0; stroke-width: 2; stroke-linejoin: round; stroke: #000000" x="800" y="100" width="240" height="120" rx="10" ry="10"/>
  </g>
  <text font-size="12.8" style="fill: #000000;text-anchor:start;font-family:sans-serif;font-style:normal;font-weight:normal" x="520" y="160">
    <tspan x="520" y="160"></tspan>
  </text>
  <line style="fill: none; fill-opacity:0; stroke-width: 7; stroke-linejoin: round; stroke: #000000" x1="0" y1="160" x2="-159" y2="160"/>
  <g>
    <rect style="fill: #a6b1ed" x="0" y="100" width="241" height="120" rx="10" ry="10"/>
    <rect style="fill: none; fill-opacity:0; stroke-width: 2; stroke-linejoin: round; stroke: #000000" x="0" y="100" width="241" height="120" rx="10" ry="10"/>
  </g>
  <text font-size="12.8" style="fill: #000000;text-anchor:start;font-family:sans-serif;font-style:normal;font-weight:normal" x="120.5" y="160">
    <tspan x="120.5" y="160"></tspan>
  </text>
  <text font-size="12.8" style="fill: #000000;text-anchor:start;font-family:sans-serif;font-style:normal;font-weight:normal" x="120.5" y="160">
    <tspan x="120.5" y="160"></tspan>
  </text>
  <text font-size="56.4444" style="fill: #000000;text-anchor:middle;font-family:monospace;font-style:normal;font-weight:normal" x="-279.5" y="175.025">
    <tspan x="-279.5" y="175.025">A</tspan>
  </text>
  <text font-size="12.8" style="fill: #000000;text-anchor:start;font-family:sans-serif;font-style:normal;font-weight:normal" x="740" y="200">
    <tspan x="740" y="200"></tspan>
  </text>
  <g>
    <rect style="fill: #e4c8c8" x="400" y="360" width="241" height="120" rx="10" ry="10"/>
    <rect style="fill: none; fill-opacity:0; stroke-width: 2; stroke-linejoin: round; stroke: #000000" x="400" y="360" width="241" height="120" rx="10" ry="10"/>
  </g>
  <g>
    <rect style="fill: #e4c8c8" x="800" y="360" width="241" height="120" rx="10" ry="10"/>
    <rect style="fill: none; fill-opacity:0; stroke-width: 2; stroke-linejoin: round; stroke: #000000" x="800" y="360" width="241" height="120" rx="10" ry="10"/>
  </g>
  <text font-size="56.4444" style="fill: #000000;text-anchor:middle;font-family:monospace;font-style:normal;font-weight:normal" x="120.5" y="175.025">
    <tspan x="120.5" y="175.025">B</tspan>
  </text>
  <text font-size="56.4444" style="fill: #000000;text-anchor:middle;font-family:monospace;font-style:normal;font-weight:normal" x="520" y="175.025">
    <tspan x="520" y="175.025">C</tspan>
  </text>
  <text font-size="56.4444" style="fill: #000000;text-anchor:middle;font-family:monospace;font-style:normal;font-weight:normal" x="920" y="175.025">
    <tspan x="920" y="175.025">D</tspan>
  </text>
  <line style="fill: none; fill-opacity:0; stroke-width: 7; stroke-linejoin: round; stroke: #000000" x1="400" y1="160" x2="241" y2="160"/>
  <line style="fill: none; fill-opacity:0; stroke-width: 7; stroke-linejoin: round; stroke: #000000" x1="800" y1="160" x2="640" y2="160"/>
  <line style="fill: none; fill-opacity:0; stroke-width: 7; stroke-linejoin: round; stroke: #000000" x1="800" y1="420" x2="641" y2="420"/>
  <line style="fill: none; fill-opacity:0; stroke-width: 7; stroke-linejoin: round; stroke: #000000" x1="400" y1="420" x2="120.5" y2="220"/>
  <text font-size="56.4444" style="fill: #000000;text-anchor:middle;font-family:monospace;font-style:normal;font-weight:normal" x="520.5" y="435.025">
    <tspan x="520.5" y="435.025">E</tspan>
  </text>
  <text font-size="56.4444" style="fill: #000000;text-anchor:middle;font-family:monospace;font-style:normal;font-weight:normal" x="920.5" y="435.025">
    <tspan x="920.5" y="435.025">F</tspan>
  </text>
  <g>
    <rect style="fill: #a6b1ed" x="1200" y="100" width="240" height="120" rx="10" ry="10"/>
    <rect style="fill: none; fill-opacity:0; stroke-width: 2; stroke-linejoin: round; stroke: #000000" x="1200" y="100" width="240" height="120" rx="10" ry="10"/>
  </g>
  <g>
    <rect style="fill: #9eec9e" x="1207.95" y="29.7264" width="224.106" height="60.5472" rx="10" ry="10"/>
    <rect style="fill: none; fill-opacity:0; stroke-width: 2; stroke-linejoin: round; stroke: #000000" x="1207.95" y="29.7264" width="224.106" height="60.5472" rx="10" ry="10"/>
  </g>
  <text font-size="50.8" style="fill: #000000;text-anchor:middle;font-family:monospace;font-style:normal;font-weight:normal" x="1320" y="73.525">
    <tspan x="1320" y="73.525">master</tspan>
  </text>
  <g>
    <rect style="fill: #9eec9e" x="807.946" y="289.726" width="224.106" height="60.5472" rx="10" ry="10"/>
    <rect style="fill: none; fill-opacity:0; stroke-width: 2; stroke-linejoin: round; stroke: #000000" x="807.946" y="289.726" width="224.106" height="60.5472" rx="10" ry="10"/>
  </g>
  <text font-size="50.8" style="fill: #000000;text-anchor:middle;font-family:monospace;font-style:normal;font-weight:normal" x="920" y="333.525">
    <tspan x="920" y="333.525">topic</tspan>
  </text>
  <g>
    <line style="fill: none; fill-opacity:0; stroke-width: 4; stroke-linejoin: round; stroke: #000000" x1="1320" y1="160" x2="1320" y2="160"/>
    <polygon style="fill: #000000" points="1310,165 1320,160 1310,155 "/>
    <polygon style="fill: none; fill-opacity:0; stroke-width: 4; stroke: #000000" points="1310,165 1320,160 1310,155 "/>
  </g>
  <line style="fill: none; fill-opacity:0; stroke-width: 20; stroke: #e4c8c8" x1="1320" y1="100" x2="1320" y2="220"/>
  <line style="fill: none; fill-opacity:0; stroke-width: 20; stroke: #e4c8c8" x1="1240" y1="100" x2="1240" y2="220"/>
  <line style="fill: none; fill-opacity:0; stroke-width: 20; stroke: #e4c8c8" x1="1280" y1="100" x2="1280" y2="220"/>
  <line style="fill: none; fill-opacity:0; stroke-width: 20; stroke: #e4c8c8" x1="1360" y1="100" x2="1360" y2="220"/>
  <line style="fill: none; fill-opacity:0; stroke-width: 20; stroke: #e4c8c8" x1="1400" y1="100" x2="1400" y2="220"/>
  <text font-size="56.4444" style="fill: #000000;text-anchor:middle;font-family:monospace;font-style:normal;font-weight:normal" x="1320" y="175.025">
    <tspan x="1320" y="175.025">M</tspan>
  </text>
  <line style="fill: none; fill-opacity:0; stroke-width: 7; stroke: #000000" x1="1200" y1="160" x2="1040" y2="160"/>
  <line style="fill: none; fill-opacity:0; stroke-width: 7; stroke: #000000" x1="1320" y1="220" x2="1041" y2="420"/>
  <rect style="fill: none; fill-opacity:0; stroke-width: 2; stroke-linejoin: round; stroke: #000000" x="1200" y="100" width="240" height="120" rx="10" ry="10"/>
  <g>
    <line style="fill: none; fill-opacity:0; stroke-width: 7; stroke-linejoin: round; stroke: #000000" x1="132.424" y1="90.371" x2="355.064" y2="-89.4214"/>
    <polygon style="fill: #000000" points="126.589,95.083 131.227,84.9104 132.424,90.371 137.51,92.6903 "/>
    <polygon style="fill: none; fill-opacity:0; stroke-width: 7; stroke: #000000" points="126.589,95.083 131.227,84.9104 132.424,90.371 137.51,92.6903 "/>
  </g>
  <text font-size="12.8" style="fill: #000000;text-anchor:start;font-family:sans-serif;font-style:normal;font-weight:normal" x="520" y="160">
    <tspan x="520" y="160"></tspan>
  </text>
  <text font-size="56.4444" style="fill: #000000;text-anchor:start;font-family:monospace;font-style:normal;font-weight:normal" x="170.406" y="-100.359">
    <tspan x="170.406" y="-100.359">Merge-Basis</tspan>
  </text>
  <text font-size="56.4444" style="fill: #000000;text-anchor:start;font-family:monospace;font-style:normal;font-weight:normal" x="765.874" y="-103.271">
    <tspan x="765.874" y="-103.271">Merge-Commit</tspan>
  </text>
  <g>
    <line style="fill: none; fill-opacity:0; stroke-width: 7; stroke: #000000" x1="1190.82" y1="93.5328" x2="955.064" y2="-89.4214"/>
    <polygon style="fill: #000000" points="1196.75,98.1309 1185.78,95.9502 1190.82,93.5328 1191.91,88.05 "/>
    <polygon style="fill: none; fill-opacity:0; stroke-width: 7; stroke: #000000" points="1196.75,98.1309 1185.78,95.9502 1190.82,93.5328 1191.91,88.05 "/>
  </g>
  <g>
    <rect style="fill: #cef5ce" x="808.72" y="30.9536" width="224.106" height="60.5472" rx="10" ry="10"/>
    <rect style="fill: none; fill-opacity:0; stroke-width: 2; stroke-linejoin: round; stroke-dasharray: 4; stroke: #a7a2a2" x="808.72" y="30.9536" width="224.106" height="60.5472" rx="10" ry="10"/>
  </g>
  <text font-size="50.8" style="fill: #a7a2a2;text-anchor:middle;font-family:monospace;font-style:normal;font-weight:normal" x="920.772" y="74.7522">
    <tspan x="920.772" y="74.7522">master</tspan>
  </text>
</svg>
