<svg xmlns="http://www.w3.org/2000/svg" xmlns:xlink="http://www.w3.org/1999/xlink" width="740pt" height="400pt" viewBox="0 0 740 400"><defs><symbol overflow="visible" id="a"><path style="stroke:none" d="M.922-11.95h3.394c.688.005 1.286.071 1.793.204.504.137.91.336 1.215.601.305.27.54.582.711.93.164.352.25.735.25 1.156 0 .563-.156 1.094-.46 1.59A2.48 2.48 0 0 1 6.52-6.418c.332.121.636.285.91.492.273.215.511.453.718.723.204.27.356.562.461.875.102.316.157.637.157.965 0 1.015-.36 1.832-1.075 2.441C6.973-.305 5.84 0 4.297 0H.922Zm1.32 1.114V-7H4.11c.528.004.965-.043 1.309-.145.34-.093.617-.226.828-.394.211-.164.367-.367.469-.606.101-.238.164-.492.191-.765a2.776 2.776 0 0 0-.183-.75 1.637 1.637 0 0 0-.446-.606 2.385 2.385 0 0 0-.78-.414c-.321-.101-.716-.152-1.18-.156Zm0 4.95v4.714h2.301c1.027 0 1.746-.215 2.156-.644.403-.43.633-.97.684-1.625a3.496 3.496 0 0 0-.215-.98 2.19 2.19 0 0 0-.531-.782c-.239-.227-.559-.395-.965-.512a5.823 5.823 0 0 0-1.457-.172Zm0 0"/></symbol><symbol overflow="visible" id="b"><path style="stroke:none" d="M4.969-8.977c.457 0 .902.086 1.34.25.433.172.812.422 1.14.758.324.34.59.774.79 1.297.195.527.292 1.149.296 1.86l-.012.316c-.007.11-.015.215-.027.316H2.262c.023.617.129 1.13.316 1.543.188.414.422.75.703 1.008.281.258.594.442.938.547.343.11.687.164 1.035.16.906.004 1.66-.324 2.266-.976l.765.746C7.543-.258 6.52.188 5.22.19A5.12 5.12 0 0 1 3.46-.105a3.468 3.468 0 0 1-1.352-.872 3.904 3.904 0 0 1-.863-1.43C1.04-2.972.938-3.62.941-4.354c-.003-.735.102-1.395.317-1.973a4.164 4.164 0 0 1 .86-1.45 3.66 3.66 0 0 1 1.277-.89 4.04 4.04 0 0 1 1.574-.309ZM2.32-5.293h4.817c0-.047 0-.094.008-.14 0-.04.003-.094.007-.165a2.393 2.393 0 0 0-.183-.894 2.531 2.531 0 0 0-.489-.738 2.47 2.47 0 0 0-.718-.5 2.145 2.145 0 0 0-.89-.192c-.606 0-1.15.211-1.634.633-.488.422-.793 1.09-.918 1.996Zm0 0"/></symbol><symbol overflow="visible" id="c"><path style="stroke:none" d="M1.305 0v-8.766h1.379v1.555a3.923 3.923 0 0 1 1.285-1.285c.515-.32 1.047-.48 1.594-.48.382 0 .742.07 1.078.203.332.136.625.347.87.64.243.297.43.676.571 1.133.133.465.203 1.027.203 1.688V0H6.906v-5.273c-.004-.922-.16-1.567-.472-1.938-.317-.371-.7-.559-1.149-.559-.297 0-.601.067-.906.196-.313.129-.59.312-.836.547-.254.238-.461.52-.617.851a2.55 2.55 0 0 0-.242 1.133V0Zm0 0"/></symbol><symbol overflow="visible" id="d"><path style="stroke:none" d="m.96-8.285-.194-.48h1.632c-.003.09-.011.171-.03.242a.572.572 0 0 0-.028.18c-.004.027.004.046.02.058L4.91-1.88 6.328-5.14c.305-.699.55-1.351.746-1.953.188-.597.336-1.156.446-1.672h1.246c-.258 1.079-.7 2.36-1.325 3.836L5.313.06H4.237Zm0 0"/></symbol><symbol overflow="visible" id="e"><path style="stroke:none" d="M4.871-8.957c.531.004 1.04.11 1.524.316.476.215.898.52 1.257.91.36.399.645.88.856 1.45.21.57.316 1.207.316 1.91 0 .715-.105 1.355-.308 1.918a4.583 4.583 0 0 1-.844 1.45c-.36.405-.781.71-1.266.917A3.965 3.965 0 0 1 4.852.23 3.74 3.74 0 0 1 3.27-.113a4.017 4.017 0 0 1-1.297-.95 4.45 4.45 0 0 1-.883-1.449 4.884 4.884 0 0 1-.324-1.824 4.916 4.916 0 0 1 .336-1.84 4.46 4.46 0 0 1 .902-1.465 4.316 4.316 0 0 1 1.312-.96 3.676 3.676 0 0 1 1.555-.356Zm2.57 4.621c0-.547-.074-1.035-.222-1.465a3.585 3.585 0 0 0-.582-1.086 2.654 2.654 0 0 0-.836-.668 2.35 2.35 0 0 0-.989-.23 2.336 2.336 0 0 0-.988.23c-.316.157-.59.38-.824.668a3.542 3.542 0 0 0-.563 1.067c-.14.418-.21.886-.21 1.41 0 .512.07.976.21 1.398.141.422.329.79.563 1.094.234.313.512.547.836.711.316.164.656.246 1.016.246a2.316 2.316 0 0 0 1.832-.867c.234-.29.418-.645.554-1.067.133-.421.203-.902.203-1.44Zm0 0"/></symbol><symbol overflow="visible" id="f"><path style="stroke:none" d="M1.629-12.754h3.855v11.64h2.57V0H1.517v-1.113h2.59v-10.528H1.628Zm0 0"/></symbol><symbol overflow="visible" id="g"><path style="stroke:none" d="m3.605-11.105 1.497-.25c-.004.117-.02.222-.047.308a1.316 1.316 0 0 0-.067.211l-.23 2.07h2.875v1.114H4.758a31.854 31.854 0 0 0-.176 3.222c0 .617.012 1.14.04 1.563.023.43.089.762.202 1.004.106.242.266.433.473.566.203.14.476.207.828.203.586.004 1.242-.265 1.965-.804l.426 1.093c-.887.653-1.793.973-2.723.977-.926-.004-1.598-.277-2.016-.836-.425-.555-.617-1.461-.574-2.719-.004-.46.008-1.05.04-1.77.023-.714.073-1.55.152-2.5H1.344v-1.113h2.11Zm0 0"/></symbol><symbol overflow="visible" id="h"><path style="stroke:none" d="M1.035-11.95h2.781c1.02.005 1.817.145 2.387.423.567.285 1.05.687 1.45 1.21.394.528.687 1.16.882 1.899.192.742.29 1.578.29 2.512 0 .922-.118 1.746-.348 2.472-.23.73-.547 1.356-.95 1.872-.402.519-.922.914-1.562 1.18-.64.269-1.434.398-2.38.402h-2.55Zm1.266 1.114v9.8H3.52c1.355.005 2.347-.41 2.98-1.237.625-.829.941-2.016.941-3.567-.015-1.558-.304-2.781-.867-3.668-.566-.883-1.515-1.324-2.844-1.328Zm0 0"/></symbol><symbol overflow="visible" id="i"><path style="stroke:none" d="M2.031-8.766h3.512v7.653h2.05V0H1.919v-1.113H4.16v-6.54H2.031Zm2.149-3.527a.947.947 0 0 1 .691-.289.99.99 0 0 1 .7.297.99.99 0 0 1 .296.7.939.939 0 0 1-.297.69.965.965 0 0 1-.699.29.917.917 0 0 1-.691-.29.9.9 0 0 1-.285-.69.934.934 0 0 1 .285-.708Zm0 0"/></symbol><symbol overflow="visible" id="j"><path style="stroke:none" d="m8.766-7.309-.98 1.133c-.067-.039-.095-.078-.087-.125a.465.465 0 0 0-.02-.18.983.983 0 0 0-.144-.289c-.078-.109-.234-.265-.465-.46-.441-.36-1.039-.54-1.793-.54-.379 0-.738.079-1.074.23-.344.157-.64.376-.898.661-.258.29-.465.637-.621 1.035a3.644 3.644 0 0 0-.23 1.348c-.005.5.073.957.23 1.379.156.422.367.785.64 1.09.266.304.59.543.965.715.375.171.785.257 1.238.257.883 0 1.649-.351 2.297-1.054l.809.937C7.758-.25 6.69.211 5.43.211A4.315 4.315 0 0 1 3.69-.133a4.192 4.192 0 0 1-1.382-.96 4.271 4.271 0 0 1-.91-1.446 4.883 4.883 0 0 1-.325-1.832 4.927 4.927 0 0 1 .324-1.824c.215-.559.52-1.043.91-1.446a4.2 4.2 0 0 1 1.403-.949 4.544 4.544 0 0 1 1.773-.348 4.214 4.214 0 0 1 1.887.434c.57.29 1.035.688 1.395 1.195Zm0 0"/></symbol><symbol overflow="visible" id="k"><path style="stroke:none" d="M1.746-7.73c.777-.813 1.817-1.223 3.125-1.227 1.07.004 1.918.277 2.543.816.617.547.93 1.45.93 2.711V0H7.039v-.96C6.102-.18 5.055.21 3.895.21 3.43.21 3.015.14 2.656 0a2.911 2.911 0 0 1-.93-.555 2.326 2.326 0 0 1-.585-.789 1.99 1.99 0 0 1-.2-.883c-.003-.878.375-1.574 1.141-2.086.758-.511 1.856-.792 3.29-.847H7.02v-.328c0-.871-.184-1.48-.547-1.832-.368-.344-.934-.52-1.696-.524-.953.004-1.738.336-2.359.996Zm5.332 3.625H6.75c-.18.003-.352 0-.508-.008a9.872 9.872 0 0 0-.469-.012c-.707 0-1.28.05-1.726.145-.45.101-.8.23-1.055.394-.258.168-.433.36-.527.566a1.622 1.622 0 0 0-.145.68c0 .414.176.766.535 1.055.356.297.797.441 1.325.441.383 0 .73-.058 1.035-.18.305-.12.57-.269.805-.44.226-.173.414-.352.558-.54.137-.183.238-.344.309-.488.125-.25.191-.598.191-1.035Zm0 0"/></symbol><symbol overflow="visible" id="l"><path style="stroke:none" d="M1.898-8.766h1.418l-.035 1.688A2.903 2.903 0 0 1 4.56-8.484a3.76 3.76 0 0 1 1.878-.493c.946 0 1.727.32 2.348.961l-.633 1.32a9.86 9.86 0 0 0-.386-.476 2.425 2.425 0 0 0-.375-.324 2.323 2.323 0 0 0-.446-.211 2.288 2.288 0 0 0-.586-.078c-.425.004-.82.101-1.191.297-.375.199-.7.46-.973.785-.277.328-.5.703-.664 1.121-.168.426-.25.867-.25 1.324V.02H1.898Zm0 0"/></symbol><symbol overflow="visible" id="m"><path style="stroke:none" d="M8.344-10.531 7.5-9.38c-.066-.023-.105-.078-.11-.164a.446.446 0 0 0-.042-.18 2.74 2.74 0 0 0-.993-.863c-.418-.215-.933-.324-1.543-.328-.59.004-1.078.176-1.464.52-.395.343-.59.753-.586 1.226-.004.285.047.527.144.73.094.204.239.403.442.594.195.192.488.387.87.586.384.2.88.418 1.497.66.586.243 1.074.485 1.457.72.383.241.687.491.922.757.226.27.39.555.488.855.094.301.14.637.145 1.004-.004.41-.079.825-.23 1.239a3.07 3.07 0 0 1-.72 1.113 3.68 3.68 0 0 1-1.238.797c-.5.203-1.101.3-1.8.304C3.187.187 1.94-.32.995-1.344l.79-1.379c.058.043.089.106.093.192-.004.09.016.16.058.21.293.372.688.684 1.188.93.496.254 1.098.38 1.805.375a2.608 2.608 0 0 0 1.762-.664 2.144 2.144 0 0 0 .71-1.582 1.821 1.821 0 0 0-.125-.66 1.688 1.688 0 0 0-.414-.555 3.91 3.91 0 0 0-.812-.52c-.356-.167-.82-.37-1.39-.605-.63-.242-1.15-.484-1.563-.734a4.903 4.903 0 0 1-1.008-.758 2.202 2.202 0 0 1-.547-.828c-.11-.293-.16-.61-.16-.957 0-.43.09-.84.277-1.226.18-.383.438-.72.766-1.008.324-.285.71-.508 1.16-.672a4.403 4.403 0 0 1 1.437-.242 4.555 4.555 0 0 1 1.844.394 4.385 4.385 0 0 1 1.477 1.102Zm0 0"/></symbol><symbol overflow="visible" id="n"><path style="stroke:none" d="M1.207-8.766H2.59v4.891c0 .566.05 1.035.152 1.41.102.38.246.684.434.914.187.23.398.395.636.496.235.102.497.153.782.153.304-.024.597-.098.883-.23.28-.126.535-.31.761-.544.223-.234.399-.535.532-.91.125-.367.19-.816.19-1.348v-4.832h1.384v7.98c0 .298.031.56.094.786H7a4 4 0 0 1-.04-.297 1.497 1.497 0 0 1 0-.375l.02-.672A3.037 3.037 0 0 1 5.836-.199 3.178 3.178 0 0 1 4.25.21c-.453 0-.855-.078-1.215-.238a2.802 2.802 0 0 1-.973-.739c-.289-.332-.507-.754-.652-1.265-.152-.512-.226-1.125-.222-1.844Zm0 0"/></symbol><symbol overflow="visible" id="o"><path style="stroke:none" d="M1.152-12.754h1.59v.04c0 .062-.035.124-.105.179-.07.062-.106.129-.106.203v4.91c.281-.473.66-.851 1.145-1.133a2.865 2.865 0 0 1 1.472-.422c.485 0 .946.094 1.383.282.434.187.82.468 1.157.843.332.375.593.844.789 1.407.191.562.289 1.222.289 1.976 0 .793-.11 1.48-.32 2.063-.216.582-.493 1.066-.837 1.457-.347.39-.738.683-1.171.875A3.328 3.328 0 0 1 5.09.21a3.044 3.044 0 0 1-1.48-.363 3.154 3.154 0 0 1-1.118-1L2.02 0h-.868ZM3.543-1.379c.242.133.46.219.656.258.192.047.375.066.547.066.258 0 .54-.047.852-.14.304-.094.593-.262.863-.508.262-.238.48-.563.66-.973.172-.402.262-.918.262-1.547 0-1.152-.242-2.035-.719-2.648-.48-.606-1.172-.91-2.074-.914-.328.004-.672.117-1.031.344a1.956 1.956 0 0 0-.793.914c-.157.382-.235 1.007-.235 1.867 0 .539.012.988.04 1.355.023.368.074.676.156.926.074.25.18.453.308.602a1.6 1.6 0 0 0 .508.398Zm0 0"/></symbol><symbol overflow="visible" id="p"><path style="stroke:none" d="M8.285-7.594 7.48-6.387c-.066-.011-.097-.062-.097-.152a.38.38 0 0 0-.04-.191c-.234-.293-.562-.567-.988-.817a2.812 2.812 0 0 0-1.449-.375c-.25 0-.484.031-.707.086a2.45 2.45 0 0 0-.597.242 1.194 1.194 0 0 0-.418.395.928.928 0 0 0-.153.543.703.703 0 0 0 .114.414c.074.125.195.242.367.355.164.117.402.23.707.344.3.117.695.246 1.187.383 1.106.297 1.887.644 2.344 1.047.457.402.688.898.688 1.484A2.524 2.524 0 0 1 7.46-.633c-.324.258-.707.461-1.152.606-.45.144-.954.214-1.512.218C3.324.187 2.09-.269 1.094-1.188l.785-1.382a.418.418 0 0 1 .078.187.759.759 0 0 0 .133.305c.074.121.215.254.426.402.203.153.52.32.949.5.187.094.406.16.656.196.242.042.488.062.734.058.254.004.516-.027.782-.094.265-.062.504-.156.715-.28.21-.118.378-.266.511-.442.125-.172.192-.367.196-.59-.004-.332-.16-.617-.465-.852-.313-.23-.88-.468-1.7-.715-.57-.164-.94-.277-1.12-.343-.465-.176-.801-.336-1.004-.473a2.737 2.737 0 0 1-.563-.48 2.298 2.298 0 0 1-.406-.637 1.825 1.825 0 0 1-.153-.781 1.675 1.675 0 0 1 .25-.883c.165-.281.395-.531.7-.75.297-.215.656-.39 1.074-.531a4.397 4.397 0 0 1 1.351-.204c1.34 0 2.43.461 3.262 1.383Zm0 0"/></symbol><symbol overflow="visible" id="q"><path style="stroke:none" d="m1.133-8.152-.25-.614H2.55a.943.943 0 0 1-.04.258.485.485 0 0 0-.034.203c-.004.055.007.09.035.114l2.61 6.445 1.667-4.7a14.774 14.774 0 0 0 .652-2.32H8.88a43.25 43.25 0 0 0-.375 1.133c-.137.426-.297.89-.488 1.399L5.64.039l-.368.957c-.308.856-.703 1.457-1.18 1.813a2.78 2.78 0 0 1-1.655.527C1.602 3.332.93 3.086.421 2.59l.73-1.227a.466.466 0 0 1 .094.184c.024.086.043.14.059.168l.074.086c.047.054.117.113.203.176.082.054.188.113.316.168.125.054.266.082.422.082.368 0 .696-.118.985-.352.289-.234.574-.652.855-1.254l.27-.66Zm0 0"/></symbol><symbol overflow="visible" id="r"><path style="stroke:none" d="M.73 0v-8.766h1.266v.864c.2-.317.461-.575.785-.778a1.908 1.908 0 0 1 1.016-.297c.371 0 .7.125.988.368.285.246.469.55.547.918.164-.38.426-.688.785-.93.36-.234.75-.356 1.172-.356.602 0 1.043.215 1.324.645.282.43.407.965.383 1.602V0H7.73v-6.215a6.99 6.99 0 0 0-.058-.937c-.043-.23-.106-.407-.192-.528-.09-.12-.18-.199-.27-.23a1.163 1.163 0 0 0-.343-.05.823.823 0 0 0-.5.202 1.934 1.934 0 0 0-.441.508c-.133.21-.235.445-.309.703a2.525 2.525 0 0 0-.113.754V0H4.219v-6.098c0-.726-.07-1.21-.203-1.457-.137-.242-.368-.367-.7-.367-.304 0-.601.184-.89.547-.29.367-.434.875-.43 1.523V0Zm0 0"/></symbol><symbol overflow="visible" id="s"><path style="stroke:none" d="M.785-11.95H1.84l2.957 5.852 3.008-5.87h1.02V0H7.558v-9.016l-2.59 4.817h-.52L2.031-8.957V0H.785Zm0 0"/></symbol><symbol overflow="visible" id="t"><path style="stroke:none" d="M1.152-8.766h1.36v1.344a3.151 3.151 0 0 1 1.187-1.121c.492-.273.992-.41 1.496-.414.489.004.953.098 1.399.277.437.188.832.465 1.176.836.34.371.609.836.808 1.399.2.562.297 1.23.3 1.996-.003.77-.108 1.445-.32 2.031-.214.59-.492 1.078-.835 1.469a3.47 3.47 0 0 1-1.188.883 3.36 3.36 0 0 1-1.36.296 3.231 3.231 0 0 1-1.507-.363 3.096 3.096 0 0 1-1.137-1.02v4.356H1.152Zm1.36 5.098c.023.941.242 1.617.656 2.023.41.41.918.614 1.527.61.32.004.645-.047.97-.153a2.28 2.28 0 0 0 .886-.523c.27-.25.484-.578.648-.984.16-.407.242-.914.242-1.528 0-1.113-.238-1.98-.707-2.601-.472-.614-1.132-.934-1.98-.961a2.72 2.72 0 0 0-.793.133c-.273.09-.516.242-.727.457-.21.218-.386.508-.52.867-.14.363-.206.812-.202 1.344Zm0 0"/></symbol><symbol overflow="visible" id="u"><path style="stroke:none" d="M7.098-7.48v-5.274h1.496a.519.519 0 0 1-.098.258.522.522 0 0 0-.094.277L8.418-.805A2.61 2.61 0 0 0 8.516 0H7.117c-.054-.152-.082-.367-.078-.652v-.746a3.206 3.206 0 0 1-1.148 1.16c-.489.285-.977.425-1.473.43a3.427 3.427 0 0 1-1.367-.286 3.111 3.111 0 0 1-1.13-.863c-.323-.383-.581-.867-.773-1.45C.957-2.987.86-3.675.863-4.468c-.004-.8.106-1.488.325-2.058.214-.57.5-1.035.851-1.403.352-.36.742-.629 1.176-.804.43-.172.87-.258 1.32-.262.61.004 1.133.14 1.574.414.438.277.766.645.989 1.102Zm-4.04.25c-.546.5-.82 1.347-.816 2.539-.004 1.105.203 1.996.625 2.668.414.675 1.028 1.011 1.84 1.007.188.004.39-.03.606-.105.214-.067.417-.172.605-.317.187-.14.355-.308.512-.5.148-.19.265-.41.343-.656.137-.457.204-1.074.207-1.847a12.71 12.71 0 0 0-.058-1.22 3.887 3.887 0 0 0-.18-.835 1.814 1.814 0 0 0-.312-.566 2.295 2.295 0 0 0-.473-.399 4.33 4.33 0 0 0-.633-.316 1.918 1.918 0 0 0-.558-.106c-.371.004-.684.055-.942.156-.261.106-.515.27-.765.497Zm0 0"/></symbol><symbol overflow="visible" id="v"><path style="stroke:none" d="M1.074-11.95h3.528c1.402.005 2.418.317 3.039.942.62.63.93 1.453.933 2.473a3.319 3.319 0 0 1-.176 1.027 3.525 3.525 0 0 1-1.253 1.719c-.305.219-.641.371-1.008.457L8.898 0H7.402L4.758-5.273H2.453V0H1.074Zm1.38 1.266v4.22h2.312c.851.003 1.468-.184 1.851-.563.38-.375.57-.88.574-1.508a2.453 2.453 0 0 0-.152-.844 2.131 2.131 0 0 0-.43-.668 2.038 2.038 0 0 0-.738-.46c-.305-.114-.676-.173-1.105-.177Zm0 0"/></symbol></defs><path style="fill-rule:nonzero;fill:#fff;fill-opacity:1;stroke-width:0;stroke-linecap:butt;stroke-linejoin:miter;stroke:#000;stroke-opacity:1;stroke-miterlimit:10" d="M0 0h37v20H0Zm0 0" transform="scale(20)"/><path style="fill:none;stroke-width:.2;stroke-linecap:butt;stroke-linejoin:miter;stroke:#000;stroke-opacity:1;stroke-miterlimit:10" d="M27.577 3.414 7.05 3.488" transform="scale(20)"/><path style="fill-rule:evenodd;fill:#000;fill-opacity:1;stroke-width:.2;stroke-linecap:butt;stroke-linejoin:miter;stroke:#000;stroke-opacity:1;stroke-miterlimit:10" d="m27.952 3.413-.5.252.125-.25-.126-.25.501.248Zm0 0" transform="scale(20)"/><path style="fill:none;stroke-width:.2;stroke-linecap:butt;stroke-linejoin:miter;stroke:#000;stroke-opacity:1;stroke-miterlimit:10" d="M4 8.5V5.522" transform="scale(20)"/><path style="fill-rule:evenodd;fill:#000;fill-opacity:1;stroke-width:.2;stroke-linecap:butt;stroke-linejoin:miter;stroke:#000;stroke-opacity:1;stroke-miterlimit:10" d="m4 5.222.2.4-.2-.1-.2.1.2-.4Zm0 0" transform="scale(20)"/><path style="fill:none;stroke-width:.2;stroke-linecap:butt;stroke-linejoin:miter;stroke:#000;stroke-opacity:1;stroke-miterlimit:10" d="m23.05 16-.044-3.978" transform="scale(20)"/><path style="fill-rule:evenodd;fill:#000;fill-opacity:1;stroke-width:.2;stroke-linecap:butt;stroke-linejoin:miter;stroke:#000;stroke-opacity:1;stroke-miterlimit:10" d="m23.003 11.722.204.398-.201-.098-.199.103.196-.403Zm0 0" transform="scale(20)"/><path style="fill:none;stroke-width:.2;stroke-linecap:butt;stroke-linejoin:miter;stroke:#000;stroke-opacity:1;stroke-miterlimit:10" d="m11.488 15.95-4.204-4.17" transform="scale(20)"/><path style="fill-rule:evenodd;fill:#000;fill-opacity:1;stroke-width:.2;stroke-linecap:butt;stroke-linejoin:miter;stroke:#000;stroke-opacity:1;stroke-miterlimit:10" d="m7.07 11.569.426.14-.212.07-.07.213-.143-.423Zm0 0" transform="scale(20)"/><path style="fill:none;stroke-width:.2;stroke-linecap:butt;stroke-linejoin:miter;stroke:#000;stroke-opacity:1;stroke-miterlimit:10" d="M4 16v-3.978" transform="scale(20)"/><path style="fill-rule:evenodd;fill:#000;fill-opacity:1;stroke-width:.2;stroke-linecap:butt;stroke-linejoin:miter;stroke:#000;stroke-opacity:1;stroke-miterlimit:10" d="m4 11.722.2.4-.2-.1-.2.1.2-.4Zm0 0" transform="scale(20)"/><path style="fill:none;stroke-width:.1;stroke-linecap:butt;stroke-linejoin:miter;stroke:#757575;stroke-opacity:1;stroke-miterlimit:10" d="m32.088 5.824-.036 9.764" transform="scale(20)"/><path style="fill-rule:evenodd;fill:#757575;fill-opacity:1;stroke-width:.1;stroke-linecap:butt;stroke-linejoin:miter;stroke:#757575;stroke-opacity:1;stroke-miterlimit:10" d="m32.05 15.888-.198-.4.2.1.2-.1-.202.4Zm0 0" transform="scale(20)"/><path style="fill:none;stroke-width:.1;stroke-linecap:butt;stroke-linejoin:miter;stroke:#757575;stroke-opacity:1;stroke-miterlimit:10" d="m30.512 5.868-6.245 9.735" transform="scale(20)"/><path style="fill-rule:evenodd;fill:#757575;fill-opacity:1;stroke-width:.1;stroke-linecap:butt;stroke-linejoin:miter;stroke:#757575;stroke-opacity:1;stroke-miterlimit:10" d="m24.105 15.855.047-.444.115.192.222.024-.384.228Zm0 0" transform="scale(20)"/><path style="fill:none;stroke-width:.2;stroke-linecap:butt;stroke-linejoin:miter;stroke:#000;stroke-opacity:1;stroke-miterlimit:10" d="m30.18 15.95-4.907-4.067" transform="scale(20)"/><path style="fill-rule:evenodd;fill:#000;fill-opacity:1;stroke-width:.2;stroke-linecap:butt;stroke-linejoin:miter;stroke:#000;stroke-opacity:1;stroke-miterlimit:10" d="m25.042 11.692.436.101-.205.09-.05.218-.181-.41Zm0 0" transform="scale(20)"/><path style="fill:none;stroke-width:.1;stroke-linecap:butt;stroke-linejoin:miter;stroke:#757575;stroke-opacity:1;stroke-miterlimit:10" d="m28.264 5.736-3.918 2.54" transform="scale(20)"/><path style="fill-rule:evenodd;fill:#757575;fill-opacity:1;stroke-width:.1;stroke-linecap:butt;stroke-linejoin:miter;stroke:#757575;stroke-opacity:1;stroke-miterlimit:10" d="m24.094 8.44.227-.386.025.222.192.113-.444.05Zm0 0" transform="scale(20)"/><path style="fill:none;stroke-width:.1;stroke-linecap:butt;stroke-linejoin:miter;stroke:#757575;stroke-opacity:1;stroke-miterlimit:10" d="m28.77 5.868-13.294 9.837" transform="scale(20)"/><path style="fill-rule:evenodd;fill:#757575;fill-opacity:1;stroke-width:.1;stroke-linecap:butt;stroke-linejoin:miter;stroke:#757575;stroke-opacity:1;stroke-miterlimit:10" d="m15.234 15.883.203-.399.039.22.199.102-.44.077Zm0 0" transform="scale(20)"/><path style="fill:none;stroke-width:.1;stroke-linecap:butt;stroke-linejoin:miter;stroke:#757575;stroke-opacity:1;stroke-miterlimit:10" d="M28.126 5.407 7.28 15.903" transform="scale(20)"/><path style="fill-rule:evenodd;fill:#757575;fill-opacity:1;stroke-width:.1;stroke-linecap:butt;stroke-linejoin:miter;stroke:#757575;stroke-opacity:1;stroke-miterlimit:10" d="m7.012 16.038.267-.359v.224l.18.133-.447.002Zm0 0" transform="scale(20)"/><path style="fill:none;stroke-width:.1;stroke-linecap:butt;stroke-linejoin:miter;stroke:#757575;stroke-opacity:1;stroke-miterlimit:10" d="M28.126 4.341 7.45 9.19" transform="scale(20)"/><path style="fill-rule:evenodd;fill:#757575;fill-opacity:1;stroke-width:.1;stroke-linecap:butt;stroke-linejoin:miter;stroke:#757575;stroke-opacity:1;stroke-miterlimit:10" d="m7.16 9.259.343-.287-.052.218.143.172-.435-.103Zm0 0" transform="scale(20)"/><path style="fill:none;stroke-width:.2;stroke-linecap:butt;stroke-linejoin:miter;stroke:#000;stroke-opacity:1;stroke-miterlimit:10" d="M19.95 8.956 7.546 4.713" transform="scale(20)"/><path style="fill-rule:evenodd;fill:#000;fill-opacity:1;stroke-width:.2;stroke-linecap:butt;stroke-linejoin:miter;stroke:#000;stroke-opacity:1;stroke-miterlimit:10" d="m7.262 4.615.443-.06-.16.158.03.221-.313-.319Zm0 0" transform="scale(20)"/><path style="stroke:none;fill-rule:evenodd;fill:#dbe7e7;fill-opacity:1" d="M26 40h108v59.977H26ZM26 46v-6c-3.313 0-6 2.688-6 6h6ZM134 46h6c0-3.313-2.688-6-6-6v6Zm0 0"/><path style="stroke:none;fill-rule:evenodd;fill:#dbe7e7;fill-opacity:1" d="M20 46h120v47.977H20ZM26 93.977h-6c0 3.316 2.688 6 6 6v-6ZM134 93.977v6c3.313 0 6-2.684 6-6h-6Zm0 0"/><path style="fill:none;stroke-width:.1;stroke-linecap:butt;stroke-linejoin:miter;stroke:#000;stroke-opacity:1;stroke-miterlimit:10" d="M1.3 2h5.4M1.3 4.999h5.4M1.3 2a.3.3 0 0 0-.3.3M7 2.3a.3.3 0 0 0-.3-.3M1 2.3v2.399M7 2.3v2.399M1 4.699a.3.3 0 0 0 .3.3M6.7 4.999a.3.3 0 0 0 .3-.3" transform="scale(20)"/><g style="fill:#000;fill-opacity:1"><use xlink:href="#a" x="32.051" y="62.5"/><use xlink:href="#b" x="41.641" y="62.5"/><use xlink:href="#c" x="51.23" y="62.5"/><use xlink:href="#b" x="60.82" y="62.5"/><use xlink:href="#d" x="70.41" y="62.5"/><use xlink:href="#e" x="80" y="62.5"/><use xlink:href="#f" x="89.59" y="62.5"/><use xlink:href="#b" x="99.18" y="62.5"/><use xlink:href="#c" x="108.77" y="62.5"/><use xlink:href="#g" x="118.359" y="62.5"/></g><g style="fill:#000;fill-opacity:1"><use xlink:href="#h" x="41.641" y="86.488"/><use xlink:href="#i" x="51.23" y="86.488"/><use xlink:href="#j" x="60.82" y="86.488"/><use xlink:href="#g" x="70.41" y="86.488"/><use xlink:href="#k" x="80" y="86.488"/><use xlink:href="#g" x="89.59" y="86.488"/><use xlink:href="#e" x="99.18" y="86.488"/><use xlink:href="#l" x="108.77" y="86.488"/></g><path style="stroke:none;fill-rule:evenodd;fill:#dbe7e7;fill-opacity:1" d="M26 170h108v59.977H26ZM26 176v-6c-3.313 0-6 2.688-6 6h6ZM134 176h6c0-3.313-2.688-6-6-6v6Zm0 0"/><path style="stroke:none;fill-rule:evenodd;fill:#dbe7e7;fill-opacity:1" d="M20 176h120v47.977H20ZM26 223.977h-6c0 3.316 2.688 6 6 6v-6ZM134 223.977v6c3.313 0 6-2.684 6-6h-6Zm0 0"/><path style="fill:none;stroke-width:.1;stroke-linecap:butt;stroke-linejoin:miter;stroke:#000;stroke-opacity:1;stroke-miterlimit:10" d="M1.3 8.5h5.4M1.3 11.499h5.4M1.3 8.5a.3.3 0 0 0-.3.3M7 8.8a.3.3 0 0 0-.3-.3M1 8.8v2.399M7 8.8v2.399M1 11.199a.3.3 0 0 0 .3.3M6.7 11.499a.3.3 0 0 0 .3-.3" transform="scale(20)"/><g style="fill:#000;fill-opacity:1"><use xlink:href="#m" x="36.855" y="192.5"/><use xlink:href="#n" x="46.445" y="192.5"/><use xlink:href="#o" x="56.035" y="192.5"/><use xlink:href="#p" x="65.625" y="192.5"/><use xlink:href="#q" x="75.215" y="192.5"/><use xlink:href="#p" x="84.805" y="192.5"/><use xlink:href="#g" x="94.395" y="192.5"/><use xlink:href="#b" x="103.984" y="192.5"/><use xlink:href="#r" x="113.574" y="192.5"/></g><g style="fill:#000;fill-opacity:1"><use xlink:href="#s" x="32.051" y="216.488"/><use xlink:href="#k" x="41.641" y="216.488"/><use xlink:href="#i" x="51.23" y="216.488"/><use xlink:href="#c" x="60.82" y="216.488"/><use xlink:href="#g" x="70.41" y="216.488"/><use xlink:href="#k" x="80" y="216.488"/><use xlink:href="#i" x="89.59" y="216.488"/><use xlink:href="#c" x="99.18" y="216.488"/><use xlink:href="#b" x="108.77" y="216.488"/><use xlink:href="#l" x="118.359" y="216.488"/></g><path style="stroke:none;fill-rule:evenodd;fill:#dbe7e7;fill-opacity:1" d="M406 170h108v59.977H406ZM406 176v-6c-3.313 0-6 2.688-6 6h6ZM514 176h6c0-3.313-2.688-6-6-6v6Zm0 0"/><path style="stroke:none;fill-rule:evenodd;fill:#dbe7e7;fill-opacity:1" d="M400 176h120v47.977H400ZM406 223.977h-6c0 3.316 2.688 6 6 6v-6ZM514 223.977v6c3.313 0 6-2.684 6-6h-6Zm0 0"/><path style="fill:none;stroke-width:.1;stroke-linecap:butt;stroke-linejoin:miter;stroke:#000;stroke-opacity:1;stroke-miterlimit:10" d="M20.3 8.5h5.4M20.3 11.499h5.4M20.3 8.5a.3.3 0 0 0-.3.3M26 8.8a.3.3 0 0 0-.3-.3M20 8.8v2.399M26 8.8v2.399M20 11.199a.3.3 0 0 0 .3.3M25.7 11.499a.3.3 0 0 0 .3-.3" transform="scale(20)"/><g style="fill:#000;fill-opacity:1"><use xlink:href="#m" x="416.855" y="192.5"/><use xlink:href="#n" x="426.445" y="192.5"/><use xlink:href="#o" x="436.035" y="192.5"/><use xlink:href="#p" x="445.625" y="192.5"/><use xlink:href="#q" x="455.215" y="192.5"/><use xlink:href="#p" x="464.805" y="192.5"/><use xlink:href="#g" x="474.395" y="192.5"/><use xlink:href="#b" x="483.984" y="192.5"/><use xlink:href="#r" x="493.574" y="192.5"/></g><g style="fill:#000;fill-opacity:1"><use xlink:href="#s" x="412.051" y="216.488"/><use xlink:href="#k" x="421.641" y="216.488"/><use xlink:href="#i" x="431.23" y="216.488"/><use xlink:href="#c" x="440.82" y="216.488"/><use xlink:href="#g" x="450.41" y="216.488"/><use xlink:href="#k" x="460" y="216.488"/><use xlink:href="#i" x="469.59" y="216.488"/><use xlink:href="#c" x="479.18" y="216.488"/><use xlink:href="#b" x="488.77" y="216.488"/><use xlink:href="#l" x="498.359" y="216.488"/></g><path style="stroke:none;fill-rule:evenodd;fill:#a1bbe5;fill-opacity:1" d="M26 320h108v59.977H26ZM26 326v-6c-3.313 0-6 2.688-6 6h6ZM134 326h6c0-3.313-2.688-6-6-6v6Zm0 0"/><path style="stroke:none;fill-rule:evenodd;fill:#a1bbe5;fill-opacity:1" d="M20 326h120v47.977H20ZM26 373.977h-6c0 3.316 2.688 6 6 6v-6ZM134 373.977v6c3.313 0 6-2.684 6-6h-6Zm0 0"/><path style="fill:none;stroke-width:.1;stroke-linecap:butt;stroke-linejoin:miter;stroke:#000;stroke-opacity:1;stroke-miterlimit:10" d="M1.3 16h5.4M1.3 18.999h5.4M1.3 16a.3.3 0 0 0-.3.3M7 16.3a.3.3 0 0 0-.3-.3M1 16.3v2.399M7 16.3v2.399M1 18.699a.3.3 0 0 0 .3.3M6.7 18.999a.3.3 0 0 0 .3-.3" transform="scale(20)"/><g style="fill:#000;fill-opacity:1"><use xlink:href="#h" x="36.855" y="354.496"/><use xlink:href="#b" x="46.445" y="354.496"/><use xlink:href="#d" x="56.035" y="354.496"/><use xlink:href="#b" x="65.625" y="354.496"/><use xlink:href="#f" x="75.215" y="354.496"/><use xlink:href="#e" x="84.805" y="354.496"/><use xlink:href="#t" x="94.395" y="354.496"/><use xlink:href="#b" x="103.984" y="354.496"/><use xlink:href="#l" x="113.574" y="354.496"/></g><path style="stroke:none;fill-rule:evenodd;fill:#a1bbe5;fill-opacity:1" d="M206 320h110v59.977H206ZM206 326v-6c-3.313 0-6 2.688-6 6h6ZM316 326h6c0-3.313-2.688-6-6-6v6Zm0 0"/><path style="stroke:none;fill-rule:evenodd;fill:#a1bbe5;fill-opacity:1" d="M200 326h122v47.977H200ZM206 373.977h-6c0 3.316 2.688 6 6 6v-6ZM316 373.977v6c3.313 0 6-2.684 6-6h-6Zm0 0"/><path style="fill:none;stroke-width:.1;stroke-linecap:butt;stroke-linejoin:miter;stroke:#000;stroke-opacity:1;stroke-miterlimit:10" d="M10.3 16h5.5M10.3 18.999h5.5M10.3 16a.3.3 0 0 0-.3.3M16.1 16.3a.3.3 0 0 0-.3-.3M10 16.3v2.399M16.1 16.3v2.399M10 18.699a.3.3 0 0 0 .3.3M15.8 18.999a.3.3 0 0 0 .3-.3" transform="scale(20)"/><g style="fill:#000;fill-opacity:1"><use xlink:href="#h" x="217.855" y="354.496"/><use xlink:href="#b" x="227.445" y="354.496"/><use xlink:href="#d" x="237.035" y="354.496"/><use xlink:href="#b" x="246.625" y="354.496"/><use xlink:href="#f" x="256.215" y="354.496"/><use xlink:href="#e" x="265.805" y="354.496"/><use xlink:href="#t" x="275.395" y="354.496"/><use xlink:href="#b" x="284.984" y="354.496"/><use xlink:href="#l" x="294.574" y="354.496"/></g><path style="stroke:none;fill-rule:evenodd;fill:#a1bbe5;fill-opacity:1" d="M406 320h110v59.977H406ZM406 326v-6c-3.313 0-6 2.688-6 6h6ZM516 326h6c0-3.313-2.688-6-6-6v6Zm0 0"/><path style="stroke:none;fill-rule:evenodd;fill:#a1bbe5;fill-opacity:1" d="M400 326h122v47.977H400ZM406 373.977h-6c0 3.316 2.688 6 6 6v-6ZM516 373.977v6c3.313 0 6-2.684 6-6h-6Zm0 0"/><path style="fill:none;stroke-width:.1;stroke-linecap:butt;stroke-linejoin:miter;stroke:#000;stroke-opacity:1;stroke-miterlimit:10" d="M20.3 16h5.5M20.3 18.999h5.5M20.3 16a.3.3 0 0 0-.3.3M26.1 16.3a.3.3 0 0 0-.3-.3M20 16.3v2.399M26.1 16.3v2.399M20 18.699a.3.3 0 0 0 .3.3M25.8 18.999a.3.3 0 0 0 .3-.3" transform="scale(20)"/><g style="fill:#000;fill-opacity:1"><use xlink:href="#h" x="417.855" y="354.496"/><use xlink:href="#b" x="427.445" y="354.496"/><use xlink:href="#d" x="437.035" y="354.496"/><use xlink:href="#b" x="446.625" y="354.496"/><use xlink:href="#f" x="456.215" y="354.496"/><use xlink:href="#e" x="465.805" y="354.496"/><use xlink:href="#t" x="475.395" y="354.496"/><use xlink:href="#b" x="484.984" y="354.496"/><use xlink:href="#l" x="494.574" y="354.496"/></g><path style="stroke:none;fill-rule:evenodd;fill:#a1bbe5;fill-opacity:1" d="M586 320h110v59.977H586ZM586 326v-6c-3.313 0-6 2.688-6 6h6ZM696 326h6c0-3.313-2.688-6-6-6v6Zm0 0"/><path style="stroke:none;fill-rule:evenodd;fill:#a1bbe5;fill-opacity:1" d="M580 326h122v47.977H580ZM586 373.977h-6c0 3.316 2.688 6 6 6v-6ZM696 373.977v6c3.313 0 6-2.684 6-6h-6Zm0 0"/><path style="fill:none;stroke-width:.1;stroke-linecap:butt;stroke-linejoin:miter;stroke:#000;stroke-opacity:1;stroke-miterlimit:10" d="M29.3 16h5.5M29.3 18.999h5.5M29.3 16a.3.3 0 0 0-.3.3M35.1 16.3a.3.3 0 0 0-.3-.3M29 16.3v2.399M35.1 16.3v2.399M29 18.699a.3.3 0 0 0 .3.3M34.8 18.999a.3.3 0 0 0 .3-.3" transform="scale(20)"/><g style="fill:#000;fill-opacity:1"><use xlink:href="#h" x="597.855" y="354.496"/><use xlink:href="#b" x="607.445" y="354.496"/><use xlink:href="#d" x="617.035" y="354.496"/><use xlink:href="#b" x="626.625" y="354.496"/><use xlink:href="#f" x="636.215" y="354.496"/><use xlink:href="#e" x="645.805" y="354.496"/><use xlink:href="#t" x="655.395" y="354.496"/><use xlink:href="#b" x="664.984" y="354.496"/><use xlink:href="#l" x="674.574" y="354.496"/></g><path style="stroke:none;fill-rule:evenodd;fill:#fdd1b2;fill-opacity:1" d="M569.516 20H714v96.484H569.516ZM569.516 26v-6c-3.317 0-6 2.688-6 6h6ZM714 26h6c0-3.313-2.688-6-6-6v6Zm0 0"/><path style="stroke:none;fill-rule:evenodd;fill:#fdd1b2;fill-opacity:1" d="M563.516 26H720v84.484H563.516ZM569.516 110.484h-6c0 3.317 2.683 6 6 6v-6ZM714 110.484v6c3.313 0 6-2.683 6-6h-6Zm0 0"/><path style="fill:none;stroke-width:.1;stroke-linecap:butt;stroke-linejoin:miter;stroke:#000;stroke-opacity:1;stroke-miterlimit:10" d="M28.476 1H35.7M28.476 5.824H35.7M28.476 1a.3.3 0 0 0-.3.3M36 1.3a.3.3 0 0 0-.3-.3M28.176 1.3v4.224M36 1.3v4.224M28.176 5.524a.3.3 0 0 0 .3.3M35.7 5.824a.3.3 0 0 0 .3-.3" transform="scale(20)"/><g style="fill:#000;fill-opacity:1"><use xlink:href="#a" x="608.203" y="60.754"/><use xlink:href="#f" x="617.793" y="60.754"/><use xlink:href="#b" x="627.383" y="60.754"/><use xlink:href="#p" x="636.973" y="60.754"/><use xlink:href="#p" x="646.563" y="60.754"/><use xlink:href="#b" x="656.152" y="60.754"/><use xlink:href="#u" x="665.742" y="60.754"/></g><g style="fill:#000;fill-opacity:1"><use xlink:href="#v" x="593.809" y="84.742"/><use xlink:href="#b" x="603.398" y="84.742"/><use xlink:href="#t" x="612.988" y="84.742"/><use xlink:href="#e" x="622.578" y="84.742"/><use xlink:href="#p" x="632.168" y="84.742"/><use xlink:href="#i" x="641.758" y="84.742"/><use xlink:href="#g" x="651.348" y="84.742"/><use xlink:href="#e" x="660.938" y="84.742"/><use xlink:href="#l" x="670.527" y="84.742"/><use xlink:href="#q" x="680.117" y="84.742"/></g></svg>