<?xml version="1.0" encoding="UTF-8" standalone="no"?>
<!DOCTYPE svg PUBLIC "-//W3C//DTD SVG 1.0//EN" "http://www.w3.org/TR/2001/PR-SVG-20010719/DTD/svg10.dtd">
<svg width="93cm" height="36cm" viewBox="-402 28 1843 713" xmlns="http://www.w3.org/2000/svg" xmlns:xlink="http://www.w3.org/1999/xlink">
  <g>
    <rect style="fill: #a6b1ed" x="-400" y="100" width="241" height="120" rx="10" ry="10"/>
    <rect style="fill: none; fill-opacity:0; stroke-width: 2; stroke-linejoin: round; stroke: #000000" x="-400" y="100" width="241" height="120" rx="10" ry="10"/>
  </g>
  <g>
    <rect style="fill: #a6b1ed" x="240" y="100" width="240" height="120" rx="10" ry="10"/>
    <rect style="fill: none; fill-opacity:0; stroke-width: 2; stroke-linejoin: round; stroke: #000000" x="240" y="100" width="240" height="120" rx="10" ry="10"/>
  </g>
  <g>
    <rect style="fill: #b5b5b5" x="880" y="100" width="240" height="120" rx="10" ry="10"/>
    <rect style="fill: none; fill-opacity:0; stroke-width: 2; stroke-linejoin: round; stroke: #000000" x="880" y="100" width="240" height="120" rx="10" ry="10"/>
  </g>
  <text font-size="12.8" style="fill: #000000;text-anchor:start;font-family:sans-serif;font-style:normal;font-weight:normal" x="360" y="160">
    <tspan x="360" y="160"></tspan>
  </text>
  <line style="fill: none; fill-opacity:0; stroke-width: 7; stroke-linejoin: round; stroke: #000000" x1="-80" y1="160" x2="-159" y2="160"/>
  <g>
    <rect style="fill: #a6b1ed" x="-80" y="100" width="241" height="120" rx="10" ry="10"/>
    <rect style="fill: none; fill-opacity:0; stroke-width: 2; stroke-linejoin: round; stroke: #000000" x="-80" y="100" width="241" height="120" rx="10" ry="10"/>
  </g>
  <text font-size="12.8" style="fill: #000000;text-anchor:start;font-family:sans-serif;font-style:normal;font-weight:normal" x="40.5" y="160">
    <tspan x="40.5" y="160"></tspan>
  </text>
  <text font-size="12.8" style="fill: #000000;text-anchor:start;font-family:sans-serif;font-style:normal;font-weight:normal" x="40.5" y="160">
    <tspan x="40.5" y="160"></tspan>
  </text>
  <text font-size="56.4444" style="fill: #000000;text-anchor:middle;font-family:monospace;font-style:normal;font-weight:normal" x="-279.5" y="175.025">
    <tspan x="-279.5" y="175.025">A</tspan>
  </text>
  <text font-size="12.8" style="fill: #000000;text-anchor:start;font-family:sans-serif;font-style:normal;font-weight:normal" x="1000" y="180">
    <tspan x="1000" y="180"></tspan>
  </text>
  <g>
    <rect style="fill: #e4c8c8" x="240" y="360" width="241" height="120" rx="10" ry="10"/>
    <rect style="fill: none; fill-opacity:0; stroke-width: 2; stroke-linejoin: round; stroke: #000000" x="240" y="360" width="241" height="120" rx="10" ry="10"/>
  </g>
  <g>
    <rect style="fill: #e4c8c8" x="560" y="360" width="241" height="120" rx="10" ry="10"/>
    <rect style="fill: none; fill-opacity:0; stroke-width: 2; stroke-linejoin: round; stroke: #000000" x="560" y="360" width="241" height="120" rx="10" ry="10"/>
  </g>
  <text font-size="56.4444" style="fill: #000000;text-anchor:middle;font-family:monospace;font-style:normal;font-weight:normal" x="40.5" y="175.025">
    <tspan x="40.5" y="175.025">B</tspan>
  </text>
  <text font-size="56.4444" style="fill: #000000;text-anchor:middle;font-family:monospace;font-style:normal;font-weight:normal" x="360" y="175.025">
    <tspan x="360" y="175.025">C</tspan>
  </text>
  <text font-size="56.4444" style="fill: #000000;text-anchor:middle;font-family:monospace;font-style:normal;font-weight:normal" x="1000" y="175.025">
    <tspan x="1000" y="175.025">F'</tspan>
  </text>
  <line style="fill: none; fill-opacity:0; stroke-width: 7; stroke-linejoin: round; stroke: #000000" x1="240" y1="160" x2="161" y2="160"/>
  <line style="fill: none; fill-opacity:0; stroke-width: 7; stroke-linejoin: round; stroke: #000000" x1="880" y1="160" x2="480" y2="160"/>
  <line style="fill: none; fill-opacity:0; stroke-width: 7; stroke-linejoin: round; stroke: #000000" x1="560" y1="420" x2="481" y2="420"/>
  <line style="fill: none; fill-opacity:0; stroke-width: 7; stroke-linejoin: round; stroke: #000000" x1="240" y1="420" x2="40.5" y2="220"/>
  <text font-size="56.4444" style="fill: #000000;text-anchor:middle;font-family:monospace;font-style:normal;font-weight:normal" x="360.5" y="435.025">
    <tspan x="360.5" y="435.025">D</tspan>
  </text>
  <text font-size="56.4444" style="fill: #000000;text-anchor:middle;font-family:monospace;font-style:normal;font-weight:normal" x="680.5" y="435.025">
    <tspan x="680.5" y="435.025">E</tspan>
  </text>
  <g>
    <rect style="fill: #ffffff" x="1200" y="620" width="240" height="120" rx="10" ry="10"/>
    <rect style="fill: none; fill-opacity:0; stroke-width: 2; stroke-linejoin: round; stroke: #ffffff" x="1200" y="620" width="240" height="120" rx="10" ry="10"/>
  </g>
  <g>
    <rect style="fill: #9eec9e" x="247.946" y="29.7264" width="224.106" height="60.5472" rx="10" ry="10"/>
    <rect style="fill: none; fill-opacity:0; stroke-width: 2; stroke-linejoin: round; stroke: #000000" x="247.946" y="29.7264" width="224.106" height="60.5472" rx="10" ry="10"/>
  </g>
  <text font-size="50.8" style="fill: #000000;text-anchor:middle;font-family:monospace;font-style:normal;font-weight:normal" x="360" y="73.525">
    <tspan x="360" y="73.525">master</tspan>
  </text>
  <g>
    <rect style="fill: #9eec9e" x="567.946" y="289.726" width="224.106" height="60.5472" rx="10" ry="10"/>
    <rect style="fill: none; fill-opacity:0; stroke-width: 2; stroke-linejoin: round; stroke: #000000" x="567.946" y="289.726" width="224.106" height="60.5472" rx="10" ry="10"/>
  </g>
  <text font-size="50.8" style="fill: #000000;text-anchor:middle;font-family:monospace;font-style:normal;font-weight:normal" x="680" y="333.525">
    <tspan x="680" y="333.525">topic</tspan>
  </text>
  <g>
    <rect style="fill: #b5b5b5" x="1200" y="100" width="240" height="120" rx="10" ry="10"/>
    <rect style="fill: none; fill-opacity:0; stroke-width: 2; stroke-linejoin: round; stroke: #000000" x="1200" y="100" width="240" height="120" rx="10" ry="10"/>
  </g>
  <line style="fill: none; fill-opacity:0; stroke-width: 7; stroke-linejoin: round; stroke: #000000" x1="1200" y1="160" x2="1120" y2="160"/>
  <g>
    <rect style="fill: #9eec9e" x="1207.95" y="29.7264" width="224.106" height="60.5472" rx="10" ry="10"/>
    <rect style="fill: none; fill-opacity:0; stroke-width: 2; stroke-linejoin: round; stroke: #000000" x="1207.95" y="29.7264" width="224.106" height="60.5472" rx="10" ry="10"/>
  </g>
  <text font-size="50.8" style="fill: #000000;text-anchor:middle;font-family:monospace;font-style:normal;font-weight:normal" x="1320" y="73.525">
    <tspan x="1320" y="73.525">bugfix</tspan>
  </text>
  <text font-size="56.4444" style="fill: #000000;text-anchor:middle;font-family:monospace;font-style:normal;font-weight:normal" x="1320" y="175.025">
    <tspan x="1320" y="175.025">G'</tspan>
  </text>
</svg>
