<svg xmlns="http://www.w3.org/2000/svg" xmlns:xlink="http://www.w3.org/1999/xlink" width="2560" height="720" viewBox="0 0 1920 540"><defs><symbol overflow="visible" id="a"><path style="stroke:none" d="m.875 0 12.414-35.773h.45L27.28 0H23.22l-3.895-10.27H8.152L4.77 0Zm17.547-13.316-4.965-13.43-4.512 13.43Zm0 0"/></symbol><symbol overflow="visible" id="b"><path style="stroke:none" d="M2.707-35.152h9.988c2.028.004 3.785.199 5.274.593 1.484.395 2.68.989 3.586 1.774.902.789 1.597 1.7 2.086 2.73.488 1.035.734 2.168.734 3.407 0 1.652-.453 3.21-1.355 4.675-.903 1.465-2.18 2.5-3.836 3.098a9.748 9.748 0 0 1 2.68 1.441 11.68 11.68 0 0 1 2.116 2.118 8.884 8.884 0 0 1 1.352 2.574c.297.926.45 1.875.453 2.851-.004 2.977-1.058 5.371-3.16 7.18C20.515-.902 17.187 0 12.641 0H2.707Zm3.895 3.273v11.285h5.484c1.566.004 2.855-.136 3.863-.426 1.008-.28 1.817-.671 2.434-1.164a4.661 4.661 0 0 0 1.37-1.785 7.47 7.47 0 0 0 .56-2.242 7.668 7.668 0 0 0-.532-2.21c-.281-.677-.722-1.27-1.316-1.786-.602-.508-1.363-.914-2.293-1.219-.934-.297-2.09-.449-3.469-.453Zm0 14.555v13.883h6.765c3.028.003 5.14-.63 6.336-1.899 1.192-1.262 1.863-2.86 2.02-4.789-.078-1.055-.285-2.016-.625-2.887a6.33 6.33 0 0 0-1.563-2.293c-.703-.66-1.652-1.16-2.844-1.504-1.195-.335-2.625-.507-4.289-.511Zm0 0"/></symbol><symbol overflow="visible" id="c"><path style="stroke:none" d="M3.047-35.152h8.183c3.004.004 5.344.418 7.024 1.242 1.672.828 3.094 2.012 4.258 3.555 1.164 1.543 2.027 3.406 2.597 5.585.563 2.184.848 4.645.848 7.391 0 2.711-.34 5.14-1.016 7.281-.68 2.149-1.609 3.98-2.793 5.5-1.187 1.528-2.722 2.684-4.601 3.47C15.664-.34 13.332.05 10.55.054H3.047ZM6.77-31.88v28.832h3.585c3.993 0 6.915-1.215 8.766-3.644 1.844-2.43 2.77-5.926 2.774-10.489-.043-4.597-.895-8.195-2.551-10.797-1.664-2.597-4.453-3.898-8.371-3.902Zm0 0"/></symbol><symbol overflow="visible" id="d"><path style="stroke:none" d="M22.457-27.188c-.004-.44-.059-.769-.168-.992a8.673 8.673 0 0 0-2.937-2.906c-1.207-.715-2.485-1.074-3.836-1.078a7.088 7.088 0 0 0-3.61.988c-1.129.66-2.129 1.621-2.992 2.88-.867 1.265-1.543 2.796-2.031 4.597-.488 1.808-.73 3.86-.73 6.152 0 2.223.242 4.246.73 6.067.488 1.828 1.176 3.386 2.058 4.683.883 1.297 1.918 2.305 3.106 3.02a7.239 7.239 0 0 0 3.808 1.07c1.391 0 2.735-.395 4.036-1.188 1.293-.789 2.336-1.859 3.132-3.214l2.934 1.918a10.945 10.945 0 0 1-2.035 2.484A13.528 13.528 0 0 1 21.41-.902c-.883.492-1.765.855-2.648 1.097-.883.242-1.778.367-2.68.367-2.035 0-3.832-.347-5.39-1.042-1.563-.696-2.993-1.774-4.29-3.243-1.3-1.465-2.308-3.328-3.02-5.586-.718-2.254-1.073-4.945-1.07-8.07-.003-3.46.41-6.348 1.243-8.66.824-2.313 1.914-4.164 3.273-5.559 1.352-1.39 2.793-2.379 4.317-2.96 1.523-.583 3-.872 4.43-.876 1.163.004 2.3.172 3.413.508 1.106.34 2.14.809 3.102 1.41.96.602 1.816 1.328 2.566 2.172.75.852 1.352 1.801 1.809 2.848l-3.781 1.863c-.157-.105-.23-.293-.227-.555Zm0 0"/></symbol><symbol overflow="visible" id="e"><path style="stroke:none" d="M4.402-35.21h20.254v3.44H8.465v11.063H21.5v3.441H8.465V0H4.402Zm0 0"/></symbol><symbol overflow="visible" id="f"><path style="stroke:none" d="m13.43-30.922-.395-3.555c-.004-1.05.238-1.828.73-2.34.485-.503 1.051-.757 1.696-.761.637.004 1.219.285 1.746.848.527.566.793 1.468.793 2.707-.04.64-.2 1.543-.48 2.707-.282 1.168-.743 2.617-1.383 4.343l-1.41 3.727-3.102-.734 1.238-3.836c.188-.563.332-1.102.426-1.61.094-.508.14-1.004.14-1.496Zm0 0"/></symbol><symbol overflow="visible" id="g"><path style="stroke:none" d="m25.844-29.625-2.766 2.824c-.23-.148-.476-.504-.734-1.074-.567-1.238-1.438-2.246-2.621-3.02-1.188-.77-2.57-1.156-4.149-1.156-1.094 0-2.215.227-3.36.68-1.148.453-2.19 1.226-3.128 2.312-.941 1.094-1.703 2.532-2.285 4.317-.586 1.789-.88 4.035-.875 6.742-.004 2.445.242 4.61.73 6.488C7.145-9.629 7.82-8.059 8.688-6.8c.863 1.262 1.89 2.223 3.078 2.88a7.71 7.71 0 0 0 3.863.987c2.441.004 4.664-.71 6.66-2.144v-8.352H15.91v-3.441h10.047v13.77C22.605-.657 19.16.561 15.629.561c-2.11 0-4-.421-5.672-1.269-1.676-.844-3.102-2.04-4.285-3.582C4.484-5.83 3.578-7.688 2.96-9.875c-.625-2.18-.934-4.605-.93-7.277-.004-3.684.457-6.77 1.383-9.254.918-2.48 2.113-4.371 3.582-5.672 1.469-1.293 2.965-2.188 4.488-2.68 1.524-.488 2.903-.73 4.145-.734 2.14.004 4.137.539 5.98 1.61 1.844 1.073 3.254 2.491 4.235 4.257Zm0 0"/></symbol><symbol overflow="visible" id="t"><path style="stroke:none" d="M3.328-35.21h21.555v3.5H7.055v11.565H21.78v3.727H7.055V-3.5h17.66V0H3.328Zm0 0"/></symbol><symbol overflow="visible" id="h"><path style="stroke:none" d="M1.93 0v-23.207H5.28v2.285a6.536 6.536 0 0 1 2.082-2.055c.844-.523 1.742-.789 2.692-.789.98 0 1.851.325 2.613.965a4.28 4.28 0 0 1 1.45 2.438c.437-1.012 1.132-1.832 2.081-2.461a5.504 5.504 0 0 1 3.098-.942c1.586 0 2.754.57 3.504 1.703.742 1.137 1.082 2.547 1.015 4.239V0h-3.351v-16.453c-.004-1.047-.055-1.875-.152-2.488-.106-.606-.274-1.07-.508-1.395-.239-.32-.477-.523-.711-.61-.239-.081-.543-.124-.914-.128-.442.004-.883.183-1.32.535-.446.36-.833.805-1.169 1.344a7.29 7.29 0 0 0-.812 1.855 6.867 6.867 0 0 0-.305 2.004V0h-3.402v-16.148c-.004-1.93-.184-3.215-.535-3.86-.36-.64-.977-.96-1.852-.965-.816.004-1.601.485-2.363 1.45-.762.964-1.145 2.312-1.14 4.035V0Zm0 0"/></symbol><symbol overflow="visible" id="i"><path style="stroke:none" d="M4.621-20.465c2.063-2.164 4.82-3.246 8.277-3.25 2.84.004 5.082.723 6.727 2.16 1.64 1.442 2.465 3.836 2.465 7.184V0h-3.453v-2.54C16.164-.472 13.387.556 10.309.56 9.086.555 7.996.37 7.03 0c-.965-.371-1.785-.86-2.46-1.473A6.17 6.17 0 0 1 3.02-3.555c-.36-.777-.536-1.554-.532-2.336-.004-2.332 1.004-4.18 3.02-5.535 2.015-1.351 4.918-2.094 8.71-2.234h4.368v-.871c0-2.317-.484-3.934-1.45-4.856-.964-.918-2.46-1.379-4.491-1.383-2.508.004-4.59.883-6.247 2.641Zm14.117 9.598h-.863c-.477.004-.926-.004-1.348-.024-.425-.015-.84-.023-1.242-.027-1.863.004-3.387.129-4.57.383-1.188.254-2.117.601-2.793 1.039-.68.441-1.149.941-1.399 1.5a4.185 4.185 0 0 0-.378 1.8c-.004 1.087.468 2.016 1.421 2.794.946.78 2.114 1.172 3.504 1.168 1.012.004 1.926-.157 2.742-.48.81-.321 1.52-.712 2.133-1.169.606-.457 1.098-.93 1.473-1.422.371-.488.64-.922.812-1.297.336-.675.508-1.59.508-2.742Zm0 0"/></symbol><symbol overflow="visible" id="j"><path style="stroke:none" d="m21.938-20.11-2.133 3.2c-.172-.031-.258-.164-.258-.406 0-.235-.035-.407-.102-.508-.617-.778-1.488-1.496-2.613-2.156-1.129-.66-2.41-.989-3.84-.993a7.72 7.72 0 0 0-1.87.23 6.06 6.06 0 0 0-1.587.634 3.213 3.213 0 0 0-1.101 1.043 2.543 2.543 0 0 0-.41 1.445c-.004.41.097.773.304 1.094.203.324.527.636.973.937.437.309 1.062.613 1.867.914.8.309 1.848.649 3.145 1.016 2.93.781 5 1.703 6.214 2.77 1.207 1.066 1.813 2.378 1.817 3.933a6.656 6.656 0 0 1-.66 2.894c-.442.918-1.086 1.711-1.93 2.387-.852.68-1.867 1.215-3.047 1.602-1.187.387-2.523.578-4.012.582-3.894-.004-7.16-1.219-9.8-3.656l2.082-3.657c.097.11.168.274.203.496.03.227.148.497.36.805.202.316.577.672 1.124 1.066.543.403 1.379.844 2.508 1.325.508.246 1.09.418 1.738.52.649.105 1.297.155 1.945.155.68 0 1.368-.082 2.07-.253a7.201 7.201 0 0 0 1.895-.743 4.337 4.337 0 0 0 1.356-1.175c.34-.457.508-.977.512-1.559-.004-.883-.41-1.633-1.227-2.246-.82-.613-2.32-1.242-4.5-1.895-1.5-.437-2.492-.746-2.969-.918-1.23-.476-2.117-.89-2.66-1.25a7.284 7.284 0 0 1-1.484-1.273 5.906 5.906 0 0 1-1.075-1.68 5.043 5.043 0 0 1-.406-2.066c-.004-.813.219-1.594.66-2.344.438-.746 1.055-1.406 1.852-1.988.797-.574 1.742-1.043 2.844-1.402 1.097-.356 2.293-.536 3.582-.536 3.55 0 6.43 1.22 8.633 3.657Zm0 0"/></symbol><symbol overflow="visible" id="k"><path style="stroke:none" d="m9.547-29.402 3.96-.66a2.55 2.55 0 0 1-.128.812 5.453 5.453 0 0 0-.176.559l-.61 5.484h7.618v2.945h-7.617c-.309 3.032-.461 5.875-.457 8.532a65.325 65.325 0 0 0 .101 4.136c.067 1.125.246 2.012.535 2.657.29.648.704 1.152 1.25 1.507.54.36 1.274.535 2.196.535 1.562 0 3.297-.71 5.207-2.132l1.12 2.894c-2.335 1.727-4.741 2.59-7.21 2.59-2.441 0-4.219-.738-5.332-2.215C8.883-3.234 8.375-5.633 8.48-8.96c-.003-1.219.032-2.781.102-4.684.066-1.898.203-4.105.406-6.617H3.555v-2.945H9.14Zm0 0"/></symbol><symbol overflow="visible" id="l"><path style="stroke:none" d="M13.152-23.766c1.215 0 2.399.223 3.555.66a8.339 8.339 0 0 1 3.02 2.008c.863.899 1.558 2.04 2.082 3.426.523 1.39.785 3.035.789 4.926-.004.273-.012.55-.028.84-.015.289-.043.57-.074.836H5.992c.067 1.629.344 2.992.836 4.09.488 1.101 1.11 1.988 1.856 2.664a6.516 6.516 0 0 0 2.488 1.449c.91.289 1.824.43 2.742.43 2.402 0 4.399-.864 5.992-2.59l2.032 1.98C19.973-.68 17.261.503 13.813.508 12.117.504 10.57.246 9.163-.277 7.758-.801 6.563-1.574 5.586-2.59 4.602-3.605 3.84-4.863 3.3-6.37c-.547-1.504-.817-3.223-.813-5.156-.004-1.961.274-3.707.836-5.23.555-1.524 1.317-2.802 2.285-3.833a9.798 9.798 0 0 1 3.38-2.363c1.284-.54 2.671-.813 4.163-.813Zm-7.007 9.75H18.89c0-.132.007-.257.023-.375a4.03 4.03 0 0 0 .027-.425 6.06 6.06 0 0 0-.484-2.375 6.355 6.355 0 0 0-1.293-1.954 6.575 6.575 0 0 0-1.906-1.328 5.679 5.679 0 0 0-2.36-.5c-1.593.004-3.03.563-4.316 1.676-1.289 1.121-2.102 2.879-2.437 5.281Zm0 0"/></symbol><symbol overflow="visible" id="m"><path style="stroke:none" d="M5.027-23.207h3.758l-.101 4.469a7.694 7.694 0 0 1 3.386-3.73 10.041 10.041 0 0 1 4.973-1.298c2.512 0 4.582.848 6.215 2.54l-1.676 3.503a22.31 22.31 0 0 0-1.02-1.27 5.56 5.56 0 0 0-.996-.862 4.904 4.904 0 0 0-1.171-.56c-.43-.132-.946-.198-1.555-.202a6.688 6.688 0 0 0-3.164.789 8.699 8.699 0 0 0-2.574 2.082 10.563 10.563 0 0 0-1.758 2.969 9.448 9.448 0 0 0-.66 3.504V.05H5.027Zm0 0"/></symbol><symbol overflow="visible" id="n"><path style="stroke:none" d="M3.047-33.77h4.215v.102c-.004.172-.098.336-.282.484-.187.157-.277.332-.277.532v13a8.442 8.442 0 0 1 3.031-2.996c1.27-.743 2.57-1.118 3.895-1.118 1.289 0 2.512.246 3.668.739 1.156.492 2.176 1.238 3.058 2.234.883 1 1.579 2.242 2.086 3.73.508 1.493.762 3.239.766 5.231-.004 2.102-.285 3.922-.84 5.46-.562 1.544-1.3 2.829-2.215 3.86-.922 1.035-1.957 1.805-3.109 2.309a8.84 8.84 0 0 1-3.563.762c-1.43-.004-2.738-.32-3.925-.965a8.405 8.405 0 0 1-2.953-2.64L5.352 0H3.047ZM9.375-3.652c.648.343 1.23.57 1.746.683.516.121.996.18 1.441.176.684.004 1.434-.121 2.258-.379.82-.25 1.586-.695 2.29-1.336.703-.637 1.285-1.496 1.745-2.574.461-1.074.692-2.438.696-4.094-.004-3.058-.637-5.398-1.903-7.015-1.27-1.614-3.105-2.422-5.5-2.426-.859.004-1.765.308-2.722.91-.961.61-1.664 1.414-2.106 2.422-.414 1.012-.617 2.664-.617 4.95 0 1.417.031 2.612.102 3.585.066.977.203 1.793.41 2.45.203.66.48 1.187.824 1.59.344.405.79.76 1.336 1.058Zm0 0"/></symbol><symbol overflow="visible" id="o"><path style="stroke:none" d="M3.2-23.207h3.655v12.95c0 1.491.133 2.737.407 3.734.27 1 .652 1.8 1.148 2.41.492.61 1.055 1.05 1.684 1.32.629.273 1.316.41 2.066.406a6.843 6.843 0 0 0 2.344-.61A6.439 6.439 0 0 0 16.52-4.44c.593-.625 1.062-1.43 1.402-2.414.34-.98.512-2.165.512-3.555v-12.797h3.656v21.125c0 .781.082 1.473.254 2.082h-3.809c-.039-.234-.07-.496-.101-.785a4.66 4.66 0 0 1 0-.992l.05-1.778a8.128 8.128 0 0 1-3.03 3.024C14.175.195 12.776.555 11.25.559 10.059.555 8.988.348 8.04-.074c-.954-.422-1.813-1.074-2.575-1.957-.766-.88-1.344-1.996-1.73-3.352-.395-1.351-.59-2.976-.587-4.875Zm0 0"/></symbol><symbol overflow="visible" id="p"><path style="stroke:none" d="M7.871-19.508a4.767 4.767 0 0 0-1.117 1.668 5.223 5.223 0 0 0-.356 1.918c0 .68.133 1.328.407 1.95a4.96 4.96 0 0 0 1.09 1.617c.453.457.996.82 1.625 1.085a4.76 4.76 0 0 0 1.957.403 4.74 4.74 0 0 0 1.98-.403 5.285 5.285 0 0 0 1.625-1.113A5.327 5.327 0 0 0 16.199-14c.27-.602.406-1.242.406-1.922 0-.668-.136-1.316-.406-1.941a5.402 5.402 0 0 0-1.117-1.645 5.367 5.367 0 0 0-1.652-1.11 4.889 4.889 0 0 0-1.953-.405c-1.391 0-2.594.507-3.606 1.515Zm9.344-2.226c1.625-1.383 3.555-2.078 5.789-2.082h.66l.457 3.046a9.704 9.704 0 0 0-1.371-.102c-1.492 0-2.828.356-4.012 1.067a7.03 7.03 0 0 1 1.168 3.91 7.418 7.418 0 0 1-.66 3.075 8.179 8.179 0 0 1-1.805 2.539 8.534 8.534 0 0 1-2.664 1.726 8.396 8.396 0 0 1-3.25.633c-.953 0-1.933-.183-2.945-.558-1.086 1.054-1.629 1.933-1.625 2.64-.004.578.328 1.027.988 1.348.66.324 1.567.484 2.72.48.64.004 1.288-.02 1.952-.074a28.976 28.976 0 0 1 1.856-.078c1.523.004 2.832.148 3.933.434 1.098.289 1.989.695 2.668 1.218.676.528 1.184 1.145 1.524 1.852.336.71.504 1.469.507 2.285a5.89 5.89 0 0 1-.66 2.664c-.441.863-1.101 1.625-1.98 2.285-.883.66-1.992 1.184-3.328 1.574-1.34.387-2.907.582-4.696.586-1.867-.004-3.464-.148-4.8-.433-1.336-.29-2.41-.688-3.223-1.192-.813-.511-1.434-1.093-1.856-1.754A3.784 3.784 0 0 1 1.93 3.25C1.926 1.418 3.195-.29 5.738-1.879c-1.258-.64-1.883-1.707-1.879-3.2-.004-1.452.875-2.91 2.641-4.366a7.558 7.558 0 0 1-2.54-2.742 7.31 7.31 0 0 1-.913-3.555c0-1.149.234-2.223.71-3.223a8.586 8.586 0 0 1 1.903-2.617 8.98 8.98 0 0 1 2.742-1.75 8.394 8.394 0 0 1 3.176-.637c2.266.004 4.145.75 5.637 2.235ZM8.175-1.22C6.243-.137 5.278 1.047 5.282 2.336c-.004.676.192 1.242.582 1.7.387.456.91.827 1.574 1.116.657.285 1.438.5 2.336.637.899.133 1.836.2 2.82.203 2.063-.004 3.774-.375 5.13-1.117 1.351-.746 2.027-1.746 2.03-2.996-.07-.918-.448-1.625-1.144-2.133-.695-.504-1.789-.758-3.273-.762-.172.004-.34.012-.508.028-.172.02-.34.027-.508.023-1.289.004-2.441-.02-3.453-.074a60.698 60.698 0 0 1-2.691-.18Zm0 0"/></symbol><symbol overflow="visible" id="q"><path style="stroke:none" d="M17.418-34.074c2.941.004 5.312 1.07 7.11 3.199l-1.676 3.352c-.274.003-.41-.13-.407-.399-.004-.265-.039-.469-.101-.601-.547-.766-1.266-1.391-2.16-1.88a6.142 6.142 0 0 0-2.918-.726c-.883.004-1.645.129-2.286.379-.644.254-1.218.668-1.726 1.238-.508.575-.89 1.348-1.145 2.325-.254.976-.379 2.171-.379 3.582v1.77h7.618v2.944H11.73V0H8.227v-18.89H3.199v-2.946h5.028v-2.285c0-1.793.226-3.324.683-4.594.457-1.27 1.117-2.293 1.98-3.074a8.456 8.456 0 0 1 2.946-1.727c1.098-.37 2.293-.554 3.582-.558Zm0 0"/></symbol><symbol overflow="visible" id="r"><path style="stroke:none" d="M5.383-23.207h9.293v20.262h5.433V0H5.08v-2.945h5.94v-17.317H5.384Zm5.687-9.344a2.511 2.511 0 0 1 1.828-.761c.707.003 1.325.265 1.852.789.523.527.79 1.144.79 1.851 0 .715-.267 1.324-.79 1.828-.527.512-1.145.766-1.852.762a2.451 2.451 0 0 1-1.828-.762 2.451 2.451 0 0 1-.761-1.828c-.004-.742.25-1.367.761-1.879Zm0 0"/></symbol><symbol overflow="visible" id="s"><path style="stroke:none" d="M18.383-23.207h3.758l-7.516 11.273L23.156 0h-4.164l-6.398-9.04L6.55 0H2.387l8.176-11.781-8.024-11.426h4.012l6.043 8.582Zm0 0"/></symbol><symbol overflow="visible" id="u"><path style="stroke:none" d="M12.898-23.715a9.984 9.984 0 0 1 4.036.84 9.758 9.758 0 0 1 3.328 2.41c.945 1.05 1.695 2.328 2.258 3.836.554 1.508.835 3.192.84 5.05-.005 1.9-.274 3.595-.813 5.079-.543 1.492-1.29 2.77-2.235 3.836a9.525 9.525 0 0 1-3.351 2.437C15.67.332 14.3.61 12.848.61a9.761 9.761 0 0 1-4.192-.914A10.84 10.84 0 0 1 5.23-2.816C4.246-3.883 3.47-5.16 2.895-6.652c-.579-1.485-.868-3.094-.864-4.825a13.252 13.252 0 0 1 .887-4.875c.594-1.52 1.387-2.812 2.387-3.882a11.482 11.482 0 0 1 3.48-2.54 9.541 9.541 0 0 1 4.113-.94Zm6.805 12.238c-.004-1.453-.2-2.746-.586-3.882-.39-1.133-.906-2.09-1.547-2.871-.644-.774-1.383-1.368-2.21-1.778a5.991 5.991 0 0 0-2.614-.61 5.97 5.97 0 0 0-2.617.61c-.832.41-1.559 1.004-2.184 1.778-.625.78-1.125 1.718-1.496 2.82-.375 1.101-.562 2.348-.558 3.73-.004 1.36.183 2.594.558 3.707.371 1.121.871 2.086 1.496 2.895.625.816 1.36 1.441 2.211 1.879a5.68 5.68 0 0 0 2.692.66 6.128 6.128 0 0 0 2.664-.582 6.18 6.18 0 0 0 2.183-1.727c.625-.757 1.114-1.699 1.473-2.82.352-1.113.531-2.383.535-3.809Zm0 0"/></symbol><symbol overflow="visible" id="v"><path style="stroke:none" d="M3.047-23.207h3.605v3.555a8.524 8.524 0 0 1 3.141-2.97c1.309-.726 2.629-1.089 3.96-1.093 1.29.004 2.524.25 3.704.738a8.911 8.911 0 0 1 3.117 2.207c.899.985 1.613 2.22 2.145 3.707.523 1.493.789 3.254.793 5.282-.004 2.035-.285 3.828-.844 5.383-.566 1.558-1.309 2.855-2.223 3.886-.922 1.035-1.968 1.813-3.14 2.336-1.18.524-2.38.785-3.602.785-1.433 0-2.762-.32-3.984-.964a8.126 8.126 0 0 1-3.016-2.692V8.48H3.047ZM6.652-9.711c.063 2.496.645 4.281 1.739 5.356 1.093 1.078 2.441 1.613 4.046 1.613.848 0 1.7-.133 2.555-.403.852-.27 1.637-.734 2.356-1.39.715-.656 1.285-1.52 1.715-2.598.421-1.074.636-2.422.64-4.043-.004-2.957-.629-5.254-1.871-6.89-1.25-1.63-2.996-2.48-5.242-2.551a6.877 6.877 0 0 0-2.102.355c-.718.235-1.36.64-1.918 1.211-.566.578-1.027 1.344-1.383 2.297-.359.961-.539 2.145-.535 3.559Zm0 0"/></symbol><symbol overflow="visible" id="w"><path style="stroke:none" d="m23.207-19.348-2.59 2.996c-.172-.097-.25-.207-.23-.328.015-.117 0-.277-.051-.484-.055-.2-.184-.453-.387-.762-.207-.3-.613-.707-1.222-1.219-1.165-.945-2.75-1.421-4.758-1.421-.992 0-1.942.203-2.84.609-.906.406-1.7.988-2.379 1.746-.688.758-1.23 1.672-1.637 2.734-.41 1.067-.617 2.254-.613 3.57-.004 1.317.203 2.532.613 3.645.407 1.117.969 2.082 1.688 2.887a7.54 7.54 0 0 0 2.558 1.898c.989.461 2.079.688 3.274.684 2.347.004 4.379-.926 6.086-2.793l2.133 2.488C20.547-.66 17.719.555 14.372.56 12.71.555 11.18.254 9.772-.355a10.968 10.968 0 0 1-3.656-2.54c-1.031-1.082-1.836-2.359-2.41-3.832-.578-1.472-.867-3.09-.863-4.851-.004-1.727.285-3.332.863-4.824.574-1.485 1.379-2.762 2.41-3.832 1.031-1.063 2.266-1.903 3.707-2.516 1.438-.605 3.004-.91 4.7-.914 1.824.004 3.492.387 5 1.144a9.893 9.893 0 0 1 3.683 3.172Zm0 0"/></symbol></defs><path style="stroke:none;fill-rule:nonzero;fill:#fff;fill-opacity:1" d="M0 0h1480v520H0Zm0 0"/><path style="fill:none;stroke-width:0;stroke-linecap:butt;stroke-linejoin:miter;stroke:#000;stroke-opacity:1;stroke-miterlimit:10" d="M-22-1h96v27h-96Zm0 0" transform="matrix(20 0 0 20 440 20)"/><path style="fill:none;stroke-width:.35;stroke-linecap:butt;stroke-linejoin:miter;stroke:#000;stroke-opacity:1;stroke-miterlimit:10" d="M-3.895 8H-8M12.21 8H8.106M12.842 21 2.105 11M60 8.105h-4.105" transform="matrix(20 0 0 20 440 20)"/><path style="stroke:none;fill-rule:evenodd;fill:#a1bbe5;fill-opacity:1" d="M50 120h220v120H50ZM50 130v-10c-5.523 0-10 4.477-10 10h10ZM270 130h10c0-5.523-4.477-10-10-10v10Zm0 0"/><path style="stroke:none;fill-rule:evenodd;fill:#a1bbe5;fill-opacity:1" d="M40 130h240v100H40ZM50 230H40c0 5.523 4.477 10 10 10v-10ZM270 230v10c5.523 0 10-4.477 10-10h-10Zm0 0"/><path style="fill:none;stroke-width:.1;stroke-linecap:butt;stroke-linejoin:miter;stroke:#000;stroke-opacity:1;stroke-miterlimit:10" d="M-19.5 5h11M-19.5 11h11M-19.5 5a.5.5 0 0 0-.5.5M-8 5.5a.5.5 0 0 0-.5-.5M-20 5.5v5M-8 5.5v5M-20 10.5a.5.5 0 0 0 .5.5M-8.5 11a.5.5 0 0 0 .5-.5" transform="matrix(20 0 0 20 440 20)"/><use xlink:href="#a" x="145.898" y="193.223" style="fill:#000;fill-opacity:1"/><path style="stroke:none;fill-rule:evenodd;fill:#a1bbe5;fill-opacity:1" d="M372.105 120h220v120h-220ZM372.105 130v-10c-5.523 0-10 4.477-10 10h10ZM592.105 130h10c0-5.523-4.476-10-10-10v10Zm0 0"/><path style="stroke:none;fill-rule:evenodd;fill:#a1bbe5;fill-opacity:1" d="M362.105 130h240v100h-240ZM372.105 230h-10c0 5.523 4.477 10 10 10v-10ZM592.105 230v10c5.524 0 10-4.477 10-10h-10Zm0 0"/><path style="fill:none;stroke-width:.1;stroke-linecap:butt;stroke-linejoin:miter;stroke:#000;stroke-opacity:1;stroke-miterlimit:10" d="M-3.395 5h11M-3.395 11h11M-3.395 5a.5.5 0 0 0-.5.5M8.105 5.5a.5.5 0 0 0-.5-.5M-3.895 5.5v5M8.105 5.5v5M-3.895 10.5a.5.5 0 0 0 .5.5M7.605 11a.5.5 0 0 0 .5-.5" transform="matrix(20 0 0 20 440 20)"/><use xlink:href="#b" x="468.004" y="193.223" style="fill:#000;fill-opacity:1"/><path style="stroke:none;fill-rule:evenodd;fill:#e9a4de;fill-opacity:1" d="M706.844 380h220v120h-220ZM706.844 390v-10c-5.524 0-10 4.477-10 10h10ZM926.844 390h10c0-5.523-4.48-10-10-10v10Zm0 0"/><path style="stroke:none;fill-rule:evenodd;fill:#e9a4de;fill-opacity:1" d="M696.844 390h240v100h-240ZM706.844 490h-10c0 5.523 4.476 10 10 10v-10ZM926.844 490v10c5.52 0 10-4.477 10-10h-10Zm0 0"/><path style="fill:none;stroke-width:.1;stroke-linecap:butt;stroke-linejoin:miter;stroke:#000;stroke-opacity:1;stroke-miterlimit:10" d="M13.342 18h11M13.342 24h11M13.342 18a.5.5 0 0 0-.5.5M24.842 18.5a.5.5 0 0 0-.5-.5M12.842 18.5v5M24.842 18.5v5M12.842 23.5a.5.5 0 0 0 .5.5M24.342 24a.5.5 0 0 0 .5-.5" transform="matrix(20 0 0 20 440 20)"/><use xlink:href="#c" x="802.742" y="453.223" style="fill:#000;fill-opacity:1"/><path style="stroke:none;fill-rule:evenodd;fill:#a1bbe5;fill-opacity:1" d="M694.21 120h220v120h-220ZM694.21 130v-10c-5.523 0-10 4.477-10 10h10ZM914.21 130h10c0-5.523-4.476-10-10-10v10Zm0 0"/><path style="stroke:none;fill-rule:evenodd;fill:#a1bbe5;fill-opacity:1" d="M684.21 130h240v100h-240ZM694.21 230h-10c0 5.523 4.477 10 10 10v-10ZM914.21 230v10c5.524 0 10-4.477 10-10h-10Zm0 0"/><path style="fill:none;stroke-width:.1;stroke-linecap:butt;stroke-linejoin:miter;stroke:#000;stroke-opacity:1;stroke-miterlimit:10" d="M12.71 5h11M12.71 11h11M12.71 5a.5.5 0 0 0-.5.5M24.21 5.5a.5.5 0 0 0-.5-.5M12.21 5.5v5M24.21 5.5v5M12.21 10.5a.5.5 0 0 0 .5.5M23.71 11a.5.5 0 0 0 .5-.5" transform="matrix(20 0 0 20 440 20)"/><use xlink:href="#d" x="790.109" y="193.223" style="fill:#000;fill-opacity:1"/><path style="stroke:none;fill-rule:evenodd;fill:#dedede;fill-opacity:1" d="M1327.895 122.105h220v120h-220ZM1327.895 132.105v-10c-5.524 0-10 4.477-10 10h10ZM1547.895 132.105h10c0-5.523-4.477-10-10-10v10Zm0 0"/><path style="stroke:none;fill-rule:evenodd;fill:#dedede;fill-opacity:1" d="M1317.895 132.105h240v100h-240ZM1327.895 232.105h-10c0 5.524 4.476 10 10 10v-10ZM1547.895 232.105v10c5.523 0 10-4.476 10-10h-10Zm0 0"/><path style="fill:none;stroke-width:.1;stroke-linecap:butt;stroke-linejoin:miter;stroke:#000;stroke-opacity:1;stroke-miterlimit:10" d="M44.395 5.105h11M44.395 11.105h11M44.395 5.105a.5.5 0 0 0-.5.5M55.895 5.605a.5.5 0 0 0-.5-.5M43.895 5.605v5M55.895 5.605v5M43.895 10.605a.5.5 0 0 0 .5.5M55.395 11.105a.5.5 0 0 0 .5-.5" transform="matrix(20 0 0 20 440 20)"/><g style="fill:#000;fill-opacity:1"><use xlink:href="#e" x="1409.672" y="195.328"/><use xlink:href="#f" x="1437.895" y="195.328"/></g><path style="stroke:none;fill-rule:evenodd;fill:#dedede;fill-opacity:1" d="M1650 122.105h220v120h-220ZM1650 132.105v-10c-5.523 0-10 4.477-10 10h10ZM1870 132.105h10c0-5.523-4.477-10-10-10v10Zm0 0"/><path style="stroke:none;fill-rule:evenodd;fill:#dedede;fill-opacity:1" d="M1640 132.105h240v100h-240ZM1650 232.105h-10c0 5.524 4.477 10 10 10v-10ZM1870 232.105v10c5.523 0 10-4.476 10-10h-10Zm0 0"/><path style="fill:none;stroke-width:.1;stroke-linecap:butt;stroke-linejoin:miter;stroke:#000;stroke-opacity:1;stroke-miterlimit:10" d="M60.5 5.105h11M60.5 11.105h11M60.5 5.105a.5.5 0 0 0-.5.5M72 5.605a.5.5 0 0 0-.5-.5M60 5.605v5M72 5.605v5M60 10.605a.5.5 0 0 0 .5.5M71.5 11.105a.5.5 0 0 0 .5-.5" transform="matrix(20 0 0 20 440 20)"/><g style="fill:#000;fill-opacity:1"><use xlink:href="#g" x="1731.777" y="195.328"/><use xlink:href="#f" x="1760" y="195.328"/></g><path style="stroke:none;fill-rule:evenodd;fill:#a9e5a1;fill-opacity:1" d="M694.21 40h220v65.5h-220ZM694.21 50V40c-5.523 0-10 4.477-10 10h10ZM914.21 50h10c0-5.523-4.476-10-10-10v10Zm0 0"/><path style="stroke:none;fill-rule:evenodd;fill:#a9e5a1;fill-opacity:1" d="M684.21 50h240v45.5h-240ZM694.21 95.5h-10c0 5.523 4.477 10 10 10v-10ZM914.21 95.5v10c5.524 0 10-4.477 10-10h-10Zm0 0"/><path style="fill:none;stroke-width:.1;stroke-linecap:butt;stroke-linejoin:miter;stroke:#000;stroke-opacity:1;stroke-miterlimit:10" d="M12.71 1h11M12.71 4.275h11M12.71 1a.5.5 0 0 0-.5.5M24.21 1.5a.5.5 0 0 0-.5-.5M12.21 1.5v2.275M24.21 1.5v2.275M12.21 3.775a.5.5 0 0 0 .5.5M23.71 4.275a.5.5 0 0 0 .5-.5" transform="matrix(20 0 0 20 440 20)"/><g style="fill:#000;fill-opacity:1"><use xlink:href="#h" x="728.039" y="84.648"/><use xlink:href="#i" x="753.43" y="84.648"/><use xlink:href="#j" x="778.82" y="84.648"/><use xlink:href="#k" x="804.211" y="84.648"/><use xlink:href="#l" x="829.602" y="84.648"/><use xlink:href="#m" x="854.992" y="84.648"/></g><path style="stroke:none;fill-rule:evenodd;fill:#a9e5a1;fill-opacity:1" d="M1650 42.105h220v65.5h-220ZM1650 52.105v-10c-5.523 0-10 4.477-10 10h10ZM1870 52.105h10c0-5.523-4.477-10-10-10v10Zm0 0"/><path style="stroke:none;fill-rule:evenodd;fill:#a9e5a1;fill-opacity:1" d="M1640 52.105h240v45.5h-240ZM1650 97.605h-10c0 5.524 4.477 10 10 10v-10ZM1870 97.605v10c5.523 0 10-4.476 10-10h-10Zm0 0"/><path style="fill:none;stroke-width:.1;stroke-linecap:butt;stroke-linejoin:miter;stroke:#000;stroke-opacity:1;stroke-miterlimit:10" d="M60.5 1.105h11M60.5 4.38h11M60.5 1.105a.5.5 0 0 0-.5.5M72 1.605a.5.5 0 0 0-.5-.5M60 1.605V3.88M72 1.605V3.88M60 3.88a.5.5 0 0 0 .5.5M71.5 4.38a.5.5 0 0 0 .5-.5" transform="matrix(20 0 0 20 440 20)"/><g style="fill:#000;fill-opacity:1"><use xlink:href="#n" x="1683.828" y="86.754"/><use xlink:href="#o" x="1709.219" y="86.754"/><use xlink:href="#p" x="1734.609" y="86.754"/><use xlink:href="#q" x="1760" y="86.754"/><use xlink:href="#r" x="1785.391" y="86.754"/><use xlink:href="#s" x="1810.781" y="86.754"/></g><path style="stroke:none;fill-rule:evenodd;fill:#e9a4de;fill-opacity:1" d="M1028.95 380h220v120h-220ZM1028.95 390v-10c-5.524 0-10 4.477-10 10h10ZM1248.95 390h10c0-5.523-4.477-10-10-10v10Zm0 0"/><path style="stroke:none;fill-rule:evenodd;fill:#e9a4de;fill-opacity:1" d="M1018.95 390h240v100h-240ZM1028.95 490h-10c0 5.523 4.476 10 10 10v-10ZM1248.95 490v10c5.523 0 10-4.477 10-10h-10Zm0 0"/><path style="fill:none;stroke-width:.1;stroke-linecap:butt;stroke-linejoin:miter;stroke:#000;stroke-opacity:1;stroke-miterlimit:10" d="M29.447 18h11M29.447 24h11M29.447 18a.5.5 0 0 0-.5.5M40.947 18.5a.5.5 0 0 0-.5-.5M28.947 18.5v5M40.947 18.5v5M28.947 23.5a.5.5 0 0 0 .5.5M40.447 24a.5.5 0 0 0 .5-.5" transform="matrix(20 0 0 20 440 20)"/><use xlink:href="#t" x="1124.848" y="453.223" style="fill:#000;fill-opacity:1"/><path style="stroke:none;fill-rule:evenodd;fill:#a9e5a1;fill-opacity:1" d="M1030 300h220v65.5h-220ZM1030 310v-10c-5.523 0-10 4.477-10 10h10ZM1250 310h10c0-5.523-4.477-10-10-10v10Zm0 0"/><path style="stroke:none;fill-rule:evenodd;fill:#a9e5a1;fill-opacity:1" d="M1020 310h240v45.5h-240ZM1030 355.5h-10c0 5.523 4.477 10 10 10v-10ZM1250 355.5v10c5.523 0 10-4.477 10-10h-10Zm0 0"/><path style="fill:none;stroke-width:.1;stroke-linecap:butt;stroke-linejoin:miter;stroke:#000;stroke-opacity:1;stroke-miterlimit:10" d="M29.5 14h11M29.5 17.275h11M29.5 14a.5.5 0 0 0-.5.5M41 14.5a.5.5 0 0 0-.5-.5M29 14.5v2.275M41 14.5v2.275M29 16.775a.5.5 0 0 0 .5.5M40.5 17.275a.5.5 0 0 0 .5-.5" transform="matrix(20 0 0 20 440 20)"/><g style="fill:#000;fill-opacity:1"><use xlink:href="#k" x="1076.523" y="344.648"/><use xlink:href="#u" x="1101.914" y="344.648"/><use xlink:href="#v" x="1127.305" y="344.648"/><use xlink:href="#r" x="1152.695" y="344.648"/><use xlink:href="#w" x="1178.086" y="344.648"/></g><path style="fill:none;stroke-width:.35;stroke-linecap:butt;stroke-linejoin:miter;stroke:#000;stroke-opacity:1;stroke-miterlimit:10" d="M28.947 21h-4.105M43.895 8.105 24.21 8" transform="matrix(20 0 0 20 440 20)"/></svg>