<?xml version="1.0" encoding="UTF-8" standalone="no"?>
<!DOCTYPE svg PUBLIC "-//W3C//DTD SVG 1.0//EN" "http://www.w3.org/TR/2001/PR-SVG-20010719/DTD/svg10.dtd">
<svg width="45cm" height="47cm" viewBox="458 -642 884 929" xmlns="http://www.w3.org/2000/svg" xmlns:xlink="http://www.w3.org/1999/xlink">
  <g>
    <rect style="fill: #e4c8c8" x="460" y="80" width="241" height="120" rx="10" ry="10"/>
    <rect style="fill: none; fill-opacity:0; stroke-width: 2; stroke-linejoin: round; stroke: #000000" x="460" y="80" width="241" height="120" rx="10" ry="10"/>
  </g>
  <g>
    <line style="fill: none; fill-opacity:0; stroke-width: 7; stroke-linejoin: round; stroke: #000000" x1="580.5" y1="0" x2="580.5" y2="64.6738"/>
    <polygon style="fill: #000000" points="580.5,72.1738 575.5,62.1738 580.5,64.6738 585.5,62.1738 "/>
    <polygon style="fill: none; fill-opacity:0; stroke-width: 7; stroke: #000000" points="580.5,72.1738 575.5,62.1738 580.5,64.6738 585.5,62.1738 "/>
  </g>
  <g>
    <rect style="fill: #e4c8c8" x="460" y="-120" width="241" height="120" rx="10" ry="10"/>
    <rect style="fill: none; fill-opacity:0; stroke-width: 2; stroke-linejoin: round; stroke: #000000" x="460" y="-120" width="241" height="120" rx="10" ry="10"/>
  </g>
  <text font-size="12.8" style="fill: #000000;text-anchor:start;font-family:sans-serif;font-style:normal;font-weight:normal" x="580.5" y="-60">
    <tspan x="580.5" y="-60"></tspan>
  </text>
  <text font-size="12.8" style="fill: #000000;text-anchor:start;font-family:sans-serif;font-style:normal;font-weight:normal" x="580.5" y="-60">
    <tspan x="580.5" y="-60"></tspan>
  </text>
  <text font-size="39.5111" style="fill: #000000;text-anchor:middle;font-family:monospace;font-style:normal;font-weight:normal" x="580.5" y="125.831">
    <tspan x="580.5" y="125.831">HEAD^^^</tspan>
    <tspan x="580.5" y="175.219">HEAD~3</tspan>
  </text>
  <text font-size="39.5111" style="fill: #000000;text-anchor:middle;font-family:monospace;font-style:normal;font-weight:normal" x="580.5" y="-74.1694">
    <tspan x="580.5" y="-74.1694">HEAD^^</tspan>
    <tspan x="580.5" y="-24.7806">HEAD~2</tspan>
  </text>
  <text font-size="39.5111" style="fill: #000000;text-anchor:middle;font-family:monospace;font-style:normal;font-weight:normal" x="580.5" y="-569.475">
    <tspan x="580.5" y="-569.475">HEAD</tspan>
  </text>
  <g>
    <line style="fill: none; fill-opacity:0; stroke-width: 7; stroke-linejoin: round; stroke: #000000" x1="580.5" y1="-520" x2="580.5" y2="-335.326"/>
    <polygon style="fill: #000000" points="580.5,-327.826 575.5,-337.826 580.5,-335.326 585.5,-337.826 "/>
    <polygon style="fill: none; fill-opacity:0; stroke-width: 7; stroke: #000000" points="580.5,-327.826 575.5,-337.826 580.5,-335.326 585.5,-337.826 "/>
  </g>
  <g>
    <rect style="fill: #e4c8c8" x="780" y="80" width="241" height="120" rx="10" ry="10"/>
    <rect style="fill: none; fill-opacity:0; stroke-width: 2; stroke-linejoin: round; stroke: #000000" x="780" y="80" width="241" height="120" rx="10" ry="10"/>
  </g>
  <g>
    <line style="fill: none; fill-opacity:0; stroke-width: 7; stroke-linejoin: round; stroke: #000000" x1="900.5" y1="0" x2="900.5" y2="64.6738"/>
    <polygon style="fill: #000000" points="900.5,72.1738 895.5,62.1738 900.5,64.6738 905.5,62.1738 "/>
    <polygon style="fill: none; fill-opacity:0; stroke-width: 7; stroke: #000000" points="900.5,72.1738 895.5,62.1738 900.5,64.6738 905.5,62.1738 "/>
  </g>
  <g>
    <rect style="fill: #e4c8c8" x="780" y="-120" width="241" height="120" rx="10" ry="10"/>
    <rect style="fill: none; fill-opacity:0; stroke-width: 2; stroke-linejoin: round; stroke: #000000" x="780" y="-120" width="241" height="120" rx="10" ry="10"/>
  </g>
  <text font-size="12.8" style="fill: #000000;text-anchor:start;font-family:sans-serif;font-style:normal;font-weight:normal" x="900.5" y="-60">
    <tspan x="900.5" y="-60"></tspan>
  </text>
  <text font-size="12.8" style="fill: #000000;text-anchor:start;font-family:sans-serif;font-style:normal;font-weight:normal" x="900.5" y="-60">
    <tspan x="900.5" y="-60"></tspan>
  </text>
  <text font-size="39.5111" style="fill: #000000;text-anchor:middle;font-family:monospace;font-style:normal;font-weight:normal" x="900.5" y="125.831">
    <tspan x="900.5" y="125.831">HEAD^2^^</tspan>
    <tspan x="900.5" y="175.219">HEAD^2~2</tspan>
  </text>
  <text font-size="39.5111" style="fill: #000000;text-anchor:middle;font-family:monospace;font-style:normal;font-weight:normal" x="900.5" y="-74.1694">
    <tspan x="900.5" y="-74.1694">HEAD^2^ </tspan>
    <tspan x="900.5" y="-24.7806">HEAD^2~1</tspan>
  </text>
  <g>
    <rect style="fill: #e4c8c8" x="780" y="-320" width="241" height="120" rx="10" ry="10"/>
    <rect style="fill: none; fill-opacity:0; stroke-width: 2; stroke-linejoin: round; stroke: #000000" x="780" y="-320" width="241" height="120" rx="10" ry="10"/>
  </g>
  <text font-size="39.5111" style="fill: #000000;text-anchor:middle;font-family:monospace;font-style:normal;font-weight:normal" x="900.5" y="-249.475">
    <tspan x="900.5" y="-249.475">HEAD^2</tspan>
  </text>
  <g>
    <line style="fill: none; fill-opacity:0; stroke-width: 7; stroke-linejoin: round; stroke: #000000" x1="900.5" y1="-200" x2="900.5" y2="-135.326"/>
    <polygon style="fill: #000000" points="900.5,-127.826 895.5,-137.826 900.5,-135.326 905.5,-137.826 "/>
    <polygon style="fill: none; fill-opacity:0; stroke-width: 7; stroke: #000000" points="900.5,-127.826 895.5,-137.826 900.5,-135.326 905.5,-137.826 "/>
  </g>
  <g>
    <rect style="fill: #e4c8c8" x="460" y="-320" width="241" height="120" rx="10" ry="10"/>
    <rect style="fill: none; fill-opacity:0; stroke-width: 2; stroke-linejoin: round; stroke: #000000" x="460" y="-320" width="241" height="120" rx="10" ry="10"/>
  </g>
  <text font-size="39.5111" style="fill: #000000;text-anchor:middle;font-family:monospace;font-style:normal;font-weight:normal" x="580.5" y="-271.341">
    <tspan x="580.5" y="-271.341">HEAD^</tspan>
    <tspan x="580.5" y="-221.953">HEAD~1</tspan>
  </text>
  <g>
    <line style="fill: none; fill-opacity:0; stroke-width: 7; stroke-linejoin: round; stroke: #000000" x1="580.5" y1="-200" x2="580.5" y2="-135.326"/>
    <polygon style="fill: #000000" points="580.5,-127.826 575.5,-137.826 580.5,-135.326 585.5,-137.826 "/>
    <polygon style="fill: none; fill-opacity:0; stroke-width: 7; stroke: #000000" points="580.5,-127.826 575.5,-137.826 580.5,-135.326 585.5,-137.826 "/>
  </g>
  <g>
    <line style="fill: none; fill-opacity:0; stroke-width: 7; stroke: #000000" x1="580.5" y1="-520" x2="887.503" y2="-328.123"/>
    <polygon style="fill: #000000" points="893.863,-324.148 882.733,-325.208 887.503,-328.123 888.033,-333.688 "/>
    <polygon style="fill: none; fill-opacity:0; stroke-width: 7; stroke: #000000" points="893.863,-324.148 882.733,-325.208 887.503,-328.123 888.033,-333.688 "/>
  </g>
  <g>
    <line style="fill: none; fill-opacity:0; stroke-width: 7; stroke: #000000" x1="580.5" y1="-520" x2="1205.87" y2="-324.571"/>
    <polygon style="fill: #000000" points="1213.03,-322.334 1201.99,-320.545 1205.87,-324.571 1204.98,-330.09 "/>
    <polygon style="fill: none; fill-opacity:0; stroke-width: 7; stroke: #000000" points="1213.03,-322.334 1201.99,-320.545 1205.87,-324.571 1204.98,-330.09 "/>
  </g>
  <g>
    <line style="fill: none; fill-opacity:0; stroke-width: 7; stroke-dasharray: 8; stroke: #000000" x1="580.5" y1="200" x2="580.096" y2="264.674"/>
    <polygon style="fill: #000000" points="580.049,272.174 575.112,262.143 580.096,264.674 585.111,262.205 "/>
    <polygon style="fill: none; fill-opacity:0; stroke-width: 7; stroke: #000000" points="580.049,272.174 575.112,262.143 580.096,264.674 585.111,262.205 "/>
  </g>
  <g>
    <line style="fill: none; fill-opacity:0; stroke-width: 7; stroke-dasharray: 8; stroke: #000000" x1="1220.5" y1="-200" x2="1219.69" y2="-135.325"/>
    <polygon style="fill: #000000" points="1219.6,-127.826 1214.72,-137.887 1219.69,-135.325 1224.72,-137.762 "/>
    <polygon style="fill: none; fill-opacity:0; stroke-width: 7; stroke: #000000" points="1219.6,-127.826 1214.72,-137.887 1219.69,-135.325 1224.72,-137.762 "/>
  </g>
  <g>
    <line style="fill: none; fill-opacity:0; stroke-width: 7; stroke-dasharray: 8; stroke: #000000" x1="900.5" y1="200" x2="899.287" y2="264.676"/>
    <polygon style="fill: #000000" points="899.147,272.175 894.335,262.083 899.287,264.676 904.333,262.271 "/>
    <polygon style="fill: none; fill-opacity:0; stroke-width: 7; stroke: #000000" points="899.147,272.175 894.335,262.083 899.287,264.676 904.333,262.271 "/>
  </g>
  <g>
    <rect style="fill: #e4c8c8" x="460" y="-640" width="241" height="120" rx="10" ry="10"/>
    <rect style="fill: none; fill-opacity:0; stroke-width: 2; stroke-linejoin: round; stroke: #000000" x="460" y="-640" width="241" height="120" rx="10" ry="10"/>
  </g>
  <text font-size="39.5111" style="fill: #000000;text-anchor:middle;font-family:monospace;font-style:normal;font-weight:normal" x="580.5" y="-569.475">
    <tspan x="580.5" y="-569.475">HEAD</tspan>
  </text>
  <g>
    <rect style="fill: #e4c8c8" x="1100" y="-320" width="241" height="120" rx="10" ry="10"/>
    <rect style="fill: none; fill-opacity:0; stroke-width: 2; stroke-linejoin: round; stroke: #000000" x="1100" y="-320" width="241" height="120" rx="10" ry="10"/>
  </g>
  <text font-size="39.5111" style="fill: #000000;text-anchor:middle;font-family:monospace;font-style:normal;font-weight:normal" x="1220.5" y="-249.475">
    <tspan x="1220.5" y="-249.475">HEAD^3</tspan>
  </text>
</svg>
