<svg xmlns="http://www.w3.org/2000/svg" xmlns:xlink="http://www.w3.org/1999/xlink" width="1280" height="1000pt" viewBox="0 0 960 1000"><defs><symbol overflow="visible" id="a"><path style="stroke:none" d="M2.133-24.605h3.039c.027.03.043.07.043.12a.746.746 0 0 1-.102.317 1.542 1.542 0 0 0-.136.512v9.597h9.636v-10.546h3.04c.023.03.035.07.038.12a.683.683 0 0 1-.117.337.983.983 0 0 0-.156.414V.039h-2.844V-11.77H4.977V0H2.133Zm0 0"/></symbol><symbol overflow="visible" id="b"><path style="stroke:none" d="M2.328-24.645h15.09v2.45H4.938v8.097h10.304v2.606H4.937v9.043h12.36V0H2.328Zm0 0"/></symbol><symbol overflow="visible" id="c"><path style="stroke:none" d="m.613 0 8.688-25.04h.316L19.094 0H16.25l-2.723-7.188h-7.82L3.336 0Zm12.282-9.32L9.418-18.72 6.258-9.32Zm0 0"/></symbol><symbol overflow="visible" id="d"><path style="stroke:none" d="M2.133-24.605h5.726c2.102.003 3.743.293 4.914.87a8.37 8.37 0 0 1 2.98 2.489c.817 1.078 1.423 2.383 1.821 3.91.39 1.527.59 3.25.594 5.172-.004 1.898-.242 3.598-.711 5.098-.477 1.5-1.129 2.785-1.957 3.847-.832 1.07-1.902 1.88-3.219 2.43-1.316.55-2.949.824-4.894.828H2.133Zm2.605 2.293v20.18H7.25c2.79 0 4.836-.848 6.133-2.552 1.293-1.699 1.937-4.148 1.941-7.34-.031-3.218-.625-5.738-1.785-7.558-1.164-1.82-3.117-2.73-5.86-2.73Zm0 0"/></symbol><symbol overflow="visible" id="e"><path style="stroke:none" d="m3.691-14.492 6.043-10.113h.871l5.329 10.074-2.09.984-3.832-6.91-4.344 6.91Zm0 0"/></symbol><symbol overflow="visible" id="f"><path style="stroke:none" d="m3.594-13.508-1.973-1.3a8.298 8.298 0 0 1 2.387-2.528c.96-.656 1.887-.984 2.785-.988.918.004 1.703.152 2.348.453.644.305 1.164.64 1.562 1.008 1.074 1 1.969 1.5 2.684 1.5.734 0 1.351-.207 1.855-.63.5-.417 1.082-1.066 1.738-1.937l1.817 1.5c-.317.477-.688.938-1.106 1.383-.421.45-.855.84-1.3 1.168a6.7 6.7 0 0 1-1.383.79c-.477.194-.95.292-1.422.292-.899 0-1.664-.168-2.293-.504-.633-.336-1.133-.707-1.5-1.113-.977-1.078-1.95-1.617-2.922-1.621-1.187.004-2.281.848-3.277 2.527Zm0 0"/></symbol><symbol overflow="visible" id="g"><path style="stroke:none" d="M11.809-24.645V0H9.082v-21.207l-4.977 1.46-.628-1.538 6.437-3.36Zm0 0"/></symbol><symbol overflow="visible" id="h"><path style="stroke:none" d="M3.082-20.773c.711-1.258 1.676-2.239 2.902-2.942a7.88 7.88 0 0 1 3.97-1.047 7.3 7.3 0 0 1 5.055 2.016 6.87 6.87 0 0 1 1.538 2.21c.367.845.55 1.74.555 2.684a7.2 7.2 0 0 1-.336 2.172 9.838 9.838 0 0 1-.891 1.957c-.371.618-.797 1.211-1.281 1.778a16.955 16.955 0 0 1-1.524 1.558l-2.367 2.211c-.348.32-.73.696-1.148 1.13-.422.433-.836.898-1.242 1.398-.41.5-.813 1.027-1.208 1.582-.394.554-.734 1.109-1.023 1.656h10.309c.125.004.261-.055.41-.176.14-.117.281-.18.418-.18h.117V0H2.883v-1.738c.972-1.918 2.023-3.578 3.16-4.977 1.129-1.394 2.223-2.562 3.277-3.512l1.895-1.738c.656-.605 1.187-1.164 1.598-1.68.406-.511.73-1.003.968-1.48.235-.469.39-.926.473-1.363.078-.434.117-.875.121-1.325a4.232 4.232 0 0 0-.355-1.675 4.847 4.847 0 0 0-1.008-1.461 5.354 5.354 0 0 0-1.461-1.028 4.088 4.088 0 0 0-1.676-.375c-.688.004-1.3.102-1.84.297a6.278 6.278 0 0 0-1.422.711c-.41.278-.73.567-.965.867-.238.305-.37.575-.394.809-.059.238-.113.398-.16.477Zm0 0"/></symbol><symbol overflow="visible" id="i"><path style="stroke:none" d="M16.23-18.426a5.583 5.583 0 0 1-1.007 3.246 5.548 5.548 0 0 1-2.664 2.098c1.257.45 2.277 1.25 3.058 2.402.774 1.16 1.164 2.473 1.168 3.942a7.331 7.331 0 0 1-.535 2.758 6.816 6.816 0 0 1-1.54 2.289c-.675.66-1.5 1.18-2.468 1.554-.976.383-2.082.57-3.316.57C6.5.434 4.434-.5 2.726-2.37l2.09-2.488c.106.109.184.28.239.52.05.245.144.444.277.593l.55.5c.212.207.638.437 1.286.691a5.23 5.23 0 0 0 1.996.383 4.871 4.871 0 0 0 1.973-.387 4.805 4.805 0 0 0 1.578-1.07c.445-.45.793-.98 1.047-1.59a5.14 5.14 0 0 0 .375-1.926c-.004-1.394-.54-2.503-1.602-3.32-1.07-.816-2.469-1.223-4.203-1.226-.21.004-.418.011-.613.023-.2.016-.403.035-.61.059v-2.293c1.207.004 2.223-.121 3.04-.375.816-.246 1.48-.582 1.996-1.004a3.67 3.67 0 0 0 1.105-1.48 5.15 5.15 0 0 0 .336-1.84 3.18 3.18 0 0 0-.316-1.36 3.76 3.76 0 0 0-.872-1.144 4.629 4.629 0 0 0-1.34-.813 4.826 4.826 0 0 0-1.738-.316c-1.687.004-3.097.636-4.226 1.894l-1.54-1.695c1.606-1.762 3.567-2.645 5.883-2.649a7.273 7.273 0 0 1 2.665.497c.828.332 1.546.789 2.152 1.367a6.786 6.786 0 0 1 1.441 2c.356.754.535 1.55.535 2.394Zm0 0"/></symbol></defs><path style="fill-rule:nonzero;fill:#fff;fill-opacity:1;stroke-width:0;stroke-linecap:butt;stroke-linejoin:miter;stroke:#000;stroke-opacity:1;stroke-miterlimit:10" d="M0 0h48v50H0Zm0 0" transform="scale(20)"/><path style="fill:none;stroke-width:.35;stroke-linecap:butt;stroke-linejoin:miter;stroke:#000;stroke-opacity:1;stroke-miterlimit:10" d="M8 34v3.234" transform="scale(20)"/><path style="fill-rule:evenodd;fill:#000;fill-opacity:1;stroke-width:.35;stroke-linecap:butt;stroke-linejoin:miter;stroke:#000;stroke-opacity:1;stroke-miterlimit:10" d="m8 37.609-.25-.5.25.125.25-.125-.25.5Zm0 0" transform="scale(20)"/><path style="fill:none;stroke-width:.35;stroke-linecap:butt;stroke-linejoin:miter;stroke:#000;stroke-opacity:1;stroke-miterlimit:10" d="M8 8v9.234" transform="scale(20)"/><path style="fill-rule:evenodd;fill:#000;fill-opacity:1;stroke-width:.35;stroke-linecap:butt;stroke-linejoin:miter;stroke:#000;stroke-opacity:1;stroke-miterlimit:10" d="m8 17.609-.25-.5.25.125.25-.125-.25.5Zm0 0" transform="scale(20)"/><path style="fill:none;stroke-width:.35;stroke-linecap:butt;stroke-linejoin:miter;stroke:#000;stroke-opacity:1;stroke-miterlimit:10" d="M24 34v3.234" transform="scale(20)"/><path style="fill-rule:evenodd;fill:#000;fill-opacity:1;stroke-width:.35;stroke-linecap:butt;stroke-linejoin:miter;stroke:#000;stroke-opacity:1;stroke-miterlimit:10" d="m24 37.609-.25-.5.25.125.25-.125-.25.5Zm0 0" transform="scale(20)"/><path style="fill:none;stroke-width:.35;stroke-linecap:butt;stroke-linejoin:miter;stroke:#000;stroke-opacity:1;stroke-miterlimit:10" d="M24 24v3.234" transform="scale(20)"/><path style="fill-rule:evenodd;fill:#000;fill-opacity:1;stroke-width:.35;stroke-linecap:butt;stroke-linejoin:miter;stroke:#000;stroke-opacity:1;stroke-miterlimit:10" d="m24 27.609-.25-.5.25.125.25-.125-.25.5Zm0 0" transform="scale(20)"/><path style="fill:none;stroke-width:.35;stroke-linecap:butt;stroke-linejoin:miter;stroke:#000;stroke-opacity:1;stroke-miterlimit:10" d="M8 24v3.234" transform="scale(20)"/><path style="fill-rule:evenodd;fill:#000;fill-opacity:1;stroke-width:.35;stroke-linecap:butt;stroke-linejoin:miter;stroke:#000;stroke-opacity:1;stroke-miterlimit:10" d="m8 27.609-.25-.5.25.125.25-.125-.25.5Zm0 0" transform="scale(20)"/><path style="fill:none;stroke-width:.35;stroke-linecap:butt;stroke-linejoin:miter;stroke:#000;stroke-opacity:1;stroke-miterlimit:10" d="m8 8 15.35 9.594" transform="scale(20)"/><path style="fill-rule:evenodd;fill:#000;fill-opacity:1;stroke-width:.35;stroke-linecap:butt;stroke-linejoin:miter;stroke:#000;stroke-opacity:1;stroke-miterlimit:10" d="m23.668 17.793-.556-.053.238-.146.027-.278.291.477Zm0 0" transform="scale(20)"/><path style="fill:none;stroke-width:.35;stroke-linecap:butt;stroke-linejoin:miter;stroke:#000;stroke-opacity:1;stroke-miterlimit:10" d="m8 8 31.269 9.771" transform="scale(20)"/><path style="fill-rule:evenodd;fill:#000;fill-opacity:1;stroke-width:.35;stroke-linecap:butt;stroke-linejoin:miter;stroke:#000;stroke-opacity:1;stroke-miterlimit:10" d="m39.627 17.883-.552.09.194-.202-.045-.275.403.387Zm0 0" transform="scale(20)"/><path style="fill:none;stroke-width:.35;stroke-linecap:butt;stroke-linejoin:miter;stroke:#000;stroke-opacity:1;stroke-dasharray:.1,.1;stroke-miterlimit:10" d="m8 44-.02 3.234" transform="scale(20)"/><path style="fill-rule:evenodd;fill:#000;fill-opacity:1;stroke-width:.35;stroke-linecap:butt;stroke-linejoin:miter;stroke:#000;stroke-opacity:1;stroke-miterlimit:10" d="m7.978 47.609-.247-.502.249.127.25-.124-.252.499Zm0 0" transform="scale(20)"/><path style="fill:none;stroke-width:.35;stroke-linecap:butt;stroke-linejoin:miter;stroke:#000;stroke-opacity:1;stroke-dasharray:.2,.2;stroke-miterlimit:10" d="m40 24-.04 3.234" transform="scale(20)"/><path style="fill-rule:evenodd;fill:#000;fill-opacity:1;stroke-width:.35;stroke-linecap:butt;stroke-linejoin:miter;stroke:#000;stroke-opacity:1;stroke-miterlimit:10" d="m39.955 27.609-.244-.503.249.128.251-.122-.256.497Zm0 0" transform="scale(20)"/><path style="fill:none;stroke-width:.35;stroke-linecap:butt;stroke-linejoin:miter;stroke:#000;stroke-opacity:1;stroke-dasharray:.2,.2;stroke-miterlimit:10" d="m24 44-.06 3.234" transform="scale(20)"/><path style="fill-rule:evenodd;fill:#000;fill-opacity:1;stroke-width:.35;stroke-linecap:butt;stroke-linejoin:miter;stroke:#000;stroke-opacity:1;stroke-miterlimit:10" d="m23.932 47.609-.24-.505.247.13.253-.12-.26.495Zm0 0" transform="scale(20)"/><path style="stroke:none;fill-rule:evenodd;fill:#e9a4de;fill-opacity:1" d="M50 40h220v120H50ZM50 50V40c-5.523 0-10 4.477-10 10h10ZM270 50h10c0-5.523-4.477-10-10-10v10Zm0 0"/><path style="stroke:none;fill-rule:evenodd;fill:#e9a4de;fill-opacity:1" d="M40 50h240v100H40ZM50 150H40c0 5.523 4.477 10 10 10v-10ZM270 150v10c5.523 0 10-4.477 10-10h-10Zm0 0"/><path style="fill:none;stroke-width:.1;stroke-linecap:butt;stroke-linejoin:miter;stroke:#000;stroke-opacity:1;stroke-miterlimit:10" d="M2.5 2h11M2.5 8h11M2.5 2a.5.5 0 0 0-.5.5M14 2.5a.5.5 0 0 0-.5-.5M2 2.5v5M14 2.5v5M2 7.5a.5.5 0 0 0 .5.5M13.5 8a.5.5 0 0 0 .5-.5" transform="scale(20)"/><g style="fill:#000;fill-opacity:1"><use xlink:href="#a" x="120.508" y="109.254"/><use xlink:href="#b" x="140.254" y="109.254"/><use xlink:href="#c" x="160" y="109.254"/><use xlink:href="#d" x="179.746" y="109.254"/></g><path style="stroke:none;fill-rule:evenodd;fill:#e9a4de;fill-opacity:1" d="M50 360h220v120H50ZM50 370v-10c-5.523 0-10 4.477-10 10h10ZM270 370h10c0-5.523-4.477-10-10-10v10Zm0 0"/><path style="stroke:none;fill-rule:evenodd;fill:#e9a4de;fill-opacity:1" d="M40 370h240v100H40ZM50 470H40c0 5.523 4.477 10 10 10v-10ZM270 470v10c5.523 0 10-4.477 10-10h-10Zm0 0"/><path style="fill:none;stroke-width:.1;stroke-linecap:butt;stroke-linejoin:miter;stroke:#000;stroke-opacity:1;stroke-miterlimit:10" d="M2.5 18h11M2.5 24h11M2.5 18a.5.5 0 0 0-.5.5M14 18.5a.5.5 0 0 0-.5-.5M2 18.5v5M14 18.5v5M2 23.5a.5.5 0 0 0 .5.5M13.5 24a.5.5 0 0 0 .5-.5" transform="scale(20)"/><g style="fill:#000;fill-opacity:1"><use xlink:href="#a" x="110.645" y="404.563"/><use xlink:href="#b" x="130.391" y="404.563"/><use xlink:href="#c" x="150.137" y="404.563"/><use xlink:href="#d" x="169.883" y="404.563"/><use xlink:href="#e" x="189.629" y="404.563"/></g><g style="fill:#000;fill-opacity:1"><use xlink:href="#a" x="100.762" y="453.949"/><use xlink:href="#b" x="120.508" y="453.949"/><use xlink:href="#c" x="140.254" y="453.949"/><use xlink:href="#d" x="160" y="453.949"/><use xlink:href="#f" x="179.746" y="453.949"/><use xlink:href="#g" x="199.492" y="453.949"/></g><path style="stroke:none;fill-rule:evenodd;fill:#e9a4de;fill-opacity:1" d="M50 560h220v120H50ZM50 570v-10c-5.523 0-10 4.477-10 10h10ZM270 570h10c0-5.523-4.477-10-10-10v10Zm0 0"/><path style="stroke:none;fill-rule:evenodd;fill:#e9a4de;fill-opacity:1" d="M40 570h240v100H40ZM50 670H40c0 5.523 4.477 10 10 10v-10ZM270 670v10c5.523 0 10-4.477 10-10h-10Zm0 0"/><path style="fill:none;stroke-width:.1;stroke-linecap:butt;stroke-linejoin:miter;stroke:#000;stroke-opacity:1;stroke-miterlimit:10" d="M2.5 28h11M2.5 34h11M2.5 28a.5.5 0 0 0-.5.5M14 28.5a.5.5 0 0 0-.5-.5M2 28.5v5M14 28.5v5M2 33.5a.5.5 0 0 0 .5.5M13.5 34a.5.5 0 0 0 .5-.5" transform="scale(20)"/><g style="fill:#000;fill-opacity:1"><use xlink:href="#a" x="100.762" y="604.563"/><use xlink:href="#b" x="120.508" y="604.563"/><use xlink:href="#c" x="140.254" y="604.563"/><use xlink:href="#d" x="160" y="604.563"/><use xlink:href="#e" x="179.746" y="604.563"/><use xlink:href="#e" x="199.492" y="604.563"/></g><g style="fill:#000;fill-opacity:1"><use xlink:href="#a" x="100.762" y="653.949"/><use xlink:href="#b" x="120.508" y="653.949"/><use xlink:href="#c" x="140.254" y="653.949"/><use xlink:href="#d" x="160" y="653.949"/><use xlink:href="#f" x="179.746" y="653.949"/><use xlink:href="#h" x="199.492" y="653.949"/></g><path style="stroke:none;fill-rule:evenodd;fill:#e9a4de;fill-opacity:1" d="M50 760h220v120H50ZM50 770v-10c-5.523 0-10 4.477-10 10h10ZM270 770h10c0-5.523-4.477-10-10-10v10Zm0 0"/><path style="stroke:none;fill-rule:evenodd;fill:#e9a4de;fill-opacity:1" d="M40 770h240v100H40ZM50 870H40c0 5.523 4.477 10 10 10v-10ZM270 870v10c5.523 0 10-4.477 10-10h-10Zm0 0"/><path style="fill:none;stroke-width:.1;stroke-linecap:butt;stroke-linejoin:miter;stroke:#000;stroke-opacity:1;stroke-miterlimit:10" d="M2.5 38h11M2.5 44h11M2.5 38a.5.5 0 0 0-.5.5M14 38.5a.5.5 0 0 0-.5-.5M2 38.5v5M14 38.5v5M2 43.5a.5.5 0 0 0 .5.5M13.5 44a.5.5 0 0 0 .5-.5" transform="scale(20)"/><g style="fill:#000;fill-opacity:1"><use xlink:href="#a" x="90.898" y="804.563"/><use xlink:href="#b" x="110.645" y="804.563"/><use xlink:href="#c" x="130.391" y="804.563"/><use xlink:href="#d" x="150.137" y="804.563"/><use xlink:href="#e" x="169.883" y="804.563"/><use xlink:href="#e" x="189.629" y="804.563"/><use xlink:href="#e" x="209.375" y="804.563"/></g><g style="fill:#000;fill-opacity:1"><use xlink:href="#a" x="100.762" y="853.949"/><use xlink:href="#b" x="120.508" y="853.949"/><use xlink:href="#c" x="140.254" y="853.949"/><use xlink:href="#d" x="160" y="853.949"/><use xlink:href="#f" x="179.746" y="853.949"/><use xlink:href="#i" x="199.492" y="853.949"/></g><path style="stroke:none;fill-rule:evenodd;fill:#e9a4de;fill-opacity:1" d="M370 360h220v120H370ZM370 370v-10c-5.523 0-10 4.477-10 10h10ZM590 370h10c0-5.523-4.477-10-10-10v10Zm0 0"/><path style="stroke:none;fill-rule:evenodd;fill:#e9a4de;fill-opacity:1" d="M360 370h240v100H360ZM370 470h-10c0 5.523 4.477 10 10 10v-10ZM590 470v10c5.523 0 10-4.477 10-10h-10Zm0 0"/><path style="fill:none;stroke-width:.1;stroke-linecap:butt;stroke-linejoin:miter;stroke:#000;stroke-opacity:1;stroke-miterlimit:10" d="M18.5 18h11M18.5 24h11M18.5 18a.5.5 0 0 0-.5.5M30 18.5a.5.5 0 0 0-.5-.5M18 18.5v5M30 18.5v5M18 23.5a.5.5 0 0 0 .5.5M29.5 24a.5.5 0 0 0 .5-.5" transform="scale(20)"/><g style="fill:#000;fill-opacity:1"><use xlink:href="#a" x="420.762" y="429.254"/><use xlink:href="#b" x="440.508" y="429.254"/><use xlink:href="#c" x="460.254" y="429.254"/><use xlink:href="#d" x="480" y="429.254"/><use xlink:href="#e" x="499.746" y="429.254"/><use xlink:href="#h" x="519.492" y="429.254"/></g><path style="stroke:none;fill-rule:evenodd;fill:#e9a4de;fill-opacity:1" d="M690 360h220v120H690ZM690 370v-10c-5.523 0-10 4.477-10 10h10ZM910 370h10c0-5.523-4.477-10-10-10v10Zm0 0"/><path style="stroke:none;fill-rule:evenodd;fill:#e9a4de;fill-opacity:1" d="M680 370h240v100H680ZM690 470h-10c0 5.523 4.477 10 10 10v-10ZM910 470v10c5.523 0 10-4.477 10-10h-10Zm0 0"/><path style="fill:none;stroke-width:.1;stroke-linecap:butt;stroke-linejoin:miter;stroke:#000;stroke-opacity:1;stroke-miterlimit:10" d="M34.5 18h11M34.5 24h11M34.5 18a.5.5 0 0 0-.5.5M46 18.5a.5.5 0 0 0-.5-.5M34 18.5v5M46 18.5v5M34 23.5a.5.5 0 0 0 .5.5M45.5 24a.5.5 0 0 0 .5-.5" transform="scale(20)"/><g style="fill:#000;fill-opacity:1"><use xlink:href="#a" x="740.762" y="429.254"/><use xlink:href="#b" x="760.508" y="429.254"/><use xlink:href="#c" x="780.254" y="429.254"/><use xlink:href="#d" x="800" y="429.254"/><use xlink:href="#e" x="819.746" y="429.254"/><use xlink:href="#i" x="839.492" y="429.254"/></g><path style="stroke:none;fill-rule:evenodd;fill:#e9a4de;fill-opacity:1" d="M370 560h220v120H370ZM370 570v-10c-5.523 0-10 4.477-10 10h10ZM590 570h10c0-5.523-4.477-10-10-10v10Zm0 0"/><path style="stroke:none;fill-rule:evenodd;fill:#e9a4de;fill-opacity:1" d="M360 570h240v100H360ZM370 670h-10c0 5.523 4.477 10 10 10v-10ZM590 670v10c5.523 0 10-4.477 10-10h-10Zm0 0"/><path style="fill:none;stroke-width:.1;stroke-linecap:butt;stroke-linejoin:miter;stroke:#000;stroke-opacity:1;stroke-miterlimit:10" d="M18.5 28h11M18.5 34h11M18.5 28a.5.5 0 0 0-.5.5M30 28.5a.5.5 0 0 0-.5-.5M18 28.5v5M30 28.5v5M18 33.5a.5.5 0 0 0 .5.5M29.5 34a.5.5 0 0 0 .5-.5" transform="scale(20)"/><g style="fill:#000;fill-opacity:1"><use xlink:href="#a" x="410.898" y="604.563"/><use xlink:href="#b" x="430.645" y="604.563"/><use xlink:href="#c" x="450.391" y="604.563"/><use xlink:href="#d" x="470.137" y="604.563"/><use xlink:href="#e" x="489.883" y="604.563"/><use xlink:href="#h" x="509.629" y="604.563"/><use xlink:href="#e" x="529.375" y="604.563"/></g><g style="fill:#000;fill-opacity:1"><use xlink:href="#a" x="401.016" y="653.949"/><use xlink:href="#b" x="420.762" y="653.949"/><use xlink:href="#c" x="440.508" y="653.949"/><use xlink:href="#d" x="460.254" y="653.949"/><use xlink:href="#e" x="480" y="653.949"/><use xlink:href="#h" x="499.746" y="653.949"/><use xlink:href="#f" x="519.492" y="653.949"/><use xlink:href="#g" x="539.238" y="653.949"/></g><path style="stroke:none;fill-rule:evenodd;fill:#e9a4de;fill-opacity:1" d="M370 760h220v120H370ZM370 770v-10c-5.523 0-10 4.477-10 10h10ZM590 770h10c0-5.523-4.477-10-10-10v10Zm0 0"/><path style="stroke:none;fill-rule:evenodd;fill:#e9a4de;fill-opacity:1" d="M360 770h240v100H360ZM370 870h-10c0 5.523 4.477 10 10 10v-10ZM590 870v10c5.523 0 10-4.477 10-10h-10Zm0 0"/><path style="fill:none;stroke-width:.1;stroke-linecap:butt;stroke-linejoin:miter;stroke:#000;stroke-opacity:1;stroke-miterlimit:10" d="M18.5 38h11M18.5 44h11M18.5 38a.5.5 0 0 0-.5.5M30 38.5a.5.5 0 0 0-.5-.5M18 38.5v5M30 38.5v5M18 43.5a.5.5 0 0 0 .5.5M29.5 44a.5.5 0 0 0 .5-.5" transform="scale(20)"/><g style="fill:#000;fill-opacity:1"><use xlink:href="#a" x="401.016" y="804.563"/><use xlink:href="#b" x="420.762" y="804.563"/><use xlink:href="#c" x="440.508" y="804.563"/><use xlink:href="#d" x="460.254" y="804.563"/><use xlink:href="#e" x="480" y="804.563"/><use xlink:href="#h" x="499.746" y="804.563"/><use xlink:href="#e" x="519.492" y="804.563"/><use xlink:href="#e" x="539.238" y="804.563"/></g><g style="fill:#000;fill-opacity:1"><use xlink:href="#a" x="401.016" y="853.949"/><use xlink:href="#b" x="420.762" y="853.949"/><use xlink:href="#c" x="440.508" y="853.949"/><use xlink:href="#d" x="460.254" y="853.949"/><use xlink:href="#e" x="480" y="853.949"/><use xlink:href="#h" x="499.746" y="853.949"/><use xlink:href="#f" x="519.492" y="853.949"/><use xlink:href="#h" x="539.238" y="853.949"/></g></svg>