<svg xmlns="http://www.w3.org/2000/svg" xmlns:xlink="http://www.w3.org/1999/xlink" width="428pt" height="320" viewBox="0 0 428 240"><defs><symbol overflow="visible" id="a"><path style="stroke:none" d="M5.238-8.43c-1.02.004-1.824.344-2.41 1.02-.59.68-.883 1.605-.883 2.781 0 1.211.282 2.149.852 2.809.562.664 1.371.996 2.426.992.64.004 1.379-.113 2.21-.352v.946C6.79.004 5.997.12 5.06.125 3.69.121 2.64-.289 1.902-1.113 1.16-1.941.79-3.117.793-4.641c-.004-.953.176-1.789.535-2.507a3.847 3.847 0 0 1 1.543-1.66c.672-.383 1.465-.579 2.379-.583.969.004 1.816.18 2.547.532l-.457.925c-.703-.328-1.402-.492-2.102-.496Zm0 0"/></symbol><symbol overflow="visible" id="b"><path style="stroke:none" d="M7.156-2.129H5.781V0H4.773v-2.129h-4.5v-.918l4.395-6.262h1.113v6.227h1.375Zm-2.383-.953V-6.16c-.003-.602.02-1.285.067-2.047h-.05a9.66 9.66 0 0 1-.571 1.008L1.324-3.082Zm0 0"/></symbol><symbol overflow="visible" id="c"><path style="stroke:none" d="M.96-.672c0-.277.063-.492.192-.64.13-.145.317-.215.559-.22.242.005.43.075.57.22.133.148.203.363.207.64-.004.277-.074.488-.21.637-.141.144-.329.215-.567.219a.77.77 0 0 1-.54-.2c-.14-.129-.21-.347-.21-.656Zm0-5.59c0-.566.25-.851.75-.855.517.004.774.289.778.855-.004.278-.074.489-.21.633-.141.152-.329.227-.567.223a.722.722 0 0 1-.54-.2c-.14-.132-.21-.351-.21-.656Zm0 0"/></symbol><symbol overflow="visible" id="e"><path style="stroke:none" d="M4.047.125C3.02.121 2.21-.188 1.617-.809 1.023-1.434.727-2.3.727-3.414s.273-2 .828-2.664c.547-.656 1.289-.988 2.218-.988.868 0 1.555.289 2.063.859.508.574.762 1.328.762 2.262v.664H1.816c.02.816.223 1.437.618 1.855.386.426.937.637 1.652.633A5.48 5.48 0 0 0 6.3-1.262v.938A5.498 5.498 0 0 1 5.246.02a6.543 6.543 0 0 1-1.2.105Zm-.285-6.313c-.559 0-1.004.184-1.336.547-.332.364-.528.864-.582 1.504h3.629c0-.66-.149-1.164-.446-1.52-.297-.35-.718-.53-1.265-.53Zm0 0"/></symbol><symbol overflow="visible" id="f"><path style="stroke:none" d="M6.719 0H.633v-.906l2.437-2.45c.743-.75 1.23-1.285 1.47-1.609.233-.316.41-.629.53-.937.117-.301.18-.63.18-.98 0-.493-.152-.884-.45-1.177-.304-.285-.718-.43-1.25-.433a3.262 3.262 0 0 0-1.09.191c-.343.13-.726.36-1.147.688l-.56-.715c.849-.703 1.778-1.059 2.786-1.063.867.004 1.547.227 2.043.668.492.45.738 1.047.742 1.797-.004.586-.168 1.168-.492 1.742-.332.575-.945 1.301-1.848 2.176l-2.027 1.98v.051h4.762Zm0 0"/></symbol><symbol overflow="visible" id="g"><path style="stroke:none" d="M3.887.125C2.879.121 2.102-.184 1.555-.801 1-1.418.727-2.293.727-3.426c0-1.16.277-2.058.84-2.691.554-.633 1.351-.95 2.39-.95.328 0 .664.04 1 .11.332.074.594.156.785.25l-.32.894a5.424 5.424 0 0 0-.762-.23 3.938 3.938 0 0 0-.726-.094c-1.414.004-2.118.903-2.118 2.7 0 .855.172 1.507.516 1.96.344.457.852.688 1.531.684.575.004 1.168-.121 1.778-.371v.93C5.176.004 4.59.12 3.887.125Zm0 0"/></symbol><symbol overflow="visible" id="h"><path style="stroke:none" d="M.742-3.957c-.004-1.816.348-3.18 1.059-4.082.703-.899 1.75-1.348 3.136-1.352.477.004.852.043 1.13.121v.907a3.884 3.884 0 0 0-1.114-.16c-.996.003-1.754.312-2.273.93-.528.616-.813 1.59-.864 2.913h.079c.46-.722 1.195-1.086 2.203-1.09.828.004 1.484.254 1.965.754.476.504.714 1.188.718 2.047-.004.965-.265 1.723-.789 2.27-.527.55-1.238.82-2.129.824-.96-.004-1.718-.36-2.281-1.078-.562-.715-.844-1.715-.84-3.004Zm3.11 3.191c.593.004 1.058-.183 1.394-.566.328-.375.496-.922.496-1.637 0-.61-.156-1.09-.46-1.441-.313-.348-.77-.524-1.38-.527a2.423 2.423 0 0 0-1.047.234c-.32.16-.57.375-.757.644a1.51 1.51 0 0 0-.282.856c0 .437.082.844.254 1.215.164.379.407.675.72.894.308.223.66.332 1.062.328Zm0 0"/></symbol><symbol overflow="visible" id="i"><path style="stroke:none" d="M1.805 0 5.64-8.29H.594v-.968h6.164v.844L2.968 0Zm0 0"/></symbol><symbol overflow="visible" id="j"><path style="stroke:none" d="M4.344-7.055c.906 0 1.617.313 2.125.934.504.625.754 1.508.758 2.644-.004 1.145-.258 2.028-.766 2.657-.512.629-1.219.941-2.117.945a3.049 3.049 0 0 1-1.239-.25 2.268 2.268 0 0 1-.94-.77H2.09L1.867 0h-.754v-9.852h1.051v2.391c-.004.54-.02 1.02-.05 1.445h.05c.484-.691 1.211-1.039 2.18-1.039Zm-.153.88c-.718 0-1.234.206-1.55.62-.32.414-.48 1.11-.477 2.078-.004.977.16 1.672.488 2.094.325.422.848.633 1.567.63.644.003 1.125-.231 1.441-.704.317-.469.473-1.145.477-2.031-.004-.899-.16-1.575-.477-2.02-.316-.445-.808-.668-1.469-.668Zm0 0"/></symbol><symbol overflow="visible" id="w"><path style="stroke:none" d="M6.371-7.078c-.004.594-.168 1.078-.5 1.45-.332.378-.8.628-1.406.753v.05c.742.095 1.293.329 1.652.708.36.383.54.883.54 1.496 0 .887-.31 1.562-.919 2.035-.617.473-1.484.707-2.61.711a8.329 8.329 0 0 1-1.347-.11 4.554 4.554 0 0 1-1.187-.39v-1c.398.2.828.352 1.281.453.453.11.883.16 1.293.156 1.598.004 2.398-.625 2.398-1.882 0-1.122-.882-1.68-2.648-1.684h-.91v-.906h.926c.718 0 1.289-.157 1.714-.477.418-.312.63-.758.633-1.328-.004-.45-.156-.8-.465-1.062-.312-.254-.734-.383-1.265-.387-.406.004-.79.058-1.145.164-.363.113-.773.316-1.226.61L.645-8.43a4.494 4.494 0 0 1 1.312-.703 4.975 4.975 0 0 1 1.57-.258c.899.004 1.594.211 2.094.618.496.414.746.976.75 1.695Zm0 0"/></symbol><symbol overflow="visible" id="x"><path style="stroke:none" d="M3.7-9.39c.84.003 1.507.199 2.003.59.492.39.742.933.742 1.624 0 .457-.144.875-.425 1.25-.286.38-.735.719-1.352 1.024.746.363 1.277.742 1.598 1.132.312.399.472.856.476 1.372-.004.773-.273 1.386-.804 1.84-.54.456-1.274.68-2.204.683-.992-.004-1.75-.215-2.277-.648-.535-.43-.8-1.043-.797-1.84-.004-1.055.64-1.883 1.938-2.477-.586-.328-1.004-.68-1.258-1.062a2.257 2.257 0 0 1-.38-1.285c0-.668.247-1.204.743-1.606.496-.395 1.16-.594 1.996-.598ZM1.694-2.337c-.004.508.172.902.528 1.184.351.285.847.425 1.488.425.625 0 1.117-.144 1.469-.441.351-.293.527-.7.527-1.219 0-.406-.168-.77-.496-1.09-.332-.316-.906-.628-1.723-.93-.633.27-1.086.571-1.367.895-.285.332-.43.723-.426 1.176Zm1.989-6.2c-.528.005-.942.13-1.239.38-.304.254-.453.594-.449 1.011-.004.395.121.727.371 1.004.25.282.711.563 1.383.836.602-.25 1.027-.523 1.281-.816.246-.29.371-.629.375-1.024-.004-.421-.156-.761-.46-1.011-.305-.25-.727-.375-1.262-.38Zm0 0"/></symbol><symbol overflow="visible" id="y"><path style="stroke:none" d="M4.242-6.125H2.477V0H1.426v-6.125H.184v-.473l1.242-.379v-.386c-.004-1.703.742-2.555 2.234-2.559.363.004.793.074 1.293.219l-.273.844c-.41-.13-.758-.192-1.04-.196-.398.004-.69.133-.878.395-.196.265-.29.691-.285 1.27v.449h1.765Zm0 0"/></symbol><symbol overflow="visible" id="z"><path style="stroke:none" d="M3.527-5.656c.973.004 1.739.246 2.301.726.559.489.84 1.149.84 1.985 0 .96-.305 1.71-.914 2.254C5.144-.148 4.3.12 3.23.125 2.184.121 1.39-.043.844-.375v-1.012c.293.192.656.34 1.097.45.438.109.871.164 1.301.16.738.004 1.317-.172 1.73-.524.41-.351.618-.86.618-1.523 0-1.29-.793-1.934-2.371-1.938-.406.004-.942.067-1.61.184l-.546-.348.351-4.332h4.602v.969H2.312l-.234 2.781a7.57 7.57 0 0 1 1.45-.148Zm0 0"/></symbol><symbol overflow="visible" id="A"><path style="stroke:none" d="M6.719-5.305C6.715-1.684 5.312.121 2.516.125 2.023.121 1.636.082 1.348 0v-.906c.336.113.718.168 1.152.164 1.012.004 1.777-.309 2.297-.938.516-.625.797-1.586.844-2.886h-.075a2.251 2.251 0 0 1-.925.804 2.911 2.911 0 0 1-1.297.274c-.824.004-1.477-.242-1.953-.735C.906-4.71.668-5.395.67-6.277c-.003-.957.266-1.72.806-2.278.539-.554 1.246-.832 2.125-.836.628.004 1.18.164 1.648.485.469.324.828.797 1.086 1.414.25.62.379 1.351.383 2.187ZM3.602-8.492c-.606.004-1.07.195-1.399.582-.328.39-.492.933-.492 1.62 0 .614.148 1.09.453 1.438.3.348.766.524 1.387.52.383.004.734-.074 1.062-.234.32-.153.574-.368.762-.637.184-.27.277-.55.281-.852a3.003 3.003 0 0 0-.261-1.226 2.182 2.182 0 0 0-.727-.887 1.868 1.868 0 0 0-1.066-.324Zm0 0"/></symbol><symbol overflow="visible" id="B"><path style="stroke:none" d="M6.77-4.64c-.004 1.6-.254 2.796-.758 3.581-.504.79-1.278 1.18-2.313 1.184-1-.004-1.758-.402-2.277-1.21-.52-.806-.777-1.993-.777-3.556 0-1.613.25-2.808.753-3.59.5-.777 1.266-1.167 2.301-1.171 1 .004 1.766.41 2.29 1.222.519.813.777 1.992.78 3.54Zm-5.06 0c0 1.347.157 2.327.474 2.94.316.618.82.927 1.515.923.696.004 1.203-.309 1.52-.934.312-.625.468-1.601.472-2.93-.003-1.328-.16-2.3-.472-2.921-.317-.618-.824-.926-1.52-.93-.695.004-1.199.308-1.515.918-.317.613-.473 1.59-.473 2.933Zm0 0"/></symbol><symbol overflow="visible" id="C"><path style="stroke:none" d="m5.383 0-.211-.988h-.05c-.345.437-.692.73-1.036.883-.348.152-.774.226-1.285.23C2.109.121 1.566-.051 1.18-.406.785-.758.59-1.262.594-1.918.59-3.316 1.71-4.051 3.957-4.121l1.18-.04v-.429c-.004-.539-.121-.941-.352-1.207-.238-.258-.613-.39-1.125-.39-.582 0-1.238.18-1.965.53l-.32-.804a4.99 4.99 0 0 1 1.121-.434 4.85 4.85 0 0 1 1.227-.16c.824 0 1.437.184 1.84.551.394.367.593.957.597 1.766V0ZM3.008-.742c.648.004 1.164-.176 1.539-.535.375-.36.562-.86.562-1.508v-.63l-1.05.048c-.84.031-1.442.16-1.809.39-.371.23-.559.59-.555 1.07-.004.384.114.673.344.868.23.203.55.3.969.297Zm0 0"/></symbol><symbol overflow="visible" id="D"><path style="stroke:none" d="M4.527 0H3.5v-6.598c-.004-.547.016-1.066.05-1.558-.09.09-.19.183-.296.281-.113.098-.613.508-1.508 1.23l-.555-.718 2.45-1.895h.886Zm0 0"/></symbol><symbol overflow="visible" id="k"><path style="stroke:none" d="M.473-7.031h.949a.294.294 0 0 1-.05.14.238.238 0 0 0-.052.153v2.953l2.93-3.293c.16.039.355.058.586.058h.293l-2.66 3.032L5.309 0 4.293.047 1.871-3.516l-.55.61V0H.472Zm0 0"/></symbol><symbol overflow="visible" id="l"><path style="stroke:none" d="M2.863-5.262c.313 0 .61.063.895.188.277.125.523.304.738.535.207.234.375.52.5.851.121.336.184.708.188 1.118-.004.425-.063.8-.18 1.129-.121.332-.29.617-.496.851a2.1 2.1 0 0 1-.746.54c-.285.124-.59.183-.91.187a2.199 2.199 0 0 1-.93-.203 2.372 2.372 0 0 1-.762-.559 2.557 2.557 0 0 1-.52-.852 2.745 2.745 0 0 1-.19-1.07 2.889 2.889 0 0 1 .195-1.082c.132-.336.308-.625.53-.863.223-.235.481-.422.774-.563a2.14 2.14 0 0 1 .914-.207Zm1.508 2.715c0-.32-.043-.605-.129-.86a2.06 2.06 0 0 0-.344-.636 1.661 1.661 0 0 0-.492-.394 1.44 1.44 0 0 0-.578-.137 1.4 1.4 0 0 0-.582.136 1.421 1.421 0 0 0-.484.395c-.14.172-.25.383-.332.625-.082.246-.125.52-.121.824-.004.305.039.578.12.824.083.25.192.465.333.645.136.18.3.32.492.418.183.098.383.144.598.144.207 0 .402-.042.59-.128.18-.086.343-.211.484-.383.14-.164.25-.375.328-.625.078-.25.117-.531.117-.848Zm0 0"/></symbol><symbol overflow="visible" id="m"><path style="stroke:none" d="M.43 0v-5.148h.742v.503a1.42 1.42 0 0 1 .46-.453 1.09 1.09 0 0 1 .598-.175c.215 0 .41.074.583.214a.962.962 0 0 1 .32.54 1.26 1.26 0 0 1 .46-.543 1.2 1.2 0 0 1 .688-.211c.352 0 .61.128.778.378.164.254.242.567.226.938V0h-.742v-3.652a4.76 4.76 0 0 0-.035-.551.825.825 0 0 0-.113-.309.474.474 0 0 0-.157-.136.73.73 0 0 0-.203-.028.47.47 0 0 0-.297.117 1.15 1.15 0 0 0-.258.301 1.63 1.63 0 0 0-.18.41 1.54 1.54 0 0 0-.066.446V0H2.48v-3.582c-.003-.426-.042-.715-.12-.86-.083-.14-.22-.21-.41-.214-.184.004-.36.113-.524.324-.172.219-.254.516-.254.894V0Zm0 0"/></symbol><symbol overflow="visible" id="n"><path style="stroke:none" d="M2.918-5.273c.27 0 .531.05.789.148.254.098.477.246.668.445.191.2.348.453.465.758a3.103 3.103 0 0 1 .168 1.281 2.313 2.313 0 0 1-.016.184H1.328c.012.367.074.668.188.91.105.242.242.442.41.59.164.152.347.258.554.32.2.067.403.098.606.098.531 0 .977-.191 1.332-.578l.45.441c-.438.528-1.04.785-1.802.79a2.98 2.98 0 0 1-1.035-.176 2.031 2.031 0 0 1-.793-.512 2.315 2.315 0 0 1-.508-.84A3.306 3.306 0 0 1 .55-2.56c0-.433.063-.82.188-1.16a2.52 2.52 0 0 1 .508-.851c.211-.227.461-.399.746-.524.285-.117.594-.18.926-.18ZM1.363-3.11h2.828c-.003-.028 0-.055.004-.086.004-.024.004-.055.008-.094a1.464 1.464 0 0 0-.11-.527 1.575 1.575 0 0 0-.284-.434 1.627 1.627 0 0 0-.422-.293c-.164-.07-.34-.11-.524-.113a1.459 1.459 0 0 0-.96.375c-.286.25-.466.64-.54 1.172Zm0 0"/></symbol><symbol overflow="visible" id="o"><path style="stroke:none" d="M.766 0v-5.148h.812v.91c.192-.313.445-.567.754-.754.305-.188.617-.281.938-.281.226 0 .437.039.632.117.196.078.364.207.512.379.14.175.254.394.332.664.078.273.117.605.121.992V0H4.06v-3.098c-.004-.539-.098-.918-.278-1.136a.882.882 0 0 0-.676-.329 1.564 1.564 0 0 0-1.027.434c-.148.14-.27.309-.36.5-.097.2-.144.418-.14.664V0Zm0 0"/></symbol><symbol overflow="visible" id="p"><path style="stroke:none" d="m2.117-6.523.88-.149a.757.757 0 0 1-.028.18c-.02.054-.031.097-.04.125l-.136 1.219h1.691v.652H2.793a19.369 19.369 0 0 0-.078 2.812c.012.25.05.446.117.59a.74.74 0 0 0 .277.336c.121.082.286.121.489.117.347.004.73-.156 1.156-.476l.25.644c-.52.383-1.055.57-1.602.575C2.86.098 2.465-.062 2.22-.391c-.25-.324-.364-.855-.336-1.597-.004-.266.004-.614.02-1.04.011-.417.042-.906.093-1.468H.79v-.652h1.238Zm0 0"/></symbol><symbol overflow="visible" id="q"><path style="stroke:none" d="M1.027-4.543c.453-.477 1.067-.719 1.836-.719.63 0 1.125.16 1.492.48.36.321.543.852.547 1.595V0h-.765v-.563a2.846 2.846 0 0 1-1.848.688A2.119 2.119 0 0 1 1.56 0a1.686 1.686 0 0 1-.547-.328A1.31 1.31 0 0 1 .668-.79a1.215 1.215 0 0 1-.117-.52c0-.515.222-.925.672-1.226.445-.3 1.09-.465 1.933-.496h.969v-.192c0-.515-.11-.875-.324-1.078-.215-.203-.547-.304-.996-.308-.559.004-1.02.199-1.383.586ZM4.16-2.41H3.97c-.11.004-.207 0-.301-.004s-.188-.004-.277-.008a5.36 5.36 0 0 0-1.012.086 1.974 1.974 0 0 0-.621.23.83.83 0 0 0-.313.333.869.869 0 0 0-.082.398c-.004.242.102.45.317.621.207.176.465.262.777.258.219.004.422-.031.606-.106a1.921 1.921 0 0 0 .8-.574c.078-.105.14-.203.184-.289.074-.148.113-.351.113-.61Zm0 0"/></symbol><symbol overflow="visible" id="r"><path style="stroke:none" d="M1.117-5.148h.832l-.023.988c.156-.36.406-.633.754-.824a2.21 2.21 0 0 1 1.101-.29c.555 0 1.016.188 1.38.563l-.372.777a9.84 9.84 0 0 0-.226-.28 1.7 1.7 0 0 0-.223-.192 1.292 1.292 0 0 0-.258-.121 1.433 1.433 0 0 0-.344-.047c-.25.004-.484.062-.703.176-.219.117-.41.27-.57.46a2.323 2.323 0 0 0-.39.66c-.102.25-.153.508-.15.778V.012h-.808Zm0 0"/></symbol><symbol overflow="visible" id="t"><path style="stroke:none" d="M3.867-7.563c.653.004 1.176.243 1.574.711l-.37.743c-.063.004-.09-.024-.09-.086a.344.344 0 0 0-.024-.137 1.423 1.423 0 0 0-1.125-.578 1.498 1.498 0 0 0-.508.086.985.985 0 0 0-.383.277c-.113.129-.199.3-.253.516-.06.218-.086.48-.086.793v.39h1.691v.657H2.602V0h-.778v-4.191H.711v-.657h1.113v-.504a2.86 2.86 0 0 1 .153-1.02c.097-.28.246-.51.437-.683a1.91 1.91 0 0 1 .656-.383c.243-.078.508-.12.797-.125Zm0 0"/></symbol><symbol overflow="visible" id="u"><path style="stroke:none" d="M.79 0v-7.496h.925c-.004.012-.004.016.004.012 0 .004.004.007.004.011 0 .028-.02.059-.051.098a.275.275 0 0 0-.07.152v2.985c.199-.313.453-.567.761-.754.301-.188.614-.281.934-.281.23 0 .441.039.637.117.187.078.355.207.503.379.141.175.25.394.329.664.07.273.109.605.113.992V0h-.813v-3.098c0-.539-.093-.918-.277-1.136a.867.867 0 0 0-.668-.329 1.446 1.446 0 0 0-.52.114c-.171.078-.34.18-.5.312-.163.137-.288.305-.37.496-.09.2-.133.422-.13.676V0Zm0 0"/></symbol><symbol overflow="visible" id="v"><path style="stroke:none" d="M.957-7.496h2.266v6.844h1.511V0H.891v-.652h1.52V-6.84H.956Zm0 0"/></symbol><symbol overflow="visible" id="E"><path style="stroke:none" d="M.348-7.031H5.23v.71H3.156V0h-.812v-6.32H.348Zm0 0"/></symbol><symbol overflow="visible" id="F"><path style="stroke:none" d="m4.867-4.46-.472.706c-.04-.004-.06-.035-.055-.09a.355.355 0 0 0-.024-.113 2.307 2.307 0 0 0-.582-.477 1.728 1.728 0 0 0-1.265-.171 1.408 1.408 0 0 0-.356.144.656.656 0 0 0-.242.23.567.567 0 0 0-.09.32c0 .095.02.173.067.243a.73.73 0 0 0 .214.207c.098.07.235.137.415.203.175.07.41.149.699.227.648.176 1.105.379 1.379.613.265.238.402.531.402.875a1.5 1.5 0 0 1-.574 1.172c-.188.152-.414.27-.676.355a3.007 3.007 0 0 1-.89.13C1.948.108 1.222-.157.64-.7l.464-.813c.02.024.036.063.043.114.008.05.032.109.079.18.043.07.128.148.25.234.12.09.304.187.558.293.11.054.238.093.387.117.14.023.285.035.43.035.148 0 .3-.02.46-.059.153-.039.293-.093.422-.164a.978.978 0 0 0 .301-.261.55.55 0 0 0 .113-.344c0-.196-.093-.363-.273-.5-.188-.133-.52-.274-1-.422a7.056 7.056 0 0 1-.656-.203 3.027 3.027 0 0 1-.594-.274 1.348 1.348 0 0 1-.328-.285 1.186 1.186 0 0 1-.238-.37 1.057 1.057 0 0 1-.09-.462.998.998 0 0 1 .144-.52 1.47 1.47 0 0 1 .414-.44 2.42 2.42 0 0 1 .63-.31c.241-.077.507-.12.796-.12.79 0 1.426.273 1.914.812Zm0 0"/></symbol><symbol overflow="visible" id="G"><path style="stroke:none" d="M.61-7.02h1.632c.598 0 1.067.086 1.403.25.335.168.617.403.851.707.23.31.406.68.52 1.118.109.437.164.93.168 1.472a5.05 5.05 0 0 1-.204 1.457c-.136.43-.324.797-.558 1.098-.238.309-.543.54-.918.695-.375.157-.844.235-1.399.235H.61Zm.742.653V-.61h.714c.797 0 1.38-.243 1.75-.727.368-.484.555-1.18.555-2.094-.008-.914-.18-1.632-.508-2.156-.336-.516-.89-.777-1.672-.781Zm0 0"/></symbol><symbol overflow="visible" id="H"><path style="stroke:none" d="M1.195-5.148h2.063v4.496H4.46V0H1.125v-.652h1.32v-3.844h-1.25Zm1.262-2.075a.546.546 0 0 1 .406-.172c.153 0 .29.06.41.176a.594.594 0 0 1 .176.41.58.58 0 0 1-.176.41.567.567 0 0 1-.41.169.528.528 0 0 1-.406-.168.529.529 0 0 1-.168-.41.531.531 0 0 1 .168-.415Zm0 0"/></symbol><symbol overflow="visible" id="I"><path style="stroke:none" d="M.633-7.02h2.07c.824 0 1.422.184 1.79.551.362.367.546.852.546 1.453 0 .204-.035.407-.101.606-.07.2-.168.387-.29.558a1.978 1.978 0 0 1-.453.45 1.622 1.622 0 0 1-.59.27L5.23 0h-.878L2.793-3.098H1.441V0H.633Zm.808.743v2.48h1.36c.5 0 .86-.11 1.086-.332.222-.219.336-.516.34-.887a1.414 1.414 0 0 0-.09-.492 1.393 1.393 0 0 0-.254-.394 1.27 1.27 0 0 0-.43-.274 2.006 2.006 0 0 0-.652-.101Zm0 0"/></symbol><symbol overflow="visible" id="J"><path style="stroke:none" d="M.664-7.031H4.97v.699H1.41v2.309h2.942v.742H1.41V-.7h3.528V0H.663Zm0 0"/></symbol><symbol overflow="visible" id="K"><path style="stroke:none" d="m.176 0 2.476-7.145h.09L5.45 0h-.812l-.778-2.05H1.63L.953 0ZM3.68-2.66l-.993-2.68-.902 2.68Zm0 0"/></symbol><symbol overflow="visible" id="L"><path style="stroke:none" d="M.46-7.02h.622l1.734 3.438 1.77-3.45h.598V0H4.44v-5.297L2.918-2.469h-.305L1.195-5.262V0H.461Zm0 0"/></symbol><symbol overflow="visible" id="M"><path style="stroke:none" d="M.29-7.031h.808l1.816 5.398 1.7-5.387h.777L3.039.047h-.363Zm0 0"/></symbol><symbol overflow="visible" id="N"><path style="stroke:none" d="M3.156-.98c.133.14.2.292.203.46a.67.67 0 0 1-.676.645.69.69 0 0 1-.476-.184.613.613 0 0 1-.191-.46.62.62 0 0 1 .203-.461.663.663 0 0 1 .465-.192.71.71 0 0 1 .472.192Zm0 0"/></symbol><symbol overflow="visible" id="O"><path style="stroke:none" d="M.676-5.148h.8v.789c.172-.278.403-.496.696-.66.289-.16.582-.243.879-.243.285 0 .558.055.824.164.258.11.488.274.691.489.196.222.356.496.477.824.113.332.172.723.176 1.172a3.69 3.69 0 0 1-.188 1.195 2.688 2.688 0 0 1-.496.86 1.959 1.959 0 0 1-.695.519 2.03 2.03 0 0 1-.8.176 1.902 1.902 0 0 1-.884-.215 1.756 1.756 0 0 1-.668-.598v2.559H.676Zm.8 2.992c.016.554.145.953.387 1.191.242.238.54.356.899.356.183 0 .375-.028.566-.09.188-.055.36-.16.524-.309.156-.144.285-.336.378-.574.094-.238.141-.535.141-.898 0-.653-.14-1.165-.414-1.528-.281-.363-.668-.55-1.164-.566a1.782 1.782 0 0 0-.465.078 1.043 1.043 0 0 0-.426.27 1.38 1.38 0 0 0-.308.507 2.318 2.318 0 0 0-.117.79Zm0 0"/></symbol><symbol overflow="visible" id="P"><path style="stroke:none" d="M.664-4.79.52-5.147h.98a.416.416 0 0 1-.023.152.346.346 0 0 0-.024.117c0 .031.008.055.024.066l1.53 3.786.981-2.758a8.4 8.4 0 0 0 .239-.738c.054-.227.105-.434.144-.625h.848c-.07.199-.145.421-.223.664-.082.25-.176.523-.285.82L3.312.023l-.214.563c-.184.5-.414.852-.692 1.062-.285.204-.61.309-.976.313C.94 1.957.547 1.809.246 1.52L.676.8c.02.02.039.055.054.11a.326.326 0 0 0 .036.098c-.004 0 .011.015.043.05.03.032.07.067.12.102.048.035.11.067.184.102a.813.813 0 0 0 .25.047.938.938 0 0 0 .582-.207c.168-.137.332-.383.5-.739l.157-.386Zm0 0"/></symbol><symbol overflow="visible" id="Q"><path style="stroke:none" d="M1.195-7.02h3.559v.707H1.859l-.113 2.02c.367-.176.75-.266 1.149-.27.3.004.578.06.84.165.257.109.484.265.675.472.192.207.34.457.445.742.106.293.16.618.16.977 0 .363-.058.687-.171.973-.114.293-.27.539-.469.738-.2.207-.43.363-.695.465a2.437 2.437 0 0 1-.875.156 2.595 2.595 0 0 1-1.188-.281 2.294 2.294 0 0 1-.894-.801l.699-.52c.035.024.055.07.058.137.004.07.012.11.02.121a.75.75 0 0 0 .156.196c.074.074.168.144.285.21.114.07.25.13.403.176.152.051.316.075.5.075.176 0 .347-.04.515-.118.164-.078.309-.187.434-.332.121-.14.223-.316.297-.523.074-.207.11-.442.113-.707a2.175 2.175 0 0 0-.113-.703 1.536 1.536 0 0 0-.309-.524 1.433 1.433 0 0 0-.453-.328 1.475 1.475 0 0 0-.562-.113 1.63 1.63 0 0 0-.707.176 1.818 1.818 0 0 0-.606.488L.957-3.45Zm0 0"/></symbol><symbol overflow="visible" id="R"><path style="stroke:none" d="M.879-5.93c.203-.36.476-.636.828-.836a2.224 2.224 0 0 1 1.922-.148c.242.101.46.242.652.422.184.18.328.39.438.633.101.242.156.5.16.765a2.11 2.11 0 0 1-.098.621 2.58 2.58 0 0 1-.254.559 3.736 3.736 0 0 1-.363.504c-.14.164-.285.312-.434.445l-.675.633c-.102.09-.211.2-.328.32a5.811 5.811 0 0 0-.356.403c-.117.144-.23.293-.344.449-.113.156-.21.316-.293.472h2.942c.039.004.078-.015.117-.05a.22.22 0 0 1 .121-.051h.035V0H.824v-.496c.274-.547.574-1.02.899-1.418.32-.395.632-.73.937-1.004l.54-.496c.187-.172.34-.332.456-.48.117-.145.207-.286.278-.422a1.624 1.624 0 0 0 .168-.766A1.22 1.22 0 0 0 4-5.562a1.554 1.554 0 0 0-.29-.415 1.43 1.43 0 0 0-.413-.293 1.23 1.23 0 0 0-.48-.109 1.613 1.613 0 0 0-.93.29c-.117.081-.211.163-.274.245a.48.48 0 0 0-.113.23.4.4 0 0 1-.047.137Zm0 0"/></symbol><symbol overflow="visible" id="S"><path style="stroke:none" d="M3.234-7.102c.586 0 1.098.215 1.543.645l-.55.598a.408.408 0 0 1-.137-.196.258.258 0 0 0-.156-.156 1.366 1.366 0 0 0-.344-.148 2.213 2.213 0 0 0-.332-.043 1.74 1.74 0 0 0-.528.109c-.199.07-.386.203-.558.398-.176.196-.324.473-.445.829-.125.359-.192.82-.196 1.382a1.757 1.757 0 0 1 1.488-.848c.258.005.508.06.743.165.234.113.437.27.617.469.172.207.312.449.418.726a2.954 2.954 0 0 1-.008 1.895c-.11.289-.25.539-.43.742-.18.21-.394.37-.636.48a1.897 1.897 0 0 1-.782.168 1.915 1.915 0 0 1-.937-.23 1.923 1.923 0 0 1-.68-.66A3.172 3.172 0 0 1 .898-1.82 5.537 5.537 0 0 1 .754-3.2 6.771 6.771 0 0 1 .93-4.874c.113-.484.28-.89.5-1.223a2.31 2.31 0 0 1 .785-.75 2.077 2.077 0 0 1 1.02-.254ZM1.578-2.895a.4.4 0 0 0-.012.133.799.799 0 0 0 0 .137c-.004.293.032.566.106.813.07.25.172.46.3.64.126.18.274.324.45.43.172.105.36.156.555.156.32 0 .601-.137.843-.418.239-.273.356-.68.36-1.215a2.249 2.249 0 0 0-.114-.734 1.614 1.614 0 0 0-.285-.5 1.12 1.12 0 0 0-.828-.39c-.273 0-.535.093-.777.277-.25.187-.45.41-.598.671Zm0 0"/></symbol><symbol overflow="visible" id="T"><path style="stroke:none" d="M4.168-4.395v-3.101h.879a.328.328 0 0 1-.055.156c-.039.059-.058.113-.054.16l.011 6.707c-.004.184.016.34.055.473h-.82a1.207 1.207 0 0 1-.047-.383v-.441a1.83 1.83 0 0 1-.676.683 1.73 1.73 0 0 1-.863.254 1.979 1.979 0 0 1-.805-.168 1.834 1.834 0 0 1-.664-.507 2.451 2.451 0 0 1-.453-.852C.559-1.75.504-2.156.508-2.625c-.004-.473.058-.875.191-1.21.125-.333.293-.606.5-.825.203-.211.434-.371.688-.473.254-.101.511-.152.777-.152.356 0 .664.082.926.242.258.164.45.379.578.648Zm-2.371.149c-.32.293-.48.789-.477 1.492-.004.649.121 1.172.367 1.563.243.398.602.593 1.079.593.109 0 .226-.02.355-.062.125-.04.242-.102.356-.184.109-.082.21-.18.3-.293a1.22 1.22 0 0 0 .203-.386c.079-.27.122-.63.122-1.086 0-.282-.012-.52-.036-.715a2.576 2.576 0 0 0-.105-.492 1.035 1.035 0 0 0-.184-.332 1.274 1.274 0 0 0-.277-.235 2.365 2.365 0 0 0-.371-.187 1.18 1.18 0 0 0-.328-.063 1.61 1.61 0 0 0-.555.094c-.156.062-.305.16-.45.293Zm0 0"/></symbol><symbol overflow="visible" id="U"><path style="stroke:none" d="m5.148-4.293-.574.664c-.039-.02-.054-.047-.05-.074a.284.284 0 0 0-.012-.106.757.757 0 0 0-.086-.168 1.86 1.86 0 0 0-.27-.273c-.261-.203-.613-.309-1.054-.313-.227.004-.438.051-.633.137a1.618 1.618 0 0 0-.528.387 1.814 1.814 0 0 0-.363.605c-.094.235-.137.5-.137.793 0 .293.043.563.137.809.086.25.211.465.375.64.156.184.348.325.567.422.218.102.46.149.726.149.524 0 .973-.203 1.352-.617l.472.55a2.507 2.507 0 0 1-1.883.813 2.581 2.581 0 0 1-1.019-.203 2.355 2.355 0 0 1-.809-.563 2.484 2.484 0 0 1-.535-.851A2.894 2.894 0 0 1 .633-2.57c0-.38.062-.735.191-1.07.125-.329.305-.614.535-.852.227-.235.5-.418.82-.555.321-.133.669-.203 1.044-.203.406 0 .773.086 1.109.254.332.168.606.402.816.703Zm0 0"/></symbol><symbol overflow="visible" id="V"><path style="stroke:none" d="M4.352-6.129c.214.293.386.676.52 1.149.128.476.194 1.007.198 1.59-.004.597-.07 1.113-.199 1.55a3.72 3.72 0 0 1-.516 1.098c-.218.293-.46.512-.726.652-.274.145-.547.211-.824.215a1.562 1.562 0 0 1-.832-.258 2.417 2.417 0 0 1-.723-.726 3.621 3.621 0 0 1-.504-1.13 5.323 5.323 0 0 1-.183-1.46c0-.531.058-1.02.183-1.465.121-.441.29-.82.504-1.14.207-.317.45-.567.723-.747.27-.176.547-.265.832-.265.582 0 1.097.312 1.547.937Zm-.418.66c-.157-.297-.329-.523-.52-.68-.2-.148-.398-.226-.598-.23a.963.963 0 0 0-.558.203 1.829 1.829 0 0 0-.488.563 3.053 3.053 0 0 0-.344.875c-.09.347-.133.726-.13 1.133-.003.468.052.91.157 1.324Zm.257.75L1.715-1.574c.176.34.363.582.566.73a.978.978 0 0 0 .594.223c.2 0 .387-.059.566-.184.172-.12.329-.3.461-.535a3.12 3.12 0 0 0 .317-.844c.078-.332.117-.707.12-1.128a11.006 11.006 0 0 0-.034-.743 6.916 6.916 0 0 0-.114-.664Zm0 0"/></symbol><symbol overflow="visible" id="W"><path style="stroke:none" d="M4.867-6.582a71.205 71.205 0 0 0-1.324 3.258A56.38 56.38 0 0 0 2.41 0h-.89a91.43 91.43 0 0 1 2.367-6.277H.89v-.743h3.976Zm0 0"/></symbol><symbol overflow="visible" id="X"><path style="stroke:none" d="M.676-7.496h.937v.023a.152.152 0 0 1-.062.11c-.043.035-.063.074-.063.117v2.887c.164-.278.387-.496.672-.664.281-.165.57-.25.863-.25.286 0 .555.054.813.164.254.109.48.277.68.496.195.226.351.5.464.828.11.332.165.719.168 1.16-.003.469-.066.875-.187 1.21-.125.345-.29.63-.488.856a1.956 1.956 0 0 1-1.48.684A1.81 1.81 0 0 1 2.12-.09a1.818 1.818 0 0 1-.656-.586L1.187 0H.676ZM2.082-.81a1.466 1.466 0 0 0 .707.188c.148 0 .313-.027.5-.082.18-.055.352-.152.508-.297.156-.14.285-.332.387-.57.101-.239.152-.54.156-.91-.004-.676-.145-1.196-.422-1.555-.285-.356-.691-.535-1.223-.54-.191.005-.394.071-.605.204a1.142 1.142 0 0 0-.465.535c-.094.227-.137.594-.137 1.098 0 .32.004.586.02.797.012.218.043.398.094.543a.925.925 0 0 0 .48.59Zm0 0"/></symbol><symbol overflow="visible" id="Y"><path style="stroke:none" d="M2.445.113A2.142 2.142 0 0 1 .891-.53l.55-.594c.04.023.07.07.098.133.024.07.05.113.082.137.215.171.48.257.8.257.563 0 .985-.21 1.263-.636.277-.422.433-1.11.464-2.067a1.789 1.789 0 0 1-.632.551c-.258.14-.532.207-.82.203a1.617 1.617 0 0 1-.747-.164 1.79 1.79 0 0 1-.613-.457 1.969 1.969 0 0 1-.418-.703 2.387 2.387 0 0 1-.152-.906 2.44 2.44 0 0 1 .156-.918 2.23 2.23 0 0 1 .433-.735c.18-.203.395-.367.645-.484.242-.117.504-.176.785-.176.68 0 1.207.297 1.582.887.367.59.555 1.535.559 2.832-.004.598-.07 1.113-.2 1.547A3.215 3.215 0 0 1 4.192-.75a2.224 2.224 0 0 1-.789.637c-.3.144-.62.215-.957.226ZM4.102-4.09c.007-.058.011-.117.011-.176v-.175c0-.29-.039-.555-.11-.797a2.257 2.257 0 0 0-.284-.617A1.533 1.533 0 0 0 3.3-6.25c-.16-.09-.32-.137-.485-.14a1.167 1.167 0 0 0-.93.43c-.238.288-.359.679-.355 1.17a1.78 1.78 0 0 0 .102.65c.066.19.156.355.265.488.11.14.23.242.372.312.136.07.28.106.433.106.297 0 .567-.075.809-.23.234-.15.433-.36.59-.626Zm0 0"/></symbol><symbol overflow="visible" id="Z"><path style="stroke:none" d="M4.734-5.441c0 .34-.101.66-.304.96-.203.31-.477.551-.813.727.403.192.73.461.98.809.247.351.372.73.372 1.132 0 .274-.059.524-.168.758-.117.239-.27.446-.457.617a2.058 2.058 0 0 1-.68.407c-.266.097-.547.14-.848.144a2.485 2.485 0 0 1-.843-.144 2.017 2.017 0 0 1-.684-.403 1.774 1.774 0 0 1-.45-.597 1.575 1.575 0 0 1-.163-.739 1.855 1.855 0 0 1 .383-1.136 2.569 2.569 0 0 1 1.027-.824 1.902 1.902 0 0 1-.777-.692c-.2-.293-.297-.61-.293-.953-.004-.234.046-.46.144-.676.098-.207.23-.39.406-.55.168-.157.368-.282.594-.372a2.03 2.03 0 0 1 .735-.136c.261.004.503.046.734.129.223.09.418.207.582.359.16.156.289.336.383.535.093.207.14.422.14.645Zm-2.07 2.027c-.34.144-.621.355-.84.637a1.449 1.449 0 0 0-.336.93c0 .175.035.335.106.484.07.152.164.285.289.394.12.117.265.207.43.27.16.07.335.101.523.101.184 0 .355-.03.52-.093a1.3 1.3 0 0 0 .421-.262c.118-.106.211-.235.282-.383.066-.144.101-.3.101-.476 0-.344-.137-.665-.406-.954-.27-.289-.633-.504-1.09-.648ZM1.961-4.84c.09.152.207.285.355.39.141.114.309.216.5.313l.192.102c.273-.149.504-.352.687-.61.18-.253.27-.515.274-.78a.998.998 0 0 0-.086-.388 1.255 1.255 0 0 0-.238-.328 1.211 1.211 0 0 0-.356-.23 1.195 1.195 0 0 0-.437-.086 1.135 1.135 0 0 0-.782.305.88.88 0 0 0-.222.32.905.905 0 0 0-.078.371c0 .227.062.434.19.621Zm0 0"/></symbol><symbol overflow="visible" id="aa"><path style="stroke:none" d="M4.633-5.258a1.635 1.635 0 0 1-1.051 1.524c.36.132.652.359.875.687.219.332.328.707.332 1.125-.004.277-.055.54-.152.785-.106.25-.25.469-.442.653-.191.191-.425.34-.703.445-.277.11-.594.16-.945.164-.692-.004-1.281-.266-1.77-.8l.598-.712c.027.032.05.082.066.149.016.074.04.129.079.168l.16.144c.058.059.18.125.363.196.184.074.375.109.57.109a1.403 1.403 0 0 0 1.016-.414c.125-.13.226-.281.297-.453a1.52 1.52 0 0 0 .11-.551 1.148 1.148 0 0 0-.458-.945c-.308-.23-.707-.348-1.2-.352-.062.004-.12.004-.175.008-.058.004-.117.012-.176.015v-.656a2.8 2.8 0 0 0 .868-.105c.234-.067.421-.164.57-.285.14-.121.246-.262.312-.426a1.52 1.52 0 0 0 .098-.524.965.965 0 0 0-.336-.714 1.368 1.368 0 0 0-.383-.23 1.554 1.554 0 0 0-.496-.09 1.574 1.574 0 0 0-1.207.538l-.437-.484c.453-.5 1.015-.754 1.68-.754.265 0 .515.047.757.14a1.914 1.914 0 0 1 1.027.962c.098.214.149.445.153.683Zm0 0"/></symbol><symbol overflow="visible" id="ab"><path style="stroke:none" d="M3.371-7.031V0h-.777v-6.05l-1.422.413-.18-.437 1.836-.957Zm0 0"/></symbol></defs><path style="stroke:none;fill-rule:nonzero;fill:#fff;fill-opacity:1" d="M0 0h428v236H0Zm0 0"/><path style="fill:none;stroke-width:0;stroke-linecap:butt;stroke-linejoin:miter;stroke:#000;stroke-opacity:1;stroke-miterlimit:10" d="M0-.2h21.4v12H0Zm0 0" transform="matrix(20 0 0 20 0 4)"/><path style="fill-rule:evenodd;fill:#fefad8;fill-opacity:1;stroke-width:.1;stroke-linecap:butt;stroke-linejoin:round;stroke:#000;stroke-opacity:1;stroke-miterlimit:10" d="M7.2.4h13.5a.3.3 0 0 1 .3.3v1.4a.3.3 0 0 1-.3.3H7.2a.3.3 0 0 1-.3-.3V.7a.3.3 0 0 1 .3-.3" transform="matrix(20 0 0 20 0 4)"/><path style="fill-rule:evenodd;fill:#e9a4de;fill-opacity:1;stroke-width:.05;stroke-linecap:butt;stroke-linejoin:round;stroke:#000;stroke-opacity:1;stroke-miterlimit:10" d="M.7.4h5.4a.3.3 0 0 1 .3.3v1.4a.3.3 0 0 1-.3.3H.7a.3.3 0 0 1-.3-.3V.7A.3.3 0 0 1 .7.4" transform="matrix(20 0 0 20 0 4)"/><g style="fill:#000;fill-opacity:1"><use xlink:href="#a" x="18" y="27.051"/><use xlink:href="#b" x="26.184" y="27.051"/><use xlink:href="#c" x="33.605" y="27.051"/><use xlink:href="#d" x="37.063" y="27.051"/><use xlink:href="#e" x="40.422" y="27.051"/><use xlink:href="#f" x="47.707" y="27.051"/><use xlink:href="#g" x="55.129" y="27.051"/><use xlink:href="#h" x="61.301" y="27.051"/><use xlink:href="#i" x="68.723" y="27.051"/><use xlink:href="#e" x="76.145" y="27.051"/><use xlink:href="#j" x="83.43" y="27.051"/></g><g style="fill:#000;fill-opacity:1"><use xlink:href="#k" x="18" y="45.727"/><use xlink:href="#l" x="23.645" y="45.727"/><use xlink:href="#m" x="29.289" y="45.727"/><use xlink:href="#m" x="34.934" y="45.727"/><use xlink:href="#n" x="40.578" y="45.727"/><use xlink:href="#o" x="46.223" y="45.727"/><use xlink:href="#p" x="51.867" y="45.727"/><use xlink:href="#q" x="57.512" y="45.727"/><use xlink:href="#r" x="63.156" y="45.727"/><use xlink:href="#s" x="68.801" y="45.727"/><use xlink:href="#t" x="74.445" y="45.727"/><use xlink:href="#n" x="80.09" y="45.727"/><use xlink:href="#u" x="85.734" y="45.727"/><use xlink:href="#v" x="91.379" y="45.727"/><use xlink:href="#p" x="97.023" y="45.727"/><use xlink:href="#n" x="102.668" y="45.727"/></g><path style="fill-rule:evenodd;fill:#e9a4de;fill-opacity:1;stroke-width:.05;stroke-linecap:butt;stroke-linejoin:round;stroke:#000;stroke-opacity:1;stroke-miterlimit:10" d="M.7 3.4h5.4a.3.3 0 0 1 .3.3v1.4a.3.3 0 0 1-.3.3H.7a.3.3 0 0 1-.3-.3V3.7a.3.3 0 0 1 .3-.3M.7 6.4h5.4a.3.3 0 0 1 .3.3v1.4a.3.3 0 0 1-.3.3H.7a.3.3 0 0 1-.3-.3V6.7a.3.3 0 0 1 .3-.3M.7 9.4h5.4a.3.3 0 0 1 .3.3v1.4a.3.3 0 0 1-.3.3H.7a.3.3 0 0 1-.3-.3V9.7a.3.3 0 0 1 .3-.3" transform="matrix(20 0 0 20 0 4)"/><g style="fill:#000;fill-opacity:1"><use xlink:href="#a" x="18" y="87.051"/><use xlink:href="#w" x="26.184" y="87.051"/><use xlink:href="#c" x="33.605" y="87.051"/><use xlink:href="#d" x="37.063" y="87.051"/><use xlink:href="#x" x="40.422" y="87.051"/><use xlink:href="#e" x="47.844" y="87.051"/><use xlink:href="#f" x="55.129" y="87.051"/><use xlink:href="#y" x="62.551" y="87.051"/><use xlink:href="#z" x="66.945" y="87.051"/><use xlink:href="#y" x="74.367" y="87.051"/><use xlink:href="#A" x="78.762" y="87.051"/></g><g style="fill:#000;fill-opacity:1"><use xlink:href="#a" x="18" y="147.051"/><use xlink:href="#f" x="26.184" y="147.051"/><use xlink:href="#c" x="33.605" y="147.051"/><use xlink:href="#d" x="37.063" y="147.051"/><use xlink:href="#w" x="40.422" y="147.051"/><use xlink:href="#B" x="47.844" y="147.051"/><use xlink:href="#x" x="55.266" y="147.051"/><use xlink:href="#C" x="62.688" y="147.051"/><use xlink:href="#e" x="69.895" y="147.051"/><use xlink:href="#C" x="77.18" y="147.051"/><use xlink:href="#D" x="84.387" y="147.051"/></g><g style="fill:#000;fill-opacity:1"><use xlink:href="#a" x="18" y="207.051"/><use xlink:href="#D" x="26.184" y="207.051"/><use xlink:href="#c" x="33.605" y="207.051"/><use xlink:href="#d" x="37.063" y="207.051"/><use xlink:href="#j" x="40.422" y="207.051"/><use xlink:href="#B" x="48.371" y="207.051"/><use xlink:href="#b" x="55.793" y="207.051"/><use xlink:href="#B" x="63.215" y="207.051"/><use xlink:href="#B" x="70.637" y="207.051"/><use xlink:href="#j" x="78.059" y="207.051"/><use xlink:href="#B" x="86.008" y="207.051"/></g><g style="fill:#000;fill-opacity:1"><use xlink:href="#E" x="18" y="105.727"/><use xlink:href="#n" x="23.645" y="105.727"/><use xlink:href="#F" x="29.289" y="105.727"/><use xlink:href="#p" x="34.934" y="105.727"/><use xlink:href="#s" x="40.578" y="105.727"/><use xlink:href="#G" x="46.223" y="105.727"/><use xlink:href="#q" x="51.867" y="105.727"/><use xlink:href="#p" x="57.512" y="105.727"/><use xlink:href="#n" x="63.156" y="105.727"/><use xlink:href="#H" x="68.801" y="105.727"/></g><g style="fill:#000;fill-opacity:1"><use xlink:href="#I" x="18" y="165.727"/><use xlink:href="#J" x="23.645" y="165.727"/><use xlink:href="#K" x="29.289" y="165.727"/><use xlink:href="#G" x="34.934" y="165.727"/><use xlink:href="#L" x="40.578" y="165.727"/><use xlink:href="#J" x="46.223" y="165.727"/><use xlink:href="#s" x="51.867" y="165.727"/><use xlink:href="#G" x="57.512" y="165.727"/><use xlink:href="#q" x="63.156" y="165.727"/><use xlink:href="#p" x="68.801" y="165.727"/><use xlink:href="#n" x="74.445" y="165.727"/><use xlink:href="#H" x="80.09" y="165.727"/></g><g style="fill:#000;fill-opacity:1"><use xlink:href="#J" x="18" y="225.727"/><use xlink:href="#r" x="23.645" y="225.727"/><use xlink:href="#F" x="29.289" y="225.727"/><use xlink:href="#p" x="34.934" y="225.727"/><use xlink:href="#n" x="40.578" y="225.727"/><use xlink:href="#s" x="46.223" y="225.727"/><use xlink:href="#M" x="51.867" y="225.727"/><use xlink:href="#n" x="57.512" y="225.727"/><use xlink:href="#r" x="63.156" y="225.727"/><use xlink:href="#F" x="68.801" y="225.727"/><use xlink:href="#H" x="74.445" y="225.727"/><use xlink:href="#l" x="80.09" y="225.727"/><use xlink:href="#o" x="85.734" y="225.727"/></g><path style="fill-rule:evenodd;fill:#fefad8;fill-opacity:1;stroke-width:.1;stroke-linecap:butt;stroke-linejoin:round;stroke:#000;stroke-opacity:1;stroke-miterlimit:10" d="M7.2 9.4h13.5a.3.3 0 0 1 .3.3v1.4a.3.3 0 0 1-.3.3H7.2a.3.3 0 0 1-.3-.3V9.7a.3.3 0 0 1 .3-.3M7.2 3.4h13.5a.3.3 0 0 1 .3.3v1.4a.3.3 0 0 1-.3.3H7.2a.3.3 0 0 1-.3-.3V3.7a.3.3 0 0 1 .3-.3M7.2 6.4h13.5a.3.3 0 0 1 .3.3v1.4a.3.3 0 0 1-.3.3H7.2a.3.3 0 0 1-.3-.3V6.7a.3.3 0 0 1 .3-.3" transform="matrix(20 0 0 20 0 4)"/><path style="fill:none;stroke-width:.1;stroke-linecap:butt;stroke-linejoin:round;stroke:#000;stroke-opacity:1;stroke-miterlimit:10" d="M8.9 9.646V2.154M12.3 6.646V2.222M15.7 3.675v-1.45M19.1 3.7V2.2M3.4 2.4v.65" transform="matrix(20 0 0 20 0 4)"/><path style="fill-rule:evenodd;fill:#000;fill-opacity:1;stroke-width:.1;stroke-linecap:butt;stroke-linejoin:miter;stroke:#000;stroke-opacity:1;stroke-miterlimit:10" d="m3.25 3.05.15.3.15-.3h-.3Zm0 0" transform="matrix(20 0 0 20 0 4)"/><path style="fill:none;stroke-width:.1;stroke-linecap:butt;stroke-linejoin:miter;stroke:#000;stroke-opacity:1;stroke-miterlimit:10" d="M3.4 5.4v.65" transform="matrix(20 0 0 20 0 4)"/><path style="fill-rule:evenodd;fill:#000;fill-opacity:1;stroke-width:.1;stroke-linecap:butt;stroke-linejoin:miter;stroke:#000;stroke-opacity:1;stroke-miterlimit:10" d="m3.25 6.05.15.3.15-.3h-.3Zm0 0" transform="matrix(20 0 0 20 0 4)"/><path style="fill:none;stroke-width:.1;stroke-linecap:butt;stroke-linejoin:miter;stroke:#000;stroke-opacity:1;stroke-miterlimit:10" d="M3.4 8.4v.65" transform="matrix(20 0 0 20 0 4)"/><path style="fill-rule:evenodd;fill:#000;fill-opacity:1;stroke-width:.1;stroke-linecap:butt;stroke-linejoin:miter;stroke:#000;stroke-opacity:1;stroke-miterlimit:10" d="m3.25 9.05.15.3.15-.3h-.3Zm0 0" transform="matrix(20 0 0 20 0 4)"/><path style="stroke:none;fill-rule:evenodd;fill:#a1bbe5;fill-opacity:1" d="M154 16.566h48v30h-48ZM154 22.566v-6c-3.313 0-6 2.688-6 6h6ZM202 22.566h6c0-3.312-2.688-6-6-6v6Zm0 0"/><path style="stroke:none;fill-rule:evenodd;fill:#a1bbe5;fill-opacity:1" d="M148 22.566h60v18h-60ZM154 40.566h-6c0 3.313 2.688 6 6 6v-6ZM202 40.566v6c3.313 0 6-2.687 6-6h-6Zm0 0"/><path style="fill:none;stroke-width:.05;stroke-linecap:butt;stroke-linejoin:miter;stroke:#000;stroke-opacity:1;stroke-miterlimit:10" d="M7.7.628h2.4M7.7 2.128h2.4M7.7.628a.3.3 0 0 0-.3.3M10.4.928a.3.3 0 0 0-.3-.3M7.4.928v.9M10.4.928v.9M7.4 1.828a.3.3 0 0 0 .3.3M10.1 2.128a.3.3 0 0 0 .3-.3" transform="matrix(20 0 0 20 0 4)"/><g style="fill:#000;fill-opacity:1"><use xlink:href="#u" x="155.422" y="26.906"/><use xlink:href="#n" x="161.066" y="26.906"/><use xlink:href="#v" x="166.711" y="26.906"/><use xlink:href="#v" x="172.355" y="26.906"/><use xlink:href="#l" x="178" y="26.906"/><use xlink:href="#N" x="183.645" y="26.906"/><use xlink:href="#O" x="189.289" y="26.906"/><use xlink:href="#P" x="194.934" y="26.906"/></g><g style="fill:#000;fill-opacity:1"><use xlink:href="#Q" x="158.254" y="41.016"/><use xlink:href="#R" x="163.898" y="41.016"/><use xlink:href="#n" x="169.543" y="41.016"/><use xlink:href="#q" x="175.188" y="41.016"/><use xlink:href="#S" x="180.832" y="41.016"/><use xlink:href="#T" x="186.477" y="41.016"/><use xlink:href="#S" x="192.121" y="41.016"/></g><path style="stroke:none;fill-rule:evenodd;fill:#a1bbe5;fill-opacity:1" d="M154 197.434h48v30h-48ZM154 203.434v-6c-3.313 0-6 2.687-6 6h6ZM202 203.434h6c0-3.313-2.688-6-6-6v6Zm0 0"/><path style="stroke:none;fill-rule:evenodd;fill:#a1bbe5;fill-opacity:1" d="M148 203.434h60v18h-60ZM154 221.434h-6c0 3.312 2.688 6 6 6v-6ZM202 221.434v6c3.313 0 6-2.688 6-6h-6Zm0 0"/><path style="fill:none;stroke-width:.05;stroke-linecap:butt;stroke-linejoin:miter;stroke:#000;stroke-opacity:1;stroke-miterlimit:10" d="M7.7 9.672h2.4M7.7 11.172h2.4M7.7 9.672a.3.3 0 0 0-.3.3M10.4 9.972a.3.3 0 0 0-.3-.3M7.4 9.972v.9M10.4 9.972v.9M7.4 10.872a.3.3 0 0 0 .3.3M10.1 11.172a.3.3 0 0 0 .3-.3" transform="matrix(20 0 0 20 0 4)"/><g style="fill:#000;fill-opacity:1"><use xlink:href="#u" x="155.422" y="207.773"/><use xlink:href="#n" x="161.066" y="207.773"/><use xlink:href="#v" x="166.711" y="207.773"/><use xlink:href="#v" x="172.355" y="207.773"/><use xlink:href="#l" x="178" y="207.773"/><use xlink:href="#N" x="183.645" y="207.773"/><use xlink:href="#O" x="189.289" y="207.773"/><use xlink:href="#P" x="194.934" y="207.773"/></g><g style="fill:#000;fill-opacity:1"><use xlink:href="#T" x="158.254" y="221.883"/><use xlink:href="#U" x="163.898" y="221.883"/><use xlink:href="#U" x="169.543" y="221.883"/><use xlink:href="#V" x="175.188" y="221.883"/><use xlink:href="#R" x="180.832" y="221.883"/><use xlink:href="#W" x="186.477" y="221.883"/><use xlink:href="#X" x="192.121" y="221.883"/></g><path style="stroke:none;fill-rule:evenodd;fill:#cedcf2;fill-opacity:1" d="M154 136.945h48v30h-48ZM154 142.945v-6c-3.313 0-6 2.688-6 6h6ZM202 142.945h6c0-3.312-2.688-6-6-6v6Zm0 0"/><path style="stroke:none;fill-rule:evenodd;fill:#cedcf2;fill-opacity:1" d="M148 142.945h60v18h-60ZM154 160.945h-6c0 3.313 2.688 6 6 6v-6ZM202 160.945v6c3.313 0 6-2.687 6-6h-6Zm0 0"/><path style="fill:none;stroke-width:.05;stroke-linecap:butt;stroke-linejoin:miter;stroke:#000;stroke-opacity:1;stroke-dasharray:.1,.1;stroke-miterlimit:10" d="M7.7 6.647h2.4M7.7 8.147h2.4M7.7 6.647a.3.3 0 0 0-.3.3M10.4 6.947a.3.3 0 0 0-.3-.3M7.4 6.947v.9M10.4 6.947v.9M7.4 7.847a.3.3 0 0 0 .3.3M10.1 8.147a.3.3 0 0 0 .3-.3" transform="matrix(20 0 0 20 0 4)"/><g style="fill:#000;fill-opacity:1"><use xlink:href="#u" x="155.422" y="147.285"/><use xlink:href="#n" x="161.066" y="147.285"/><use xlink:href="#v" x="166.711" y="147.285"/><use xlink:href="#v" x="172.355" y="147.285"/><use xlink:href="#l" x="178" y="147.285"/><use xlink:href="#N" x="183.645" y="147.285"/><use xlink:href="#O" x="189.289" y="147.285"/><use xlink:href="#P" x="194.934" y="147.285"/></g><g style="fill:#000;fill-opacity:1"><use xlink:href="#T" x="158.254" y="161.395"/><use xlink:href="#U" x="163.898" y="161.395"/><use xlink:href="#U" x="169.543" y="161.395"/><use xlink:href="#V" x="175.188" y="161.395"/><use xlink:href="#R" x="180.832" y="161.395"/><use xlink:href="#W" x="186.477" y="161.395"/><use xlink:href="#X" x="192.121" y="161.395"/></g><path style="stroke:none;fill-rule:evenodd;fill:#cedcf2;fill-opacity:1" d="M154 77.297h48v30h-48ZM154 83.297v-6c-3.313 0-6 2.687-6 6h6ZM202 83.297h6c0-3.313-2.688-6-6-6v6Zm0 0"/><path style="stroke:none;fill-rule:evenodd;fill:#cedcf2;fill-opacity:1" d="M148 83.297h60v18h-60ZM154 101.297h-6c0 3.312 2.688 6 6 6v-6ZM202 101.297v6c3.313 0 6-2.688 6-6h-6Zm0 0"/><path style="fill:none;stroke-width:.05;stroke-linecap:butt;stroke-linejoin:miter;stroke:#000;stroke-opacity:1;stroke-dasharray:.1,.1;stroke-miterlimit:10" d="M7.7 3.665h2.4M7.7 5.165h2.4M7.7 3.665a.3.3 0 0 0-.3.3M10.4 3.965a.3.3 0 0 0-.3-.3M7.4 3.965v.9M10.4 3.965v.9M7.4 4.865a.3.3 0 0 0 .3.3M10.1 5.165a.3.3 0 0 0 .3-.3" transform="matrix(20 0 0 20 0 4)"/><g style="fill:#000;fill-opacity:1"><use xlink:href="#u" x="155.422" y="87.637"/><use xlink:href="#n" x="161.066" y="87.637"/><use xlink:href="#v" x="166.711" y="87.637"/><use xlink:href="#v" x="172.355" y="87.637"/><use xlink:href="#l" x="178" y="87.637"/><use xlink:href="#N" x="183.645" y="87.637"/><use xlink:href="#O" x="189.289" y="87.637"/><use xlink:href="#P" x="194.934" y="87.637"/></g><g style="fill:#000;fill-opacity:1"><use xlink:href="#T" x="158.254" y="101.746"/><use xlink:href="#U" x="163.898" y="101.746"/><use xlink:href="#U" x="169.543" y="101.746"/><use xlink:href="#V" x="175.188" y="101.746"/><use xlink:href="#R" x="180.832" y="101.746"/><use xlink:href="#W" x="186.477" y="101.746"/><use xlink:href="#X" x="192.121" y="101.746"/></g><path style="stroke:none;fill-rule:evenodd;fill:#cedcf2;fill-opacity:1" d="M222 18h48v30h-48ZM222 24v-6c-3.313 0-6 2.688-6 6h6ZM270 24h6c0-3.313-2.688-6-6-6v6Zm0 0"/><path style="stroke:none;fill-rule:evenodd;fill:#cedcf2;fill-opacity:1" d="M216 24h60v18h-60ZM222 42h-6c0 3.313 2.688 6 6 6v-6ZM270 42v6c3.313 0 6-2.688 6-6h-6Zm0 0"/><path style="fill:none;stroke-width:.05;stroke-linecap:butt;stroke-linejoin:miter;stroke:#000;stroke-opacity:1;stroke-dasharray:.1,.1;stroke-miterlimit:10" d="M11.1.7h2.4M11.1 2.2h2.4M11.1.7a.3.3 0 0 0-.3.3M13.8 1a.3.3 0 0 0-.3-.3M10.8 1v.9M13.8 1v.9M10.8 1.9a.3.3 0 0 0 .3.3M13.5 2.2a.3.3 0 0 0 .3-.3" transform="matrix(20 0 0 20 0 4)"/><g style="fill:#000;fill-opacity:1"><use xlink:href="#I" x="229.066" y="28.34"/><use xlink:href="#J" x="234.711" y="28.34"/><use xlink:href="#K" x="240.355" y="28.34"/><use xlink:href="#G" x="246" y="28.34"/><use xlink:href="#L" x="251.645" y="28.34"/><use xlink:href="#J" x="257.289" y="28.34"/></g><g style="fill:#000;fill-opacity:1"><use xlink:href="#S" x="226.254" y="42.449"/><use xlink:href="#U" x="231.898" y="42.449"/><use xlink:href="#t" x="237.543" y="42.449"/><use xlink:href="#Y" x="243.188" y="42.449"/><use xlink:href="#X" x="248.832" y="42.449"/><use xlink:href="#n" x="254.477" y="42.449"/><use xlink:href="#Z" x="260.121" y="42.449"/></g><path style="stroke:none;fill-rule:evenodd;fill:#a1bbe5;fill-opacity:1" d="M222 137.355h48v30h-48ZM222 143.355v-6c-3.313 0-6 2.688-6 6h6ZM270 143.355h6c0-3.312-2.688-6-6-6v6Zm0 0"/><path style="stroke:none;fill-rule:evenodd;fill:#a1bbe5;fill-opacity:1" d="M216 143.355h60v18h-60ZM222 161.355h-6c0 3.313 2.688 6 6 6v-6ZM270 161.355v6c3.313 0 6-2.687 6-6h-6Zm0 0"/><path style="fill:none;stroke-width:.05;stroke-linecap:butt;stroke-linejoin:miter;stroke:#000;stroke-opacity:1;stroke-miterlimit:10" d="M11.1 6.668h2.4M11.1 8.168h2.4M11.1 6.668a.3.3 0 0 0-.3.3M13.8 6.968a.3.3 0 0 0-.3-.3M10.8 6.968v.9M13.8 6.968v.9M10.8 7.868a.3.3 0 0 0 .3.3M13.5 8.168a.3.3 0 0 0 .3-.3" transform="matrix(20 0 0 20 0 4)"/><g style="fill:#000;fill-opacity:1"><use xlink:href="#I" x="229.066" y="147.695"/><use xlink:href="#J" x="234.711" y="147.695"/><use xlink:href="#K" x="240.355" y="147.695"/><use xlink:href="#G" x="246" y="147.695"/><use xlink:href="#L" x="251.645" y="147.695"/><use xlink:href="#J" x="257.289" y="147.695"/></g><g style="fill:#000;fill-opacity:1"><use xlink:href="#S" x="226.254" y="161.805"/><use xlink:href="#U" x="231.898" y="161.805"/><use xlink:href="#t" x="237.543" y="161.805"/><use xlink:href="#Y" x="243.188" y="161.805"/><use xlink:href="#X" x="248.832" y="161.805"/><use xlink:href="#n" x="254.477" y="161.805"/><use xlink:href="#Z" x="260.121" y="161.805"/></g><path style="stroke:none;fill-rule:evenodd;fill:#cedcf2;fill-opacity:1" d="M222 77.41h48v30h-48ZM222 83.41v-6c-3.313 0-6 2.684-6 6h6ZM270 83.41h6c0-3.316-2.688-6-6-6v6Zm0 0"/><path style="stroke:none;fill-rule:evenodd;fill:#cedcf2;fill-opacity:1" d="M216 83.41h60v18h-60ZM222 101.41h-6c0 3.313 2.688 6 6 6v-6ZM270 101.41v6c3.313 0 6-2.687 6-6h-6Zm0 0"/><path style="fill:none;stroke-width:.05;stroke-linecap:butt;stroke-linejoin:miter;stroke:#000;stroke-opacity:1;stroke-dasharray:.1,.1;stroke-miterlimit:10" d="M11.1 3.67h2.4M11.1 5.17h2.4M11.1 3.67a.3.3 0 0 0-.3.3M13.8 3.97a.3.3 0 0 0-.3-.3M10.8 3.97v.9M13.8 3.97v.9M10.8 4.87a.3.3 0 0 0 .3.3M13.5 5.17a.3.3 0 0 0 .3-.3" transform="matrix(20 0 0 20 0 4)"/><g style="fill:#000;fill-opacity:1"><use xlink:href="#I" x="229.066" y="87.746"/><use xlink:href="#J" x="234.711" y="87.746"/><use xlink:href="#K" x="240.355" y="87.746"/><use xlink:href="#G" x="246" y="87.746"/><use xlink:href="#L" x="251.645" y="87.746"/><use xlink:href="#J" x="257.289" y="87.746"/></g><g style="fill:#000;fill-opacity:1"><use xlink:href="#S" x="226.254" y="101.859"/><use xlink:href="#U" x="231.898" y="101.859"/><use xlink:href="#t" x="237.543" y="101.859"/><use xlink:href="#Y" x="243.188" y="101.859"/><use xlink:href="#X" x="248.832" y="101.859"/><use xlink:href="#n" x="254.477" y="101.859"/><use xlink:href="#Z" x="260.121" y="101.859"/></g><path style="stroke:none;fill-rule:evenodd;fill:#a9e5a1;fill-opacity:1" d="M290 78h48v30h-48ZM290 84v-6c-3.313 0-6 2.688-6 6h6ZM338 84h6c0-3.313-2.688-6-6-6v6Zm0 0"/><path style="stroke:none;fill-rule:evenodd;fill:#a9e5a1;fill-opacity:1" d="M284 84h60v18h-60ZM290 102h-6c0 3.313 2.688 6 6 6v-6ZM338 102v6c3.313 0 6-2.688 6-6h-6Zm0 0"/><path style="fill:none;stroke-width:.05;stroke-linecap:butt;stroke-linejoin:miter;stroke:#000;stroke-opacity:1;stroke-miterlimit:10" d="M14.5 3.7h2.4M14.5 5.2h2.4M14.5 3.7a.3.3 0 0 0-.3.3M17.2 4a.3.3 0 0 0-.3-.3M14.2 4v.9M17.2 4v.9M14.2 4.9a.3.3 0 0 0 .3.3M16.9 5.2a.3.3 0 0 0 .3-.3" transform="matrix(20 0 0 20 0 4)"/><g style="fill:#000;fill-opacity:1"><use xlink:href="#p" x="302.711" y="88.34"/><use xlink:href="#n" x="308.355" y="88.34"/><use xlink:href="#F" x="314" y="88.34"/><use xlink:href="#p" x="319.645" y="88.34"/></g><g style="fill:#000;fill-opacity:1"><use xlink:href="#U" x="294.254" y="102.449"/><use xlink:href="#aa" x="299.898" y="102.449"/><use xlink:href="#W" x="305.543" y="102.449"/><use xlink:href="#t" x="311.188" y="102.449"/><use xlink:href="#T" x="316.832" y="102.449"/><use xlink:href="#S" x="322.477" y="102.449"/><use xlink:href="#t" x="328.121" y="102.449"/></g><path style="stroke:none;fill-rule:evenodd;fill:#d2f2ce;fill-opacity:1" d="M290 18h48v30h-48ZM290 24v-6c-3.313 0-6 2.688-6 6h6ZM338 24h6c0-3.313-2.688-6-6-6v6Zm0 0"/><path style="stroke:none;fill-rule:evenodd;fill:#d2f2ce;fill-opacity:1" d="M284 24h60v18h-60ZM290 42h-6c0 3.313 2.688 6 6 6v-6ZM338 42v6c3.313 0 6-2.688 6-6h-6Zm0 0"/><path style="fill:none;stroke-width:.05;stroke-linecap:butt;stroke-linejoin:miter;stroke:#000;stroke-opacity:1;stroke-dasharray:.1,.1;stroke-miterlimit:10" d="M14.5.7h2.4M14.5 2.2h2.4M14.5.7a.3.3 0 0 0-.3.3M17.2 1a.3.3 0 0 0-.3-.3M14.2 1v.9M17.2 1v.9M14.2 1.9a.3.3 0 0 0 .3.3M16.9 2.2a.3.3 0 0 0 .3-.3" transform="matrix(20 0 0 20 0 4)"/><g style="fill:#000;fill-opacity:1"><use xlink:href="#p" x="302.711" y="28.34"/><use xlink:href="#n" x="308.355" y="28.34"/><use xlink:href="#F" x="314" y="28.34"/><use xlink:href="#p" x="319.645" y="28.34"/></g><g style="fill:#000;fill-opacity:1"><use xlink:href="#U" x="294.254" y="42.449"/><use xlink:href="#aa" x="299.898" y="42.449"/><use xlink:href="#W" x="305.543" y="42.449"/><use xlink:href="#t" x="311.188" y="42.449"/><use xlink:href="#T" x="316.832" y="42.449"/><use xlink:href="#S" x="322.477" y="42.449"/><use xlink:href="#t" x="328.121" y="42.449"/></g><path style="stroke:none;fill-rule:evenodd;fill:#a1bbe5;fill-opacity:1" d="M358 78h48v30h-48ZM358 84v-6c-3.313 0-6 2.688-6 6h6ZM406 84h6c0-3.313-2.688-6-6-6v6Zm0 0"/><path style="stroke:none;fill-rule:evenodd;fill:#a1bbe5;fill-opacity:1" d="M352 84h60v18h-60ZM358 102h-6c0 3.313 2.688 6 6 6v-6ZM406 102v6c3.313 0 6-2.688 6-6h-6Zm0 0"/><path style="fill:none;stroke-width:.05;stroke-linecap:butt;stroke-linejoin:miter;stroke:#000;stroke-opacity:1;stroke-miterlimit:10" d="M17.9 3.7h2.4M17.9 5.2h2.4M17.9 3.7a.3.3 0 0 0-.3.3M20.6 4a.3.3 0 0 0-.3-.3M17.6 4v.9M20.6 4v.9M17.6 4.9a.3.3 0 0 0 .3.3M20.3 5.2a.3.3 0 0 0 .3-.3" transform="matrix(20 0 0 20 0 4)"/><g style="fill:#000;fill-opacity:1"><use xlink:href="#p" x="362.254" y="88.34"/><use xlink:href="#n" x="367.898" y="88.34"/><use xlink:href="#F" x="373.543" y="88.34"/><use xlink:href="#p" x="379.188" y="88.34"/><use xlink:href="#N" x="384.832" y="88.34"/><use xlink:href="#F" x="390.477" y="88.34"/><use xlink:href="#u" x="396.121" y="88.34"/></g><g style="fill:#000;fill-opacity:1"><use xlink:href="#n" x="362.254" y="102.449"/><use xlink:href="#Y" x="367.898" y="102.449"/><use xlink:href="#R" x="373.543" y="102.449"/><use xlink:href="#X" x="379.188" y="102.449"/><use xlink:href="#t" x="384.832" y="102.449"/><use xlink:href="#ab" x="390.477" y="102.449"/><use xlink:href="#Q" x="396.121" y="102.449"/></g><path style="stroke:none;fill-rule:evenodd;fill:#cedcf2;fill-opacity:1" d="M358 18h48v30h-48ZM358 24v-6c-3.313 0-6 2.688-6 6h6ZM406 24h6c0-3.313-2.688-6-6-6v6Zm0 0"/><path style="stroke:none;fill-rule:evenodd;fill:#cedcf2;fill-opacity:1" d="M352 24h60v18h-60ZM358 42h-6c0 3.313 2.688 6 6 6v-6ZM406 42v6c3.313 0 6-2.688 6-6h-6Zm0 0"/><path style="fill:none;stroke-width:.05;stroke-linecap:butt;stroke-linejoin:miter;stroke:#000;stroke-opacity:1;stroke-dasharray:.1,.1;stroke-miterlimit:10" d="M17.9.7h2.4M17.9 2.2h2.4M17.9.7a.3.3 0 0 0-.3.3M20.6 1a.3.3 0 0 0-.3-.3M17.6 1v.9M20.6 1v.9M17.6 1.9a.3.3 0 0 0 .3.3M20.3 2.2a.3.3 0 0 0 .3-.3" transform="matrix(20 0 0 20 0 4)"/><g style="fill:#000;fill-opacity:1"><use xlink:href="#p" x="362.254" y="28.34"/><use xlink:href="#n" x="367.898" y="28.34"/><use xlink:href="#F" x="373.543" y="28.34"/><use xlink:href="#p" x="379.188" y="28.34"/><use xlink:href="#N" x="384.832" y="28.34"/><use xlink:href="#F" x="390.477" y="28.34"/><use xlink:href="#u" x="396.121" y="28.34"/></g><g style="fill:#000;fill-opacity:1"><use xlink:href="#n" x="362.254" y="42.449"/><use xlink:href="#Y" x="367.898" y="42.449"/><use xlink:href="#R" x="373.543" y="42.449"/><use xlink:href="#X" x="379.188" y="42.449"/><use xlink:href="#t" x="384.832" y="42.449"/><use xlink:href="#ab" x="390.477" y="42.449"/><use xlink:href="#Q" x="396.121" y="42.449"/></g></svg>