<?xml version="1.0" encoding="UTF-8" standalone="no"?>
<!DOCTYPE svg PUBLIC "-//W3C//DTD SVG 1.0//EN" "http://www.w3.org/TR/2001/PR-SVG-20010719/DTD/svg10.dtd">
<svg width="21cm" height="12cm" viewBox="559 -12 402 223" xmlns="http://www.w3.org/2000/svg" xmlns:xlink="http://www.w3.org/1999/xlink">
  <g>
    <rect style="fill: #ffffbb" x="690" y="-10" width="270" height="40" rx="6" ry="6"/>
    <rect style="fill: none; fill-opacity:0; stroke-width: 2; stroke-linejoin: round; stroke: #000000" x="690" y="-10" width="270" height="40" rx="6" ry="6"/>
  </g>
  <g>
    <rect style="fill: #8086ac" x="701.5" y="-7.5" width="55.2426" height="33.2426" rx="6" ry="6"/>
    <rect style="fill: none; fill-opacity:0; stroke-width: 1; stroke-linejoin: round; stroke: #000000" x="701.5" y="-7.5" width="55.2426" height="33.2426" rx="6" ry="6"/>
  </g>
  <text font-size="11.0292" style="fill: #000000;text-anchor:middle;font-family:monospace;font-style:normal;font-weight:normal" x="730" y="5.95672">
    <tspan x="730" y="5.95672">hello.py</tspan>
    <tspan x="730" y="19.7433">52ea6d6</tspan>
  </text>
  <g>
    <rect style="fill: #c5919b" x="560" y="-10" width="120" height="40" rx="6" ry="6"/>
    <rect style="fill: none; fill-opacity:0; stroke-width: 1; stroke-linejoin: round; stroke: #000000" x="560" y="-10" width="120" height="40" rx="6" ry="6"/>
  </g>
  <text font-size="12.8" style="fill: #000000;text-anchor:start;font-family:sans-serif;font-style:normal;font-weight:normal" x="570" y="5.075">
    <tspan x="570" y="5.075">C4: e2c67eb</tspan>
  </text>
  <text font-size="11.0292" style="fill: #000000;text-anchor:start;font-family:monospace;font-style:normal;font-weight:normal" x="570" y="22.85">
    <tspan x="570" y="22.85">Kommentar fehlte</tspan>
  </text>
  <g>
    <rect style="fill: #c5919b" x="560" y="50" width="120" height="40" rx="6" ry="6"/>
    <rect style="fill: none; fill-opacity:0; stroke-width: 1; stroke-linejoin: round; stroke: #000000" x="560" y="50" width="120" height="40" rx="6" ry="6"/>
  </g>
  <g>
    <rect style="fill: #c5919b" x="560" y="110" width="120" height="40" rx="6" ry="6"/>
    <rect style="fill: none; fill-opacity:0; stroke-width: 1; stroke-linejoin: round; stroke: #000000" x="560" y="110" width="120" height="40" rx="6" ry="6"/>
  </g>
  <g>
    <rect style="fill: #c5919b" x="560" y="170" width="120" height="40" rx="6" ry="6"/>
    <rect style="fill: none; fill-opacity:0; stroke-width: 1; stroke-linejoin: round; stroke: #000000" x="560" y="170" width="120" height="40" rx="6" ry="6"/>
  </g>
  <text font-size="12.8" style="fill: #000000;text-anchor:start;font-family:sans-serif;font-style:normal;font-weight:normal" x="570" y="65.075">
    <tspan x="570" y="65.075">C3: 8e2f5f9</tspan>
  </text>
  <text font-size="12.8" style="fill: #000000;text-anchor:start;font-family:sans-serif;font-style:normal;font-weight:normal" x="570" y="125.075">
    <tspan x="570" y="125.075">C2: 308aea1</tspan>
  </text>
  <text font-size="12.8" style="fill: #000000;text-anchor:start;font-family:sans-serif;font-style:normal;font-weight:normal" x="570" y="185.075">
    <tspan x="570" y="185.075">C1: b0400b0</tspan>
  </text>
  <text font-size="11.0292" style="fill: #000000;text-anchor:start;font-family:monospace;font-style:normal;font-weight:normal" x="570" y="82.85">
    <tspan x="570" y="82.85">Test Datei</tspan>
  </text>
  <text font-size="11.0292" style="fill: #000000;text-anchor:start;font-family:monospace;font-style:normal;font-weight:normal" x="570" y="142.85">
    <tspan x="570" y="142.85">README Datei</tspan>
  </text>
  <text font-size="11.0292" style="fill: #000000;text-anchor:start;font-family:monospace;font-style:normal;font-weight:normal" x="570" y="202.85">
    <tspan x="570" y="202.85">Erste Version</tspan>
  </text>
  <g>
    <rect style="fill: #c3c5cf" x="761.5" y="-7.5" width="55.2426" height="33.2426" rx="6" ry="6"/>
    <rect style="fill: none; fill-opacity:0; stroke-width: 1; stroke-linejoin: round; stroke-dasharray: 4; stroke: #000000" x="761.5" y="-7.5" width="55.2426" height="33.2426" rx="6" ry="6"/>
  </g>
  <g>
    <rect style="fill: #acdaaa" x="832.378" y="-6.62132" width="55.2426" height="33.2426" rx="6" ry="6"/>
    <rect style="fill: none; fill-opacity:0; stroke-width: 1; stroke-linejoin: round; stroke-dasharray: 4; stroke: #000000" x="832.378" y="-6.62132" width="55.2426" height="33.2426" rx="6" ry="6"/>
  </g>
  <text font-size="11.0292" style="fill: #4b4444;text-anchor:middle;font-family:monospace;font-style:normal;font-weight:normal" x="860" y="5.95672">
    <tspan x="860" y="5.95672">test</tspan>
    <tspan x="860" y="19.7433">c37fd6f</tspan>
  </text>
  <g>
    <rect style="fill: #ffffbb" x="690" y="170" width="270" height="40" rx="6" ry="6"/>
    <rect style="fill: none; fill-opacity:0; stroke-width: 2; stroke-linejoin: round; stroke: #000000" x="690" y="170" width="270" height="40" rx="6" ry="6"/>
  </g>
  <g>
    <rect style="fill: #8086ac" x="701.5" y="172.5" width="55.2426" height="33.2426" rx="6" ry="6"/>
    <rect style="fill: none; fill-opacity:0; stroke-width: 1; stroke-linejoin: round; stroke: #000000" x="701.5" y="172.5" width="55.2426" height="33.2426" rx="6" ry="6"/>
  </g>
  <text font-size="11.0292" style="fill: #000000;text-anchor:middle;font-family:monospace;font-style:normal;font-weight:normal" x="729.122" y="185.078">
    <tspan x="729.122" y="185.078">hello.py</tspan>
    <tspan x="729.122" y="198.865">dcc027b</tspan>
  </text>
  <g>
    <rect style="fill: #ffffbb" x="690" y="50" width="270" height="40" rx="6" ry="6"/>
    <rect style="fill: none; fill-opacity:0; stroke-width: 2; stroke-linejoin: round; stroke: #000000" x="690" y="50" width="270" height="40" rx="6" ry="6"/>
  </g>
  <g>
    <rect style="fill: #c3c5cf" x="701.5" y="52.5" width="55.2426" height="33.2426" rx="6" ry="6"/>
    <rect style="fill: none; fill-opacity:0; stroke-width: 1; stroke-linejoin: round; stroke-dasharray: 4; stroke: #000000" x="701.5" y="52.5" width="55.2426" height="33.2426" rx="6" ry="6"/>
  </g>
  <text font-size="11.0292" style="fill: #4b4444;text-anchor:middle;font-family:monospace;font-style:normal;font-weight:normal" x="729.122" y="65.0781">
    <tspan x="729.122" y="65.0781">hello.py</tspan>
    <tspan x="729.122" y="78.8647">dcc027b</tspan>
  </text>
  <g>
    <rect style="fill: #c3c5cf" x="761.5" y="52.5" width="55.2426" height="33.2426" rx="6" ry="6"/>
    <rect style="fill: none; fill-opacity:0; stroke-width: 1; stroke-linejoin: round; stroke-dasharray: 4; stroke: #000000" x="761.5" y="52.5" width="55.2426" height="33.2426" rx="6" ry="6"/>
  </g>
  <g>
    <rect style="fill: #8086ac" x="892.378" y="53.3786" width="55.2426" height="33.2426" rx="6" ry="6"/>
    <rect style="fill: none; fill-opacity:0; stroke-width: 1; stroke-linejoin: round; stroke: #000000" x="892.378" y="53.3786" width="55.2426" height="33.2426" rx="6" ry="6"/>
  </g>
  <text font-size="11.0292" style="fill: #000000;text-anchor:middle;font-family:monospace;font-style:normal;font-weight:normal" x="920" y="65.9567">
    <tspan x="920" y="65.9567">test.sh</tspan>
    <tspan x="920" y="79.7433">e92bf15</tspan>
  </text>
  <g>
    <rect style="fill: #ffffbb" x="690" y="110" width="270" height="40" rx="6" ry="6"/>
    <rect style="fill: none; fill-opacity:0; stroke-width: 2; stroke-linejoin: round; stroke: #000000" x="690" y="110" width="270" height="40" rx="6" ry="6"/>
  </g>
  <g>
    <rect style="fill: #c3c5cf" x="701.5" y="112.5" width="55.2426" height="33.2426" rx="6" ry="6"/>
    <rect style="fill: none; fill-opacity:0; stroke-width: 1; stroke-linejoin: round; stroke-dasharray: 4; stroke: #000000" x="701.5" y="112.5" width="55.2426" height="33.2426" rx="6" ry="6"/>
  </g>
  <text font-size="11.0292" style="fill: #4b4444;text-anchor:middle;font-family:monospace;font-style:normal;font-weight:normal" x="729.122" y="125.078">
    <tspan x="729.122" y="125.078">hello.py</tspan>
    <tspan x="729.122" y="138.865">dcc027b</tspan>
  </text>
  <g>
    <rect style="fill: #8086ac" x="761.5" y="112.5" width="55.2426" height="33.2426" rx="6" ry="6"/>
    <rect style="fill: none; fill-opacity:0; stroke-width: 1; stroke-linejoin: round; stroke: #000000" x="761.5" y="112.5" width="55.2426" height="33.2426" rx="6" ry="6"/>
  </g>
  <text font-size="11.0292" style="fill: #000000;text-anchor:middle;font-family:monospace;font-style:normal;font-weight:normal" x="790" y="125.957">
    <tspan x="790" y="125.957">README</tspan>
    <tspan x="790" y="139.743">6cf9be8</tspan>
  </text>
  <text font-size="11.0292" style="fill: #4b4444;text-anchor:middle;font-family:monospace;font-style:normal;font-weight:normal" x="789.122" y="5.07804">
    <tspan x="789.122" y="5.07804">README</tspan>
    <tspan x="789.122" y="18.8646">6cf9be8</tspan>
  </text>
  <text font-size="11.0292" style="fill: #4b4444;text-anchor:middle;font-family:monospace;font-style:normal;font-weight:normal" x="789.122" y="65.0781">
    <tspan x="789.122" y="65.0781">README</tspan>
    <tspan x="789.122" y="78.8647">6cf9be8</tspan>
  </text>
  <g>
    <rect style="fill: #c3c5cf" x="892.378" y="-6.62132" width="55.2426" height="33.2426" rx="6" ry="6"/>
    <rect style="fill: none; fill-opacity:0; stroke-width: 1; stroke-linejoin: round; stroke-dasharray: 4; stroke: #000000" x="892.378" y="-6.62132" width="55.2426" height="33.2426" rx="6" ry="6"/>
  </g>
  <text font-size="11.0292" style="fill: #4b4444;text-anchor:middle;font-family:monospace;font-style:normal;font-weight:normal" x="920" y="5.95672">
    <tspan x="920" y="5.95672">test.sh</tspan>
    <tspan x="920" y="19.7433">e92bf15</tspan>
  </text>
  <g>
    <rect style="fill: #699768" x="832.378" y="53.3786" width="55.2426" height="33.2426" rx="6" ry="6"/>
    <rect style="fill: none; fill-opacity:0; stroke-width: 1; stroke-linejoin: round; stroke: #000000" x="832.378" y="53.3786" width="55.2426" height="33.2426" rx="6" ry="6"/>
  </g>
  <text font-size="11.0292" style="fill: #000000;text-anchor:middle;font-family:monospace;font-style:normal;font-weight:normal" x="860" y="65.9567">
    <tspan x="860" y="65.9567">test</tspan>
    <tspan x="860" y="79.7433">c37fd6f</tspan>
  </text>
  <line style="fill: none; fill-opacity:0; stroke-width: 2; stroke-linejoin: round; stroke: #000000" x1="729.122" y1="172.5" x2="729.122" y2="145.743"/>
  <line style="fill: none; fill-opacity:0; stroke-width: 2; stroke-linejoin: round; stroke: #000000" x1="729.122" y1="112.5" x2="729.122" y2="85.7426"/>
  <line style="fill: none; fill-opacity:0; stroke-width: 2; stroke-linejoin: round; stroke: #000000" x1="729.122" y1="52.5" x2="729.122" y2="25.7426"/>
  <line style="fill: none; fill-opacity:0; stroke-width: 2; stroke-linejoin: round; stroke: #000000" x1="789.122" y1="52.5" x2="789.122" y2="25.7426"/>
  <line style="fill: none; fill-opacity:0; stroke-width: 2; stroke-linejoin: round; stroke: #000000" x1="789.122" y1="112.5" x2="789.122" y2="85.7426"/>
  <line style="fill: none; fill-opacity:0; stroke-width: 2; stroke-linejoin: round; stroke: #000000" x1="860" y1="53.3786" x2="860" y2="26.6214"/>
  <line style="fill: none; fill-opacity:0; stroke-width: 2; stroke-linejoin: round; stroke: #000000" x1="920" y1="53.3786" x2="920" y2="26.6214"/>
  <g>
    <line style="fill: none; fill-opacity:0; stroke-width: 2; stroke-linejoin: round; stroke: #000000" x1="620" y1="30" x2="620" y2="43"/>
    <polygon style="fill: #000000" points="617,43 620,49 623,43 "/>
    <polygon style="fill: none; fill-opacity:0; stroke-width: 2; stroke: #000000" points="617,43 620,49 623,43 "/>
  </g>
  <g>
    <line style="fill: none; fill-opacity:0; stroke-width: 2; stroke: #000000" x1="620" y1="90" x2="620" y2="103"/>
    <polygon style="fill: #000000" points="617,103 620,109 623,103 "/>
    <polygon style="fill: none; fill-opacity:0; stroke-width: 2; stroke: #000000" points="617,103 620,109 623,103 "/>
  </g>
  <g>
    <line style="fill: none; fill-opacity:0; stroke-width: 2; stroke: #000000" x1="620" y1="150" x2="620" y2="163"/>
    <polygon style="fill: #000000" points="617,163 620,169 623,163 "/>
    <polygon style="fill: none; fill-opacity:0; stroke-width: 2; stroke: #000000" points="617,163 620,169 623,163 "/>
  </g>
</svg>
