<svg xmlns="http://www.w3.org/2000/svg" xmlns:xlink="http://www.w3.org/1999/xlink" width="340pt" height="96" viewBox="0 0 340 72"><defs><symbol overflow="visible" id="a"><path style="stroke:none" d="M5.781-2.684c-.004.891-.3 1.582-.89 2.075-.594.488-1.43.73-2.504.734A7.343 7.343 0 0 1 1.203.031a3.656 3.656 0 0 1-.957-.304v-1.075a4.548 4.548 0 0 0 2.152.532c.68.003 1.223-.157 1.63-.477.398-.316.6-.754.6-1.316 0-.325-.112-.614-.331-.868-.227-.25-.637-.55-1.238-.894-.641-.356-1.086-.711-1.329-1.074-.25-.356-.37-.782-.367-1.274-.004-.785.274-1.426.836-1.926.555-.492 1.29-.742 2.196-.746.418.004.804.043 1.168.121.359.082.742.22 1.144.41l-.418.95a4.395 4.395 0 0 0-.937-.38 4.108 4.108 0 0 0-.957-.14c-.567.004-1.024.153-1.364.442-.347.297-.52.695-.515 1.195-.004.23.03.426.105.586.07.164.188.316.344.457.156.148.453.348.898.602.617.375 1.035.668 1.254.875.215.214.383.445.496.699.11.258.164.554.168.89Zm0 0"/></symbol><symbol overflow="visible" id="b"><path style="stroke:none" d="M6.871 0H5.812l.907-4.355h-4.18L1.621 0H.543L2.5-9.258h1.078L2.75-5.32h4.176l.844-3.938h1.062Zm0 0"/></symbol><symbol overflow="visible" id="c"><path style="stroke:none" d="M5.148-2.945h-3.14L.457 0h-1.2L4.32-9.258h1.102L6.586 0H5.508Zm-.113-.989-.223-1.89a19.979 19.979 0 0 1-.183-2.219c-.156.375-.328.746-.512 1.11-.183.37-.71 1.37-1.578 3Zm0 0"/></symbol><symbol overflow="visible" id="d"><path style="stroke:none" d="m.348-2.969.222-1h3.032l-.215 1Zm0 0"/></symbol><symbol overflow="visible" id="e"><path style="stroke:none" d="M3.723 0h-1.09l1.242-5.781c.246-1.098.434-1.856.559-2.274-.215.227-.508.461-.883.703l-1.125.696-.508-.805 2.844-1.797h.945Zm0 0"/></symbol><symbol overflow="visible" id="f"><path style="stroke:none" d="m1.168-4.219.414-.011-.145 1.156h.747l.132-1.13.422-.007-.136 1.121h.613l-.04.32h-.612l-.145 1.141h.672l-.035.305h-.668l-.149 1.23-.414.028.149-1.239h-.75L1.082-.094l-.398.008.14-1.203H.168l.027-.305h.668L1-2.75H.262l.023-.313h.75Zm.23 1.461-.132 1.149h.742l.14-1.149Zm0 0"/></symbol><symbol overflow="visible" id="g"><path style="stroke:none" d="M1.898-.602a.42.42 0 0 1 .122.286.4.4 0 0 1-.122.273.423.423 0 0 1-.285.117.413.413 0 0 1-.281-.113.343.343 0 0 1-.117-.277.37.37 0 0 1 .117-.286.403.403 0 0 1 .281-.12.427.427 0 0 1 .285.12Zm-.27-3.914a.317.317 0 0 1 .25.133c.06.09.09.238.095.438a2.44 2.44 0 0 0-.008.18c-.008.07-.012.148-.02.238l-.03.351-.126 1.864h-.336l-.101-1.864a3.515 3.515 0 0 1-.02-.226c-.008-.075-.012-.149-.02-.227a3.989 3.989 0 0 1-.019-.215.895.895 0 0 1-.008-.172.61.61 0 0 1 .09-.367.302.302 0 0 1 .254-.133Zm0 0"/></symbol><symbol overflow="visible" id="i"><path style="stroke:none" d="m.434.086 2.113-4.578.406.207L.832.285Zm0 0"/></symbol><symbol overflow="visible" id="j"><path style="stroke:none" d="M.426-3.09h.488v1.727c0 .199.016.363.05.496a.816.816 0 0 0 .153.32c.067.086.14.145.227.176.078.039.172.055.273.055a.882.882 0 0 0 .578-.274.88.88 0 0 0 .188-.32c.043-.13.066-.29.07-.477V-3.09h.488v2.813c0 .109.008.199.032.277h-.508a4.338 4.338 0 0 1-.012-.105.378.378 0 0 1 0-.133l.008-.235a1.057 1.057 0 0 1-.406.403 1.2 1.2 0 0 1-.559.144 1.123 1.123 0 0 1-.43-.082.972.972 0 0 1-.34-.262 1.146 1.146 0 0 1-.23-.445 2.12 2.12 0 0 1-.078-.648Zm0 0"/></symbol><symbol overflow="visible" id="k"><path style="stroke:none" d="m2.918-2.676-.281.426c-.024-.004-.035-.02-.035-.055a.151.151 0 0 0-.016-.066 1.387 1.387 0 0 0-.348-.285 1.004 1.004 0 0 0-.508-.133c-.093 0-.175.012-.253.031a.847.847 0 0 0-.211.082.416.416 0 0 0-.145.14.332.332 0 0 0-.055.192.25.25 0 0 0 .04.145c.027.047.07.086.132.125.055.039.137.082.246.12.102.048.243.09.422.138.387.101.664.226.824.367.16.144.239.316.243.523a.936.936 0 0 1-.09.387.938.938 0 0 1-.254.316c-.113.094-.25.168-.406.215-.16.051-.336.07-.535.074C1.171.062.738-.094.387-.418l.277-.488c.008.02.016.043.023.07 0 .031.016.066.047.106a.45.45 0 0 0 .153.14c.07.055.183.113.332.176.07.035.148.059.234.07.086.016.172.024.258.02a.95.95 0 0 0 .273-.031.844.844 0 0 0 .254-.102.584.584 0 0 0 .18-.156.376.376 0 0 0 .07-.207.381.381 0 0 0-.164-.297c-.113-.082-.312-.168-.597-.254a7.427 7.427 0 0 1-.399-.121 1.651 1.651 0 0 1-.351-.168.814.814 0 0 1-.2-.168.79.79 0 0 1-.14-.227.572.572 0 0 1-.055-.273.582.582 0 0 1 .086-.313.913.913 0 0 1 .246-.261 1.49 1.49 0 0 1 .856-.262c.472 0 .855.164 1.148.488Zm0 0"/></symbol><symbol overflow="visible" id="l"><path style="stroke:none" d="M.668-3.09h.5l-.012.598c.09-.211.242-.38.45-.496.203-.117.421-.176.664-.176.328 0 .605.113.824.34l-.223.465c-.05-.067-.098-.121-.137-.168-.043-.04-.086-.078-.132-.114a.718.718 0 0 0-.157-.074.867.867 0 0 0-.625.078c-.133.07-.246.164-.343.274-.098.117-.176.25-.235.398-.058.153-.09.305-.086.465V.008H.668Zm0 0"/></symbol><symbol overflow="visible" id="m"><path style="stroke:none" d="M.406-4.492h.559v.012a.091.091 0 0 1-.04.066c-.023.023-.034.047-.034.07v1.727c.101-.164.234-.297.406-.399a.996.996 0 0 1 .516-.148c.167 0 .332.035.488.102.152.066.289.164.406.296.117.133.211.301.281.496.067.204.098.434.102.696-.004.281-.04.523-.113.726a1.72 1.72 0 0 1-.297.516 1.248 1.248 0 0 1-.41.305 1.273 1.273 0 0 1-.477.101 1.116 1.116 0 0 1-.523-.129C1.11-.137.98-.254.879-.406L.71 0H.406Zm.84 4.008a.771.771 0 0 0 .234.09.913.913 0 0 0 .492-.027.813.813 0 0 0 .305-.177c.09-.086.168-.199.23-.343.063-.141.095-.325.095-.547 0-.407-.086-.715-.254-.93-.172-.215-.414-.324-.73-.324a.693.693 0 0 0-.364.12.76.76 0 0 0-.281.321c-.055.137-.082.356-.082.66 0 .188.004.348.011.477.008.133.024.242.055.328a.49.49 0 0 0 .11.211.6.6 0 0 0 .18.14Zm0 0"/></symbol><symbol overflow="visible" id="n"><path style="stroke:none" d="M.715-3.09h1.238v2.7h.723V0h-2v-.39h.789v-2.305h-.75Zm.758-1.242a.352.352 0 0 1 .242-.102.37.37 0 0 1 .246.106.387.387 0 0 1 .105.246.34.34 0 0 1-.105.242.333.333 0 0 1-.246.102.308.308 0 0 1-.242-.102.308.308 0 0 1-.102-.242c0-.098.031-.18.102-.25Zm0 0"/></symbol><symbol overflow="visible" id="o"><path style="stroke:none" d="M.46 0v-3.09h.485v.55c.114-.187.266-.339.453-.452.184-.113.372-.172.563-.172.133 0 .258.027.379.074.117.05.223.125.308.227.086.105.153.238.2.398.047.164.07.363.07.594V0h-.484v-1.86c-.004-.32-.059-.546-.168-.68a.537.537 0 0 0-.403-.198.946.946 0 0 0-.617.261c-.09.086-.16.188-.215.301a.85.85 0 0 0-.086.399V0Zm0 0"/></symbol><symbol overflow="visible" id="p"><path style="stroke:none" d="M1.75-3.164c.16 0 .316.031.473.09.148.058.285.148.402.265.113.125.203.278.277.457.067.188.102.407.106.657-.004.039-.004.074-.004.113l-.012.11H.797c.008.218.043.398.113.542a.962.962 0 0 0 .246.356c.094.094.203.16.328.195.118.04.243.059.368.055.32.004.585-.113.796-.344l.27.262c-.262.316-.621.469-1.078.472a1.953 1.953 0 0 1-.621-.101 1.301 1.301 0 0 1-.781-.812c-.075-.2-.11-.43-.106-.688a1.87 1.87 0 0 1 .11-.695c.07-.2.171-.368.304-.508.125-.133.277-.239.45-.317.171-.07.355-.11.554-.11Zm-.934 1.3h1.7a.111.111 0 0 1 0-.05c0-.012.004-.031.004-.059a.87.87 0 0 0-.238-.574 1.03 1.03 0 0 0-.25-.176.778.778 0 0 0-.317-.066.843.843 0 0 0-.574.223c-.172.148-.282.382-.325.703Zm0 0"/></symbol><symbol overflow="visible" id="q"><path style="stroke:none" d="M.336-2.918.27-3.09h.574c0 .04-.004.067-.012.09-.008.023-.012.043-.008.059-.004.011 0 .02.008.023L1.73-.664l.5-1.148c.106-.243.192-.473.262-.688.063-.207.117-.402.156-.59h.442c-.094.383-.25.832-.469 1.352L1.871.02h-.379Zm0 0"/></symbol><symbol overflow="visible" id="r"><path style="stroke:none" d="M.406-3.09h.48v.473c.102-.164.243-.297.419-.395a1.14 1.14 0 0 1 .527-.144c.168.004.332.035.492.097.153.067.29.168.414.297.117.133.215.297.285.492.07.204.106.438.106.704 0 .273-.04.511-.113.714-.075.211-.172.383-.293.52a1.277 1.277 0 0 1-.422.309c-.16.07-.32.105-.477.105-.195 0-.37-.043-.531-.129a1.022 1.022 0 0 1-.402-.36V1.13H.406Zm.48 1.797c.005.332.083.57.231.715a.73.73 0 0 0 .54.215c.109 0 .222-.016.335-.055a.772.772 0 0 0 .317-.184.943.943 0 0 0 .226-.347c.055-.14.082-.32.086-.54-.004-.39-.086-.695-.25-.913a.857.857 0 0 0-.695-.34.885.885 0 0 0-.281.047.651.651 0 0 0-.254.16.785.785 0 0 0-.184.305c-.05.128-.074.285-.07.472Zm0 0"/></symbol><symbol overflow="visible" id="s"><path style="stroke:none" d="M.398-2.871.312-3.09h.586a.464.464 0 0 1-.015.094.121.121 0 0 0-.012.07c-.004.024 0 .035.016.04l.918 2.273.586-1.657c.058-.156.105-.304.144-.44.035-.138.063-.263.086-.38h.508a6.97 6.97 0 0 0-.133.402c-.05.153-.105.317-.172.493L1.988.012l-.129.34c-.113.3-.25.511-.418.636a1.023 1.023 0 0 1-.582.188C.563 1.172.324 1.086.15.914L.405.48c.008.012.02.032.031.063a.356.356 0 0 0 .024.062C.457.602.465.613.484.637c.016.02.04.039.07.062.028.016.067.035.114.059a.455.455 0 0 0 .148.027.543.543 0 0 0 .348-.125c.098-.082.2-.23.3-.441l.099-.23Zm0 0"/></symbol><symbol overflow="visible" id="t"><path style="stroke:none" d="M1.27-3.914 1.797-4a.733.733 0 0 1-.016.11.716.716 0 0 0-.023.074l-.082.726H2.69v.395H1.676a9.839 9.839 0 0 0-.063 1.132c-.004.223 0 .407.012.555a.985.985 0 0 0 .074.352c.04.086.094.152.168.199.07.047.168.07.293.07.207 0 .438-.093.692-.281L3-.285c-.313.23-.633.344-.96.347-.325-.003-.563-.097-.708-.292-.152-.196-.219-.516-.203-.961a18.162 18.162 0 0 1 .066-1.504H.473v-.395h.742Zm0 0"/></symbol><symbol overflow="visible" id="u"><path style="stroke:none" d="M.473 0v-4.492h.554c-.004.004 0 .004.004.004 0 0 0 .004.004.008a.218.218 0 0 1-.031.058.212.212 0 0 0-.043.09v1.793c.121-.188.273-.34.457-.453a1.03 1.03 0 0 1 .559-.172c.136 0 .265.027.382.074a.84.84 0 0 1 .301.227c.086.105.149.238.195.398.043.164.067.363.07.594V0h-.484v-1.86c-.003-.32-.058-.546-.168-.68a.53.53 0 0 0-.402-.198.866.866 0 0 0-.312.07 1.47 1.47 0 0 0-.301.188.862.862 0 0 0-.223.296c-.05.122-.074.258-.074.407V0Zm0 0"/></symbol><symbol overflow="visible" id="v"><path style="stroke:none" d="M1.715-3.156c.187.004.367.043.539.113.168.078.316.184.441.32.125.141.223.309.301.508A2.094 2.094 0 0 1 3-.863a1.633 1.633 0 0 1-.297.511c-.129.141-.277.25-.445.325-.176.074-.356.109-.547.109-.2 0-.387-.039-.559-.121a1.444 1.444 0 0 1-.457-.336 1.465 1.465 0 0 1-.312-.512 1.713 1.713 0 0 1-.113-.64c0-.227.039-.442.117-.649a1.576 1.576 0 0 1 .781-.855c.172-.078.355-.121.547-.125Zm.906 1.629a1.743 1.743 0 0 0-.078-.516 1.425 1.425 0 0 0-.207-.383.925.925 0 0 0-.293-.234.796.796 0 0 0-.348-.082.76.76 0 0 0-.347.082.87.87 0 0 0-.29.234c-.085.106-.152.23-.199.375-.05.149-.074.317-.074.496 0 .184.024.348.074.492.047.153.114.282.2.387.082.114.18.196.293.254.109.059.23.09.359.086a.725.725 0 0 0 .351-.078.861.861 0 0 0 .293-.23c.083-.102.145-.227.196-.376.043-.148.066-.316.07-.507Zm0 0"/></symbol><symbol overflow="visible" id="w"><path style="stroke:none" d="m2.129-3.703-.04-.426c-.003-.121.024-.215.087-.277a.263.263 0 0 1 .203-.094c.074 0 .14.035.207.102.062.07.098.18.098.324 0 .14-.079.422-.23.844l-.165.445-.371-.086.148-.461c.04-.133.059-.258.063-.371Zm-1.164 0L.918-4.13c-.004-.121.023-.215.086-.277A.265.265 0 0 1 1.21-4.5c.074 0 .144.035.207.102.062.07.094.18.098.324-.004.156-.079.437-.227.844l-.16.445-.379-.086.148-.461c.02-.066.04-.129.051-.191.008-.059.012-.122.016-.18Zm0 0"/></symbol><symbol overflow="visible" id="x"><path style="stroke:none" d="M.363-4.21h.524c0 .007.004.015.004.019 0 .02-.008.039-.016.058a.149.149 0 0 0-.023.086v1.64H2.5V-4.21h.52a.03.03 0 0 0 .007.02.206.206 0 0 1-.02.058.175.175 0 0 0-.027.07v4.07h-.488v-2.023H.852V0H.363Zm0 0"/></symbol><symbol overflow="visible" id="y"><path style="stroke:none" d="M.574-4.492h1.36v4.101h.906V0H.535v-.39h.91v-3.712h-.87Zm0 0"/></symbol><symbol overflow="visible" id="z"><path style="stroke:none" d="M.117-4.21H.56l.453 2.847.675-2.535h.149l.68 2.546.386-2.859h.399L2.633.027h-.184L1.727-2.75.988.027H.793Zm0 0"/></symbol><symbol overflow="visible" id="A"><path style="stroke:none" d="M2.5-2.637v-1.855h.527a.238.238 0 0 1-.035.09c-.023.039-.035.07-.031.097l.004 4.02c0 .113.012.207.035.285h-.492a.617.617 0 0 1-.028-.23v-.262a1.096 1.096 0 0 1-.406.406 1.045 1.045 0 0 1-.515.152 1.25 1.25 0 0 1-.485-.101 1.045 1.045 0 0 1-.394-.3 1.36 1.36 0 0 1-.274-.513 2.235 2.235 0 0 1-.101-.726c0-.281.035-.524.113-.727.07-.199.172-.363.297-.492a1.19 1.19 0 0 1 .418-.285c.148-.055.304-.086.465-.09.214.004.398.05.554.145.153.097.27.226.348.386Zm-1.422.09c-.195.18-.293.477-.289.895-.004.39.07.703.219.937a.71.71 0 0 0 .652.356.542.542 0 0 0 .211-.036.848.848 0 0 0 .395-.29.861.861 0 0 0 .12-.23c.048-.16.075-.374.075-.647 0-.168-.008-.313-.023-.43a2.05 2.05 0 0 0-.063-.297.801.801 0 0 0-.11-.2.866.866 0 0 0-.167-.14 1.456 1.456 0 0 0-.223-.11.64.64 0 0 0-.195-.038.908.908 0 0 0-.332.054.939.939 0 0 0-.27.176Zm0 0"/></symbol><symbol overflow="visible" id="B"><path style="stroke:none" d="m1.61-3.703-.048-.426c-.003-.121.024-.215.086-.277a.263.263 0 0 1 .204-.094c.074 0 .14.035.207.102.062.07.097.18.097.324a2.963 2.963 0 0 1-.058.324 5.32 5.32 0 0 1-.164.52l-.168.445-.375-.086.148-.461c.02-.066.035-.129.05-.191.009-.059.016-.122.02-.18Zm0 0"/></symbol><symbol overflow="visible" id="C"><path style="stroke:none" d="M1.84-2.945c.508.004.906.129 1.195.379.29.25.434.593.438 1.03-.004.5-.164.895-.477 1.177-.32.285-.758.421-1.312.425C1.137.062.723-.02.438-.195v-.528c.152.102.343.18.574.235.226.058.453.086.675.082.387.004.688-.09.903-.274.215-.18.32-.441.324-.793C2.91-2.14 2.5-2.477 1.676-2.48c-.211.003-.492.035-.836.093l-.285-.18.18-2.257h2.398v.504h-1.93l-.121 1.449c.25-.047.504-.07.758-.074Zm0 0"/></symbol><symbol overflow="visible" id="D"><path style="stroke:none" d="M3.5 0H.328v-.473L1.602-1.75c.382-.387.636-.664.761-.836a2.15 2.15 0 0 0 .278-.488c.058-.156.09-.328.093-.512-.004-.258-.082-.46-.234-.613-.16-.149-.375-.223-.648-.227a1.698 1.698 0 0 0-.57.102 2.18 2.18 0 0 0-.598.36l-.29-.376c.438-.367.922-.55 1.45-.555.449.004.804.122 1.066.352.254.234.383.543.387.934-.004.304-.09.609-.258.906-.176.305-.496.683-.965 1.137L1.02-.536v.028H3.5Zm0 0"/></symbol><symbol overflow="visible" id="E"><path style="stroke:none" d="M2.11.066C1.573.062 1.151-.098.843-.422.53-.746.375-1.195.379-1.777c-.004-.578.14-1.043.43-1.391.289-.34.671-.512 1.156-.516.45.004.808.153 1.074.45.262.296.395.691.398 1.18v.343H.946c.008.426.118.75.325.969.199.222.484.332.859.328.383.004.77-.078 1.156-.242v.488c-.2.086-.383.145-.55.18a3.54 3.54 0 0 1-.626.054Zm-.15-3.289c-.292 0-.522.098-.694.285-.172.192-.274.45-.305.782h1.89c-.003-.344-.081-.606-.23-.79-.156-.183-.375-.277-.66-.277Zm0 0"/></symbol><symbol overflow="visible" id="F"><path style="stroke:none" d="m2.805 0-.11-.516h-.027c-.184.227-.363.383-.54.461-.183.082-.405.117-.671.121C1.097.062.817-.027.613-.21.406-.395.305-.656.31-1 .305-1.727.89-2.11 2.062-2.148l.614-.02v-.223c-.004-.28-.067-.488-.184-.629-.125-.132-.32-.203-.586-.203-.304 0-.644.094-1.023.278l-.168-.422c.18-.094.375-.168.586-.227.21-.05.422-.078.64-.082.426.004.746.098.957.29.207.19.313.5.313.917V0ZM1.566-.387c.336 0 .606-.09.805-.277.192-.184.29-.45.293-.79v-.323l-.55.023c-.438.02-.75.086-.942.203-.195.121-.293.309-.29.559-.003.203.055.351.18.453.118.102.286.152.504.152Zm0 0"/></symbol><symbol overflow="visible" id="G"><path style="stroke:none" d="M.387-2.063c0-.945.183-1.652.55-2.124.368-.47.91-.704 1.637-.708.242.004.438.024.586.063v.473a1.896 1.896 0 0 0-.578-.082c-.52 0-.914.164-1.187.484-.274.328-.426.832-.45 1.52h.043c.239-.38.621-.567 1.149-.57.43.003.77.132 1.023.394.246.261.371.617.375 1.066-.004.5-.14.895-.414 1.184-.277.285-.648.425-1.11.43-.5-.005-.894-.188-1.187-.563C.531-.867.387-1.391.387-2.063Zm1.62 1.665c.31 0 .552-.098.727-.293.168-.196.254-.48.258-.856-.004-.32-.086-.57-.242-.754-.164-.18-.402-.27-.719-.273-.199.004-.379.043-.543.125a1.037 1.037 0 0 0-.394.336.734.734 0 0 0-.149.445c-.004.23.043.441.133.633.086.2.211.355.375.465.16.117.344.172.555.172Zm0 0"/></symbol><symbol overflow="visible" id="H"><path style="stroke:none" d="M3.043-.484h-.031c-.254.367-.633.546-1.133.55-.477-.004-.844-.16-1.106-.484C.508-.738.375-1.199.38-1.797c-.004-.594.129-1.058.394-1.39.266-.329.633-.493 1.106-.497.488.004.863.184 1.129.536h.043l-.024-.262-.015-.254v-1.469h.547V0h-.446Zm-1.098.09c.375.003.645-.098.813-.305.168-.2.254-.528.254-.985v-.113c0-.512-.086-.879-.258-1.098-.172-.218-.445-.328-.813-.328-.328 0-.574.125-.742.375-.172.25-.258.602-.254 1.055-.004.465.082.816.254 1.047.168.238.418.355.746.351Zm0 0"/></symbol><symbol overflow="visible" id="I"><path style="stroke:none" d="M2.21-3.191h-.92V0H.741v-3.191H.094v-.247l.648-.199v-.199c-.004-.887.383-1.332 1.164-1.336.188.004.414.043.676.117l-.144.438a2.002 2.002 0 0 0-.54-.102c-.21.004-.367.07-.46.207-.102.14-.149.364-.149.66v.235h.922Zm0 0"/></symbol><symbol overflow="visible" id="J"><path style="stroke:none" d="M3.32-3.688c-.004.313-.09.563-.261.754-.172.2-.418.332-.73.395v.023c.382.055.671.176.858.371.188.2.282.461.282.778 0 .465-.16.816-.48 1.062-.321.246-.774.367-1.36.371A4.733 4.733 0 0 1 .926.008a2.244 2.244 0 0 1-.617-.203v-.52c.207.102.43.18.668.235.234.054.457.082.671.082.832 0 1.25-.325 1.254-.98-.004-.583-.465-.876-1.382-.88h-.473v-.472h.48c.375 0 .672-.083.895-.247a.817.817 0 0 0 .332-.691.683.683 0 0 0-.246-.555c-.164-.132-.383-.199-.656-.203-.211.004-.41.031-.598.086a2.753 2.753 0 0 0-.64.317l-.278-.368c.195-.152.426-.277.684-.367a2.58 2.58 0 0 1 .82-.137c.465.004.828.11 1.09.325.257.215.386.511.39.883Zm0 0"/></symbol><symbol overflow="visible" id="K"><path style="stroke:none" d="M2.262-3.676c.476.004.843.164 1.11.489.257.324.39.785.394 1.374-.004.598-.137 1.06-.399 1.387-.27.328-.637.488-1.105.492a1.65 1.65 0 0 1-.645-.129 1.157 1.157 0 0 1-.488-.402h-.04L.974 0H.582v-5.133h.547v1.246c-.004.282-.012.532-.027.754h.027c.254-.36.633-.539 1.133-.543Zm-.078.457c-.375.004-.645.11-.809.324-.168.215-.25.579-.246 1.083-.004.511.082.875.254 1.09.168.222.437.331.816.327.332.004.582-.12.75-.367.164-.242.25-.593.25-1.054 0-.47-.086-.82-.25-1.055-.168-.23-.422-.344-.765-.348Zm0 0"/></symbol><symbol overflow="visible" id="L"><path style="stroke:none" d="M3.5-2.766C3.496-.879 2.766.063 1.309.066A2.406 2.406 0 0 1 .703 0v-.473c.176.059.375.086.602.086.523 0 .922-.16 1.191-.488.27-.324.418-.828.445-1.504h-.039a1.193 1.193 0 0 1-.484.418c-.203.098-.43.145-.676.145-.43 0-.765-.125-1.015-.383-.25-.25-.375-.61-.375-1.07 0-.5.136-.895.418-1.188.277-.29.648-.434 1.109-.438.324.004.61.086.86.254.241.172.429.418.562.739.129.32.195.699.199 1.136Zm-1.621-1.66c-.317.004-.559.106-.73.305-.172.207-.258.488-.258.844 0 .32.078.57.238.75.156.183.398.273.723.27.199.003.382-.04.55-.122a.951.951 0 0 0 .399-.332.806.806 0 0 0 .144-.445 1.66 1.66 0 0 0-.136-.637 1.205 1.205 0 0 0-.375-.465 1.008 1.008 0 0 0-.555-.168Zm0 0"/></symbol><symbol overflow="visible" id="M"><path style="stroke:none" d="M3.527-2.418c0 .836-.132 1.457-.394 1.867-.266.41-.668.614-1.207.617-.52-.004-.914-.21-1.184-.632C.47-.984.332-1.602.336-2.418c-.004-.84.129-1.465.39-1.871.262-.406.66-.61 1.2-.61.52 0 .918.215 1.191.637.274.43.41 1.043.41 1.844Zm-2.636 0c0 .703.082 1.215.246 1.531.164.325.425.485.789.48.363.005.629-.16.793-.484.164-.324.246-.832.246-1.527 0-.691-.082-1.2-.246-1.523-.164-.32-.43-.48-.793-.485-.363.004-.625.16-.79.477-.163.32-.245.832-.245 1.531Zm0 0"/></symbol><symbol overflow="visible" id="N"><path style="stroke:none" d="M2.36 0h-.536v-3.438a9.048 9.048 0 0 1 .028-.812c-.047.05-.102.098-.157.148-.062.051-.324.266-.785.641l-.289-.375 1.277-.988h.461Zm0 0"/></symbol><symbol overflow="visible" id="O"><path style="stroke:none" d="m.941 0 2-4.32H.31v-.504h3.21v.437L1.548 0Zm0 0"/></symbol><symbol overflow="visible" id="P"><path style="stroke:none" d="M3.73-1.11h-.718V0h-.524v-1.11H.141v-.476l2.293-3.266h.578v3.247h.718Zm-1.242-.495v-1.606c-.004-.312.008-.668.032-1.066h-.024c-.11.21-.21.386-.297.527L.691-1.605Zm0 0"/></symbol><symbol overflow="visible" id="Q"><path style="stroke:none" d="M2.027.066C1.504.062 1.097-.094.81-.418c-.29-.32-.434-.777-.43-1.367-.004-.602.14-1.07.437-1.403.29-.328.707-.492 1.247-.496.171.004.343.024.519.059.172.04.309.082.41.129l-.168.469a3.353 3.353 0 0 0-.394-.121 1.846 1.846 0 0 0-.38-.051C1.314-3.2.942-2.73.946-1.793c-.004.445.086.79.27 1.023.176.243.441.36.797.356.297.004.61-.059.93-.191v.484c-.243.125-.547.183-.915.187Zm0 0"/></symbol><symbol overflow="visible" id="R"><path style="stroke:none" d="M1.926-4.895c.437.004.785.106 1.047.31.254.206.382.487.386.847a1.105 1.105 0 0 1-.222.652c-.149.2-.383.375-.703.531.386.188.664.387.832.59.164.211.25.45.25.715 0 .406-.141.727-.422.96-.281.24-.664.352-1.149.356C1.43.062 1.031-.047.758-.27.477-.496.34-.816.344-1.23c-.004-.551.332-.98 1.008-1.29-.305-.171-.524-.355-.653-.554A1.125 1.125 0 0 1 .5-3.746a1.008 1.008 0 0 1 .387-.836c.258-.207.605-.309 1.039-.313ZM.883-1.219c-.004.266.086.473.273.621.18.149.442.223.778.22.328.003.582-.075.765-.231.18-.153.27-.364.274-.633a.819.819 0 0 0-.258-.57c-.176-.165-.473-.329-.899-.485-.328.14-.566.297-.71.469a.866.866 0 0 0-.223.61Zm1.039-3.23c-.277.004-.496.07-.649.199a.645.645 0 0 0-.234.527.722.722 0 0 0 .195.524c.13.144.368.289.72.433.312-.132.534-.273.667-.425a.823.823 0 0 0 .195-.532.673.673 0 0 0-.238-.527c-.16-.129-.379-.195-.656-.2Zm0 0"/></symbol></defs><path style="fill-rule:nonzero;fill:#fff;fill-opacity:1;stroke-width:0;stroke-linecap:butt;stroke-linejoin:miter;stroke:#000;stroke-opacity:1;stroke-miterlimit:10" d="M0 0h17v3.6H0Zm0 0" transform="scale(20)"/><g style="fill:#000;fill-opacity:1"><use xlink:href="#a" x="116" y="28"/><use xlink:href="#b" x="122.504" y="28"/><use xlink:href="#c" x="131.293" y="28"/><use xlink:href="#d" x="138.5" y="28"/><use xlink:href="#e" x="142.543" y="28"/></g><path style="fill:none;stroke-width:.05;stroke-linecap:butt;stroke-linejoin:miter;stroke:#000;stroke-opacity:1;stroke-miterlimit:10" d="M4.824 1.8h3.551" transform="scale(20)"/><path style="fill-rule:evenodd;fill:#000;fill-opacity:1;stroke-width:.05;stroke-linecap:butt;stroke-linejoin:miter;stroke:#000;stroke-opacity:1;stroke-miterlimit:10" d="m8.375 1.9.2-.1-.2-.1v.2Zm0 0" transform="scale(20)"/><path style="stroke:none;fill-rule:evenodd;fill:#e9a4de;fill-opacity:1" d="M14 8h76v56H14ZM14 14V8c-3.313 0-6 2.688-6 6h6ZM90 14h6c0-3.313-2.688-6-6-6v6Zm0 0"/><path style="stroke:none;fill-rule:evenodd;fill:#e9a4de;fill-opacity:1" d="M8 14h88v44H8ZM14 58H8c0 3.313 2.688 6 6 6v-6ZM90 58v6c3.313 0 6-2.688 6-6h-6Zm0 0"/><path style="fill:none;stroke-width:.05;stroke-linecap:butt;stroke-linejoin:miter;stroke:#000;stroke-opacity:1;stroke-miterlimit:10" d="M.7.4h3.8M.7 3.2h3.8M.7.4a.3.3 0 0 0-.3.3M4.8.7a.3.3 0 0 0-.3-.3M.4.7v2.2M4.8.7v2.2M.4 2.9a.3.3 0 0 0 .3.3M4.5 3.2a.3.3 0 0 0 .3-.3" transform="scale(20)"/><g style="fill:#000;fill-opacity:1"><use xlink:href="#f" x="12.5" y="20.484"/><use xlink:href="#g" x="15.879" y="20.484"/><use xlink:href="#h" x="19.258" y="20.484"/><use xlink:href="#i" x="22.637" y="20.484"/><use xlink:href="#j" x="26.016" y="20.484"/><use xlink:href="#k" x="29.395" y="20.484"/><use xlink:href="#l" x="32.773" y="20.484"/><use xlink:href="#i" x="36.152" y="20.484"/><use xlink:href="#m" x="39.531" y="20.484"/><use xlink:href="#n" x="42.91" y="20.484"/><use xlink:href="#o" x="46.289" y="20.484"/><use xlink:href="#i" x="49.668" y="20.484"/><use xlink:href="#p" x="53.047" y="20.484"/><use xlink:href="#o" x="56.426" y="20.484"/><use xlink:href="#q" x="59.805" y="20.484"/><use xlink:href="#h" x="63.184" y="20.484"/><use xlink:href="#r" x="66.563" y="20.484"/><use xlink:href="#s" x="69.941" y="20.484"/><use xlink:href="#t" x="73.32" y="20.484"/><use xlink:href="#u" x="76.699" y="20.484"/><use xlink:href="#v" x="80.078" y="20.484"/><use xlink:href="#o" x="83.457" y="20.484"/></g><g style="fill:#000;fill-opacity:1"><use xlink:href="#w" x="12.5" y="37.418"/><use xlink:href="#w" x="15.879" y="37.418"/><use xlink:href="#w" x="19.258" y="37.418"/><use xlink:href="#h" x="22.637" y="37.418"/><use xlink:href="#x" x="26.016" y="37.418"/><use xlink:href="#p" x="29.395" y="37.418"/><use xlink:href="#y" x="32.773" y="37.418"/><use xlink:href="#y" x="36.152" y="37.418"/><use xlink:href="#v" x="39.531" y="37.418"/><use xlink:href="#h" x="42.91" y="37.418"/><use xlink:href="#z" x="46.289" y="37.418"/><use xlink:href="#v" x="49.668" y="37.418"/><use xlink:href="#l" x="53.047" y="37.418"/><use xlink:href="#y" x="56.426" y="37.418"/><use xlink:href="#A" x="59.805" y="37.418"/><use xlink:href="#g" x="63.184" y="37.418"/><use xlink:href="#h" x="66.563" y="37.418"/><use xlink:href="#w" x="69.941" y="37.418"/><use xlink:href="#w" x="73.32" y="37.418"/><use xlink:href="#w" x="76.699" y="37.418"/></g><g style="fill:#000;fill-opacity:1"><use xlink:href="#r" x="12.5" y="54.352"/><use xlink:href="#l" x="15.879" y="54.352"/><use xlink:href="#n" x="19.258" y="54.352"/><use xlink:href="#o" x="22.637" y="54.352"/><use xlink:href="#t" x="26.016" y="54.352"/><use xlink:href="#h" x="29.395" y="54.352"/><use xlink:href="#B" x="32.773" y="54.352"/><use xlink:href="#x" x="36.152" y="54.352"/><use xlink:href="#p" x="39.531" y="54.352"/><use xlink:href="#y" x="42.91" y="54.352"/><use xlink:href="#y" x="46.289" y="54.352"/><use xlink:href="#v" x="49.668" y="54.352"/><use xlink:href="#h" x="53.047" y="54.352"/><use xlink:href="#z" x="56.426" y="54.352"/><use xlink:href="#v" x="59.805" y="54.352"/><use xlink:href="#l" x="63.184" y="54.352"/><use xlink:href="#y" x="66.563" y="54.352"/><use xlink:href="#A" x="69.941" y="54.352"/><use xlink:href="#g" x="73.32" y="54.352"/><use xlink:href="#B" x="76.699" y="54.352"/></g><path style="stroke:none;fill-rule:evenodd;fill:#fdd1b2;fill-opacity:1" d="M178 28h146.523v16H178ZM178 34v-6c-3.313 0-6 2.688-6 6h6ZM324.523 34h6c0-3.313-2.683-6-6-6v6Zm0 0"/><path style="stroke:none;fill-rule:evenodd;fill:#fdd1b2;fill-opacity:1" d="M172 34h158.523v4H172ZM178 38h-6c0 3.313 2.688 6 6 6v-6ZM324.523 38v6c3.317 0 6-2.688 6-6h-6Zm0 0"/><path style="fill:none;stroke-width:.05;stroke-linecap:butt;stroke-linejoin:miter;stroke:#000;stroke-opacity:1;stroke-miterlimit:10" d="M8.9 1.4h7.326M8.9 2.2h7.326M8.9 1.4a.3.3 0 0 0-.3.3M16.526 1.7a.3.3 0 0 0-.3-.3M8.6 1.7v.2M16.526 1.7v.2M8.6 1.9a.3.3 0 0 0 .3.3M16.226 2.2a.3.3 0 0 0 .3-.3" transform="scale(20)"/><g style="fill:#000;fill-opacity:1"><use xlink:href="#C" x="176.535" y="38.965"/><use xlink:href="#D" x="180.402" y="38.965"/><use xlink:href="#E" x="184.27" y="38.965"/><use xlink:href="#F" x="188.059" y="38.965"/><use xlink:href="#G" x="191.809" y="38.965"/><use xlink:href="#H" x="195.676" y="38.965"/><use xlink:href="#G" x="199.816" y="38.965"/><use xlink:href="#I" x="203.684" y="38.965"/><use xlink:href="#C" x="205.969" y="38.965"/><use xlink:href="#J" x="209.836" y="38.965"/><use xlink:href="#K" x="213.703" y="38.965"/><use xlink:href="#D" x="217.844" y="38.965"/><use xlink:href="#L" x="221.711" y="38.965"/><use xlink:href="#L" x="225.578" y="38.965"/><use xlink:href="#M" x="229.445" y="38.965"/><use xlink:href="#I" x="233.313" y="38.965"/><use xlink:href="#C" x="235.598" y="38.965"/><use xlink:href="#H" x="239.465" y="38.965"/><use xlink:href="#G" x="243.605" y="38.965"/><use xlink:href="#N" x="247.473" y="38.965"/><use xlink:href="#G" x="251.34" y="38.965"/><use xlink:href="#O" x="255.207" y="38.965"/><use xlink:href="#C" x="259.074" y="38.965"/><use xlink:href="#C" x="262.941" y="38.965"/><use xlink:href="#J" x="266.809" y="38.965"/><use xlink:href="#I" x="270.676" y="38.965"/><use xlink:href="#P" x="272.961" y="38.965"/><use xlink:href="#J" x="276.828" y="38.965"/><use xlink:href="#Q" x="280.695" y="38.965"/><use xlink:href="#L" x="283.918" y="38.965"/><use xlink:href="#R" x="287.785" y="38.965"/><use xlink:href="#H" x="291.652" y="38.965"/><use xlink:href="#Q" x="295.793" y="38.965"/><use xlink:href="#R" x="299.016" y="38.965"/><use xlink:href="#O" x="302.883" y="38.965"/><use xlink:href="#R" x="306.75" y="38.965"/><use xlink:href="#R" x="310.617" y="38.965"/><use xlink:href="#E" x="314.484" y="38.965"/><use xlink:href="#R" x="318.273" y="38.965"/><use xlink:href="#N" x="322.141" y="38.965"/></g></svg>