<?xml version="1.0" encoding="UTF-8" standalone="no"?>
<!DOCTYPE svg PUBLIC "-//W3C//DTD SVG 1.0//EN" "http://www.w3.org/TR/2001/PR-SVG-20010719/DTD/svg10.dtd">
<svg width="134cm" height="50cm" viewBox="-580 -649 2672 998" xmlns="http://www.w3.org/2000/svg" xmlns:xlink="http://www.w3.org/1999/xlink">
  <text font-size="12.8" style="fill: #000000;text-anchor:start;font-family:sans-serif;font-style:normal;font-weight:normal" x="-580" y="-240">
    <tspan x="-580" y="-240"></tspan>
  </text>
  <g>
    <rect style="fill: #ffffbb" x="-480" y="-480" width="400" height="720" rx="6" ry="6"/>
    <rect style="fill: none; fill-opacity:0; stroke-width: 2; stroke-linejoin: round; stroke: #000000" x="-480" y="-480" width="400" height="720" rx="6" ry="6"/>
  </g>
  <g>
    <rect style="fill: #b5b5b5" x="-400" y="80" width="241" height="120" rx="10" ry="10"/>
    <rect style="fill: none; fill-opacity:0; stroke-width: 2; stroke-linejoin: round; stroke: #000000" x="-400" y="80" width="241" height="120" rx="10" ry="10"/>
  </g>
  <line style="fill: none; fill-opacity:0; stroke-width: 7; stroke-linejoin: round; stroke: #000000" x1="-279.5" y1="0" x2="-279.5" y2="80"/>
  <g>
    <rect style="fill: #b5b5b5" x="-400" y="-120" width="241" height="120" rx="10" ry="10"/>
    <rect style="fill: none; fill-opacity:0; stroke-width: 2; stroke-linejoin: round; stroke: #000000" x="-400" y="-120" width="241" height="120" rx="10" ry="10"/>
  </g>
  <text font-size="12.8" style="fill: #000000;text-anchor:start;font-family:sans-serif;font-style:normal;font-weight:normal" x="-279.5" y="-60">
    <tspan x="-279.5" y="-60"></tspan>
  </text>
  <text font-size="12.8" style="fill: #000000;text-anchor:start;font-family:sans-serif;font-style:normal;font-weight:normal" x="-279.5" y="-60">
    <tspan x="-279.5" y="-60"></tspan>
  </text>
  <text font-size="56.4444" style="fill: #000000;text-anchor:middle;font-family:monospace;font-style:normal;font-weight:normal" x="-279.5" y="155.025">
    <tspan x="-279.5" y="155.025">A</tspan>
  </text>
  <text font-size="56.4444" style="fill: #000000;text-anchor:middle;font-family:monospace;font-style:normal;font-weight:normal" x="-279.5" y="-44.975">
    <tspan x="-279.5" y="-44.975">B</tspan>
  </text>
  <g>
    <rect style="fill: #a6b1ed" x="-400" y="-320" width="241" height="120" rx="10" ry="10"/>
    <rect style="fill: none; fill-opacity:0; stroke-width: 2; stroke-linejoin: round; stroke: #000000" x="-400" y="-320" width="241" height="120" rx="10" ry="10"/>
  </g>
  <text font-size="56.4444" style="fill: #000000;text-anchor:middle;font-family:monospace;font-style:normal;font-weight:normal" x="-279.5" y="-244.975">
    <tspan x="-279.5" y="-244.975">C</tspan>
  </text>
  <line style="fill: none; fill-opacity:0; stroke-width: 7; stroke-linejoin: round; stroke: #000000" x1="-279.5" y1="-200" x2="-279.5" y2="-120"/>
  <text font-size="12.8" style="fill: #000000;text-anchor:start;font-family:sans-serif;font-style:normal;font-weight:normal" x="-60" y="-280">
    <tspan x="-60" y="-280"></tspan>
  </text>
  <text font-size="50.8" style="fill: #000000;text-anchor:middle;font-family:monospace;font-style:normal;font-weight:normal" x="-280" y="-426.475">
    <tspan x="-280" y="-426.475">subversion</tspan>
  </text>
  <g>
    <rect style="fill: #b5b5b5" x="60" y="80" width="241" height="120" rx="10" ry="10"/>
    <rect style="fill: none; fill-opacity:0; stroke-width: 2; stroke-linejoin: round; stroke: #000000" x="60" y="80" width="241" height="120" rx="10" ry="10"/>
  </g>
  <g>
    <line style="fill: none; fill-opacity:0; stroke-width: 7; stroke-linejoin: round; stroke: #000000" x1="180.5" y1="0" x2="180.5" y2="64.6738"/>
    <polygon style="fill: #000000" points="180.5,72.1738 175.5,62.1738 180.5,64.6738 185.5,62.1738 "/>
    <polygon style="fill: none; fill-opacity:0; stroke-width: 7; stroke: #000000" points="180.5,72.1738 175.5,62.1738 180.5,64.6738 185.5,62.1738 "/>
  </g>
  <g>
    <rect style="fill: #b5b5b5" x="60" y="-120" width="241" height="120" rx="10" ry="10"/>
    <rect style="fill: none; fill-opacity:0; stroke-width: 2; stroke-linejoin: round; stroke: #000000" x="60" y="-120" width="241" height="120" rx="10" ry="10"/>
  </g>
  <text font-size="12.8" style="fill: #000000;text-anchor:start;font-family:sans-serif;font-style:normal;font-weight:normal" x="180.5" y="-60">
    <tspan x="180.5" y="-60"></tspan>
  </text>
  <text font-size="12.8" style="fill: #000000;text-anchor:start;font-family:sans-serif;font-style:normal;font-weight:normal" x="180.5" y="-60">
    <tspan x="180.5" y="-60"></tspan>
  </text>
  <text font-size="56.4444" style="fill: #000000;text-anchor:middle;font-family:monospace;font-style:normal;font-weight:normal" x="180.5" y="155.025">
    <tspan x="180.5" y="155.025">A</tspan>
  </text>
  <text font-size="56.4444" style="fill: #000000;text-anchor:middle;font-family:monospace;font-style:normal;font-weight:normal" x="180.5" y="-44.975">
    <tspan x="180.5" y="-44.975">B</tspan>
  </text>
  <g>
    <rect style="fill: #e4c8c8" x="60" y="-520" width="241" height="120" rx="10" ry="10"/>
    <rect style="fill: none; fill-opacity:0; stroke-width: 2; stroke-linejoin: round; stroke: #000000" x="60" y="-520" width="241" height="120" rx="10" ry="10"/>
  </g>
  <text font-size="56.4444" style="fill: #000000;text-anchor:middle;font-family:monospace;font-style:normal;font-weight:normal" x="180.5" y="-444.975">
    <tspan x="180.5" y="-444.975">D'</tspan>
  </text>
  <g>
    <line style="fill: none; fill-opacity:0; stroke-width: 7; stroke-linejoin: round; stroke: #000000" x1="180.5" y1="-400" x2="180.5" y2="-335.326"/>
    <polygon style="fill: #000000" points="180.5,-327.826 175.5,-337.826 180.5,-335.326 185.5,-337.826 "/>
    <polygon style="fill: none; fill-opacity:0; stroke-width: 7; stroke: #000000" points="180.5,-327.826 175.5,-337.826 180.5,-335.326 185.5,-337.826 "/>
  </g>
  <g>
    <rect style="fill: #9eec9e" x="70.876" y="-587.344" width="218.248" height="54.6894" rx="10" ry="10"/>
    <rect style="fill: none; fill-opacity:0; stroke-width: 2; stroke-linejoin: round; stroke: #000000" x="70.876" y="-587.344" width="218.248" height="54.6894" rx="10" ry="10"/>
  </g>
  <text font-size="50.8" style="fill: #000000;text-anchor:middle;font-family:monospace;font-style:normal;font-weight:normal" x="180" y="-546.475">
    <tspan x="180" y="-546.475">master</tspan>
  </text>
  <g>
    <rect style="fill: #a6b1ed" x="60" y="-320" width="241" height="120" rx="10" ry="10"/>
    <rect style="fill: none; fill-opacity:0; stroke-width: 2; stroke-linejoin: round; stroke: #000000" x="60" y="-320" width="241" height="120" rx="10" ry="10"/>
  </g>
  <text font-size="56.4444" style="fill: #000000;text-anchor:middle;font-family:monospace;font-style:normal;font-weight:normal" x="180.5" y="-244.975">
    <tspan x="180.5" y="-244.975">C</tspan>
  </text>
  <g>
    <line style="fill: none; fill-opacity:0; stroke-width: 7; stroke-linejoin: round; stroke: #000000" x1="180.5" y1="-200" x2="180.5" y2="-135.326"/>
    <polygon style="fill: #000000" points="180.5,-127.826 175.5,-137.826 180.5,-135.326 185.5,-137.826 "/>
    <polygon style="fill: none; fill-opacity:0; stroke-width: 7; stroke: #000000" points="180.5,-127.826 175.5,-137.826 180.5,-135.326 185.5,-137.826 "/>
  </g>
  <g>
    <rect style="fill: #9eec9e" x="-40" y="-388.81" width="620" height="57.6183" rx="10" ry="10"/>
    <rect style="fill: none; fill-opacity:0; stroke-width: 2; stroke-linejoin: round; stroke: #000000" x="-40" y="-388.81" width="620" height="57.6183" rx="10" ry="10"/>
  </g>
  <text font-size="50.8" style="fill: #000000;text-anchor:middle;font-family:monospace;font-style:normal;font-weight:normal" x="270" y="-346.475">
    <tspan x="270" y="-346.475">remotes/origin/trunk</tspan>
  </text>
  <g>
    <line style="fill: none; fill-opacity:0; stroke-width: 16; stroke-linejoin: round; stroke: #000000" x1="300" y1="280" x2="994" y2="280"/>
    <polygon style="fill: #000000" points="994,289 1012,280 994,271 "/>
    <polygon style="fill: none; fill-opacity:0; stroke-width: 16; stroke: #000000" points="994,289 1012,280 994,271 "/>
  </g>
  <text font-size="50.8" style="fill: #000000;text-anchor:middle;font-family:monospace;font-style:normal;font-weight:normal" x="660" y="333.525">
    <tspan x="660" y="333.525">git svn dcommit</tspan>
  </text>
  <g>
    <rect style="fill: #ffffbb" x="1020" y="-600" width="400" height="840" rx="6" ry="6"/>
    <rect style="fill: none; fill-opacity:0; stroke-width: 2; stroke-linejoin: round; stroke: #000000" x="1020" y="-600" width="400" height="840" rx="6" ry="6"/>
  </g>
  <g>
    <rect style="fill: #b5b5b5" x="1100" y="80" width="241" height="120" rx="10" ry="10"/>
    <rect style="fill: none; fill-opacity:0; stroke-width: 2; stroke-linejoin: round; stroke: #000000" x="1100" y="80" width="241" height="120" rx="10" ry="10"/>
  </g>
  <line style="fill: none; fill-opacity:0; stroke-width: 7; stroke-linejoin: round; stroke: #000000" x1="1220.5" y1="0" x2="1220.5" y2="80"/>
  <g>
    <rect style="fill: #b5b5b5" x="1100" y="-120" width="241" height="120" rx="10" ry="10"/>
    <rect style="fill: none; fill-opacity:0; stroke-width: 2; stroke-linejoin: round; stroke: #000000" x="1100" y="-120" width="241" height="120" rx="10" ry="10"/>
  </g>
  <text font-size="12.8" style="fill: #000000;text-anchor:start;font-family:sans-serif;font-style:normal;font-weight:normal" x="1220.5" y="-60">
    <tspan x="1220.5" y="-60"></tspan>
  </text>
  <text font-size="12.8" style="fill: #000000;text-anchor:start;font-family:sans-serif;font-style:normal;font-weight:normal" x="1220.5" y="-60">
    <tspan x="1220.5" y="-60"></tspan>
  </text>
  <text font-size="56.4444" style="fill: #000000;text-anchor:middle;font-family:monospace;font-style:normal;font-weight:normal" x="1220.5" y="155.025">
    <tspan x="1220.5" y="155.025">A</tspan>
  </text>
  <text font-size="56.4444" style="fill: #000000;text-anchor:middle;font-family:monospace;font-style:normal;font-weight:normal" x="1220.5" y="-44.975">
    <tspan x="1220.5" y="-44.975">B</tspan>
  </text>
  <g>
    <rect style="fill: #a6b1ed" x="1100" y="-320" width="241" height="120" rx="10" ry="10"/>
    <rect style="fill: none; fill-opacity:0; stroke-width: 2; stroke-linejoin: round; stroke: #000000" x="1100" y="-320" width="241" height="120" rx="10" ry="10"/>
  </g>
  <text font-size="56.4444" style="fill: #000000;text-anchor:middle;font-family:monospace;font-style:normal;font-weight:normal" x="1220.5" y="-244.975">
    <tspan x="1220.5" y="-244.975">C</tspan>
  </text>
  <line style="fill: none; fill-opacity:0; stroke-width: 7; stroke-linejoin: round; stroke: #000000" x1="1220.5" y1="-200" x2="1220.5" y2="-120"/>
  <text font-size="12.8" style="fill: #000000;text-anchor:start;font-family:sans-serif;font-style:normal;font-weight:normal" x="1440" y="-280">
    <tspan x="1440" y="-280"></tspan>
  </text>
  <text font-size="50.8" style="fill: #000000;text-anchor:middle;font-family:monospace;font-style:normal;font-weight:normal" x="1220" y="-546.475">
    <tspan x="1220" y="-546.475">subversion</tspan>
  </text>
  <g>
    <rect style="fill: #b5b5b5" x="1560" y="80" width="241" height="120" rx="10" ry="10"/>
    <rect style="fill: none; fill-opacity:0; stroke-width: 2; stroke-linejoin: round; stroke: #000000" x="1560" y="80" width="241" height="120" rx="10" ry="10"/>
  </g>
  <g>
    <line style="fill: none; fill-opacity:0; stroke-width: 7; stroke-linejoin: round; stroke: #000000" x1="1680.5" y1="0" x2="1680.5" y2="64.6738"/>
    <polygon style="fill: #000000" points="1680.5,72.1738 1675.5,62.1738 1680.5,64.6738 1685.5,62.1738 "/>
    <polygon style="fill: none; fill-opacity:0; stroke-width: 7; stroke: #000000" points="1680.5,72.1738 1675.5,62.1738 1680.5,64.6738 1685.5,62.1738 "/>
  </g>
  <g>
    <rect style="fill: #b5b5b5" x="1560" y="-120" width="241" height="120" rx="10" ry="10"/>
    <rect style="fill: none; fill-opacity:0; stroke-width: 2; stroke-linejoin: round; stroke: #000000" x="1560" y="-120" width="241" height="120" rx="10" ry="10"/>
  </g>
  <text font-size="12.8" style="fill: #000000;text-anchor:start;font-family:sans-serif;font-style:normal;font-weight:normal" x="1680.5" y="-60">
    <tspan x="1680.5" y="-60"></tspan>
  </text>
  <text font-size="12.8" style="fill: #000000;text-anchor:start;font-family:sans-serif;font-style:normal;font-weight:normal" x="1680.5" y="-60">
    <tspan x="1680.5" y="-60"></tspan>
  </text>
  <text font-size="56.4444" style="fill: #000000;text-anchor:middle;font-family:monospace;font-style:normal;font-weight:normal" x="1680.5" y="155.025">
    <tspan x="1680.5" y="155.025">A</tspan>
  </text>
  <text font-size="56.4444" style="fill: #000000;text-anchor:middle;font-family:monospace;font-style:normal;font-weight:normal" x="1680.5" y="-44.975">
    <tspan x="1680.5" y="-44.975">B</tspan>
  </text>
  <g>
    <rect style="fill: #e4c8c8" x="1560" y="-520" width="241" height="120" rx="10" ry="10"/>
    <rect style="fill: none; fill-opacity:0; stroke-width: 2; stroke-linejoin: round; stroke: #000000" x="1560" y="-520" width="241" height="120" rx="10" ry="10"/>
  </g>
  <text font-size="56.4444" style="fill: #000000;text-anchor:middle;font-family:monospace;font-style:normal;font-weight:normal" x="1680.5" y="-444.975">
    <tspan x="1680.5" y="-444.975">D''</tspan>
  </text>
  <g>
    <line style="fill: none; fill-opacity:0; stroke-width: 7; stroke-linejoin: round; stroke: #000000" x1="1680.5" y1="-400" x2="1680.5" y2="-335.326"/>
    <polygon style="fill: #000000" points="1680.5,-327.826 1675.5,-337.826 1680.5,-335.326 1685.5,-337.826 "/>
    <polygon style="fill: none; fill-opacity:0; stroke-width: 7; stroke: #000000" points="1680.5,-327.826 1675.5,-337.826 1680.5,-335.326 1685.5,-337.826 "/>
  </g>
  <g>
    <rect style="fill: #9eec9e" x="1570.88" y="-647.344" width="218.248" height="54.6894" rx="10" ry="10"/>
    <rect style="fill: none; fill-opacity:0; stroke-width: 2; stroke-linejoin: round; stroke: #000000" x="1570.88" y="-647.344" width="218.248" height="54.6894" rx="10" ry="10"/>
  </g>
  <text font-size="50.8" style="fill: #000000;text-anchor:middle;font-family:monospace;font-style:normal;font-weight:normal" x="1680" y="-606.475">
    <tspan x="1680" y="-606.475">master</tspan>
  </text>
  <g>
    <rect style="fill: #a6b1ed" x="1560" y="-320" width="241" height="120" rx="10" ry="10"/>
    <rect style="fill: none; fill-opacity:0; stroke-width: 2; stroke-linejoin: round; stroke: #000000" x="1560" y="-320" width="241" height="120" rx="10" ry="10"/>
  </g>
  <text font-size="56.4444" style="fill: #000000;text-anchor:middle;font-family:monospace;font-style:normal;font-weight:normal" x="1680.5" y="-244.975">
    <tspan x="1680.5" y="-244.975">C</tspan>
  </text>
  <g>
    <line style="fill: none; fill-opacity:0; stroke-width: 7; stroke-linejoin: round; stroke: #000000" x1="1680.5" y1="-200" x2="1680.5" y2="-135.326"/>
    <polygon style="fill: #000000" points="1680.5,-127.826 1675.5,-137.826 1680.5,-135.326 1685.5,-137.826 "/>
    <polygon style="fill: none; fill-opacity:0; stroke-width: 7; stroke: #000000" points="1680.5,-127.826 1675.5,-137.826 1680.5,-135.326 1685.5,-137.826 "/>
  </g>
  <g>
    <rect style="fill: #e4c8c8" x="1100" y="-520" width="241" height="120" rx="10" ry="10"/>
    <rect style="fill: none; fill-opacity:0; stroke-width: 2; stroke-linejoin: round; stroke: #000000" x="1100" y="-520" width="241" height="120" rx="10" ry="10"/>
  </g>
  <text font-size="56.4444" style="fill: #000000;text-anchor:middle;font-family:monospace;font-style:normal;font-weight:normal" x="1220.5" y="-444.975">
    <tspan x="1220.5" y="-444.975">D'</tspan>
  </text>
  <line style="fill: none; fill-opacity:0; stroke-width: 7; stroke-linejoin: round; stroke: #000000" x1="1220.5" y1="-400" x2="1220.5" y2="-320"/>
  <g>
    <rect style="fill: #e4c8c8" x="1840" y="-520" width="241" height="120" rx="10" ry="10"/>
    <rect style="fill: none; fill-opacity:0; stroke-width: 2; stroke-linejoin: round; stroke-dasharray: 4; stroke: #000000" x="1840" y="-520" width="241" height="120" rx="10" ry="10"/>
  </g>
  <text font-size="56.4444" style="fill: #a7a2a2;text-anchor:middle;font-family:monospace;font-style:normal;font-weight:normal" x="1960.5" y="-444.975">
    <tspan x="1960.5" y="-444.975">D'</tspan>
  </text>
  <g>
    <line style="fill: none; fill-opacity:0; stroke-width: 7; stroke-linejoin: round; stroke: #000000" x1="1960.5" y1="-400" x2="1812.52" y2="-270.11"/>
    <polygon style="fill: #000000" points="1806.88,-265.163 1811.1,-275.517 1812.52,-270.11 1817.7,-268.002 "/>
    <polygon style="fill: none; fill-opacity:0; stroke-width: 7; stroke: #000000" points="1806.88,-265.163 1811.1,-275.517 1812.52,-270.11 1817.7,-268.002 "/>
  </g>
  <g>
    <rect style="fill: #9eec9e" x="1470" y="-588.81" width="620" height="57.6183" rx="10" ry="10"/>
    <rect style="fill: none; fill-opacity:0; stroke-width: 2; stroke-linejoin: round; stroke: #000000" x="1470" y="-588.81" width="620" height="57.6183" rx="10" ry="10"/>
  </g>
  <text font-size="50.8" style="fill: #000000;text-anchor:middle;font-family:monospace;font-style:normal;font-weight:normal" x="1780" y="-546.475">
    <tspan x="1780" y="-546.475">remotes/origin/trunk</tspan>
  </text>
</svg>
