<svg xmlns="http://www.w3.org/2000/svg" xmlns:xlink="http://www.w3.org/1999/xlink" width="2960pt" height="1180pt" viewBox="0 0 2960 1180"><defs><symbol overflow="visible" id="a"><path style="stroke:none" d="m21.938-20.11-2.133 3.2c-.172-.031-.258-.164-.258-.406 0-.235-.035-.407-.102-.508-.617-.778-1.488-1.496-2.613-2.156-1.129-.66-2.41-.989-3.84-.993a7.72 7.72 0 0 0-1.87.23 6.06 6.06 0 0 0-1.587.634 3.213 3.213 0 0 0-1.101 1.043 2.543 2.543 0 0 0-.41 1.445c-.004.41.097.773.304 1.094.203.324.527.636.973.937.437.309 1.062.613 1.867.914.8.309 1.848.649 3.145 1.016 2.93.781 5 1.703 6.214 2.77 1.207 1.066 1.813 2.378 1.817 3.933a6.656 6.656 0 0 1-.66 2.894c-.442.918-1.086 1.711-1.93 2.387-.852.68-1.867 1.215-3.047 1.602-1.187.387-2.523.578-4.012.582-3.894-.004-7.16-1.219-9.8-3.656l2.082-3.657c.097.11.168.274.203.496.03.227.148.497.36.805.202.316.577.672 1.124 1.066.543.403 1.379.844 2.508 1.325.508.246 1.09.418 1.738.52.649.105 1.297.155 1.945.155.68 0 1.368-.082 2.07-.253a7.201 7.201 0 0 0 1.895-.743 4.337 4.337 0 0 0 1.356-1.175c.34-.457.508-.977.512-1.559-.004-.883-.41-1.633-1.227-2.246-.82-.613-2.32-1.242-4.5-1.895-1.5-.437-2.492-.746-2.969-.918-1.23-.476-2.117-.89-2.66-1.25a7.284 7.284 0 0 1-1.484-1.273 5.906 5.906 0 0 1-1.075-1.68 5.043 5.043 0 0 1-.406-2.066c-.004-.813.219-1.594.66-2.344.438-.746 1.055-1.406 1.852-1.988.797-.574 1.742-1.043 2.844-1.402 1.097-.356 2.293-.536 3.582-.536 3.55 0 6.43 1.22 8.633 3.657Zm0 0"/></symbol><symbol overflow="visible" id="b"><path style="stroke:none" d="M3.2-23.207h3.655v12.95c0 1.491.133 2.737.407 3.734.27 1 .652 1.8 1.148 2.41.492.61 1.055 1.05 1.684 1.32.629.273 1.316.41 2.066.406a6.843 6.843 0 0 0 2.344-.61A6.439 6.439 0 0 0 16.52-4.44c.593-.625 1.062-1.43 1.402-2.414.34-.98.512-2.165.512-3.555v-12.797h3.656v21.125c0 .781.082 1.473.254 2.082h-3.809c-.039-.234-.07-.496-.101-.785a4.66 4.66 0 0 1 0-.992l.05-1.778a8.128 8.128 0 0 1-3.03 3.024C14.175.195 12.776.555 11.25.559 10.059.555 8.988.348 8.04-.074c-.954-.422-1.813-1.074-2.575-1.957-.766-.88-1.344-1.996-1.73-3.352-.395-1.351-.59-2.976-.587-4.875Zm0 0"/></symbol><symbol overflow="visible" id="c"><path style="stroke:none" d="M3.047-33.77h4.215v.102c-.004.172-.098.336-.282.484-.187.157-.277.332-.277.532v13a8.442 8.442 0 0 1 3.031-2.996c1.27-.743 2.57-1.118 3.895-1.118 1.289 0 2.512.246 3.668.739 1.156.492 2.176 1.238 3.058 2.234.883 1 1.579 2.242 2.086 3.73.508 1.493.762 3.239.766 5.231-.004 2.102-.285 3.922-.84 5.46-.562 1.544-1.3 2.829-2.215 3.86-.922 1.035-1.957 1.805-3.109 2.309a8.84 8.84 0 0 1-3.563.762c-1.43-.004-2.738-.32-3.925-.965a8.405 8.405 0 0 1-2.953-2.64L5.352 0H3.047ZM9.375-3.652c.648.343 1.23.57 1.746.683.516.121.996.18 1.441.176.684.004 1.434-.121 2.258-.379.82-.25 1.586-.695 2.29-1.336.703-.637 1.285-1.496 1.745-2.574.461-1.074.692-2.438.696-4.094-.004-3.058-.637-5.398-1.903-7.015-1.27-1.614-3.105-2.422-5.5-2.426-.859.004-1.765.308-2.722.91-.961.61-1.664 1.414-2.106 2.422-.414 1.012-.617 2.664-.617 4.95 0 1.417.031 2.612.102 3.585.066.977.203 1.793.41 2.45.203.66.48 1.187.824 1.59.344.405.79.76 1.336 1.058Zm0 0"/></symbol><symbol overflow="visible" id="d"><path style="stroke:none" d="m2.54-21.938-.509-1.269h4.317c-.004.238-.028.45-.078.637-.051.187-.079.347-.075.48-.004.07.016.121.051.152L13-4.977l3.758-8.632c.812-1.86 1.472-3.586 1.98-5.18.508-1.59.895-3.063 1.168-4.418h3.301c-.68 2.848-1.848 6.234-3.504 10.156L14.066.152h-2.843Zm0 0"/></symbol><symbol overflow="visible" id="e"><path style="stroke:none" d="M13.152-23.766c1.215 0 2.399.223 3.555.66a8.339 8.339 0 0 1 3.02 2.008c.863.899 1.558 2.04 2.082 3.426.523 1.39.785 3.035.789 4.926-.004.273-.012.55-.028.84-.015.289-.043.57-.074.836H5.992c.067 1.629.344 2.992.836 4.09.488 1.101 1.11 1.988 1.856 2.664a6.516 6.516 0 0 0 2.488 1.449c.91.289 1.824.43 2.742.43 2.402 0 4.399-.864 5.992-2.59l2.032 1.98C19.973-.68 17.261.503 13.813.508 12.117.504 10.57.246 9.163-.277 7.758-.801 6.563-1.574 5.586-2.59 4.602-3.605 3.84-4.863 3.3-6.37c-.547-1.504-.817-3.223-.813-5.156-.004-1.961.274-3.707.836-5.23.555-1.524 1.317-2.802 2.285-3.833a9.798 9.798 0 0 1 3.38-2.363c1.284-.54 2.671-.813 4.163-.813Zm-7.007 9.75H18.89c0-.132.007-.257.023-.375a4.03 4.03 0 0 0 .027-.425 6.06 6.06 0 0 0-.484-2.375 6.355 6.355 0 0 0-1.293-1.954 6.575 6.575 0 0 0-1.906-1.328 5.679 5.679 0 0 0-2.36-.5c-1.593.004-3.03.563-4.316 1.676-1.289 1.121-2.102 2.879-2.437 5.281Zm0 0"/></symbol><symbol overflow="visible" id="f"><path style="stroke:none" d="M5.027-23.207h3.758l-.101 4.469a7.694 7.694 0 0 1 3.386-3.73 10.041 10.041 0 0 1 4.973-1.298c2.512 0 4.582.848 6.215 2.54l-1.676 3.503a22.31 22.31 0 0 0-1.02-1.27 5.56 5.56 0 0 0-.996-.862 4.904 4.904 0 0 0-1.171-.56c-.43-.132-.946-.198-1.555-.202a6.688 6.688 0 0 0-3.164.789 8.699 8.699 0 0 0-2.574 2.082 10.563 10.563 0 0 0-1.758 2.969 9.448 9.448 0 0 0-.66 3.504V.05H5.027Zm0 0"/></symbol><symbol overflow="visible" id="g"><path style="stroke:none" d="M5.383-23.207h9.293v20.262h5.433V0H5.08v-2.945h5.94v-17.317H5.384Zm5.687-9.344a2.511 2.511 0 0 1 1.828-.761c.707.003 1.325.265 1.852.789.523.527.79 1.144.79 1.851 0 .715-.267 1.324-.79 1.828-.527.512-1.145.766-1.852.762a2.451 2.451 0 0 1-1.828-.762 2.451 2.451 0 0 1-.761-1.828c-.004-.742.25-1.367.761-1.879Zm0 0"/></symbol><symbol overflow="visible" id="h"><path style="stroke:none" d="M12.898-23.715a9.984 9.984 0 0 1 4.036.84 9.758 9.758 0 0 1 3.328 2.41c.945 1.05 1.695 2.328 2.258 3.836.554 1.508.835 3.192.84 5.05-.005 1.9-.274 3.595-.813 5.079-.543 1.492-1.29 2.77-2.235 3.836a9.525 9.525 0 0 1-3.351 2.437C15.67.332 14.3.61 12.848.61a9.761 9.761 0 0 1-4.192-.914A10.84 10.84 0 0 1 5.23-2.816C4.246-3.883 3.47-5.16 2.895-6.652c-.579-1.485-.868-3.094-.864-4.825a13.252 13.252 0 0 1 .887-4.875c.594-1.52 1.387-2.812 2.387-3.882a11.482 11.482 0 0 1 3.48-2.54 9.541 9.541 0 0 1 4.113-.94Zm6.805 12.238c-.004-1.453-.2-2.746-.586-3.882-.39-1.133-.906-2.09-1.547-2.871-.644-.774-1.383-1.368-2.21-1.778a5.991 5.991 0 0 0-2.614-.61 5.97 5.97 0 0 0-2.617.61c-.832.41-1.559 1.004-2.184 1.778-.625.78-1.125 1.718-1.496 2.82-.375 1.101-.562 2.348-.558 3.73-.004 1.36.183 2.594.558 3.707.371 1.121.871 2.086 1.496 2.895.625.816 1.36 1.441 2.211 1.879a5.68 5.68 0 0 0 2.692.66 6.128 6.128 0 0 0 2.664-.582 6.18 6.18 0 0 0 2.183-1.727c.625-.757 1.114-1.699 1.473-2.82.352-1.113.531-2.383.535-3.809Zm0 0"/></symbol><symbol overflow="visible" id="i"><path style="stroke:none" d="M3.453 0v-23.207H7.11v4.113a10.364 10.364 0 0 1 3.399-3.402c1.379-.844 2.785-1.27 4.219-1.27 1.02 0 1.976.18 2.863.536.887.355 1.652.921 2.3 1.699.645.781 1.15 1.781 1.508 2.996.36 1.223.54 2.71.54 4.469V0H18.28v-13.965c0-2.433-.418-4.144-1.25-5.129-.836-.98-1.847-1.472-3.035-1.472-.785 0-1.586.171-2.398.507a7.307 7.307 0 0 0-2.22 1.45 7.496 7.496 0 0 0-1.632 2.257c-.426.883-.64 1.883-.637 2.997V0Zm0 0"/></symbol><symbol overflow="visible" id="j"><path style="stroke:none" d="M7.871-19.508a4.767 4.767 0 0 0-1.117 1.668 5.223 5.223 0 0 0-.356 1.918c0 .68.133 1.328.407 1.95a4.96 4.96 0 0 0 1.09 1.617c.453.457.996.82 1.625 1.085a4.76 4.76 0 0 0 1.957.403 4.74 4.74 0 0 0 1.98-.403 5.285 5.285 0 0 0 1.625-1.113A5.327 5.327 0 0 0 16.199-14c.27-.602.406-1.242.406-1.922 0-.668-.136-1.316-.406-1.941a5.402 5.402 0 0 0-1.117-1.645 5.367 5.367 0 0 0-1.652-1.11 4.889 4.889 0 0 0-1.953-.405c-1.391 0-2.594.507-3.606 1.515Zm9.344-2.226c1.625-1.383 3.555-2.078 5.789-2.082h.66l.457 3.046a9.704 9.704 0 0 0-1.371-.102c-1.492 0-2.828.356-4.012 1.067a7.03 7.03 0 0 1 1.168 3.91 7.418 7.418 0 0 1-.66 3.075 8.179 8.179 0 0 1-1.805 2.539 8.534 8.534 0 0 1-2.664 1.726 8.396 8.396 0 0 1-3.25.633c-.953 0-1.933-.183-2.945-.558-1.086 1.054-1.629 1.933-1.625 2.64-.004.578.328 1.027.988 1.348.66.324 1.567.484 2.72.48.64.004 1.288-.02 1.952-.074a28.976 28.976 0 0 1 1.856-.078c1.523.004 2.832.148 3.933.434 1.098.289 1.989.695 2.668 1.218.676.528 1.184 1.145 1.524 1.852.336.71.504 1.469.507 2.285a5.89 5.89 0 0 1-.66 2.664c-.441.863-1.101 1.625-1.98 2.285-.883.66-1.992 1.184-3.328 1.574-1.34.387-2.907.582-4.696.586-1.867-.004-3.464-.148-4.8-.433-1.336-.29-2.41-.688-3.223-1.192-.813-.511-1.434-1.093-1.856-1.754A3.784 3.784 0 0 1 1.93 3.25C1.926 1.418 3.195-.29 5.738-1.879c-1.258-.64-1.883-1.707-1.879-3.2-.004-1.452.875-2.91 2.641-4.366a7.558 7.558 0 0 1-2.54-2.742 7.31 7.31 0 0 1-.913-3.555c0-1.149.234-2.223.71-3.223a8.586 8.586 0 0 1 1.903-2.617 8.98 8.98 0 0 1 2.742-1.75 8.394 8.394 0 0 1 3.176-.637c2.266.004 4.145.75 5.637 2.235ZM8.175-1.22C6.243-.137 5.278 1.047 5.282 2.336c-.004.676.192 1.242.582 1.7.387.456.91.827 1.574 1.116.657.285 1.438.5 2.336.637.899.133 1.836.2 2.82.203 2.063-.004 3.774-.375 5.13-1.117 1.351-.746 2.027-1.746 2.03-2.996-.07-.918-.448-1.625-1.144-2.133-.695-.504-1.789-.758-3.273-.762-.172.004-.34.012-.508.028-.172.02-.34.027-.508.023-1.289.004-2.441-.02-3.453-.074a60.698 60.698 0 0 1-2.691-.18Zm0 0"/></symbol><symbol overflow="visible" id="k"><path style="stroke:none" d="m9.547-29.402 3.96-.66a2.55 2.55 0 0 1-.128.812 5.453 5.453 0 0 0-.176.559l-.61 5.484h7.618v2.945h-7.617c-.309 3.032-.461 5.875-.457 8.532a65.325 65.325 0 0 0 .101 4.136c.067 1.125.246 2.012.535 2.657.29.648.704 1.152 1.25 1.507.54.36 1.274.535 2.196.535 1.562 0 3.297-.71 5.207-2.132l1.12 2.894c-2.335 1.727-4.741 2.59-7.21 2.59-2.441 0-4.219-.738-5.332-2.215C8.883-3.234 8.375-5.633 8.48-8.96c-.003-1.219.032-2.781.102-4.684.066-1.898.203-4.105.406-6.617H3.555v-2.945H9.14Zm0 0"/></symbol><symbol overflow="visible" id="m"><path style="stroke:none" d="M18.79-19.805V-33.77h3.96c-.004.208-.09.434-.254.688-.172.254-.254.5-.254.734l.051 30.215c-.004.813.082 1.524.254 2.133h-3.703c-.14-.406-.211-.98-.207-1.727v-1.98a8.431 8.431 0 0 1-3.04 3.074C14.318.125 13.017.504 11.7.507 10.414.505 9.207.255 8.082-.252 6.949-.759 5.953-1.52 5.094-2.54 4.23-3.551 3.547-4.83 3.043-6.371c-.508-1.54-.758-3.36-.758-5.461 0-2.129.285-3.95.86-5.457.574-1.504 1.324-2.738 2.253-3.707.926-.961 1.965-1.672 3.114-2.133a9.502 9.502 0 0 1 3.492-.687c1.617.003 3.008.367 4.176 1.093a6.797 6.797 0 0 1 2.61 2.918Zm-10.692.664C6.66-17.813 5.94-15.57 5.94-12.418c0 2.922.551 5.273 1.657 7.055 1.101 1.785 2.722 2.676 4.867 2.672.496.003 1.031-.09 1.601-.278a5.547 5.547 0 0 0 1.606-.84c.5-.375.953-.816 1.355-1.324a5.326 5.326 0 0 0 .907-1.734c.363-1.219.546-2.848.55-4.89-.004-1.286-.054-2.364-.152-3.231-.102-.867-.262-1.606-.477-2.215-.218-.61-.492-1.11-.828-1.504a5.399 5.399 0 0 0-1.254-1.043 9.332 9.332 0 0 0-1.68-.84 4.392 4.392 0 0 0-1.48-.281c-.972 0-1.8.137-2.484.41-.688.273-1.363.715-2.031 1.32Zm0 0"/></symbol><symbol overflow="visible" id="n"><path style="stroke:none" d="m23.207-19.348-2.59 2.996c-.172-.097-.25-.207-.23-.328.015-.117 0-.277-.051-.484-.055-.2-.184-.453-.387-.762-.207-.3-.613-.707-1.222-1.219-1.165-.945-2.75-1.421-4.758-1.421-.992 0-1.942.203-2.84.609-.906.406-1.7.988-2.379 1.746-.688.758-1.23 1.672-1.637 2.734-.41 1.067-.617 2.254-.613 3.57-.004 1.317.203 2.532.613 3.645.407 1.117.969 2.082 1.688 2.887a7.54 7.54 0 0 0 2.558 1.898c.989.461 2.079.688 3.274.684 2.347.004 4.379-.926 6.086-2.793l2.133 2.488C20.547-.66 17.719.555 14.372.56 12.71.555 11.18.254 9.772-.355a10.968 10.968 0 0 1-3.656-2.54c-1.031-1.082-1.836-2.359-2.41-3.832-.578-1.472-.867-3.09-.863-4.851-.004-1.727.285-3.332.863-4.824.574-1.485 1.379-2.762 2.41-3.832 1.031-1.063 2.266-1.903 3.707-2.516 1.438-.605 3.004-.91 4.7-.914 1.824.004 3.492.387 5 1.144a9.893 9.893 0 0 1 3.683 3.172Zm0 0"/></symbol><symbol overflow="visible" id="o"><path style="stroke:none" d="M1.93 0v-23.207H5.28v2.285a6.536 6.536 0 0 1 2.082-2.055c.844-.523 1.742-.789 2.692-.789.98 0 1.851.325 2.613.965a4.28 4.28 0 0 1 1.45 2.438c.437-1.012 1.132-1.832 2.081-2.461a5.504 5.504 0 0 1 3.098-.942c1.586 0 2.754.57 3.504 1.703.742 1.137 1.082 2.547 1.015 4.239V0h-3.351v-16.453c-.004-1.047-.055-1.875-.152-2.488-.106-.606-.274-1.07-.508-1.395-.239-.32-.477-.523-.711-.61-.239-.081-.543-.124-.914-.128-.442.004-.883.183-1.32.535-.446.36-.833.805-1.169 1.344a7.29 7.29 0 0 0-.812 1.855 6.867 6.867 0 0 0-.305 2.004V0h-3.402v-16.148c-.004-1.93-.184-3.215-.535-3.86-.36-.64-.977-.96-1.852-.965-.816.004-1.601.485-2.363 1.45-.762.964-1.145 2.312-1.14 4.035V0Zm0 0"/></symbol><symbol overflow="visible" id="s"><path style="stroke:none" d="m3.25.66 15.895-34.43 3.046 1.575L6.246 2.133Zm0 0"/></symbol><symbol overflow="visible" id="t"><path style="stroke:none" d="M3.352-33.77h4.113c0 .208-.078.426-.23.66-.153.239-.227.458-.227.66v19.907l11.68-10.766c.773.172 1.671.258 2.69.254H22.7l-9.781 9.192L24.324 0l-4.722.203-9.54-11.832-3.054 2.844V0H3.352Zm0 0"/></symbol><symbol overflow="visible" id="u"><path style="stroke:none" d="M4.621-20.465c2.063-2.164 4.82-3.246 8.277-3.25 2.84.004 5.082.723 6.727 2.16 1.64 1.442 2.465 3.836 2.465 7.184V0h-3.453v-2.54C16.164-.472 13.387.556 10.309.56 9.086.555 7.996.37 7.03 0c-.965-.371-1.785-.86-2.46-1.473A6.17 6.17 0 0 1 3.02-3.555c-.36-.777-.536-1.554-.532-2.336-.004-2.332 1.004-4.18 3.02-5.535 2.015-1.351 4.918-2.094 8.71-2.234h4.368v-.871c0-2.317-.484-3.934-1.45-4.856-.964-.918-2.46-1.379-4.491-1.383-2.508.004-4.59.883-6.247 2.641Zm14.117 9.598h-.863c-.477.004-.926-.004-1.348-.024-.425-.015-.84-.023-1.242-.027-1.863.004-3.387.129-4.57.383-1.188.254-2.117.601-2.793 1.039-.68.441-1.149.941-1.399 1.5a4.185 4.185 0 0 0-.378 1.8c-.004 1.087.468 2.016 1.421 2.794.946.78 2.114 1.172 3.504 1.168 1.012.004 1.926-.157 2.742-.48.81-.321 1.52-.712 2.133-1.169.606-.457 1.098-.93 1.473-1.422.371-.488.64-.922.812-1.297.336-.675.508-1.59.508-2.742Zm0 0"/></symbol><symbol overflow="visible" id="p"><path style="stroke:none" d="M2.707-35.152h9.988c2.028.004 3.785.199 5.274.593 1.484.395 2.68.989 3.586 1.774.902.789 1.597 1.7 2.086 2.73.488 1.035.734 2.168.734 3.407 0 1.652-.453 3.21-1.355 4.675-.903 1.465-2.18 2.5-3.836 3.098a9.748 9.748 0 0 1 2.68 1.441 11.68 11.68 0 0 1 2.116 2.118 8.884 8.884 0 0 1 1.352 2.574c.297.926.45 1.875.453 2.851-.004 2.977-1.058 5.371-3.16 7.18C20.515-.902 17.187 0 12.641 0H2.707Zm3.895 3.273v11.285h5.484c1.566.004 2.855-.136 3.863-.426 1.008-.28 1.817-.671 2.434-1.164a4.661 4.661 0 0 0 1.37-1.785 7.47 7.47 0 0 0 .56-2.242 7.668 7.668 0 0 0-.532-2.21c-.281-.677-.722-1.27-1.316-1.786-.602-.508-1.363-.914-2.293-1.219-.934-.297-2.09-.449-3.469-.453Zm0 14.555v13.883h6.765c3.028.003 5.14-.63 6.336-1.899 1.192-1.262 1.863-2.86 2.02-4.789-.078-1.055-.285-2.016-.625-2.887a6.33 6.33 0 0 0-1.563-2.293c-.703-.66-1.652-1.16-2.844-1.504-1.195-.335-2.625-.507-4.289-.511Zm0 0"/></symbol><symbol overflow="visible" id="q"><path style="stroke:none" d="m.875 0 12.414-35.773h.45L27.28 0H23.22l-3.895-10.27H8.152L4.77 0Zm17.547-13.316-4.965-13.43-4.512 13.43Zm0 0"/></symbol><symbol overflow="visible" id="r"><path style="stroke:none" d="M22.457-27.188c-.004-.44-.059-.769-.168-.992a8.673 8.673 0 0 0-2.937-2.906c-1.207-.715-2.485-1.074-3.836-1.078a7.088 7.088 0 0 0-3.61.988c-1.129.66-2.129 1.621-2.992 2.88-.867 1.265-1.543 2.796-2.031 4.597-.488 1.808-.73 3.86-.73 6.152 0 2.223.242 4.246.73 6.067.488 1.828 1.176 3.386 2.058 4.683.883 1.297 1.918 2.305 3.106 3.02a7.239 7.239 0 0 0 3.808 1.07c1.391 0 2.735-.395 4.036-1.188 1.293-.789 2.336-1.859 3.132-3.214l2.934 1.918a10.945 10.945 0 0 1-2.035 2.484A13.528 13.528 0 0 1 21.41-.902c-.883.492-1.765.855-2.648 1.097-.883.242-1.778.367-2.68.367-2.035 0-3.832-.347-5.39-1.042-1.563-.696-2.993-1.774-4.29-3.243-1.3-1.465-2.308-3.328-3.02-5.586-.718-2.254-1.073-4.945-1.07-8.07-.003-3.46.41-6.348 1.243-8.66.824-2.313 1.914-4.164 3.273-5.559 1.352-1.39 2.793-2.379 4.317-2.96 1.523-.583 3-.872 4.43-.876 1.163.004 2.3.172 3.413.508 1.106.34 2.14.809 3.102 1.41.96.602 1.816 1.328 2.566 2.172.75.852 1.352 1.801 1.809 2.848l-3.781 1.863c-.157-.105-.23-.293-.227-.555Zm0 0"/></symbol><symbol overflow="visible" id="v"><path style="stroke:none" d="M3.047-35.152h8.183c3.004.004 5.344.418 7.024 1.242 1.672.828 3.094 2.012 4.258 3.555 1.164 1.543 2.027 3.406 2.597 5.585.563 2.184.848 4.645.848 7.391 0 2.711-.34 5.14-1.016 7.281-.68 2.149-1.609 3.98-2.793 5.5-1.187 1.528-2.722 2.684-4.601 3.47C15.664-.34 13.332.05 10.55.054H3.047ZM6.77-31.88v28.832h3.585c3.993 0 6.915-1.215 8.766-3.644 1.844-2.43 2.77-5.926 2.774-10.489-.043-4.597-.895-8.195-2.551-10.797-1.664-2.597-4.453-3.898-8.371-3.902Zm0 0"/></symbol><symbol overflow="visible" id="w"><path style="stroke:none" d="m13.43-30.922-.395-3.555c-.004-1.05.238-1.828.73-2.34.485-.503 1.051-.757 1.696-.761.637.004 1.219.285 1.746.848.527.566.793 1.468.793 2.707-.04.64-.2 1.543-.48 2.707-.282 1.168-.743 2.617-1.383 4.343l-1.41 3.727-3.102-.734 1.238-3.836c.188-.563.332-1.102.426-1.61.094-.508.14-1.004.14-1.496Zm0 0"/></symbol></defs><path style="fill-rule:nonzero;fill:#fff;fill-opacity:1;stroke-width:0;stroke-linecap:butt;stroke-linejoin:miter;stroke:#000;stroke-opacity:1;stroke-miterlimit:10" d="M0 0h148v59H0Zm0 0" transform="scale(20)"/><path style="fill-rule:evenodd;fill:#fefad8;fill-opacity:1;stroke-width:.1;stroke-linecap:butt;stroke-linejoin:round;stroke:#000;stroke-opacity:1;stroke-miterlimit:10" d="M2.3 16h17.4a.3.3 0 0 1 .3.3v34.4a.3.3 0 0 1-.3.3H2.3a.3.3 0 0 1-.3-.3V16.3a.3.3 0 0 1 .3-.3" transform="scale(20)"/><path style="fill:none;stroke-width:.35;stroke-linecap:butt;stroke-linejoin:round;stroke:#000;stroke-opacity:1;stroke-miterlimit:10" d="M11 38.049v4.185" transform="scale(20)"/><path style="fill-rule:evenodd;fill:#000;fill-opacity:1;stroke-width:.35;stroke-linecap:butt;stroke-linejoin:miter;stroke:#000;stroke-opacity:1;stroke-miterlimit:10" d="m11 42.609-.25-.5.25.125.25-.125-.25.5Zm0 0" transform="scale(20)"/><path style="fill:none;stroke-width:.35;stroke-linecap:butt;stroke-linejoin:miter;stroke:#000;stroke-opacity:1;stroke-miterlimit:10" d="M11 27v4.185" transform="scale(20)"/><path style="fill-rule:evenodd;fill:#000;fill-opacity:1;stroke-width:.35;stroke-linecap:butt;stroke-linejoin:miter;stroke:#000;stroke-opacity:1;stroke-miterlimit:10" d="m11 31.56-.25-.5.25.125.25-.125-.25.5Zm0 0" transform="scale(20)"/><g style="fill:#000;fill-opacity:1"><use xlink:href="#a" x="93.047" y="377"/><use xlink:href="#b" x="118.438" y="377"/><use xlink:href="#c" x="143.828" y="377"/><use xlink:href="#d" x="169.219" y="377"/><use xlink:href="#e" x="194.609" y="377"/><use xlink:href="#f" x="220" y="377"/><use xlink:href="#a" x="245.391" y="377"/><use xlink:href="#g" x="270.781" y="377"/><use xlink:href="#h" x="296.172" y="377"/><use xlink:href="#i" x="321.563" y="377"/></g><path style="fill:none;stroke-width:.8;stroke-linecap:butt;stroke-linejoin:miter;stroke:#000;stroke-opacity:1;stroke-miterlimit:10" d="M41 54h47.7" transform="scale(20)"/><path style="fill-rule:evenodd;fill:#000;fill-opacity:1;stroke-width:.8;stroke-linecap:butt;stroke-linejoin:miter;stroke:#000;stroke-opacity:1;stroke-miterlimit:10" d="m88.7 54.45.9-.45-.9-.45v.9Zm0 0" transform="scale(20)"/><g style="fill:#000;fill-opacity:1"><use xlink:href="#j" x="1089.57" y="1137"/><use xlink:href="#g" x="1114.961" y="1137"/><use xlink:href="#k" x="1140.352" y="1137"/><use xlink:href="#l" x="1165.742" y="1137"/><use xlink:href="#a" x="1191.133" y="1137"/><use xlink:href="#d" x="1216.523" y="1137"/><use xlink:href="#i" x="1241.914" y="1137"/><use xlink:href="#l" x="1267.305" y="1137"/><use xlink:href="#m" x="1292.695" y="1137"/><use xlink:href="#n" x="1318.086" y="1137"/><use xlink:href="#h" x="1343.477" y="1137"/><use xlink:href="#o" x="1368.867" y="1137"/><use xlink:href="#o" x="1394.258" y="1137"/><use xlink:href="#g" x="1419.648" y="1137"/><use xlink:href="#k" x="1445.039" y="1137"/></g><path style="fill:none;stroke-width:.35;stroke-linecap:butt;stroke-linejoin:miter;stroke:#000;stroke-opacity:1;stroke-miterlimit:10" d="M35.984 38v4.234" transform="scale(20)"/><path style="fill-rule:evenodd;fill:#000;fill-opacity:1;stroke-width:.35;stroke-linecap:butt;stroke-linejoin:miter;stroke:#000;stroke-opacity:1;stroke-miterlimit:10" d="m35.984 42.609-.25-.5.25.125.25-.125-.25.5Zm0 0" transform="scale(20)"/><path style="fill:none;stroke-width:.35;stroke-linecap:butt;stroke-linejoin:miter;stroke:#000;stroke-opacity:1;stroke-miterlimit:10" d="M35.984 27v4.234" transform="scale(20)"/><path style="fill-rule:evenodd;fill:#000;fill-opacity:1;stroke-width:.35;stroke-linecap:butt;stroke-linejoin:miter;stroke:#000;stroke-opacity:1;stroke-miterlimit:10" d="m35.984 31.609-.25-.5.25.125.25-.125-.25.5Zm0 0" transform="scale(20)"/><path style="fill:none;stroke-width:.35;stroke-linecap:butt;stroke-linejoin:miter;stroke:#000;stroke-opacity:1;stroke-miterlimit:10" d="M35.984 16v4.234" transform="scale(20)"/><path style="fill-rule:evenodd;fill:#000;fill-opacity:1;stroke-width:.35;stroke-linecap:butt;stroke-linejoin:miter;stroke:#000;stroke-opacity:1;stroke-miterlimit:10" d="m35.984 20.609-.25-.5.25.125.25-.125-.25.5Zm0 0" transform="scale(20)"/><path style="stroke:none;fill-rule:evenodd;fill:#dedede;fill-opacity:1" d="M609.68 640h220v120h-220ZM609.68 650v-10c-5.524 0-10 4.477-10 10h10ZM829.68 650h10c0-5.523-4.477-10-10-10v10Zm0 0"/><path style="stroke:none;fill-rule:evenodd;fill:#dedede;fill-opacity:1" d="M599.68 650h240v100h-240ZM609.68 750h-10c0 5.523 4.476 10 10 10v-10ZM829.68 750v10c5.523 0 10-4.477 10-10h-10Zm0 0"/><path style="fill:none;stroke-width:.1;stroke-linecap:butt;stroke-linejoin:miter;stroke:#000;stroke-opacity:1;stroke-miterlimit:10" d="M30.484 32h11M30.484 38h11M30.484 32a.5.5 0 0 0-.5.5M41.984 32.5a.5.5 0 0 0-.5-.5M29.984 32.5v5M41.984 32.5v5M29.984 37.5a.5.5 0 0 0 .5.5M41.484 38a.5.5 0 0 0 .5-.5" transform="scale(20)"/><use xlink:href="#p" x="705.578" y="713.223" style="fill:#000;fill-opacity:1"/><path style="stroke:none;fill-rule:evenodd;fill:#dedede;fill-opacity:1" d="M609.68 860h220v120h-220ZM609.68 870v-10c-5.524 0-10 4.477-10 10h10ZM829.68 870h10c0-5.523-4.477-10-10-10v10Zm0 0"/><path style="stroke:none;fill-rule:evenodd;fill:#dedede;fill-opacity:1" d="M599.68 870h240v100h-240ZM609.68 970h-10c0 5.523 4.476 10 10 10v-10ZM829.68 970v10c5.523 0 10-4.477 10-10h-10Zm0 0"/><path style="fill:none;stroke-width:.1;stroke-linecap:butt;stroke-linejoin:miter;stroke:#000;stroke-opacity:1;stroke-miterlimit:10" d="M30.484 43h11M30.484 49h11M30.484 43a.5.5 0 0 0-.5.5M41.984 43.5a.5.5 0 0 0-.5-.5M29.984 43.5v5M41.984 43.5v5M29.984 48.5a.5.5 0 0 0 .5.5M41.484 49a.5.5 0 0 0 .5-.5" transform="scale(20)"/><use xlink:href="#q" x="705.578" y="933.223" style="fill:#000;fill-opacity:1"/><path style="stroke:none;fill-rule:evenodd;fill:#a1bbe5;fill-opacity:1" d="M609.68 420h220v120h-220ZM609.68 430v-10c-5.524 0-10 4.477-10 10h10ZM829.68 430h10c0-5.523-4.477-10-10-10v10Zm0 0"/><path style="stroke:none;fill-rule:evenodd;fill:#a1bbe5;fill-opacity:1" d="M599.68 430h240v100h-240ZM609.68 530h-10c0 5.523 4.476 10 10 10v-10ZM829.68 530v10c5.523 0 10-4.477 10-10h-10Zm0 0"/><path style="fill:none;stroke-width:.1;stroke-linecap:butt;stroke-linejoin:miter;stroke:#000;stroke-opacity:1;stroke-miterlimit:10" d="M30.484 21h11M30.484 27h11M30.484 21a.5.5 0 0 0-.5.5M41.984 21.5a.5.5 0 0 0-.5-.5M29.984 21.5v5M41.984 21.5v5M29.984 26.5a.5.5 0 0 0 .5.5M41.484 27a.5.5 0 0 0 .5-.5" transform="scale(20)"/><use xlink:href="#r" x="705.578" y="493.223" style="fill:#000;fill-opacity:1"/><path style="stroke:none;fill-rule:evenodd;fill:#a9e5a1;fill-opacity:1" d="M449.68 340h535v65.5h-535ZM449.68 350v-10c-5.524 0-10 4.477-10 10h10Zm0 0"/><path style="stroke:none;fill-rule:evenodd;fill:#a9e5a1;fill-opacity:1" d="M984.68 350h10c0-5.523-4.477-10-10-10v10ZM439.68 350h555v45.5h-555ZM449.68 395.5h-10c0 5.523 4.476 10 10 10v-10ZM984.68 395.5v10c5.523 0 10-4.477 10-10h-10Zm0 0"/><path style="fill:none;stroke-width:.1;stroke-linecap:butt;stroke-linejoin:miter;stroke:#000;stroke-opacity:1;stroke-miterlimit:10" d="M22.484 17h26.75M22.484 20.275h26.75M22.484 17a.5.5 0 0 0-.5.5M49.734 17.5a.5.5 0 0 0-.5-.5M21.984 17.5v2.275M49.734 17.5v2.275M21.984 19.775a.5.5 0 0 0 .5.5M49.234 20.275a.5.5 0 0 0 .5-.5" transform="scale(20)"/><g style="fill:#000;fill-opacity:1"><use xlink:href="#f" x="463.273" y="384.648"/><use xlink:href="#e" x="488.664" y="384.648"/><use xlink:href="#o" x="514.055" y="384.648"/><use xlink:href="#h" x="539.445" y="384.648"/><use xlink:href="#k" x="564.836" y="384.648"/><use xlink:href="#e" x="590.227" y="384.648"/><use xlink:href="#a" x="615.617" y="384.648"/><use xlink:href="#s" x="641.008" y="384.648"/><use xlink:href="#h" x="666.398" y="384.648"/><use xlink:href="#f" x="691.789" y="384.648"/><use xlink:href="#g" x="717.18" y="384.648"/><use xlink:href="#j" x="742.57" y="384.648"/><use xlink:href="#g" x="767.961" y="384.648"/><use xlink:href="#i" x="793.352" y="384.648"/><use xlink:href="#s" x="818.742" y="384.648"/><use xlink:href="#k" x="844.133" y="384.648"/><use xlink:href="#f" x="869.523" y="384.648"/><use xlink:href="#b" x="894.914" y="384.648"/><use xlink:href="#i" x="920.305" y="384.648"/><use xlink:href="#t" x="945.695" y="384.648"/></g><path style="stroke:none;fill-rule:evenodd;fill:#a9e5a1;fill-opacity:1" d="M609.68 120h220v65.5h-220ZM609.68 130v-10c-5.524 0-10 4.477-10 10h10ZM829.68 130h10c0-5.523-4.477-10-10-10v10Zm0 0"/><path style="stroke:none;fill-rule:evenodd;fill:#a9e5a1;fill-opacity:1" d="M599.68 130h240v45.5h-240ZM609.68 175.5h-10c0 5.523 4.476 10 10 10v-10ZM829.68 175.5v10c5.523 0 10-4.477 10-10h-10Zm0 0"/><path style="fill:none;stroke-width:.1;stroke-linecap:butt;stroke-linejoin:miter;stroke:#000;stroke-opacity:1;stroke-miterlimit:10" d="M30.484 6h11M30.484 9.275h11M30.484 6a.5.5 0 0 0-.5.5M41.984 6.5a.5.5 0 0 0-.5-.5M29.984 6.5v2.275M41.984 6.5v2.275M29.984 8.775a.5.5 0 0 0 .5.5M41.484 9.275a.5.5 0 0 0 .5-.5" transform="scale(20)"/><g style="fill:#000;fill-opacity:1"><use xlink:href="#o" x="643.508" y="164.648"/><use xlink:href="#u" x="668.898" y="164.648"/><use xlink:href="#a" x="694.289" y="164.648"/><use xlink:href="#k" x="719.68" y="164.648"/><use xlink:href="#e" x="745.07" y="164.648"/><use xlink:href="#f" x="770.461" y="164.648"/></g><path style="stroke:none;fill-rule:evenodd;fill:#a1bbe5;fill-opacity:1" d="M110 420h220v120H110ZM110 430v-10c-5.523 0-10 4.477-10 10h10ZM330 430h10c0-5.523-4.477-10-10-10v10Zm0 0"/><path style="stroke:none;fill-rule:evenodd;fill:#a1bbe5;fill-opacity:1" d="M100 430h240v100H100ZM110 530h-10c0 5.523 4.477 10 10 10v-10ZM330 530v10c5.523 0 10-4.477 10-10h-10Zm0 0"/><path style="fill:none;stroke-width:.1;stroke-linecap:butt;stroke-linejoin:miter;stroke:#000;stroke-opacity:1;stroke-miterlimit:10" d="M5.5 21h11M5.5 27h11M5.5 21a.5.5 0 0 0-.5.5M17 21.5a.5.5 0 0 0-.5-.5M5 21.5v5M17 21.5v5M5 26.5a.5.5 0 0 0 .5.5M16.5 27a.5.5 0 0 0 .5-.5" transform="scale(20)"/><use xlink:href="#r" x="205.898" y="493.223" style="fill:#000;fill-opacity:1"/><path style="stroke:none;fill-rule:evenodd;fill:#dedede;fill-opacity:1" d="M110 860h220v120H110ZM110 870v-10c-5.523 0-10 4.477-10 10h10ZM330 870h10c0-5.523-4.477-10-10-10v10Zm0 0"/><path style="stroke:none;fill-rule:evenodd;fill:#dedede;fill-opacity:1" d="M100 870h240v100H100ZM110 970h-10c0 5.523 4.477 10 10 10v-10ZM330 970v10c5.523 0 10-4.477 10-10h-10Zm0 0"/><path style="fill:none;stroke-width:.1;stroke-linecap:butt;stroke-linejoin:miter;stroke:#000;stroke-opacity:1;stroke-miterlimit:10" d="M5.5 43h11M5.5 49h11M5.5 43a.5.5 0 0 0-.5.5M17 43.5a.5.5 0 0 0-.5-.5M5 43.5v5M17 43.5v5M5 48.5a.5.5 0 0 0 .5.5M16.5 49a.5.5 0 0 0 .5-.5" transform="scale(20)"/><use xlink:href="#q" x="205.898" y="933.223" style="fill:#000;fill-opacity:1"/><path style="stroke:none;fill-rule:evenodd;fill:#dedede;fill-opacity:1" d="M110 640h220v120H110ZM110 650v-10c-5.523 0-10 4.477-10 10h10ZM330 650h10c0-5.523-4.477-10-10-10v10Zm0 0"/><path style="stroke:none;fill-rule:evenodd;fill:#dedede;fill-opacity:1" d="M100 650h240v100H100ZM110 750h-10c0 5.523 4.477 10 10 10v-10ZM330 750v10c5.523 0 10-4.477 10-10h-10Zm0 0"/><path style="fill:none;stroke-width:.1;stroke-linecap:butt;stroke-linejoin:miter;stroke:#000;stroke-opacity:1;stroke-miterlimit:10" d="M5.5 32h11M5.5 38h11M5.5 32a.5.5 0 0 0-.5.5M17 32.5a.5.5 0 0 0-.5-.5M5 32.5v5M17 32.5v5M5 37.5a.5.5 0 0 0 .5.5M16.5 38a.5.5 0 0 0 .5-.5" transform="scale(20)"/><use xlink:href="#p" x="205.898" y="713.223" style="fill:#000;fill-opacity:1"/><path style="stroke:none;fill-rule:evenodd;fill:#e9a4de;fill-opacity:1" d="M609.68 200h220v120h-220ZM609.68 210v-10c-5.524 0-10 4.477-10 10h10ZM829.68 210h10c0-5.523-4.477-10-10-10v10Zm0 0"/><path style="stroke:none;fill-rule:evenodd;fill:#e9a4de;fill-opacity:1" d="M599.68 210h240v100h-240ZM609.68 310h-10c0 5.523 4.476 10 10 10v-10ZM829.68 310v10c5.523 0 10-4.477 10-10h-10Zm0 0"/><path style="fill:none;stroke-width:.1;stroke-linecap:butt;stroke-linejoin:miter;stroke:#000;stroke-opacity:1;stroke-miterlimit:10" d="M30.484 10h11M30.484 16h11M30.484 10a.5.5 0 0 0-.5.5M41.984 10.5a.5.5 0 0 0-.5-.5M29.984 10.5v5M41.984 10.5v5M29.984 15.5a.5.5 0 0 0 .5.5M41.484 16a.5.5 0 0 0 .5-.5" transform="scale(20)"/><g style="fill:#000;fill-opacity:1"><use xlink:href="#v" x="691.457" y="273.223"/><use xlink:href="#w" x="719.68" y="273.223"/></g><path style="fill-rule:evenodd;fill:#fefad8;fill-opacity:1;stroke-width:.1;stroke-linecap:butt;stroke-linejoin:round;stroke:#000;stroke-opacity:1;stroke-miterlimit:10" d="M89.3 5h17.4a.3.3 0 0 1 .3.3v45.4a.3.3 0 0 1-.3.3H89.3a.3.3 0 0 1-.3-.3V5.3a.3.3 0 0 1 .3-.3" transform="scale(20)"/><path style="fill:none;stroke-width:.35;stroke-linecap:butt;stroke-linejoin:round;stroke:#000;stroke-opacity:1;stroke-miterlimit:10" d="M98 38.049v4.185" transform="scale(20)"/><path style="fill-rule:evenodd;fill:#000;fill-opacity:1;stroke-width:.35;stroke-linecap:butt;stroke-linejoin:miter;stroke:#000;stroke-opacity:1;stroke-miterlimit:10" d="m98 42.609-.25-.5.25.125.25-.125-.25.5Zm0 0" transform="scale(20)"/><path style="fill:none;stroke-width:.35;stroke-linecap:butt;stroke-linejoin:miter;stroke:#000;stroke-opacity:1;stroke-miterlimit:10" d="M98 27v4.185" transform="scale(20)"/><path style="fill-rule:evenodd;fill:#000;fill-opacity:1;stroke-width:.35;stroke-linecap:butt;stroke-linejoin:miter;stroke:#000;stroke-opacity:1;stroke-miterlimit:10" d="m98 31.56-.25-.5.25.125.25-.125-.25.5Zm0 0" transform="scale(20)"/><g style="fill:#000;fill-opacity:1"><use xlink:href="#a" x="1833.047" y="157"/><use xlink:href="#b" x="1858.438" y="157"/><use xlink:href="#c" x="1883.828" y="157"/><use xlink:href="#d" x="1909.219" y="157"/><use xlink:href="#e" x="1934.609" y="157"/><use xlink:href="#f" x="1960" y="157"/><use xlink:href="#a" x="1985.391" y="157"/><use xlink:href="#g" x="2010.781" y="157"/><use xlink:href="#h" x="2036.172" y="157"/><use xlink:href="#i" x="2061.563" y="157"/></g><path style="stroke:none;fill-rule:evenodd;fill:#a1bbe5;fill-opacity:1" d="M1850 420h220v120h-220ZM1850 430v-10c-5.523 0-10 4.477-10 10h10ZM2070 430h10c0-5.523-4.477-10-10-10v10Zm0 0"/><path style="stroke:none;fill-rule:evenodd;fill:#a1bbe5;fill-opacity:1" d="M1840 430h240v100h-240ZM1850 530h-10c0 5.523 4.477 10 10 10v-10ZM2070 530v10c5.523 0 10-4.477 10-10h-10Zm0 0"/><path style="fill:none;stroke-width:.1;stroke-linecap:butt;stroke-linejoin:miter;stroke:#000;stroke-opacity:1;stroke-miterlimit:10" d="M92.5 21h11M92.5 27h11M92.5 21a.5.5 0 0 0-.5.5M104 21.5a.5.5 0 0 0-.5-.5M92 21.5v5M104 21.5v5M92 26.5a.5.5 0 0 0 .5.5M103.5 27a.5.5 0 0 0 .5-.5" transform="scale(20)"/><use xlink:href="#r" x="1945.898" y="493.223" style="fill:#000;fill-opacity:1"/><path style="stroke:none;fill-rule:evenodd;fill:#dedede;fill-opacity:1" d="M1850 860h220v120h-220ZM1850 870v-10c-5.523 0-10 4.477-10 10h10ZM2070 870h10c0-5.523-4.477-10-10-10v10Zm0 0"/><path style="stroke:none;fill-rule:evenodd;fill:#dedede;fill-opacity:1" d="M1840 870h240v100h-240ZM1850 970h-10c0 5.523 4.477 10 10 10v-10ZM2070 970v10c5.523 0 10-4.477 10-10h-10Zm0 0"/><path style="fill:none;stroke-width:.1;stroke-linecap:butt;stroke-linejoin:miter;stroke:#000;stroke-opacity:1;stroke-miterlimit:10" d="M92.5 43h11M92.5 49h11M92.5 43a.5.5 0 0 0-.5.5M104 43.5a.5.5 0 0 0-.5-.5M92 43.5v5M104 43.5v5M92 48.5a.5.5 0 0 0 .5.5M103.5 49a.5.5 0 0 0 .5-.5" transform="scale(20)"/><use xlink:href="#q" x="1945.898" y="933.223" style="fill:#000;fill-opacity:1"/><path style="stroke:none;fill-rule:evenodd;fill:#dedede;fill-opacity:1" d="M1850 640h220v120h-220ZM1850 650v-10c-5.523 0-10 4.477-10 10h10ZM2070 650h10c0-5.523-4.477-10-10-10v10Zm0 0"/><path style="stroke:none;fill-rule:evenodd;fill:#dedede;fill-opacity:1" d="M1840 650h240v100h-240ZM1850 750h-10c0 5.523 4.477 10 10 10v-10ZM2070 750v10c5.523 0 10-4.477 10-10h-10Zm0 0"/><path style="fill:none;stroke-width:.1;stroke-linecap:butt;stroke-linejoin:miter;stroke:#000;stroke-opacity:1;stroke-miterlimit:10" d="M92.5 32h11M92.5 38h11M92.5 32a.5.5 0 0 0-.5.5M104 32.5a.5.5 0 0 0-.5-.5M92 32.5v5M104 32.5v5M92 37.5a.5.5 0 0 0 .5.5M103.5 38a.5.5 0 0 0 .5-.5" transform="scale(20)"/><use xlink:href="#p" x="1945.898" y="713.223" style="fill:#000;fill-opacity:1"/><path style="stroke:none;fill-rule:evenodd;fill:#e9a4de;fill-opacity:1" d="M1850 200h220v120h-220ZM1850 210v-10c-5.523 0-10 4.477-10 10h10ZM2070 210h10c0-5.523-4.477-10-10-10v10Zm0 0"/><path style="stroke:none;fill-rule:evenodd;fill:#e9a4de;fill-opacity:1" d="M1840 210h240v100h-240ZM1850 310h-10c0 5.523 4.477 10 10 10v-10ZM2070 310v10c5.523 0 10-4.477 10-10h-10Zm0 0"/><path style="fill:none;stroke-width:.1;stroke-linecap:butt;stroke-linejoin:miter;stroke:#000;stroke-opacity:1;stroke-miterlimit:10" d="M92.5 10h11M92.5 16h11M92.5 10a.5.5 0 0 0-.5.5M104 10.5a.5.5 0 0 0-.5-.5M92 10.5v5M104 10.5v5M92 15.5a.5.5 0 0 0 .5.5M103.5 16a.5.5 0 0 0 .5-.5" transform="scale(20)"/><g style="fill:#000;fill-opacity:1"><use xlink:href="#v" x="1931.777" y="273.223"/><use xlink:href="#w" x="1960" y="273.223"/></g><path style="fill:none;stroke-width:.35;stroke-linecap:butt;stroke-linejoin:miter;stroke:#000;stroke-opacity:1;stroke-miterlimit:10" d="M98 16.049v4.185" transform="scale(20)"/><path style="fill-rule:evenodd;fill:#000;fill-opacity:1;stroke-width:.35;stroke-linecap:butt;stroke-linejoin:miter;stroke:#000;stroke-opacity:1;stroke-miterlimit:10" d="m98 20.609-.25-.5.25.125.25-.125-.25.5Zm0 0" transform="scale(20)"/><path style="fill:none;stroke-width:.35;stroke-linecap:butt;stroke-linejoin:miter;stroke:#000;stroke-opacity:1;stroke-miterlimit:10" d="M124 38v4.234" transform="scale(20)"/><path style="fill-rule:evenodd;fill:#000;fill-opacity:1;stroke-width:.35;stroke-linecap:butt;stroke-linejoin:miter;stroke:#000;stroke-opacity:1;stroke-miterlimit:10" d="m124 42.609-.25-.5.25.125.25-.125-.25.5Zm0 0" transform="scale(20)"/><path style="fill:none;stroke-width:.35;stroke-linecap:butt;stroke-linejoin:miter;stroke:#000;stroke-opacity:1;stroke-miterlimit:10" d="M124 27v4.234" transform="scale(20)"/><path style="fill-rule:evenodd;fill:#000;fill-opacity:1;stroke-width:.35;stroke-linecap:butt;stroke-linejoin:miter;stroke:#000;stroke-opacity:1;stroke-miterlimit:10" d="m124 31.609-.25-.5.25.125.25-.125-.25.5Zm0 0" transform="scale(20)"/><path style="fill:none;stroke-width:.35;stroke-linecap:butt;stroke-linejoin:miter;stroke:#000;stroke-opacity:1;stroke-miterlimit:10" d="M124 16v4.234" transform="scale(20)"/><path style="fill-rule:evenodd;fill:#000;fill-opacity:1;stroke-width:.35;stroke-linecap:butt;stroke-linejoin:miter;stroke:#000;stroke-opacity:1;stroke-miterlimit:10" d="m124 20.609-.25-.5.25.125.25-.125-.25.5Zm0 0" transform="scale(20)"/><path style="stroke:none;fill-rule:evenodd;fill:#dedede;fill-opacity:1" d="M2370 640h220v120h-220ZM2370 650v-10c-5.523 0-10 4.477-10 10h10ZM2590 650h10c0-5.523-4.477-10-10-10v10Zm0 0"/><path style="stroke:none;fill-rule:evenodd;fill:#dedede;fill-opacity:1" d="M2360 650h240v100h-240ZM2370 750h-10c0 5.523 4.477 10 10 10v-10ZM2590 750v10c5.523 0 10-4.477 10-10h-10Zm0 0"/><path style="fill:none;stroke-width:.1;stroke-linecap:butt;stroke-linejoin:miter;stroke:#000;stroke-opacity:1;stroke-miterlimit:10" d="M118.5 32h11M118.5 38h11M118.5 32a.5.5 0 0 0-.5.5M130 32.5a.5.5 0 0 0-.5-.5M118 32.5v5M130 32.5v5M118 37.5a.5.5 0 0 0 .5.5M129.5 38a.5.5 0 0 0 .5-.5" transform="scale(20)"/><use xlink:href="#p" x="2465.898" y="713.223" style="fill:#000;fill-opacity:1"/><path style="stroke:none;fill-rule:evenodd;fill:#dedede;fill-opacity:1" d="M2370 860h220v120h-220ZM2370 870v-10c-5.523 0-10 4.477-10 10h10ZM2590 870h10c0-5.523-4.477-10-10-10v10Zm0 0"/><path style="stroke:none;fill-rule:evenodd;fill:#dedede;fill-opacity:1" d="M2360 870h240v100h-240ZM2370 970h-10c0 5.523 4.477 10 10 10v-10ZM2590 970v10c5.523 0 10-4.477 10-10h-10Zm0 0"/><path style="fill:none;stroke-width:.1;stroke-linecap:butt;stroke-linejoin:miter;stroke:#000;stroke-opacity:1;stroke-miterlimit:10" d="M118.5 43h11M118.5 49h11M118.5 43a.5.5 0 0 0-.5.5M130 43.5a.5.5 0 0 0-.5-.5M118 43.5v5M130 43.5v5M118 48.5a.5.5 0 0 0 .5.5M129.5 49a.5.5 0 0 0 .5-.5" transform="scale(20)"/><use xlink:href="#q" x="2465.898" y="933.223" style="fill:#000;fill-opacity:1"/><path style="stroke:none;fill-rule:evenodd;fill:#a1bbe5;fill-opacity:1" d="M2370 420h220v120h-220ZM2370 430v-10c-5.523 0-10 4.477-10 10h10ZM2590 430h10c0-5.523-4.477-10-10-10v10Zm0 0"/><path style="stroke:none;fill-rule:evenodd;fill:#a1bbe5;fill-opacity:1" d="M2360 430h240v100h-240ZM2370 530h-10c0 5.523 4.477 10 10 10v-10ZM2590 530v10c5.523 0 10-4.477 10-10h-10Zm0 0"/><path style="fill:none;stroke-width:.1;stroke-linecap:butt;stroke-linejoin:miter;stroke:#000;stroke-opacity:1;stroke-miterlimit:10" d="M118.5 21h11M118.5 27h11M118.5 21a.5.5 0 0 0-.5.5M130 21.5a.5.5 0 0 0-.5-.5M118 21.5v5M130 21.5v5M118 26.5a.5.5 0 0 0 .5.5M129.5 27a.5.5 0 0 0 .5-.5" transform="scale(20)"/><use xlink:href="#r" x="2465.898" y="493.223" style="fill:#000;fill-opacity:1"/><path style="stroke:none;fill-rule:evenodd;fill:#a9e5a1;fill-opacity:1" d="M2370 40h220v65.5h-220ZM2370 50V40c-5.523 0-10 4.477-10 10h10ZM2590 50h10c0-5.523-4.477-10-10-10v10Zm0 0"/><path style="stroke:none;fill-rule:evenodd;fill:#a9e5a1;fill-opacity:1" d="M2360 50h240v45.5h-240ZM2370 95.5h-10c0 5.523 4.477 10 10 10v-10ZM2590 95.5v10c5.523 0 10-4.477 10-10h-10Zm0 0"/><path style="fill:none;stroke-width:.1;stroke-linecap:butt;stroke-linejoin:miter;stroke:#000;stroke-opacity:1;stroke-miterlimit:10" d="M118.5 2h11M118.5 5.275h11M118.5 2a.5.5 0 0 0-.5.5M130 2.5a.5.5 0 0 0-.5-.5M118 2.5v2.275M130 2.5v2.275M118 4.775a.5.5 0 0 0 .5.5M129.5 5.275a.5.5 0 0 0 .5-.5" transform="scale(20)"/><g style="fill:#000;fill-opacity:1"><use xlink:href="#o" x="2403.828" y="84.648"/><use xlink:href="#u" x="2429.219" y="84.648"/><use xlink:href="#a" x="2454.609" y="84.648"/><use xlink:href="#k" x="2480" y="84.648"/><use xlink:href="#e" x="2505.391" y="84.648"/><use xlink:href="#f" x="2530.781" y="84.648"/></g><path style="stroke:none;fill-rule:evenodd;fill:#e9a4de;fill-opacity:1" d="M2370 200h220v120h-220ZM2370 210v-10c-5.523 0-10 4.477-10 10h10ZM2590 210h10c0-5.523-4.477-10-10-10v10Zm0 0"/><path style="stroke:none;fill-rule:evenodd;fill:#e9a4de;fill-opacity:1" d="M2360 210h240v100h-240ZM2370 310h-10c0 5.523 4.477 10 10 10v-10ZM2590 310v10c5.523 0 10-4.477 10-10h-10Zm0 0"/><path style="fill:none;stroke-width:.1;stroke-linecap:butt;stroke-linejoin:miter;stroke:#000;stroke-opacity:1;stroke-miterlimit:10" d="M118.5 10h11M118.5 16h11M118.5 10a.5.5 0 0 0-.5.5M130 10.5a.5.5 0 0 0-.5-.5M118 10.5v5M130 10.5v5M118 15.5a.5.5 0 0 0 .5.5M129.5 16a.5.5 0 0 0 .5-.5" transform="scale(20)"/><g style="fill:#000;fill-opacity:1"><use xlink:href="#v" x="2437.676" y="273.223"/><use xlink:href="#w" x="2465.898" y="273.223"/><use xlink:href="#w" x="2494.121" y="273.223"/></g><path style="stroke:none;fill-rule:evenodd;fill:#e9a4de;fill-opacity:1" d="M2690 200h220v120h-220ZM2690 210v-10c-5.523 0-10 4.477-10 10h10ZM2910 210h10c0-5.523-4.477-10-10-10v10Zm0 0"/><path style="stroke:none;fill-rule:evenodd;fill:#e9a4de;fill-opacity:1" d="M2680 210h240v100h-240ZM2690 310h-10c0 5.523 4.477 10 10 10v-10ZM2910 310v10c5.523 0 10-4.477 10-10h-10Zm0 0"/><path style="fill:none;stroke-width:.1;stroke-linecap:butt;stroke-linejoin:miter;stroke:#000;stroke-opacity:1;stroke-dasharray:1,1;stroke-miterlimit:10" d="M134.5 10h11M134.5 16h11M134.5 10a.5.5 0 0 0-.5.5M146 10.5a.5.5 0 0 0-.5-.5M134 10.5v5M146 10.5v5M134 15.5a.5.5 0 0 0 .5.5M145.5 16a.5.5 0 0 0 .5-.5" transform="scale(20)"/><g style="fill:#000;fill-opacity:1"><use xlink:href="#v" x="2771.777" y="273.223"/><use xlink:href="#w" x="2800" y="273.223"/></g><path style="fill:none;stroke-width:.35;stroke-linecap:butt;stroke-linejoin:miter;stroke:#000;stroke-opacity:1;stroke-miterlimit:10" d="m140 16-9.402 7.521" transform="scale(20)"/><path style="fill-rule:evenodd;fill:#000;fill-opacity:1;stroke-width:.35;stroke-linecap:butt;stroke-linejoin:miter;stroke:#000;stroke-opacity:1;stroke-miterlimit:10" d="m130.305 23.755.235-.507.058.273.254.117-.547.117Zm0 0" transform="scale(20)"/><path style="stroke:none;fill-rule:evenodd;fill:#a9e5a1;fill-opacity:1" d="M2210 120h535v65.5h-535ZM2210 130v-10c-5.523 0-10 4.477-10 10h10ZM2745 130h10c0-5.523-4.477-10-10-10v10Zm0 0"/><path style="stroke:none;fill-rule:evenodd;fill:#a9e5a1;fill-opacity:1" d="M2200 130h555v45.5h-555ZM2210 175.5h-10c0 5.523 4.477 10 10 10v-10ZM2745 175.5v10c5.523 0 10-4.477 10-10h-10Zm0 0"/><path style="fill:none;stroke-width:.1;stroke-linecap:butt;stroke-linejoin:miter;stroke:#000;stroke-opacity:1;stroke-miterlimit:10" d="M110.5 6h26.75M110.5 9.275h26.75M110.5 6a.5.5 0 0 0-.5.5M137.75 6.5a.5.5 0 0 0-.5-.5M110 6.5v2.275M137.75 6.5v2.275M110 8.775a.5.5 0 0 0 .5.5M137.25 9.275a.5.5 0 0 0 .5-.5" transform="scale(20)"/><g style="fill:#000;fill-opacity:1"><use xlink:href="#f" x="2223.594" y="164.648"/><use xlink:href="#e" x="2248.984" y="164.648"/><use xlink:href="#o" x="2274.375" y="164.648"/><use xlink:href="#h" x="2299.766" y="164.648"/><use xlink:href="#k" x="2325.156" y="164.648"/><use xlink:href="#e" x="2350.547" y="164.648"/><use xlink:href="#a" x="2375.938" y="164.648"/><use xlink:href="#s" x="2401.328" y="164.648"/><use xlink:href="#h" x="2426.719" y="164.648"/><use xlink:href="#f" x="2452.109" y="164.648"/><use xlink:href="#g" x="2477.5" y="164.648"/><use xlink:href="#j" x="2502.891" y="164.648"/><use xlink:href="#g" x="2528.281" y="164.648"/><use xlink:href="#i" x="2553.672" y="164.648"/><use xlink:href="#s" x="2579.063" y="164.648"/><use xlink:href="#k" x="2604.453" y="164.648"/><use xlink:href="#f" x="2629.844" y="164.648"/><use xlink:href="#b" x="2655.234" y="164.648"/><use xlink:href="#i" x="2680.625" y="164.648"/><use xlink:href="#t" x="2706.016" y="164.648"/></g></svg>