<?xml version="1.0" encoding="UTF-8" standalone="no"?>
<!DOCTYPE svg PUBLIC "-//W3C//DTD SVG 1.0//EN" "http://www.w3.org/TR/2001/PR-SVG-20010719/DTD/svg10.dtd">
<svg width="17cm" height="7cm" viewBox="128 -2 323 122" xmlns="http://www.w3.org/2000/svg" xmlns:xlink="http://www.w3.org/1999/xlink">
  <g>
    <rect style="fill: #ffffff" x="240" y="0" width="100" height="119.827" rx="6" ry="6"/>
    <rect style="fill: none; fill-opacity:0; stroke-width: 2; stroke-linejoin: round; stroke: #000000" x="240" y="0" width="100" height="119.827" rx="6" ry="6"/>
  </g>
  <text font-size="12.8" style="fill: #000000;text-anchor:start;font-family:sans-serif;font-style:normal;font-weight:700" x="244" y="20">
    <tspan x="244" y="20">tag</tspan>
  </text>
  <line style="fill: none; fill-opacity:0; stroke-width: 2; stroke-linejoin: round; stroke: #000000" x1="240" y1="28" x2="340" y2="28"/>
  <line style="fill: none; fill-opacity:0; stroke-width: 2; stroke-linejoin: round; stroke: #000000" x1="300" y1="28" x2="300" y2="0"/>
  <line style="fill: none; fill-opacity:0; stroke-width: 2; stroke-linejoin: round; stroke: #000000" x1="240" y1="48" x2="340" y2="48"/>
  <text font-size="12.2372" style="fill: #000000;text-anchor:start;font-family:sans-serif;font-style:normal;font-weight:normal" x="244" y="44">
    <tspan x="244" y="44">b39273b...</tspan>
  </text>
  <line style="fill: none; fill-opacity:0; stroke-width: 1; stroke-linejoin: round; stroke: #000000" x1="240" y1="60" x2="340" y2="60"/>
  <line style="fill: none; fill-opacity:0; stroke-width: 1; stroke-linejoin: round; stroke: #000000" x1="240" y1="72" x2="340" y2="72"/>
  <line style="fill: none; fill-opacity:0; stroke-width: 1; stroke-linejoin: round; stroke: #000000" x1="240" y1="84" x2="340" y2="84"/>
  <line style="fill: none; fill-opacity:0; stroke-width: 1; stroke-linejoin: round; stroke: #000000" x1="240" y1="96" x2="340" y2="96"/>
  <line style="fill: none; fill-opacity:0; stroke-width: 1; stroke-linejoin: round; stroke: #000000" x1="280" y1="96" x2="280" y2="48"/>
  <text font-size="6.63787" style="fill: #000000;text-anchor:start;font-family:monospace;font-style:normal;font-weight:normal" x="244" y="56">
    <tspan x="244" y="56">name</tspan>
  </text>
  <text font-size="6.63787" style="fill: #000000;text-anchor:start;font-family:monospace;font-style:normal;font-weight:normal" x="244" y="68">
    <tspan x="244" y="68">object</tspan>
  </text>
  <text font-size="6.63787" style="fill: #000000;text-anchor:start;font-family:monospace;font-style:normal;font-weight:normal" x="244" y="80">
    <tspan x="244" y="80">type</tspan>
  </text>
  <text font-size="6.63787" style="fill: #000000;text-anchor:start;font-family:monospace;font-style:normal;font-weight:normal" x="244" y="92">
    <tspan x="244" y="92">tagger</tspan>
  </text>
  <text font-size="6.63787" style="fill: #000000;text-anchor:start;font-family:monospace;font-style:normal;font-weight:normal" x="244" y="108">
    <tspan x="244" y="108">Erste Veröffentlichung</tspan>
  </text>
  <text font-size="6.63787" style="fill: #000000;text-anchor:start;font-family:monospace;font-style:normal;font-weight:normal" x="284" y="56">
    <tspan x="284" y="56">0.1</tspan>
  </text>
  <text font-size="6.63787" style="fill: #000000;text-anchor:start;font-family:monospace;font-style:normal;font-weight:normal" x="284" y="68">
    <tspan x="284" y="68">e2c67eb...</tspan>
    <tspan x="284" y="76.2973"></tspan>
  </text>
  <text font-size="6.63787" style="fill: #000000;text-anchor:start;font-family:monospace;font-style:normal;font-weight:normal" x="284" y="80">
    <tspan x="284" y="80">commit</tspan>
  </text>
  <text font-size="6.63787" style="fill: #000000;text-anchor:start;font-family:monospace;font-style:normal;font-weight:normal" x="284" y="92">
    <tspan x="284" y="92">Valentin</tspan>
  </text>
  <text font-size="12.8" style="fill: #000000;text-anchor:start;font-family:sans-serif;font-style:normal;font-weight:normal" x="310" y="20">
    <tspan x="310" y="20">158</tspan>
  </text>
  <g>
    <rect style="fill: #ffffff" x="350" y="0" width="100" height="119.827" rx="6" ry="6"/>
    <rect style="fill: none; fill-opacity:0; stroke-width: 2; stroke-linejoin: round; stroke: #ffffff" x="350" y="0" width="100" height="119.827" rx="6" ry="6"/>
  </g>
  <g>
    <rect style="fill: #ffffff" x="130" y="0" width="100" height="119.827" rx="6" ry="6"/>
    <rect style="fill: none; fill-opacity:0; stroke-width: 2; stroke-linejoin: round; stroke: #ffffff" x="130" y="0" width="100" height="119.827" rx="6" ry="6"/>
  </g>
</svg>
