<svg xmlns="http://www.w3.org/2000/svg" xmlns:xlink="http://www.w3.org/1999/xlink" width="356pt" height="136pt" viewBox="0 0 356 136"><defs><symbol overflow="visible" id="a"><path style="stroke:none" d="M4.172-1.473c.351.004.773-.074 1.266-.234v1.504C4.938.02 4.32.129 3.59.133 2.78.129 2.195-.07 1.828-.477c-.367-.406-.55-1.02-.55-1.835v-3.563H.311v-.852l1.11-.675.582-1.559h1.289v1.57h2.066v1.516H3.293v3.563c0 .289.078.5.238.636.16.137.375.207.64.203zm0 0"/></symbol><symbol overflow="visible" id="b"><path style="stroke:none" d="m5.75 0-.39-1.004h-.051c-.344.43-.696.727-1.051.89-.36.165-.828.243-1.403.247-.71-.004-1.27-.203-1.675-.606-.41-.402-.614-.98-.61-1.734-.004-.781.27-1.36.82-1.734.548-.372 1.376-.579 2.481-.618l1.285-.043v-.32c0-.75-.386-1.125-1.152-1.125-.594 0-1.285.18-2.082.535l-.668-1.363c.851-.438 1.793-.66 2.832-.664.984.004 1.746.219 2.277.648.528.43.79 1.086.793 1.97V0zm-.594-3.422-.781.024c-.59.02-1.027.128-1.309.32-.289.195-.43.488-.43.883 0 .574.325.86.977.855.465.004.84-.129 1.121-.402.282-.266.422-.625.422-1.074zm0 0"/></symbol><symbol overflow="visible" id="c"><path style="stroke:none" d="M7.488-7.39v1.027l-1.156.297c.207.336.313.703.316 1.109-.003.797-.28 1.418-.832 1.855-.554.446-1.32.664-2.3.664l-.364-.019-.297-.035c-.21.164-.312.34-.312.531 0 .293.371.438 1.113.434H4.91c.809.004 1.426.18 1.852.523.426.352.636.86.64 1.531-.004.864-.363 1.532-1.082 2.008-.722.473-1.758.711-3.101.715-1.035-.004-1.82-.184-2.364-.54C.31 2.353.035 1.849.04 1.204.035.753.172.383.453.086c.274-.3.684-.512 1.227-.64-.211-.087-.39-.231-.543-.434a.985.985 0 0 1-.23-.637 1.021 1.021 0 0 1 .241-.703c.165-.184.399-.371.707-.555a1.938 1.938 0 0 1-.921-.804c-.23-.368-.344-.805-.34-1.31-.004-.804.258-1.429.785-1.87.523-.438 1.273-.656 2.25-.66.203.004.45.023.734.058l.547.078zM1.785 1.042c-.004.277.13.496.399.656.265.156.64.235 1.12.238.72-.003 1.282-.105 1.696-.3.406-.203.613-.473.617-.813C5.613.547 5.492.355 5.254.25 5.008.145 4.633.094 4.129.094H3.086c-.371 0-.68.086-.93.258-.25.171-.375.402-.37.691zm.735-6.012c0 .403.09.723.273.953.18.235.457.348.836.348.375 0 .652-.113.832-.348.172-.23.262-.55.266-.953-.004-.89-.372-1.336-1.098-1.336-.742 0-1.11.446-1.11 1.336zm0 0"/></symbol><symbol overflow="visible" id="d"><path style="stroke:none" d="M3.965-6.438c.832.004 1.476.29 1.937.852.457.57.688 1.375.692 2.414-.004 1.043-.235 1.852-.696 2.426-.464.578-1.109.863-1.933.863-.414 0-.79-.074-1.13-.226a2.06 2.06 0 0 1-.858-.707h-.07L1.702 0h-.687v-8.992h.96v2.183a21.1 21.1 0 0 1-.046 1.317h.047c.445-.625 1.109-.942 1.988-.946zm-.14.801c-.657 0-1.13.192-1.415.567-.293.379-.437 1.011-.433 1.898-.004.895.144 1.531.445 1.91.293.387.77.578 1.426.575.59.003 1.03-.211 1.32-.645.289-.426.434-1.043.434-1.852 0-.82-.145-1.437-.434-1.843-.29-.407-.738-.61-1.344-.61zm0 0"/></symbol><symbol overflow="visible" id="e"><path style="stroke:none" d="M5.813-6.46c0 .542-.153.983-.454 1.323-.304.344-.734.574-1.285.688v.047c.672.086 1.176.3 1.508.644.324.352.488.805.492 1.363-.004.81-.285 1.43-.84 1.864-.562.433-1.355.648-2.379.648-.453 0-.863-.035-1.23-.101A3.997 3.997 0 0 1 .543-.34v-.914c.363.18.754.32 1.172.414.41.098.8.145 1.176.14 1.453.005 2.183-.57 2.187-1.714-.004-1.023-.808-1.535-2.414-1.54h-.832v-.827h.844c.656 0 1.18-.145 1.566-.434.383-.289.574-.691.578-1.21-.004-.41-.144-.735-.425-.973-.286-.23-.672-.348-1.153-.352a3.744 3.744 0 0 0-1.047.152c-.332.102-.707.285-1.12.551L.59-7.69c.344-.27.742-.485 1.2-.645.448-.152.925-.23 1.429-.234.816.004 1.453.191 1.91.562.453.38.684.895.684 1.547zm0 0"/></symbol><symbol overflow="visible" id="f"><path style="stroke:none" d="M6.133-4.844C6.129-1.535 4.848.117 2.293.117c-.45 0-.8-.039-1.063-.117v-.828c.305.105.653.156 1.051.152.922.004 1.621-.285 2.094-.86.473-.57.73-1.444.773-2.632h-.07a2.072 2.072 0 0 1-.844.734 2.656 2.656 0 0 1-1.183.25c-.75.004-1.344-.218-1.781-.668-.442-.445-.66-1.07-.657-1.875-.004-.875.242-1.57.735-2.082.492-.503 1.136-.757 1.941-.761.57.004 1.074.152 1.504.441.43.297.758.727.992 1.29.227.57.344 1.234.348 1.995zM3.289-7.75c-.555.004-.98.18-1.281.531-.301.356-.45.852-.45 1.48 0 .56.137.993.419 1.31.273.32.695.48 1.265.476.348.004.672-.067.969-.211.293-.14.523-.336.695-.586.164-.246.25-.504.254-.773a2.746 2.746 0 0 0-.238-1.122 1.94 1.94 0 0 0-.66-.808 1.731 1.731 0 0 0-.973-.297zm0 0"/></symbol><symbol overflow="visible" id="g"><path style="stroke:none" d="M6.133 0H.578v-.828l2.227-2.235c.675-.683 1.12-1.171 1.34-1.464.21-.293.375-.578.484-.856a2.6 2.6 0 0 0 .16-.898c-.004-.45-.14-.805-.41-1.07-.277-.262-.656-.395-1.137-.399a3.005 3.005 0 0 0-1 .176c-.316.117-.664.328-1.047.629l-.508-.657c.774-.64 1.622-.964 2.543-.968.79.004 1.415.207 1.868.61.449.41.672.956.675 1.636A3.209 3.209 0 0 1 5.32-4.73c-.3.527-.863 1.187-1.683 1.984L1.785-.938v.047h4.348zm0 0"/></symbol><symbol overflow="visible" id="h"><path style="stroke:none" d="m1.648 0 3.5-7.566H.543v-.883h5.625v.77L2.711 0zm0 0"/></symbol><symbol overflow="visible" id="i"><path style="stroke:none" d="M.879-.613c0-.254.058-.45.176-.586.117-.13.285-.196.504-.2.222.004.394.07.523.2.121.137.184.332.188.586-.004.254-.067.445-.192.578-.129.133-.3.2-.52.203a.722.722 0 0 1-.488-.18C.941-.132.88-.332.88-.613zm0 0"/></symbol><symbol overflow="visible" id="j"><path style="stroke:none" d="m1.484-4.57.614-.102c0 .05-.008.094-.02.129a.5.5 0 0 0-.027.086l-.094.852h1.184v.457H1.957c-.047.476-.07.918-.07 1.324 0 .258.004.472.015.644.008.18.036.317.082.414.043.102.106.18.192.235.082.058.199.086.344.082.242.004.511-.106.808-.332l.176.449c-.363.27-.738.402-1.121.402-.38 0-.656-.113-.828-.343-.18-.227-.258-.598-.239-1.118-.004-.187 0-.43.016-.726.008-.293.031-.637.066-1.031H.551v-.457h.87zm0 0"/></symbol><symbol overflow="visible" id="k"><path style="stroke:none" d="m.465-3.352-.102-.253h.688a.507.507 0 0 1-.016.105.231.231 0 0 0-.015.082c0 .023.003.04.015.047L2.105-.72l.688-1.933c.066-.18.121-.352.164-.516a7.67 7.67 0 0 0 .106-.437h.59a8.18 8.18 0 0 0-.153.464c-.059.176-.125.371-.203.579L2.32.015 2.172.41c-.129.352-.293.598-.488.742a1.13 1.13 0 0 1-.68.22c-.348 0-.625-.102-.832-.306l.3-.507c.012.015.024.043.04.078a.363.363 0 0 0 .023.07l.031.035a.64.64 0 0 0 .215.14.45.45 0 0 0 .172.032c.152 0 .29-.05.406-.144.118-.098.235-.27.352-.516l.113-.27zm0 0"/></symbol><symbol overflow="visible" id="l"><path style="stroke:none" d="M.473-3.605h.562v.55c.117-.187.278-.34.485-.457.203-.11.41-.168.617-.172.199.004.39.043.574.114.184.078.344.191.484.343.137.153.25.344.332.575.082.234.121.507.125.82-.004.32-.047.602-.132.84-.09.242-.204.441-.344.601a1.389 1.389 0 0 1-1.047.485 1.28 1.28 0 0 1-.621-.149 1.172 1.172 0 0 1-.465-.418v1.79h-.57zm.562 2.097c.008.39.098.668.27.832a.825.825 0 0 0 .629.25 1.07 1.07 0 0 0 .394-.062.986.986 0 0 0 .367-.215c.11-.102.196-.235.266-.406.062-.164.098-.375.102-.63-.004-.456-.102-.812-.293-1.066-.196-.254-.465-.386-.813-.398-.11.004-.219.023-.328.055a.798.798 0 0 0-.297.187.91.91 0 0 0-.215.36 1.436 1.436 0 0 0-.082.55zm0 0"/></symbol><symbol overflow="visible" id="m"><path style="stroke:none" d="M2.043-3.691c.187 0 .371.035.55.101.177.07.333.176.47.313.132.14.242.316.324.53.082.22.12.474.125.767-.004.042-.004.085-.004.128l-.012.133H.93c.007.258.05.469.129.637.074.172.171.309.289.414.117.106.246.18.386.223.141.047.282.07.426.066.371.004.684-.129.934-.402l.316.308c-.308.368-.73.547-1.265.551a2.108 2.108 0 0 1-.723-.121 1.407 1.407 0 0 1-.555-.36 1.573 1.573 0 0 1-.355-.585c-.086-.23-.125-.5-.125-.805 0-.305.043-.574.129-.812C.602-2.84.719-3.04.87-3.2c.149-.16.324-.281.524-.367.199-.082.414-.125.648-.125zM.953-2.18h1.98a.09.09 0 0 1 .005-.054c0-.016.003-.04.003-.067a.998.998 0 0 0-.074-.37 1.1 1.1 0 0 0-.203-.302 1.203 1.203 0 0 0-.293-.207.884.884 0 0 0-.367-.078c-.25 0-.477.09-.672.262-.203.176-.328.445-.379.816zm0 0"/></symbol><symbol overflow="visible" id="n"><path style="stroke:none" d="M.535 0v-3.605h.57v.636c.137-.215.313-.39.528-.523a1.215 1.215 0 0 1 1.101-.117.898.898 0 0 1 .356.265c.098.121.176.278.234.465.055.192.086.422.086.692V0h-.57v-2.172c-.004-.375-.07-.64-.195-.793a.62.62 0 0 0-.47-.23c-.124.004-.25.027-.374.078a1.19 1.19 0 0 0-.598.578.966.966 0 0 0-.098.465V0zm0 0"/></symbol><symbol overflow="visible" id="o"><path style="stroke:none" d="M.719-3.18c.316-.332.746-.5 1.285-.504.441.004.789.118 1.047.336.254.227.383.598.383 1.114V0h-.54v-.395c-.382.32-.816.477-1.292.48A1.558 1.558 0 0 1 1.09 0a1.13 1.13 0 0 1-.383-.227.955.955 0 0 1-.32-.687c0-.363.156-.648.468-.86.313-.206.762-.324 1.356-.347h.676v-.137c-.004-.355-.078-.61-.227-.754-.148-.14-.383-.21-.695-.215a1.3 1.3 0 0 0-.969.41zM2.91-1.687h-.133c-.074 0-.144 0-.21-.004-.067 0-.133 0-.192-.004a4.182 4.182 0 0 0-.71.058 1.439 1.439 0 0 0-.435.164.579.579 0 0 0-.218.23.57.57 0 0 0-.059.282c-.004.168.07.313.223.434a.793.793 0 0 0 .543.18c.156.003.3-.024.426-.075a1.288 1.288 0 0 0 .562-.402c.055-.074.094-.14.125-.203.047-.102.074-.246.078-.426zm0 0"/></symbol><symbol overflow="visible" id="p"><path style="stroke:none" d="M.3 0v-3.605h.52v.355c.082-.129.188-.234.32-.32a.803.803 0 0 1 .423-.121c.152 0 .289.05.406.148a.692.692 0 0 1 .226.379A.866.866 0 0 1 3-3.691c.246 0 .426.09.543.265.113.176.164.395.156.656V0h-.52v-2.555a4.078 4.078 0 0 0-.023-.386.74.74 0 0 0-.078-.22.3.3 0 0 0-.113-.093 1.11 1.11 0 0 0-.14-.02.375.375 0 0 0-.208.083 1.012 1.012 0 0 0-.305.5.886.886 0 0 0-.046.308V0h-.532v-2.508c0-.3-.027-.5-.082-.601-.054-.098-.152-.149-.289-.149-.129 0-.25.078-.367.227-.117.152-.176.36-.176.625V0zm0 0"/></symbol><symbol overflow="visible" id="q"><path style="stroke:none" d="M2.004-3.684c.219.004.426.047.625.13.195.09.367.214.52.374.144.168.261.368.351.598.082.234.125.496.129.781-.004.301-.043.563-.125.793a1.89 1.89 0 0 1-.348.594 1.536 1.536 0 0 1-1.16.508c-.234 0-.453-.047-.652-.14a1.63 1.63 0 0 1-.532-.392 1.705 1.705 0 0 1-.363-.597c-.09-.23-.133-.48-.133-.75 0-.266.043-.516.137-.754.09-.234.215-.438.371-.606.153-.164.332-.296.54-.394a1.58 1.58 0 0 1 .64-.145zm1.058 1.899a2.045 2.045 0 0 0-.093-.602 1.609 1.609 0 0 0-.239-.445 1.208 1.208 0 0 0-.343-.277 1.063 1.063 0 0 0-.407-.094 1.015 1.015 0 0 0-.406.094c-.129.066-.242.16-.34.277A1.51 1.51 0 0 0 1-2.395a1.814 1.814 0 0 0-.086.579c0 .21.027.406.086.578.059.18.137.328.234.449.098.129.211.227.344.293a.8.8 0 0 0 .418.101.9.9 0 0 0 .414-.09c.125-.058.238-.148.34-.265.094-.117.172-.262.227-.441a2.09 2.09 0 0 0 .086-.594zm0 0"/></symbol><symbol overflow="visible" id="r"><path style="stroke:none" d="M.473-5.246h.656v.016a.133.133 0 0 1-.043.074.097.097 0 0 0-.043.082v2.02c.113-.188.27-.344.469-.462.195-.117.394-.175.605-.175.196 0 .387.039.57.113.176.078.333.195.473.348.133.156.242.347.324.578.079.234.118.504.121.812a2.616 2.616 0 0 1-.132.852c-.09.238-.203.437-.344.597-.14.164-.3.286-.48.36-.18.078-.368.113-.555.117a1.301 1.301 0 0 1-.61-.148 1.216 1.216 0 0 1-.457-.41L.832 0h-.36zm.984 4.68a.91.91 0 0 0 .27.105.92.92 0 0 0 .226.027c.102 0 .219-.02.352-.058A.909.909 0 0 0 2.656-.7c.106-.098.2-.235.274-.403.07-.164.105-.375.11-.636-.005-.473-.103-.836-.298-1.086-.199-.25-.484-.375-.855-.38a.87.87 0 0 0-.422.142.89.89 0 0 0-.328.374c-.063.16-.094.418-.094.77 0 .227.004.41.016.559.007.152.027.28.062.379.027.105.07.187.125.25.05.066.121.12.211.164zm0 0"/></symbol><symbol overflow="visible" id="s"><path style="stroke:none" d="M.996-3.605H2.91v3.433c-.004.274-.039.5-.11.695a1.318 1.318 0 0 1-.304.47c-.129.116-.281.21-.453.273a2.177 2.177 0 0 1-.559.105c-.468 0-.836-.168-1.105-.504L.75.38c.023.023.035.05.043.078 0 .023.012.05.027.086a.423.423 0 0 0 .094.11c.047.034.125.085.238.144a.911.911 0 0 0 .375.086.817.817 0 0 0 .586-.242c.153-.164.23-.422.23-.786v-3.003H.997zm1.34-1.454a.416.416 0 0 1 .293-.117.45.45 0 0 1 .285.117c.078.082.121.18.125.293a.409.409 0 0 1-.125.286.38.38 0 0 1-.285.117.367.367 0 0 1-.29-.117.35.35 0 0 1-.12-.286.38.38 0 0 1 .117-.293zm0 0"/></symbol><symbol overflow="visible" id="t"><path style="stroke:none" d="m3.605-3.008-.402.469c-.027-.012-.039-.031-.035-.05 0-.02-.004-.044-.008-.079a.922.922 0 0 0-.062-.117 1.972 1.972 0 0 0-.188-.192c-.183-.144-.43-.214-.738-.218a1.19 1.19 0 0 0-.442.093 1.118 1.118 0 0 0-.37.274 1.26 1.26 0 0 0-.255.426 1.384 1.384 0 0 0-.093.55c-.004.207.027.399.093.57.06.177.145.325.262.45a1.18 1.18 0 0 0 .906.398c.364 0 .676-.144.946-.433l.332.387c-.36.375-.801.562-1.317.566a1.837 1.837 0 0 1-.714-.14A1.575 1.575 0 0 1 .95-.45a1.805 1.805 0 0 1-.376-.598A1.948 1.948 0 0 1 .441-1.8a1.962 1.962 0 0 1 .133-.746c.09-.23.215-.43.375-.598.16-.164.352-.292.578-.39a2.01 2.01 0 0 1 .73-.14c.282.003.544.062.778.179.235.121.422.285.57.488zm0 0"/></symbol><symbol overflow="visible" id="u"><path style="stroke:none" d="M3.047-4.293c.148.207.27.477.363.805.094.336.14.707.14 1.113 0 .422-.046.781-.14 1.086a2.562 2.562 0 0 1-.363.77c-.149.207-.32.359-.508.457a1.308 1.308 0 0 1-.574.148 1.13 1.13 0 0 1-.586-.18 1.688 1.688 0 0 1-.504-.508 2.58 2.58 0 0 1-.352-.789 3.497 3.497 0 0 1-.128-1.023 3.56 3.56 0 0 1 .128-1.027c.086-.305.204-.575.352-.801.145-.223.313-.395.504-.52.187-.12.383-.183.586-.187.406.004.77.222 1.082.656zm-.293.465a1.432 1.432 0 0 0-.363-.477.685.685 0 0 0-.418-.16.64.64 0 0 0-.391.14 1.273 1.273 0 0 0-.344.395c-.101.168-.18.371-.242.614a3.008 3.008 0 0 0-.09.793c-.004.324.035.632.114.925zm.18.523L1.199-1.102c.125.235.258.407.399.512a.67.67 0 0 0 .414.156c.14 0 .273-.043.398-.129.121-.085.23-.21.324-.375.09-.16.164-.355.22-.59.054-.23.081-.495.085-.792-.004-.18-.012-.352-.023-.516a4.176 4.176 0 0 0-.082-.469zm0 0"/></symbol><symbol overflow="visible" id="v"><path style="stroke:none" d="M2.21-.688c.09.102.138.208.142.325a.441.441 0 0 1-.141.316.495.495 0 0 1-.332.133.463.463 0 0 1-.332-.129.403.403 0 0 1-.133-.32.4.4 0 0 1 .14-.32c.09-.09.2-.137.325-.137.117 0 .226.047.332.132zm0 0"/></symbol><symbol overflow="visible" id="w"><path style="stroke:none" d="M2.36-4.922V0h-.544v-4.238l-.996.293-.125-.309 1.285-.668zm0 0"/></symbol><symbol overflow="visible" id="x"><path style="stroke:none" d="M.617-4.152c.137-.246.332-.442.578-.586.242-.137.504-.207.793-.211.192.004.375.039.551.11.172.07.324.171.457.296.129.129.234.273.309.441.074.168.11.348.113.536-.004.156-.027.3-.07.437-.047.137-.106.27-.176.39a2.905 2.905 0 0 1-.258.352c-.102.117-.2.219-.3.313l-.477.441a6.18 6.18 0 0 0-.227.227c-.086.086-.172.18-.25.281-.086.102-.164.207-.242.313a2.814 2.814 0 0 0-.203.332h2.058c.024 0 .051-.012.082-.036a.128.128 0 0 1 .086-.035h.024V0H.575v-.348a5.858 5.858 0 0 1 1.288-1.695l.38-.348c.128-.12.234-.23.316-.336.082-.097.148-.195.195-.293.047-.093.078-.187.094-.273.015-.086.023-.172.023-.266a.846.846 0 0 0-.07-.332.94.94 0 0 0-.203-.293 1.248 1.248 0 0 0-.293-.207.837.837 0 0 0-.332-.074c-.141 0-.262.02-.368.059-.109.039-.207.086-.285.14a.65.65 0 0 0-.191.176c-.05.063-.078.117-.078.16-.016.051-.024.082-.031.094zm0 0"/></symbol><symbol overflow="visible" id="y"><path style="stroke:none" d="M2.266-4.973c.406.004.765.157 1.078.453l-.383.418a.252.252 0 0 1-.098-.14.194.194 0 0 0-.11-.106.775.775 0 0 0-.241-.105 1.75 1.75 0 0 0-.23-.027c-.11.003-.231.027-.372.074a.94.94 0 0 0-.39.281c-.125.137-.227.332-.31.578-.089.254-.136.574-.136.965a1.15 1.15 0 0 1 .446-.43c.183-.105.382-.156.593-.16.184.004.356.043.52.117.16.078.304.188.43.328.12.145.218.313.292.508.07.2.106.418.11.656-.004.247-.04.47-.113.668a1.65 1.65 0 0 1-.301.52 1.268 1.268 0 0 1-.446.336 1.374 1.374 0 0 1-.546.117 1.36 1.36 0 0 1-.657-.16 1.376 1.376 0 0 1-.476-.461 2.27 2.27 0 0 1-.297-.73 4.031 4.031 0 0 1-.102-.97c0-.437.04-.827.121-1.167.082-.34.2-.625.352-.86a1.56 1.56 0 0 1 .55-.523c.212-.117.45-.176.716-.18zm-1.16 2.946a.255.255 0 0 0-.008.093.376.376 0 0 0 0 .094c-.004.207.023.399.074.57.047.176.113.325.207.45.086.125.191.226.316.3.117.075.246.11.387.11.223 0 .422-.098.59-.293.168-.195.25-.477.254-.852a1.658 1.658 0 0 0-.078-.511 1.26 1.26 0 0 0-.203-.352.939.939 0 0 0-.274-.203.903.903 0 0 0-.305-.07.916.916 0 0 0-.543.195 1.45 1.45 0 0 0-.418.469zm0 0"/></symbol><symbol overflow="visible" id="z"><path style="stroke:none" d="M3.41-4.61a41.147 41.147 0 0 0-.93 2.282C2.191-1.563 1.93-.79 1.688 0h-.622c.25-.75.512-1.488.79-2.215.269-.726.558-1.453.867-2.18H.625v-.52H3.41zm0 0"/></symbol><symbol overflow="visible" id="A"><path style="stroke:none" d="M.836-3.605H2.28v3.148h.844V0H.789v-.457h.922v-2.691H.836zm.883-1.454a.426.426 0 0 1 .285-.117.423.423 0 0 1 .41.41.39.39 0 0 1-.121.286.383.383 0 0 1-.29.117.364.364 0 0 1-.284-.117.359.359 0 0 1-.117-.286.38.38 0 0 1 .117-.293zm0 0"/></symbol><symbol overflow="visible" id="B"><path style="stroke:none" d="M.465-4.922H3.48v.488H.984v1.618h2.063v.52H.984v1.808h2.473V0H.465zm0 0"/></symbol><symbol overflow="visible" id="C"><path style="stroke:none" d="M.781-3.605h.582l-.015.695c.109-.25.285-.442.527-.578.238-.133.496-.203.773-.203.391 0 .711.132.965.394l-.261.543c-.059-.078-.114-.14-.157-.195a1.263 1.263 0 0 0-.156-.137 1.119 1.119 0 0 0-.184-.086 1.358 1.358 0 0 0-.238-.031c-.176.004-.34.043-.492.121a1.35 1.35 0 0 0-.402.324 1.676 1.676 0 0 0-.274.465 1.44 1.44 0 0 0-.101.543V.008H.78zm0 0"/></symbol><symbol overflow="visible" id="D"><path style="stroke:none" d="m3.41-3.125-.332.496c-.031-.004-.043-.023-.039-.062a.343.343 0 0 0-.016-.079 1.595 1.595 0 0 0-.41-.332 1.171 1.171 0 0 0-.593-.156c-.106 0-.204.012-.293.035a1.01 1.01 0 0 0-.247.098.535.535 0 0 0-.171.164.359.359 0 0 0-.063.223.26.26 0 0 0 .047.172c.031.05.082.101.152.144.067.05.164.098.29.14.124.052.285.102.488.16.453.122.777.267.965.43a.806.806 0 0 1 .285.61c-.004.16-.04.312-.106.453-.07.145-.172.266-.3.371-.133.106-.29.188-.473.246-.184.059-.39.086-.621.09C1.367.074.859-.109.449-.488l.324-.57c.016.019.024.046.032.078 0 .039.02.078.054.125.032.05.09.109.176.167.082.063.211.13.39.204.075.043.165.07.27.082.098.02.2.027.301.023.106.004.215-.008.324-.039a.974.974 0 0 0 .293-.113.746.746 0 0 0 .211-.184.426.426 0 0 0 .078-.242.449.449 0 0 0-.191-.348c-.129-.093-.36-.191-.695-.297a4.185 4.185 0 0 1-.465-.144 2.013 2.013 0 0 1-.414-.192 1.02 1.02 0 0 1-.23-.199.806.806 0 0 1-.165-.258.8.8 0 0 1-.062-.324c0-.125.03-.246.101-.363a.924.924 0 0 1 .285-.309c.125-.09.27-.164.442-.218.168-.055.355-.082.558-.082.551 0 1 .191 1.344.566zm0 0"/></symbol><symbol overflow="visible" id="F"><path style="stroke:none" d="M.203-4.922H.77l1.27 3.777 1.19-3.77h.547L2.125.032h-.25zm0 0"/></symbol><symbol overflow="visible" id="G"><path style="stroke:none" d="M2.004-3.684c.219.004.426.047.625.13.195.09.367.214.52.374.144.168.261.368.351.598.082.234.125.496.129.781-.004.301-.043.563-.125.793a1.89 1.89 0 0 1-.348.594 1.536 1.536 0 0 1-1.16.508c-.234 0-.453-.047-.652-.14a1.63 1.63 0 0 1-.532-.392 1.705 1.705 0 0 1-.363-.597c-.09-.23-.133-.48-.133-.75 0-.266.043-.516.137-.754.09-.234.215-.438.371-.606.153-.164.332-.296.54-.394a1.58 1.58 0 0 1 .64-.145zm1.058 1.899a2.045 2.045 0 0 0-.093-.602 1.609 1.609 0 0 0-.239-.445 1.208 1.208 0 0 0-.343-.277 1.063 1.063 0 0 0-.407-.094 1.015 1.015 0 0 0-.406.094c-.129.066-.242.16-.34.277A1.51 1.51 0 0 0 1-2.395a1.814 1.814 0 0 0-.086.579c0 .21.027.406.086.578.059.18.137.328.234.449.098.129.211.227.344.293a.8.8 0 0 0 .418.101.9.9 0 0 0 .414-.09c.125-.058.238-.148.34-.265.094-.117.172-.262.227-.441a2.09 2.09 0 0 0 .086-.594zm-1.5-3.344a.434.434 0 0 1 .118.285.415.415 0 0 1-.117.278.364.364 0 0 1-.278.117A.359.359 0 0 1 1-4.566a.353.353 0 0 1-.117-.278A.367.367 0 0 1 1-5.125a.405.405 0 0 1 .285-.121.43.43 0 0 1 .278.117zm1.407 0a.434.434 0 0 1 .117.285.401.401 0 0 1-.121.278.35.35 0 0 1-.274.117.345.345 0 0 1-.28-.114.368.368 0 0 1-.114-.28.395.395 0 0 1 .394-.403.43.43 0 0 1 .278.117zm0 0"/></symbol><symbol overflow="visible" id="H"><path style="stroke:none" d="M2.707-5.293c.457.004.824.168 1.106.496l-.262.52c-.043 0-.067-.02-.063-.063a.464.464 0 0 0-.015-.094.994.994 0 0 0-1.145-.344.758.758 0 0 0-.27.192.792.792 0 0 0-.175.363 1.932 1.932 0 0 0-.059.555v.273h1.184v.461H1.824V0h-.547v-2.934h-.78v-.46h.78v-.356c0-.277.036-.512.106-.71.07-.196.172-.356.308-.478.133-.12.286-.21.457-.269.168-.055.356-.082.559-.086zm0 0"/></symbol><symbol overflow="visible" id="I"><path style="stroke:none" d="M.672-5.246h1.586v4.789h1.054V0H.626v-.457h1.063v-4.332H.671zm0 0"/></symbol><symbol overflow="visible" id="J"><path style="stroke:none" d="M.55 0v-5.246h.65c-.005.008-.005.008.003.008 0 0 .004.004.004.008 0 .02-.012.043-.035.066a.265.265 0 0 0-.05.105v2.09c.14-.215.32-.39.534-.523a1.212 1.212 0 0 1 1.098-.117c.133.054.25.144.351.265.102.121.176.278.23.465.052.192.08.422.083.692V0h-.57v-2.172c0-.375-.067-.64-.196-.793a.606.606 0 0 0-.465-.23 1.015 1.015 0 0 0-.367.078 1.558 1.558 0 0 0-.351.222.911.911 0 0 0-.258.348 1.065 1.065 0 0 0-.09.473V0zm0 0"/></symbol><symbol overflow="visible" id="K"><path style="stroke:none" d="M.496-3.605h.57v2.011c0 .235.02.43.063.582a.93.93 0 0 0 .176.375c.074.098.16.164.261.203a.718.718 0 0 0 .325.063c.12-.008.242-.04.363-.094a.972.972 0 0 0 .531-.598c.047-.148.074-.335.078-.554v-1.988h.57v3.28c0 .126.012.231.04.325h-.594a.922.922 0 0 1-.016-.121.52.52 0 0 1 0-.156l.008-.274c-.117.2-.273.356-.469.469-.199.11-.418.164-.656.168a1.32 1.32 0 0 1-.496-.098 1.02 1.02 0 0 1-.402-.3 1.254 1.254 0 0 1-.27-.524 2.535 2.535 0 0 1-.09-.758zm0 0"/></symbol><symbol overflow="visible" id="L"><path style="stroke:none" d="M1.223-3.031a.784.784 0 0 0-.164.86c.039.097.093.183.168.253a.657.657 0 0 0 .25.168c.097.043.199.063.308.063a.79.79 0 0 0 .559-.234.969.969 0 0 0 .172-.255.825.825 0 0 0 .066-.297.927.927 0 0 0-.066-.3 1.141 1.141 0 0 0-.172-.258.902.902 0 0 0-.258-.172.9.9 0 0 0-.3-.063.799.799 0 0 0-.563.235zm1.453-.348c.25-.21.55-.316.898-.32h.102l.074.472-.11-.011c-.038 0-.074 0-.105-.004a1.272 1.272 0 0 0-.625.164 1.104 1.104 0 0 1 .078 1.086c-.07.152-.164.285-.281.394a1.354 1.354 0 0 1-.414.27 1.314 1.314 0 0 1-.96.012c-.173.164-.255.3-.251.41-.004.09.047.16.152.207.102.054.243.078.422.074.098.004.2 0 .305-.012l.289-.011c.234.003.438.027.61.07.171.047.308.11.413.187.106.082.184.18.239.29.047.109.074.222.078.355-.004.137-.04.273-.102.41-.07.133-.172.254-.308.356a1.666 1.666 0 0 1-.516.246c-.21.058-.453.086-.73.09a4.034 4.034 0 0 1-.746-.067 1.622 1.622 0 0 1-.504-.187.828.828 0 0 1-.286-.27.557.557 0 0 1-.097-.328C.297.219.496-.046.89-.293.695-.391.598-.555.6-.789c-.003-.223.133-.45.41-.68a1.088 1.088 0 0 1-.398-.422 1.058 1.058 0 0 1-.14-.554 1.052 1.052 0 0 1 .109-.5c.07-.153.172-.29.297-.407.125-.117.266-.207.426-.273.16-.063.324-.094.496-.098.347.004.64.118.875.344zM1.27-.187C.969-.023.82.16.82.363c0 .102.028.188.09.262.059.07.14.129.246.176.098.043.219.074.36.097.136.016.285.028.441.032.32-.004.586-.063.797-.176.21-.117.316-.27.316-.461a.438.438 0 0 0-.18-.332c-.109-.074-.277-.113-.507-.117-.028.004-.055.004-.078.004-.032.004-.055.007-.078.004-.204.003-.383 0-.54-.012a5.776 5.776 0 0 1-.417-.027zm0 0"/></symbol><symbol overflow="visible" id="M"><path style="stroke:none" d="M4.047-8.445V0h-.934v-7.27l-1.707.504-.215-.53 2.207-1.15zm0 0"/></symbol><symbol overflow="visible" id="N"><path style="stroke:none" d="M1.434-8.434H5.71v.856H2.234l-.136 2.422c.441-.215.902-.32 1.382-.324.36.003.692.066 1.004.195.309.133.582.324.813.57.23.25.406.547.535.895.125.347.191.738.191 1.168 0 .433-.07.824-.203 1.172-.14.347-.328.644-.562.886a2.37 2.37 0 0 1-.84.555 2.95 2.95 0 0 1-1.047.187 3.134 3.134 0 0 1-1.43-.335 2.805 2.805 0 0 1-1.074-.965l.84-.621c.04.027.063.082.07.164 0 .082.008.132.024.148.031.066.094.14.187.23.086.09.203.176.344.258.14.082.3.153.484.211.184.059.383.09.602.086.21.004.418-.043.621-.14.195-.094.367-.23.516-.403.144-.172.265-.379.355-.629.09-.242.133-.527.137-.847a2.581 2.581 0 0 0-.137-.844 1.992 1.992 0 0 0-.367-.629c-.16-.168-.34-.3-.547-.39a1.754 1.754 0 0 0-.676-.137c-.289.004-.57.074-.847.21-.282.141-.528.337-.73.587l-.59-.243zm0 0"/></symbol><symbol overflow="visible" id="O"><path style="stroke:none" d="M5.684-6.54c0 .407-.125.794-.368 1.161-.246.367-.57.66-.972.871.484.23.879.551 1.176.969.296.422.445.875.449 1.36-.004.327-.07.632-.203.913A2.419 2.419 0 0 1 4.399-.039a2.999 2.999 0 0 1-1.016.176A2.982 2.982 0 0 1 2.367-.04a2.445 2.445 0 0 1-.82-.48c-.23-.2-.41-.438-.54-.72-.132-.273-.198-.57-.194-.886a2.237 2.237 0 0 1 .46-1.367c.305-.422.715-.75 1.23-.988-.39-.196-.698-.473-.933-.832a2.044 2.044 0 0 1-.351-1.145c0-.29.058-.559.176-.813.117-.25.277-.468.484-.66.207-.187.445-.336.719-.445.265-.105.562-.16.882-.164.313.004.606.055.88.156.269.106.5.25.695.43.191.187.343.402.46.644.11.247.169.5.169.77zm-2.48 2.438c-.411.172-.75.43-1.017.766a1.726 1.726 0 0 0-.402 1.117c-.004.207.04.403.13.582.081.184.198.34.35.473.145.137.317.246.512.324.192.086.399.125.625.121a1.66 1.66 0 0 0 1.133-.426c.14-.125.25-.277.336-.457.078-.171.121-.367.125-.578-.004-.414-.168-.793-.488-1.14-.328-.348-.762-.61-1.305-.782zm-.849-1.71c.106.183.247.343.426.472.176.133.375.254.602.371l.23.125a2.4 2.4 0 0 0 .825-.734c.214-.309.324-.621.328-.942a1.18 1.18 0 0 0-.102-.46 1.607 1.607 0 0 0-.285-.395 1.532 1.532 0 0 0-.43-.277 1.404 1.404 0 0 0-1.047 0c-.16.07-.297.16-.41.265-.12.11-.21.235-.273.38-.067.148-.098.3-.094.448-.004.274.074.52.23.747zm0 0"/></symbol></defs><path style="stroke:none;fill-rule:nonzero;fill:#fff;fill-opacity:1" d="M0 0h348v128H0zm0 0"/><path style="fill:none;stroke-width:0;stroke-linecap:butt;stroke-linejoin:miter;stroke:#000;stroke-opacity:1;stroke-miterlimit:10" d="M-.4-.4h17.8v6.8H-.4zm0 0" transform="matrix(20 0 0 20 8 8)"/><path style="fill-rule:evenodd;fill:#efefef;fill-opacity:1;stroke-width:.1;stroke-linecap:butt;stroke-linejoin:round;stroke:#000;stroke-opacity:1;stroke-miterlimit:10" d="M6.3 0h4.4a.3.3 0 0 1 .3.3v5.4a.3.3 0 0 1-.3.3H6.3a.3.3 0 0 1-.3-.3V.3a.3.3 0 0 1 .3-.3" transform="matrix(20 0 0 20 8 8)"/><g style="fill:#000;fill-opacity:1"><use xlink:href="#a" x="132" y="28"/><use xlink:href="#b" x="137.879" y="28"/><use xlink:href="#c" x="146.063" y="28"/></g><path style="fill:none;stroke-width:.1;stroke-linecap:butt;stroke-linejoin:round;stroke:#000;stroke-opacity:1;stroke-miterlimit:10" d="M6 1.4h5M8.8 1.4V0M6 2.4h5" transform="matrix(20 0 0 20 8 8)"/><g style="fill:#000;fill-opacity:1"><use xlink:href="#d" x="132" y="52"/><use xlink:href="#e" x="139.246" y="52"/><use xlink:href="#f" x="146.004" y="52"/><use xlink:href="#g" x="152.762" y="52"/><use xlink:href="#h" x="159.52" y="52"/><use xlink:href="#e" x="166.277" y="52"/><use xlink:href="#d" x="173.035" y="52"/><use xlink:href="#i" x="180.281" y="52"/><use xlink:href="#i" x="183.426" y="52"/><use xlink:href="#i" x="186.57" y="52"/></g><path style="fill:none;stroke-width:.05;stroke-linecap:butt;stroke-linejoin:round;stroke:#000;stroke-opacity:1;stroke-miterlimit:10" d="M6 3h5M6 3.6h5" transform="matrix(20 0 0 20 8 8)"/><g style="fill:#000;fill-opacity:1"><use xlink:href="#j" x="132" y="88"/><use xlink:href="#k" x="135.945" y="88"/><use xlink:href="#l" x="139.891" y="88"/><use xlink:href="#m" x="143.836" y="88"/></g><path style="fill:none;stroke-width:.05;stroke-linecap:butt;stroke-linejoin:round;stroke:#000;stroke-opacity:1;stroke-miterlimit:10" d="M6 4.2h5" transform="matrix(20 0 0 20 8 8)"/><g style="fill:#000;fill-opacity:1"><use xlink:href="#n" x="132" y="64"/><use xlink:href="#o" x="135.945" y="64"/><use xlink:href="#p" x="139.891" y="64"/><use xlink:href="#m" x="143.836" y="64"/></g><path style="fill:none;stroke-width:.05;stroke-linecap:butt;stroke-linejoin:round;stroke:#000;stroke-opacity:1;stroke-miterlimit:10" d="M6 4.8h5" transform="matrix(20 0 0 20 8 8)"/><g style="fill:#000;fill-opacity:1"><use xlink:href="#q" x="132" y="76"/><use xlink:href="#r" x="135.945" y="76"/><use xlink:href="#s" x="139.891" y="76"/><use xlink:href="#m" x="143.836" y="76"/><use xlink:href="#t" x="147.781" y="76"/><use xlink:href="#j" x="151.727" y="76"/></g><path style="fill:none;stroke-width:.05;stroke-linecap:butt;stroke-linejoin:round;stroke:#000;stroke-opacity:1;stroke-miterlimit:10" d="M8.128 4.8V2.4" transform="matrix(20 0 0 20 8 8)"/><g style="fill:#000;fill-opacity:1"><use xlink:href="#u" x="175.648" y="64"/><use xlink:href="#v" x="179.594" y="64"/><use xlink:href="#w" x="183.539" y="64"/></g><g style="fill:#000;fill-opacity:1"><use xlink:href="#m" x="175.648" y="76"/><use xlink:href="#x" x="179.594" y="76"/><use xlink:href="#t" x="183.539" y="76"/><use xlink:href="#y" x="187.484" y="76"/><use xlink:href="#z" x="191.43" y="76"/><use xlink:href="#m" x="195.375" y="76"/><use xlink:href="#r" x="199.32" y="76"/><use xlink:href="#v" x="203.266" y="76"/><use xlink:href="#v" x="207.211" y="76"/><use xlink:href="#v" x="211.156" y="76"/></g><g style="fill:#000;fill-opacity:1"><use xlink:href="#t" x="175.648" y="88"/><use xlink:href="#q" x="179.594" y="88"/><use xlink:href="#p" x="183.539" y="88"/><use xlink:href="#p" x="187.484" y="88"/><use xlink:href="#A" x="191.43" y="88"/><use xlink:href="#j" x="195.375" y="88"/></g><g style="fill:#000;fill-opacity:1"><use xlink:href="#B" x="134.098" y="116"/><use xlink:href="#C" x="138.043" y="116"/><use xlink:href="#D" x="141.988" y="116"/><use xlink:href="#j" x="145.934" y="116"/><use xlink:href="#m" x="149.879" y="116"/><use xlink:href="#E" x="153.824" y="116"/><use xlink:href="#F" x="157.77" y="116"/><use xlink:href="#m" x="161.715" y="116"/><use xlink:href="#C" x="165.66" y="116"/><use xlink:href="#G" x="169.605" y="116"/><use xlink:href="#H" x="173.551" y="116"/><use xlink:href="#H" x="177.496" y="116"/><use xlink:href="#m" x="181.441" y="116"/><use xlink:href="#n" x="185.387" y="116"/><use xlink:href="#j" x="189.332" y="116"/><use xlink:href="#I" x="193.277" y="116"/><use xlink:href="#A" x="197.223" y="116"/><use xlink:href="#t" x="201.168" y="116"/><use xlink:href="#J" x="205.113" y="116"/><use xlink:href="#K" x="209.059" y="116"/><use xlink:href="#n" x="213.004" y="116"/><use xlink:href="#L" x="216.949" y="116"/></g><g style="fill:#000;fill-opacity:1"><use xlink:href="#M" x="194.727" y="28"/><use xlink:href="#N" x="201.504" y="28"/><use xlink:href="#O" x="208.281" y="28"/></g><g style="fill:#000;fill-opacity:1"><use xlink:href="#j" x="131.934" y="100.117"/><use xlink:href="#o" x="135.879" y="100.117"/><use xlink:href="#L" x="139.824" y="100.117"/><use xlink:href="#L" x="143.77" y="100.117"/><use xlink:href="#m" x="147.715" y="100.117"/><use xlink:href="#C" x="151.66" y="100.117"/></g><g style="fill:#000;fill-opacity:1"><use xlink:href="#F" x="175.586" y="100.117"/><use xlink:href="#o" x="179.531" y="100.117"/><use xlink:href="#I" x="183.477" y="100.117"/><use xlink:href="#m" x="187.422" y="100.117"/><use xlink:href="#n" x="191.367" y="100.117"/><use xlink:href="#j" x="195.313" y="100.117"/><use xlink:href="#A" x="199.258" y="100.117"/><use xlink:href="#n" x="203.203" y="100.117"/></g></svg>